G04 #@! TF.GenerationSoftware,KiCad,Pcbnew,5.1.4+dfsg1-1*
G04 #@! TF.CreationDate,2019-12-22T00:43:44+01:00*
G04 #@! TF.ProjectId,USB-C-Screen-Adapter-LDR6023SS,5553422d-432d-4536-9372-65656e2d4164,rev?*
G04 #@! TF.SameCoordinates,Original*
G04 #@! TF.FileFunction,Soldermask,Bot*
G04 #@! TF.FilePolarity,Negative*
%FSLAX46Y46*%
G04 Gerber Fmt 4.6, Leading zero omitted, Abs format (unit mm)*
G04 Created by KiCad (PCBNEW 5.1.4+dfsg1-1) date 2019-12-22 00:43:44*
%MOMM*%
%LPD*%
G04 APERTURE LIST*
%ADD10O,1.700000X1.700000*%
%ADD11R,1.700000X1.700000*%
%ADD12C,0.500000*%
%ADD13C,0.100000*%
%ADD14C,1.300000*%
%ADD15C,1.100000*%
%ADD16C,3.200000*%
G04 APERTURE END LIST*
D10*
X101800000Y-129020000D03*
X101800000Y-126480000D03*
X101800000Y-123940000D03*
D11*
X101800000Y-121400000D03*
D12*
X118900000Y-129512500D03*
X112100000Y-129512500D03*
D13*
G36*
X120056856Y-127701565D02*
G01*
X120088404Y-127706245D01*
X120119343Y-127713994D01*
X120149372Y-127724739D01*
X120178204Y-127738376D01*
X120205560Y-127754772D01*
X120231178Y-127773772D01*
X120254810Y-127795190D01*
X120276228Y-127818822D01*
X120295228Y-127844440D01*
X120311624Y-127871796D01*
X120325261Y-127900628D01*
X120336006Y-127930657D01*
X120343755Y-127961596D01*
X120348435Y-127993144D01*
X120350000Y-128025000D01*
X120350000Y-128675000D01*
X120348435Y-128706856D01*
X120343755Y-128738404D01*
X120336006Y-128769343D01*
X120325261Y-128799372D01*
X120311624Y-128828204D01*
X120295228Y-128855560D01*
X120276228Y-128881178D01*
X120254810Y-128904810D01*
X120231178Y-128926228D01*
X120205560Y-128945228D01*
X120178204Y-128961624D01*
X120149372Y-128975261D01*
X120119343Y-128986006D01*
X120088404Y-128993755D01*
X120056856Y-128998435D01*
X120025000Y-129000000D01*
X119075000Y-129000000D01*
X119043144Y-128998435D01*
X119011596Y-128993755D01*
X118980657Y-128986006D01*
X118950628Y-128975261D01*
X118921796Y-128961624D01*
X118894440Y-128945228D01*
X118868822Y-128926228D01*
X118845190Y-128904810D01*
X118823772Y-128881178D01*
X118804772Y-128855560D01*
X118788376Y-128828204D01*
X118774739Y-128799372D01*
X118763994Y-128769343D01*
X118756245Y-128738404D01*
X118751565Y-128706856D01*
X118750000Y-128675000D01*
X118750000Y-128025000D01*
X118751565Y-127993144D01*
X118756245Y-127961596D01*
X118763994Y-127930657D01*
X118774739Y-127900628D01*
X118788376Y-127871796D01*
X118804772Y-127844440D01*
X118823772Y-127818822D01*
X118845190Y-127795190D01*
X118868822Y-127773772D01*
X118894440Y-127754772D01*
X118921796Y-127738376D01*
X118950628Y-127724739D01*
X118980657Y-127713994D01*
X119011596Y-127706245D01*
X119043144Y-127701565D01*
X119075000Y-127700000D01*
X120025000Y-127700000D01*
X120056856Y-127701565D01*
X120056856Y-127701565D01*
G37*
D14*
X119550000Y-128350000D03*
D13*
G36*
X111956856Y-127701565D02*
G01*
X111988404Y-127706245D01*
X112019343Y-127713994D01*
X112049372Y-127724739D01*
X112078204Y-127738376D01*
X112105560Y-127754772D01*
X112131178Y-127773772D01*
X112154810Y-127795190D01*
X112176228Y-127818822D01*
X112195228Y-127844440D01*
X112211624Y-127871796D01*
X112225261Y-127900628D01*
X112236006Y-127930657D01*
X112243755Y-127961596D01*
X112248435Y-127993144D01*
X112250000Y-128025000D01*
X112250000Y-128675000D01*
X112248435Y-128706856D01*
X112243755Y-128738404D01*
X112236006Y-128769343D01*
X112225261Y-128799372D01*
X112211624Y-128828204D01*
X112195228Y-128855560D01*
X112176228Y-128881178D01*
X112154810Y-128904810D01*
X112131178Y-128926228D01*
X112105560Y-128945228D01*
X112078204Y-128961624D01*
X112049372Y-128975261D01*
X112019343Y-128986006D01*
X111988404Y-128993755D01*
X111956856Y-128998435D01*
X111925000Y-129000000D01*
X110975000Y-129000000D01*
X110943144Y-128998435D01*
X110911596Y-128993755D01*
X110880657Y-128986006D01*
X110850628Y-128975261D01*
X110821796Y-128961624D01*
X110794440Y-128945228D01*
X110768822Y-128926228D01*
X110745190Y-128904810D01*
X110723772Y-128881178D01*
X110704772Y-128855560D01*
X110688376Y-128828204D01*
X110674739Y-128799372D01*
X110663994Y-128769343D01*
X110656245Y-128738404D01*
X110651565Y-128706856D01*
X110650000Y-128675000D01*
X110650000Y-128025000D01*
X110651565Y-127993144D01*
X110656245Y-127961596D01*
X110663994Y-127930657D01*
X110674739Y-127900628D01*
X110688376Y-127871796D01*
X110704772Y-127844440D01*
X110723772Y-127818822D01*
X110745190Y-127795190D01*
X110768822Y-127773772D01*
X110794440Y-127754772D01*
X110821796Y-127738376D01*
X110850628Y-127724739D01*
X110880657Y-127713994D01*
X110911596Y-127706245D01*
X110943144Y-127701565D01*
X110975000Y-127700000D01*
X111925000Y-127700000D01*
X111956856Y-127701565D01*
X111956856Y-127701565D01*
G37*
D14*
X111450000Y-128350000D03*
D13*
G36*
X120121955Y-126901324D02*
G01*
X120148650Y-126905284D01*
X120174828Y-126911841D01*
X120200238Y-126920933D01*
X120224634Y-126932472D01*
X120247782Y-126946346D01*
X120269458Y-126962422D01*
X120289454Y-126980546D01*
X120307578Y-127000542D01*
X120323654Y-127022218D01*
X120337528Y-127045366D01*
X120349067Y-127069762D01*
X120358159Y-127095172D01*
X120364716Y-127121350D01*
X120368676Y-127148045D01*
X120370000Y-127175000D01*
X120370000Y-128725000D01*
X120368676Y-128751955D01*
X120364716Y-128778650D01*
X120358159Y-128804828D01*
X120349067Y-128830238D01*
X120337528Y-128854634D01*
X120323654Y-128877782D01*
X120307578Y-128899458D01*
X120289454Y-128919454D01*
X120269458Y-128937578D01*
X120247782Y-128953654D01*
X120224634Y-128967528D01*
X120200238Y-128979067D01*
X120174828Y-128988159D01*
X120148650Y-128994716D01*
X120121955Y-128998676D01*
X120095000Y-129000000D01*
X119545000Y-129000000D01*
X119518045Y-128998676D01*
X119491350Y-128994716D01*
X119465172Y-128988159D01*
X119439762Y-128979067D01*
X119415366Y-128967528D01*
X119392218Y-128953654D01*
X119370542Y-128937578D01*
X119350546Y-128919454D01*
X119332422Y-128899458D01*
X119316346Y-128877782D01*
X119302472Y-128854634D01*
X119290933Y-128830238D01*
X119281841Y-128804828D01*
X119275284Y-128778650D01*
X119271324Y-128751955D01*
X119270000Y-128725000D01*
X119270000Y-127175000D01*
X119271324Y-127148045D01*
X119275284Y-127121350D01*
X119281841Y-127095172D01*
X119290933Y-127069762D01*
X119302472Y-127045366D01*
X119316346Y-127022218D01*
X119332422Y-127000542D01*
X119350546Y-126980546D01*
X119370542Y-126962422D01*
X119392218Y-126946346D01*
X119415366Y-126932472D01*
X119439762Y-126920933D01*
X119465172Y-126911841D01*
X119491350Y-126905284D01*
X119518045Y-126901324D01*
X119545000Y-126900000D01*
X120095000Y-126900000D01*
X120121955Y-126901324D01*
X120121955Y-126901324D01*
G37*
D15*
X119820000Y-127950000D03*
D13*
G36*
X111481955Y-126901324D02*
G01*
X111508650Y-126905284D01*
X111534828Y-126911841D01*
X111560238Y-126920933D01*
X111584634Y-126932472D01*
X111607782Y-126946346D01*
X111629458Y-126962422D01*
X111649454Y-126980546D01*
X111667578Y-127000542D01*
X111683654Y-127022218D01*
X111697528Y-127045366D01*
X111709067Y-127069762D01*
X111718159Y-127095172D01*
X111724716Y-127121350D01*
X111728676Y-127148045D01*
X111730000Y-127175000D01*
X111730000Y-128725000D01*
X111728676Y-128751955D01*
X111724716Y-128778650D01*
X111718159Y-128804828D01*
X111709067Y-128830238D01*
X111697528Y-128854634D01*
X111683654Y-128877782D01*
X111667578Y-128899458D01*
X111649454Y-128919454D01*
X111629458Y-128937578D01*
X111607782Y-128953654D01*
X111584634Y-128967528D01*
X111560238Y-128979067D01*
X111534828Y-128988159D01*
X111508650Y-128994716D01*
X111481955Y-128998676D01*
X111455000Y-129000000D01*
X110905000Y-129000000D01*
X110878045Y-128998676D01*
X110851350Y-128994716D01*
X110825172Y-128988159D01*
X110799762Y-128979067D01*
X110775366Y-128967528D01*
X110752218Y-128953654D01*
X110730542Y-128937578D01*
X110710546Y-128919454D01*
X110692422Y-128899458D01*
X110676346Y-128877782D01*
X110662472Y-128854634D01*
X110650933Y-128830238D01*
X110641841Y-128804828D01*
X110635284Y-128778650D01*
X110631324Y-128751955D01*
X110630000Y-128725000D01*
X110630000Y-127175000D01*
X110631324Y-127148045D01*
X110635284Y-127121350D01*
X110641841Y-127095172D01*
X110650933Y-127069762D01*
X110662472Y-127045366D01*
X110676346Y-127022218D01*
X110692422Y-127000542D01*
X110710546Y-126980546D01*
X110730542Y-126962422D01*
X110752218Y-126946346D01*
X110775366Y-126932472D01*
X110799762Y-126920933D01*
X110825172Y-126911841D01*
X110851350Y-126905284D01*
X110878045Y-126901324D01*
X110905000Y-126900000D01*
X111455000Y-126900000D01*
X111481955Y-126901324D01*
X111481955Y-126901324D01*
G37*
D15*
X111180000Y-127950000D03*
D13*
G36*
X120121955Y-131301324D02*
G01*
X120148650Y-131305284D01*
X120174828Y-131311841D01*
X120200238Y-131320933D01*
X120224634Y-131332472D01*
X120247782Y-131346346D01*
X120269458Y-131362422D01*
X120289454Y-131380546D01*
X120307578Y-131400542D01*
X120323654Y-131422218D01*
X120337528Y-131445366D01*
X120349067Y-131469762D01*
X120358159Y-131495172D01*
X120364716Y-131521350D01*
X120368676Y-131548045D01*
X120370000Y-131575000D01*
X120370000Y-133425000D01*
X120368676Y-133451955D01*
X120364716Y-133478650D01*
X120358159Y-133504828D01*
X120349067Y-133530238D01*
X120337528Y-133554634D01*
X120323654Y-133577782D01*
X120307578Y-133599458D01*
X120289454Y-133619454D01*
X120269458Y-133637578D01*
X120247782Y-133653654D01*
X120224634Y-133667528D01*
X120200238Y-133679067D01*
X120174828Y-133688159D01*
X120148650Y-133694716D01*
X120121955Y-133698676D01*
X120095000Y-133700000D01*
X119545000Y-133700000D01*
X119518045Y-133698676D01*
X119491350Y-133694716D01*
X119465172Y-133688159D01*
X119439762Y-133679067D01*
X119415366Y-133667528D01*
X119392218Y-133653654D01*
X119370542Y-133637578D01*
X119350546Y-133619454D01*
X119332422Y-133599458D01*
X119316346Y-133577782D01*
X119302472Y-133554634D01*
X119290933Y-133530238D01*
X119281841Y-133504828D01*
X119275284Y-133478650D01*
X119271324Y-133451955D01*
X119270000Y-133425000D01*
X119270000Y-131575000D01*
X119271324Y-131548045D01*
X119275284Y-131521350D01*
X119281841Y-131495172D01*
X119290933Y-131469762D01*
X119302472Y-131445366D01*
X119316346Y-131422218D01*
X119332422Y-131400542D01*
X119350546Y-131380546D01*
X119370542Y-131362422D01*
X119392218Y-131346346D01*
X119415366Y-131332472D01*
X119439762Y-131320933D01*
X119465172Y-131311841D01*
X119491350Y-131305284D01*
X119518045Y-131301324D01*
X119545000Y-131300000D01*
X120095000Y-131300000D01*
X120121955Y-131301324D01*
X120121955Y-131301324D01*
G37*
D15*
X119820000Y-132500000D03*
D13*
G36*
X111481955Y-131301324D02*
G01*
X111508650Y-131305284D01*
X111534828Y-131311841D01*
X111560238Y-131320933D01*
X111584634Y-131332472D01*
X111607782Y-131346346D01*
X111629458Y-131362422D01*
X111649454Y-131380546D01*
X111667578Y-131400542D01*
X111683654Y-131422218D01*
X111697528Y-131445366D01*
X111709067Y-131469762D01*
X111718159Y-131495172D01*
X111724716Y-131521350D01*
X111728676Y-131548045D01*
X111730000Y-131575000D01*
X111730000Y-133425000D01*
X111728676Y-133451955D01*
X111724716Y-133478650D01*
X111718159Y-133504828D01*
X111709067Y-133530238D01*
X111697528Y-133554634D01*
X111683654Y-133577782D01*
X111667578Y-133599458D01*
X111649454Y-133619454D01*
X111629458Y-133637578D01*
X111607782Y-133653654D01*
X111584634Y-133667528D01*
X111560238Y-133679067D01*
X111534828Y-133688159D01*
X111508650Y-133694716D01*
X111481955Y-133698676D01*
X111455000Y-133700000D01*
X110905000Y-133700000D01*
X110878045Y-133698676D01*
X110851350Y-133694716D01*
X110825172Y-133688159D01*
X110799762Y-133679067D01*
X110775366Y-133667528D01*
X110752218Y-133653654D01*
X110730542Y-133637578D01*
X110710546Y-133619454D01*
X110692422Y-133599458D01*
X110676346Y-133577782D01*
X110662472Y-133554634D01*
X110650933Y-133530238D01*
X110641841Y-133504828D01*
X110635284Y-133478650D01*
X110631324Y-133451955D01*
X110630000Y-133425000D01*
X110630000Y-131575000D01*
X110631324Y-131548045D01*
X110635284Y-131521350D01*
X110641841Y-131495172D01*
X110650933Y-131469762D01*
X110662472Y-131445366D01*
X110676346Y-131422218D01*
X110692422Y-131400542D01*
X110710546Y-131380546D01*
X110730542Y-131362422D01*
X110752218Y-131346346D01*
X110775366Y-131332472D01*
X110799762Y-131320933D01*
X110825172Y-131311841D01*
X110851350Y-131305284D01*
X110878045Y-131301324D01*
X110905000Y-131300000D01*
X111455000Y-131300000D01*
X111481955Y-131301324D01*
X111481955Y-131301324D01*
G37*
D15*
X111180000Y-132500000D03*
D16*
X103450000Y-103450000D03*
X127530000Y-103470000D03*
M02*
