G04 #@! TF.GenerationSoftware,KiCad,Pcbnew,5.1.4+dfsg1-1*
G04 #@! TF.CreationDate,2019-12-22T00:43:44+01:00*
G04 #@! TF.ProjectId,USB-C-Screen-Adapter-LDR6023SS,5553422d-432d-4536-9372-65656e2d4164,rev?*
G04 #@! TF.SameCoordinates,Original*
G04 #@! TF.FileFunction,Paste,Top*
G04 #@! TF.FilePolarity,Positive*
%FSLAX46Y46*%
G04 Gerber Fmt 4.6, Leading zero omitted, Abs format (unit mm)*
G04 Created by KiCad (PCBNEW 5.1.4+dfsg1-1) date 2019-12-22 00:43:44*
%MOMM*%
%LPD*%
G04 APERTURE LIST*
%ADD10R,0.450000X0.900000*%
%ADD11R,0.260000X1.000000*%
%ADD12R,0.300000X0.950000*%
%ADD13R,1.950000X1.200000*%
%ADD14C,0.100000*%
%ADD15C,0.590000*%
%ADD16R,1.500000X2.000000*%
%ADD17R,3.800000X2.000000*%
%ADD18R,1.060000X0.650000*%
%ADD19R,0.650000X1.060000*%
%ADD20R,0.450000X1.500000*%
%ADD21C,0.975000*%
%ADD22C,0.875000*%
%ADD23R,1.200000X3.700000*%
%ADD24C,1.300000*%
%ADD25C,1.100000*%
%ADD26R,1.100000X1.100000*%
G04 APERTURE END LIST*
D10*
X123700000Y-102355000D03*
X107300000Y-102355000D03*
D11*
X123000000Y-102030000D03*
X122400000Y-102030000D03*
X121800000Y-102030000D03*
X121200000Y-102030000D03*
X120600000Y-102030000D03*
X120000000Y-102030000D03*
X119400000Y-102030000D03*
X118800000Y-102030000D03*
X118200000Y-102030000D03*
X117600000Y-102030000D03*
X117000000Y-102030000D03*
X116400000Y-102030000D03*
X115800000Y-102030000D03*
X115200000Y-102030000D03*
X114600000Y-102030000D03*
X114000000Y-102030000D03*
X113400000Y-102030000D03*
X112800000Y-102030000D03*
X112200000Y-102030000D03*
X111600000Y-102030000D03*
X111000000Y-102030000D03*
X110400000Y-102030000D03*
X109800000Y-102030000D03*
X109200000Y-102030000D03*
X108600000Y-102030000D03*
X108000000Y-102030000D03*
D12*
X122700000Y-104905000D03*
X113700000Y-104905000D03*
X114300000Y-104905000D03*
X114900000Y-104905000D03*
X113100000Y-104905000D03*
X112500000Y-104905000D03*
X111900000Y-104905000D03*
X108300000Y-104905000D03*
X108900000Y-104905000D03*
X109500000Y-104905000D03*
X111300000Y-104905000D03*
X110700000Y-104905000D03*
X110100000Y-104905000D03*
X117300000Y-104905000D03*
X117900000Y-104905000D03*
X118500000Y-104905000D03*
X116700000Y-104905000D03*
X116100000Y-104905000D03*
X115500000Y-104905000D03*
X119100000Y-104905000D03*
X119700000Y-104905000D03*
X120300000Y-104905000D03*
X122100000Y-104905000D03*
X121500000Y-104905000D03*
X120900000Y-104905000D03*
D13*
X128475000Y-132100000D03*
X122625000Y-132100000D03*
X128475000Y-127100000D03*
X122625000Y-127100000D03*
X128475000Y-129600000D03*
X122625000Y-129600000D03*
D14*
G36*
X129686958Y-109220710D02*
G01*
X129701276Y-109222834D01*
X129715317Y-109226351D01*
X129728946Y-109231228D01*
X129742031Y-109237417D01*
X129754447Y-109244858D01*
X129766073Y-109253481D01*
X129776798Y-109263202D01*
X129786519Y-109273927D01*
X129795142Y-109285553D01*
X129802583Y-109297969D01*
X129808772Y-109311054D01*
X129813649Y-109324683D01*
X129817166Y-109338724D01*
X129819290Y-109353042D01*
X129820000Y-109367500D01*
X129820000Y-109662500D01*
X129819290Y-109676958D01*
X129817166Y-109691276D01*
X129813649Y-109705317D01*
X129808772Y-109718946D01*
X129802583Y-109732031D01*
X129795142Y-109744447D01*
X129786519Y-109756073D01*
X129776798Y-109766798D01*
X129766073Y-109776519D01*
X129754447Y-109785142D01*
X129742031Y-109792583D01*
X129728946Y-109798772D01*
X129715317Y-109803649D01*
X129701276Y-109807166D01*
X129686958Y-109809290D01*
X129672500Y-109810000D01*
X129327500Y-109810000D01*
X129313042Y-109809290D01*
X129298724Y-109807166D01*
X129284683Y-109803649D01*
X129271054Y-109798772D01*
X129257969Y-109792583D01*
X129245553Y-109785142D01*
X129233927Y-109776519D01*
X129223202Y-109766798D01*
X129213481Y-109756073D01*
X129204858Y-109744447D01*
X129197417Y-109732031D01*
X129191228Y-109718946D01*
X129186351Y-109705317D01*
X129182834Y-109691276D01*
X129180710Y-109676958D01*
X129180000Y-109662500D01*
X129180000Y-109367500D01*
X129180710Y-109353042D01*
X129182834Y-109338724D01*
X129186351Y-109324683D01*
X129191228Y-109311054D01*
X129197417Y-109297969D01*
X129204858Y-109285553D01*
X129213481Y-109273927D01*
X129223202Y-109263202D01*
X129233927Y-109253481D01*
X129245553Y-109244858D01*
X129257969Y-109237417D01*
X129271054Y-109231228D01*
X129284683Y-109226351D01*
X129298724Y-109222834D01*
X129313042Y-109220710D01*
X129327500Y-109220000D01*
X129672500Y-109220000D01*
X129686958Y-109220710D01*
X129686958Y-109220710D01*
G37*
D15*
X129500000Y-109515000D03*
D14*
G36*
X129686958Y-110190710D02*
G01*
X129701276Y-110192834D01*
X129715317Y-110196351D01*
X129728946Y-110201228D01*
X129742031Y-110207417D01*
X129754447Y-110214858D01*
X129766073Y-110223481D01*
X129776798Y-110233202D01*
X129786519Y-110243927D01*
X129795142Y-110255553D01*
X129802583Y-110267969D01*
X129808772Y-110281054D01*
X129813649Y-110294683D01*
X129817166Y-110308724D01*
X129819290Y-110323042D01*
X129820000Y-110337500D01*
X129820000Y-110632500D01*
X129819290Y-110646958D01*
X129817166Y-110661276D01*
X129813649Y-110675317D01*
X129808772Y-110688946D01*
X129802583Y-110702031D01*
X129795142Y-110714447D01*
X129786519Y-110726073D01*
X129776798Y-110736798D01*
X129766073Y-110746519D01*
X129754447Y-110755142D01*
X129742031Y-110762583D01*
X129728946Y-110768772D01*
X129715317Y-110773649D01*
X129701276Y-110777166D01*
X129686958Y-110779290D01*
X129672500Y-110780000D01*
X129327500Y-110780000D01*
X129313042Y-110779290D01*
X129298724Y-110777166D01*
X129284683Y-110773649D01*
X129271054Y-110768772D01*
X129257969Y-110762583D01*
X129245553Y-110755142D01*
X129233927Y-110746519D01*
X129223202Y-110736798D01*
X129213481Y-110726073D01*
X129204858Y-110714447D01*
X129197417Y-110702031D01*
X129191228Y-110688946D01*
X129186351Y-110675317D01*
X129182834Y-110661276D01*
X129180710Y-110646958D01*
X129180000Y-110632500D01*
X129180000Y-110337500D01*
X129180710Y-110323042D01*
X129182834Y-110308724D01*
X129186351Y-110294683D01*
X129191228Y-110281054D01*
X129197417Y-110267969D01*
X129204858Y-110255553D01*
X129213481Y-110243927D01*
X129223202Y-110233202D01*
X129233927Y-110223481D01*
X129245553Y-110214858D01*
X129257969Y-110207417D01*
X129271054Y-110201228D01*
X129284683Y-110196351D01*
X129298724Y-110192834D01*
X129313042Y-110190710D01*
X129327500Y-110190000D01*
X129672500Y-110190000D01*
X129686958Y-110190710D01*
X129686958Y-110190710D01*
G37*
D15*
X129500000Y-110485000D03*
D14*
G36*
X124386958Y-109220710D02*
G01*
X124401276Y-109222834D01*
X124415317Y-109226351D01*
X124428946Y-109231228D01*
X124442031Y-109237417D01*
X124454447Y-109244858D01*
X124466073Y-109253481D01*
X124476798Y-109263202D01*
X124486519Y-109273927D01*
X124495142Y-109285553D01*
X124502583Y-109297969D01*
X124508772Y-109311054D01*
X124513649Y-109324683D01*
X124517166Y-109338724D01*
X124519290Y-109353042D01*
X124520000Y-109367500D01*
X124520000Y-109662500D01*
X124519290Y-109676958D01*
X124517166Y-109691276D01*
X124513649Y-109705317D01*
X124508772Y-109718946D01*
X124502583Y-109732031D01*
X124495142Y-109744447D01*
X124486519Y-109756073D01*
X124476798Y-109766798D01*
X124466073Y-109776519D01*
X124454447Y-109785142D01*
X124442031Y-109792583D01*
X124428946Y-109798772D01*
X124415317Y-109803649D01*
X124401276Y-109807166D01*
X124386958Y-109809290D01*
X124372500Y-109810000D01*
X124027500Y-109810000D01*
X124013042Y-109809290D01*
X123998724Y-109807166D01*
X123984683Y-109803649D01*
X123971054Y-109798772D01*
X123957969Y-109792583D01*
X123945553Y-109785142D01*
X123933927Y-109776519D01*
X123923202Y-109766798D01*
X123913481Y-109756073D01*
X123904858Y-109744447D01*
X123897417Y-109732031D01*
X123891228Y-109718946D01*
X123886351Y-109705317D01*
X123882834Y-109691276D01*
X123880710Y-109676958D01*
X123880000Y-109662500D01*
X123880000Y-109367500D01*
X123880710Y-109353042D01*
X123882834Y-109338724D01*
X123886351Y-109324683D01*
X123891228Y-109311054D01*
X123897417Y-109297969D01*
X123904858Y-109285553D01*
X123913481Y-109273927D01*
X123923202Y-109263202D01*
X123933927Y-109253481D01*
X123945553Y-109244858D01*
X123957969Y-109237417D01*
X123971054Y-109231228D01*
X123984683Y-109226351D01*
X123998724Y-109222834D01*
X124013042Y-109220710D01*
X124027500Y-109220000D01*
X124372500Y-109220000D01*
X124386958Y-109220710D01*
X124386958Y-109220710D01*
G37*
D15*
X124200000Y-109515000D03*
D14*
G36*
X124386958Y-110190710D02*
G01*
X124401276Y-110192834D01*
X124415317Y-110196351D01*
X124428946Y-110201228D01*
X124442031Y-110207417D01*
X124454447Y-110214858D01*
X124466073Y-110223481D01*
X124476798Y-110233202D01*
X124486519Y-110243927D01*
X124495142Y-110255553D01*
X124502583Y-110267969D01*
X124508772Y-110281054D01*
X124513649Y-110294683D01*
X124517166Y-110308724D01*
X124519290Y-110323042D01*
X124520000Y-110337500D01*
X124520000Y-110632500D01*
X124519290Y-110646958D01*
X124517166Y-110661276D01*
X124513649Y-110675317D01*
X124508772Y-110688946D01*
X124502583Y-110702031D01*
X124495142Y-110714447D01*
X124486519Y-110726073D01*
X124476798Y-110736798D01*
X124466073Y-110746519D01*
X124454447Y-110755142D01*
X124442031Y-110762583D01*
X124428946Y-110768772D01*
X124415317Y-110773649D01*
X124401276Y-110777166D01*
X124386958Y-110779290D01*
X124372500Y-110780000D01*
X124027500Y-110780000D01*
X124013042Y-110779290D01*
X123998724Y-110777166D01*
X123984683Y-110773649D01*
X123971054Y-110768772D01*
X123957969Y-110762583D01*
X123945553Y-110755142D01*
X123933927Y-110746519D01*
X123923202Y-110736798D01*
X123913481Y-110726073D01*
X123904858Y-110714447D01*
X123897417Y-110702031D01*
X123891228Y-110688946D01*
X123886351Y-110675317D01*
X123882834Y-110661276D01*
X123880710Y-110646958D01*
X123880000Y-110632500D01*
X123880000Y-110337500D01*
X123880710Y-110323042D01*
X123882834Y-110308724D01*
X123886351Y-110294683D01*
X123891228Y-110281054D01*
X123897417Y-110267969D01*
X123904858Y-110255553D01*
X123913481Y-110243927D01*
X123923202Y-110233202D01*
X123933927Y-110223481D01*
X123945553Y-110214858D01*
X123957969Y-110207417D01*
X123971054Y-110201228D01*
X123984683Y-110196351D01*
X123998724Y-110192834D01*
X124013042Y-110190710D01*
X124027500Y-110190000D01*
X124372500Y-110190000D01*
X124386958Y-110190710D01*
X124386958Y-110190710D01*
G37*
D15*
X124200000Y-110485000D03*
D14*
G36*
X130366958Y-128230710D02*
G01*
X130381276Y-128232834D01*
X130395317Y-128236351D01*
X130408946Y-128241228D01*
X130422031Y-128247417D01*
X130434447Y-128254858D01*
X130446073Y-128263481D01*
X130456798Y-128273202D01*
X130466519Y-128283927D01*
X130475142Y-128295553D01*
X130482583Y-128307969D01*
X130488772Y-128321054D01*
X130493649Y-128334683D01*
X130497166Y-128348724D01*
X130499290Y-128363042D01*
X130500000Y-128377500D01*
X130500000Y-128672500D01*
X130499290Y-128686958D01*
X130497166Y-128701276D01*
X130493649Y-128715317D01*
X130488772Y-128728946D01*
X130482583Y-128742031D01*
X130475142Y-128754447D01*
X130466519Y-128766073D01*
X130456798Y-128776798D01*
X130446073Y-128786519D01*
X130434447Y-128795142D01*
X130422031Y-128802583D01*
X130408946Y-128808772D01*
X130395317Y-128813649D01*
X130381276Y-128817166D01*
X130366958Y-128819290D01*
X130352500Y-128820000D01*
X130007500Y-128820000D01*
X129993042Y-128819290D01*
X129978724Y-128817166D01*
X129964683Y-128813649D01*
X129951054Y-128808772D01*
X129937969Y-128802583D01*
X129925553Y-128795142D01*
X129913927Y-128786519D01*
X129903202Y-128776798D01*
X129893481Y-128766073D01*
X129884858Y-128754447D01*
X129877417Y-128742031D01*
X129871228Y-128728946D01*
X129866351Y-128715317D01*
X129862834Y-128701276D01*
X129860710Y-128686958D01*
X129860000Y-128672500D01*
X129860000Y-128377500D01*
X129860710Y-128363042D01*
X129862834Y-128348724D01*
X129866351Y-128334683D01*
X129871228Y-128321054D01*
X129877417Y-128307969D01*
X129884858Y-128295553D01*
X129893481Y-128283927D01*
X129903202Y-128273202D01*
X129913927Y-128263481D01*
X129925553Y-128254858D01*
X129937969Y-128247417D01*
X129951054Y-128241228D01*
X129964683Y-128236351D01*
X129978724Y-128232834D01*
X129993042Y-128230710D01*
X130007500Y-128230000D01*
X130352500Y-128230000D01*
X130366958Y-128230710D01*
X130366958Y-128230710D01*
G37*
D15*
X130180000Y-128525000D03*
D14*
G36*
X130366958Y-129200710D02*
G01*
X130381276Y-129202834D01*
X130395317Y-129206351D01*
X130408946Y-129211228D01*
X130422031Y-129217417D01*
X130434447Y-129224858D01*
X130446073Y-129233481D01*
X130456798Y-129243202D01*
X130466519Y-129253927D01*
X130475142Y-129265553D01*
X130482583Y-129277969D01*
X130488772Y-129291054D01*
X130493649Y-129304683D01*
X130497166Y-129318724D01*
X130499290Y-129333042D01*
X130500000Y-129347500D01*
X130500000Y-129642500D01*
X130499290Y-129656958D01*
X130497166Y-129671276D01*
X130493649Y-129685317D01*
X130488772Y-129698946D01*
X130482583Y-129712031D01*
X130475142Y-129724447D01*
X130466519Y-129736073D01*
X130456798Y-129746798D01*
X130446073Y-129756519D01*
X130434447Y-129765142D01*
X130422031Y-129772583D01*
X130408946Y-129778772D01*
X130395317Y-129783649D01*
X130381276Y-129787166D01*
X130366958Y-129789290D01*
X130352500Y-129790000D01*
X130007500Y-129790000D01*
X129993042Y-129789290D01*
X129978724Y-129787166D01*
X129964683Y-129783649D01*
X129951054Y-129778772D01*
X129937969Y-129772583D01*
X129925553Y-129765142D01*
X129913927Y-129756519D01*
X129903202Y-129746798D01*
X129893481Y-129736073D01*
X129884858Y-129724447D01*
X129877417Y-129712031D01*
X129871228Y-129698946D01*
X129866351Y-129685317D01*
X129862834Y-129671276D01*
X129860710Y-129656958D01*
X129860000Y-129642500D01*
X129860000Y-129347500D01*
X129860710Y-129333042D01*
X129862834Y-129318724D01*
X129866351Y-129304683D01*
X129871228Y-129291054D01*
X129877417Y-129277969D01*
X129884858Y-129265553D01*
X129893481Y-129253927D01*
X129903202Y-129243202D01*
X129913927Y-129233481D01*
X129925553Y-129224858D01*
X129937969Y-129217417D01*
X129951054Y-129211228D01*
X129964683Y-129206351D01*
X129978724Y-129202834D01*
X129993042Y-129200710D01*
X130007500Y-129200000D01*
X130352500Y-129200000D01*
X130366958Y-129200710D01*
X130366958Y-129200710D01*
G37*
D15*
X130180000Y-129495000D03*
D14*
G36*
X121186958Y-128690710D02*
G01*
X121201276Y-128692834D01*
X121215317Y-128696351D01*
X121228946Y-128701228D01*
X121242031Y-128707417D01*
X121254447Y-128714858D01*
X121266073Y-128723481D01*
X121276798Y-128733202D01*
X121286519Y-128743927D01*
X121295142Y-128755553D01*
X121302583Y-128767969D01*
X121308772Y-128781054D01*
X121313649Y-128794683D01*
X121317166Y-128808724D01*
X121319290Y-128823042D01*
X121320000Y-128837500D01*
X121320000Y-129132500D01*
X121319290Y-129146958D01*
X121317166Y-129161276D01*
X121313649Y-129175317D01*
X121308772Y-129188946D01*
X121302583Y-129202031D01*
X121295142Y-129214447D01*
X121286519Y-129226073D01*
X121276798Y-129236798D01*
X121266073Y-129246519D01*
X121254447Y-129255142D01*
X121242031Y-129262583D01*
X121228946Y-129268772D01*
X121215317Y-129273649D01*
X121201276Y-129277166D01*
X121186958Y-129279290D01*
X121172500Y-129280000D01*
X120827500Y-129280000D01*
X120813042Y-129279290D01*
X120798724Y-129277166D01*
X120784683Y-129273649D01*
X120771054Y-129268772D01*
X120757969Y-129262583D01*
X120745553Y-129255142D01*
X120733927Y-129246519D01*
X120723202Y-129236798D01*
X120713481Y-129226073D01*
X120704858Y-129214447D01*
X120697417Y-129202031D01*
X120691228Y-129188946D01*
X120686351Y-129175317D01*
X120682834Y-129161276D01*
X120680710Y-129146958D01*
X120680000Y-129132500D01*
X120680000Y-128837500D01*
X120680710Y-128823042D01*
X120682834Y-128808724D01*
X120686351Y-128794683D01*
X120691228Y-128781054D01*
X120697417Y-128767969D01*
X120704858Y-128755553D01*
X120713481Y-128743927D01*
X120723202Y-128733202D01*
X120733927Y-128723481D01*
X120745553Y-128714858D01*
X120757969Y-128707417D01*
X120771054Y-128701228D01*
X120784683Y-128696351D01*
X120798724Y-128692834D01*
X120813042Y-128690710D01*
X120827500Y-128690000D01*
X121172500Y-128690000D01*
X121186958Y-128690710D01*
X121186958Y-128690710D01*
G37*
D15*
X121000000Y-128985000D03*
D14*
G36*
X121186958Y-127720710D02*
G01*
X121201276Y-127722834D01*
X121215317Y-127726351D01*
X121228946Y-127731228D01*
X121242031Y-127737417D01*
X121254447Y-127744858D01*
X121266073Y-127753481D01*
X121276798Y-127763202D01*
X121286519Y-127773927D01*
X121295142Y-127785553D01*
X121302583Y-127797969D01*
X121308772Y-127811054D01*
X121313649Y-127824683D01*
X121317166Y-127838724D01*
X121319290Y-127853042D01*
X121320000Y-127867500D01*
X121320000Y-128162500D01*
X121319290Y-128176958D01*
X121317166Y-128191276D01*
X121313649Y-128205317D01*
X121308772Y-128218946D01*
X121302583Y-128232031D01*
X121295142Y-128244447D01*
X121286519Y-128256073D01*
X121276798Y-128266798D01*
X121266073Y-128276519D01*
X121254447Y-128285142D01*
X121242031Y-128292583D01*
X121228946Y-128298772D01*
X121215317Y-128303649D01*
X121201276Y-128307166D01*
X121186958Y-128309290D01*
X121172500Y-128310000D01*
X120827500Y-128310000D01*
X120813042Y-128309290D01*
X120798724Y-128307166D01*
X120784683Y-128303649D01*
X120771054Y-128298772D01*
X120757969Y-128292583D01*
X120745553Y-128285142D01*
X120733927Y-128276519D01*
X120723202Y-128266798D01*
X120713481Y-128256073D01*
X120704858Y-128244447D01*
X120697417Y-128232031D01*
X120691228Y-128218946D01*
X120686351Y-128205317D01*
X120682834Y-128191276D01*
X120680710Y-128176958D01*
X120680000Y-128162500D01*
X120680000Y-127867500D01*
X120680710Y-127853042D01*
X120682834Y-127838724D01*
X120686351Y-127824683D01*
X120691228Y-127811054D01*
X120697417Y-127797969D01*
X120704858Y-127785553D01*
X120713481Y-127773927D01*
X120723202Y-127763202D01*
X120733927Y-127753481D01*
X120745553Y-127744858D01*
X120757969Y-127737417D01*
X120771054Y-127731228D01*
X120784683Y-127726351D01*
X120798724Y-127722834D01*
X120813042Y-127720710D01*
X120827500Y-127720000D01*
X121172500Y-127720000D01*
X121186958Y-127720710D01*
X121186958Y-127720710D01*
G37*
D15*
X121000000Y-128015000D03*
D16*
X102860000Y-115260000D03*
X107460000Y-115260000D03*
X105160000Y-115260000D03*
D17*
X105160000Y-108960000D03*
D18*
X126900000Y-112600000D03*
X126900000Y-113550000D03*
X126900000Y-111650000D03*
X129100000Y-111650000D03*
X129100000Y-112600000D03*
X129100000Y-113550000D03*
X121500000Y-112600000D03*
X121500000Y-113550000D03*
X121500000Y-111650000D03*
X123700000Y-111650000D03*
X123700000Y-112600000D03*
X123700000Y-113550000D03*
D19*
X107540000Y-129650000D03*
X106590000Y-129650000D03*
X108490000Y-129650000D03*
X108490000Y-131850000D03*
X107540000Y-131850000D03*
X106590000Y-131850000D03*
D20*
X104925000Y-120850000D03*
X105575000Y-120850000D03*
X106225000Y-120850000D03*
X106875000Y-120850000D03*
X107525000Y-120850000D03*
X108175000Y-120850000D03*
X108825000Y-120850000D03*
X109475000Y-120850000D03*
X109475000Y-126750000D03*
X108825000Y-126750000D03*
X108175000Y-126750000D03*
X107525000Y-126750000D03*
X106875000Y-126750000D03*
X106225000Y-126750000D03*
X105575000Y-126750000D03*
X104925000Y-126750000D03*
D14*
G36*
X119880142Y-108151174D02*
G01*
X119903803Y-108154684D01*
X119927007Y-108160496D01*
X119949529Y-108168554D01*
X119971153Y-108178782D01*
X119991670Y-108191079D01*
X120010883Y-108205329D01*
X120028607Y-108221393D01*
X120044671Y-108239117D01*
X120058921Y-108258330D01*
X120071218Y-108278847D01*
X120081446Y-108300471D01*
X120089504Y-108322993D01*
X120095316Y-108346197D01*
X120098826Y-108369858D01*
X120100000Y-108393750D01*
X120100000Y-108881250D01*
X120098826Y-108905142D01*
X120095316Y-108928803D01*
X120089504Y-108952007D01*
X120081446Y-108974529D01*
X120071218Y-108996153D01*
X120058921Y-109016670D01*
X120044671Y-109035883D01*
X120028607Y-109053607D01*
X120010883Y-109069671D01*
X119991670Y-109083921D01*
X119971153Y-109096218D01*
X119949529Y-109106446D01*
X119927007Y-109114504D01*
X119903803Y-109120316D01*
X119880142Y-109123826D01*
X119856250Y-109125000D01*
X118943750Y-109125000D01*
X118919858Y-109123826D01*
X118896197Y-109120316D01*
X118872993Y-109114504D01*
X118850471Y-109106446D01*
X118828847Y-109096218D01*
X118808330Y-109083921D01*
X118789117Y-109069671D01*
X118771393Y-109053607D01*
X118755329Y-109035883D01*
X118741079Y-109016670D01*
X118728782Y-108996153D01*
X118718554Y-108974529D01*
X118710496Y-108952007D01*
X118704684Y-108928803D01*
X118701174Y-108905142D01*
X118700000Y-108881250D01*
X118700000Y-108393750D01*
X118701174Y-108369858D01*
X118704684Y-108346197D01*
X118710496Y-108322993D01*
X118718554Y-108300471D01*
X118728782Y-108278847D01*
X118741079Y-108258330D01*
X118755329Y-108239117D01*
X118771393Y-108221393D01*
X118789117Y-108205329D01*
X118808330Y-108191079D01*
X118828847Y-108178782D01*
X118850471Y-108168554D01*
X118872993Y-108160496D01*
X118896197Y-108154684D01*
X118919858Y-108151174D01*
X118943750Y-108150000D01*
X119856250Y-108150000D01*
X119880142Y-108151174D01*
X119880142Y-108151174D01*
G37*
D21*
X119400000Y-108637500D03*
D14*
G36*
X119880142Y-106276174D02*
G01*
X119903803Y-106279684D01*
X119927007Y-106285496D01*
X119949529Y-106293554D01*
X119971153Y-106303782D01*
X119991670Y-106316079D01*
X120010883Y-106330329D01*
X120028607Y-106346393D01*
X120044671Y-106364117D01*
X120058921Y-106383330D01*
X120071218Y-106403847D01*
X120081446Y-106425471D01*
X120089504Y-106447993D01*
X120095316Y-106471197D01*
X120098826Y-106494858D01*
X120100000Y-106518750D01*
X120100000Y-107006250D01*
X120098826Y-107030142D01*
X120095316Y-107053803D01*
X120089504Y-107077007D01*
X120081446Y-107099529D01*
X120071218Y-107121153D01*
X120058921Y-107141670D01*
X120044671Y-107160883D01*
X120028607Y-107178607D01*
X120010883Y-107194671D01*
X119991670Y-107208921D01*
X119971153Y-107221218D01*
X119949529Y-107231446D01*
X119927007Y-107239504D01*
X119903803Y-107245316D01*
X119880142Y-107248826D01*
X119856250Y-107250000D01*
X118943750Y-107250000D01*
X118919858Y-107248826D01*
X118896197Y-107245316D01*
X118872993Y-107239504D01*
X118850471Y-107231446D01*
X118828847Y-107221218D01*
X118808330Y-107208921D01*
X118789117Y-107194671D01*
X118771393Y-107178607D01*
X118755329Y-107160883D01*
X118741079Y-107141670D01*
X118728782Y-107121153D01*
X118718554Y-107099529D01*
X118710496Y-107077007D01*
X118704684Y-107053803D01*
X118701174Y-107030142D01*
X118700000Y-107006250D01*
X118700000Y-106518750D01*
X118701174Y-106494858D01*
X118704684Y-106471197D01*
X118710496Y-106447993D01*
X118718554Y-106425471D01*
X118728782Y-106403847D01*
X118741079Y-106383330D01*
X118755329Y-106364117D01*
X118771393Y-106346393D01*
X118789117Y-106330329D01*
X118808330Y-106316079D01*
X118828847Y-106303782D01*
X118850471Y-106293554D01*
X118872993Y-106285496D01*
X118896197Y-106279684D01*
X118919858Y-106276174D01*
X118943750Y-106275000D01*
X119856250Y-106275000D01*
X119880142Y-106276174D01*
X119880142Y-106276174D01*
G37*
D21*
X119400000Y-106762500D03*
D14*
G36*
X118080142Y-108151174D02*
G01*
X118103803Y-108154684D01*
X118127007Y-108160496D01*
X118149529Y-108168554D01*
X118171153Y-108178782D01*
X118191670Y-108191079D01*
X118210883Y-108205329D01*
X118228607Y-108221393D01*
X118244671Y-108239117D01*
X118258921Y-108258330D01*
X118271218Y-108278847D01*
X118281446Y-108300471D01*
X118289504Y-108322993D01*
X118295316Y-108346197D01*
X118298826Y-108369858D01*
X118300000Y-108393750D01*
X118300000Y-108881250D01*
X118298826Y-108905142D01*
X118295316Y-108928803D01*
X118289504Y-108952007D01*
X118281446Y-108974529D01*
X118271218Y-108996153D01*
X118258921Y-109016670D01*
X118244671Y-109035883D01*
X118228607Y-109053607D01*
X118210883Y-109069671D01*
X118191670Y-109083921D01*
X118171153Y-109096218D01*
X118149529Y-109106446D01*
X118127007Y-109114504D01*
X118103803Y-109120316D01*
X118080142Y-109123826D01*
X118056250Y-109125000D01*
X117143750Y-109125000D01*
X117119858Y-109123826D01*
X117096197Y-109120316D01*
X117072993Y-109114504D01*
X117050471Y-109106446D01*
X117028847Y-109096218D01*
X117008330Y-109083921D01*
X116989117Y-109069671D01*
X116971393Y-109053607D01*
X116955329Y-109035883D01*
X116941079Y-109016670D01*
X116928782Y-108996153D01*
X116918554Y-108974529D01*
X116910496Y-108952007D01*
X116904684Y-108928803D01*
X116901174Y-108905142D01*
X116900000Y-108881250D01*
X116900000Y-108393750D01*
X116901174Y-108369858D01*
X116904684Y-108346197D01*
X116910496Y-108322993D01*
X116918554Y-108300471D01*
X116928782Y-108278847D01*
X116941079Y-108258330D01*
X116955329Y-108239117D01*
X116971393Y-108221393D01*
X116989117Y-108205329D01*
X117008330Y-108191079D01*
X117028847Y-108178782D01*
X117050471Y-108168554D01*
X117072993Y-108160496D01*
X117096197Y-108154684D01*
X117119858Y-108151174D01*
X117143750Y-108150000D01*
X118056250Y-108150000D01*
X118080142Y-108151174D01*
X118080142Y-108151174D01*
G37*
D21*
X117600000Y-108637500D03*
D14*
G36*
X118080142Y-106276174D02*
G01*
X118103803Y-106279684D01*
X118127007Y-106285496D01*
X118149529Y-106293554D01*
X118171153Y-106303782D01*
X118191670Y-106316079D01*
X118210883Y-106330329D01*
X118228607Y-106346393D01*
X118244671Y-106364117D01*
X118258921Y-106383330D01*
X118271218Y-106403847D01*
X118281446Y-106425471D01*
X118289504Y-106447993D01*
X118295316Y-106471197D01*
X118298826Y-106494858D01*
X118300000Y-106518750D01*
X118300000Y-107006250D01*
X118298826Y-107030142D01*
X118295316Y-107053803D01*
X118289504Y-107077007D01*
X118281446Y-107099529D01*
X118271218Y-107121153D01*
X118258921Y-107141670D01*
X118244671Y-107160883D01*
X118228607Y-107178607D01*
X118210883Y-107194671D01*
X118191670Y-107208921D01*
X118171153Y-107221218D01*
X118149529Y-107231446D01*
X118127007Y-107239504D01*
X118103803Y-107245316D01*
X118080142Y-107248826D01*
X118056250Y-107250000D01*
X117143750Y-107250000D01*
X117119858Y-107248826D01*
X117096197Y-107245316D01*
X117072993Y-107239504D01*
X117050471Y-107231446D01*
X117028847Y-107221218D01*
X117008330Y-107208921D01*
X116989117Y-107194671D01*
X116971393Y-107178607D01*
X116955329Y-107160883D01*
X116941079Y-107141670D01*
X116928782Y-107121153D01*
X116918554Y-107099529D01*
X116910496Y-107077007D01*
X116904684Y-107053803D01*
X116901174Y-107030142D01*
X116900000Y-107006250D01*
X116900000Y-106518750D01*
X116901174Y-106494858D01*
X116904684Y-106471197D01*
X116910496Y-106447993D01*
X116918554Y-106425471D01*
X116928782Y-106403847D01*
X116941079Y-106383330D01*
X116955329Y-106364117D01*
X116971393Y-106346393D01*
X116989117Y-106330329D01*
X117008330Y-106316079D01*
X117028847Y-106303782D01*
X117050471Y-106293554D01*
X117072993Y-106285496D01*
X117096197Y-106279684D01*
X117119858Y-106276174D01*
X117143750Y-106275000D01*
X118056250Y-106275000D01*
X118080142Y-106276174D01*
X118080142Y-106276174D01*
G37*
D21*
X117600000Y-106762500D03*
D14*
G36*
X104352691Y-127926053D02*
G01*
X104373926Y-127929203D01*
X104394750Y-127934419D01*
X104414962Y-127941651D01*
X104434368Y-127950830D01*
X104452781Y-127961866D01*
X104470024Y-127974654D01*
X104485930Y-127989070D01*
X104500346Y-128004976D01*
X104513134Y-128022219D01*
X104524170Y-128040632D01*
X104533349Y-128060038D01*
X104540581Y-128080250D01*
X104545797Y-128101074D01*
X104548947Y-128122309D01*
X104550000Y-128143750D01*
X104550000Y-128656250D01*
X104548947Y-128677691D01*
X104545797Y-128698926D01*
X104540581Y-128719750D01*
X104533349Y-128739962D01*
X104524170Y-128759368D01*
X104513134Y-128777781D01*
X104500346Y-128795024D01*
X104485930Y-128810930D01*
X104470024Y-128825346D01*
X104452781Y-128838134D01*
X104434368Y-128849170D01*
X104414962Y-128858349D01*
X104394750Y-128865581D01*
X104373926Y-128870797D01*
X104352691Y-128873947D01*
X104331250Y-128875000D01*
X103893750Y-128875000D01*
X103872309Y-128873947D01*
X103851074Y-128870797D01*
X103830250Y-128865581D01*
X103810038Y-128858349D01*
X103790632Y-128849170D01*
X103772219Y-128838134D01*
X103754976Y-128825346D01*
X103739070Y-128810930D01*
X103724654Y-128795024D01*
X103711866Y-128777781D01*
X103700830Y-128759368D01*
X103691651Y-128739962D01*
X103684419Y-128719750D01*
X103679203Y-128698926D01*
X103676053Y-128677691D01*
X103675000Y-128656250D01*
X103675000Y-128143750D01*
X103676053Y-128122309D01*
X103679203Y-128101074D01*
X103684419Y-128080250D01*
X103691651Y-128060038D01*
X103700830Y-128040632D01*
X103711866Y-128022219D01*
X103724654Y-128004976D01*
X103739070Y-127989070D01*
X103754976Y-127974654D01*
X103772219Y-127961866D01*
X103790632Y-127950830D01*
X103810038Y-127941651D01*
X103830250Y-127934419D01*
X103851074Y-127929203D01*
X103872309Y-127926053D01*
X103893750Y-127925000D01*
X104331250Y-127925000D01*
X104352691Y-127926053D01*
X104352691Y-127926053D01*
G37*
D22*
X104112500Y-128400000D03*
D14*
G36*
X105927691Y-127926053D02*
G01*
X105948926Y-127929203D01*
X105969750Y-127934419D01*
X105989962Y-127941651D01*
X106009368Y-127950830D01*
X106027781Y-127961866D01*
X106045024Y-127974654D01*
X106060930Y-127989070D01*
X106075346Y-128004976D01*
X106088134Y-128022219D01*
X106099170Y-128040632D01*
X106108349Y-128060038D01*
X106115581Y-128080250D01*
X106120797Y-128101074D01*
X106123947Y-128122309D01*
X106125000Y-128143750D01*
X106125000Y-128656250D01*
X106123947Y-128677691D01*
X106120797Y-128698926D01*
X106115581Y-128719750D01*
X106108349Y-128739962D01*
X106099170Y-128759368D01*
X106088134Y-128777781D01*
X106075346Y-128795024D01*
X106060930Y-128810930D01*
X106045024Y-128825346D01*
X106027781Y-128838134D01*
X106009368Y-128849170D01*
X105989962Y-128858349D01*
X105969750Y-128865581D01*
X105948926Y-128870797D01*
X105927691Y-128873947D01*
X105906250Y-128875000D01*
X105468750Y-128875000D01*
X105447309Y-128873947D01*
X105426074Y-128870797D01*
X105405250Y-128865581D01*
X105385038Y-128858349D01*
X105365632Y-128849170D01*
X105347219Y-128838134D01*
X105329976Y-128825346D01*
X105314070Y-128810930D01*
X105299654Y-128795024D01*
X105286866Y-128777781D01*
X105275830Y-128759368D01*
X105266651Y-128739962D01*
X105259419Y-128719750D01*
X105254203Y-128698926D01*
X105251053Y-128677691D01*
X105250000Y-128656250D01*
X105250000Y-128143750D01*
X105251053Y-128122309D01*
X105254203Y-128101074D01*
X105259419Y-128080250D01*
X105266651Y-128060038D01*
X105275830Y-128040632D01*
X105286866Y-128022219D01*
X105299654Y-128004976D01*
X105314070Y-127989070D01*
X105329976Y-127974654D01*
X105347219Y-127961866D01*
X105365632Y-127950830D01*
X105385038Y-127941651D01*
X105405250Y-127934419D01*
X105426074Y-127929203D01*
X105447309Y-127926053D01*
X105468750Y-127925000D01*
X105906250Y-127925000D01*
X105927691Y-127926053D01*
X105927691Y-127926053D01*
G37*
D22*
X105687500Y-128400000D03*
D14*
G36*
X104827691Y-118626053D02*
G01*
X104848926Y-118629203D01*
X104869750Y-118634419D01*
X104889962Y-118641651D01*
X104909368Y-118650830D01*
X104927781Y-118661866D01*
X104945024Y-118674654D01*
X104960930Y-118689070D01*
X104975346Y-118704976D01*
X104988134Y-118722219D01*
X104999170Y-118740632D01*
X105008349Y-118760038D01*
X105015581Y-118780250D01*
X105020797Y-118801074D01*
X105023947Y-118822309D01*
X105025000Y-118843750D01*
X105025000Y-119356250D01*
X105023947Y-119377691D01*
X105020797Y-119398926D01*
X105015581Y-119419750D01*
X105008349Y-119439962D01*
X104999170Y-119459368D01*
X104988134Y-119477781D01*
X104975346Y-119495024D01*
X104960930Y-119510930D01*
X104945024Y-119525346D01*
X104927781Y-119538134D01*
X104909368Y-119549170D01*
X104889962Y-119558349D01*
X104869750Y-119565581D01*
X104848926Y-119570797D01*
X104827691Y-119573947D01*
X104806250Y-119575000D01*
X104368750Y-119575000D01*
X104347309Y-119573947D01*
X104326074Y-119570797D01*
X104305250Y-119565581D01*
X104285038Y-119558349D01*
X104265632Y-119549170D01*
X104247219Y-119538134D01*
X104229976Y-119525346D01*
X104214070Y-119510930D01*
X104199654Y-119495024D01*
X104186866Y-119477781D01*
X104175830Y-119459368D01*
X104166651Y-119439962D01*
X104159419Y-119419750D01*
X104154203Y-119398926D01*
X104151053Y-119377691D01*
X104150000Y-119356250D01*
X104150000Y-118843750D01*
X104151053Y-118822309D01*
X104154203Y-118801074D01*
X104159419Y-118780250D01*
X104166651Y-118760038D01*
X104175830Y-118740632D01*
X104186866Y-118722219D01*
X104199654Y-118704976D01*
X104214070Y-118689070D01*
X104229976Y-118674654D01*
X104247219Y-118661866D01*
X104265632Y-118650830D01*
X104285038Y-118641651D01*
X104305250Y-118634419D01*
X104326074Y-118629203D01*
X104347309Y-118626053D01*
X104368750Y-118625000D01*
X104806250Y-118625000D01*
X104827691Y-118626053D01*
X104827691Y-118626053D01*
G37*
D22*
X104587500Y-119100000D03*
D14*
G36*
X103252691Y-118626053D02*
G01*
X103273926Y-118629203D01*
X103294750Y-118634419D01*
X103314962Y-118641651D01*
X103334368Y-118650830D01*
X103352781Y-118661866D01*
X103370024Y-118674654D01*
X103385930Y-118689070D01*
X103400346Y-118704976D01*
X103413134Y-118722219D01*
X103424170Y-118740632D01*
X103433349Y-118760038D01*
X103440581Y-118780250D01*
X103445797Y-118801074D01*
X103448947Y-118822309D01*
X103450000Y-118843750D01*
X103450000Y-119356250D01*
X103448947Y-119377691D01*
X103445797Y-119398926D01*
X103440581Y-119419750D01*
X103433349Y-119439962D01*
X103424170Y-119459368D01*
X103413134Y-119477781D01*
X103400346Y-119495024D01*
X103385930Y-119510930D01*
X103370024Y-119525346D01*
X103352781Y-119538134D01*
X103334368Y-119549170D01*
X103314962Y-119558349D01*
X103294750Y-119565581D01*
X103273926Y-119570797D01*
X103252691Y-119573947D01*
X103231250Y-119575000D01*
X102793750Y-119575000D01*
X102772309Y-119573947D01*
X102751074Y-119570797D01*
X102730250Y-119565581D01*
X102710038Y-119558349D01*
X102690632Y-119549170D01*
X102672219Y-119538134D01*
X102654976Y-119525346D01*
X102639070Y-119510930D01*
X102624654Y-119495024D01*
X102611866Y-119477781D01*
X102600830Y-119459368D01*
X102591651Y-119439962D01*
X102584419Y-119419750D01*
X102579203Y-119398926D01*
X102576053Y-119377691D01*
X102575000Y-119356250D01*
X102575000Y-118843750D01*
X102576053Y-118822309D01*
X102579203Y-118801074D01*
X102584419Y-118780250D01*
X102591651Y-118760038D01*
X102600830Y-118740632D01*
X102611866Y-118722219D01*
X102624654Y-118704976D01*
X102639070Y-118689070D01*
X102654976Y-118674654D01*
X102672219Y-118661866D01*
X102690632Y-118650830D01*
X102710038Y-118641651D01*
X102730250Y-118634419D01*
X102751074Y-118629203D01*
X102772309Y-118626053D01*
X102793750Y-118625000D01*
X103231250Y-118625000D01*
X103252691Y-118626053D01*
X103252691Y-118626053D01*
G37*
D22*
X103012500Y-119100000D03*
D14*
G36*
X110286958Y-114120710D02*
G01*
X110301276Y-114122834D01*
X110315317Y-114126351D01*
X110328946Y-114131228D01*
X110342031Y-114137417D01*
X110354447Y-114144858D01*
X110366073Y-114153481D01*
X110376798Y-114163202D01*
X110386519Y-114173927D01*
X110395142Y-114185553D01*
X110402583Y-114197969D01*
X110408772Y-114211054D01*
X110413649Y-114224683D01*
X110417166Y-114238724D01*
X110419290Y-114253042D01*
X110420000Y-114267500D01*
X110420000Y-114562500D01*
X110419290Y-114576958D01*
X110417166Y-114591276D01*
X110413649Y-114605317D01*
X110408772Y-114618946D01*
X110402583Y-114632031D01*
X110395142Y-114644447D01*
X110386519Y-114656073D01*
X110376798Y-114666798D01*
X110366073Y-114676519D01*
X110354447Y-114685142D01*
X110342031Y-114692583D01*
X110328946Y-114698772D01*
X110315317Y-114703649D01*
X110301276Y-114707166D01*
X110286958Y-114709290D01*
X110272500Y-114710000D01*
X109927500Y-114710000D01*
X109913042Y-114709290D01*
X109898724Y-114707166D01*
X109884683Y-114703649D01*
X109871054Y-114698772D01*
X109857969Y-114692583D01*
X109845553Y-114685142D01*
X109833927Y-114676519D01*
X109823202Y-114666798D01*
X109813481Y-114656073D01*
X109804858Y-114644447D01*
X109797417Y-114632031D01*
X109791228Y-114618946D01*
X109786351Y-114605317D01*
X109782834Y-114591276D01*
X109780710Y-114576958D01*
X109780000Y-114562500D01*
X109780000Y-114267500D01*
X109780710Y-114253042D01*
X109782834Y-114238724D01*
X109786351Y-114224683D01*
X109791228Y-114211054D01*
X109797417Y-114197969D01*
X109804858Y-114185553D01*
X109813481Y-114173927D01*
X109823202Y-114163202D01*
X109833927Y-114153481D01*
X109845553Y-114144858D01*
X109857969Y-114137417D01*
X109871054Y-114131228D01*
X109884683Y-114126351D01*
X109898724Y-114122834D01*
X109913042Y-114120710D01*
X109927500Y-114120000D01*
X110272500Y-114120000D01*
X110286958Y-114120710D01*
X110286958Y-114120710D01*
G37*
D15*
X110100000Y-114415000D03*
D14*
G36*
X110286958Y-115090710D02*
G01*
X110301276Y-115092834D01*
X110315317Y-115096351D01*
X110328946Y-115101228D01*
X110342031Y-115107417D01*
X110354447Y-115114858D01*
X110366073Y-115123481D01*
X110376798Y-115133202D01*
X110386519Y-115143927D01*
X110395142Y-115155553D01*
X110402583Y-115167969D01*
X110408772Y-115181054D01*
X110413649Y-115194683D01*
X110417166Y-115208724D01*
X110419290Y-115223042D01*
X110420000Y-115237500D01*
X110420000Y-115532500D01*
X110419290Y-115546958D01*
X110417166Y-115561276D01*
X110413649Y-115575317D01*
X110408772Y-115588946D01*
X110402583Y-115602031D01*
X110395142Y-115614447D01*
X110386519Y-115626073D01*
X110376798Y-115636798D01*
X110366073Y-115646519D01*
X110354447Y-115655142D01*
X110342031Y-115662583D01*
X110328946Y-115668772D01*
X110315317Y-115673649D01*
X110301276Y-115677166D01*
X110286958Y-115679290D01*
X110272500Y-115680000D01*
X109927500Y-115680000D01*
X109913042Y-115679290D01*
X109898724Y-115677166D01*
X109884683Y-115673649D01*
X109871054Y-115668772D01*
X109857969Y-115662583D01*
X109845553Y-115655142D01*
X109833927Y-115646519D01*
X109823202Y-115636798D01*
X109813481Y-115626073D01*
X109804858Y-115614447D01*
X109797417Y-115602031D01*
X109791228Y-115588946D01*
X109786351Y-115575317D01*
X109782834Y-115561276D01*
X109780710Y-115546958D01*
X109780000Y-115532500D01*
X109780000Y-115237500D01*
X109780710Y-115223042D01*
X109782834Y-115208724D01*
X109786351Y-115194683D01*
X109791228Y-115181054D01*
X109797417Y-115167969D01*
X109804858Y-115155553D01*
X109813481Y-115143927D01*
X109823202Y-115133202D01*
X109833927Y-115123481D01*
X109845553Y-115114858D01*
X109857969Y-115107417D01*
X109871054Y-115101228D01*
X109884683Y-115096351D01*
X109898724Y-115092834D01*
X109913042Y-115090710D01*
X109927500Y-115090000D01*
X110272500Y-115090000D01*
X110286958Y-115090710D01*
X110286958Y-115090710D01*
G37*
D15*
X110100000Y-115385000D03*
D23*
X129200000Y-118900000D03*
X126400000Y-118900000D03*
X123800000Y-118900000D03*
X121000000Y-118900000D03*
D12*
X118375000Y-127300000D03*
X116875000Y-127300000D03*
X115375000Y-127300000D03*
X114875000Y-127300000D03*
X113375000Y-127300000D03*
X115875000Y-127300000D03*
X112875000Y-127300000D03*
X116375000Y-127300000D03*
X117875000Y-127300000D03*
X117375000Y-127300000D03*
X113875000Y-127300000D03*
X114375000Y-127300000D03*
X112625000Y-128625000D03*
X113125000Y-128625000D03*
X113625000Y-128625000D03*
X114125000Y-128625000D03*
X114625000Y-128625000D03*
X115125000Y-128625000D03*
X115625000Y-128625000D03*
X116125000Y-128625000D03*
X116625000Y-128625000D03*
X117125000Y-128625000D03*
X117625000Y-128625000D03*
X118125000Y-128625000D03*
D14*
G36*
X120056856Y-127701565D02*
G01*
X120088404Y-127706245D01*
X120119343Y-127713994D01*
X120149372Y-127724739D01*
X120178204Y-127738376D01*
X120205560Y-127754772D01*
X120231178Y-127773772D01*
X120254810Y-127795190D01*
X120276228Y-127818822D01*
X120295228Y-127844440D01*
X120311624Y-127871796D01*
X120325261Y-127900628D01*
X120336006Y-127930657D01*
X120343755Y-127961596D01*
X120348435Y-127993144D01*
X120350000Y-128025000D01*
X120350000Y-128675000D01*
X120348435Y-128706856D01*
X120343755Y-128738404D01*
X120336006Y-128769343D01*
X120325261Y-128799372D01*
X120311624Y-128828204D01*
X120295228Y-128855560D01*
X120276228Y-128881178D01*
X120254810Y-128904810D01*
X120231178Y-128926228D01*
X120205560Y-128945228D01*
X120178204Y-128961624D01*
X120149372Y-128975261D01*
X120119343Y-128986006D01*
X120088404Y-128993755D01*
X120056856Y-128998435D01*
X120025000Y-129000000D01*
X119075000Y-129000000D01*
X119043144Y-128998435D01*
X119011596Y-128993755D01*
X118980657Y-128986006D01*
X118950628Y-128975261D01*
X118921796Y-128961624D01*
X118894440Y-128945228D01*
X118868822Y-128926228D01*
X118845190Y-128904810D01*
X118823772Y-128881178D01*
X118804772Y-128855560D01*
X118788376Y-128828204D01*
X118774739Y-128799372D01*
X118763994Y-128769343D01*
X118756245Y-128738404D01*
X118751565Y-128706856D01*
X118750000Y-128675000D01*
X118750000Y-128025000D01*
X118751565Y-127993144D01*
X118756245Y-127961596D01*
X118763994Y-127930657D01*
X118774739Y-127900628D01*
X118788376Y-127871796D01*
X118804772Y-127844440D01*
X118823772Y-127818822D01*
X118845190Y-127795190D01*
X118868822Y-127773772D01*
X118894440Y-127754772D01*
X118921796Y-127738376D01*
X118950628Y-127724739D01*
X118980657Y-127713994D01*
X119011596Y-127706245D01*
X119043144Y-127701565D01*
X119075000Y-127700000D01*
X120025000Y-127700000D01*
X120056856Y-127701565D01*
X120056856Y-127701565D01*
G37*
D24*
X119550000Y-128350000D03*
D14*
G36*
X111956856Y-127701565D02*
G01*
X111988404Y-127706245D01*
X112019343Y-127713994D01*
X112049372Y-127724739D01*
X112078204Y-127738376D01*
X112105560Y-127754772D01*
X112131178Y-127773772D01*
X112154810Y-127795190D01*
X112176228Y-127818822D01*
X112195228Y-127844440D01*
X112211624Y-127871796D01*
X112225261Y-127900628D01*
X112236006Y-127930657D01*
X112243755Y-127961596D01*
X112248435Y-127993144D01*
X112250000Y-128025000D01*
X112250000Y-128675000D01*
X112248435Y-128706856D01*
X112243755Y-128738404D01*
X112236006Y-128769343D01*
X112225261Y-128799372D01*
X112211624Y-128828204D01*
X112195228Y-128855560D01*
X112176228Y-128881178D01*
X112154810Y-128904810D01*
X112131178Y-128926228D01*
X112105560Y-128945228D01*
X112078204Y-128961624D01*
X112049372Y-128975261D01*
X112019343Y-128986006D01*
X111988404Y-128993755D01*
X111956856Y-128998435D01*
X111925000Y-129000000D01*
X110975000Y-129000000D01*
X110943144Y-128998435D01*
X110911596Y-128993755D01*
X110880657Y-128986006D01*
X110850628Y-128975261D01*
X110821796Y-128961624D01*
X110794440Y-128945228D01*
X110768822Y-128926228D01*
X110745190Y-128904810D01*
X110723772Y-128881178D01*
X110704772Y-128855560D01*
X110688376Y-128828204D01*
X110674739Y-128799372D01*
X110663994Y-128769343D01*
X110656245Y-128738404D01*
X110651565Y-128706856D01*
X110650000Y-128675000D01*
X110650000Y-128025000D01*
X110651565Y-127993144D01*
X110656245Y-127961596D01*
X110663994Y-127930657D01*
X110674739Y-127900628D01*
X110688376Y-127871796D01*
X110704772Y-127844440D01*
X110723772Y-127818822D01*
X110745190Y-127795190D01*
X110768822Y-127773772D01*
X110794440Y-127754772D01*
X110821796Y-127738376D01*
X110850628Y-127724739D01*
X110880657Y-127713994D01*
X110911596Y-127706245D01*
X110943144Y-127701565D01*
X110975000Y-127700000D01*
X111925000Y-127700000D01*
X111956856Y-127701565D01*
X111956856Y-127701565D01*
G37*
D24*
X111450000Y-128350000D03*
D14*
G36*
X120121955Y-126901324D02*
G01*
X120148650Y-126905284D01*
X120174828Y-126911841D01*
X120200238Y-126920933D01*
X120224634Y-126932472D01*
X120247782Y-126946346D01*
X120269458Y-126962422D01*
X120289454Y-126980546D01*
X120307578Y-127000542D01*
X120323654Y-127022218D01*
X120337528Y-127045366D01*
X120349067Y-127069762D01*
X120358159Y-127095172D01*
X120364716Y-127121350D01*
X120368676Y-127148045D01*
X120370000Y-127175000D01*
X120370000Y-128725000D01*
X120368676Y-128751955D01*
X120364716Y-128778650D01*
X120358159Y-128804828D01*
X120349067Y-128830238D01*
X120337528Y-128854634D01*
X120323654Y-128877782D01*
X120307578Y-128899458D01*
X120289454Y-128919454D01*
X120269458Y-128937578D01*
X120247782Y-128953654D01*
X120224634Y-128967528D01*
X120200238Y-128979067D01*
X120174828Y-128988159D01*
X120148650Y-128994716D01*
X120121955Y-128998676D01*
X120095000Y-129000000D01*
X119545000Y-129000000D01*
X119518045Y-128998676D01*
X119491350Y-128994716D01*
X119465172Y-128988159D01*
X119439762Y-128979067D01*
X119415366Y-128967528D01*
X119392218Y-128953654D01*
X119370542Y-128937578D01*
X119350546Y-128919454D01*
X119332422Y-128899458D01*
X119316346Y-128877782D01*
X119302472Y-128854634D01*
X119290933Y-128830238D01*
X119281841Y-128804828D01*
X119275284Y-128778650D01*
X119271324Y-128751955D01*
X119270000Y-128725000D01*
X119270000Y-127175000D01*
X119271324Y-127148045D01*
X119275284Y-127121350D01*
X119281841Y-127095172D01*
X119290933Y-127069762D01*
X119302472Y-127045366D01*
X119316346Y-127022218D01*
X119332422Y-127000542D01*
X119350546Y-126980546D01*
X119370542Y-126962422D01*
X119392218Y-126946346D01*
X119415366Y-126932472D01*
X119439762Y-126920933D01*
X119465172Y-126911841D01*
X119491350Y-126905284D01*
X119518045Y-126901324D01*
X119545000Y-126900000D01*
X120095000Y-126900000D01*
X120121955Y-126901324D01*
X120121955Y-126901324D01*
G37*
D25*
X119820000Y-127950000D03*
D14*
G36*
X111481955Y-126901324D02*
G01*
X111508650Y-126905284D01*
X111534828Y-126911841D01*
X111560238Y-126920933D01*
X111584634Y-126932472D01*
X111607782Y-126946346D01*
X111629458Y-126962422D01*
X111649454Y-126980546D01*
X111667578Y-127000542D01*
X111683654Y-127022218D01*
X111697528Y-127045366D01*
X111709067Y-127069762D01*
X111718159Y-127095172D01*
X111724716Y-127121350D01*
X111728676Y-127148045D01*
X111730000Y-127175000D01*
X111730000Y-128725000D01*
X111728676Y-128751955D01*
X111724716Y-128778650D01*
X111718159Y-128804828D01*
X111709067Y-128830238D01*
X111697528Y-128854634D01*
X111683654Y-128877782D01*
X111667578Y-128899458D01*
X111649454Y-128919454D01*
X111629458Y-128937578D01*
X111607782Y-128953654D01*
X111584634Y-128967528D01*
X111560238Y-128979067D01*
X111534828Y-128988159D01*
X111508650Y-128994716D01*
X111481955Y-128998676D01*
X111455000Y-129000000D01*
X110905000Y-129000000D01*
X110878045Y-128998676D01*
X110851350Y-128994716D01*
X110825172Y-128988159D01*
X110799762Y-128979067D01*
X110775366Y-128967528D01*
X110752218Y-128953654D01*
X110730542Y-128937578D01*
X110710546Y-128919454D01*
X110692422Y-128899458D01*
X110676346Y-128877782D01*
X110662472Y-128854634D01*
X110650933Y-128830238D01*
X110641841Y-128804828D01*
X110635284Y-128778650D01*
X110631324Y-128751955D01*
X110630000Y-128725000D01*
X110630000Y-127175000D01*
X110631324Y-127148045D01*
X110635284Y-127121350D01*
X110641841Y-127095172D01*
X110650933Y-127069762D01*
X110662472Y-127045366D01*
X110676346Y-127022218D01*
X110692422Y-127000542D01*
X110710546Y-126980546D01*
X110730542Y-126962422D01*
X110752218Y-126946346D01*
X110775366Y-126932472D01*
X110799762Y-126920933D01*
X110825172Y-126911841D01*
X110851350Y-126905284D01*
X110878045Y-126901324D01*
X110905000Y-126900000D01*
X111455000Y-126900000D01*
X111481955Y-126901324D01*
X111481955Y-126901324D01*
G37*
D25*
X111180000Y-127950000D03*
D14*
G36*
X120121955Y-131301324D02*
G01*
X120148650Y-131305284D01*
X120174828Y-131311841D01*
X120200238Y-131320933D01*
X120224634Y-131332472D01*
X120247782Y-131346346D01*
X120269458Y-131362422D01*
X120289454Y-131380546D01*
X120307578Y-131400542D01*
X120323654Y-131422218D01*
X120337528Y-131445366D01*
X120349067Y-131469762D01*
X120358159Y-131495172D01*
X120364716Y-131521350D01*
X120368676Y-131548045D01*
X120370000Y-131575000D01*
X120370000Y-133425000D01*
X120368676Y-133451955D01*
X120364716Y-133478650D01*
X120358159Y-133504828D01*
X120349067Y-133530238D01*
X120337528Y-133554634D01*
X120323654Y-133577782D01*
X120307578Y-133599458D01*
X120289454Y-133619454D01*
X120269458Y-133637578D01*
X120247782Y-133653654D01*
X120224634Y-133667528D01*
X120200238Y-133679067D01*
X120174828Y-133688159D01*
X120148650Y-133694716D01*
X120121955Y-133698676D01*
X120095000Y-133700000D01*
X119545000Y-133700000D01*
X119518045Y-133698676D01*
X119491350Y-133694716D01*
X119465172Y-133688159D01*
X119439762Y-133679067D01*
X119415366Y-133667528D01*
X119392218Y-133653654D01*
X119370542Y-133637578D01*
X119350546Y-133619454D01*
X119332422Y-133599458D01*
X119316346Y-133577782D01*
X119302472Y-133554634D01*
X119290933Y-133530238D01*
X119281841Y-133504828D01*
X119275284Y-133478650D01*
X119271324Y-133451955D01*
X119270000Y-133425000D01*
X119270000Y-131575000D01*
X119271324Y-131548045D01*
X119275284Y-131521350D01*
X119281841Y-131495172D01*
X119290933Y-131469762D01*
X119302472Y-131445366D01*
X119316346Y-131422218D01*
X119332422Y-131400542D01*
X119350546Y-131380546D01*
X119370542Y-131362422D01*
X119392218Y-131346346D01*
X119415366Y-131332472D01*
X119439762Y-131320933D01*
X119465172Y-131311841D01*
X119491350Y-131305284D01*
X119518045Y-131301324D01*
X119545000Y-131300000D01*
X120095000Y-131300000D01*
X120121955Y-131301324D01*
X120121955Y-131301324D01*
G37*
D25*
X119820000Y-132500000D03*
D14*
G36*
X111481955Y-131301324D02*
G01*
X111508650Y-131305284D01*
X111534828Y-131311841D01*
X111560238Y-131320933D01*
X111584634Y-131332472D01*
X111607782Y-131346346D01*
X111629458Y-131362422D01*
X111649454Y-131380546D01*
X111667578Y-131400542D01*
X111683654Y-131422218D01*
X111697528Y-131445366D01*
X111709067Y-131469762D01*
X111718159Y-131495172D01*
X111724716Y-131521350D01*
X111728676Y-131548045D01*
X111730000Y-131575000D01*
X111730000Y-133425000D01*
X111728676Y-133451955D01*
X111724716Y-133478650D01*
X111718159Y-133504828D01*
X111709067Y-133530238D01*
X111697528Y-133554634D01*
X111683654Y-133577782D01*
X111667578Y-133599458D01*
X111649454Y-133619454D01*
X111629458Y-133637578D01*
X111607782Y-133653654D01*
X111584634Y-133667528D01*
X111560238Y-133679067D01*
X111534828Y-133688159D01*
X111508650Y-133694716D01*
X111481955Y-133698676D01*
X111455000Y-133700000D01*
X110905000Y-133700000D01*
X110878045Y-133698676D01*
X110851350Y-133694716D01*
X110825172Y-133688159D01*
X110799762Y-133679067D01*
X110775366Y-133667528D01*
X110752218Y-133653654D01*
X110730542Y-133637578D01*
X110710546Y-133619454D01*
X110692422Y-133599458D01*
X110676346Y-133577782D01*
X110662472Y-133554634D01*
X110650933Y-133530238D01*
X110641841Y-133504828D01*
X110635284Y-133478650D01*
X110631324Y-133451955D01*
X110630000Y-133425000D01*
X110630000Y-131575000D01*
X110631324Y-131548045D01*
X110635284Y-131521350D01*
X110641841Y-131495172D01*
X110650933Y-131469762D01*
X110662472Y-131445366D01*
X110676346Y-131422218D01*
X110692422Y-131400542D01*
X110710546Y-131380546D01*
X110730542Y-131362422D01*
X110752218Y-131346346D01*
X110775366Y-131332472D01*
X110799762Y-131320933D01*
X110825172Y-131311841D01*
X110851350Y-131305284D01*
X110878045Y-131301324D01*
X110905000Y-131300000D01*
X111455000Y-131300000D01*
X111481955Y-131301324D01*
X111481955Y-131301324D01*
G37*
D25*
X111180000Y-132500000D03*
D26*
X129200000Y-115500000D03*
X126400000Y-115500000D03*
X123800000Y-115500000D03*
X121000000Y-115500000D03*
D14*
G36*
X110177691Y-116276053D02*
G01*
X110198926Y-116279203D01*
X110219750Y-116284419D01*
X110239962Y-116291651D01*
X110259368Y-116300830D01*
X110277781Y-116311866D01*
X110295024Y-116324654D01*
X110310930Y-116339070D01*
X110325346Y-116354976D01*
X110338134Y-116372219D01*
X110349170Y-116390632D01*
X110358349Y-116410038D01*
X110365581Y-116430250D01*
X110370797Y-116451074D01*
X110373947Y-116472309D01*
X110375000Y-116493750D01*
X110375000Y-116931250D01*
X110373947Y-116952691D01*
X110370797Y-116973926D01*
X110365581Y-116994750D01*
X110358349Y-117014962D01*
X110349170Y-117034368D01*
X110338134Y-117052781D01*
X110325346Y-117070024D01*
X110310930Y-117085930D01*
X110295024Y-117100346D01*
X110277781Y-117113134D01*
X110259368Y-117124170D01*
X110239962Y-117133349D01*
X110219750Y-117140581D01*
X110198926Y-117145797D01*
X110177691Y-117148947D01*
X110156250Y-117150000D01*
X109643750Y-117150000D01*
X109622309Y-117148947D01*
X109601074Y-117145797D01*
X109580250Y-117140581D01*
X109560038Y-117133349D01*
X109540632Y-117124170D01*
X109522219Y-117113134D01*
X109504976Y-117100346D01*
X109489070Y-117085930D01*
X109474654Y-117070024D01*
X109461866Y-117052781D01*
X109450830Y-117034368D01*
X109441651Y-117014962D01*
X109434419Y-116994750D01*
X109429203Y-116973926D01*
X109426053Y-116952691D01*
X109425000Y-116931250D01*
X109425000Y-116493750D01*
X109426053Y-116472309D01*
X109429203Y-116451074D01*
X109434419Y-116430250D01*
X109441651Y-116410038D01*
X109450830Y-116390632D01*
X109461866Y-116372219D01*
X109474654Y-116354976D01*
X109489070Y-116339070D01*
X109504976Y-116324654D01*
X109522219Y-116311866D01*
X109540632Y-116300830D01*
X109560038Y-116291651D01*
X109580250Y-116284419D01*
X109601074Y-116279203D01*
X109622309Y-116276053D01*
X109643750Y-116275000D01*
X110156250Y-116275000D01*
X110177691Y-116276053D01*
X110177691Y-116276053D01*
G37*
D22*
X109900000Y-116712500D03*
D14*
G36*
X110177691Y-117851053D02*
G01*
X110198926Y-117854203D01*
X110219750Y-117859419D01*
X110239962Y-117866651D01*
X110259368Y-117875830D01*
X110277781Y-117886866D01*
X110295024Y-117899654D01*
X110310930Y-117914070D01*
X110325346Y-117929976D01*
X110338134Y-117947219D01*
X110349170Y-117965632D01*
X110358349Y-117985038D01*
X110365581Y-118005250D01*
X110370797Y-118026074D01*
X110373947Y-118047309D01*
X110375000Y-118068750D01*
X110375000Y-118506250D01*
X110373947Y-118527691D01*
X110370797Y-118548926D01*
X110365581Y-118569750D01*
X110358349Y-118589962D01*
X110349170Y-118609368D01*
X110338134Y-118627781D01*
X110325346Y-118645024D01*
X110310930Y-118660930D01*
X110295024Y-118675346D01*
X110277781Y-118688134D01*
X110259368Y-118699170D01*
X110239962Y-118708349D01*
X110219750Y-118715581D01*
X110198926Y-118720797D01*
X110177691Y-118723947D01*
X110156250Y-118725000D01*
X109643750Y-118725000D01*
X109622309Y-118723947D01*
X109601074Y-118720797D01*
X109580250Y-118715581D01*
X109560038Y-118708349D01*
X109540632Y-118699170D01*
X109522219Y-118688134D01*
X109504976Y-118675346D01*
X109489070Y-118660930D01*
X109474654Y-118645024D01*
X109461866Y-118627781D01*
X109450830Y-118609368D01*
X109441651Y-118589962D01*
X109434419Y-118569750D01*
X109429203Y-118548926D01*
X109426053Y-118527691D01*
X109425000Y-118506250D01*
X109425000Y-118068750D01*
X109426053Y-118047309D01*
X109429203Y-118026074D01*
X109434419Y-118005250D01*
X109441651Y-117985038D01*
X109450830Y-117965632D01*
X109461866Y-117947219D01*
X109474654Y-117929976D01*
X109489070Y-117914070D01*
X109504976Y-117899654D01*
X109522219Y-117886866D01*
X109540632Y-117875830D01*
X109560038Y-117866651D01*
X109580250Y-117859419D01*
X109601074Y-117854203D01*
X109622309Y-117851053D01*
X109643750Y-117850000D01*
X110156250Y-117850000D01*
X110177691Y-117851053D01*
X110177691Y-117851053D01*
G37*
D22*
X109900000Y-118287500D03*
D14*
G36*
X103130142Y-116801174D02*
G01*
X103153803Y-116804684D01*
X103177007Y-116810496D01*
X103199529Y-116818554D01*
X103221153Y-116828782D01*
X103241670Y-116841079D01*
X103260883Y-116855329D01*
X103278607Y-116871393D01*
X103294671Y-116889117D01*
X103308921Y-116908330D01*
X103321218Y-116928847D01*
X103331446Y-116950471D01*
X103339504Y-116972993D01*
X103345316Y-116996197D01*
X103348826Y-117019858D01*
X103350000Y-117043750D01*
X103350000Y-117956250D01*
X103348826Y-117980142D01*
X103345316Y-118003803D01*
X103339504Y-118027007D01*
X103331446Y-118049529D01*
X103321218Y-118071153D01*
X103308921Y-118091670D01*
X103294671Y-118110883D01*
X103278607Y-118128607D01*
X103260883Y-118144671D01*
X103241670Y-118158921D01*
X103221153Y-118171218D01*
X103199529Y-118181446D01*
X103177007Y-118189504D01*
X103153803Y-118195316D01*
X103130142Y-118198826D01*
X103106250Y-118200000D01*
X102618750Y-118200000D01*
X102594858Y-118198826D01*
X102571197Y-118195316D01*
X102547993Y-118189504D01*
X102525471Y-118181446D01*
X102503847Y-118171218D01*
X102483330Y-118158921D01*
X102464117Y-118144671D01*
X102446393Y-118128607D01*
X102430329Y-118110883D01*
X102416079Y-118091670D01*
X102403782Y-118071153D01*
X102393554Y-118049529D01*
X102385496Y-118027007D01*
X102379684Y-118003803D01*
X102376174Y-117980142D01*
X102375000Y-117956250D01*
X102375000Y-117043750D01*
X102376174Y-117019858D01*
X102379684Y-116996197D01*
X102385496Y-116972993D01*
X102393554Y-116950471D01*
X102403782Y-116928847D01*
X102416079Y-116908330D01*
X102430329Y-116889117D01*
X102446393Y-116871393D01*
X102464117Y-116855329D01*
X102483330Y-116841079D01*
X102503847Y-116828782D01*
X102525471Y-116818554D01*
X102547993Y-116810496D01*
X102571197Y-116804684D01*
X102594858Y-116801174D01*
X102618750Y-116800000D01*
X103106250Y-116800000D01*
X103130142Y-116801174D01*
X103130142Y-116801174D01*
G37*
D21*
X102862500Y-117500000D03*
D14*
G36*
X105005142Y-116801174D02*
G01*
X105028803Y-116804684D01*
X105052007Y-116810496D01*
X105074529Y-116818554D01*
X105096153Y-116828782D01*
X105116670Y-116841079D01*
X105135883Y-116855329D01*
X105153607Y-116871393D01*
X105169671Y-116889117D01*
X105183921Y-116908330D01*
X105196218Y-116928847D01*
X105206446Y-116950471D01*
X105214504Y-116972993D01*
X105220316Y-116996197D01*
X105223826Y-117019858D01*
X105225000Y-117043750D01*
X105225000Y-117956250D01*
X105223826Y-117980142D01*
X105220316Y-118003803D01*
X105214504Y-118027007D01*
X105206446Y-118049529D01*
X105196218Y-118071153D01*
X105183921Y-118091670D01*
X105169671Y-118110883D01*
X105153607Y-118128607D01*
X105135883Y-118144671D01*
X105116670Y-118158921D01*
X105096153Y-118171218D01*
X105074529Y-118181446D01*
X105052007Y-118189504D01*
X105028803Y-118195316D01*
X105005142Y-118198826D01*
X104981250Y-118200000D01*
X104493750Y-118200000D01*
X104469858Y-118198826D01*
X104446197Y-118195316D01*
X104422993Y-118189504D01*
X104400471Y-118181446D01*
X104378847Y-118171218D01*
X104358330Y-118158921D01*
X104339117Y-118144671D01*
X104321393Y-118128607D01*
X104305329Y-118110883D01*
X104291079Y-118091670D01*
X104278782Y-118071153D01*
X104268554Y-118049529D01*
X104260496Y-118027007D01*
X104254684Y-118003803D01*
X104251174Y-117980142D01*
X104250000Y-117956250D01*
X104250000Y-117043750D01*
X104251174Y-117019858D01*
X104254684Y-116996197D01*
X104260496Y-116972993D01*
X104268554Y-116950471D01*
X104278782Y-116928847D01*
X104291079Y-116908330D01*
X104305329Y-116889117D01*
X104321393Y-116871393D01*
X104339117Y-116855329D01*
X104358330Y-116841079D01*
X104378847Y-116828782D01*
X104400471Y-116818554D01*
X104422993Y-116810496D01*
X104446197Y-116804684D01*
X104469858Y-116801174D01*
X104493750Y-116800000D01*
X104981250Y-116800000D01*
X105005142Y-116801174D01*
X105005142Y-116801174D01*
G37*
D21*
X104737500Y-117500000D03*
D14*
G36*
X128505142Y-109201174D02*
G01*
X128528803Y-109204684D01*
X128552007Y-109210496D01*
X128574529Y-109218554D01*
X128596153Y-109228782D01*
X128616670Y-109241079D01*
X128635883Y-109255329D01*
X128653607Y-109271393D01*
X128669671Y-109289117D01*
X128683921Y-109308330D01*
X128696218Y-109328847D01*
X128706446Y-109350471D01*
X128714504Y-109372993D01*
X128720316Y-109396197D01*
X128723826Y-109419858D01*
X128725000Y-109443750D01*
X128725000Y-110356250D01*
X128723826Y-110380142D01*
X128720316Y-110403803D01*
X128714504Y-110427007D01*
X128706446Y-110449529D01*
X128696218Y-110471153D01*
X128683921Y-110491670D01*
X128669671Y-110510883D01*
X128653607Y-110528607D01*
X128635883Y-110544671D01*
X128616670Y-110558921D01*
X128596153Y-110571218D01*
X128574529Y-110581446D01*
X128552007Y-110589504D01*
X128528803Y-110595316D01*
X128505142Y-110598826D01*
X128481250Y-110600000D01*
X127993750Y-110600000D01*
X127969858Y-110598826D01*
X127946197Y-110595316D01*
X127922993Y-110589504D01*
X127900471Y-110581446D01*
X127878847Y-110571218D01*
X127858330Y-110558921D01*
X127839117Y-110544671D01*
X127821393Y-110528607D01*
X127805329Y-110510883D01*
X127791079Y-110491670D01*
X127778782Y-110471153D01*
X127768554Y-110449529D01*
X127760496Y-110427007D01*
X127754684Y-110403803D01*
X127751174Y-110380142D01*
X127750000Y-110356250D01*
X127750000Y-109443750D01*
X127751174Y-109419858D01*
X127754684Y-109396197D01*
X127760496Y-109372993D01*
X127768554Y-109350471D01*
X127778782Y-109328847D01*
X127791079Y-109308330D01*
X127805329Y-109289117D01*
X127821393Y-109271393D01*
X127839117Y-109255329D01*
X127858330Y-109241079D01*
X127878847Y-109228782D01*
X127900471Y-109218554D01*
X127922993Y-109210496D01*
X127946197Y-109204684D01*
X127969858Y-109201174D01*
X127993750Y-109200000D01*
X128481250Y-109200000D01*
X128505142Y-109201174D01*
X128505142Y-109201174D01*
G37*
D21*
X128237500Y-109900000D03*
D14*
G36*
X126630142Y-109201174D02*
G01*
X126653803Y-109204684D01*
X126677007Y-109210496D01*
X126699529Y-109218554D01*
X126721153Y-109228782D01*
X126741670Y-109241079D01*
X126760883Y-109255329D01*
X126778607Y-109271393D01*
X126794671Y-109289117D01*
X126808921Y-109308330D01*
X126821218Y-109328847D01*
X126831446Y-109350471D01*
X126839504Y-109372993D01*
X126845316Y-109396197D01*
X126848826Y-109419858D01*
X126850000Y-109443750D01*
X126850000Y-110356250D01*
X126848826Y-110380142D01*
X126845316Y-110403803D01*
X126839504Y-110427007D01*
X126831446Y-110449529D01*
X126821218Y-110471153D01*
X126808921Y-110491670D01*
X126794671Y-110510883D01*
X126778607Y-110528607D01*
X126760883Y-110544671D01*
X126741670Y-110558921D01*
X126721153Y-110571218D01*
X126699529Y-110581446D01*
X126677007Y-110589504D01*
X126653803Y-110595316D01*
X126630142Y-110598826D01*
X126606250Y-110600000D01*
X126118750Y-110600000D01*
X126094858Y-110598826D01*
X126071197Y-110595316D01*
X126047993Y-110589504D01*
X126025471Y-110581446D01*
X126003847Y-110571218D01*
X125983330Y-110558921D01*
X125964117Y-110544671D01*
X125946393Y-110528607D01*
X125930329Y-110510883D01*
X125916079Y-110491670D01*
X125903782Y-110471153D01*
X125893554Y-110449529D01*
X125885496Y-110427007D01*
X125879684Y-110403803D01*
X125876174Y-110380142D01*
X125875000Y-110356250D01*
X125875000Y-109443750D01*
X125876174Y-109419858D01*
X125879684Y-109396197D01*
X125885496Y-109372993D01*
X125893554Y-109350471D01*
X125903782Y-109328847D01*
X125916079Y-109308330D01*
X125930329Y-109289117D01*
X125946393Y-109271393D01*
X125964117Y-109255329D01*
X125983330Y-109241079D01*
X126003847Y-109228782D01*
X126025471Y-109218554D01*
X126047993Y-109210496D01*
X126071197Y-109204684D01*
X126094858Y-109201174D01*
X126118750Y-109200000D01*
X126606250Y-109200000D01*
X126630142Y-109201174D01*
X126630142Y-109201174D01*
G37*
D21*
X126362500Y-109900000D03*
D14*
G36*
X123205142Y-109201174D02*
G01*
X123228803Y-109204684D01*
X123252007Y-109210496D01*
X123274529Y-109218554D01*
X123296153Y-109228782D01*
X123316670Y-109241079D01*
X123335883Y-109255329D01*
X123353607Y-109271393D01*
X123369671Y-109289117D01*
X123383921Y-109308330D01*
X123396218Y-109328847D01*
X123406446Y-109350471D01*
X123414504Y-109372993D01*
X123420316Y-109396197D01*
X123423826Y-109419858D01*
X123425000Y-109443750D01*
X123425000Y-110356250D01*
X123423826Y-110380142D01*
X123420316Y-110403803D01*
X123414504Y-110427007D01*
X123406446Y-110449529D01*
X123396218Y-110471153D01*
X123383921Y-110491670D01*
X123369671Y-110510883D01*
X123353607Y-110528607D01*
X123335883Y-110544671D01*
X123316670Y-110558921D01*
X123296153Y-110571218D01*
X123274529Y-110581446D01*
X123252007Y-110589504D01*
X123228803Y-110595316D01*
X123205142Y-110598826D01*
X123181250Y-110600000D01*
X122693750Y-110600000D01*
X122669858Y-110598826D01*
X122646197Y-110595316D01*
X122622993Y-110589504D01*
X122600471Y-110581446D01*
X122578847Y-110571218D01*
X122558330Y-110558921D01*
X122539117Y-110544671D01*
X122521393Y-110528607D01*
X122505329Y-110510883D01*
X122491079Y-110491670D01*
X122478782Y-110471153D01*
X122468554Y-110449529D01*
X122460496Y-110427007D01*
X122454684Y-110403803D01*
X122451174Y-110380142D01*
X122450000Y-110356250D01*
X122450000Y-109443750D01*
X122451174Y-109419858D01*
X122454684Y-109396197D01*
X122460496Y-109372993D01*
X122468554Y-109350471D01*
X122478782Y-109328847D01*
X122491079Y-109308330D01*
X122505329Y-109289117D01*
X122521393Y-109271393D01*
X122539117Y-109255329D01*
X122558330Y-109241079D01*
X122578847Y-109228782D01*
X122600471Y-109218554D01*
X122622993Y-109210496D01*
X122646197Y-109204684D01*
X122669858Y-109201174D01*
X122693750Y-109200000D01*
X123181250Y-109200000D01*
X123205142Y-109201174D01*
X123205142Y-109201174D01*
G37*
D21*
X122937500Y-109900000D03*
D14*
G36*
X121330142Y-109201174D02*
G01*
X121353803Y-109204684D01*
X121377007Y-109210496D01*
X121399529Y-109218554D01*
X121421153Y-109228782D01*
X121441670Y-109241079D01*
X121460883Y-109255329D01*
X121478607Y-109271393D01*
X121494671Y-109289117D01*
X121508921Y-109308330D01*
X121521218Y-109328847D01*
X121531446Y-109350471D01*
X121539504Y-109372993D01*
X121545316Y-109396197D01*
X121548826Y-109419858D01*
X121550000Y-109443750D01*
X121550000Y-110356250D01*
X121548826Y-110380142D01*
X121545316Y-110403803D01*
X121539504Y-110427007D01*
X121531446Y-110449529D01*
X121521218Y-110471153D01*
X121508921Y-110491670D01*
X121494671Y-110510883D01*
X121478607Y-110528607D01*
X121460883Y-110544671D01*
X121441670Y-110558921D01*
X121421153Y-110571218D01*
X121399529Y-110581446D01*
X121377007Y-110589504D01*
X121353803Y-110595316D01*
X121330142Y-110598826D01*
X121306250Y-110600000D01*
X120818750Y-110600000D01*
X120794858Y-110598826D01*
X120771197Y-110595316D01*
X120747993Y-110589504D01*
X120725471Y-110581446D01*
X120703847Y-110571218D01*
X120683330Y-110558921D01*
X120664117Y-110544671D01*
X120646393Y-110528607D01*
X120630329Y-110510883D01*
X120616079Y-110491670D01*
X120603782Y-110471153D01*
X120593554Y-110449529D01*
X120585496Y-110427007D01*
X120579684Y-110403803D01*
X120576174Y-110380142D01*
X120575000Y-110356250D01*
X120575000Y-109443750D01*
X120576174Y-109419858D01*
X120579684Y-109396197D01*
X120585496Y-109372993D01*
X120593554Y-109350471D01*
X120603782Y-109328847D01*
X120616079Y-109308330D01*
X120630329Y-109289117D01*
X120646393Y-109271393D01*
X120664117Y-109255329D01*
X120683330Y-109241079D01*
X120703847Y-109228782D01*
X120725471Y-109218554D01*
X120747993Y-109210496D01*
X120771197Y-109204684D01*
X120794858Y-109201174D01*
X120818750Y-109200000D01*
X121306250Y-109200000D01*
X121330142Y-109201174D01*
X121330142Y-109201174D01*
G37*
D21*
X121062500Y-109900000D03*
D14*
G36*
X128505142Y-107401174D02*
G01*
X128528803Y-107404684D01*
X128552007Y-107410496D01*
X128574529Y-107418554D01*
X128596153Y-107428782D01*
X128616670Y-107441079D01*
X128635883Y-107455329D01*
X128653607Y-107471393D01*
X128669671Y-107489117D01*
X128683921Y-107508330D01*
X128696218Y-107528847D01*
X128706446Y-107550471D01*
X128714504Y-107572993D01*
X128720316Y-107596197D01*
X128723826Y-107619858D01*
X128725000Y-107643750D01*
X128725000Y-108556250D01*
X128723826Y-108580142D01*
X128720316Y-108603803D01*
X128714504Y-108627007D01*
X128706446Y-108649529D01*
X128696218Y-108671153D01*
X128683921Y-108691670D01*
X128669671Y-108710883D01*
X128653607Y-108728607D01*
X128635883Y-108744671D01*
X128616670Y-108758921D01*
X128596153Y-108771218D01*
X128574529Y-108781446D01*
X128552007Y-108789504D01*
X128528803Y-108795316D01*
X128505142Y-108798826D01*
X128481250Y-108800000D01*
X127993750Y-108800000D01*
X127969858Y-108798826D01*
X127946197Y-108795316D01*
X127922993Y-108789504D01*
X127900471Y-108781446D01*
X127878847Y-108771218D01*
X127858330Y-108758921D01*
X127839117Y-108744671D01*
X127821393Y-108728607D01*
X127805329Y-108710883D01*
X127791079Y-108691670D01*
X127778782Y-108671153D01*
X127768554Y-108649529D01*
X127760496Y-108627007D01*
X127754684Y-108603803D01*
X127751174Y-108580142D01*
X127750000Y-108556250D01*
X127750000Y-107643750D01*
X127751174Y-107619858D01*
X127754684Y-107596197D01*
X127760496Y-107572993D01*
X127768554Y-107550471D01*
X127778782Y-107528847D01*
X127791079Y-107508330D01*
X127805329Y-107489117D01*
X127821393Y-107471393D01*
X127839117Y-107455329D01*
X127858330Y-107441079D01*
X127878847Y-107428782D01*
X127900471Y-107418554D01*
X127922993Y-107410496D01*
X127946197Y-107404684D01*
X127969858Y-107401174D01*
X127993750Y-107400000D01*
X128481250Y-107400000D01*
X128505142Y-107401174D01*
X128505142Y-107401174D01*
G37*
D21*
X128237500Y-108100000D03*
D14*
G36*
X126630142Y-107401174D02*
G01*
X126653803Y-107404684D01*
X126677007Y-107410496D01*
X126699529Y-107418554D01*
X126721153Y-107428782D01*
X126741670Y-107441079D01*
X126760883Y-107455329D01*
X126778607Y-107471393D01*
X126794671Y-107489117D01*
X126808921Y-107508330D01*
X126821218Y-107528847D01*
X126831446Y-107550471D01*
X126839504Y-107572993D01*
X126845316Y-107596197D01*
X126848826Y-107619858D01*
X126850000Y-107643750D01*
X126850000Y-108556250D01*
X126848826Y-108580142D01*
X126845316Y-108603803D01*
X126839504Y-108627007D01*
X126831446Y-108649529D01*
X126821218Y-108671153D01*
X126808921Y-108691670D01*
X126794671Y-108710883D01*
X126778607Y-108728607D01*
X126760883Y-108744671D01*
X126741670Y-108758921D01*
X126721153Y-108771218D01*
X126699529Y-108781446D01*
X126677007Y-108789504D01*
X126653803Y-108795316D01*
X126630142Y-108798826D01*
X126606250Y-108800000D01*
X126118750Y-108800000D01*
X126094858Y-108798826D01*
X126071197Y-108795316D01*
X126047993Y-108789504D01*
X126025471Y-108781446D01*
X126003847Y-108771218D01*
X125983330Y-108758921D01*
X125964117Y-108744671D01*
X125946393Y-108728607D01*
X125930329Y-108710883D01*
X125916079Y-108691670D01*
X125903782Y-108671153D01*
X125893554Y-108649529D01*
X125885496Y-108627007D01*
X125879684Y-108603803D01*
X125876174Y-108580142D01*
X125875000Y-108556250D01*
X125875000Y-107643750D01*
X125876174Y-107619858D01*
X125879684Y-107596197D01*
X125885496Y-107572993D01*
X125893554Y-107550471D01*
X125903782Y-107528847D01*
X125916079Y-107508330D01*
X125930329Y-107489117D01*
X125946393Y-107471393D01*
X125964117Y-107455329D01*
X125983330Y-107441079D01*
X126003847Y-107428782D01*
X126025471Y-107418554D01*
X126047993Y-107410496D01*
X126071197Y-107404684D01*
X126094858Y-107401174D01*
X126118750Y-107400000D01*
X126606250Y-107400000D01*
X126630142Y-107401174D01*
X126630142Y-107401174D01*
G37*
D21*
X126362500Y-108100000D03*
D14*
G36*
X123205142Y-107401174D02*
G01*
X123228803Y-107404684D01*
X123252007Y-107410496D01*
X123274529Y-107418554D01*
X123296153Y-107428782D01*
X123316670Y-107441079D01*
X123335883Y-107455329D01*
X123353607Y-107471393D01*
X123369671Y-107489117D01*
X123383921Y-107508330D01*
X123396218Y-107528847D01*
X123406446Y-107550471D01*
X123414504Y-107572993D01*
X123420316Y-107596197D01*
X123423826Y-107619858D01*
X123425000Y-107643750D01*
X123425000Y-108556250D01*
X123423826Y-108580142D01*
X123420316Y-108603803D01*
X123414504Y-108627007D01*
X123406446Y-108649529D01*
X123396218Y-108671153D01*
X123383921Y-108691670D01*
X123369671Y-108710883D01*
X123353607Y-108728607D01*
X123335883Y-108744671D01*
X123316670Y-108758921D01*
X123296153Y-108771218D01*
X123274529Y-108781446D01*
X123252007Y-108789504D01*
X123228803Y-108795316D01*
X123205142Y-108798826D01*
X123181250Y-108800000D01*
X122693750Y-108800000D01*
X122669858Y-108798826D01*
X122646197Y-108795316D01*
X122622993Y-108789504D01*
X122600471Y-108781446D01*
X122578847Y-108771218D01*
X122558330Y-108758921D01*
X122539117Y-108744671D01*
X122521393Y-108728607D01*
X122505329Y-108710883D01*
X122491079Y-108691670D01*
X122478782Y-108671153D01*
X122468554Y-108649529D01*
X122460496Y-108627007D01*
X122454684Y-108603803D01*
X122451174Y-108580142D01*
X122450000Y-108556250D01*
X122450000Y-107643750D01*
X122451174Y-107619858D01*
X122454684Y-107596197D01*
X122460496Y-107572993D01*
X122468554Y-107550471D01*
X122478782Y-107528847D01*
X122491079Y-107508330D01*
X122505329Y-107489117D01*
X122521393Y-107471393D01*
X122539117Y-107455329D01*
X122558330Y-107441079D01*
X122578847Y-107428782D01*
X122600471Y-107418554D01*
X122622993Y-107410496D01*
X122646197Y-107404684D01*
X122669858Y-107401174D01*
X122693750Y-107400000D01*
X123181250Y-107400000D01*
X123205142Y-107401174D01*
X123205142Y-107401174D01*
G37*
D21*
X122937500Y-108100000D03*
D14*
G36*
X121330142Y-107401174D02*
G01*
X121353803Y-107404684D01*
X121377007Y-107410496D01*
X121399529Y-107418554D01*
X121421153Y-107428782D01*
X121441670Y-107441079D01*
X121460883Y-107455329D01*
X121478607Y-107471393D01*
X121494671Y-107489117D01*
X121508921Y-107508330D01*
X121521218Y-107528847D01*
X121531446Y-107550471D01*
X121539504Y-107572993D01*
X121545316Y-107596197D01*
X121548826Y-107619858D01*
X121550000Y-107643750D01*
X121550000Y-108556250D01*
X121548826Y-108580142D01*
X121545316Y-108603803D01*
X121539504Y-108627007D01*
X121531446Y-108649529D01*
X121521218Y-108671153D01*
X121508921Y-108691670D01*
X121494671Y-108710883D01*
X121478607Y-108728607D01*
X121460883Y-108744671D01*
X121441670Y-108758921D01*
X121421153Y-108771218D01*
X121399529Y-108781446D01*
X121377007Y-108789504D01*
X121353803Y-108795316D01*
X121330142Y-108798826D01*
X121306250Y-108800000D01*
X120818750Y-108800000D01*
X120794858Y-108798826D01*
X120771197Y-108795316D01*
X120747993Y-108789504D01*
X120725471Y-108781446D01*
X120703847Y-108771218D01*
X120683330Y-108758921D01*
X120664117Y-108744671D01*
X120646393Y-108728607D01*
X120630329Y-108710883D01*
X120616079Y-108691670D01*
X120603782Y-108671153D01*
X120593554Y-108649529D01*
X120585496Y-108627007D01*
X120579684Y-108603803D01*
X120576174Y-108580142D01*
X120575000Y-108556250D01*
X120575000Y-107643750D01*
X120576174Y-107619858D01*
X120579684Y-107596197D01*
X120585496Y-107572993D01*
X120593554Y-107550471D01*
X120603782Y-107528847D01*
X120616079Y-107508330D01*
X120630329Y-107489117D01*
X120646393Y-107471393D01*
X120664117Y-107455329D01*
X120683330Y-107441079D01*
X120703847Y-107428782D01*
X120725471Y-107418554D01*
X120747993Y-107410496D01*
X120771197Y-107404684D01*
X120794858Y-107401174D01*
X120818750Y-107400000D01*
X121306250Y-107400000D01*
X121330142Y-107401174D01*
X121330142Y-107401174D01*
G37*
D21*
X121062500Y-108100000D03*
D14*
G36*
X128405142Y-123101174D02*
G01*
X128428803Y-123104684D01*
X128452007Y-123110496D01*
X128474529Y-123118554D01*
X128496153Y-123128782D01*
X128516670Y-123141079D01*
X128535883Y-123155329D01*
X128553607Y-123171393D01*
X128569671Y-123189117D01*
X128583921Y-123208330D01*
X128596218Y-123228847D01*
X128606446Y-123250471D01*
X128614504Y-123272993D01*
X128620316Y-123296197D01*
X128623826Y-123319858D01*
X128625000Y-123343750D01*
X128625000Y-124256250D01*
X128623826Y-124280142D01*
X128620316Y-124303803D01*
X128614504Y-124327007D01*
X128606446Y-124349529D01*
X128596218Y-124371153D01*
X128583921Y-124391670D01*
X128569671Y-124410883D01*
X128553607Y-124428607D01*
X128535883Y-124444671D01*
X128516670Y-124458921D01*
X128496153Y-124471218D01*
X128474529Y-124481446D01*
X128452007Y-124489504D01*
X128428803Y-124495316D01*
X128405142Y-124498826D01*
X128381250Y-124500000D01*
X127893750Y-124500000D01*
X127869858Y-124498826D01*
X127846197Y-124495316D01*
X127822993Y-124489504D01*
X127800471Y-124481446D01*
X127778847Y-124471218D01*
X127758330Y-124458921D01*
X127739117Y-124444671D01*
X127721393Y-124428607D01*
X127705329Y-124410883D01*
X127691079Y-124391670D01*
X127678782Y-124371153D01*
X127668554Y-124349529D01*
X127660496Y-124327007D01*
X127654684Y-124303803D01*
X127651174Y-124280142D01*
X127650000Y-124256250D01*
X127650000Y-123343750D01*
X127651174Y-123319858D01*
X127654684Y-123296197D01*
X127660496Y-123272993D01*
X127668554Y-123250471D01*
X127678782Y-123228847D01*
X127691079Y-123208330D01*
X127705329Y-123189117D01*
X127721393Y-123171393D01*
X127739117Y-123155329D01*
X127758330Y-123141079D01*
X127778847Y-123128782D01*
X127800471Y-123118554D01*
X127822993Y-123110496D01*
X127846197Y-123104684D01*
X127869858Y-123101174D01*
X127893750Y-123100000D01*
X128381250Y-123100000D01*
X128405142Y-123101174D01*
X128405142Y-123101174D01*
G37*
D21*
X128137500Y-123800000D03*
D14*
G36*
X126530142Y-123101174D02*
G01*
X126553803Y-123104684D01*
X126577007Y-123110496D01*
X126599529Y-123118554D01*
X126621153Y-123128782D01*
X126641670Y-123141079D01*
X126660883Y-123155329D01*
X126678607Y-123171393D01*
X126694671Y-123189117D01*
X126708921Y-123208330D01*
X126721218Y-123228847D01*
X126731446Y-123250471D01*
X126739504Y-123272993D01*
X126745316Y-123296197D01*
X126748826Y-123319858D01*
X126750000Y-123343750D01*
X126750000Y-124256250D01*
X126748826Y-124280142D01*
X126745316Y-124303803D01*
X126739504Y-124327007D01*
X126731446Y-124349529D01*
X126721218Y-124371153D01*
X126708921Y-124391670D01*
X126694671Y-124410883D01*
X126678607Y-124428607D01*
X126660883Y-124444671D01*
X126641670Y-124458921D01*
X126621153Y-124471218D01*
X126599529Y-124481446D01*
X126577007Y-124489504D01*
X126553803Y-124495316D01*
X126530142Y-124498826D01*
X126506250Y-124500000D01*
X126018750Y-124500000D01*
X125994858Y-124498826D01*
X125971197Y-124495316D01*
X125947993Y-124489504D01*
X125925471Y-124481446D01*
X125903847Y-124471218D01*
X125883330Y-124458921D01*
X125864117Y-124444671D01*
X125846393Y-124428607D01*
X125830329Y-124410883D01*
X125816079Y-124391670D01*
X125803782Y-124371153D01*
X125793554Y-124349529D01*
X125785496Y-124327007D01*
X125779684Y-124303803D01*
X125776174Y-124280142D01*
X125775000Y-124256250D01*
X125775000Y-123343750D01*
X125776174Y-123319858D01*
X125779684Y-123296197D01*
X125785496Y-123272993D01*
X125793554Y-123250471D01*
X125803782Y-123228847D01*
X125816079Y-123208330D01*
X125830329Y-123189117D01*
X125846393Y-123171393D01*
X125864117Y-123155329D01*
X125883330Y-123141079D01*
X125903847Y-123128782D01*
X125925471Y-123118554D01*
X125947993Y-123110496D01*
X125971197Y-123104684D01*
X125994858Y-123101174D01*
X126018750Y-123100000D01*
X126506250Y-123100000D01*
X126530142Y-123101174D01*
X126530142Y-123101174D01*
G37*
D21*
X126262500Y-123800000D03*
D14*
G36*
X123005142Y-121301174D02*
G01*
X123028803Y-121304684D01*
X123052007Y-121310496D01*
X123074529Y-121318554D01*
X123096153Y-121328782D01*
X123116670Y-121341079D01*
X123135883Y-121355329D01*
X123153607Y-121371393D01*
X123169671Y-121389117D01*
X123183921Y-121408330D01*
X123196218Y-121428847D01*
X123206446Y-121450471D01*
X123214504Y-121472993D01*
X123220316Y-121496197D01*
X123223826Y-121519858D01*
X123225000Y-121543750D01*
X123225000Y-122456250D01*
X123223826Y-122480142D01*
X123220316Y-122503803D01*
X123214504Y-122527007D01*
X123206446Y-122549529D01*
X123196218Y-122571153D01*
X123183921Y-122591670D01*
X123169671Y-122610883D01*
X123153607Y-122628607D01*
X123135883Y-122644671D01*
X123116670Y-122658921D01*
X123096153Y-122671218D01*
X123074529Y-122681446D01*
X123052007Y-122689504D01*
X123028803Y-122695316D01*
X123005142Y-122698826D01*
X122981250Y-122700000D01*
X122493750Y-122700000D01*
X122469858Y-122698826D01*
X122446197Y-122695316D01*
X122422993Y-122689504D01*
X122400471Y-122681446D01*
X122378847Y-122671218D01*
X122358330Y-122658921D01*
X122339117Y-122644671D01*
X122321393Y-122628607D01*
X122305329Y-122610883D01*
X122291079Y-122591670D01*
X122278782Y-122571153D01*
X122268554Y-122549529D01*
X122260496Y-122527007D01*
X122254684Y-122503803D01*
X122251174Y-122480142D01*
X122250000Y-122456250D01*
X122250000Y-121543750D01*
X122251174Y-121519858D01*
X122254684Y-121496197D01*
X122260496Y-121472993D01*
X122268554Y-121450471D01*
X122278782Y-121428847D01*
X122291079Y-121408330D01*
X122305329Y-121389117D01*
X122321393Y-121371393D01*
X122339117Y-121355329D01*
X122358330Y-121341079D01*
X122378847Y-121328782D01*
X122400471Y-121318554D01*
X122422993Y-121310496D01*
X122446197Y-121304684D01*
X122469858Y-121301174D01*
X122493750Y-121300000D01*
X122981250Y-121300000D01*
X123005142Y-121301174D01*
X123005142Y-121301174D01*
G37*
D21*
X122737500Y-122000000D03*
D14*
G36*
X121130142Y-121301174D02*
G01*
X121153803Y-121304684D01*
X121177007Y-121310496D01*
X121199529Y-121318554D01*
X121221153Y-121328782D01*
X121241670Y-121341079D01*
X121260883Y-121355329D01*
X121278607Y-121371393D01*
X121294671Y-121389117D01*
X121308921Y-121408330D01*
X121321218Y-121428847D01*
X121331446Y-121450471D01*
X121339504Y-121472993D01*
X121345316Y-121496197D01*
X121348826Y-121519858D01*
X121350000Y-121543750D01*
X121350000Y-122456250D01*
X121348826Y-122480142D01*
X121345316Y-122503803D01*
X121339504Y-122527007D01*
X121331446Y-122549529D01*
X121321218Y-122571153D01*
X121308921Y-122591670D01*
X121294671Y-122610883D01*
X121278607Y-122628607D01*
X121260883Y-122644671D01*
X121241670Y-122658921D01*
X121221153Y-122671218D01*
X121199529Y-122681446D01*
X121177007Y-122689504D01*
X121153803Y-122695316D01*
X121130142Y-122698826D01*
X121106250Y-122700000D01*
X120618750Y-122700000D01*
X120594858Y-122698826D01*
X120571197Y-122695316D01*
X120547993Y-122689504D01*
X120525471Y-122681446D01*
X120503847Y-122671218D01*
X120483330Y-122658921D01*
X120464117Y-122644671D01*
X120446393Y-122628607D01*
X120430329Y-122610883D01*
X120416079Y-122591670D01*
X120403782Y-122571153D01*
X120393554Y-122549529D01*
X120385496Y-122527007D01*
X120379684Y-122503803D01*
X120376174Y-122480142D01*
X120375000Y-122456250D01*
X120375000Y-121543750D01*
X120376174Y-121519858D01*
X120379684Y-121496197D01*
X120385496Y-121472993D01*
X120393554Y-121450471D01*
X120403782Y-121428847D01*
X120416079Y-121408330D01*
X120430329Y-121389117D01*
X120446393Y-121371393D01*
X120464117Y-121355329D01*
X120483330Y-121341079D01*
X120503847Y-121328782D01*
X120525471Y-121318554D01*
X120547993Y-121310496D01*
X120571197Y-121304684D01*
X120594858Y-121301174D01*
X120618750Y-121300000D01*
X121106250Y-121300000D01*
X121130142Y-121301174D01*
X121130142Y-121301174D01*
G37*
D21*
X120862500Y-122000000D03*
D14*
G36*
X128405142Y-121301174D02*
G01*
X128428803Y-121304684D01*
X128452007Y-121310496D01*
X128474529Y-121318554D01*
X128496153Y-121328782D01*
X128516670Y-121341079D01*
X128535883Y-121355329D01*
X128553607Y-121371393D01*
X128569671Y-121389117D01*
X128583921Y-121408330D01*
X128596218Y-121428847D01*
X128606446Y-121450471D01*
X128614504Y-121472993D01*
X128620316Y-121496197D01*
X128623826Y-121519858D01*
X128625000Y-121543750D01*
X128625000Y-122456250D01*
X128623826Y-122480142D01*
X128620316Y-122503803D01*
X128614504Y-122527007D01*
X128606446Y-122549529D01*
X128596218Y-122571153D01*
X128583921Y-122591670D01*
X128569671Y-122610883D01*
X128553607Y-122628607D01*
X128535883Y-122644671D01*
X128516670Y-122658921D01*
X128496153Y-122671218D01*
X128474529Y-122681446D01*
X128452007Y-122689504D01*
X128428803Y-122695316D01*
X128405142Y-122698826D01*
X128381250Y-122700000D01*
X127893750Y-122700000D01*
X127869858Y-122698826D01*
X127846197Y-122695316D01*
X127822993Y-122689504D01*
X127800471Y-122681446D01*
X127778847Y-122671218D01*
X127758330Y-122658921D01*
X127739117Y-122644671D01*
X127721393Y-122628607D01*
X127705329Y-122610883D01*
X127691079Y-122591670D01*
X127678782Y-122571153D01*
X127668554Y-122549529D01*
X127660496Y-122527007D01*
X127654684Y-122503803D01*
X127651174Y-122480142D01*
X127650000Y-122456250D01*
X127650000Y-121543750D01*
X127651174Y-121519858D01*
X127654684Y-121496197D01*
X127660496Y-121472993D01*
X127668554Y-121450471D01*
X127678782Y-121428847D01*
X127691079Y-121408330D01*
X127705329Y-121389117D01*
X127721393Y-121371393D01*
X127739117Y-121355329D01*
X127758330Y-121341079D01*
X127778847Y-121328782D01*
X127800471Y-121318554D01*
X127822993Y-121310496D01*
X127846197Y-121304684D01*
X127869858Y-121301174D01*
X127893750Y-121300000D01*
X128381250Y-121300000D01*
X128405142Y-121301174D01*
X128405142Y-121301174D01*
G37*
D21*
X128137500Y-122000000D03*
D14*
G36*
X126530142Y-121301174D02*
G01*
X126553803Y-121304684D01*
X126577007Y-121310496D01*
X126599529Y-121318554D01*
X126621153Y-121328782D01*
X126641670Y-121341079D01*
X126660883Y-121355329D01*
X126678607Y-121371393D01*
X126694671Y-121389117D01*
X126708921Y-121408330D01*
X126721218Y-121428847D01*
X126731446Y-121450471D01*
X126739504Y-121472993D01*
X126745316Y-121496197D01*
X126748826Y-121519858D01*
X126750000Y-121543750D01*
X126750000Y-122456250D01*
X126748826Y-122480142D01*
X126745316Y-122503803D01*
X126739504Y-122527007D01*
X126731446Y-122549529D01*
X126721218Y-122571153D01*
X126708921Y-122591670D01*
X126694671Y-122610883D01*
X126678607Y-122628607D01*
X126660883Y-122644671D01*
X126641670Y-122658921D01*
X126621153Y-122671218D01*
X126599529Y-122681446D01*
X126577007Y-122689504D01*
X126553803Y-122695316D01*
X126530142Y-122698826D01*
X126506250Y-122700000D01*
X126018750Y-122700000D01*
X125994858Y-122698826D01*
X125971197Y-122695316D01*
X125947993Y-122689504D01*
X125925471Y-122681446D01*
X125903847Y-122671218D01*
X125883330Y-122658921D01*
X125864117Y-122644671D01*
X125846393Y-122628607D01*
X125830329Y-122610883D01*
X125816079Y-122591670D01*
X125803782Y-122571153D01*
X125793554Y-122549529D01*
X125785496Y-122527007D01*
X125779684Y-122503803D01*
X125776174Y-122480142D01*
X125775000Y-122456250D01*
X125775000Y-121543750D01*
X125776174Y-121519858D01*
X125779684Y-121496197D01*
X125785496Y-121472993D01*
X125793554Y-121450471D01*
X125803782Y-121428847D01*
X125816079Y-121408330D01*
X125830329Y-121389117D01*
X125846393Y-121371393D01*
X125864117Y-121355329D01*
X125883330Y-121341079D01*
X125903847Y-121328782D01*
X125925471Y-121318554D01*
X125947993Y-121310496D01*
X125971197Y-121304684D01*
X125994858Y-121301174D01*
X126018750Y-121300000D01*
X126506250Y-121300000D01*
X126530142Y-121301174D01*
X126530142Y-121301174D01*
G37*
D21*
X126262500Y-122000000D03*
D14*
G36*
X123005142Y-123101174D02*
G01*
X123028803Y-123104684D01*
X123052007Y-123110496D01*
X123074529Y-123118554D01*
X123096153Y-123128782D01*
X123116670Y-123141079D01*
X123135883Y-123155329D01*
X123153607Y-123171393D01*
X123169671Y-123189117D01*
X123183921Y-123208330D01*
X123196218Y-123228847D01*
X123206446Y-123250471D01*
X123214504Y-123272993D01*
X123220316Y-123296197D01*
X123223826Y-123319858D01*
X123225000Y-123343750D01*
X123225000Y-124256250D01*
X123223826Y-124280142D01*
X123220316Y-124303803D01*
X123214504Y-124327007D01*
X123206446Y-124349529D01*
X123196218Y-124371153D01*
X123183921Y-124391670D01*
X123169671Y-124410883D01*
X123153607Y-124428607D01*
X123135883Y-124444671D01*
X123116670Y-124458921D01*
X123096153Y-124471218D01*
X123074529Y-124481446D01*
X123052007Y-124489504D01*
X123028803Y-124495316D01*
X123005142Y-124498826D01*
X122981250Y-124500000D01*
X122493750Y-124500000D01*
X122469858Y-124498826D01*
X122446197Y-124495316D01*
X122422993Y-124489504D01*
X122400471Y-124481446D01*
X122378847Y-124471218D01*
X122358330Y-124458921D01*
X122339117Y-124444671D01*
X122321393Y-124428607D01*
X122305329Y-124410883D01*
X122291079Y-124391670D01*
X122278782Y-124371153D01*
X122268554Y-124349529D01*
X122260496Y-124327007D01*
X122254684Y-124303803D01*
X122251174Y-124280142D01*
X122250000Y-124256250D01*
X122250000Y-123343750D01*
X122251174Y-123319858D01*
X122254684Y-123296197D01*
X122260496Y-123272993D01*
X122268554Y-123250471D01*
X122278782Y-123228847D01*
X122291079Y-123208330D01*
X122305329Y-123189117D01*
X122321393Y-123171393D01*
X122339117Y-123155329D01*
X122358330Y-123141079D01*
X122378847Y-123128782D01*
X122400471Y-123118554D01*
X122422993Y-123110496D01*
X122446197Y-123104684D01*
X122469858Y-123101174D01*
X122493750Y-123100000D01*
X122981250Y-123100000D01*
X123005142Y-123101174D01*
X123005142Y-123101174D01*
G37*
D21*
X122737500Y-123800000D03*
D14*
G36*
X121130142Y-123101174D02*
G01*
X121153803Y-123104684D01*
X121177007Y-123110496D01*
X121199529Y-123118554D01*
X121221153Y-123128782D01*
X121241670Y-123141079D01*
X121260883Y-123155329D01*
X121278607Y-123171393D01*
X121294671Y-123189117D01*
X121308921Y-123208330D01*
X121321218Y-123228847D01*
X121331446Y-123250471D01*
X121339504Y-123272993D01*
X121345316Y-123296197D01*
X121348826Y-123319858D01*
X121350000Y-123343750D01*
X121350000Y-124256250D01*
X121348826Y-124280142D01*
X121345316Y-124303803D01*
X121339504Y-124327007D01*
X121331446Y-124349529D01*
X121321218Y-124371153D01*
X121308921Y-124391670D01*
X121294671Y-124410883D01*
X121278607Y-124428607D01*
X121260883Y-124444671D01*
X121241670Y-124458921D01*
X121221153Y-124471218D01*
X121199529Y-124481446D01*
X121177007Y-124489504D01*
X121153803Y-124495316D01*
X121130142Y-124498826D01*
X121106250Y-124500000D01*
X120618750Y-124500000D01*
X120594858Y-124498826D01*
X120571197Y-124495316D01*
X120547993Y-124489504D01*
X120525471Y-124481446D01*
X120503847Y-124471218D01*
X120483330Y-124458921D01*
X120464117Y-124444671D01*
X120446393Y-124428607D01*
X120430329Y-124410883D01*
X120416079Y-124391670D01*
X120403782Y-124371153D01*
X120393554Y-124349529D01*
X120385496Y-124327007D01*
X120379684Y-124303803D01*
X120376174Y-124280142D01*
X120375000Y-124256250D01*
X120375000Y-123343750D01*
X120376174Y-123319858D01*
X120379684Y-123296197D01*
X120385496Y-123272993D01*
X120393554Y-123250471D01*
X120403782Y-123228847D01*
X120416079Y-123208330D01*
X120430329Y-123189117D01*
X120446393Y-123171393D01*
X120464117Y-123155329D01*
X120483330Y-123141079D01*
X120503847Y-123128782D01*
X120525471Y-123118554D01*
X120547993Y-123110496D01*
X120571197Y-123104684D01*
X120594858Y-123101174D01*
X120618750Y-123100000D01*
X121106250Y-123100000D01*
X121130142Y-123101174D01*
X121130142Y-123101174D01*
G37*
D21*
X120862500Y-123800000D03*
D14*
G36*
X108405142Y-116801174D02*
G01*
X108428803Y-116804684D01*
X108452007Y-116810496D01*
X108474529Y-116818554D01*
X108496153Y-116828782D01*
X108516670Y-116841079D01*
X108535883Y-116855329D01*
X108553607Y-116871393D01*
X108569671Y-116889117D01*
X108583921Y-116908330D01*
X108596218Y-116928847D01*
X108606446Y-116950471D01*
X108614504Y-116972993D01*
X108620316Y-116996197D01*
X108623826Y-117019858D01*
X108625000Y-117043750D01*
X108625000Y-117956250D01*
X108623826Y-117980142D01*
X108620316Y-118003803D01*
X108614504Y-118027007D01*
X108606446Y-118049529D01*
X108596218Y-118071153D01*
X108583921Y-118091670D01*
X108569671Y-118110883D01*
X108553607Y-118128607D01*
X108535883Y-118144671D01*
X108516670Y-118158921D01*
X108496153Y-118171218D01*
X108474529Y-118181446D01*
X108452007Y-118189504D01*
X108428803Y-118195316D01*
X108405142Y-118198826D01*
X108381250Y-118200000D01*
X107893750Y-118200000D01*
X107869858Y-118198826D01*
X107846197Y-118195316D01*
X107822993Y-118189504D01*
X107800471Y-118181446D01*
X107778847Y-118171218D01*
X107758330Y-118158921D01*
X107739117Y-118144671D01*
X107721393Y-118128607D01*
X107705329Y-118110883D01*
X107691079Y-118091670D01*
X107678782Y-118071153D01*
X107668554Y-118049529D01*
X107660496Y-118027007D01*
X107654684Y-118003803D01*
X107651174Y-117980142D01*
X107650000Y-117956250D01*
X107650000Y-117043750D01*
X107651174Y-117019858D01*
X107654684Y-116996197D01*
X107660496Y-116972993D01*
X107668554Y-116950471D01*
X107678782Y-116928847D01*
X107691079Y-116908330D01*
X107705329Y-116889117D01*
X107721393Y-116871393D01*
X107739117Y-116855329D01*
X107758330Y-116841079D01*
X107778847Y-116828782D01*
X107800471Y-116818554D01*
X107822993Y-116810496D01*
X107846197Y-116804684D01*
X107869858Y-116801174D01*
X107893750Y-116800000D01*
X108381250Y-116800000D01*
X108405142Y-116801174D01*
X108405142Y-116801174D01*
G37*
D21*
X108137500Y-117500000D03*
D14*
G36*
X106530142Y-116801174D02*
G01*
X106553803Y-116804684D01*
X106577007Y-116810496D01*
X106599529Y-116818554D01*
X106621153Y-116828782D01*
X106641670Y-116841079D01*
X106660883Y-116855329D01*
X106678607Y-116871393D01*
X106694671Y-116889117D01*
X106708921Y-116908330D01*
X106721218Y-116928847D01*
X106731446Y-116950471D01*
X106739504Y-116972993D01*
X106745316Y-116996197D01*
X106748826Y-117019858D01*
X106750000Y-117043750D01*
X106750000Y-117956250D01*
X106748826Y-117980142D01*
X106745316Y-118003803D01*
X106739504Y-118027007D01*
X106731446Y-118049529D01*
X106721218Y-118071153D01*
X106708921Y-118091670D01*
X106694671Y-118110883D01*
X106678607Y-118128607D01*
X106660883Y-118144671D01*
X106641670Y-118158921D01*
X106621153Y-118171218D01*
X106599529Y-118181446D01*
X106577007Y-118189504D01*
X106553803Y-118195316D01*
X106530142Y-118198826D01*
X106506250Y-118200000D01*
X106018750Y-118200000D01*
X105994858Y-118198826D01*
X105971197Y-118195316D01*
X105947993Y-118189504D01*
X105925471Y-118181446D01*
X105903847Y-118171218D01*
X105883330Y-118158921D01*
X105864117Y-118144671D01*
X105846393Y-118128607D01*
X105830329Y-118110883D01*
X105816079Y-118091670D01*
X105803782Y-118071153D01*
X105793554Y-118049529D01*
X105785496Y-118027007D01*
X105779684Y-118003803D01*
X105776174Y-117980142D01*
X105775000Y-117956250D01*
X105775000Y-117043750D01*
X105776174Y-117019858D01*
X105779684Y-116996197D01*
X105785496Y-116972993D01*
X105793554Y-116950471D01*
X105803782Y-116928847D01*
X105816079Y-116908330D01*
X105830329Y-116889117D01*
X105846393Y-116871393D01*
X105864117Y-116855329D01*
X105883330Y-116841079D01*
X105903847Y-116828782D01*
X105925471Y-116818554D01*
X105947993Y-116810496D01*
X105971197Y-116804684D01*
X105994858Y-116801174D01*
X106018750Y-116800000D01*
X106506250Y-116800000D01*
X106530142Y-116801174D01*
X106530142Y-116801174D01*
G37*
D21*
X106262500Y-117500000D03*
D14*
G36*
X107430142Y-105921174D02*
G01*
X107453803Y-105924684D01*
X107477007Y-105930496D01*
X107499529Y-105938554D01*
X107521153Y-105948782D01*
X107541670Y-105961079D01*
X107560883Y-105975329D01*
X107578607Y-105991393D01*
X107594671Y-106009117D01*
X107608921Y-106028330D01*
X107621218Y-106048847D01*
X107631446Y-106070471D01*
X107639504Y-106092993D01*
X107645316Y-106116197D01*
X107648826Y-106139858D01*
X107650000Y-106163750D01*
X107650000Y-107076250D01*
X107648826Y-107100142D01*
X107645316Y-107123803D01*
X107639504Y-107147007D01*
X107631446Y-107169529D01*
X107621218Y-107191153D01*
X107608921Y-107211670D01*
X107594671Y-107230883D01*
X107578607Y-107248607D01*
X107560883Y-107264671D01*
X107541670Y-107278921D01*
X107521153Y-107291218D01*
X107499529Y-107301446D01*
X107477007Y-107309504D01*
X107453803Y-107315316D01*
X107430142Y-107318826D01*
X107406250Y-107320000D01*
X106918750Y-107320000D01*
X106894858Y-107318826D01*
X106871197Y-107315316D01*
X106847993Y-107309504D01*
X106825471Y-107301446D01*
X106803847Y-107291218D01*
X106783330Y-107278921D01*
X106764117Y-107264671D01*
X106746393Y-107248607D01*
X106730329Y-107230883D01*
X106716079Y-107211670D01*
X106703782Y-107191153D01*
X106693554Y-107169529D01*
X106685496Y-107147007D01*
X106679684Y-107123803D01*
X106676174Y-107100142D01*
X106675000Y-107076250D01*
X106675000Y-106163750D01*
X106676174Y-106139858D01*
X106679684Y-106116197D01*
X106685496Y-106092993D01*
X106693554Y-106070471D01*
X106703782Y-106048847D01*
X106716079Y-106028330D01*
X106730329Y-106009117D01*
X106746393Y-105991393D01*
X106764117Y-105975329D01*
X106783330Y-105961079D01*
X106803847Y-105948782D01*
X106825471Y-105938554D01*
X106847993Y-105930496D01*
X106871197Y-105924684D01*
X106894858Y-105921174D01*
X106918750Y-105920000D01*
X107406250Y-105920000D01*
X107430142Y-105921174D01*
X107430142Y-105921174D01*
G37*
D21*
X107162500Y-106620000D03*
D14*
G36*
X109305142Y-105921174D02*
G01*
X109328803Y-105924684D01*
X109352007Y-105930496D01*
X109374529Y-105938554D01*
X109396153Y-105948782D01*
X109416670Y-105961079D01*
X109435883Y-105975329D01*
X109453607Y-105991393D01*
X109469671Y-106009117D01*
X109483921Y-106028330D01*
X109496218Y-106048847D01*
X109506446Y-106070471D01*
X109514504Y-106092993D01*
X109520316Y-106116197D01*
X109523826Y-106139858D01*
X109525000Y-106163750D01*
X109525000Y-107076250D01*
X109523826Y-107100142D01*
X109520316Y-107123803D01*
X109514504Y-107147007D01*
X109506446Y-107169529D01*
X109496218Y-107191153D01*
X109483921Y-107211670D01*
X109469671Y-107230883D01*
X109453607Y-107248607D01*
X109435883Y-107264671D01*
X109416670Y-107278921D01*
X109396153Y-107291218D01*
X109374529Y-107301446D01*
X109352007Y-107309504D01*
X109328803Y-107315316D01*
X109305142Y-107318826D01*
X109281250Y-107320000D01*
X108793750Y-107320000D01*
X108769858Y-107318826D01*
X108746197Y-107315316D01*
X108722993Y-107309504D01*
X108700471Y-107301446D01*
X108678847Y-107291218D01*
X108658330Y-107278921D01*
X108639117Y-107264671D01*
X108621393Y-107248607D01*
X108605329Y-107230883D01*
X108591079Y-107211670D01*
X108578782Y-107191153D01*
X108568554Y-107169529D01*
X108560496Y-107147007D01*
X108554684Y-107123803D01*
X108551174Y-107100142D01*
X108550000Y-107076250D01*
X108550000Y-106163750D01*
X108551174Y-106139858D01*
X108554684Y-106116197D01*
X108560496Y-106092993D01*
X108568554Y-106070471D01*
X108578782Y-106048847D01*
X108591079Y-106028330D01*
X108605329Y-106009117D01*
X108621393Y-105991393D01*
X108639117Y-105975329D01*
X108658330Y-105961079D01*
X108678847Y-105948782D01*
X108700471Y-105938554D01*
X108722993Y-105930496D01*
X108746197Y-105924684D01*
X108769858Y-105921174D01*
X108793750Y-105920000D01*
X109281250Y-105920000D01*
X109305142Y-105921174D01*
X109305142Y-105921174D01*
G37*
D21*
X109037500Y-106620000D03*
D14*
G36*
X104027691Y-124201053D02*
G01*
X104048926Y-124204203D01*
X104069750Y-124209419D01*
X104089962Y-124216651D01*
X104109368Y-124225830D01*
X104127781Y-124236866D01*
X104145024Y-124249654D01*
X104160930Y-124264070D01*
X104175346Y-124279976D01*
X104188134Y-124297219D01*
X104199170Y-124315632D01*
X104208349Y-124335038D01*
X104215581Y-124355250D01*
X104220797Y-124376074D01*
X104223947Y-124397309D01*
X104225000Y-124418750D01*
X104225000Y-124856250D01*
X104223947Y-124877691D01*
X104220797Y-124898926D01*
X104215581Y-124919750D01*
X104208349Y-124939962D01*
X104199170Y-124959368D01*
X104188134Y-124977781D01*
X104175346Y-124995024D01*
X104160930Y-125010930D01*
X104145024Y-125025346D01*
X104127781Y-125038134D01*
X104109368Y-125049170D01*
X104089962Y-125058349D01*
X104069750Y-125065581D01*
X104048926Y-125070797D01*
X104027691Y-125073947D01*
X104006250Y-125075000D01*
X103493750Y-125075000D01*
X103472309Y-125073947D01*
X103451074Y-125070797D01*
X103430250Y-125065581D01*
X103410038Y-125058349D01*
X103390632Y-125049170D01*
X103372219Y-125038134D01*
X103354976Y-125025346D01*
X103339070Y-125010930D01*
X103324654Y-124995024D01*
X103311866Y-124977781D01*
X103300830Y-124959368D01*
X103291651Y-124939962D01*
X103284419Y-124919750D01*
X103279203Y-124898926D01*
X103276053Y-124877691D01*
X103275000Y-124856250D01*
X103275000Y-124418750D01*
X103276053Y-124397309D01*
X103279203Y-124376074D01*
X103284419Y-124355250D01*
X103291651Y-124335038D01*
X103300830Y-124315632D01*
X103311866Y-124297219D01*
X103324654Y-124279976D01*
X103339070Y-124264070D01*
X103354976Y-124249654D01*
X103372219Y-124236866D01*
X103390632Y-124225830D01*
X103410038Y-124216651D01*
X103430250Y-124209419D01*
X103451074Y-124204203D01*
X103472309Y-124201053D01*
X103493750Y-124200000D01*
X104006250Y-124200000D01*
X104027691Y-124201053D01*
X104027691Y-124201053D01*
G37*
D22*
X103750000Y-124637500D03*
D14*
G36*
X104027691Y-122626053D02*
G01*
X104048926Y-122629203D01*
X104069750Y-122634419D01*
X104089962Y-122641651D01*
X104109368Y-122650830D01*
X104127781Y-122661866D01*
X104145024Y-122674654D01*
X104160930Y-122689070D01*
X104175346Y-122704976D01*
X104188134Y-122722219D01*
X104199170Y-122740632D01*
X104208349Y-122760038D01*
X104215581Y-122780250D01*
X104220797Y-122801074D01*
X104223947Y-122822309D01*
X104225000Y-122843750D01*
X104225000Y-123281250D01*
X104223947Y-123302691D01*
X104220797Y-123323926D01*
X104215581Y-123344750D01*
X104208349Y-123364962D01*
X104199170Y-123384368D01*
X104188134Y-123402781D01*
X104175346Y-123420024D01*
X104160930Y-123435930D01*
X104145024Y-123450346D01*
X104127781Y-123463134D01*
X104109368Y-123474170D01*
X104089962Y-123483349D01*
X104069750Y-123490581D01*
X104048926Y-123495797D01*
X104027691Y-123498947D01*
X104006250Y-123500000D01*
X103493750Y-123500000D01*
X103472309Y-123498947D01*
X103451074Y-123495797D01*
X103430250Y-123490581D01*
X103410038Y-123483349D01*
X103390632Y-123474170D01*
X103372219Y-123463134D01*
X103354976Y-123450346D01*
X103339070Y-123435930D01*
X103324654Y-123420024D01*
X103311866Y-123402781D01*
X103300830Y-123384368D01*
X103291651Y-123364962D01*
X103284419Y-123344750D01*
X103279203Y-123323926D01*
X103276053Y-123302691D01*
X103275000Y-123281250D01*
X103275000Y-122843750D01*
X103276053Y-122822309D01*
X103279203Y-122801074D01*
X103284419Y-122780250D01*
X103291651Y-122760038D01*
X103300830Y-122740632D01*
X103311866Y-122722219D01*
X103324654Y-122704976D01*
X103339070Y-122689070D01*
X103354976Y-122674654D01*
X103372219Y-122661866D01*
X103390632Y-122650830D01*
X103410038Y-122641651D01*
X103430250Y-122634419D01*
X103451074Y-122629203D01*
X103472309Y-122626053D01*
X103493750Y-122625000D01*
X104006250Y-122625000D01*
X104027691Y-122626053D01*
X104027691Y-122626053D01*
G37*
D22*
X103750000Y-123062500D03*
D14*
G36*
X118236958Y-124790710D02*
G01*
X118251276Y-124792834D01*
X118265317Y-124796351D01*
X118278946Y-124801228D01*
X118292031Y-124807417D01*
X118304447Y-124814858D01*
X118316073Y-124823481D01*
X118326798Y-124833202D01*
X118336519Y-124843927D01*
X118345142Y-124855553D01*
X118352583Y-124867969D01*
X118358772Y-124881054D01*
X118363649Y-124894683D01*
X118367166Y-124908724D01*
X118369290Y-124923042D01*
X118370000Y-124937500D01*
X118370000Y-125232500D01*
X118369290Y-125246958D01*
X118367166Y-125261276D01*
X118363649Y-125275317D01*
X118358772Y-125288946D01*
X118352583Y-125302031D01*
X118345142Y-125314447D01*
X118336519Y-125326073D01*
X118326798Y-125336798D01*
X118316073Y-125346519D01*
X118304447Y-125355142D01*
X118292031Y-125362583D01*
X118278946Y-125368772D01*
X118265317Y-125373649D01*
X118251276Y-125377166D01*
X118236958Y-125379290D01*
X118222500Y-125380000D01*
X117877500Y-125380000D01*
X117863042Y-125379290D01*
X117848724Y-125377166D01*
X117834683Y-125373649D01*
X117821054Y-125368772D01*
X117807969Y-125362583D01*
X117795553Y-125355142D01*
X117783927Y-125346519D01*
X117773202Y-125336798D01*
X117763481Y-125326073D01*
X117754858Y-125314447D01*
X117747417Y-125302031D01*
X117741228Y-125288946D01*
X117736351Y-125275317D01*
X117732834Y-125261276D01*
X117730710Y-125246958D01*
X117730000Y-125232500D01*
X117730000Y-124937500D01*
X117730710Y-124923042D01*
X117732834Y-124908724D01*
X117736351Y-124894683D01*
X117741228Y-124881054D01*
X117747417Y-124867969D01*
X117754858Y-124855553D01*
X117763481Y-124843927D01*
X117773202Y-124833202D01*
X117783927Y-124823481D01*
X117795553Y-124814858D01*
X117807969Y-124807417D01*
X117821054Y-124801228D01*
X117834683Y-124796351D01*
X117848724Y-124792834D01*
X117863042Y-124790710D01*
X117877500Y-124790000D01*
X118222500Y-124790000D01*
X118236958Y-124790710D01*
X118236958Y-124790710D01*
G37*
D15*
X118050000Y-125085000D03*
D14*
G36*
X118236958Y-123820710D02*
G01*
X118251276Y-123822834D01*
X118265317Y-123826351D01*
X118278946Y-123831228D01*
X118292031Y-123837417D01*
X118304447Y-123844858D01*
X118316073Y-123853481D01*
X118326798Y-123863202D01*
X118336519Y-123873927D01*
X118345142Y-123885553D01*
X118352583Y-123897969D01*
X118358772Y-123911054D01*
X118363649Y-123924683D01*
X118367166Y-123938724D01*
X118369290Y-123953042D01*
X118370000Y-123967500D01*
X118370000Y-124262500D01*
X118369290Y-124276958D01*
X118367166Y-124291276D01*
X118363649Y-124305317D01*
X118358772Y-124318946D01*
X118352583Y-124332031D01*
X118345142Y-124344447D01*
X118336519Y-124356073D01*
X118326798Y-124366798D01*
X118316073Y-124376519D01*
X118304447Y-124385142D01*
X118292031Y-124392583D01*
X118278946Y-124398772D01*
X118265317Y-124403649D01*
X118251276Y-124407166D01*
X118236958Y-124409290D01*
X118222500Y-124410000D01*
X117877500Y-124410000D01*
X117863042Y-124409290D01*
X117848724Y-124407166D01*
X117834683Y-124403649D01*
X117821054Y-124398772D01*
X117807969Y-124392583D01*
X117795553Y-124385142D01*
X117783927Y-124376519D01*
X117773202Y-124366798D01*
X117763481Y-124356073D01*
X117754858Y-124344447D01*
X117747417Y-124332031D01*
X117741228Y-124318946D01*
X117736351Y-124305317D01*
X117732834Y-124291276D01*
X117730710Y-124276958D01*
X117730000Y-124262500D01*
X117730000Y-123967500D01*
X117730710Y-123953042D01*
X117732834Y-123938724D01*
X117736351Y-123924683D01*
X117741228Y-123911054D01*
X117747417Y-123897969D01*
X117754858Y-123885553D01*
X117763481Y-123873927D01*
X117773202Y-123863202D01*
X117783927Y-123853481D01*
X117795553Y-123844858D01*
X117807969Y-123837417D01*
X117821054Y-123831228D01*
X117834683Y-123826351D01*
X117848724Y-123822834D01*
X117863042Y-123820710D01*
X117877500Y-123820000D01*
X118222500Y-123820000D01*
X118236958Y-123820710D01*
X118236958Y-123820710D01*
G37*
D15*
X118050000Y-124115000D03*
D14*
G36*
X117386958Y-124790710D02*
G01*
X117401276Y-124792834D01*
X117415317Y-124796351D01*
X117428946Y-124801228D01*
X117442031Y-124807417D01*
X117454447Y-124814858D01*
X117466073Y-124823481D01*
X117476798Y-124833202D01*
X117486519Y-124843927D01*
X117495142Y-124855553D01*
X117502583Y-124867969D01*
X117508772Y-124881054D01*
X117513649Y-124894683D01*
X117517166Y-124908724D01*
X117519290Y-124923042D01*
X117520000Y-124937500D01*
X117520000Y-125232500D01*
X117519290Y-125246958D01*
X117517166Y-125261276D01*
X117513649Y-125275317D01*
X117508772Y-125288946D01*
X117502583Y-125302031D01*
X117495142Y-125314447D01*
X117486519Y-125326073D01*
X117476798Y-125336798D01*
X117466073Y-125346519D01*
X117454447Y-125355142D01*
X117442031Y-125362583D01*
X117428946Y-125368772D01*
X117415317Y-125373649D01*
X117401276Y-125377166D01*
X117386958Y-125379290D01*
X117372500Y-125380000D01*
X117027500Y-125380000D01*
X117013042Y-125379290D01*
X116998724Y-125377166D01*
X116984683Y-125373649D01*
X116971054Y-125368772D01*
X116957969Y-125362583D01*
X116945553Y-125355142D01*
X116933927Y-125346519D01*
X116923202Y-125336798D01*
X116913481Y-125326073D01*
X116904858Y-125314447D01*
X116897417Y-125302031D01*
X116891228Y-125288946D01*
X116886351Y-125275317D01*
X116882834Y-125261276D01*
X116880710Y-125246958D01*
X116880000Y-125232500D01*
X116880000Y-124937500D01*
X116880710Y-124923042D01*
X116882834Y-124908724D01*
X116886351Y-124894683D01*
X116891228Y-124881054D01*
X116897417Y-124867969D01*
X116904858Y-124855553D01*
X116913481Y-124843927D01*
X116923202Y-124833202D01*
X116933927Y-124823481D01*
X116945553Y-124814858D01*
X116957969Y-124807417D01*
X116971054Y-124801228D01*
X116984683Y-124796351D01*
X116998724Y-124792834D01*
X117013042Y-124790710D01*
X117027500Y-124790000D01*
X117372500Y-124790000D01*
X117386958Y-124790710D01*
X117386958Y-124790710D01*
G37*
D15*
X117200000Y-125085000D03*
D14*
G36*
X117386958Y-123820710D02*
G01*
X117401276Y-123822834D01*
X117415317Y-123826351D01*
X117428946Y-123831228D01*
X117442031Y-123837417D01*
X117454447Y-123844858D01*
X117466073Y-123853481D01*
X117476798Y-123863202D01*
X117486519Y-123873927D01*
X117495142Y-123885553D01*
X117502583Y-123897969D01*
X117508772Y-123911054D01*
X117513649Y-123924683D01*
X117517166Y-123938724D01*
X117519290Y-123953042D01*
X117520000Y-123967500D01*
X117520000Y-124262500D01*
X117519290Y-124276958D01*
X117517166Y-124291276D01*
X117513649Y-124305317D01*
X117508772Y-124318946D01*
X117502583Y-124332031D01*
X117495142Y-124344447D01*
X117486519Y-124356073D01*
X117476798Y-124366798D01*
X117466073Y-124376519D01*
X117454447Y-124385142D01*
X117442031Y-124392583D01*
X117428946Y-124398772D01*
X117415317Y-124403649D01*
X117401276Y-124407166D01*
X117386958Y-124409290D01*
X117372500Y-124410000D01*
X117027500Y-124410000D01*
X117013042Y-124409290D01*
X116998724Y-124407166D01*
X116984683Y-124403649D01*
X116971054Y-124398772D01*
X116957969Y-124392583D01*
X116945553Y-124385142D01*
X116933927Y-124376519D01*
X116923202Y-124366798D01*
X116913481Y-124356073D01*
X116904858Y-124344447D01*
X116897417Y-124332031D01*
X116891228Y-124318946D01*
X116886351Y-124305317D01*
X116882834Y-124291276D01*
X116880710Y-124276958D01*
X116880000Y-124262500D01*
X116880000Y-123967500D01*
X116880710Y-123953042D01*
X116882834Y-123938724D01*
X116886351Y-123924683D01*
X116891228Y-123911054D01*
X116897417Y-123897969D01*
X116904858Y-123885553D01*
X116913481Y-123873927D01*
X116923202Y-123863202D01*
X116933927Y-123853481D01*
X116945553Y-123844858D01*
X116957969Y-123837417D01*
X116971054Y-123831228D01*
X116984683Y-123826351D01*
X116998724Y-123822834D01*
X117013042Y-123820710D01*
X117027500Y-123820000D01*
X117372500Y-123820000D01*
X117386958Y-123820710D01*
X117386958Y-123820710D01*
G37*
D15*
X117200000Y-124115000D03*
D14*
G36*
X113406958Y-109090710D02*
G01*
X113421276Y-109092834D01*
X113435317Y-109096351D01*
X113448946Y-109101228D01*
X113462031Y-109107417D01*
X113474447Y-109114858D01*
X113486073Y-109123481D01*
X113496798Y-109133202D01*
X113506519Y-109143927D01*
X113515142Y-109155553D01*
X113522583Y-109167969D01*
X113528772Y-109181054D01*
X113533649Y-109194683D01*
X113537166Y-109208724D01*
X113539290Y-109223042D01*
X113540000Y-109237500D01*
X113540000Y-109532500D01*
X113539290Y-109546958D01*
X113537166Y-109561276D01*
X113533649Y-109575317D01*
X113528772Y-109588946D01*
X113522583Y-109602031D01*
X113515142Y-109614447D01*
X113506519Y-109626073D01*
X113496798Y-109636798D01*
X113486073Y-109646519D01*
X113474447Y-109655142D01*
X113462031Y-109662583D01*
X113448946Y-109668772D01*
X113435317Y-109673649D01*
X113421276Y-109677166D01*
X113406958Y-109679290D01*
X113392500Y-109680000D01*
X113047500Y-109680000D01*
X113033042Y-109679290D01*
X113018724Y-109677166D01*
X113004683Y-109673649D01*
X112991054Y-109668772D01*
X112977969Y-109662583D01*
X112965553Y-109655142D01*
X112953927Y-109646519D01*
X112943202Y-109636798D01*
X112933481Y-109626073D01*
X112924858Y-109614447D01*
X112917417Y-109602031D01*
X112911228Y-109588946D01*
X112906351Y-109575317D01*
X112902834Y-109561276D01*
X112900710Y-109546958D01*
X112900000Y-109532500D01*
X112900000Y-109237500D01*
X112900710Y-109223042D01*
X112902834Y-109208724D01*
X112906351Y-109194683D01*
X112911228Y-109181054D01*
X112917417Y-109167969D01*
X112924858Y-109155553D01*
X112933481Y-109143927D01*
X112943202Y-109133202D01*
X112953927Y-109123481D01*
X112965553Y-109114858D01*
X112977969Y-109107417D01*
X112991054Y-109101228D01*
X113004683Y-109096351D01*
X113018724Y-109092834D01*
X113033042Y-109090710D01*
X113047500Y-109090000D01*
X113392500Y-109090000D01*
X113406958Y-109090710D01*
X113406958Y-109090710D01*
G37*
D15*
X113220000Y-109385000D03*
D14*
G36*
X113406958Y-108120710D02*
G01*
X113421276Y-108122834D01*
X113435317Y-108126351D01*
X113448946Y-108131228D01*
X113462031Y-108137417D01*
X113474447Y-108144858D01*
X113486073Y-108153481D01*
X113496798Y-108163202D01*
X113506519Y-108173927D01*
X113515142Y-108185553D01*
X113522583Y-108197969D01*
X113528772Y-108211054D01*
X113533649Y-108224683D01*
X113537166Y-108238724D01*
X113539290Y-108253042D01*
X113540000Y-108267500D01*
X113540000Y-108562500D01*
X113539290Y-108576958D01*
X113537166Y-108591276D01*
X113533649Y-108605317D01*
X113528772Y-108618946D01*
X113522583Y-108632031D01*
X113515142Y-108644447D01*
X113506519Y-108656073D01*
X113496798Y-108666798D01*
X113486073Y-108676519D01*
X113474447Y-108685142D01*
X113462031Y-108692583D01*
X113448946Y-108698772D01*
X113435317Y-108703649D01*
X113421276Y-108707166D01*
X113406958Y-108709290D01*
X113392500Y-108710000D01*
X113047500Y-108710000D01*
X113033042Y-108709290D01*
X113018724Y-108707166D01*
X113004683Y-108703649D01*
X112991054Y-108698772D01*
X112977969Y-108692583D01*
X112965553Y-108685142D01*
X112953927Y-108676519D01*
X112943202Y-108666798D01*
X112933481Y-108656073D01*
X112924858Y-108644447D01*
X112917417Y-108632031D01*
X112911228Y-108618946D01*
X112906351Y-108605317D01*
X112902834Y-108591276D01*
X112900710Y-108576958D01*
X112900000Y-108562500D01*
X112900000Y-108267500D01*
X112900710Y-108253042D01*
X112902834Y-108238724D01*
X112906351Y-108224683D01*
X112911228Y-108211054D01*
X112917417Y-108197969D01*
X112924858Y-108185553D01*
X112933481Y-108173927D01*
X112943202Y-108163202D01*
X112953927Y-108153481D01*
X112965553Y-108144858D01*
X112977969Y-108137417D01*
X112991054Y-108131228D01*
X113004683Y-108126351D01*
X113018724Y-108122834D01*
X113033042Y-108120710D01*
X113047500Y-108120000D01*
X113392500Y-108120000D01*
X113406958Y-108120710D01*
X113406958Y-108120710D01*
G37*
D15*
X113220000Y-108415000D03*
D14*
G36*
X112566958Y-109090710D02*
G01*
X112581276Y-109092834D01*
X112595317Y-109096351D01*
X112608946Y-109101228D01*
X112622031Y-109107417D01*
X112634447Y-109114858D01*
X112646073Y-109123481D01*
X112656798Y-109133202D01*
X112666519Y-109143927D01*
X112675142Y-109155553D01*
X112682583Y-109167969D01*
X112688772Y-109181054D01*
X112693649Y-109194683D01*
X112697166Y-109208724D01*
X112699290Y-109223042D01*
X112700000Y-109237500D01*
X112700000Y-109532500D01*
X112699290Y-109546958D01*
X112697166Y-109561276D01*
X112693649Y-109575317D01*
X112688772Y-109588946D01*
X112682583Y-109602031D01*
X112675142Y-109614447D01*
X112666519Y-109626073D01*
X112656798Y-109636798D01*
X112646073Y-109646519D01*
X112634447Y-109655142D01*
X112622031Y-109662583D01*
X112608946Y-109668772D01*
X112595317Y-109673649D01*
X112581276Y-109677166D01*
X112566958Y-109679290D01*
X112552500Y-109680000D01*
X112207500Y-109680000D01*
X112193042Y-109679290D01*
X112178724Y-109677166D01*
X112164683Y-109673649D01*
X112151054Y-109668772D01*
X112137969Y-109662583D01*
X112125553Y-109655142D01*
X112113927Y-109646519D01*
X112103202Y-109636798D01*
X112093481Y-109626073D01*
X112084858Y-109614447D01*
X112077417Y-109602031D01*
X112071228Y-109588946D01*
X112066351Y-109575317D01*
X112062834Y-109561276D01*
X112060710Y-109546958D01*
X112060000Y-109532500D01*
X112060000Y-109237500D01*
X112060710Y-109223042D01*
X112062834Y-109208724D01*
X112066351Y-109194683D01*
X112071228Y-109181054D01*
X112077417Y-109167969D01*
X112084858Y-109155553D01*
X112093481Y-109143927D01*
X112103202Y-109133202D01*
X112113927Y-109123481D01*
X112125553Y-109114858D01*
X112137969Y-109107417D01*
X112151054Y-109101228D01*
X112164683Y-109096351D01*
X112178724Y-109092834D01*
X112193042Y-109090710D01*
X112207500Y-109090000D01*
X112552500Y-109090000D01*
X112566958Y-109090710D01*
X112566958Y-109090710D01*
G37*
D15*
X112380000Y-109385000D03*
D14*
G36*
X112566958Y-108120710D02*
G01*
X112581276Y-108122834D01*
X112595317Y-108126351D01*
X112608946Y-108131228D01*
X112622031Y-108137417D01*
X112634447Y-108144858D01*
X112646073Y-108153481D01*
X112656798Y-108163202D01*
X112666519Y-108173927D01*
X112675142Y-108185553D01*
X112682583Y-108197969D01*
X112688772Y-108211054D01*
X112693649Y-108224683D01*
X112697166Y-108238724D01*
X112699290Y-108253042D01*
X112700000Y-108267500D01*
X112700000Y-108562500D01*
X112699290Y-108576958D01*
X112697166Y-108591276D01*
X112693649Y-108605317D01*
X112688772Y-108618946D01*
X112682583Y-108632031D01*
X112675142Y-108644447D01*
X112666519Y-108656073D01*
X112656798Y-108666798D01*
X112646073Y-108676519D01*
X112634447Y-108685142D01*
X112622031Y-108692583D01*
X112608946Y-108698772D01*
X112595317Y-108703649D01*
X112581276Y-108707166D01*
X112566958Y-108709290D01*
X112552500Y-108710000D01*
X112207500Y-108710000D01*
X112193042Y-108709290D01*
X112178724Y-108707166D01*
X112164683Y-108703649D01*
X112151054Y-108698772D01*
X112137969Y-108692583D01*
X112125553Y-108685142D01*
X112113927Y-108676519D01*
X112103202Y-108666798D01*
X112093481Y-108656073D01*
X112084858Y-108644447D01*
X112077417Y-108632031D01*
X112071228Y-108618946D01*
X112066351Y-108605317D01*
X112062834Y-108591276D01*
X112060710Y-108576958D01*
X112060000Y-108562500D01*
X112060000Y-108267500D01*
X112060710Y-108253042D01*
X112062834Y-108238724D01*
X112066351Y-108224683D01*
X112071228Y-108211054D01*
X112077417Y-108197969D01*
X112084858Y-108185553D01*
X112093481Y-108173927D01*
X112103202Y-108163202D01*
X112113927Y-108153481D01*
X112125553Y-108144858D01*
X112137969Y-108137417D01*
X112151054Y-108131228D01*
X112164683Y-108126351D01*
X112178724Y-108122834D01*
X112193042Y-108120710D01*
X112207500Y-108120000D01*
X112552500Y-108120000D01*
X112566958Y-108120710D01*
X112566958Y-108120710D01*
G37*
D15*
X112380000Y-108415000D03*
D14*
G36*
X111077691Y-121651053D02*
G01*
X111098926Y-121654203D01*
X111119750Y-121659419D01*
X111139962Y-121666651D01*
X111159368Y-121675830D01*
X111177781Y-121686866D01*
X111195024Y-121699654D01*
X111210930Y-121714070D01*
X111225346Y-121729976D01*
X111238134Y-121747219D01*
X111249170Y-121765632D01*
X111258349Y-121785038D01*
X111265581Y-121805250D01*
X111270797Y-121826074D01*
X111273947Y-121847309D01*
X111275000Y-121868750D01*
X111275000Y-122306250D01*
X111273947Y-122327691D01*
X111270797Y-122348926D01*
X111265581Y-122369750D01*
X111258349Y-122389962D01*
X111249170Y-122409368D01*
X111238134Y-122427781D01*
X111225346Y-122445024D01*
X111210930Y-122460930D01*
X111195024Y-122475346D01*
X111177781Y-122488134D01*
X111159368Y-122499170D01*
X111139962Y-122508349D01*
X111119750Y-122515581D01*
X111098926Y-122520797D01*
X111077691Y-122523947D01*
X111056250Y-122525000D01*
X110543750Y-122525000D01*
X110522309Y-122523947D01*
X110501074Y-122520797D01*
X110480250Y-122515581D01*
X110460038Y-122508349D01*
X110440632Y-122499170D01*
X110422219Y-122488134D01*
X110404976Y-122475346D01*
X110389070Y-122460930D01*
X110374654Y-122445024D01*
X110361866Y-122427781D01*
X110350830Y-122409368D01*
X110341651Y-122389962D01*
X110334419Y-122369750D01*
X110329203Y-122348926D01*
X110326053Y-122327691D01*
X110325000Y-122306250D01*
X110325000Y-121868750D01*
X110326053Y-121847309D01*
X110329203Y-121826074D01*
X110334419Y-121805250D01*
X110341651Y-121785038D01*
X110350830Y-121765632D01*
X110361866Y-121747219D01*
X110374654Y-121729976D01*
X110389070Y-121714070D01*
X110404976Y-121699654D01*
X110422219Y-121686866D01*
X110440632Y-121675830D01*
X110460038Y-121666651D01*
X110480250Y-121659419D01*
X110501074Y-121654203D01*
X110522309Y-121651053D01*
X110543750Y-121650000D01*
X111056250Y-121650000D01*
X111077691Y-121651053D01*
X111077691Y-121651053D01*
G37*
D22*
X110800000Y-122087500D03*
D14*
G36*
X111077691Y-120076053D02*
G01*
X111098926Y-120079203D01*
X111119750Y-120084419D01*
X111139962Y-120091651D01*
X111159368Y-120100830D01*
X111177781Y-120111866D01*
X111195024Y-120124654D01*
X111210930Y-120139070D01*
X111225346Y-120154976D01*
X111238134Y-120172219D01*
X111249170Y-120190632D01*
X111258349Y-120210038D01*
X111265581Y-120230250D01*
X111270797Y-120251074D01*
X111273947Y-120272309D01*
X111275000Y-120293750D01*
X111275000Y-120731250D01*
X111273947Y-120752691D01*
X111270797Y-120773926D01*
X111265581Y-120794750D01*
X111258349Y-120814962D01*
X111249170Y-120834368D01*
X111238134Y-120852781D01*
X111225346Y-120870024D01*
X111210930Y-120885930D01*
X111195024Y-120900346D01*
X111177781Y-120913134D01*
X111159368Y-120924170D01*
X111139962Y-120933349D01*
X111119750Y-120940581D01*
X111098926Y-120945797D01*
X111077691Y-120948947D01*
X111056250Y-120950000D01*
X110543750Y-120950000D01*
X110522309Y-120948947D01*
X110501074Y-120945797D01*
X110480250Y-120940581D01*
X110460038Y-120933349D01*
X110440632Y-120924170D01*
X110422219Y-120913134D01*
X110404976Y-120900346D01*
X110389070Y-120885930D01*
X110374654Y-120870024D01*
X110361866Y-120852781D01*
X110350830Y-120834368D01*
X110341651Y-120814962D01*
X110334419Y-120794750D01*
X110329203Y-120773926D01*
X110326053Y-120752691D01*
X110325000Y-120731250D01*
X110325000Y-120293750D01*
X110326053Y-120272309D01*
X110329203Y-120251074D01*
X110334419Y-120230250D01*
X110341651Y-120210038D01*
X110350830Y-120190632D01*
X110361866Y-120172219D01*
X110374654Y-120154976D01*
X110389070Y-120139070D01*
X110404976Y-120124654D01*
X110422219Y-120111866D01*
X110440632Y-120100830D01*
X110460038Y-120091651D01*
X110480250Y-120084419D01*
X110501074Y-120079203D01*
X110522309Y-120076053D01*
X110543750Y-120075000D01*
X111056250Y-120075000D01*
X111077691Y-120076053D01*
X111077691Y-120076053D01*
G37*
D22*
X110800000Y-120512500D03*
M02*
