M48
; DRILL file {KiCad 5.1.4+dfsg1-1} date So 22 Dez 2019 00:43:47 CET
; FORMAT={-:-/ absolute / inch / decimal}
; #@! TF.CreationDate,2019-12-22T00:43:47+01:00
; #@! TF.GenerationSoftware,Kicad,Pcbnew,5.1.4+dfsg1-1
; #@! TF.FileFunction,Plated,1,2,PTH
FMAT,2
INCH
T1C0.0118
T2C0.0236
T3C0.0315
T4C0.0394
%
G90
G05
T1
X4.0Y-4.6063
X4.0Y-4.6378
X4.0Y-4.6732
X4.0315Y-4.4409
X4.0394Y-4.4724
X4.063Y-4.7953
X4.0669Y-4.4724
X4.0866Y-4.7362
X4.0906Y-5.1811
X4.0984Y-4.7835
X4.126Y-5.2165
X4.1299Y-4.8937
X4.1299Y-4.9213
X4.1417Y-4.2126
X4.1457Y-4.8307
X4.1575Y-5.1929
X4.1654Y-5.1299
X4.1654Y-5.1614
X4.1693Y-4.685
X4.1732Y-4.1811
X4.1732Y-4.2126
X4.189Y-4.8189
X4.2008Y-4.685
X4.2283Y-4.685
X4.2323Y-5.0591
X4.248Y-4.9173
X4.252Y-3.9685
X4.2598Y-4.437
X4.2638Y-4.685
X4.2913Y-4.685
X4.2992Y-3.9685
X4.2992Y-4.5118
X4.2992Y-4.5433
X4.2992Y-4.815
X4.3031Y-5.1063
X4.3105Y-5.0513
X4.3394Y-4.0768
X4.3465Y-3.9685
X4.3465Y-4.8504
X4.3504Y-4.252
X4.3504Y-4.311
X4.3504Y-4.3701
X4.3504Y-4.4291
X4.3701Y-4.5276
X4.3709Y-4.0768
X4.3937Y-3.9685
X4.4094Y-4.0709
X4.4094Y-4.5669
X4.4094Y-4.6457
X4.4094Y-4.7244
X4.4094Y-4.8031
X4.4094Y-4.8819
X4.4094Y-4.9606
X4.4409Y-3.9685
X4.4421Y-5.1161
X4.4488Y-4.0709
X4.4551Y-4.522
X4.4567Y-4.4886
X4.4724Y-4.4354
X4.4724Y-5.1165
X4.4731Y-4.6096
X4.4882Y-3.9685
X4.4882Y-4.0709
X4.4929Y-5.1587
X4.4954Y-4.5873
X4.502Y-5.2028
X4.5039Y-4.4354
X4.5063Y-4.9709
X4.5118Y-4.8898
X4.515Y-4.9358
X4.5209Y-5.1559
X4.521Y-5.1071
X4.5236Y-4.0906
X4.5256Y-5.2047
X4.5354Y-3.9685
X4.539Y-5.1366
X4.5508Y-5.1059
X4.5512Y-4.187
X4.5512Y-5.2047
X4.5531Y-4.9291
X4.5544Y-4.9673
X4.5669Y-4.0709
X4.5669Y-4.252
X4.5669Y-4.311
X4.5672Y-4.7029
X4.5693Y-4.4535
X4.5748Y-4.7559
X4.5748Y-4.7953
X4.5748Y-4.8346
X4.5768Y-5.1988
X4.5787Y-5.1732
X4.5827Y-3.9685
X4.5895Y-4.6806
X4.6008Y-4.4535
X4.6098Y-5.1189
X4.626Y-4.3504
X4.626Y-4.4094
X4.626Y-4.4882
X4.6299Y-3.9685
X4.6299Y-4.2362
X4.6413Y-5.1189
X4.6496Y-4.5472
X4.6654Y-4.0945
X4.6654Y-4.1693
X4.6654Y-4.3307
X4.6654Y-4.6063
X4.6654Y-4.6654
X4.6654Y-4.7244
X4.6654Y-4.7835
X4.6654Y-4.8425
X4.6654Y-4.9606
X4.6772Y-3.9685
X4.7008Y-4.2362
X4.7008Y-4.3307
X4.7008Y-4.3701
X4.7244Y-3.9685
X4.7441Y-4.9409
X4.752Y-4.1929
X4.7638Y-4.9606
X4.7717Y-3.9685
X4.7717Y-5.0039
X4.7835Y-4.374
X4.811Y-4.2913
X4.8189Y-3.9685
X4.8268Y-4.437
X4.8346Y-4.0787
X4.8661Y-3.9685
X4.878Y-4.7874
X4.878Y-4.8189
X4.878Y-4.8504
X4.878Y-4.8819
X4.8819Y-4.1496
X4.8898Y-4.2835
X4.9016Y-4.374
X4.9134Y-4.2598
X4.9173Y-4.4134
X4.9173Y-4.4409
X4.9252Y-4.2874
X4.9961Y-4.374
X5.0197Y-4.2913
X5.0394Y-4.378
X5.0394Y-4.4055
X5.0394Y-4.4331
X5.0906Y-4.7874
X5.0906Y-4.8189
X5.0906Y-4.8504
X5.0906Y-4.8819
X5.0945Y-4.248
X5.0984Y-4.2835
X5.1142Y-4.374
X5.1142Y-5.0039
X5.1181Y-4.4331
X5.126Y-4.2638
X5.1339Y-4.3071
T4
X4.0079Y-4.7795
X4.0079Y-4.8795
X4.0079Y-4.9795
X4.0079Y-5.0795
T2
G00X4.3772Y-5.0177
M15
G01X4.3772Y-5.0571
M16
G05
G00X4.3772Y-5.1909
M15
G01X4.3772Y-5.2421
M16
G05
G00X4.7173Y-5.0177
M15
G01X4.7173Y-5.0571
M16
G05
G00X4.7173Y-5.1909
M15
G01X4.7173Y-5.2421
M16
G05
T3
G00X4.3801Y-5.0531
M15
G01X4.3955Y-5.0531
M16
G05
G00X4.699Y-5.0531
M15
G01X4.7144Y-5.0531
M16
G05
T0
M30
