G04 #@! TF.GenerationSoftware,KiCad,Pcbnew,5.1.4+dfsg1-1*
G04 #@! TF.CreationDate,2019-12-22T00:43:44+01:00*
G04 #@! TF.ProjectId,USB-C-Screen-Adapter-LDR6023SS,5553422d-432d-4536-9372-65656e2d4164,rev?*
G04 #@! TF.SameCoordinates,Original*
G04 #@! TF.FileFunction,Legend,Top*
G04 #@! TF.FilePolarity,Positive*
%FSLAX46Y46*%
G04 Gerber Fmt 4.6, Leading zero omitted, Abs format (unit mm)*
G04 Created by KiCad (PCBNEW 5.1.4+dfsg1-1) date 2019-12-22 00:43:44*
%MOMM*%
%LPD*%
G04 APERTURE LIST*
%ADD10C,0.100000*%
%ADD11C,0.300000*%
%ADD12C,0.120000*%
%ADD13C,0.150000*%
G04 APERTURE END LIST*
D10*
X100357142Y-120114285D02*
X100357142Y-120571428D01*
X100128571Y-120342857D02*
X100585714Y-120342857D01*
X100728571Y-121142857D02*
X100728571Y-120857142D01*
X100442857Y-120828571D01*
X100471428Y-120857142D01*
X100500000Y-120914285D01*
X100500000Y-121057142D01*
X100471428Y-121114285D01*
X100442857Y-121142857D01*
X100385714Y-121171428D01*
X100242857Y-121171428D01*
X100185714Y-121142857D01*
X100157142Y-121114285D01*
X100128571Y-121057142D01*
X100128571Y-120914285D01*
X100157142Y-120857142D01*
X100185714Y-120828571D01*
X100728571Y-121342857D02*
X100128571Y-121542857D01*
X100728571Y-121742857D01*
X100128571Y-123314285D02*
X100728571Y-123314285D01*
X100728571Y-123457142D01*
X100700000Y-123542857D01*
X100642857Y-123600000D01*
X100585714Y-123628571D01*
X100471428Y-123657142D01*
X100385714Y-123657142D01*
X100271428Y-123628571D01*
X100214285Y-123600000D01*
X100157142Y-123542857D01*
X100128571Y-123457142D01*
X100128571Y-123314285D01*
X100357142Y-123914285D02*
X100357142Y-124371428D01*
X100128571Y-126028571D02*
X100728571Y-126028571D01*
X100728571Y-126171428D01*
X100700000Y-126257142D01*
X100642857Y-126314285D01*
X100585714Y-126342857D01*
X100471428Y-126371428D01*
X100385714Y-126371428D01*
X100271428Y-126342857D01*
X100214285Y-126314285D01*
X100157142Y-126257142D01*
X100128571Y-126171428D01*
X100128571Y-126028571D01*
X100357142Y-126628571D02*
X100357142Y-127085714D01*
X100128571Y-126857142D02*
X100585714Y-126857142D01*
X100700000Y-129057142D02*
X100728571Y-129000000D01*
X100728571Y-128914285D01*
X100700000Y-128828571D01*
X100642857Y-128771428D01*
X100585714Y-128742857D01*
X100471428Y-128714285D01*
X100385714Y-128714285D01*
X100271428Y-128742857D01*
X100214285Y-128771428D01*
X100157142Y-128828571D01*
X100128571Y-128914285D01*
X100128571Y-128971428D01*
X100157142Y-129057142D01*
X100185714Y-129085714D01*
X100385714Y-129085714D01*
X100385714Y-128971428D01*
X100128571Y-129342857D02*
X100728571Y-129342857D01*
X100128571Y-129685714D01*
X100728571Y-129685714D01*
X100128571Y-129971428D02*
X100728571Y-129971428D01*
X100728571Y-130114285D01*
X100700000Y-130200000D01*
X100642857Y-130257142D01*
X100585714Y-130285714D01*
X100471428Y-130314285D01*
X100385714Y-130314285D01*
X100271428Y-130285714D01*
X100214285Y-130257142D01*
X100157142Y-130200000D01*
X100128571Y-130114285D01*
X100128571Y-129971428D01*
D11*
X109700000Y-111753571D02*
X110557142Y-111753571D01*
X110128571Y-113253571D02*
X110128571Y-111753571D01*
X110914285Y-112253571D02*
X111271428Y-113253571D01*
X111628571Y-112253571D02*
X111271428Y-113253571D01*
X111128571Y-113610714D01*
X111057142Y-113682142D01*
X110914285Y-113753571D01*
X112200000Y-112253571D02*
X112200000Y-113753571D01*
X112200000Y-112325000D02*
X112342857Y-112253571D01*
X112628571Y-112253571D01*
X112771428Y-112325000D01*
X112842857Y-112396428D01*
X112914285Y-112539285D01*
X112914285Y-112967857D01*
X112842857Y-113110714D01*
X112771428Y-113182142D01*
X112628571Y-113253571D01*
X112342857Y-113253571D01*
X112200000Y-113182142D01*
X114128571Y-113182142D02*
X113985714Y-113253571D01*
X113700000Y-113253571D01*
X113557142Y-113182142D01*
X113485714Y-113039285D01*
X113485714Y-112467857D01*
X113557142Y-112325000D01*
X113700000Y-112253571D01*
X113985714Y-112253571D01*
X114128571Y-112325000D01*
X114200000Y-112467857D01*
X114200000Y-112610714D01*
X113485714Y-112753571D01*
X114842857Y-112682142D02*
X115985714Y-112682142D01*
X117557142Y-113110714D02*
X117485714Y-113182142D01*
X117271428Y-113253571D01*
X117128571Y-113253571D01*
X116914285Y-113182142D01*
X116771428Y-113039285D01*
X116700000Y-112896428D01*
X116628571Y-112610714D01*
X116628571Y-112396428D01*
X116700000Y-112110714D01*
X116771428Y-111967857D01*
X116914285Y-111825000D01*
X117128571Y-111753571D01*
X117271428Y-111753571D01*
X117485714Y-111825000D01*
X117557142Y-111896428D01*
X111235714Y-114303571D02*
X111521428Y-114303571D01*
X111664285Y-114375000D01*
X111807142Y-114517857D01*
X111878571Y-114803571D01*
X111878571Y-115303571D01*
X111807142Y-115589285D01*
X111664285Y-115732142D01*
X111521428Y-115803571D01*
X111235714Y-115803571D01*
X111092857Y-115732142D01*
X110950000Y-115589285D01*
X110878571Y-115303571D01*
X110878571Y-114803571D01*
X110950000Y-114517857D01*
X111092857Y-114375000D01*
X111235714Y-114303571D01*
X112307142Y-114803571D02*
X112878571Y-114803571D01*
X112521428Y-114303571D02*
X112521428Y-115589285D01*
X112592857Y-115732142D01*
X112735714Y-115803571D01*
X112878571Y-115803571D01*
X113164285Y-114803571D02*
X113735714Y-114803571D01*
X113378571Y-114303571D02*
X113378571Y-115589285D01*
X113450000Y-115732142D01*
X113592857Y-115803571D01*
X113735714Y-115803571D01*
X114807142Y-115732142D02*
X114664285Y-115803571D01*
X114378571Y-115803571D01*
X114235714Y-115732142D01*
X114164285Y-115589285D01*
X114164285Y-115017857D01*
X114235714Y-114875000D01*
X114378571Y-114803571D01*
X114664285Y-114803571D01*
X114807142Y-114875000D01*
X114878571Y-115017857D01*
X114878571Y-115160714D01*
X114164285Y-115303571D01*
X115521428Y-115803571D02*
X115521428Y-114803571D01*
X115521428Y-115089285D02*
X115592857Y-114946428D01*
X115664285Y-114875000D01*
X115807142Y-114803571D01*
X115950000Y-114803571D01*
X116450000Y-115232142D02*
X117592857Y-115232142D01*
X110985714Y-118282142D02*
X111200000Y-118353571D01*
X111557142Y-118353571D01*
X111700000Y-118282142D01*
X111771428Y-118210714D01*
X111842857Y-118067857D01*
X111842857Y-117925000D01*
X111771428Y-117782142D01*
X111700000Y-117710714D01*
X111557142Y-117639285D01*
X111271428Y-117567857D01*
X111128571Y-117496428D01*
X111057142Y-117425000D01*
X110985714Y-117282142D01*
X110985714Y-117139285D01*
X111057142Y-116996428D01*
X111128571Y-116925000D01*
X111271428Y-116853571D01*
X111628571Y-116853571D01*
X111842857Y-116925000D01*
X113128571Y-118282142D02*
X112985714Y-118353571D01*
X112700000Y-118353571D01*
X112557142Y-118282142D01*
X112485714Y-118210714D01*
X112414285Y-118067857D01*
X112414285Y-117639285D01*
X112485714Y-117496428D01*
X112557142Y-117425000D01*
X112700000Y-117353571D01*
X112985714Y-117353571D01*
X113128571Y-117425000D01*
X113771428Y-118353571D02*
X113771428Y-117353571D01*
X113771428Y-117639285D02*
X113842857Y-117496428D01*
X113914285Y-117425000D01*
X114057142Y-117353571D01*
X114200000Y-117353571D01*
X115271428Y-118282142D02*
X115128571Y-118353571D01*
X114842857Y-118353571D01*
X114700000Y-118282142D01*
X114628571Y-118139285D01*
X114628571Y-117567857D01*
X114700000Y-117425000D01*
X114842857Y-117353571D01*
X115128571Y-117353571D01*
X115271428Y-117425000D01*
X115342857Y-117567857D01*
X115342857Y-117710714D01*
X114628571Y-117853571D01*
X116557142Y-118282142D02*
X116414285Y-118353571D01*
X116128571Y-118353571D01*
X115985714Y-118282142D01*
X115914285Y-118139285D01*
X115914285Y-117567857D01*
X115985714Y-117425000D01*
X116128571Y-117353571D01*
X116414285Y-117353571D01*
X116557142Y-117425000D01*
X116628571Y-117567857D01*
X116628571Y-117710714D01*
X115914285Y-117853571D01*
X117271428Y-117353571D02*
X117271428Y-118353571D01*
X117271428Y-117496428D02*
X117342857Y-117425000D01*
X117485714Y-117353571D01*
X117700000Y-117353571D01*
X117842857Y-117425000D01*
X117914285Y-117567857D01*
X117914285Y-118353571D01*
X118628571Y-117782142D02*
X119771428Y-117782142D01*
X112057142Y-120475000D02*
X112771428Y-120475000D01*
X111914285Y-120903571D02*
X112414285Y-119403571D01*
X112914285Y-120903571D01*
X114057142Y-120903571D02*
X114057142Y-119403571D01*
X114057142Y-120832142D02*
X113914285Y-120903571D01*
X113628571Y-120903571D01*
X113485714Y-120832142D01*
X113414285Y-120760714D01*
X113342857Y-120617857D01*
X113342857Y-120189285D01*
X113414285Y-120046428D01*
X113485714Y-119975000D01*
X113628571Y-119903571D01*
X113914285Y-119903571D01*
X114057142Y-119975000D01*
X115414285Y-120903571D02*
X115414285Y-120117857D01*
X115342857Y-119975000D01*
X115200000Y-119903571D01*
X114914285Y-119903571D01*
X114771428Y-119975000D01*
X115414285Y-120832142D02*
X115271428Y-120903571D01*
X114914285Y-120903571D01*
X114771428Y-120832142D01*
X114700000Y-120689285D01*
X114700000Y-120546428D01*
X114771428Y-120403571D01*
X114914285Y-120332142D01*
X115271428Y-120332142D01*
X115414285Y-120260714D01*
X116128571Y-119903571D02*
X116128571Y-121403571D01*
X116128571Y-119975000D02*
X116271428Y-119903571D01*
X116557142Y-119903571D01*
X116700000Y-119975000D01*
X116771428Y-120046428D01*
X116842857Y-120189285D01*
X116842857Y-120617857D01*
X116771428Y-120760714D01*
X116700000Y-120832142D01*
X116557142Y-120903571D01*
X116271428Y-120903571D01*
X116128571Y-120832142D01*
X117271428Y-119903571D02*
X117842857Y-119903571D01*
X117485714Y-119403571D02*
X117485714Y-120689285D01*
X117557142Y-120832142D01*
X117700000Y-120903571D01*
X117842857Y-120903571D01*
X118914285Y-120832142D02*
X118771428Y-120903571D01*
X118485714Y-120903571D01*
X118342857Y-120832142D01*
X118271428Y-120689285D01*
X118271428Y-120117857D01*
X118342857Y-119975000D01*
X118485714Y-119903571D01*
X118771428Y-119903571D01*
X118914285Y-119975000D01*
X118985714Y-120117857D01*
X118985714Y-120260714D01*
X118271428Y-120403571D01*
X119628571Y-120903571D02*
X119628571Y-119903571D01*
X119628571Y-120189285D02*
X119700000Y-120046428D01*
X119771428Y-119975000D01*
X119914285Y-119903571D01*
X120057142Y-119903571D01*
D10*
X124000000Y-105280000D02*
X123000000Y-105280000D01*
X124000000Y-102930000D02*
X124000000Y-105280000D01*
X107000000Y-105280000D02*
X108000000Y-105280000D01*
X107000000Y-102930000D02*
X107000000Y-105280000D01*
D12*
X124750000Y-129000000D02*
X124750000Y-127800000D01*
X126350000Y-129000000D02*
X124750000Y-129000000D01*
X126350000Y-127800000D02*
X126350000Y-129000000D01*
X124750000Y-127800000D02*
X126350000Y-127800000D01*
X124550000Y-131600000D02*
X124550000Y-127600000D01*
X126550000Y-131600000D02*
X124550000Y-131600000D01*
X126550000Y-127600000D02*
X126550000Y-131600000D01*
X124550000Y-127600000D02*
X126550000Y-127600000D01*
X101750000Y-116210000D02*
X101750000Y-110200000D01*
X108570000Y-113960000D02*
X108570000Y-110200000D01*
X101750000Y-110200000D02*
X103010000Y-110200000D01*
X108570000Y-110200000D02*
X107310000Y-110200000D01*
X127100000Y-114210000D02*
X129550000Y-114210000D01*
X128900000Y-110990000D02*
X127100000Y-110990000D01*
X121700000Y-114210000D02*
X124150000Y-114210000D01*
X123500000Y-110990000D02*
X121700000Y-110990000D01*
X105930000Y-129850000D02*
X105930000Y-132300000D01*
X109150000Y-131650000D02*
X109150000Y-129850000D01*
D13*
X104400000Y-127575000D02*
X104400000Y-121600000D01*
X109925000Y-126000000D02*
X109925000Y-121600000D01*
D12*
X118690000Y-107441422D02*
X118690000Y-107958578D01*
X120110000Y-107441422D02*
X120110000Y-107958578D01*
X116890000Y-107441422D02*
X116890000Y-107958578D01*
X118310000Y-107441422D02*
X118310000Y-107958578D01*
X105062779Y-127890000D02*
X104737221Y-127890000D01*
X105062779Y-128910000D02*
X104737221Y-128910000D01*
X103637221Y-119610000D02*
X103962779Y-119610000D01*
X103637221Y-118590000D02*
X103962779Y-118590000D01*
X125800000Y-121000000D02*
X129800000Y-121000000D01*
X125800000Y-116800000D02*
X129800000Y-116800000D01*
X120400000Y-121000000D02*
X124400000Y-121000000D01*
X120400000Y-116800000D02*
X124400000Y-116800000D01*
D10*
X120000000Y-131000000D02*
X120000000Y-129500000D01*
X120000000Y-135500000D02*
X120000000Y-134000000D01*
X111000000Y-135500000D02*
X120000000Y-135500000D01*
X111000000Y-134000000D02*
X111000000Y-135500000D01*
X111000000Y-129500000D02*
X111000000Y-131000000D01*
D12*
X125600000Y-114500000D02*
X129450000Y-114500000D01*
X125600000Y-116500000D02*
X129450000Y-116500000D01*
X125600000Y-114500000D02*
X125600000Y-116500000D01*
X120200000Y-114500000D02*
X124050000Y-114500000D01*
X120200000Y-116500000D02*
X124050000Y-116500000D01*
X120200000Y-114500000D02*
X120200000Y-116500000D01*
X110635000Y-118985000D02*
X110635000Y-116700000D01*
X109165000Y-118985000D02*
X110635000Y-118985000D01*
X109165000Y-116700000D02*
X109165000Y-118985000D01*
X104058578Y-116790000D02*
X103541422Y-116790000D01*
X104058578Y-118210000D02*
X103541422Y-118210000D01*
X127041422Y-110610000D02*
X127558578Y-110610000D01*
X127041422Y-109190000D02*
X127558578Y-109190000D01*
X121741422Y-110610000D02*
X122258578Y-110610000D01*
X121741422Y-109190000D02*
X122258578Y-109190000D01*
X127041422Y-108810000D02*
X127558578Y-108810000D01*
X127041422Y-107390000D02*
X127558578Y-107390000D01*
X121741422Y-108810000D02*
X122258578Y-108810000D01*
X121741422Y-107390000D02*
X122258578Y-107390000D01*
X126941422Y-124510000D02*
X127458578Y-124510000D01*
X126941422Y-123090000D02*
X127458578Y-123090000D01*
X121541422Y-122710000D02*
X122058578Y-122710000D01*
X121541422Y-121290000D02*
X122058578Y-121290000D01*
X126941422Y-122710000D02*
X127458578Y-122710000D01*
X126941422Y-121290000D02*
X127458578Y-121290000D01*
X121541422Y-124510000D02*
X122058578Y-124510000D01*
X121541422Y-123090000D02*
X122058578Y-123090000D01*
X106941422Y-118210000D02*
X107458578Y-118210000D01*
X106941422Y-116790000D02*
X107458578Y-116790000D01*
X108358578Y-105910000D02*
X107841422Y-105910000D01*
X108358578Y-107330000D02*
X107841422Y-107330000D01*
X103240000Y-123687221D02*
X103240000Y-124012779D01*
X104260000Y-123687221D02*
X104260000Y-124012779D01*
X110290000Y-121137221D02*
X110290000Y-121462779D01*
X111310000Y-121137221D02*
X111310000Y-121462779D01*
D10*
X124925000Y-127282142D02*
X124989285Y-127303571D01*
X125096428Y-127303571D01*
X125139285Y-127282142D01*
X125160714Y-127260714D01*
X125182142Y-127217857D01*
X125182142Y-127175000D01*
X125160714Y-127132142D01*
X125139285Y-127110714D01*
X125096428Y-127089285D01*
X125010714Y-127067857D01*
X124967857Y-127046428D01*
X124946428Y-127025000D01*
X124925000Y-126982142D01*
X124925000Y-126939285D01*
X124946428Y-126896428D01*
X124967857Y-126875000D01*
X125010714Y-126853571D01*
X125117857Y-126853571D01*
X125182142Y-126875000D01*
X125332142Y-126853571D02*
X125439285Y-127303571D01*
X125525000Y-126982142D01*
X125610714Y-127303571D01*
X125717857Y-126853571D01*
X126125000Y-127303571D02*
X125867857Y-127303571D01*
X125996428Y-127303571D02*
X125996428Y-126853571D01*
X125953571Y-126917857D01*
X125910714Y-126960714D01*
X125867857Y-126982142D01*
X130325000Y-110203571D02*
X130175000Y-109989285D01*
X130067857Y-110203571D02*
X130067857Y-109753571D01*
X130239285Y-109753571D01*
X130282142Y-109775000D01*
X130303571Y-109796428D01*
X130325000Y-109839285D01*
X130325000Y-109903571D01*
X130303571Y-109946428D01*
X130282142Y-109967857D01*
X130239285Y-109989285D01*
X130067857Y-109989285D01*
X130539285Y-110203571D02*
X130625000Y-110203571D01*
X130667857Y-110182142D01*
X130689285Y-110160714D01*
X130732142Y-110096428D01*
X130753571Y-110010714D01*
X130753571Y-109839285D01*
X130732142Y-109796428D01*
X130710714Y-109775000D01*
X130667857Y-109753571D01*
X130582142Y-109753571D01*
X130539285Y-109775000D01*
X130517857Y-109796428D01*
X130496428Y-109839285D01*
X130496428Y-109946428D01*
X130517857Y-109989285D01*
X130539285Y-110010714D01*
X130582142Y-110032142D01*
X130667857Y-110032142D01*
X130710714Y-110010714D01*
X130732142Y-109989285D01*
X130753571Y-109946428D01*
X125025000Y-110203571D02*
X124875000Y-109989285D01*
X124767857Y-110203571D02*
X124767857Y-109753571D01*
X124939285Y-109753571D01*
X124982142Y-109775000D01*
X125003571Y-109796428D01*
X125025000Y-109839285D01*
X125025000Y-109903571D01*
X125003571Y-109946428D01*
X124982142Y-109967857D01*
X124939285Y-109989285D01*
X124767857Y-109989285D01*
X125282142Y-109946428D02*
X125239285Y-109925000D01*
X125217857Y-109903571D01*
X125196428Y-109860714D01*
X125196428Y-109839285D01*
X125217857Y-109796428D01*
X125239285Y-109775000D01*
X125282142Y-109753571D01*
X125367857Y-109753571D01*
X125410714Y-109775000D01*
X125432142Y-109796428D01*
X125453571Y-109839285D01*
X125453571Y-109860714D01*
X125432142Y-109903571D01*
X125410714Y-109925000D01*
X125367857Y-109946428D01*
X125282142Y-109946428D01*
X125239285Y-109967857D01*
X125217857Y-109989285D01*
X125196428Y-110032142D01*
X125196428Y-110117857D01*
X125217857Y-110160714D01*
X125239285Y-110182142D01*
X125282142Y-110203571D01*
X125367857Y-110203571D01*
X125410714Y-110182142D01*
X125432142Y-110160714D01*
X125453571Y-110117857D01*
X125453571Y-110032142D01*
X125432142Y-109989285D01*
X125410714Y-109967857D01*
X125367857Y-109946428D01*
X130125000Y-130503571D02*
X129975000Y-130289285D01*
X129867857Y-130503571D02*
X129867857Y-130053571D01*
X130039285Y-130053571D01*
X130082142Y-130075000D01*
X130103571Y-130096428D01*
X130125000Y-130139285D01*
X130125000Y-130203571D01*
X130103571Y-130246428D01*
X130082142Y-130267857D01*
X130039285Y-130289285D01*
X129867857Y-130289285D01*
X130296428Y-130096428D02*
X130317857Y-130075000D01*
X130360714Y-130053571D01*
X130467857Y-130053571D01*
X130510714Y-130075000D01*
X130532142Y-130096428D01*
X130553571Y-130139285D01*
X130553571Y-130182142D01*
X130532142Y-130246428D01*
X130275000Y-130503571D01*
X130553571Y-130503571D01*
X120925000Y-130003571D02*
X120775000Y-129789285D01*
X120667857Y-130003571D02*
X120667857Y-129553571D01*
X120839285Y-129553571D01*
X120882142Y-129575000D01*
X120903571Y-129596428D01*
X120925000Y-129639285D01*
X120925000Y-129703571D01*
X120903571Y-129746428D01*
X120882142Y-129767857D01*
X120839285Y-129789285D01*
X120667857Y-129789285D01*
X121353571Y-130003571D02*
X121096428Y-130003571D01*
X121225000Y-130003571D02*
X121225000Y-129553571D01*
X121182142Y-129617857D01*
X121139285Y-129660714D01*
X121096428Y-129682142D01*
X102057142Y-109553571D02*
X102057142Y-109917857D01*
X102078571Y-109960714D01*
X102100000Y-109982142D01*
X102142857Y-110003571D01*
X102228571Y-110003571D01*
X102271428Y-109982142D01*
X102292857Y-109960714D01*
X102314285Y-109917857D01*
X102314285Y-109553571D01*
X102485714Y-109553571D02*
X102785714Y-109553571D01*
X102592857Y-110003571D01*
X129957142Y-112353571D02*
X129957142Y-112717857D01*
X129978571Y-112760714D01*
X130000000Y-112782142D01*
X130042857Y-112803571D01*
X130128571Y-112803571D01*
X130171428Y-112782142D01*
X130192857Y-112760714D01*
X130214285Y-112717857D01*
X130214285Y-112353571D01*
X130621428Y-112353571D02*
X130535714Y-112353571D01*
X130492857Y-112375000D01*
X130471428Y-112396428D01*
X130428571Y-112460714D01*
X130407142Y-112546428D01*
X130407142Y-112717857D01*
X130428571Y-112760714D01*
X130450000Y-112782142D01*
X130492857Y-112803571D01*
X130578571Y-112803571D01*
X130621428Y-112782142D01*
X130642857Y-112760714D01*
X130664285Y-112717857D01*
X130664285Y-112610714D01*
X130642857Y-112567857D01*
X130621428Y-112546428D01*
X130578571Y-112525000D01*
X130492857Y-112525000D01*
X130450000Y-112546428D01*
X130428571Y-112567857D01*
X130407142Y-112610714D01*
X124557142Y-112353571D02*
X124557142Y-112717857D01*
X124578571Y-112760714D01*
X124600000Y-112782142D01*
X124642857Y-112803571D01*
X124728571Y-112803571D01*
X124771428Y-112782142D01*
X124792857Y-112760714D01*
X124814285Y-112717857D01*
X124814285Y-112353571D01*
X125242857Y-112353571D02*
X125028571Y-112353571D01*
X125007142Y-112567857D01*
X125028571Y-112546428D01*
X125071428Y-112525000D01*
X125178571Y-112525000D01*
X125221428Y-112546428D01*
X125242857Y-112567857D01*
X125264285Y-112610714D01*
X125264285Y-112717857D01*
X125242857Y-112760714D01*
X125221428Y-112782142D01*
X125178571Y-112803571D01*
X125071428Y-112803571D01*
X125028571Y-112782142D01*
X125007142Y-112760714D01*
X109357142Y-130453571D02*
X109357142Y-130817857D01*
X109378571Y-130860714D01*
X109400000Y-130882142D01*
X109442857Y-130903571D01*
X109528571Y-130903571D01*
X109571428Y-130882142D01*
X109592857Y-130860714D01*
X109614285Y-130817857D01*
X109614285Y-130453571D01*
X110021428Y-130603571D02*
X110021428Y-130903571D01*
X109914285Y-130432142D02*
X109807142Y-130753571D01*
X110085714Y-130753571D01*
X103457142Y-126953571D02*
X103457142Y-127317857D01*
X103478571Y-127360714D01*
X103500000Y-127382142D01*
X103542857Y-127403571D01*
X103628571Y-127403571D01*
X103671428Y-127382142D01*
X103692857Y-127360714D01*
X103714285Y-127317857D01*
X103714285Y-126953571D01*
X103885714Y-126953571D02*
X104164285Y-126953571D01*
X104014285Y-127125000D01*
X104078571Y-127125000D01*
X104121428Y-127146428D01*
X104142857Y-127167857D01*
X104164285Y-127210714D01*
X104164285Y-127317857D01*
X104142857Y-127360714D01*
X104121428Y-127382142D01*
X104078571Y-127403571D01*
X103950000Y-127403571D01*
X103907142Y-127382142D01*
X103885714Y-127360714D01*
X119325000Y-109803571D02*
X119175000Y-109589285D01*
X119067857Y-109803571D02*
X119067857Y-109353571D01*
X119239285Y-109353571D01*
X119282142Y-109375000D01*
X119303571Y-109396428D01*
X119325000Y-109439285D01*
X119325000Y-109503571D01*
X119303571Y-109546428D01*
X119282142Y-109567857D01*
X119239285Y-109589285D01*
X119067857Y-109589285D01*
X119475000Y-109353571D02*
X119775000Y-109353571D01*
X119582142Y-109803571D01*
X117525000Y-109803571D02*
X117375000Y-109589285D01*
X117267857Y-109803571D02*
X117267857Y-109353571D01*
X117439285Y-109353571D01*
X117482142Y-109375000D01*
X117503571Y-109396428D01*
X117525000Y-109439285D01*
X117525000Y-109503571D01*
X117503571Y-109546428D01*
X117482142Y-109567857D01*
X117439285Y-109589285D01*
X117267857Y-109589285D01*
X117910714Y-109353571D02*
X117825000Y-109353571D01*
X117782142Y-109375000D01*
X117760714Y-109396428D01*
X117717857Y-109460714D01*
X117696428Y-109546428D01*
X117696428Y-109717857D01*
X117717857Y-109760714D01*
X117739285Y-109782142D01*
X117782142Y-109803571D01*
X117867857Y-109803571D01*
X117910714Y-109782142D01*
X117932142Y-109760714D01*
X117953571Y-109717857D01*
X117953571Y-109610714D01*
X117932142Y-109567857D01*
X117910714Y-109546428D01*
X117867857Y-109525000D01*
X117782142Y-109525000D01*
X117739285Y-109546428D01*
X117717857Y-109567857D01*
X117696428Y-109610714D01*
X104825000Y-129603571D02*
X104675000Y-129389285D01*
X104567857Y-129603571D02*
X104567857Y-129153571D01*
X104739285Y-129153571D01*
X104782142Y-129175000D01*
X104803571Y-129196428D01*
X104825000Y-129239285D01*
X104825000Y-129303571D01*
X104803571Y-129346428D01*
X104782142Y-129367857D01*
X104739285Y-129389285D01*
X104567857Y-129389285D01*
X105232142Y-129153571D02*
X105017857Y-129153571D01*
X104996428Y-129367857D01*
X105017857Y-129346428D01*
X105060714Y-129325000D01*
X105167857Y-129325000D01*
X105210714Y-129346428D01*
X105232142Y-129367857D01*
X105253571Y-129410714D01*
X105253571Y-129517857D01*
X105232142Y-129560714D01*
X105210714Y-129582142D01*
X105167857Y-129603571D01*
X105060714Y-129603571D01*
X105017857Y-129582142D01*
X104996428Y-129560714D01*
X105625000Y-119703571D02*
X105475000Y-119489285D01*
X105367857Y-119703571D02*
X105367857Y-119253571D01*
X105539285Y-119253571D01*
X105582142Y-119275000D01*
X105603571Y-119296428D01*
X105625000Y-119339285D01*
X105625000Y-119403571D01*
X105603571Y-119446428D01*
X105582142Y-119467857D01*
X105539285Y-119489285D01*
X105367857Y-119489285D01*
X106010714Y-119403571D02*
X106010714Y-119703571D01*
X105903571Y-119232142D02*
X105796428Y-119553571D01*
X106075000Y-119553571D01*
X109125000Y-115103571D02*
X108975000Y-114889285D01*
X108867857Y-115103571D02*
X108867857Y-114653571D01*
X109039285Y-114653571D01*
X109082142Y-114675000D01*
X109103571Y-114696428D01*
X109125000Y-114739285D01*
X109125000Y-114803571D01*
X109103571Y-114846428D01*
X109082142Y-114867857D01*
X109039285Y-114889285D01*
X108867857Y-114889285D01*
X109275000Y-114653571D02*
X109553571Y-114653571D01*
X109403571Y-114825000D01*
X109467857Y-114825000D01*
X109510714Y-114846428D01*
X109532142Y-114867857D01*
X109553571Y-114910714D01*
X109553571Y-115017857D01*
X109532142Y-115060714D01*
X109510714Y-115082142D01*
X109467857Y-115103571D01*
X109339285Y-115103571D01*
X109296428Y-115082142D01*
X109275000Y-115060714D01*
X130325000Y-119103571D02*
X130110714Y-119103571D01*
X130110714Y-118653571D01*
X130453571Y-118696428D02*
X130475000Y-118675000D01*
X130517857Y-118653571D01*
X130625000Y-118653571D01*
X130667857Y-118675000D01*
X130689285Y-118696428D01*
X130710714Y-118739285D01*
X130710714Y-118782142D01*
X130689285Y-118846428D01*
X130432142Y-119103571D01*
X130710714Y-119103571D01*
X124925000Y-119103571D02*
X124710714Y-119103571D01*
X124710714Y-118653571D01*
X125310714Y-119103571D02*
X125053571Y-119103571D01*
X125182142Y-119103571D02*
X125182142Y-118653571D01*
X125139285Y-118717857D01*
X125096428Y-118760714D01*
X125053571Y-118782142D01*
X115350000Y-130253571D02*
X115350000Y-130575000D01*
X115328571Y-130639285D01*
X115285714Y-130682142D01*
X115221428Y-130703571D01*
X115178571Y-130703571D01*
X115800000Y-130703571D02*
X115542857Y-130703571D01*
X115671428Y-130703571D02*
X115671428Y-130253571D01*
X115628571Y-130317857D01*
X115585714Y-130360714D01*
X115542857Y-130382142D01*
X130067857Y-115703571D02*
X130067857Y-115253571D01*
X130175000Y-115253571D01*
X130239285Y-115275000D01*
X130282142Y-115317857D01*
X130303571Y-115360714D01*
X130325000Y-115446428D01*
X130325000Y-115510714D01*
X130303571Y-115596428D01*
X130282142Y-115639285D01*
X130239285Y-115682142D01*
X130175000Y-115703571D01*
X130067857Y-115703571D01*
X130710714Y-115403571D02*
X130710714Y-115703571D01*
X130603571Y-115232142D02*
X130496428Y-115553571D01*
X130775000Y-115553571D01*
X124667857Y-115703571D02*
X124667857Y-115253571D01*
X124775000Y-115253571D01*
X124839285Y-115275000D01*
X124882142Y-115317857D01*
X124903571Y-115360714D01*
X124925000Y-115446428D01*
X124925000Y-115510714D01*
X124903571Y-115596428D01*
X124882142Y-115639285D01*
X124839285Y-115682142D01*
X124775000Y-115703571D01*
X124667857Y-115703571D01*
X125075000Y-115253571D02*
X125353571Y-115253571D01*
X125203571Y-115425000D01*
X125267857Y-115425000D01*
X125310714Y-115446428D01*
X125332142Y-115467857D01*
X125353571Y-115510714D01*
X125353571Y-115617857D01*
X125332142Y-115660714D01*
X125310714Y-115682142D01*
X125267857Y-115703571D01*
X125139285Y-115703571D01*
X125096428Y-115682142D01*
X125075000Y-115660714D01*
X109567857Y-119603571D02*
X109567857Y-119153571D01*
X109675000Y-119153571D01*
X109739285Y-119175000D01*
X109782142Y-119217857D01*
X109803571Y-119260714D01*
X109825000Y-119346428D01*
X109825000Y-119410714D01*
X109803571Y-119496428D01*
X109782142Y-119539285D01*
X109739285Y-119582142D01*
X109675000Y-119603571D01*
X109567857Y-119603571D01*
X109996428Y-119196428D02*
X110017857Y-119175000D01*
X110060714Y-119153571D01*
X110167857Y-119153571D01*
X110210714Y-119175000D01*
X110232142Y-119196428D01*
X110253571Y-119239285D01*
X110253571Y-119282142D01*
X110232142Y-119346428D01*
X109975000Y-119603571D01*
X110253571Y-119603571D01*
X105610714Y-118960714D02*
X105589285Y-118982142D01*
X105525000Y-119003571D01*
X105482142Y-119003571D01*
X105417857Y-118982142D01*
X105375000Y-118939285D01*
X105353571Y-118896428D01*
X105332142Y-118810714D01*
X105332142Y-118746428D01*
X105353571Y-118660714D01*
X105375000Y-118617857D01*
X105417857Y-118575000D01*
X105482142Y-118553571D01*
X105525000Y-118553571D01*
X105589285Y-118575000D01*
X105610714Y-118596428D01*
X105782142Y-118596428D02*
X105803571Y-118575000D01*
X105846428Y-118553571D01*
X105953571Y-118553571D01*
X105996428Y-118575000D01*
X106017857Y-118596428D01*
X106039285Y-118639285D01*
X106039285Y-118682142D01*
X106017857Y-118746428D01*
X105760714Y-119003571D01*
X106039285Y-119003571D01*
X106317857Y-118553571D02*
X106360714Y-118553571D01*
X106403571Y-118575000D01*
X106425000Y-118596428D01*
X106446428Y-118639285D01*
X106467857Y-118725000D01*
X106467857Y-118832142D01*
X106446428Y-118917857D01*
X106425000Y-118960714D01*
X106403571Y-118982142D01*
X106360714Y-119003571D01*
X106317857Y-119003571D01*
X106275000Y-118982142D01*
X106253571Y-118960714D01*
X106232142Y-118917857D01*
X106210714Y-118832142D01*
X106210714Y-118725000D01*
X106232142Y-118639285D01*
X106253571Y-118596428D01*
X106275000Y-118575000D01*
X106317857Y-118553571D01*
X129410714Y-108660714D02*
X129389285Y-108682142D01*
X129325000Y-108703571D01*
X129282142Y-108703571D01*
X129217857Y-108682142D01*
X129175000Y-108639285D01*
X129153571Y-108596428D01*
X129132142Y-108510714D01*
X129132142Y-108446428D01*
X129153571Y-108360714D01*
X129175000Y-108317857D01*
X129217857Y-108275000D01*
X129282142Y-108253571D01*
X129325000Y-108253571D01*
X129389285Y-108275000D01*
X129410714Y-108296428D01*
X129839285Y-108703571D02*
X129582142Y-108703571D01*
X129710714Y-108703571D02*
X129710714Y-108253571D01*
X129667857Y-108317857D01*
X129625000Y-108360714D01*
X129582142Y-108382142D01*
X130053571Y-108703571D02*
X130139285Y-108703571D01*
X130182142Y-108682142D01*
X130203571Y-108660714D01*
X130246428Y-108596428D01*
X130267857Y-108510714D01*
X130267857Y-108339285D01*
X130246428Y-108296428D01*
X130225000Y-108275000D01*
X130182142Y-108253571D01*
X130096428Y-108253571D01*
X130053571Y-108275000D01*
X130032142Y-108296428D01*
X130010714Y-108339285D01*
X130010714Y-108446428D01*
X130032142Y-108489285D01*
X130053571Y-108510714D01*
X130096428Y-108532142D01*
X130182142Y-108532142D01*
X130225000Y-108510714D01*
X130246428Y-108489285D01*
X130267857Y-108446428D01*
X124110714Y-108660714D02*
X124089285Y-108682142D01*
X124025000Y-108703571D01*
X123982142Y-108703571D01*
X123917857Y-108682142D01*
X123875000Y-108639285D01*
X123853571Y-108596428D01*
X123832142Y-108510714D01*
X123832142Y-108446428D01*
X123853571Y-108360714D01*
X123875000Y-108317857D01*
X123917857Y-108275000D01*
X123982142Y-108253571D01*
X124025000Y-108253571D01*
X124089285Y-108275000D01*
X124110714Y-108296428D01*
X124539285Y-108703571D02*
X124282142Y-108703571D01*
X124410714Y-108703571D02*
X124410714Y-108253571D01*
X124367857Y-108317857D01*
X124325000Y-108360714D01*
X124282142Y-108382142D01*
X124796428Y-108446428D02*
X124753571Y-108425000D01*
X124732142Y-108403571D01*
X124710714Y-108360714D01*
X124710714Y-108339285D01*
X124732142Y-108296428D01*
X124753571Y-108275000D01*
X124796428Y-108253571D01*
X124882142Y-108253571D01*
X124925000Y-108275000D01*
X124946428Y-108296428D01*
X124967857Y-108339285D01*
X124967857Y-108360714D01*
X124946428Y-108403571D01*
X124925000Y-108425000D01*
X124882142Y-108446428D01*
X124796428Y-108446428D01*
X124753571Y-108467857D01*
X124732142Y-108489285D01*
X124710714Y-108532142D01*
X124710714Y-108617857D01*
X124732142Y-108660714D01*
X124753571Y-108682142D01*
X124796428Y-108703571D01*
X124882142Y-108703571D01*
X124925000Y-108682142D01*
X124946428Y-108660714D01*
X124967857Y-108617857D01*
X124967857Y-108532142D01*
X124946428Y-108489285D01*
X124925000Y-108467857D01*
X124882142Y-108446428D01*
X129410714Y-108060714D02*
X129389285Y-108082142D01*
X129325000Y-108103571D01*
X129282142Y-108103571D01*
X129217857Y-108082142D01*
X129175000Y-108039285D01*
X129153571Y-107996428D01*
X129132142Y-107910714D01*
X129132142Y-107846428D01*
X129153571Y-107760714D01*
X129175000Y-107717857D01*
X129217857Y-107675000D01*
X129282142Y-107653571D01*
X129325000Y-107653571D01*
X129389285Y-107675000D01*
X129410714Y-107696428D01*
X129839285Y-108103571D02*
X129582142Y-108103571D01*
X129710714Y-108103571D02*
X129710714Y-107653571D01*
X129667857Y-107717857D01*
X129625000Y-107760714D01*
X129582142Y-107782142D01*
X129989285Y-107653571D02*
X130289285Y-107653571D01*
X130096428Y-108103571D01*
X124110714Y-108060714D02*
X124089285Y-108082142D01*
X124025000Y-108103571D01*
X123982142Y-108103571D01*
X123917857Y-108082142D01*
X123875000Y-108039285D01*
X123853571Y-107996428D01*
X123832142Y-107910714D01*
X123832142Y-107846428D01*
X123853571Y-107760714D01*
X123875000Y-107717857D01*
X123917857Y-107675000D01*
X123982142Y-107653571D01*
X124025000Y-107653571D01*
X124089285Y-107675000D01*
X124110714Y-107696428D01*
X124539285Y-108103571D02*
X124282142Y-108103571D01*
X124410714Y-108103571D02*
X124410714Y-107653571D01*
X124367857Y-107717857D01*
X124325000Y-107760714D01*
X124282142Y-107782142D01*
X124925000Y-107653571D02*
X124839285Y-107653571D01*
X124796428Y-107675000D01*
X124775000Y-107696428D01*
X124732142Y-107760714D01*
X124710714Y-107846428D01*
X124710714Y-108017857D01*
X124732142Y-108060714D01*
X124753571Y-108082142D01*
X124796428Y-108103571D01*
X124882142Y-108103571D01*
X124925000Y-108082142D01*
X124946428Y-108060714D01*
X124967857Y-108017857D01*
X124967857Y-107910714D01*
X124946428Y-107867857D01*
X124925000Y-107846428D01*
X124882142Y-107825000D01*
X124796428Y-107825000D01*
X124753571Y-107846428D01*
X124732142Y-107867857D01*
X124710714Y-107910714D01*
X126910714Y-125860714D02*
X126889285Y-125882142D01*
X126825000Y-125903571D01*
X126782142Y-125903571D01*
X126717857Y-125882142D01*
X126675000Y-125839285D01*
X126653571Y-125796428D01*
X126632142Y-125710714D01*
X126632142Y-125646428D01*
X126653571Y-125560714D01*
X126675000Y-125517857D01*
X126717857Y-125475000D01*
X126782142Y-125453571D01*
X126825000Y-125453571D01*
X126889285Y-125475000D01*
X126910714Y-125496428D01*
X127339285Y-125903571D02*
X127082142Y-125903571D01*
X127210714Y-125903571D02*
X127210714Y-125453571D01*
X127167857Y-125517857D01*
X127125000Y-125560714D01*
X127082142Y-125582142D01*
X127746428Y-125453571D02*
X127532142Y-125453571D01*
X127510714Y-125667857D01*
X127532142Y-125646428D01*
X127575000Y-125625000D01*
X127682142Y-125625000D01*
X127725000Y-125646428D01*
X127746428Y-125667857D01*
X127767857Y-125710714D01*
X127767857Y-125817857D01*
X127746428Y-125860714D01*
X127725000Y-125882142D01*
X127682142Y-125903571D01*
X127575000Y-125903571D01*
X127532142Y-125882142D01*
X127510714Y-125860714D01*
X121510714Y-125260714D02*
X121489285Y-125282142D01*
X121425000Y-125303571D01*
X121382142Y-125303571D01*
X121317857Y-125282142D01*
X121275000Y-125239285D01*
X121253571Y-125196428D01*
X121232142Y-125110714D01*
X121232142Y-125046428D01*
X121253571Y-124960714D01*
X121275000Y-124917857D01*
X121317857Y-124875000D01*
X121382142Y-124853571D01*
X121425000Y-124853571D01*
X121489285Y-124875000D01*
X121510714Y-124896428D01*
X121939285Y-125303571D02*
X121682142Y-125303571D01*
X121810714Y-125303571D02*
X121810714Y-124853571D01*
X121767857Y-124917857D01*
X121725000Y-124960714D01*
X121682142Y-124982142D01*
X122325000Y-125003571D02*
X122325000Y-125303571D01*
X122217857Y-124832142D02*
X122110714Y-125153571D01*
X122389285Y-125153571D01*
X126910714Y-125260714D02*
X126889285Y-125282142D01*
X126825000Y-125303571D01*
X126782142Y-125303571D01*
X126717857Y-125282142D01*
X126675000Y-125239285D01*
X126653571Y-125196428D01*
X126632142Y-125110714D01*
X126632142Y-125046428D01*
X126653571Y-124960714D01*
X126675000Y-124917857D01*
X126717857Y-124875000D01*
X126782142Y-124853571D01*
X126825000Y-124853571D01*
X126889285Y-124875000D01*
X126910714Y-124896428D01*
X127339285Y-125303571D02*
X127082142Y-125303571D01*
X127210714Y-125303571D02*
X127210714Y-124853571D01*
X127167857Y-124917857D01*
X127125000Y-124960714D01*
X127082142Y-124982142D01*
X127489285Y-124853571D02*
X127767857Y-124853571D01*
X127617857Y-125025000D01*
X127682142Y-125025000D01*
X127725000Y-125046428D01*
X127746428Y-125067857D01*
X127767857Y-125110714D01*
X127767857Y-125217857D01*
X127746428Y-125260714D01*
X127725000Y-125282142D01*
X127682142Y-125303571D01*
X127553571Y-125303571D01*
X127510714Y-125282142D01*
X127489285Y-125260714D01*
X121510714Y-125860714D02*
X121489285Y-125882142D01*
X121425000Y-125903571D01*
X121382142Y-125903571D01*
X121317857Y-125882142D01*
X121275000Y-125839285D01*
X121253571Y-125796428D01*
X121232142Y-125710714D01*
X121232142Y-125646428D01*
X121253571Y-125560714D01*
X121275000Y-125517857D01*
X121317857Y-125475000D01*
X121382142Y-125453571D01*
X121425000Y-125453571D01*
X121489285Y-125475000D01*
X121510714Y-125496428D01*
X121939285Y-125903571D02*
X121682142Y-125903571D01*
X121810714Y-125903571D02*
X121810714Y-125453571D01*
X121767857Y-125517857D01*
X121725000Y-125560714D01*
X121682142Y-125582142D01*
X122110714Y-125496428D02*
X122132142Y-125475000D01*
X122175000Y-125453571D01*
X122282142Y-125453571D01*
X122325000Y-125475000D01*
X122346428Y-125496428D01*
X122367857Y-125539285D01*
X122367857Y-125582142D01*
X122346428Y-125646428D01*
X122089285Y-125903571D01*
X122367857Y-125903571D01*
X107110714Y-118960714D02*
X107089285Y-118982142D01*
X107025000Y-119003571D01*
X106982142Y-119003571D01*
X106917857Y-118982142D01*
X106875000Y-118939285D01*
X106853571Y-118896428D01*
X106832142Y-118810714D01*
X106832142Y-118746428D01*
X106853571Y-118660714D01*
X106875000Y-118617857D01*
X106917857Y-118575000D01*
X106982142Y-118553571D01*
X107025000Y-118553571D01*
X107089285Y-118575000D01*
X107110714Y-118596428D01*
X107539285Y-119003571D02*
X107282142Y-119003571D01*
X107410714Y-119003571D02*
X107410714Y-118553571D01*
X107367857Y-118617857D01*
X107325000Y-118660714D01*
X107282142Y-118682142D01*
X107967857Y-119003571D02*
X107710714Y-119003571D01*
X107839285Y-119003571D02*
X107839285Y-118553571D01*
X107796428Y-118617857D01*
X107753571Y-118660714D01*
X107710714Y-118682142D01*
X107810714Y-107960714D02*
X107789285Y-107982142D01*
X107725000Y-108003571D01*
X107682142Y-108003571D01*
X107617857Y-107982142D01*
X107575000Y-107939285D01*
X107553571Y-107896428D01*
X107532142Y-107810714D01*
X107532142Y-107746428D01*
X107553571Y-107660714D01*
X107575000Y-107617857D01*
X107617857Y-107575000D01*
X107682142Y-107553571D01*
X107725000Y-107553571D01*
X107789285Y-107575000D01*
X107810714Y-107596428D01*
X108239285Y-108003571D02*
X107982142Y-108003571D01*
X108110714Y-108003571D02*
X108110714Y-107553571D01*
X108067857Y-107617857D01*
X108025000Y-107660714D01*
X107982142Y-107682142D01*
X108517857Y-107553571D02*
X108560714Y-107553571D01*
X108603571Y-107575000D01*
X108625000Y-107596428D01*
X108646428Y-107639285D01*
X108667857Y-107725000D01*
X108667857Y-107832142D01*
X108646428Y-107917857D01*
X108625000Y-107960714D01*
X108603571Y-107982142D01*
X108560714Y-108003571D01*
X108517857Y-108003571D01*
X108475000Y-107982142D01*
X108453571Y-107960714D01*
X108432142Y-107917857D01*
X108410714Y-107832142D01*
X108410714Y-107725000D01*
X108432142Y-107639285D01*
X108453571Y-107596428D01*
X108475000Y-107575000D01*
X108517857Y-107553571D01*
X103725000Y-125760714D02*
X103703571Y-125782142D01*
X103639285Y-125803571D01*
X103596428Y-125803571D01*
X103532142Y-125782142D01*
X103489285Y-125739285D01*
X103467857Y-125696428D01*
X103446428Y-125610714D01*
X103446428Y-125546428D01*
X103467857Y-125460714D01*
X103489285Y-125417857D01*
X103532142Y-125375000D01*
X103596428Y-125353571D01*
X103639285Y-125353571D01*
X103703571Y-125375000D01*
X103725000Y-125396428D01*
X103939285Y-125803571D02*
X104025000Y-125803571D01*
X104067857Y-125782142D01*
X104089285Y-125760714D01*
X104132142Y-125696428D01*
X104153571Y-125610714D01*
X104153571Y-125439285D01*
X104132142Y-125396428D01*
X104110714Y-125375000D01*
X104067857Y-125353571D01*
X103982142Y-125353571D01*
X103939285Y-125375000D01*
X103917857Y-125396428D01*
X103896428Y-125439285D01*
X103896428Y-125546428D01*
X103917857Y-125589285D01*
X103939285Y-125610714D01*
X103982142Y-125632142D01*
X104067857Y-125632142D01*
X104110714Y-125610714D01*
X104132142Y-125589285D01*
X104153571Y-125546428D01*
X118125000Y-126060714D02*
X118103571Y-126082142D01*
X118039285Y-126103571D01*
X117996428Y-126103571D01*
X117932142Y-126082142D01*
X117889285Y-126039285D01*
X117867857Y-125996428D01*
X117846428Y-125910714D01*
X117846428Y-125846428D01*
X117867857Y-125760714D01*
X117889285Y-125717857D01*
X117932142Y-125675000D01*
X117996428Y-125653571D01*
X118039285Y-125653571D01*
X118103571Y-125675000D01*
X118125000Y-125696428D01*
X118382142Y-125846428D02*
X118339285Y-125825000D01*
X118317857Y-125803571D01*
X118296428Y-125760714D01*
X118296428Y-125739285D01*
X118317857Y-125696428D01*
X118339285Y-125675000D01*
X118382142Y-125653571D01*
X118467857Y-125653571D01*
X118510714Y-125675000D01*
X118532142Y-125696428D01*
X118553571Y-125739285D01*
X118553571Y-125760714D01*
X118532142Y-125803571D01*
X118510714Y-125825000D01*
X118467857Y-125846428D01*
X118382142Y-125846428D01*
X118339285Y-125867857D01*
X118317857Y-125889285D01*
X118296428Y-125932142D01*
X118296428Y-126017857D01*
X118317857Y-126060714D01*
X118339285Y-126082142D01*
X118382142Y-126103571D01*
X118467857Y-126103571D01*
X118510714Y-126082142D01*
X118532142Y-126060714D01*
X118553571Y-126017857D01*
X118553571Y-125932142D01*
X118532142Y-125889285D01*
X118510714Y-125867857D01*
X118467857Y-125846428D01*
X116925000Y-126060714D02*
X116903571Y-126082142D01*
X116839285Y-126103571D01*
X116796428Y-126103571D01*
X116732142Y-126082142D01*
X116689285Y-126039285D01*
X116667857Y-125996428D01*
X116646428Y-125910714D01*
X116646428Y-125846428D01*
X116667857Y-125760714D01*
X116689285Y-125717857D01*
X116732142Y-125675000D01*
X116796428Y-125653571D01*
X116839285Y-125653571D01*
X116903571Y-125675000D01*
X116925000Y-125696428D01*
X117075000Y-125653571D02*
X117375000Y-125653571D01*
X117182142Y-126103571D01*
X113325000Y-110360714D02*
X113303571Y-110382142D01*
X113239285Y-110403571D01*
X113196428Y-110403571D01*
X113132142Y-110382142D01*
X113089285Y-110339285D01*
X113067857Y-110296428D01*
X113046428Y-110210714D01*
X113046428Y-110146428D01*
X113067857Y-110060714D01*
X113089285Y-110017857D01*
X113132142Y-109975000D01*
X113196428Y-109953571D01*
X113239285Y-109953571D01*
X113303571Y-109975000D01*
X113325000Y-109996428D01*
X113710714Y-109953571D02*
X113625000Y-109953571D01*
X113582142Y-109975000D01*
X113560714Y-109996428D01*
X113517857Y-110060714D01*
X113496428Y-110146428D01*
X113496428Y-110317857D01*
X113517857Y-110360714D01*
X113539285Y-110382142D01*
X113582142Y-110403571D01*
X113667857Y-110403571D01*
X113710714Y-110382142D01*
X113732142Y-110360714D01*
X113753571Y-110317857D01*
X113753571Y-110210714D01*
X113732142Y-110167857D01*
X113710714Y-110146428D01*
X113667857Y-110125000D01*
X113582142Y-110125000D01*
X113539285Y-110146428D01*
X113517857Y-110167857D01*
X113496428Y-110210714D01*
X112125000Y-110360714D02*
X112103571Y-110382142D01*
X112039285Y-110403571D01*
X111996428Y-110403571D01*
X111932142Y-110382142D01*
X111889285Y-110339285D01*
X111867857Y-110296428D01*
X111846428Y-110210714D01*
X111846428Y-110146428D01*
X111867857Y-110060714D01*
X111889285Y-110017857D01*
X111932142Y-109975000D01*
X111996428Y-109953571D01*
X112039285Y-109953571D01*
X112103571Y-109975000D01*
X112125000Y-109996428D01*
X112532142Y-109953571D02*
X112317857Y-109953571D01*
X112296428Y-110167857D01*
X112317857Y-110146428D01*
X112360714Y-110125000D01*
X112467857Y-110125000D01*
X112510714Y-110146428D01*
X112532142Y-110167857D01*
X112553571Y-110210714D01*
X112553571Y-110317857D01*
X112532142Y-110360714D01*
X112510714Y-110382142D01*
X112467857Y-110403571D01*
X112360714Y-110403571D01*
X112317857Y-110382142D01*
X112296428Y-110360714D01*
X110725000Y-123160714D02*
X110703571Y-123182142D01*
X110639285Y-123203571D01*
X110596428Y-123203571D01*
X110532142Y-123182142D01*
X110489285Y-123139285D01*
X110467857Y-123096428D01*
X110446428Y-123010714D01*
X110446428Y-122946428D01*
X110467857Y-122860714D01*
X110489285Y-122817857D01*
X110532142Y-122775000D01*
X110596428Y-122753571D01*
X110639285Y-122753571D01*
X110703571Y-122775000D01*
X110725000Y-122796428D01*
X111110714Y-122903571D02*
X111110714Y-123203571D01*
X111003571Y-122732142D02*
X110896428Y-123053571D01*
X111175000Y-123053571D01*
M02*
