M48
; DRILL file {KiCad 5.1.4+dfsg1-1} date So 22 Dez 2019 00:58:56 CET
; FORMAT={-:-/ absolute / inch / decimal}
; #@! TF.CreationDate,2019-12-22T00:58:56+01:00
; #@! TF.GenerationSoftware,Kicad,Pcbnew,5.1.4+dfsg1-1
; #@! TF.FileFunction,Plated,1,2,PTH
FMAT,2
INCH
T1C0.0118
T2C0.0236
%
G90
G05
T1
X4.8098Y-4.8583
X4.8209Y-4.8051
X4.889Y-5.2063
X4.8898Y-4.8047
X4.9484Y-5.439
X4.9528Y-4.9449
X4.9528Y-4.9744
X4.9634Y-4.8732
X4.9634Y-5.0378
X4.9701Y-5.5358
X4.9843Y-4.9449
X4.9843Y-4.9744
X5.0157Y-4.9449
X5.0157Y-4.9744
X5.0181Y-5.1913
X5.0197Y-4.8724
X5.0339Y-5.2484
X5.0362Y-5.3646
X5.0575Y-5.0673
X5.0783Y-4.8417
X5.0972Y-5.3516
X5.113Y-5.424
X5.1181Y-4.5291
X5.1228Y-4.6346
X5.126Y-4.7323
X5.126Y-5.0709
X5.1291Y-5.3528
X5.1783Y-5.2709
X5.1866Y-4.6535
X5.2098Y-5.2728
X5.2177Y-4.6445
X5.2177Y-4.7516
X5.226Y-5.3744
X5.2378Y-5.0886
X5.2531Y-4.5268
X5.2623Y-5.1245
X5.2638Y-4.6354
X5.2835Y-5.0929
X5.3039Y-5.2693
X5.3116Y-5.1249
X5.3472Y-5.1232
X5.363Y-5.0732
X5.3807Y-5.3736
X5.389Y-5.2705
X5.3933Y-4.5303
X5.3988Y-5.0638
X5.4096Y-4.998
X5.4252Y-5.6457
X5.4311Y-4.7476
X5.4311Y-4.828
X5.4311Y-4.924
X5.4386Y-4.6362
X5.4406Y-5.026
X5.4744Y-4.5268
X5.4764Y-4.7874
X5.4764Y-4.811
X5.4783Y-5.0417
X5.4831Y-5.3524
X5.4835Y-5.172
X5.5248Y-4.6402
X5.5268Y-5.4276
X5.5697Y-4.7575
X5.5933Y-4.8898
X5.6067Y-4.6382
X5.6165Y-5.1567
X5.6177Y-5.2406
X5.6307Y-4.8898
X5.6378Y-4.7283
X5.6465Y-5.3894
X5.6551Y-5.2925
X5.6614Y-4.7283
X5.687Y-5.6028
X5.7008Y-5.4488
X5.7008Y-5.5118
X5.7043Y-4.6378
X5.7287Y-5.1232
X5.7343Y-4.9768
X5.7366Y-4.7213
X5.7638Y-4.8677
X5.7669Y-5.4846
X5.7874Y-5.4488
X5.7894Y-5.5657
X5.7913Y-4.526
X5.8091Y-4.6657
X5.811Y-4.7134
X5.8571Y-5.3925
X5.8579Y-5.4874
X5.8752Y-5.6583
X5.8831Y-4.8669
X5.8969Y-4.9693
X5.9449Y-4.6669
X5.9457Y-4.6323
X5.9461Y-4.8831
X5.9461Y-4.9657
X6.0091Y-4.8433
X6.0335Y-4.5287
X6.0516Y-5.4622
X6.0866Y-5.352
X6.0957Y-4.7689
X6.1106Y-5.4126
X6.1244Y-5.0264
X6.137Y-4.8394
X6.1449Y-4.5303
X6.2256Y-4.9638
X6.2256Y-5.1276
X6.2256Y-5.2909
X6.237Y-4.5783
X6.2669Y-5.4524
X6.2776Y-4.8118
X6.437Y-5.5311
X6.4409Y-5.676
T2
G00X4.8996Y-5.3224
M15
G01X4.8996Y-5.2831
M16
G05
G00X4.8996Y-5.5894
M15
G01X4.8996Y-5.55
M16
G05
G00X5.5492Y-5.3224
M15
G01X5.5492Y-5.2831
M16
G05
G00X5.5492Y-5.5894
M15
G01X5.5492Y-5.55
M16
G05
G00X5.9949Y-5.502
M15
G01X5.9949Y-5.5335
M16
G05
G00X5.9949Y-5.6516
M15
G01X5.9949Y-5.6831
M16
G05
G00X6.328Y-5.502
M15
G01X6.328Y-5.5335
M16
G05
G00X6.328Y-5.6516
M15
G01X6.328Y-5.6831
M16
G05
T0
M30
