G04 #@! TF.GenerationSoftware,KiCad,Pcbnew,5.1.2*
G04 #@! TF.CreationDate,2019-07-22T02:15:18+02:00*
G04 #@! TF.ProjectId,OtterScreen,4f747465-7253-4637-9265-656e2e6b6963,rev?*
G04 #@! TF.SameCoordinates,Original*
G04 #@! TF.FileFunction,Paste,Top*
G04 #@! TF.FilePolarity,Positive*
%FSLAX46Y46*%
G04 Gerber Fmt 4.6, Leading zero omitted, Abs format (unit mm)*
G04 Created by KiCad (PCBNEW 5.1.2) date 2019-07-22 02:15:18*
%MOMM*%
%LPD*%
G04 APERTURE LIST*
%ADD10C,0.150000*%
%ADD11R,0.280000X2.400000*%
%ADD12R,0.650000X1.060000*%
%ADD13R,1.750000X0.550000*%
%ADD14R,1.400000X1.500000*%
%ADD15R,1.400000X1.200000*%
%ADD16C,0.100000*%
%ADD17C,0.975000*%
%ADD18C,0.875000*%
%ADD19R,1.200000X3.700000*%
%ADD20R,1.100000X1.100000*%
%ADD21R,0.800000X1.000000*%
%ADD22R,0.700000X1.000000*%
%ADD23R,0.300000X0.950000*%
%ADD24R,0.260000X1.000000*%
%ADD25R,0.450000X0.900000*%
G04 APERTURE END LIST*
D10*
X164099999Y-114200001D02*
G75*
G02X165800000Y-115900000I1J-1700000D01*
G01*
X121000001Y-115900001D02*
G75*
G02X122700000Y-114200000I1700000J1D01*
G01*
X122700001Y-145599999D02*
G75*
G02X121000000Y-143900000I-1J1700000D01*
G01*
X165800000Y-143900000D02*
G75*
G02X164100000Y-145600000I-1700000J0D01*
G01*
X164100000Y-145600000D02*
X136200000Y-145600000D01*
X165800000Y-115900000D02*
X165800000Y-143900000D01*
X122700000Y-114200000D02*
X164099999Y-114200001D01*
X121000000Y-143900000D02*
X121000001Y-115900001D01*
X136200000Y-145600000D02*
X122700001Y-145599999D01*
D11*
X153650000Y-131940000D03*
X153150000Y-131940000D03*
X152650000Y-131940000D03*
X152150000Y-131940000D03*
X151650000Y-131940000D03*
X151150000Y-131940000D03*
X150650000Y-131940000D03*
X150150000Y-131940000D03*
X149650000Y-131940000D03*
X149150000Y-131940000D03*
X148650000Y-131940000D03*
X148150000Y-131940000D03*
X147650000Y-131940000D03*
X147150000Y-131940000D03*
X146650000Y-131940000D03*
X146150000Y-131940000D03*
X145650000Y-131940000D03*
X145150000Y-131940000D03*
X144650000Y-131940000D03*
X144150000Y-131940000D03*
D12*
X130153932Y-123274265D03*
X129203932Y-123274265D03*
X131103932Y-123274265D03*
X131103932Y-125474265D03*
X130153932Y-125474265D03*
X129203932Y-125474265D03*
X130175000Y-115550000D03*
X129225000Y-115550000D03*
X131125000Y-115550000D03*
X131125000Y-117750000D03*
X130175000Y-117750000D03*
X129225000Y-117750000D03*
D13*
X127800000Y-136130000D03*
X127800000Y-134860000D03*
X127800000Y-133590000D03*
X127800000Y-132320000D03*
X135200000Y-132320000D03*
X135200000Y-133590000D03*
X135200000Y-134860000D03*
X135200000Y-136130000D03*
D14*
X164475000Y-116225000D03*
X164475000Y-132325000D03*
D15*
X154475000Y-128275000D03*
X154475000Y-120275000D03*
X154475000Y-126275000D03*
X154475000Y-122275000D03*
X154475000Y-124275000D03*
D16*
G36*
X134234074Y-123237939D02*
G01*
X134257735Y-123241449D01*
X134280939Y-123247261D01*
X134303461Y-123255319D01*
X134325085Y-123265547D01*
X134345602Y-123277844D01*
X134364815Y-123292094D01*
X134382539Y-123308158D01*
X134398603Y-123325882D01*
X134412853Y-123345095D01*
X134425150Y-123365612D01*
X134435378Y-123387236D01*
X134443436Y-123409758D01*
X134449248Y-123432962D01*
X134452758Y-123456623D01*
X134453932Y-123480515D01*
X134453932Y-123968015D01*
X134452758Y-123991907D01*
X134449248Y-124015568D01*
X134443436Y-124038772D01*
X134435378Y-124061294D01*
X134425150Y-124082918D01*
X134412853Y-124103435D01*
X134398603Y-124122648D01*
X134382539Y-124140372D01*
X134364815Y-124156436D01*
X134345602Y-124170686D01*
X134325085Y-124182983D01*
X134303461Y-124193211D01*
X134280939Y-124201269D01*
X134257735Y-124207081D01*
X134234074Y-124210591D01*
X134210182Y-124211765D01*
X133297682Y-124211765D01*
X133273790Y-124210591D01*
X133250129Y-124207081D01*
X133226925Y-124201269D01*
X133204403Y-124193211D01*
X133182779Y-124182983D01*
X133162262Y-124170686D01*
X133143049Y-124156436D01*
X133125325Y-124140372D01*
X133109261Y-124122648D01*
X133095011Y-124103435D01*
X133082714Y-124082918D01*
X133072486Y-124061294D01*
X133064428Y-124038772D01*
X133058616Y-124015568D01*
X133055106Y-123991907D01*
X133053932Y-123968015D01*
X133053932Y-123480515D01*
X133055106Y-123456623D01*
X133058616Y-123432962D01*
X133064428Y-123409758D01*
X133072486Y-123387236D01*
X133082714Y-123365612D01*
X133095011Y-123345095D01*
X133109261Y-123325882D01*
X133125325Y-123308158D01*
X133143049Y-123292094D01*
X133162262Y-123277844D01*
X133182779Y-123265547D01*
X133204403Y-123255319D01*
X133226925Y-123247261D01*
X133250129Y-123241449D01*
X133273790Y-123237939D01*
X133297682Y-123236765D01*
X134210182Y-123236765D01*
X134234074Y-123237939D01*
X134234074Y-123237939D01*
G37*
D17*
X133753932Y-123724265D03*
D16*
G36*
X134234074Y-125112939D02*
G01*
X134257735Y-125116449D01*
X134280939Y-125122261D01*
X134303461Y-125130319D01*
X134325085Y-125140547D01*
X134345602Y-125152844D01*
X134364815Y-125167094D01*
X134382539Y-125183158D01*
X134398603Y-125200882D01*
X134412853Y-125220095D01*
X134425150Y-125240612D01*
X134435378Y-125262236D01*
X134443436Y-125284758D01*
X134449248Y-125307962D01*
X134452758Y-125331623D01*
X134453932Y-125355515D01*
X134453932Y-125843015D01*
X134452758Y-125866907D01*
X134449248Y-125890568D01*
X134443436Y-125913772D01*
X134435378Y-125936294D01*
X134425150Y-125957918D01*
X134412853Y-125978435D01*
X134398603Y-125997648D01*
X134382539Y-126015372D01*
X134364815Y-126031436D01*
X134345602Y-126045686D01*
X134325085Y-126057983D01*
X134303461Y-126068211D01*
X134280939Y-126076269D01*
X134257735Y-126082081D01*
X134234074Y-126085591D01*
X134210182Y-126086765D01*
X133297682Y-126086765D01*
X133273790Y-126085591D01*
X133250129Y-126082081D01*
X133226925Y-126076269D01*
X133204403Y-126068211D01*
X133182779Y-126057983D01*
X133162262Y-126045686D01*
X133143049Y-126031436D01*
X133125325Y-126015372D01*
X133109261Y-125997648D01*
X133095011Y-125978435D01*
X133082714Y-125957918D01*
X133072486Y-125936294D01*
X133064428Y-125913772D01*
X133058616Y-125890568D01*
X133055106Y-125866907D01*
X133053932Y-125843015D01*
X133053932Y-125355515D01*
X133055106Y-125331623D01*
X133058616Y-125307962D01*
X133064428Y-125284758D01*
X133072486Y-125262236D01*
X133082714Y-125240612D01*
X133095011Y-125220095D01*
X133109261Y-125200882D01*
X133125325Y-125183158D01*
X133143049Y-125167094D01*
X133162262Y-125152844D01*
X133182779Y-125140547D01*
X133204403Y-125130319D01*
X133226925Y-125122261D01*
X133250129Y-125116449D01*
X133273790Y-125112939D01*
X133297682Y-125111765D01*
X134210182Y-125111765D01*
X134234074Y-125112939D01*
X134234074Y-125112939D01*
G37*
D17*
X133753932Y-125599265D03*
D16*
G36*
X134205142Y-115413675D02*
G01*
X134228803Y-115417185D01*
X134252007Y-115422997D01*
X134274529Y-115431055D01*
X134296153Y-115441283D01*
X134316670Y-115453580D01*
X134335883Y-115467830D01*
X134353607Y-115483894D01*
X134369671Y-115501618D01*
X134383921Y-115520831D01*
X134396218Y-115541348D01*
X134406446Y-115562972D01*
X134414504Y-115585494D01*
X134420316Y-115608698D01*
X134423826Y-115632359D01*
X134425000Y-115656251D01*
X134425000Y-116143751D01*
X134423826Y-116167643D01*
X134420316Y-116191304D01*
X134414504Y-116214508D01*
X134406446Y-116237030D01*
X134396218Y-116258654D01*
X134383921Y-116279171D01*
X134369671Y-116298384D01*
X134353607Y-116316108D01*
X134335883Y-116332172D01*
X134316670Y-116346422D01*
X134296153Y-116358719D01*
X134274529Y-116368947D01*
X134252007Y-116377005D01*
X134228803Y-116382817D01*
X134205142Y-116386327D01*
X134181250Y-116387501D01*
X133268750Y-116387501D01*
X133244858Y-116386327D01*
X133221197Y-116382817D01*
X133197993Y-116377005D01*
X133175471Y-116368947D01*
X133153847Y-116358719D01*
X133133330Y-116346422D01*
X133114117Y-116332172D01*
X133096393Y-116316108D01*
X133080329Y-116298384D01*
X133066079Y-116279171D01*
X133053782Y-116258654D01*
X133043554Y-116237030D01*
X133035496Y-116214508D01*
X133029684Y-116191304D01*
X133026174Y-116167643D01*
X133025000Y-116143751D01*
X133025000Y-115656251D01*
X133026174Y-115632359D01*
X133029684Y-115608698D01*
X133035496Y-115585494D01*
X133043554Y-115562972D01*
X133053782Y-115541348D01*
X133066079Y-115520831D01*
X133080329Y-115501618D01*
X133096393Y-115483894D01*
X133114117Y-115467830D01*
X133133330Y-115453580D01*
X133153847Y-115441283D01*
X133175471Y-115431055D01*
X133197993Y-115422997D01*
X133221197Y-115417185D01*
X133244858Y-115413675D01*
X133268750Y-115412501D01*
X134181250Y-115412501D01*
X134205142Y-115413675D01*
X134205142Y-115413675D01*
G37*
D17*
X133725000Y-115900001D03*
D16*
G36*
X134205142Y-117288675D02*
G01*
X134228803Y-117292185D01*
X134252007Y-117297997D01*
X134274529Y-117306055D01*
X134296153Y-117316283D01*
X134316670Y-117328580D01*
X134335883Y-117342830D01*
X134353607Y-117358894D01*
X134369671Y-117376618D01*
X134383921Y-117395831D01*
X134396218Y-117416348D01*
X134406446Y-117437972D01*
X134414504Y-117460494D01*
X134420316Y-117483698D01*
X134423826Y-117507359D01*
X134425000Y-117531251D01*
X134425000Y-118018751D01*
X134423826Y-118042643D01*
X134420316Y-118066304D01*
X134414504Y-118089508D01*
X134406446Y-118112030D01*
X134396218Y-118133654D01*
X134383921Y-118154171D01*
X134369671Y-118173384D01*
X134353607Y-118191108D01*
X134335883Y-118207172D01*
X134316670Y-118221422D01*
X134296153Y-118233719D01*
X134274529Y-118243947D01*
X134252007Y-118252005D01*
X134228803Y-118257817D01*
X134205142Y-118261327D01*
X134181250Y-118262501D01*
X133268750Y-118262501D01*
X133244858Y-118261327D01*
X133221197Y-118257817D01*
X133197993Y-118252005D01*
X133175471Y-118243947D01*
X133153847Y-118233719D01*
X133133330Y-118221422D01*
X133114117Y-118207172D01*
X133096393Y-118191108D01*
X133080329Y-118173384D01*
X133066079Y-118154171D01*
X133053782Y-118133654D01*
X133043554Y-118112030D01*
X133035496Y-118089508D01*
X133029684Y-118066304D01*
X133026174Y-118042643D01*
X133025000Y-118018751D01*
X133025000Y-117531251D01*
X133026174Y-117507359D01*
X133029684Y-117483698D01*
X133035496Y-117460494D01*
X133043554Y-117437972D01*
X133053782Y-117416348D01*
X133066079Y-117395831D01*
X133080329Y-117376618D01*
X133096393Y-117358894D01*
X133114117Y-117342830D01*
X133133330Y-117328580D01*
X133153847Y-117316283D01*
X133175471Y-117306055D01*
X133197993Y-117297997D01*
X133221197Y-117292185D01*
X133244858Y-117288675D01*
X133268750Y-117287501D01*
X134181250Y-117287501D01*
X134205142Y-117288675D01*
X134205142Y-117288675D01*
G37*
D17*
X133725000Y-117775001D03*
D16*
G36*
X139627691Y-131226053D02*
G01*
X139648926Y-131229203D01*
X139669750Y-131234419D01*
X139689962Y-131241651D01*
X139709368Y-131250830D01*
X139727781Y-131261866D01*
X139745024Y-131274654D01*
X139760930Y-131289070D01*
X139775346Y-131304976D01*
X139788134Y-131322219D01*
X139799170Y-131340632D01*
X139808349Y-131360038D01*
X139815581Y-131380250D01*
X139820797Y-131401074D01*
X139823947Y-131422309D01*
X139825000Y-131443750D01*
X139825000Y-131956250D01*
X139823947Y-131977691D01*
X139820797Y-131998926D01*
X139815581Y-132019750D01*
X139808349Y-132039962D01*
X139799170Y-132059368D01*
X139788134Y-132077781D01*
X139775346Y-132095024D01*
X139760930Y-132110930D01*
X139745024Y-132125346D01*
X139727781Y-132138134D01*
X139709368Y-132149170D01*
X139689962Y-132158349D01*
X139669750Y-132165581D01*
X139648926Y-132170797D01*
X139627691Y-132173947D01*
X139606250Y-132175000D01*
X139168750Y-132175000D01*
X139147309Y-132173947D01*
X139126074Y-132170797D01*
X139105250Y-132165581D01*
X139085038Y-132158349D01*
X139065632Y-132149170D01*
X139047219Y-132138134D01*
X139029976Y-132125346D01*
X139014070Y-132110930D01*
X138999654Y-132095024D01*
X138986866Y-132077781D01*
X138975830Y-132059368D01*
X138966651Y-132039962D01*
X138959419Y-132019750D01*
X138954203Y-131998926D01*
X138951053Y-131977691D01*
X138950000Y-131956250D01*
X138950000Y-131443750D01*
X138951053Y-131422309D01*
X138954203Y-131401074D01*
X138959419Y-131380250D01*
X138966651Y-131360038D01*
X138975830Y-131340632D01*
X138986866Y-131322219D01*
X138999654Y-131304976D01*
X139014070Y-131289070D01*
X139029976Y-131274654D01*
X139047219Y-131261866D01*
X139065632Y-131250830D01*
X139085038Y-131241651D01*
X139105250Y-131234419D01*
X139126074Y-131229203D01*
X139147309Y-131226053D01*
X139168750Y-131225000D01*
X139606250Y-131225000D01*
X139627691Y-131226053D01*
X139627691Y-131226053D01*
G37*
D18*
X139387500Y-131700000D03*
D16*
G36*
X138052691Y-131226053D02*
G01*
X138073926Y-131229203D01*
X138094750Y-131234419D01*
X138114962Y-131241651D01*
X138134368Y-131250830D01*
X138152781Y-131261866D01*
X138170024Y-131274654D01*
X138185930Y-131289070D01*
X138200346Y-131304976D01*
X138213134Y-131322219D01*
X138224170Y-131340632D01*
X138233349Y-131360038D01*
X138240581Y-131380250D01*
X138245797Y-131401074D01*
X138248947Y-131422309D01*
X138250000Y-131443750D01*
X138250000Y-131956250D01*
X138248947Y-131977691D01*
X138245797Y-131998926D01*
X138240581Y-132019750D01*
X138233349Y-132039962D01*
X138224170Y-132059368D01*
X138213134Y-132077781D01*
X138200346Y-132095024D01*
X138185930Y-132110930D01*
X138170024Y-132125346D01*
X138152781Y-132138134D01*
X138134368Y-132149170D01*
X138114962Y-132158349D01*
X138094750Y-132165581D01*
X138073926Y-132170797D01*
X138052691Y-132173947D01*
X138031250Y-132175000D01*
X137593750Y-132175000D01*
X137572309Y-132173947D01*
X137551074Y-132170797D01*
X137530250Y-132165581D01*
X137510038Y-132158349D01*
X137490632Y-132149170D01*
X137472219Y-132138134D01*
X137454976Y-132125346D01*
X137439070Y-132110930D01*
X137424654Y-132095024D01*
X137411866Y-132077781D01*
X137400830Y-132059368D01*
X137391651Y-132039962D01*
X137384419Y-132019750D01*
X137379203Y-131998926D01*
X137376053Y-131977691D01*
X137375000Y-131956250D01*
X137375000Y-131443750D01*
X137376053Y-131422309D01*
X137379203Y-131401074D01*
X137384419Y-131380250D01*
X137391651Y-131360038D01*
X137400830Y-131340632D01*
X137411866Y-131322219D01*
X137424654Y-131304976D01*
X137439070Y-131289070D01*
X137454976Y-131274654D01*
X137472219Y-131261866D01*
X137490632Y-131250830D01*
X137510038Y-131241651D01*
X137530250Y-131234419D01*
X137551074Y-131229203D01*
X137572309Y-131226053D01*
X137593750Y-131225000D01*
X138031250Y-131225000D01*
X138052691Y-131226053D01*
X138052691Y-131226053D01*
G37*
D18*
X137812500Y-131700000D03*
D19*
X127453932Y-127400000D03*
X124653932Y-127400000D03*
X127525000Y-119700000D03*
X124725000Y-119700000D03*
D20*
X129150000Y-128700000D03*
X131950000Y-128700000D03*
X129175000Y-120850000D03*
X131975000Y-120850000D03*
X125250001Y-135575000D03*
X125250001Y-132775000D03*
D16*
G36*
X134234074Y-126750438D02*
G01*
X134257735Y-126753948D01*
X134280939Y-126759760D01*
X134303461Y-126767818D01*
X134325085Y-126778046D01*
X134345602Y-126790343D01*
X134364815Y-126804593D01*
X134382539Y-126820657D01*
X134398603Y-126838381D01*
X134412853Y-126857594D01*
X134425150Y-126878111D01*
X134435378Y-126899735D01*
X134443436Y-126922257D01*
X134449248Y-126945461D01*
X134452758Y-126969122D01*
X134453932Y-126993014D01*
X134453932Y-127480514D01*
X134452758Y-127504406D01*
X134449248Y-127528067D01*
X134443436Y-127551271D01*
X134435378Y-127573793D01*
X134425150Y-127595417D01*
X134412853Y-127615934D01*
X134398603Y-127635147D01*
X134382539Y-127652871D01*
X134364815Y-127668935D01*
X134345602Y-127683185D01*
X134325085Y-127695482D01*
X134303461Y-127705710D01*
X134280939Y-127713768D01*
X134257735Y-127719580D01*
X134234074Y-127723090D01*
X134210182Y-127724264D01*
X133297682Y-127724264D01*
X133273790Y-127723090D01*
X133250129Y-127719580D01*
X133226925Y-127713768D01*
X133204403Y-127705710D01*
X133182779Y-127695482D01*
X133162262Y-127683185D01*
X133143049Y-127668935D01*
X133125325Y-127652871D01*
X133109261Y-127635147D01*
X133095011Y-127615934D01*
X133082714Y-127595417D01*
X133072486Y-127573793D01*
X133064428Y-127551271D01*
X133058616Y-127528067D01*
X133055106Y-127504406D01*
X133053932Y-127480514D01*
X133053932Y-126993014D01*
X133055106Y-126969122D01*
X133058616Y-126945461D01*
X133064428Y-126922257D01*
X133072486Y-126899735D01*
X133082714Y-126878111D01*
X133095011Y-126857594D01*
X133109261Y-126838381D01*
X133125325Y-126820657D01*
X133143049Y-126804593D01*
X133162262Y-126790343D01*
X133182779Y-126778046D01*
X133204403Y-126767818D01*
X133226925Y-126759760D01*
X133250129Y-126753948D01*
X133273790Y-126750438D01*
X133297682Y-126749264D01*
X134210182Y-126749264D01*
X134234074Y-126750438D01*
X134234074Y-126750438D01*
G37*
D17*
X133753932Y-127236764D03*
D16*
G36*
X134234074Y-128625438D02*
G01*
X134257735Y-128628948D01*
X134280939Y-128634760D01*
X134303461Y-128642818D01*
X134325085Y-128653046D01*
X134345602Y-128665343D01*
X134364815Y-128679593D01*
X134382539Y-128695657D01*
X134398603Y-128713381D01*
X134412853Y-128732594D01*
X134425150Y-128753111D01*
X134435378Y-128774735D01*
X134443436Y-128797257D01*
X134449248Y-128820461D01*
X134452758Y-128844122D01*
X134453932Y-128868014D01*
X134453932Y-129355514D01*
X134452758Y-129379406D01*
X134449248Y-129403067D01*
X134443436Y-129426271D01*
X134435378Y-129448793D01*
X134425150Y-129470417D01*
X134412853Y-129490934D01*
X134398603Y-129510147D01*
X134382539Y-129527871D01*
X134364815Y-129543935D01*
X134345602Y-129558185D01*
X134325085Y-129570482D01*
X134303461Y-129580710D01*
X134280939Y-129588768D01*
X134257735Y-129594580D01*
X134234074Y-129598090D01*
X134210182Y-129599264D01*
X133297682Y-129599264D01*
X133273790Y-129598090D01*
X133250129Y-129594580D01*
X133226925Y-129588768D01*
X133204403Y-129580710D01*
X133182779Y-129570482D01*
X133162262Y-129558185D01*
X133143049Y-129543935D01*
X133125325Y-129527871D01*
X133109261Y-129510147D01*
X133095011Y-129490934D01*
X133082714Y-129470417D01*
X133072486Y-129448793D01*
X133064428Y-129426271D01*
X133058616Y-129403067D01*
X133055106Y-129379406D01*
X133053932Y-129355514D01*
X133053932Y-128868014D01*
X133055106Y-128844122D01*
X133058616Y-128820461D01*
X133064428Y-128797257D01*
X133072486Y-128774735D01*
X133082714Y-128753111D01*
X133095011Y-128732594D01*
X133109261Y-128713381D01*
X133125325Y-128695657D01*
X133143049Y-128679593D01*
X133162262Y-128665343D01*
X133182779Y-128653046D01*
X133204403Y-128642818D01*
X133226925Y-128634760D01*
X133250129Y-128628948D01*
X133273790Y-128625438D01*
X133297682Y-128624264D01*
X134210182Y-128624264D01*
X134234074Y-128625438D01*
X134234074Y-128625438D01*
G37*
D17*
X133753932Y-129111764D03*
D16*
G36*
X127846574Y-123501174D02*
G01*
X127870235Y-123504684D01*
X127893439Y-123510496D01*
X127915961Y-123518554D01*
X127937585Y-123528782D01*
X127958102Y-123541079D01*
X127977315Y-123555329D01*
X127995039Y-123571393D01*
X128011103Y-123589117D01*
X128025353Y-123608330D01*
X128037650Y-123628847D01*
X128047878Y-123650471D01*
X128055936Y-123672993D01*
X128061748Y-123696197D01*
X128065258Y-123719858D01*
X128066432Y-123743750D01*
X128066432Y-124656250D01*
X128065258Y-124680142D01*
X128061748Y-124703803D01*
X128055936Y-124727007D01*
X128047878Y-124749529D01*
X128037650Y-124771153D01*
X128025353Y-124791670D01*
X128011103Y-124810883D01*
X127995039Y-124828607D01*
X127977315Y-124844671D01*
X127958102Y-124858921D01*
X127937585Y-124871218D01*
X127915961Y-124881446D01*
X127893439Y-124889504D01*
X127870235Y-124895316D01*
X127846574Y-124898826D01*
X127822682Y-124900000D01*
X127335182Y-124900000D01*
X127311290Y-124898826D01*
X127287629Y-124895316D01*
X127264425Y-124889504D01*
X127241903Y-124881446D01*
X127220279Y-124871218D01*
X127199762Y-124858921D01*
X127180549Y-124844671D01*
X127162825Y-124828607D01*
X127146761Y-124810883D01*
X127132511Y-124791670D01*
X127120214Y-124771153D01*
X127109986Y-124749529D01*
X127101928Y-124727007D01*
X127096116Y-124703803D01*
X127092606Y-124680142D01*
X127091432Y-124656250D01*
X127091432Y-123743750D01*
X127092606Y-123719858D01*
X127096116Y-123696197D01*
X127101928Y-123672993D01*
X127109986Y-123650471D01*
X127120214Y-123628847D01*
X127132511Y-123608330D01*
X127146761Y-123589117D01*
X127162825Y-123571393D01*
X127180549Y-123555329D01*
X127199762Y-123541079D01*
X127220279Y-123528782D01*
X127241903Y-123518554D01*
X127264425Y-123510496D01*
X127287629Y-123504684D01*
X127311290Y-123501174D01*
X127335182Y-123500000D01*
X127822682Y-123500000D01*
X127846574Y-123501174D01*
X127846574Y-123501174D01*
G37*
D17*
X127578932Y-124200000D03*
D16*
G36*
X125971574Y-123501174D02*
G01*
X125995235Y-123504684D01*
X126018439Y-123510496D01*
X126040961Y-123518554D01*
X126062585Y-123528782D01*
X126083102Y-123541079D01*
X126102315Y-123555329D01*
X126120039Y-123571393D01*
X126136103Y-123589117D01*
X126150353Y-123608330D01*
X126162650Y-123628847D01*
X126172878Y-123650471D01*
X126180936Y-123672993D01*
X126186748Y-123696197D01*
X126190258Y-123719858D01*
X126191432Y-123743750D01*
X126191432Y-124656250D01*
X126190258Y-124680142D01*
X126186748Y-124703803D01*
X126180936Y-124727007D01*
X126172878Y-124749529D01*
X126162650Y-124771153D01*
X126150353Y-124791670D01*
X126136103Y-124810883D01*
X126120039Y-124828607D01*
X126102315Y-124844671D01*
X126083102Y-124858921D01*
X126062585Y-124871218D01*
X126040961Y-124881446D01*
X126018439Y-124889504D01*
X125995235Y-124895316D01*
X125971574Y-124898826D01*
X125947682Y-124900000D01*
X125460182Y-124900000D01*
X125436290Y-124898826D01*
X125412629Y-124895316D01*
X125389425Y-124889504D01*
X125366903Y-124881446D01*
X125345279Y-124871218D01*
X125324762Y-124858921D01*
X125305549Y-124844671D01*
X125287825Y-124828607D01*
X125271761Y-124810883D01*
X125257511Y-124791670D01*
X125245214Y-124771153D01*
X125234986Y-124749529D01*
X125226928Y-124727007D01*
X125221116Y-124703803D01*
X125217606Y-124680142D01*
X125216432Y-124656250D01*
X125216432Y-123743750D01*
X125217606Y-123719858D01*
X125221116Y-123696197D01*
X125226928Y-123672993D01*
X125234986Y-123650471D01*
X125245214Y-123628847D01*
X125257511Y-123608330D01*
X125271761Y-123589117D01*
X125287825Y-123571393D01*
X125305549Y-123555329D01*
X125324762Y-123541079D01*
X125345279Y-123528782D01*
X125366903Y-123518554D01*
X125389425Y-123510496D01*
X125412629Y-123504684D01*
X125436290Y-123501174D01*
X125460182Y-123500000D01*
X125947682Y-123500000D01*
X125971574Y-123501174D01*
X125971574Y-123501174D01*
G37*
D17*
X125703932Y-124200000D03*
D16*
G36*
X134205142Y-118876174D02*
G01*
X134228803Y-118879684D01*
X134252007Y-118885496D01*
X134274529Y-118893554D01*
X134296153Y-118903782D01*
X134316670Y-118916079D01*
X134335883Y-118930329D01*
X134353607Y-118946393D01*
X134369671Y-118964117D01*
X134383921Y-118983330D01*
X134396218Y-119003847D01*
X134406446Y-119025471D01*
X134414504Y-119047993D01*
X134420316Y-119071197D01*
X134423826Y-119094858D01*
X134425000Y-119118750D01*
X134425000Y-119606250D01*
X134423826Y-119630142D01*
X134420316Y-119653803D01*
X134414504Y-119677007D01*
X134406446Y-119699529D01*
X134396218Y-119721153D01*
X134383921Y-119741670D01*
X134369671Y-119760883D01*
X134353607Y-119778607D01*
X134335883Y-119794671D01*
X134316670Y-119808921D01*
X134296153Y-119821218D01*
X134274529Y-119831446D01*
X134252007Y-119839504D01*
X134228803Y-119845316D01*
X134205142Y-119848826D01*
X134181250Y-119850000D01*
X133268750Y-119850000D01*
X133244858Y-119848826D01*
X133221197Y-119845316D01*
X133197993Y-119839504D01*
X133175471Y-119831446D01*
X133153847Y-119821218D01*
X133133330Y-119808921D01*
X133114117Y-119794671D01*
X133096393Y-119778607D01*
X133080329Y-119760883D01*
X133066079Y-119741670D01*
X133053782Y-119721153D01*
X133043554Y-119699529D01*
X133035496Y-119677007D01*
X133029684Y-119653803D01*
X133026174Y-119630142D01*
X133025000Y-119606250D01*
X133025000Y-119118750D01*
X133026174Y-119094858D01*
X133029684Y-119071197D01*
X133035496Y-119047993D01*
X133043554Y-119025471D01*
X133053782Y-119003847D01*
X133066079Y-118983330D01*
X133080329Y-118964117D01*
X133096393Y-118946393D01*
X133114117Y-118930329D01*
X133133330Y-118916079D01*
X133153847Y-118903782D01*
X133175471Y-118893554D01*
X133197993Y-118885496D01*
X133221197Y-118879684D01*
X133244858Y-118876174D01*
X133268750Y-118875000D01*
X134181250Y-118875000D01*
X134205142Y-118876174D01*
X134205142Y-118876174D01*
G37*
D17*
X133725000Y-119362500D03*
D16*
G36*
X134205142Y-120751174D02*
G01*
X134228803Y-120754684D01*
X134252007Y-120760496D01*
X134274529Y-120768554D01*
X134296153Y-120778782D01*
X134316670Y-120791079D01*
X134335883Y-120805329D01*
X134353607Y-120821393D01*
X134369671Y-120839117D01*
X134383921Y-120858330D01*
X134396218Y-120878847D01*
X134406446Y-120900471D01*
X134414504Y-120922993D01*
X134420316Y-120946197D01*
X134423826Y-120969858D01*
X134425000Y-120993750D01*
X134425000Y-121481250D01*
X134423826Y-121505142D01*
X134420316Y-121528803D01*
X134414504Y-121552007D01*
X134406446Y-121574529D01*
X134396218Y-121596153D01*
X134383921Y-121616670D01*
X134369671Y-121635883D01*
X134353607Y-121653607D01*
X134335883Y-121669671D01*
X134316670Y-121683921D01*
X134296153Y-121696218D01*
X134274529Y-121706446D01*
X134252007Y-121714504D01*
X134228803Y-121720316D01*
X134205142Y-121723826D01*
X134181250Y-121725000D01*
X133268750Y-121725000D01*
X133244858Y-121723826D01*
X133221197Y-121720316D01*
X133197993Y-121714504D01*
X133175471Y-121706446D01*
X133153847Y-121696218D01*
X133133330Y-121683921D01*
X133114117Y-121669671D01*
X133096393Y-121653607D01*
X133080329Y-121635883D01*
X133066079Y-121616670D01*
X133053782Y-121596153D01*
X133043554Y-121574529D01*
X133035496Y-121552007D01*
X133029684Y-121528803D01*
X133026174Y-121505142D01*
X133025000Y-121481250D01*
X133025000Y-120993750D01*
X133026174Y-120969858D01*
X133029684Y-120946197D01*
X133035496Y-120922993D01*
X133043554Y-120900471D01*
X133053782Y-120878847D01*
X133066079Y-120858330D01*
X133080329Y-120839117D01*
X133096393Y-120821393D01*
X133114117Y-120805329D01*
X133133330Y-120791079D01*
X133153847Y-120778782D01*
X133175471Y-120768554D01*
X133197993Y-120760496D01*
X133221197Y-120754684D01*
X133244858Y-120751174D01*
X133268750Y-120750000D01*
X134181250Y-120750000D01*
X134205142Y-120751174D01*
X134205142Y-120751174D01*
G37*
D17*
X133725000Y-121237500D03*
D16*
G36*
X127880142Y-115801174D02*
G01*
X127903803Y-115804684D01*
X127927007Y-115810496D01*
X127949529Y-115818554D01*
X127971153Y-115828782D01*
X127991670Y-115841079D01*
X128010883Y-115855329D01*
X128028607Y-115871393D01*
X128044671Y-115889117D01*
X128058921Y-115908330D01*
X128071218Y-115928847D01*
X128081446Y-115950471D01*
X128089504Y-115972993D01*
X128095316Y-115996197D01*
X128098826Y-116019858D01*
X128100000Y-116043750D01*
X128100000Y-116956250D01*
X128098826Y-116980142D01*
X128095316Y-117003803D01*
X128089504Y-117027007D01*
X128081446Y-117049529D01*
X128071218Y-117071153D01*
X128058921Y-117091670D01*
X128044671Y-117110883D01*
X128028607Y-117128607D01*
X128010883Y-117144671D01*
X127991670Y-117158921D01*
X127971153Y-117171218D01*
X127949529Y-117181446D01*
X127927007Y-117189504D01*
X127903803Y-117195316D01*
X127880142Y-117198826D01*
X127856250Y-117200000D01*
X127368750Y-117200000D01*
X127344858Y-117198826D01*
X127321197Y-117195316D01*
X127297993Y-117189504D01*
X127275471Y-117181446D01*
X127253847Y-117171218D01*
X127233330Y-117158921D01*
X127214117Y-117144671D01*
X127196393Y-117128607D01*
X127180329Y-117110883D01*
X127166079Y-117091670D01*
X127153782Y-117071153D01*
X127143554Y-117049529D01*
X127135496Y-117027007D01*
X127129684Y-117003803D01*
X127126174Y-116980142D01*
X127125000Y-116956250D01*
X127125000Y-116043750D01*
X127126174Y-116019858D01*
X127129684Y-115996197D01*
X127135496Y-115972993D01*
X127143554Y-115950471D01*
X127153782Y-115928847D01*
X127166079Y-115908330D01*
X127180329Y-115889117D01*
X127196393Y-115871393D01*
X127214117Y-115855329D01*
X127233330Y-115841079D01*
X127253847Y-115828782D01*
X127275471Y-115818554D01*
X127297993Y-115810496D01*
X127321197Y-115804684D01*
X127344858Y-115801174D01*
X127368750Y-115800000D01*
X127856250Y-115800000D01*
X127880142Y-115801174D01*
X127880142Y-115801174D01*
G37*
D17*
X127612500Y-116500000D03*
D16*
G36*
X126005142Y-115801174D02*
G01*
X126028803Y-115804684D01*
X126052007Y-115810496D01*
X126074529Y-115818554D01*
X126096153Y-115828782D01*
X126116670Y-115841079D01*
X126135883Y-115855329D01*
X126153607Y-115871393D01*
X126169671Y-115889117D01*
X126183921Y-115908330D01*
X126196218Y-115928847D01*
X126206446Y-115950471D01*
X126214504Y-115972993D01*
X126220316Y-115996197D01*
X126223826Y-116019858D01*
X126225000Y-116043750D01*
X126225000Y-116956250D01*
X126223826Y-116980142D01*
X126220316Y-117003803D01*
X126214504Y-117027007D01*
X126206446Y-117049529D01*
X126196218Y-117071153D01*
X126183921Y-117091670D01*
X126169671Y-117110883D01*
X126153607Y-117128607D01*
X126135883Y-117144671D01*
X126116670Y-117158921D01*
X126096153Y-117171218D01*
X126074529Y-117181446D01*
X126052007Y-117189504D01*
X126028803Y-117195316D01*
X126005142Y-117198826D01*
X125981250Y-117200000D01*
X125493750Y-117200000D01*
X125469858Y-117198826D01*
X125446197Y-117195316D01*
X125422993Y-117189504D01*
X125400471Y-117181446D01*
X125378847Y-117171218D01*
X125358330Y-117158921D01*
X125339117Y-117144671D01*
X125321393Y-117128607D01*
X125305329Y-117110883D01*
X125291079Y-117091670D01*
X125278782Y-117071153D01*
X125268554Y-117049529D01*
X125260496Y-117027007D01*
X125254684Y-117003803D01*
X125251174Y-116980142D01*
X125250000Y-116956250D01*
X125250000Y-116043750D01*
X125251174Y-116019858D01*
X125254684Y-115996197D01*
X125260496Y-115972993D01*
X125268554Y-115950471D01*
X125278782Y-115928847D01*
X125291079Y-115908330D01*
X125305329Y-115889117D01*
X125321393Y-115871393D01*
X125339117Y-115855329D01*
X125358330Y-115841079D01*
X125378847Y-115828782D01*
X125400471Y-115818554D01*
X125422993Y-115810496D01*
X125446197Y-115804684D01*
X125469858Y-115801174D01*
X125493750Y-115800000D01*
X125981250Y-115800000D01*
X126005142Y-115801174D01*
X126005142Y-115801174D01*
G37*
D17*
X125737500Y-116500000D03*
D16*
G36*
X136240191Y-137926053D02*
G01*
X136261426Y-137929203D01*
X136282250Y-137934419D01*
X136302462Y-137941651D01*
X136321868Y-137950830D01*
X136340281Y-137961866D01*
X136357524Y-137974654D01*
X136373430Y-137989070D01*
X136387846Y-138004976D01*
X136400634Y-138022219D01*
X136411670Y-138040632D01*
X136420849Y-138060038D01*
X136428081Y-138080250D01*
X136433297Y-138101074D01*
X136436447Y-138122309D01*
X136437500Y-138143750D01*
X136437500Y-138656250D01*
X136436447Y-138677691D01*
X136433297Y-138698926D01*
X136428081Y-138719750D01*
X136420849Y-138739962D01*
X136411670Y-138759368D01*
X136400634Y-138777781D01*
X136387846Y-138795024D01*
X136373430Y-138810930D01*
X136357524Y-138825346D01*
X136340281Y-138838134D01*
X136321868Y-138849170D01*
X136302462Y-138858349D01*
X136282250Y-138865581D01*
X136261426Y-138870797D01*
X136240191Y-138873947D01*
X136218750Y-138875000D01*
X135781250Y-138875000D01*
X135759809Y-138873947D01*
X135738574Y-138870797D01*
X135717750Y-138865581D01*
X135697538Y-138858349D01*
X135678132Y-138849170D01*
X135659719Y-138838134D01*
X135642476Y-138825346D01*
X135626570Y-138810930D01*
X135612154Y-138795024D01*
X135599366Y-138777781D01*
X135588330Y-138759368D01*
X135579151Y-138739962D01*
X135571919Y-138719750D01*
X135566703Y-138698926D01*
X135563553Y-138677691D01*
X135562500Y-138656250D01*
X135562500Y-138143750D01*
X135563553Y-138122309D01*
X135566703Y-138101074D01*
X135571919Y-138080250D01*
X135579151Y-138060038D01*
X135588330Y-138040632D01*
X135599366Y-138022219D01*
X135612154Y-138004976D01*
X135626570Y-137989070D01*
X135642476Y-137974654D01*
X135659719Y-137961866D01*
X135678132Y-137950830D01*
X135697538Y-137941651D01*
X135717750Y-137934419D01*
X135738574Y-137929203D01*
X135759809Y-137926053D01*
X135781250Y-137925000D01*
X136218750Y-137925000D01*
X136240191Y-137926053D01*
X136240191Y-137926053D01*
G37*
D18*
X136000000Y-138400000D03*
D16*
G36*
X134665191Y-137926053D02*
G01*
X134686426Y-137929203D01*
X134707250Y-137934419D01*
X134727462Y-137941651D01*
X134746868Y-137950830D01*
X134765281Y-137961866D01*
X134782524Y-137974654D01*
X134798430Y-137989070D01*
X134812846Y-138004976D01*
X134825634Y-138022219D01*
X134836670Y-138040632D01*
X134845849Y-138060038D01*
X134853081Y-138080250D01*
X134858297Y-138101074D01*
X134861447Y-138122309D01*
X134862500Y-138143750D01*
X134862500Y-138656250D01*
X134861447Y-138677691D01*
X134858297Y-138698926D01*
X134853081Y-138719750D01*
X134845849Y-138739962D01*
X134836670Y-138759368D01*
X134825634Y-138777781D01*
X134812846Y-138795024D01*
X134798430Y-138810930D01*
X134782524Y-138825346D01*
X134765281Y-138838134D01*
X134746868Y-138849170D01*
X134727462Y-138858349D01*
X134707250Y-138865581D01*
X134686426Y-138870797D01*
X134665191Y-138873947D01*
X134643750Y-138875000D01*
X134206250Y-138875000D01*
X134184809Y-138873947D01*
X134163574Y-138870797D01*
X134142750Y-138865581D01*
X134122538Y-138858349D01*
X134103132Y-138849170D01*
X134084719Y-138838134D01*
X134067476Y-138825346D01*
X134051570Y-138810930D01*
X134037154Y-138795024D01*
X134024366Y-138777781D01*
X134013330Y-138759368D01*
X134004151Y-138739962D01*
X133996919Y-138719750D01*
X133991703Y-138698926D01*
X133988553Y-138677691D01*
X133987500Y-138656250D01*
X133987500Y-138143750D01*
X133988553Y-138122309D01*
X133991703Y-138101074D01*
X133996919Y-138080250D01*
X134004151Y-138060038D01*
X134013330Y-138040632D01*
X134024366Y-138022219D01*
X134037154Y-138004976D01*
X134051570Y-137989070D01*
X134067476Y-137974654D01*
X134084719Y-137961866D01*
X134103132Y-137950830D01*
X134122538Y-137941651D01*
X134142750Y-137934419D01*
X134163574Y-137929203D01*
X134184809Y-137926053D01*
X134206250Y-137925000D01*
X134643750Y-137925000D01*
X134665191Y-137926053D01*
X134665191Y-137926053D01*
G37*
D18*
X134425000Y-138400000D03*
D16*
G36*
X137552691Y-134601053D02*
G01*
X137573926Y-134604203D01*
X137594750Y-134609419D01*
X137614962Y-134616651D01*
X137634368Y-134625830D01*
X137652781Y-134636866D01*
X137670024Y-134649654D01*
X137685930Y-134664070D01*
X137700346Y-134679976D01*
X137713134Y-134697219D01*
X137724170Y-134715632D01*
X137733349Y-134735038D01*
X137740581Y-134755250D01*
X137745797Y-134776074D01*
X137748947Y-134797309D01*
X137750000Y-134818750D01*
X137750000Y-135256250D01*
X137748947Y-135277691D01*
X137745797Y-135298926D01*
X137740581Y-135319750D01*
X137733349Y-135339962D01*
X137724170Y-135359368D01*
X137713134Y-135377781D01*
X137700346Y-135395024D01*
X137685930Y-135410930D01*
X137670024Y-135425346D01*
X137652781Y-135438134D01*
X137634368Y-135449170D01*
X137614962Y-135458349D01*
X137594750Y-135465581D01*
X137573926Y-135470797D01*
X137552691Y-135473947D01*
X137531250Y-135475000D01*
X137018750Y-135475000D01*
X136997309Y-135473947D01*
X136976074Y-135470797D01*
X136955250Y-135465581D01*
X136935038Y-135458349D01*
X136915632Y-135449170D01*
X136897219Y-135438134D01*
X136879976Y-135425346D01*
X136864070Y-135410930D01*
X136849654Y-135395024D01*
X136836866Y-135377781D01*
X136825830Y-135359368D01*
X136816651Y-135339962D01*
X136809419Y-135319750D01*
X136804203Y-135298926D01*
X136801053Y-135277691D01*
X136800000Y-135256250D01*
X136800000Y-134818750D01*
X136801053Y-134797309D01*
X136804203Y-134776074D01*
X136809419Y-134755250D01*
X136816651Y-134735038D01*
X136825830Y-134715632D01*
X136836866Y-134697219D01*
X136849654Y-134679976D01*
X136864070Y-134664070D01*
X136879976Y-134649654D01*
X136897219Y-134636866D01*
X136915632Y-134625830D01*
X136935038Y-134616651D01*
X136955250Y-134609419D01*
X136976074Y-134604203D01*
X136997309Y-134601053D01*
X137018750Y-134600000D01*
X137531250Y-134600000D01*
X137552691Y-134601053D01*
X137552691Y-134601053D01*
G37*
D18*
X137275000Y-135037500D03*
D16*
G36*
X137552691Y-133026053D02*
G01*
X137573926Y-133029203D01*
X137594750Y-133034419D01*
X137614962Y-133041651D01*
X137634368Y-133050830D01*
X137652781Y-133061866D01*
X137670024Y-133074654D01*
X137685930Y-133089070D01*
X137700346Y-133104976D01*
X137713134Y-133122219D01*
X137724170Y-133140632D01*
X137733349Y-133160038D01*
X137740581Y-133180250D01*
X137745797Y-133201074D01*
X137748947Y-133222309D01*
X137750000Y-133243750D01*
X137750000Y-133681250D01*
X137748947Y-133702691D01*
X137745797Y-133723926D01*
X137740581Y-133744750D01*
X137733349Y-133764962D01*
X137724170Y-133784368D01*
X137713134Y-133802781D01*
X137700346Y-133820024D01*
X137685930Y-133835930D01*
X137670024Y-133850346D01*
X137652781Y-133863134D01*
X137634368Y-133874170D01*
X137614962Y-133883349D01*
X137594750Y-133890581D01*
X137573926Y-133895797D01*
X137552691Y-133898947D01*
X137531250Y-133900000D01*
X137018750Y-133900000D01*
X136997309Y-133898947D01*
X136976074Y-133895797D01*
X136955250Y-133890581D01*
X136935038Y-133883349D01*
X136915632Y-133874170D01*
X136897219Y-133863134D01*
X136879976Y-133850346D01*
X136864070Y-133835930D01*
X136849654Y-133820024D01*
X136836866Y-133802781D01*
X136825830Y-133784368D01*
X136816651Y-133764962D01*
X136809419Y-133744750D01*
X136804203Y-133723926D01*
X136801053Y-133702691D01*
X136800000Y-133681250D01*
X136800000Y-133243750D01*
X136801053Y-133222309D01*
X136804203Y-133201074D01*
X136809419Y-133180250D01*
X136816651Y-133160038D01*
X136825830Y-133140632D01*
X136836866Y-133122219D01*
X136849654Y-133104976D01*
X136864070Y-133089070D01*
X136879976Y-133074654D01*
X136897219Y-133061866D01*
X136915632Y-133050830D01*
X136935038Y-133041651D01*
X136955250Y-133034419D01*
X136976074Y-133029203D01*
X136997309Y-133026053D01*
X137018750Y-133025000D01*
X137531250Y-133025000D01*
X137552691Y-133026053D01*
X137552691Y-133026053D01*
G37*
D18*
X137275000Y-133462500D03*
D16*
G36*
X124540192Y-130701053D02*
G01*
X124561427Y-130704203D01*
X124582251Y-130709419D01*
X124602463Y-130716651D01*
X124621869Y-130725830D01*
X124640282Y-130736866D01*
X124657525Y-130749654D01*
X124673431Y-130764070D01*
X124687847Y-130779976D01*
X124700635Y-130797219D01*
X124711671Y-130815632D01*
X124720850Y-130835038D01*
X124728082Y-130855250D01*
X124733298Y-130876074D01*
X124736448Y-130897309D01*
X124737501Y-130918750D01*
X124737501Y-131431250D01*
X124736448Y-131452691D01*
X124733298Y-131473926D01*
X124728082Y-131494750D01*
X124720850Y-131514962D01*
X124711671Y-131534368D01*
X124700635Y-131552781D01*
X124687847Y-131570024D01*
X124673431Y-131585930D01*
X124657525Y-131600346D01*
X124640282Y-131613134D01*
X124621869Y-131624170D01*
X124602463Y-131633349D01*
X124582251Y-131640581D01*
X124561427Y-131645797D01*
X124540192Y-131648947D01*
X124518751Y-131650000D01*
X124081251Y-131650000D01*
X124059810Y-131648947D01*
X124038575Y-131645797D01*
X124017751Y-131640581D01*
X123997539Y-131633349D01*
X123978133Y-131624170D01*
X123959720Y-131613134D01*
X123942477Y-131600346D01*
X123926571Y-131585930D01*
X123912155Y-131570024D01*
X123899367Y-131552781D01*
X123888331Y-131534368D01*
X123879152Y-131514962D01*
X123871920Y-131494750D01*
X123866704Y-131473926D01*
X123863554Y-131452691D01*
X123862501Y-131431250D01*
X123862501Y-130918750D01*
X123863554Y-130897309D01*
X123866704Y-130876074D01*
X123871920Y-130855250D01*
X123879152Y-130835038D01*
X123888331Y-130815632D01*
X123899367Y-130797219D01*
X123912155Y-130779976D01*
X123926571Y-130764070D01*
X123942477Y-130749654D01*
X123959720Y-130736866D01*
X123978133Y-130725830D01*
X123997539Y-130716651D01*
X124017751Y-130709419D01*
X124038575Y-130704203D01*
X124059810Y-130701053D01*
X124081251Y-130700000D01*
X124518751Y-130700000D01*
X124540192Y-130701053D01*
X124540192Y-130701053D01*
G37*
D18*
X124300001Y-131175000D03*
D16*
G36*
X126115192Y-130701053D02*
G01*
X126136427Y-130704203D01*
X126157251Y-130709419D01*
X126177463Y-130716651D01*
X126196869Y-130725830D01*
X126215282Y-130736866D01*
X126232525Y-130749654D01*
X126248431Y-130764070D01*
X126262847Y-130779976D01*
X126275635Y-130797219D01*
X126286671Y-130815632D01*
X126295850Y-130835038D01*
X126303082Y-130855250D01*
X126308298Y-130876074D01*
X126311448Y-130897309D01*
X126312501Y-130918750D01*
X126312501Y-131431250D01*
X126311448Y-131452691D01*
X126308298Y-131473926D01*
X126303082Y-131494750D01*
X126295850Y-131514962D01*
X126286671Y-131534368D01*
X126275635Y-131552781D01*
X126262847Y-131570024D01*
X126248431Y-131585930D01*
X126232525Y-131600346D01*
X126215282Y-131613134D01*
X126196869Y-131624170D01*
X126177463Y-131633349D01*
X126157251Y-131640581D01*
X126136427Y-131645797D01*
X126115192Y-131648947D01*
X126093751Y-131650000D01*
X125656251Y-131650000D01*
X125634810Y-131648947D01*
X125613575Y-131645797D01*
X125592751Y-131640581D01*
X125572539Y-131633349D01*
X125553133Y-131624170D01*
X125534720Y-131613134D01*
X125517477Y-131600346D01*
X125501571Y-131585930D01*
X125487155Y-131570024D01*
X125474367Y-131552781D01*
X125463331Y-131534368D01*
X125454152Y-131514962D01*
X125446920Y-131494750D01*
X125441704Y-131473926D01*
X125438554Y-131452691D01*
X125437501Y-131431250D01*
X125437501Y-130918750D01*
X125438554Y-130897309D01*
X125441704Y-130876074D01*
X125446920Y-130855250D01*
X125454152Y-130835038D01*
X125463331Y-130815632D01*
X125474367Y-130797219D01*
X125487155Y-130779976D01*
X125501571Y-130764070D01*
X125517477Y-130749654D01*
X125534720Y-130736866D01*
X125553133Y-130725830D01*
X125572539Y-130716651D01*
X125592751Y-130709419D01*
X125613575Y-130704203D01*
X125634810Y-130701053D01*
X125656251Y-130700000D01*
X126093751Y-130700000D01*
X126115192Y-130701053D01*
X126115192Y-130701053D01*
G37*
D18*
X125875001Y-131175000D03*
D21*
X125600000Y-139850000D03*
D22*
X127800000Y-139850000D03*
X126800000Y-139850000D03*
X128800000Y-139850000D03*
X129800000Y-139850000D03*
D21*
X131000000Y-139850000D03*
D16*
G36*
X138077691Y-136988553D02*
G01*
X138098926Y-136991703D01*
X138119750Y-136996919D01*
X138139962Y-137004151D01*
X138159368Y-137013330D01*
X138177781Y-137024366D01*
X138195024Y-137037154D01*
X138210930Y-137051570D01*
X138225346Y-137067476D01*
X138238134Y-137084719D01*
X138249170Y-137103132D01*
X138258349Y-137122538D01*
X138265581Y-137142750D01*
X138270797Y-137163574D01*
X138273947Y-137184809D01*
X138275000Y-137206250D01*
X138275000Y-137643750D01*
X138273947Y-137665191D01*
X138270797Y-137686426D01*
X138265581Y-137707250D01*
X138258349Y-137727462D01*
X138249170Y-137746868D01*
X138238134Y-137765281D01*
X138225346Y-137782524D01*
X138210930Y-137798430D01*
X138195024Y-137812846D01*
X138177781Y-137825634D01*
X138159368Y-137836670D01*
X138139962Y-137845849D01*
X138119750Y-137853081D01*
X138098926Y-137858297D01*
X138077691Y-137861447D01*
X138056250Y-137862500D01*
X137543750Y-137862500D01*
X137522309Y-137861447D01*
X137501074Y-137858297D01*
X137480250Y-137853081D01*
X137460038Y-137845849D01*
X137440632Y-137836670D01*
X137422219Y-137825634D01*
X137404976Y-137812846D01*
X137389070Y-137798430D01*
X137374654Y-137782524D01*
X137361866Y-137765281D01*
X137350830Y-137746868D01*
X137341651Y-137727462D01*
X137334419Y-137707250D01*
X137329203Y-137686426D01*
X137326053Y-137665191D01*
X137325000Y-137643750D01*
X137325000Y-137206250D01*
X137326053Y-137184809D01*
X137329203Y-137163574D01*
X137334419Y-137142750D01*
X137341651Y-137122538D01*
X137350830Y-137103132D01*
X137361866Y-137084719D01*
X137374654Y-137067476D01*
X137389070Y-137051570D01*
X137404976Y-137037154D01*
X137422219Y-137024366D01*
X137440632Y-137013330D01*
X137460038Y-137004151D01*
X137480250Y-136996919D01*
X137501074Y-136991703D01*
X137522309Y-136988553D01*
X137543750Y-136987500D01*
X138056250Y-136987500D01*
X138077691Y-136988553D01*
X138077691Y-136988553D01*
G37*
D18*
X137800000Y-137425000D03*
D16*
G36*
X138077691Y-138563553D02*
G01*
X138098926Y-138566703D01*
X138119750Y-138571919D01*
X138139962Y-138579151D01*
X138159368Y-138588330D01*
X138177781Y-138599366D01*
X138195024Y-138612154D01*
X138210930Y-138626570D01*
X138225346Y-138642476D01*
X138238134Y-138659719D01*
X138249170Y-138678132D01*
X138258349Y-138697538D01*
X138265581Y-138717750D01*
X138270797Y-138738574D01*
X138273947Y-138759809D01*
X138275000Y-138781250D01*
X138275000Y-139218750D01*
X138273947Y-139240191D01*
X138270797Y-139261426D01*
X138265581Y-139282250D01*
X138258349Y-139302462D01*
X138249170Y-139321868D01*
X138238134Y-139340281D01*
X138225346Y-139357524D01*
X138210930Y-139373430D01*
X138195024Y-139387846D01*
X138177781Y-139400634D01*
X138159368Y-139411670D01*
X138139962Y-139420849D01*
X138119750Y-139428081D01*
X138098926Y-139433297D01*
X138077691Y-139436447D01*
X138056250Y-139437500D01*
X137543750Y-139437500D01*
X137522309Y-139436447D01*
X137501074Y-139433297D01*
X137480250Y-139428081D01*
X137460038Y-139420849D01*
X137440632Y-139411670D01*
X137422219Y-139400634D01*
X137404976Y-139387846D01*
X137389070Y-139373430D01*
X137374654Y-139357524D01*
X137361866Y-139340281D01*
X137350830Y-139321868D01*
X137341651Y-139302462D01*
X137334419Y-139282250D01*
X137329203Y-139261426D01*
X137326053Y-139240191D01*
X137325000Y-139218750D01*
X137325000Y-138781250D01*
X137326053Y-138759809D01*
X137329203Y-138738574D01*
X137334419Y-138717750D01*
X137341651Y-138697538D01*
X137350830Y-138678132D01*
X137361866Y-138659719D01*
X137374654Y-138642476D01*
X137389070Y-138626570D01*
X137404976Y-138612154D01*
X137422219Y-138599366D01*
X137440632Y-138588330D01*
X137460038Y-138579151D01*
X137480250Y-138571919D01*
X137501074Y-138566703D01*
X137522309Y-138563553D01*
X137543750Y-138562500D01*
X138056250Y-138562500D01*
X138077691Y-138563553D01*
X138077691Y-138563553D01*
G37*
D18*
X137800000Y-139000000D03*
D16*
G36*
X137972690Y-140126053D02*
G01*
X137993925Y-140129203D01*
X138014749Y-140134419D01*
X138034961Y-140141651D01*
X138054367Y-140150830D01*
X138072780Y-140161866D01*
X138090023Y-140174654D01*
X138105929Y-140189070D01*
X138120345Y-140204976D01*
X138133133Y-140222219D01*
X138144169Y-140240632D01*
X138153348Y-140260038D01*
X138160580Y-140280250D01*
X138165796Y-140301074D01*
X138168946Y-140322309D01*
X138169999Y-140343750D01*
X138169999Y-140856250D01*
X138168946Y-140877691D01*
X138165796Y-140898926D01*
X138160580Y-140919750D01*
X138153348Y-140939962D01*
X138144169Y-140959368D01*
X138133133Y-140977781D01*
X138120345Y-140995024D01*
X138105929Y-141010930D01*
X138090023Y-141025346D01*
X138072780Y-141038134D01*
X138054367Y-141049170D01*
X138034961Y-141058349D01*
X138014749Y-141065581D01*
X137993925Y-141070797D01*
X137972690Y-141073947D01*
X137951249Y-141075000D01*
X137513749Y-141075000D01*
X137492308Y-141073947D01*
X137471073Y-141070797D01*
X137450249Y-141065581D01*
X137430037Y-141058349D01*
X137410631Y-141049170D01*
X137392218Y-141038134D01*
X137374975Y-141025346D01*
X137359069Y-141010930D01*
X137344653Y-140995024D01*
X137331865Y-140977781D01*
X137320829Y-140959368D01*
X137311650Y-140939962D01*
X137304418Y-140919750D01*
X137299202Y-140898926D01*
X137296052Y-140877691D01*
X137294999Y-140856250D01*
X137294999Y-140343750D01*
X137296052Y-140322309D01*
X137299202Y-140301074D01*
X137304418Y-140280250D01*
X137311650Y-140260038D01*
X137320829Y-140240632D01*
X137331865Y-140222219D01*
X137344653Y-140204976D01*
X137359069Y-140189070D01*
X137374975Y-140174654D01*
X137392218Y-140161866D01*
X137410631Y-140150830D01*
X137430037Y-140141651D01*
X137450249Y-140134419D01*
X137471073Y-140129203D01*
X137492308Y-140126053D01*
X137513749Y-140125000D01*
X137951249Y-140125000D01*
X137972690Y-140126053D01*
X137972690Y-140126053D01*
G37*
D18*
X137732499Y-140600000D03*
D16*
G36*
X136397690Y-140126053D02*
G01*
X136418925Y-140129203D01*
X136439749Y-140134419D01*
X136459961Y-140141651D01*
X136479367Y-140150830D01*
X136497780Y-140161866D01*
X136515023Y-140174654D01*
X136530929Y-140189070D01*
X136545345Y-140204976D01*
X136558133Y-140222219D01*
X136569169Y-140240632D01*
X136578348Y-140260038D01*
X136585580Y-140280250D01*
X136590796Y-140301074D01*
X136593946Y-140322309D01*
X136594999Y-140343750D01*
X136594999Y-140856250D01*
X136593946Y-140877691D01*
X136590796Y-140898926D01*
X136585580Y-140919750D01*
X136578348Y-140939962D01*
X136569169Y-140959368D01*
X136558133Y-140977781D01*
X136545345Y-140995024D01*
X136530929Y-141010930D01*
X136515023Y-141025346D01*
X136497780Y-141038134D01*
X136479367Y-141049170D01*
X136459961Y-141058349D01*
X136439749Y-141065581D01*
X136418925Y-141070797D01*
X136397690Y-141073947D01*
X136376249Y-141075000D01*
X135938749Y-141075000D01*
X135917308Y-141073947D01*
X135896073Y-141070797D01*
X135875249Y-141065581D01*
X135855037Y-141058349D01*
X135835631Y-141049170D01*
X135817218Y-141038134D01*
X135799975Y-141025346D01*
X135784069Y-141010930D01*
X135769653Y-140995024D01*
X135756865Y-140977781D01*
X135745829Y-140959368D01*
X135736650Y-140939962D01*
X135729418Y-140919750D01*
X135724202Y-140898926D01*
X135721052Y-140877691D01*
X135719999Y-140856250D01*
X135719999Y-140343750D01*
X135721052Y-140322309D01*
X135724202Y-140301074D01*
X135729418Y-140280250D01*
X135736650Y-140260038D01*
X135745829Y-140240632D01*
X135756865Y-140222219D01*
X135769653Y-140204976D01*
X135784069Y-140189070D01*
X135799975Y-140174654D01*
X135817218Y-140161866D01*
X135835631Y-140150830D01*
X135855037Y-140141651D01*
X135875249Y-140134419D01*
X135896073Y-140129203D01*
X135917308Y-140126053D01*
X135938749Y-140125000D01*
X136376249Y-140125000D01*
X136397690Y-140126053D01*
X136397690Y-140126053D01*
G37*
D18*
X136157499Y-140600000D03*
D16*
G36*
X136382692Y-141826053D02*
G01*
X136403927Y-141829203D01*
X136424751Y-141834419D01*
X136444963Y-141841651D01*
X136464369Y-141850830D01*
X136482782Y-141861866D01*
X136500025Y-141874654D01*
X136515931Y-141889070D01*
X136530347Y-141904976D01*
X136543135Y-141922219D01*
X136554171Y-141940632D01*
X136563350Y-141960038D01*
X136570582Y-141980250D01*
X136575798Y-142001074D01*
X136578948Y-142022309D01*
X136580001Y-142043750D01*
X136580001Y-142556250D01*
X136578948Y-142577691D01*
X136575798Y-142598926D01*
X136570582Y-142619750D01*
X136563350Y-142639962D01*
X136554171Y-142659368D01*
X136543135Y-142677781D01*
X136530347Y-142695024D01*
X136515931Y-142710930D01*
X136500025Y-142725346D01*
X136482782Y-142738134D01*
X136464369Y-142749170D01*
X136444963Y-142758349D01*
X136424751Y-142765581D01*
X136403927Y-142770797D01*
X136382692Y-142773947D01*
X136361251Y-142775000D01*
X135923751Y-142775000D01*
X135902310Y-142773947D01*
X135881075Y-142770797D01*
X135860251Y-142765581D01*
X135840039Y-142758349D01*
X135820633Y-142749170D01*
X135802220Y-142738134D01*
X135784977Y-142725346D01*
X135769071Y-142710930D01*
X135754655Y-142695024D01*
X135741867Y-142677781D01*
X135730831Y-142659368D01*
X135721652Y-142639962D01*
X135714420Y-142619750D01*
X135709204Y-142598926D01*
X135706054Y-142577691D01*
X135705001Y-142556250D01*
X135705001Y-142043750D01*
X135706054Y-142022309D01*
X135709204Y-142001074D01*
X135714420Y-141980250D01*
X135721652Y-141960038D01*
X135730831Y-141940632D01*
X135741867Y-141922219D01*
X135754655Y-141904976D01*
X135769071Y-141889070D01*
X135784977Y-141874654D01*
X135802220Y-141861866D01*
X135820633Y-141850830D01*
X135840039Y-141841651D01*
X135860251Y-141834419D01*
X135881075Y-141829203D01*
X135902310Y-141826053D01*
X135923751Y-141825000D01*
X136361251Y-141825000D01*
X136382692Y-141826053D01*
X136382692Y-141826053D01*
G37*
D18*
X136142501Y-142300000D03*
D16*
G36*
X134807692Y-141826053D02*
G01*
X134828927Y-141829203D01*
X134849751Y-141834419D01*
X134869963Y-141841651D01*
X134889369Y-141850830D01*
X134907782Y-141861866D01*
X134925025Y-141874654D01*
X134940931Y-141889070D01*
X134955347Y-141904976D01*
X134968135Y-141922219D01*
X134979171Y-141940632D01*
X134988350Y-141960038D01*
X134995582Y-141980250D01*
X135000798Y-142001074D01*
X135003948Y-142022309D01*
X135005001Y-142043750D01*
X135005001Y-142556250D01*
X135003948Y-142577691D01*
X135000798Y-142598926D01*
X134995582Y-142619750D01*
X134988350Y-142639962D01*
X134979171Y-142659368D01*
X134968135Y-142677781D01*
X134955347Y-142695024D01*
X134940931Y-142710930D01*
X134925025Y-142725346D01*
X134907782Y-142738134D01*
X134889369Y-142749170D01*
X134869963Y-142758349D01*
X134849751Y-142765581D01*
X134828927Y-142770797D01*
X134807692Y-142773947D01*
X134786251Y-142775000D01*
X134348751Y-142775000D01*
X134327310Y-142773947D01*
X134306075Y-142770797D01*
X134285251Y-142765581D01*
X134265039Y-142758349D01*
X134245633Y-142749170D01*
X134227220Y-142738134D01*
X134209977Y-142725346D01*
X134194071Y-142710930D01*
X134179655Y-142695024D01*
X134166867Y-142677781D01*
X134155831Y-142659368D01*
X134146652Y-142639962D01*
X134139420Y-142619750D01*
X134134204Y-142598926D01*
X134131054Y-142577691D01*
X134130001Y-142556250D01*
X134130001Y-142043750D01*
X134131054Y-142022309D01*
X134134204Y-142001074D01*
X134139420Y-141980250D01*
X134146652Y-141960038D01*
X134155831Y-141940632D01*
X134166867Y-141922219D01*
X134179655Y-141904976D01*
X134194071Y-141889070D01*
X134209977Y-141874654D01*
X134227220Y-141861866D01*
X134245633Y-141850830D01*
X134265039Y-141841651D01*
X134285251Y-141834419D01*
X134306075Y-141829203D01*
X134327310Y-141826053D01*
X134348751Y-141825000D01*
X134786251Y-141825000D01*
X134807692Y-141826053D01*
X134807692Y-141826053D01*
G37*
D18*
X134567501Y-142300000D03*
D16*
G36*
X134807691Y-143331054D02*
G01*
X134828926Y-143334204D01*
X134849750Y-143339420D01*
X134869962Y-143346652D01*
X134889368Y-143355831D01*
X134907781Y-143366867D01*
X134925024Y-143379655D01*
X134940930Y-143394071D01*
X134955346Y-143409977D01*
X134968134Y-143427220D01*
X134979170Y-143445633D01*
X134988349Y-143465039D01*
X134995581Y-143485251D01*
X135000797Y-143506075D01*
X135003947Y-143527310D01*
X135005000Y-143548751D01*
X135005000Y-144061251D01*
X135003947Y-144082692D01*
X135000797Y-144103927D01*
X134995581Y-144124751D01*
X134988349Y-144144963D01*
X134979170Y-144164369D01*
X134968134Y-144182782D01*
X134955346Y-144200025D01*
X134940930Y-144215931D01*
X134925024Y-144230347D01*
X134907781Y-144243135D01*
X134889368Y-144254171D01*
X134869962Y-144263350D01*
X134849750Y-144270582D01*
X134828926Y-144275798D01*
X134807691Y-144278948D01*
X134786250Y-144280001D01*
X134348750Y-144280001D01*
X134327309Y-144278948D01*
X134306074Y-144275798D01*
X134285250Y-144270582D01*
X134265038Y-144263350D01*
X134245632Y-144254171D01*
X134227219Y-144243135D01*
X134209976Y-144230347D01*
X134194070Y-144215931D01*
X134179654Y-144200025D01*
X134166866Y-144182782D01*
X134155830Y-144164369D01*
X134146651Y-144144963D01*
X134139419Y-144124751D01*
X134134203Y-144103927D01*
X134131053Y-144082692D01*
X134130000Y-144061251D01*
X134130000Y-143548751D01*
X134131053Y-143527310D01*
X134134203Y-143506075D01*
X134139419Y-143485251D01*
X134146651Y-143465039D01*
X134155830Y-143445633D01*
X134166866Y-143427220D01*
X134179654Y-143409977D01*
X134194070Y-143394071D01*
X134209976Y-143379655D01*
X134227219Y-143366867D01*
X134245632Y-143355831D01*
X134265038Y-143346652D01*
X134285250Y-143339420D01*
X134306074Y-143334204D01*
X134327309Y-143331054D01*
X134348750Y-143330001D01*
X134786250Y-143330001D01*
X134807691Y-143331054D01*
X134807691Y-143331054D01*
G37*
D18*
X134567500Y-143805001D03*
D16*
G36*
X136382691Y-143331054D02*
G01*
X136403926Y-143334204D01*
X136424750Y-143339420D01*
X136444962Y-143346652D01*
X136464368Y-143355831D01*
X136482781Y-143366867D01*
X136500024Y-143379655D01*
X136515930Y-143394071D01*
X136530346Y-143409977D01*
X136543134Y-143427220D01*
X136554170Y-143445633D01*
X136563349Y-143465039D01*
X136570581Y-143485251D01*
X136575797Y-143506075D01*
X136578947Y-143527310D01*
X136580000Y-143548751D01*
X136580000Y-144061251D01*
X136578947Y-144082692D01*
X136575797Y-144103927D01*
X136570581Y-144124751D01*
X136563349Y-144144963D01*
X136554170Y-144164369D01*
X136543134Y-144182782D01*
X136530346Y-144200025D01*
X136515930Y-144215931D01*
X136500024Y-144230347D01*
X136482781Y-144243135D01*
X136464368Y-144254171D01*
X136444962Y-144263350D01*
X136424750Y-144270582D01*
X136403926Y-144275798D01*
X136382691Y-144278948D01*
X136361250Y-144280001D01*
X135923750Y-144280001D01*
X135902309Y-144278948D01*
X135881074Y-144275798D01*
X135860250Y-144270582D01*
X135840038Y-144263350D01*
X135820632Y-144254171D01*
X135802219Y-144243135D01*
X135784976Y-144230347D01*
X135769070Y-144215931D01*
X135754654Y-144200025D01*
X135741866Y-144182782D01*
X135730830Y-144164369D01*
X135721651Y-144144963D01*
X135714419Y-144124751D01*
X135709203Y-144103927D01*
X135706053Y-144082692D01*
X135705000Y-144061251D01*
X135705000Y-143548751D01*
X135706053Y-143527310D01*
X135709203Y-143506075D01*
X135714419Y-143485251D01*
X135721651Y-143465039D01*
X135730830Y-143445633D01*
X135741866Y-143427220D01*
X135754654Y-143409977D01*
X135769070Y-143394071D01*
X135784976Y-143379655D01*
X135802219Y-143366867D01*
X135820632Y-143355831D01*
X135840038Y-143346652D01*
X135860250Y-143339420D01*
X135881074Y-143334204D01*
X135902309Y-143331054D01*
X135923750Y-143330001D01*
X136361250Y-143330001D01*
X136382691Y-143331054D01*
X136382691Y-143331054D01*
G37*
D18*
X136142500Y-143805001D03*
D23*
X139700000Y-116195000D03*
X139100000Y-116195000D03*
X138500000Y-116195000D03*
X140300000Y-116195000D03*
X140900000Y-116195000D03*
X141500000Y-116195000D03*
X145100000Y-116195000D03*
X144500000Y-116195000D03*
X143900000Y-116195000D03*
X142100000Y-116195000D03*
X142700000Y-116195000D03*
X143300000Y-116195000D03*
X150500000Y-116195000D03*
X149900000Y-116195000D03*
X149300000Y-116195000D03*
X151100000Y-116195000D03*
X151700000Y-116195000D03*
X152300000Y-116195000D03*
X148700000Y-116195000D03*
X148100000Y-116195000D03*
X147500000Y-116195000D03*
X145700000Y-116195000D03*
X146300000Y-116195000D03*
X146900000Y-116195000D03*
X137900000Y-116195000D03*
D24*
X152600000Y-119070000D03*
X152000000Y-119070000D03*
X151400000Y-119070000D03*
X150800000Y-119070000D03*
X150200000Y-119070000D03*
X149600000Y-119070000D03*
X149000000Y-119070000D03*
X148400000Y-119070000D03*
X147800000Y-119070000D03*
X147200000Y-119070000D03*
X146600000Y-119070000D03*
X146000000Y-119070000D03*
X145400000Y-119070000D03*
X144800000Y-119070000D03*
X144200000Y-119070000D03*
X143600000Y-119070000D03*
X143000000Y-119070000D03*
X142400000Y-119070000D03*
X141800000Y-119070000D03*
X141200000Y-119070000D03*
X140600000Y-119070000D03*
X140000000Y-119070000D03*
X139400000Y-119070000D03*
X138800000Y-119070000D03*
X138200000Y-119070000D03*
X137600000Y-119070000D03*
D25*
X153300000Y-118745000D03*
X136900000Y-118745000D03*
M02*
