G04 #@! TF.GenerationSoftware,KiCad,Pcbnew,5.1.4+dfsg1-1*
G04 #@! TF.CreationDate,2019-12-22T00:56:44+01:00*
G04 #@! TF.ProjectId,OtterScreen,4f747465-7253-4637-9265-656e2e6b6963,rev?*
G04 #@! TF.SameCoordinates,Original*
G04 #@! TF.FileFunction,Soldermask,Bot*
G04 #@! TF.FilePolarity,Negative*
%FSLAX46Y46*%
G04 Gerber Fmt 4.6, Leading zero omitted, Abs format (unit mm)*
G04 Created by KiCad (PCBNEW 5.1.4+dfsg1-1) date 2019-12-22 00:56:44*
%MOMM*%
%LPD*%
G04 APERTURE LIST*
%ADD10C,0.150000*%
%ADD11C,0.100000*%
G04 APERTURE END LIST*
D10*
X164099999Y-114200001D02*
G75*
G02X165800000Y-115900000I1J-1700000D01*
G01*
X121000001Y-115900001D02*
G75*
G02X122700000Y-114200000I1700000J1D01*
G01*
X122700001Y-145599999D02*
G75*
G02X121000000Y-143900000I-1J1700000D01*
G01*
X165800000Y-143900000D02*
G75*
G02X164100000Y-145600000I-1700000J0D01*
G01*
X164100000Y-145600000D02*
X136200000Y-145600000D01*
X165800000Y-115900000D02*
X165800000Y-143900000D01*
X122700000Y-114200000D02*
X164099999Y-114200001D01*
X121000000Y-143900000D02*
X121000001Y-115900001D01*
X136200000Y-145600000D02*
X122700001Y-145599999D01*
D11*
G36*
X160838014Y-143006973D02*
G01*
X160941878Y-143038479D01*
X160985907Y-143062013D01*
X161037599Y-143089643D01*
X161052645Y-143101991D01*
X161121501Y-143158499D01*
X161190356Y-143242400D01*
X161241521Y-143338121D01*
X161273027Y-143441985D01*
X161281000Y-143522933D01*
X161281000Y-144377067D01*
X161273027Y-144458015D01*
X161241521Y-144561879D01*
X161241519Y-144561882D01*
X161190357Y-144657600D01*
X161121501Y-144741501D01*
X161037600Y-144810357D01*
X160969055Y-144846995D01*
X160941879Y-144861521D01*
X160838015Y-144893027D01*
X160730000Y-144903666D01*
X160621986Y-144893027D01*
X160518122Y-144861521D01*
X160490946Y-144846995D01*
X160422401Y-144810357D01*
X160338500Y-144741501D01*
X160269644Y-144657600D01*
X160218482Y-144561882D01*
X160218480Y-144561879D01*
X160186973Y-144458015D01*
X160179000Y-144377067D01*
X160179000Y-143522934D01*
X160186973Y-143441986D01*
X160218479Y-143338122D01*
X160269644Y-143242400D01*
X160338499Y-143158499D01*
X160409643Y-143100113D01*
X160422401Y-143089643D01*
X160474093Y-143062013D01*
X160518121Y-143038479D01*
X160621985Y-143006973D01*
X160730000Y-142996334D01*
X160838014Y-143006973D01*
X160838014Y-143006973D01*
G37*
G36*
X152378014Y-143006973D02*
G01*
X152481878Y-143038479D01*
X152525907Y-143062013D01*
X152577599Y-143089643D01*
X152592645Y-143101991D01*
X152661501Y-143158499D01*
X152730356Y-143242400D01*
X152781521Y-143338121D01*
X152813027Y-143441985D01*
X152821000Y-143522933D01*
X152821000Y-144377067D01*
X152813027Y-144458015D01*
X152781521Y-144561879D01*
X152781519Y-144561882D01*
X152730357Y-144657600D01*
X152661501Y-144741501D01*
X152577600Y-144810357D01*
X152509055Y-144846995D01*
X152481879Y-144861521D01*
X152378015Y-144893027D01*
X152270000Y-144903666D01*
X152161986Y-144893027D01*
X152058122Y-144861521D01*
X152030946Y-144846995D01*
X151962401Y-144810357D01*
X151878500Y-144741501D01*
X151809644Y-144657600D01*
X151758482Y-144561882D01*
X151758480Y-144561879D01*
X151726973Y-144458015D01*
X151719000Y-144377067D01*
X151719000Y-143522934D01*
X151726973Y-143441986D01*
X151758479Y-143338122D01*
X151809644Y-143242400D01*
X151878499Y-143158499D01*
X151949643Y-143100113D01*
X151962401Y-143089643D01*
X152014093Y-143062013D01*
X152058121Y-143038479D01*
X152161985Y-143006973D01*
X152270000Y-142996334D01*
X152378014Y-143006973D01*
X152378014Y-143006973D01*
G37*
G36*
X132919059Y-141647860D02*
G01*
X133055732Y-141704472D01*
X133178735Y-141786660D01*
X133283340Y-141891265D01*
X133283341Y-141891267D01*
X133365529Y-142014270D01*
X133422140Y-142150941D01*
X133431425Y-142197618D01*
X133451000Y-142296033D01*
X133451000Y-142443967D01*
X133422140Y-142589059D01*
X133365528Y-142725732D01*
X133283340Y-142848735D01*
X133178735Y-142953340D01*
X133055732Y-143035528D01*
X133055731Y-143035529D01*
X133055730Y-143035529D01*
X132919059Y-143092140D01*
X132773968Y-143121000D01*
X132626032Y-143121000D01*
X132480941Y-143092140D01*
X132344270Y-143035529D01*
X132344269Y-143035529D01*
X132344268Y-143035528D01*
X132221265Y-142953340D01*
X132116660Y-142848735D01*
X132034472Y-142725732D01*
X131977860Y-142589059D01*
X131949000Y-142443967D01*
X131949000Y-142296033D01*
X131968576Y-142197618D01*
X131977860Y-142150941D01*
X132034471Y-142014270D01*
X132116659Y-141891267D01*
X132116660Y-141891265D01*
X132221265Y-141786660D01*
X132344268Y-141704472D01*
X132480941Y-141647860D01*
X132626032Y-141619000D01*
X132773968Y-141619000D01*
X132919059Y-141647860D01*
X132919059Y-141647860D01*
G37*
G36*
X141077617Y-140228420D02*
G01*
X141168403Y-140255960D01*
X141200335Y-140265646D01*
X141313424Y-140326094D01*
X141412554Y-140407447D01*
X141493906Y-140506575D01*
X141554354Y-140619664D01*
X141564040Y-140651596D01*
X141591580Y-140742382D01*
X141601000Y-140838027D01*
X141601000Y-142101973D01*
X141591580Y-142197618D01*
X141564040Y-142288404D01*
X141554354Y-142320336D01*
X141493906Y-142433425D01*
X141412554Y-142532554D01*
X141313425Y-142613906D01*
X141200336Y-142674354D01*
X141168404Y-142684040D01*
X141077618Y-142711580D01*
X140950000Y-142724149D01*
X140822383Y-142711580D01*
X140731597Y-142684040D01*
X140699665Y-142674354D01*
X140586576Y-142613906D01*
X140487447Y-142532554D01*
X140406095Y-142433425D01*
X140345647Y-142320336D01*
X140335961Y-142288404D01*
X140308421Y-142197618D01*
X140299001Y-142101973D01*
X140299000Y-140838028D01*
X140308420Y-140742383D01*
X140345645Y-140619669D01*
X140345646Y-140619665D01*
X140406094Y-140506576D01*
X140487447Y-140407446D01*
X140586575Y-140326094D01*
X140699664Y-140265646D01*
X140731596Y-140255960D01*
X140822382Y-140228420D01*
X140950000Y-140215851D01*
X141077617Y-140228420D01*
X141077617Y-140228420D01*
G37*
G36*
X124577617Y-140228420D02*
G01*
X124668403Y-140255960D01*
X124700335Y-140265646D01*
X124813424Y-140326094D01*
X124912554Y-140407447D01*
X124993906Y-140506575D01*
X125054354Y-140619664D01*
X125064040Y-140651596D01*
X125091580Y-140742382D01*
X125101000Y-140838027D01*
X125101000Y-142101973D01*
X125091580Y-142197618D01*
X125064040Y-142288404D01*
X125054354Y-142320336D01*
X124993906Y-142433425D01*
X124912554Y-142532554D01*
X124813425Y-142613906D01*
X124700336Y-142674354D01*
X124668404Y-142684040D01*
X124577618Y-142711580D01*
X124450000Y-142724149D01*
X124322383Y-142711580D01*
X124231597Y-142684040D01*
X124199665Y-142674354D01*
X124086576Y-142613906D01*
X123987447Y-142532554D01*
X123906095Y-142433425D01*
X123845647Y-142320336D01*
X123835961Y-142288404D01*
X123808421Y-142197618D01*
X123799001Y-142101973D01*
X123799000Y-140838028D01*
X123808420Y-140742383D01*
X123845645Y-140619669D01*
X123845646Y-140619665D01*
X123906094Y-140506576D01*
X123987447Y-140407446D01*
X124086575Y-140326094D01*
X124199664Y-140265646D01*
X124231596Y-140255960D01*
X124322382Y-140228420D01*
X124450000Y-140215851D01*
X124577617Y-140228420D01*
X124577617Y-140228420D01*
G37*
G36*
X160838014Y-139206973D02*
G01*
X160941878Y-139238479D01*
X160985907Y-139262013D01*
X161037599Y-139289643D01*
X161037601Y-139289644D01*
X161037600Y-139289644D01*
X161121501Y-139358499D01*
X161190356Y-139442400D01*
X161241521Y-139538121D01*
X161273027Y-139641985D01*
X161281000Y-139722933D01*
X161281000Y-140577067D01*
X161273027Y-140658015D01*
X161241521Y-140761879D01*
X161241519Y-140761882D01*
X161190357Y-140857600D01*
X161121501Y-140941501D01*
X161037600Y-141010357D01*
X160969055Y-141046995D01*
X160941879Y-141061521D01*
X160838015Y-141093027D01*
X160730000Y-141103666D01*
X160621986Y-141093027D01*
X160518122Y-141061521D01*
X160490946Y-141046995D01*
X160422401Y-141010357D01*
X160338500Y-140941501D01*
X160269644Y-140857600D01*
X160218482Y-140761882D01*
X160218480Y-140761879D01*
X160186973Y-140658015D01*
X160179000Y-140577067D01*
X160179000Y-139722934D01*
X160186973Y-139641986D01*
X160218479Y-139538122D01*
X160269644Y-139442400D01*
X160338499Y-139358499D01*
X160422400Y-139289644D01*
X160422399Y-139289644D01*
X160422401Y-139289643D01*
X160474093Y-139262013D01*
X160518121Y-139238479D01*
X160621985Y-139206973D01*
X160730000Y-139196334D01*
X160838014Y-139206973D01*
X160838014Y-139206973D01*
G37*
G36*
X152378014Y-139206973D02*
G01*
X152481878Y-139238479D01*
X152525907Y-139262013D01*
X152577599Y-139289643D01*
X152577601Y-139289644D01*
X152577600Y-139289644D01*
X152661501Y-139358499D01*
X152730356Y-139442400D01*
X152781521Y-139538121D01*
X152813027Y-139641985D01*
X152821000Y-139722933D01*
X152821000Y-140577067D01*
X152813027Y-140658015D01*
X152781521Y-140761879D01*
X152781519Y-140761882D01*
X152730357Y-140857600D01*
X152661501Y-140941501D01*
X152577600Y-141010357D01*
X152509055Y-141046995D01*
X152481879Y-141061521D01*
X152378015Y-141093027D01*
X152270000Y-141103666D01*
X152161986Y-141093027D01*
X152058122Y-141061521D01*
X152030946Y-141046995D01*
X151962401Y-141010357D01*
X151878500Y-140941501D01*
X151809644Y-140857600D01*
X151758482Y-140761882D01*
X151758480Y-140761879D01*
X151726973Y-140658015D01*
X151719000Y-140577067D01*
X151719000Y-139722934D01*
X151726973Y-139641986D01*
X151758479Y-139538122D01*
X151809644Y-139442400D01*
X151878499Y-139358499D01*
X151962400Y-139289644D01*
X151962399Y-139289644D01*
X151962401Y-139289643D01*
X152014093Y-139262013D01*
X152058121Y-139238479D01*
X152161985Y-139206973D01*
X152270000Y-139196334D01*
X152378014Y-139206973D01*
X152378014Y-139206973D01*
G37*
G36*
X161790721Y-135980174D02*
G01*
X161890995Y-136021709D01*
X161890996Y-136021710D01*
X161981242Y-136082010D01*
X162057990Y-136158758D01*
X162057991Y-136158760D01*
X162118291Y-136249005D01*
X162159826Y-136349279D01*
X162181000Y-136455730D01*
X162181000Y-136564270D01*
X162159826Y-136670721D01*
X162118291Y-136770995D01*
X162118290Y-136770996D01*
X162057990Y-136861242D01*
X161981242Y-136937990D01*
X161935812Y-136968345D01*
X161890995Y-136998291D01*
X161790721Y-137039826D01*
X161684270Y-137061000D01*
X161575730Y-137061000D01*
X161469279Y-137039826D01*
X161369005Y-136998291D01*
X161324188Y-136968345D01*
X161278758Y-136937990D01*
X161202010Y-136861242D01*
X161141710Y-136770996D01*
X161141709Y-136770995D01*
X161100174Y-136670721D01*
X161079000Y-136564270D01*
X161079000Y-136455730D01*
X161100174Y-136349279D01*
X161141709Y-136249005D01*
X161202009Y-136158760D01*
X161202010Y-136158758D01*
X161278758Y-136082010D01*
X161369004Y-136021710D01*
X161369005Y-136021709D01*
X161469279Y-135980174D01*
X161575730Y-135959000D01*
X161684270Y-135959000D01*
X161790721Y-135980174D01*
X161790721Y-135980174D01*
G37*
G36*
X124597221Y-133249867D02*
G01*
X124738785Y-133292810D01*
X124869251Y-133362546D01*
X124919415Y-133403714D01*
X124983607Y-133456394D01*
X125040784Y-133526066D01*
X125077454Y-133570748D01*
X125147190Y-133701214D01*
X125190133Y-133842778D01*
X125201000Y-133953113D01*
X125201000Y-135426887D01*
X125190133Y-135537222D01*
X125147190Y-135678786D01*
X125077454Y-135809252D01*
X125053008Y-135839040D01*
X124983607Y-135923607D01*
X124914678Y-135980174D01*
X124869252Y-136017454D01*
X124738786Y-136087190D01*
X124597222Y-136130133D01*
X124450000Y-136144633D01*
X124302779Y-136130133D01*
X124161215Y-136087190D01*
X124030749Y-136017454D01*
X123985323Y-135980174D01*
X123916394Y-135923607D01*
X123846993Y-135839040D01*
X123822547Y-135809252D01*
X123752811Y-135678786D01*
X123709868Y-135537222D01*
X123699001Y-135426887D01*
X123699000Y-133953114D01*
X123709867Y-133842779D01*
X123752810Y-133701215D01*
X123822546Y-133570749D01*
X123863714Y-133520585D01*
X123916394Y-133456393D01*
X123986066Y-133399216D01*
X124030748Y-133362546D01*
X124161214Y-133292810D01*
X124302778Y-133249867D01*
X124450000Y-133235367D01*
X124597221Y-133249867D01*
X124597221Y-133249867D01*
G37*
G36*
X141097221Y-133249867D02*
G01*
X141238785Y-133292810D01*
X141369251Y-133362546D01*
X141419415Y-133403714D01*
X141483607Y-133456394D01*
X141540784Y-133526066D01*
X141577454Y-133570748D01*
X141647190Y-133701214D01*
X141690133Y-133842778D01*
X141701000Y-133953113D01*
X141701000Y-135426887D01*
X141690133Y-135537222D01*
X141647190Y-135678786D01*
X141577454Y-135809252D01*
X141553008Y-135839040D01*
X141483607Y-135923607D01*
X141414678Y-135980174D01*
X141369252Y-136017454D01*
X141238786Y-136087190D01*
X141097222Y-136130133D01*
X140950000Y-136144633D01*
X140802779Y-136130133D01*
X140661215Y-136087190D01*
X140530749Y-136017454D01*
X140485323Y-135980174D01*
X140416394Y-135923607D01*
X140346993Y-135839040D01*
X140322547Y-135809252D01*
X140252811Y-135678786D01*
X140209868Y-135537222D01*
X140199001Y-135426887D01*
X140199000Y-133953114D01*
X140209867Y-133842779D01*
X140252810Y-133701215D01*
X140322546Y-133570749D01*
X140363714Y-133520585D01*
X140416394Y-133456393D01*
X140486066Y-133399216D01*
X140530748Y-133362546D01*
X140661214Y-133292810D01*
X140802778Y-133249867D01*
X140950000Y-133235367D01*
X141097221Y-133249867D01*
X141097221Y-133249867D01*
G37*
G36*
X161790721Y-123180174D02*
G01*
X161890995Y-123221709D01*
X161890996Y-123221710D01*
X161981242Y-123282010D01*
X162057990Y-123358758D01*
X162057991Y-123358760D01*
X162118291Y-123449005D01*
X162159826Y-123549279D01*
X162181000Y-123655730D01*
X162181000Y-123764270D01*
X162159826Y-123870721D01*
X162118291Y-123970995D01*
X162118290Y-123970996D01*
X162057990Y-124061242D01*
X161981242Y-124137990D01*
X161935812Y-124168345D01*
X161890995Y-124198291D01*
X161790721Y-124239826D01*
X161684270Y-124261000D01*
X161575730Y-124261000D01*
X161469279Y-124239826D01*
X161369005Y-124198291D01*
X161324188Y-124168345D01*
X161278758Y-124137990D01*
X161202010Y-124061242D01*
X161141710Y-123970996D01*
X161141709Y-123970995D01*
X161100174Y-123870721D01*
X161079000Y-123764270D01*
X161079000Y-123655730D01*
X161100174Y-123549279D01*
X161141709Y-123449005D01*
X161202009Y-123358760D01*
X161202010Y-123358758D01*
X161278758Y-123282010D01*
X161369004Y-123221710D01*
X161369005Y-123221709D01*
X161469279Y-123180174D01*
X161575730Y-123159000D01*
X161684270Y-123159000D01*
X161790721Y-123180174D01*
X161790721Y-123180174D01*
G37*
G36*
X125325256Y-116391298D02*
G01*
X125431579Y-116412447D01*
X125732042Y-116536903D01*
X126002451Y-116717585D01*
X126232415Y-116947549D01*
X126413097Y-117217958D01*
X126537553Y-117518421D01*
X126601000Y-117837391D01*
X126601000Y-118162609D01*
X126537553Y-118481579D01*
X126413097Y-118782042D01*
X126232415Y-119052451D01*
X126002451Y-119282415D01*
X125732042Y-119463097D01*
X125431579Y-119587553D01*
X125325256Y-119608702D01*
X125112611Y-119651000D01*
X124787389Y-119651000D01*
X124574744Y-119608702D01*
X124468421Y-119587553D01*
X124167958Y-119463097D01*
X123897549Y-119282415D01*
X123667585Y-119052451D01*
X123486903Y-118782042D01*
X123362447Y-118481579D01*
X123299000Y-118162609D01*
X123299000Y-117837391D01*
X123362447Y-117518421D01*
X123486903Y-117217958D01*
X123667585Y-116947549D01*
X123897549Y-116717585D01*
X124167958Y-116536903D01*
X124468421Y-116412447D01*
X124574744Y-116391298D01*
X124787389Y-116349000D01*
X125112611Y-116349000D01*
X125325256Y-116391298D01*
X125325256Y-116391298D01*
G37*
G36*
X162175256Y-116391298D02*
G01*
X162281579Y-116412447D01*
X162582042Y-116536903D01*
X162852451Y-116717585D01*
X163082415Y-116947549D01*
X163263097Y-117217958D01*
X163387553Y-117518421D01*
X163451000Y-117837391D01*
X163451000Y-118162609D01*
X163387553Y-118481579D01*
X163263097Y-118782042D01*
X163082415Y-119052451D01*
X162852451Y-119282415D01*
X162582042Y-119463097D01*
X162281579Y-119587553D01*
X162175256Y-119608702D01*
X161962611Y-119651000D01*
X161637389Y-119651000D01*
X161424744Y-119608702D01*
X161318421Y-119587553D01*
X161017958Y-119463097D01*
X160747549Y-119282415D01*
X160517585Y-119052451D01*
X160336903Y-118782042D01*
X160212447Y-118481579D01*
X160149000Y-118162609D01*
X160149000Y-117837391D01*
X160212447Y-117518421D01*
X160336903Y-117217958D01*
X160517585Y-116947549D01*
X160747549Y-116717585D01*
X161017958Y-116536903D01*
X161318421Y-116412447D01*
X161424744Y-116391298D01*
X161637389Y-116349000D01*
X161962611Y-116349000D01*
X162175256Y-116391298D01*
X162175256Y-116391298D01*
G37*
M02*
