G04 #@! TF.GenerationSoftware,KiCad,Pcbnew,5.1.2*
G04 #@! TF.CreationDate,2019-07-22T02:15:18+02:00*
G04 #@! TF.ProjectId,OtterScreen,4f747465-7253-4637-9265-656e2e6b6963,rev?*
G04 #@! TF.SameCoordinates,Original*
G04 #@! TF.FileFunction,Legend,Top*
G04 #@! TF.FilePolarity,Positive*
%FSLAX46Y46*%
G04 Gerber Fmt 4.6, Leading zero omitted, Abs format (unit mm)*
G04 Created by KiCad (PCBNEW 5.1.2) date 2019-07-22 02:15:18*
%MOMM*%
%LPD*%
G04 APERTURE LIST*
%ADD10C,0.100000*%
%ADD11C,0.130000*%
%ADD12C,0.150000*%
%ADD13C,0.127000*%
%ADD14C,0.200000*%
%ADD15C,0.010000*%
%ADD16C,0.120000*%
%ADD17C,0.110000*%
G04 APERTURE END LIST*
D10*
X123038095Y-119183333D02*
X123838095Y-119183333D01*
X123838095Y-119373809D01*
X123800000Y-119488095D01*
X123723809Y-119564285D01*
X123647619Y-119602380D01*
X123495238Y-119640476D01*
X123380952Y-119640476D01*
X123228571Y-119602380D01*
X123152380Y-119564285D01*
X123076190Y-119488095D01*
X123038095Y-119373809D01*
X123038095Y-119183333D01*
X123076190Y-120288095D02*
X123038095Y-120211904D01*
X123038095Y-120059523D01*
X123076190Y-119983333D01*
X123152380Y-119945238D01*
X123457142Y-119945238D01*
X123533333Y-119983333D01*
X123571428Y-120059523D01*
X123571428Y-120211904D01*
X123533333Y-120288095D01*
X123457142Y-120326190D01*
X123380952Y-120326190D01*
X123304761Y-119945238D01*
X123076190Y-120630952D02*
X123038095Y-120707142D01*
X123038095Y-120859523D01*
X123076190Y-120935714D01*
X123152380Y-120973809D01*
X123190476Y-120973809D01*
X123266666Y-120935714D01*
X123304761Y-120859523D01*
X123304761Y-120745238D01*
X123342857Y-120669047D01*
X123419047Y-120630952D01*
X123457142Y-120630952D01*
X123533333Y-120669047D01*
X123571428Y-120745238D01*
X123571428Y-120859523D01*
X123533333Y-120935714D01*
X123038095Y-121316666D02*
X123571428Y-121316666D01*
X123838095Y-121316666D02*
X123800000Y-121278571D01*
X123761904Y-121316666D01*
X123800000Y-121354761D01*
X123838095Y-121316666D01*
X123761904Y-121316666D01*
X123571428Y-122040476D02*
X122923809Y-122040476D01*
X122847619Y-122002380D01*
X122809523Y-121964285D01*
X122771428Y-121888095D01*
X122771428Y-121773809D01*
X122809523Y-121697619D01*
X123076190Y-122040476D02*
X123038095Y-121964285D01*
X123038095Y-121811904D01*
X123076190Y-121735714D01*
X123114285Y-121697619D01*
X123190476Y-121659523D01*
X123419047Y-121659523D01*
X123495238Y-121697619D01*
X123533333Y-121735714D01*
X123571428Y-121811904D01*
X123571428Y-121964285D01*
X123533333Y-122040476D01*
X123571428Y-122421428D02*
X123038095Y-122421428D01*
X123495238Y-122421428D02*
X123533333Y-122459523D01*
X123571428Y-122535714D01*
X123571428Y-122650000D01*
X123533333Y-122726190D01*
X123457142Y-122764285D01*
X123038095Y-122764285D01*
X123038095Y-123754761D02*
X123838095Y-123754761D01*
X123533333Y-123754761D02*
X123571428Y-123830952D01*
X123571428Y-123983333D01*
X123533333Y-124059523D01*
X123495238Y-124097619D01*
X123419047Y-124135714D01*
X123190476Y-124135714D01*
X123114285Y-124097619D01*
X123076190Y-124059523D01*
X123038095Y-123983333D01*
X123038095Y-123830952D01*
X123076190Y-123754761D01*
X123571428Y-124402380D02*
X123038095Y-124592857D01*
X123571428Y-124783333D02*
X123038095Y-124592857D01*
X122847619Y-124516666D01*
X122809523Y-124478571D01*
X122771428Y-124402380D01*
X122538095Y-116611904D02*
X121966666Y-116611904D01*
X121852380Y-116573809D01*
X121776190Y-116497619D01*
X121738095Y-116383333D01*
X121738095Y-116307142D01*
X121738095Y-117335714D02*
X122157142Y-117335714D01*
X122233333Y-117297619D01*
X122271428Y-117221428D01*
X122271428Y-117069047D01*
X122233333Y-116992857D01*
X121776190Y-117335714D02*
X121738095Y-117259523D01*
X121738095Y-117069047D01*
X121776190Y-116992857D01*
X121852380Y-116954761D01*
X121928571Y-116954761D01*
X122004761Y-116992857D01*
X122042857Y-117069047D01*
X122042857Y-117259523D01*
X122080952Y-117335714D01*
X122271428Y-117716666D02*
X121738095Y-117716666D01*
X122195238Y-117716666D02*
X122233333Y-117754761D01*
X122271428Y-117830952D01*
X122271428Y-117945238D01*
X122233333Y-118021428D01*
X122157142Y-118059523D01*
X121738095Y-118059523D01*
X121738095Y-119049999D02*
X122538095Y-119049999D01*
X122157142Y-119049999D02*
X122157142Y-119507142D01*
X121738095Y-119507142D02*
X122538095Y-119507142D01*
X121776190Y-120192857D02*
X121738095Y-120116666D01*
X121738095Y-119964285D01*
X121776190Y-119888095D01*
X121852380Y-119849999D01*
X122157142Y-119849999D01*
X122233333Y-119888095D01*
X122271428Y-119964285D01*
X122271428Y-120116666D01*
X122233333Y-120192857D01*
X122157142Y-120230952D01*
X122080952Y-120230952D01*
X122004761Y-119849999D01*
X122271428Y-120573809D02*
X121738095Y-120573809D01*
X122195238Y-120573809D02*
X122233333Y-120611904D01*
X122271428Y-120688095D01*
X122271428Y-120802380D01*
X122233333Y-120878571D01*
X122157142Y-120916666D01*
X121738095Y-120916666D01*
X121738095Y-121297619D02*
X122271428Y-121297619D01*
X122119047Y-121297619D02*
X122195238Y-121335714D01*
X122233333Y-121373809D01*
X122271428Y-121449999D01*
X122271428Y-121526190D01*
X121738095Y-121792857D02*
X122271428Y-121792857D01*
X122538095Y-121792857D02*
X122500000Y-121754761D01*
X122461904Y-121792857D01*
X122500000Y-121830952D01*
X122538095Y-121792857D01*
X122461904Y-121792857D01*
X121738095Y-122173809D02*
X122538095Y-122173809D01*
X122042857Y-122249999D02*
X121738095Y-122478571D01*
X122271428Y-122478571D02*
X121966666Y-122173809D01*
X121738095Y-123430952D02*
X122538095Y-123430952D01*
X122157142Y-123430952D02*
X122157142Y-123888095D01*
X121738095Y-123888095D02*
X122538095Y-123888095D01*
X121776190Y-124573809D02*
X121738095Y-124497619D01*
X121738095Y-124345238D01*
X121776190Y-124269047D01*
X121852380Y-124230952D01*
X122157142Y-124230952D01*
X122233333Y-124269047D01*
X122271428Y-124345238D01*
X122271428Y-124497619D01*
X122233333Y-124573809D01*
X122157142Y-124611904D01*
X122080952Y-124611904D01*
X122004761Y-124230952D01*
X121738095Y-124954761D02*
X122271428Y-124954761D01*
X122195238Y-124954761D02*
X122233333Y-124992857D01*
X122271428Y-125069047D01*
X122271428Y-125183333D01*
X122233333Y-125259523D01*
X122157142Y-125297619D01*
X121738095Y-125297619D01*
X122157142Y-125297619D02*
X122233333Y-125335714D01*
X122271428Y-125411904D01*
X122271428Y-125526190D01*
X122233333Y-125602380D01*
X122157142Y-125640476D01*
X121738095Y-125640476D01*
X121776190Y-125983333D02*
X121738095Y-126059523D01*
X121738095Y-126211904D01*
X121776190Y-126288095D01*
X121852380Y-126326190D01*
X121890476Y-126326190D01*
X121966666Y-126288095D01*
X122004761Y-126211904D01*
X122004761Y-126097619D01*
X122042857Y-126021428D01*
X122119047Y-125983333D01*
X122157142Y-125983333D01*
X122233333Y-126021428D01*
X122271428Y-126097619D01*
X122271428Y-126211904D01*
X122233333Y-126288095D01*
X121738095Y-126669047D02*
X122271428Y-126669047D01*
X122538095Y-126669047D02*
X122500000Y-126630952D01*
X122461904Y-126669047D01*
X122500000Y-126707142D01*
X122538095Y-126669047D01*
X122461904Y-126669047D01*
X122271428Y-127049999D02*
X121738095Y-127049999D01*
X122195238Y-127049999D02*
X122233333Y-127088095D01*
X122271428Y-127164285D01*
X122271428Y-127278571D01*
X122233333Y-127354761D01*
X122157142Y-127392857D01*
X121738095Y-127392857D01*
X122271428Y-128116666D02*
X121623809Y-128116666D01*
X121547619Y-128078571D01*
X121509523Y-128040476D01*
X121471428Y-127964285D01*
X121471428Y-127849999D01*
X121509523Y-127773809D01*
X121776190Y-128116666D02*
X121738095Y-128040476D01*
X121738095Y-127888095D01*
X121776190Y-127811904D01*
X121814285Y-127773809D01*
X121890476Y-127735714D01*
X122119047Y-127735714D01*
X122195238Y-127773809D01*
X122233333Y-127811904D01*
X122271428Y-127888095D01*
X122271428Y-128040476D01*
X122233333Y-128116666D01*
X146500000Y-130021428D02*
X146500000Y-129421428D01*
X146642857Y-129421428D01*
X146728571Y-129450000D01*
X146785714Y-129507142D01*
X146814285Y-129564285D01*
X146842857Y-129678571D01*
X146842857Y-129764285D01*
X146814285Y-129878571D01*
X146785714Y-129935714D01*
X146728571Y-129992857D01*
X146642857Y-130021428D01*
X146500000Y-130021428D01*
X147100000Y-130021428D02*
X147100000Y-129621428D01*
X147100000Y-129421428D02*
X147071428Y-129450000D01*
X147100000Y-129478571D01*
X147128571Y-129450000D01*
X147100000Y-129421428D01*
X147100000Y-129478571D01*
X147357142Y-129992857D02*
X147414285Y-130021428D01*
X147528571Y-130021428D01*
X147585714Y-129992857D01*
X147614285Y-129935714D01*
X147614285Y-129907142D01*
X147585714Y-129850000D01*
X147528571Y-129821428D01*
X147442857Y-129821428D01*
X147385714Y-129792857D01*
X147357142Y-129735714D01*
X147357142Y-129707142D01*
X147385714Y-129650000D01*
X147442857Y-129621428D01*
X147528571Y-129621428D01*
X147585714Y-129650000D01*
X147871428Y-129621428D02*
X147871428Y-130221428D01*
X147871428Y-129650000D02*
X147928571Y-129621428D01*
X148042857Y-129621428D01*
X148100000Y-129650000D01*
X148128571Y-129678571D01*
X148157142Y-129735714D01*
X148157142Y-129907142D01*
X148128571Y-129964285D01*
X148100000Y-129992857D01*
X148042857Y-130021428D01*
X147928571Y-130021428D01*
X147871428Y-129992857D01*
X148500000Y-130021428D02*
X148442857Y-129992857D01*
X148414285Y-129935714D01*
X148414285Y-129421428D01*
X148985714Y-130021428D02*
X148985714Y-129707142D01*
X148957142Y-129650000D01*
X148900000Y-129621428D01*
X148785714Y-129621428D01*
X148728571Y-129650000D01*
X148985714Y-129992857D02*
X148928571Y-130021428D01*
X148785714Y-130021428D01*
X148728571Y-129992857D01*
X148700000Y-129935714D01*
X148700000Y-129878571D01*
X148728571Y-129821428D01*
X148785714Y-129792857D01*
X148928571Y-129792857D01*
X148985714Y-129764285D01*
X149214285Y-129621428D02*
X149357142Y-130021428D01*
X149500000Y-129621428D02*
X149357142Y-130021428D01*
X149300000Y-130164285D01*
X149271428Y-130192857D01*
X149214285Y-130221428D01*
X149728571Y-130021428D02*
X149728571Y-129421428D01*
X149957142Y-129421428D01*
X150014285Y-129450000D01*
X150042857Y-129478571D01*
X150071428Y-129535714D01*
X150071428Y-129621428D01*
X150042857Y-129678571D01*
X150014285Y-129707142D01*
X149957142Y-129735714D01*
X149728571Y-129735714D01*
X150414285Y-130021428D02*
X150357142Y-129992857D01*
X150328571Y-129964285D01*
X150300000Y-129907142D01*
X150300000Y-129735714D01*
X150328571Y-129678571D01*
X150357142Y-129650000D01*
X150414285Y-129621428D01*
X150500000Y-129621428D01*
X150557142Y-129650000D01*
X150585714Y-129678571D01*
X150614285Y-129735714D01*
X150614285Y-129907142D01*
X150585714Y-129964285D01*
X150557142Y-129992857D01*
X150500000Y-130021428D01*
X150414285Y-130021428D01*
X150871428Y-130021428D02*
X150871428Y-129621428D01*
X150871428Y-129735714D02*
X150900000Y-129678571D01*
X150928571Y-129650000D01*
X150985714Y-129621428D01*
X151042857Y-129621428D01*
X151157142Y-129621428D02*
X151385714Y-129621428D01*
X151242857Y-129421428D02*
X151242857Y-129935714D01*
X151271428Y-129992857D01*
X151328571Y-130021428D01*
X151385714Y-130021428D01*
X127114285Y-138421428D02*
X127114285Y-137821428D01*
X127342857Y-137821428D01*
X127400000Y-137850000D01*
X127428571Y-137878571D01*
X127457142Y-137935714D01*
X127457142Y-138021428D01*
X127428571Y-138078571D01*
X127400000Y-138107142D01*
X127342857Y-138135714D01*
X127114285Y-138135714D01*
X127800000Y-138421428D02*
X127742857Y-138392857D01*
X127714285Y-138364285D01*
X127685714Y-138307142D01*
X127685714Y-138135714D01*
X127714285Y-138078571D01*
X127742857Y-138050000D01*
X127800000Y-138021428D01*
X127885714Y-138021428D01*
X127942857Y-138050000D01*
X127971428Y-138078571D01*
X128000000Y-138135714D01*
X128000000Y-138307142D01*
X127971428Y-138364285D01*
X127942857Y-138392857D01*
X127885714Y-138421428D01*
X127800000Y-138421428D01*
X128200000Y-138021428D02*
X128314285Y-138421428D01*
X128428571Y-138135714D01*
X128542857Y-138421428D01*
X128657142Y-138021428D01*
X129114285Y-138392857D02*
X129057142Y-138421428D01*
X128942857Y-138421428D01*
X128885714Y-138392857D01*
X128857142Y-138335714D01*
X128857142Y-138107142D01*
X128885714Y-138050000D01*
X128942857Y-138021428D01*
X129057142Y-138021428D01*
X129114285Y-138050000D01*
X129142857Y-138107142D01*
X129142857Y-138164285D01*
X128857142Y-138221428D01*
X129400000Y-138421428D02*
X129400000Y-138021428D01*
X129400000Y-138135714D02*
X129428571Y-138078571D01*
X129457142Y-138050000D01*
X129514285Y-138021428D01*
X129571428Y-138021428D01*
X148157142Y-120078571D02*
X148442857Y-120078571D01*
X148442857Y-120678571D01*
X147957142Y-120078571D02*
X147957142Y-120678571D01*
X147728571Y-120678571D01*
X147671428Y-120650000D01*
X147642857Y-120621428D01*
X147614285Y-120564285D01*
X147614285Y-120478571D01*
X147642857Y-120421428D01*
X147671428Y-120392857D01*
X147728571Y-120364285D01*
X147957142Y-120364285D01*
X147242857Y-120678571D02*
X147185714Y-120678571D01*
X147128571Y-120650000D01*
X147100000Y-120621428D01*
X147071428Y-120564285D01*
X147042857Y-120450000D01*
X147042857Y-120307142D01*
X147071428Y-120192857D01*
X147100000Y-120135714D01*
X147128571Y-120107142D01*
X147185714Y-120078571D01*
X147242857Y-120078571D01*
X147300000Y-120107142D01*
X147328571Y-120135714D01*
X147357142Y-120192857D01*
X147385714Y-120307142D01*
X147385714Y-120450000D01*
X147357142Y-120564285D01*
X147328571Y-120621428D01*
X147300000Y-120650000D01*
X147242857Y-120678571D01*
X146757142Y-120078571D02*
X146642857Y-120078571D01*
X146585714Y-120107142D01*
X146557142Y-120135714D01*
X146500000Y-120221428D01*
X146471428Y-120335714D01*
X146471428Y-120564285D01*
X146500000Y-120621428D01*
X146528571Y-120650000D01*
X146585714Y-120678571D01*
X146700000Y-120678571D01*
X146757142Y-120650000D01*
X146785714Y-120621428D01*
X146814285Y-120564285D01*
X146814285Y-120421428D01*
X146785714Y-120364285D01*
X146757142Y-120335714D01*
X146700000Y-120307142D01*
X146585714Y-120307142D01*
X146528571Y-120335714D01*
X146500000Y-120364285D01*
X146471428Y-120421428D01*
X146271428Y-120678571D02*
X145871428Y-120678571D01*
X146128571Y-120078571D01*
X145242857Y-120021428D02*
X145300000Y-120050000D01*
X145357142Y-120107142D01*
X145442857Y-120192857D01*
X145500000Y-120221428D01*
X145557142Y-120221428D01*
X145528571Y-120078571D02*
X145585714Y-120107142D01*
X145642857Y-120164285D01*
X145671428Y-120278571D01*
X145671428Y-120478571D01*
X145642857Y-120592857D01*
X145585714Y-120650000D01*
X145528571Y-120678571D01*
X145414285Y-120678571D01*
X145357142Y-120650000D01*
X145300000Y-120592857D01*
X145271428Y-120478571D01*
X145271428Y-120278571D01*
X145300000Y-120164285D01*
X145357142Y-120107142D01*
X145414285Y-120078571D01*
X145528571Y-120078571D01*
X145071428Y-120678571D02*
X144671428Y-120078571D01*
X144671428Y-120678571D02*
X145071428Y-120078571D01*
X144128571Y-120078571D02*
X144471428Y-120078571D01*
X144300000Y-120078571D02*
X144300000Y-120678571D01*
X144357142Y-120592857D01*
X144414285Y-120535714D01*
X144471428Y-120507142D01*
X143871428Y-120307142D02*
X143414285Y-120307142D01*
X143157142Y-120107142D02*
X143071428Y-120078571D01*
X142928571Y-120078571D01*
X142871428Y-120107142D01*
X142842857Y-120135714D01*
X142814285Y-120192857D01*
X142814285Y-120250000D01*
X142842857Y-120307142D01*
X142871428Y-120335714D01*
X142928571Y-120364285D01*
X143042857Y-120392857D01*
X143100000Y-120421428D01*
X143128571Y-120450000D01*
X143157142Y-120507142D01*
X143157142Y-120564285D01*
X143128571Y-120621428D01*
X143100000Y-120650000D01*
X143042857Y-120678571D01*
X142900000Y-120678571D01*
X142814285Y-120650000D01*
X142557142Y-120078571D02*
X142557142Y-120678571D01*
X142328571Y-120678571D01*
X142271428Y-120650000D01*
X142242857Y-120621428D01*
X142214285Y-120564285D01*
X142214285Y-120478571D01*
X142242857Y-120421428D01*
X142271428Y-120392857D01*
X142328571Y-120364285D01*
X142557142Y-120364285D01*
X141985714Y-120250000D02*
X141700000Y-120250000D01*
X142042857Y-120078571D02*
X141842857Y-120678571D01*
X141642857Y-120078571D01*
X141128571Y-120078571D02*
X141471428Y-120078571D01*
X141300000Y-120078571D02*
X141300000Y-120678571D01*
X141357142Y-120592857D01*
X141414285Y-120535714D01*
X141471428Y-120507142D01*
D11*
X137528571Y-123288571D02*
X137814285Y-123288571D01*
X137957142Y-123360000D01*
X138100000Y-123502857D01*
X138171428Y-123788571D01*
X138171428Y-124288571D01*
X138100000Y-124574285D01*
X137957142Y-124717142D01*
X137814285Y-124788571D01*
X137528571Y-124788571D01*
X137385714Y-124717142D01*
X137242857Y-124574285D01*
X137171428Y-124288571D01*
X137171428Y-123788571D01*
X137242857Y-123502857D01*
X137385714Y-123360000D01*
X137528571Y-123288571D01*
X138600000Y-123788571D02*
X139171428Y-123788571D01*
X138814285Y-123288571D02*
X138814285Y-124574285D01*
X138885714Y-124717142D01*
X139028571Y-124788571D01*
X139171428Y-124788571D01*
X139457142Y-123788571D02*
X140028571Y-123788571D01*
X139671428Y-123288571D02*
X139671428Y-124574285D01*
X139742857Y-124717142D01*
X139885714Y-124788571D01*
X140028571Y-124788571D01*
X141100000Y-124717142D02*
X140957142Y-124788571D01*
X140671428Y-124788571D01*
X140528571Y-124717142D01*
X140457142Y-124574285D01*
X140457142Y-124002857D01*
X140528571Y-123860000D01*
X140671428Y-123788571D01*
X140957142Y-123788571D01*
X141100000Y-123860000D01*
X141171428Y-124002857D01*
X141171428Y-124145714D01*
X140457142Y-124288571D01*
X141814285Y-124788571D02*
X141814285Y-123788571D01*
X141814285Y-124074285D02*
X141885714Y-123931428D01*
X141957142Y-123860000D01*
X142100000Y-123788571D01*
X142242857Y-123788571D01*
X142671428Y-124717142D02*
X142885714Y-124788571D01*
X143242857Y-124788571D01*
X143385714Y-124717142D01*
X143457142Y-124645714D01*
X143528571Y-124502857D01*
X143528571Y-124360000D01*
X143457142Y-124217142D01*
X143385714Y-124145714D01*
X143242857Y-124074285D01*
X142957142Y-124002857D01*
X142814285Y-123931428D01*
X142742857Y-123860000D01*
X142671428Y-123717142D01*
X142671428Y-123574285D01*
X142742857Y-123431428D01*
X142814285Y-123360000D01*
X142957142Y-123288571D01*
X143314285Y-123288571D01*
X143528571Y-123360000D01*
X144814285Y-124717142D02*
X144671428Y-124788571D01*
X144385714Y-124788571D01*
X144242857Y-124717142D01*
X144171428Y-124645714D01*
X144100000Y-124502857D01*
X144100000Y-124074285D01*
X144171428Y-123931428D01*
X144242857Y-123860000D01*
X144385714Y-123788571D01*
X144671428Y-123788571D01*
X144814285Y-123860000D01*
X145457142Y-124788571D02*
X145457142Y-123788571D01*
X145457142Y-124074285D02*
X145528571Y-123931428D01*
X145600000Y-123860000D01*
X145742857Y-123788571D01*
X145885714Y-123788571D01*
X146957142Y-124717142D02*
X146814285Y-124788571D01*
X146528571Y-124788571D01*
X146385714Y-124717142D01*
X146314285Y-124574285D01*
X146314285Y-124002857D01*
X146385714Y-123860000D01*
X146528571Y-123788571D01*
X146814285Y-123788571D01*
X146957142Y-123860000D01*
X147028571Y-124002857D01*
X147028571Y-124145714D01*
X146314285Y-124288571D01*
X148242857Y-124717142D02*
X148100000Y-124788571D01*
X147814285Y-124788571D01*
X147671428Y-124717142D01*
X147600000Y-124574285D01*
X147600000Y-124002857D01*
X147671428Y-123860000D01*
X147814285Y-123788571D01*
X148100000Y-123788571D01*
X148242857Y-123860000D01*
X148314285Y-124002857D01*
X148314285Y-124145714D01*
X147600000Y-124288571D01*
X148957142Y-123788571D02*
X148957142Y-124788571D01*
X148957142Y-123931428D02*
X149028571Y-123860000D01*
X149171428Y-123788571D01*
X149385714Y-123788571D01*
X149528571Y-123860000D01*
X149600000Y-124002857D01*
X149600000Y-124788571D01*
X150314285Y-124217142D02*
X151457142Y-124217142D01*
X140421428Y-126740000D02*
X141135714Y-126740000D01*
X140278571Y-127168571D02*
X140778571Y-125668571D01*
X141278571Y-127168571D01*
X142421428Y-127168571D02*
X142421428Y-125668571D01*
X142421428Y-127097142D02*
X142278571Y-127168571D01*
X141992857Y-127168571D01*
X141850000Y-127097142D01*
X141778571Y-127025714D01*
X141707142Y-126882857D01*
X141707142Y-126454285D01*
X141778571Y-126311428D01*
X141850000Y-126240000D01*
X141992857Y-126168571D01*
X142278571Y-126168571D01*
X142421428Y-126240000D01*
X143778571Y-127168571D02*
X143778571Y-126382857D01*
X143707142Y-126240000D01*
X143564285Y-126168571D01*
X143278571Y-126168571D01*
X143135714Y-126240000D01*
X143778571Y-127097142D02*
X143635714Y-127168571D01*
X143278571Y-127168571D01*
X143135714Y-127097142D01*
X143064285Y-126954285D01*
X143064285Y-126811428D01*
X143135714Y-126668571D01*
X143278571Y-126597142D01*
X143635714Y-126597142D01*
X143778571Y-126525714D01*
X144492857Y-126168571D02*
X144492857Y-127668571D01*
X144492857Y-126240000D02*
X144635714Y-126168571D01*
X144921428Y-126168571D01*
X145064285Y-126240000D01*
X145135714Y-126311428D01*
X145207142Y-126454285D01*
X145207142Y-126882857D01*
X145135714Y-127025714D01*
X145064285Y-127097142D01*
X144921428Y-127168571D01*
X144635714Y-127168571D01*
X144492857Y-127097142D01*
X145635714Y-126168571D02*
X146207142Y-126168571D01*
X145850000Y-125668571D02*
X145850000Y-126954285D01*
X145921428Y-127097142D01*
X146064285Y-127168571D01*
X146207142Y-127168571D01*
X147278571Y-127097142D02*
X147135714Y-127168571D01*
X146850000Y-127168571D01*
X146707142Y-127097142D01*
X146635714Y-126954285D01*
X146635714Y-126382857D01*
X146707142Y-126240000D01*
X146850000Y-126168571D01*
X147135714Y-126168571D01*
X147278571Y-126240000D01*
X147350000Y-126382857D01*
X147350000Y-126525714D01*
X146635714Y-126668571D01*
X147992857Y-127168571D02*
X147992857Y-126168571D01*
X147992857Y-126454285D02*
X148064285Y-126311428D01*
X148135714Y-126240000D01*
X148278571Y-126168571D01*
X148421428Y-126168571D01*
D12*
X157942857Y-134428571D02*
X158085714Y-134476190D01*
X158133333Y-134523809D01*
X158180952Y-134619047D01*
X158180952Y-134761904D01*
X158133333Y-134857142D01*
X158085714Y-134904761D01*
X157990476Y-134952380D01*
X157609523Y-134952380D01*
X157609523Y-133952380D01*
X157942857Y-133952380D01*
X158038095Y-134000000D01*
X158085714Y-134047619D01*
X158133333Y-134142857D01*
X158133333Y-134238095D01*
X158085714Y-134333333D01*
X158038095Y-134380952D01*
X157942857Y-134428571D01*
X157609523Y-134428571D01*
X158609523Y-134952380D02*
X158609523Y-134285714D01*
X158609523Y-134476190D02*
X158657142Y-134380952D01*
X158704761Y-134333333D01*
X158800000Y-134285714D01*
X158895238Y-134285714D01*
X159228571Y-134952380D02*
X159228571Y-134285714D01*
X159228571Y-133952380D02*
X159180952Y-134000000D01*
X159228571Y-134047619D01*
X159276190Y-134000000D01*
X159228571Y-133952380D01*
X159228571Y-134047619D01*
X160133333Y-134285714D02*
X160133333Y-135095238D01*
X160085714Y-135190476D01*
X160038095Y-135238095D01*
X159942857Y-135285714D01*
X159800000Y-135285714D01*
X159704761Y-135238095D01*
X160133333Y-134904761D02*
X160038095Y-134952380D01*
X159847619Y-134952380D01*
X159752380Y-134904761D01*
X159704761Y-134857142D01*
X159657142Y-134761904D01*
X159657142Y-134476190D01*
X159704761Y-134380952D01*
X159752380Y-134333333D01*
X159847619Y-134285714D01*
X160038095Y-134285714D01*
X160133333Y-134333333D01*
X160609523Y-134952380D02*
X160609523Y-133952380D01*
X161038095Y-134952380D02*
X161038095Y-134428571D01*
X160990476Y-134333333D01*
X160895238Y-134285714D01*
X160752380Y-134285714D01*
X160657142Y-134333333D01*
X160609523Y-134380952D01*
X161371428Y-134285714D02*
X161752380Y-134285714D01*
X161514285Y-133952380D02*
X161514285Y-134809523D01*
X161561904Y-134904761D01*
X161657142Y-134952380D01*
X161752380Y-134952380D01*
X162085714Y-134285714D02*
X162085714Y-134952380D01*
X162085714Y-134380952D02*
X162133333Y-134333333D01*
X162228571Y-134285714D01*
X162371428Y-134285714D01*
X162466666Y-134333333D01*
X162514285Y-134428571D01*
X162514285Y-134952380D01*
X163371428Y-134904761D02*
X163276190Y-134952380D01*
X163085714Y-134952380D01*
X162990476Y-134904761D01*
X162942857Y-134809523D01*
X162942857Y-134428571D01*
X162990476Y-134333333D01*
X163085714Y-134285714D01*
X163276190Y-134285714D01*
X163371428Y-134333333D01*
X163419047Y-134428571D01*
X163419047Y-134523809D01*
X162942857Y-134619047D01*
X163800000Y-134904761D02*
X163895238Y-134952380D01*
X164085714Y-134952380D01*
X164180952Y-134904761D01*
X164228571Y-134809523D01*
X164228571Y-134761904D01*
X164180952Y-134666666D01*
X164085714Y-134619047D01*
X163942857Y-134619047D01*
X163847619Y-134571428D01*
X163800000Y-134476190D01*
X163800000Y-134428571D01*
X163847619Y-134333333D01*
X163942857Y-134285714D01*
X164085714Y-134285714D01*
X164180952Y-134333333D01*
X164609523Y-134904761D02*
X164704761Y-134952380D01*
X164895238Y-134952380D01*
X164990476Y-134904761D01*
X165038095Y-134809523D01*
X165038095Y-134761904D01*
X164990476Y-134666666D01*
X164895238Y-134619047D01*
X164752380Y-134619047D01*
X164657142Y-134571428D01*
X164609523Y-134476190D01*
X164609523Y-134428571D01*
X164657142Y-134333333D01*
X164752380Y-134285714D01*
X164895238Y-134285714D01*
X164990476Y-134333333D01*
X164099999Y-114200001D02*
G75*
G02X165800000Y-115900000I1J-1700000D01*
G01*
X121000001Y-115900001D02*
G75*
G02X122700000Y-114200000I1700000J1D01*
G01*
X122700001Y-145599999D02*
G75*
G02X121000000Y-143900000I-1J1700000D01*
G01*
X165800000Y-143900000D02*
G75*
G02X164100000Y-145600000I-1700000J0D01*
G01*
X164100000Y-145600000D02*
X136200000Y-145600000D01*
X165800000Y-115900000D02*
X165800000Y-143900000D01*
X122700000Y-114200000D02*
X164099999Y-114200001D01*
X121000000Y-143900000D02*
X121000001Y-115900001D01*
X136200000Y-145600000D02*
X122700001Y-145599999D01*
D13*
X143700000Y-132130000D02*
X139700000Y-132130000D01*
X139700000Y-132130000D02*
X139700000Y-132830000D01*
X139700000Y-136260000D02*
X139700000Y-139810000D01*
X139700000Y-142840000D02*
X139700000Y-145500000D01*
X156600000Y-142840000D02*
X156600000Y-145500000D01*
X156600000Y-136260000D02*
X156600000Y-139810000D01*
X156600000Y-132130000D02*
X156600000Y-132830000D01*
X156600000Y-132130000D02*
X154100000Y-132130000D01*
D14*
X153750000Y-130100000D02*
G75*
G03X153750000Y-130100000I-100000J0D01*
G01*
D13*
X139700000Y-145500000D02*
X156600000Y-145500000D01*
D15*
G36*
X156448133Y-136559900D02*
G01*
X156443900Y-136564133D01*
X156439667Y-136559900D01*
X156443900Y-136555667D01*
X156448133Y-136559900D01*
X156448133Y-136559900D01*
G37*
X156448133Y-136559900D02*
X156443900Y-136564133D01*
X156439667Y-136559900D01*
X156443900Y-136555667D01*
X156448133Y-136559900D01*
G36*
X155974000Y-137042500D02*
G01*
X155969767Y-137046733D01*
X155965533Y-137042500D01*
X155969767Y-137038267D01*
X155974000Y-137042500D01*
X155974000Y-137042500D01*
G37*
X155974000Y-137042500D02*
X155969767Y-137046733D01*
X155965533Y-137042500D01*
X155969767Y-137038267D01*
X155974000Y-137042500D01*
G36*
X158691800Y-137855300D02*
G01*
X158687566Y-137859533D01*
X158683333Y-137855300D01*
X158687566Y-137851066D01*
X158691800Y-137855300D01*
X158691800Y-137855300D01*
G37*
X158691800Y-137855300D02*
X158687566Y-137859533D01*
X158683333Y-137855300D01*
X158687566Y-137851066D01*
X158691800Y-137855300D01*
G36*
X158645127Y-137542713D02*
G01*
X158633254Y-137550048D01*
X158613569Y-137559124D01*
X158584553Y-137571710D01*
X158550010Y-137586846D01*
X158530933Y-137595269D01*
X158413027Y-137640668D01*
X158298228Y-137670528D01*
X158184036Y-137685288D01*
X158067952Y-137685389D01*
X158033370Y-137682719D01*
X157971392Y-137678366D01*
X157922485Y-137678845D01*
X157883308Y-137684817D01*
X157850521Y-137696945D01*
X157820783Y-137715891D01*
X157806487Y-137727710D01*
X157773167Y-137757030D01*
X157814818Y-137736315D01*
X157849286Y-137722543D01*
X157884450Y-137717078D01*
X157907951Y-137716868D01*
X157930304Y-137717975D01*
X157939745Y-137719667D01*
X157934282Y-137721580D01*
X157934033Y-137721615D01*
X157882444Y-137732188D01*
X157842114Y-137749177D01*
X157810239Y-137772569D01*
X157775174Y-137809898D01*
X157756528Y-137843848D01*
X157754195Y-137874741D01*
X157767876Y-137902663D01*
X157783752Y-137922270D01*
X157802089Y-137886327D01*
X157821878Y-137856122D01*
X157843857Y-137841877D01*
X157870825Y-137842724D01*
X157901396Y-137855521D01*
X157945215Y-137872251D01*
X157986651Y-137876466D01*
X158026701Y-137879291D01*
X158052025Y-137888176D01*
X158063932Y-137903744D01*
X158065267Y-137913723D01*
X158057044Y-137941580D01*
X158033274Y-137969189D01*
X157995304Y-137995163D01*
X157977054Y-138004495D01*
X157924310Y-138023518D01*
X157876688Y-138027595D01*
X157831701Y-138016911D01*
X157828200Y-138015449D01*
X157803044Y-138000554D01*
X157773892Y-137977208D01*
X157744271Y-137949035D01*
X157717709Y-137919661D01*
X157697733Y-137892710D01*
X157687872Y-137871808D01*
X157687731Y-137871115D01*
X157687662Y-137838513D01*
X157696360Y-137798708D01*
X157711985Y-137757697D01*
X157732698Y-137721479D01*
X157734279Y-137719295D01*
X157756645Y-137695340D01*
X157786265Y-137671550D01*
X157804488Y-137660029D01*
X157817533Y-137652874D01*
X157829405Y-137647151D01*
X157842034Y-137642747D01*
X157857347Y-137639551D01*
X157877273Y-137637452D01*
X157903739Y-137636338D01*
X157938673Y-137636096D01*
X157984005Y-137636616D01*
X158041662Y-137637787D01*
X158113572Y-137639495D01*
X158145700Y-137640279D01*
X158205750Y-137640916D01*
X158254063Y-137639315D01*
X158295728Y-137635149D01*
X158335832Y-137628089D01*
X158336200Y-137628012D01*
X158403284Y-137612331D01*
X158475707Y-137592794D01*
X158545720Y-137571598D01*
X158597663Y-137553877D01*
X158626343Y-137544301D01*
X158642494Y-137540689D01*
X158645127Y-137542713D01*
X158645127Y-137542713D01*
G37*
X158645127Y-137542713D02*
X158633254Y-137550048D01*
X158613569Y-137559124D01*
X158584553Y-137571710D01*
X158550010Y-137586846D01*
X158530933Y-137595269D01*
X158413027Y-137640668D01*
X158298228Y-137670528D01*
X158184036Y-137685288D01*
X158067952Y-137685389D01*
X158033370Y-137682719D01*
X157971392Y-137678366D01*
X157922485Y-137678845D01*
X157883308Y-137684817D01*
X157850521Y-137696945D01*
X157820783Y-137715891D01*
X157806487Y-137727710D01*
X157773167Y-137757030D01*
X157814818Y-137736315D01*
X157849286Y-137722543D01*
X157884450Y-137717078D01*
X157907951Y-137716868D01*
X157930304Y-137717975D01*
X157939745Y-137719667D01*
X157934282Y-137721580D01*
X157934033Y-137721615D01*
X157882444Y-137732188D01*
X157842114Y-137749177D01*
X157810239Y-137772569D01*
X157775174Y-137809898D01*
X157756528Y-137843848D01*
X157754195Y-137874741D01*
X157767876Y-137902663D01*
X157783752Y-137922270D01*
X157802089Y-137886327D01*
X157821878Y-137856122D01*
X157843857Y-137841877D01*
X157870825Y-137842724D01*
X157901396Y-137855521D01*
X157945215Y-137872251D01*
X157986651Y-137876466D01*
X158026701Y-137879291D01*
X158052025Y-137888176D01*
X158063932Y-137903744D01*
X158065267Y-137913723D01*
X158057044Y-137941580D01*
X158033274Y-137969189D01*
X157995304Y-137995163D01*
X157977054Y-138004495D01*
X157924310Y-138023518D01*
X157876688Y-138027595D01*
X157831701Y-138016911D01*
X157828200Y-138015449D01*
X157803044Y-138000554D01*
X157773892Y-137977208D01*
X157744271Y-137949035D01*
X157717709Y-137919661D01*
X157697733Y-137892710D01*
X157687872Y-137871808D01*
X157687731Y-137871115D01*
X157687662Y-137838513D01*
X157696360Y-137798708D01*
X157711985Y-137757697D01*
X157732698Y-137721479D01*
X157734279Y-137719295D01*
X157756645Y-137695340D01*
X157786265Y-137671550D01*
X157804488Y-137660029D01*
X157817533Y-137652874D01*
X157829405Y-137647151D01*
X157842034Y-137642747D01*
X157857347Y-137639551D01*
X157877273Y-137637452D01*
X157903739Y-137636338D01*
X157938673Y-137636096D01*
X157984005Y-137636616D01*
X158041662Y-137637787D01*
X158113572Y-137639495D01*
X158145700Y-137640279D01*
X158205750Y-137640916D01*
X158254063Y-137639315D01*
X158295728Y-137635149D01*
X158335832Y-137628089D01*
X158336200Y-137628012D01*
X158403284Y-137612331D01*
X158475707Y-137592794D01*
X158545720Y-137571598D01*
X158597663Y-137553877D01*
X158626343Y-137544301D01*
X158642494Y-137540689D01*
X158645127Y-137542713D01*
G36*
X158880133Y-138016347D02*
G01*
X158922202Y-138044197D01*
X158958859Y-138087948D01*
X158989882Y-138147506D01*
X159013179Y-138215910D01*
X159020957Y-138245737D01*
X159025979Y-138268516D01*
X159027335Y-138280022D01*
X159027120Y-138280568D01*
X159020689Y-138276651D01*
X159008961Y-138262975D01*
X159006870Y-138260158D01*
X158989734Y-138236634D01*
X158957184Y-138252450D01*
X158930347Y-138261615D01*
X158894568Y-138268828D01*
X158865366Y-138272019D01*
X158832424Y-138273372D01*
X158809961Y-138271462D01*
X158791636Y-138264994D01*
X158771264Y-138252771D01*
X158741357Y-138228845D01*
X158720081Y-138200369D01*
X158704266Y-138162417D01*
X158703965Y-138161354D01*
X158752356Y-138161354D01*
X158753660Y-138168983D01*
X158765407Y-138185715D01*
X158775630Y-138197304D01*
X158792350Y-138212989D01*
X158808795Y-138220612D01*
X158832037Y-138222735D01*
X158845480Y-138222604D01*
X158890766Y-138221608D01*
X158849389Y-138214673D01*
X158809632Y-138202201D01*
X158779539Y-138180141D01*
X158761110Y-138164512D01*
X158752356Y-138161354D01*
X158703965Y-138161354D01*
X158697601Y-138138933D01*
X158742600Y-138138933D01*
X158745698Y-138145902D01*
X158748244Y-138144578D01*
X158749258Y-138134530D01*
X158748244Y-138133289D01*
X158743211Y-138134451D01*
X158742600Y-138138933D01*
X158697601Y-138138933D01*
X158697258Y-138137728D01*
X158689361Y-138111012D01*
X158681056Y-138096528D01*
X158669110Y-138089811D01*
X158661272Y-138088060D01*
X158636880Y-138083753D01*
X158650274Y-138074308D01*
X158787287Y-138074308D01*
X158789000Y-138079398D01*
X158801372Y-138086435D01*
X158816667Y-138083170D01*
X158825152Y-138073321D01*
X158822164Y-138062357D01*
X158809861Y-138056338D01*
X158795728Y-138058063D01*
X158791875Y-138060871D01*
X158787287Y-138074308D01*
X158650274Y-138074308D01*
X158662223Y-138065882D01*
X158723698Y-138029167D01*
X158780657Y-138008737D01*
X158832877Y-138004495D01*
X158880133Y-138016347D01*
X158880133Y-138016347D01*
G37*
X158880133Y-138016347D02*
X158922202Y-138044197D01*
X158958859Y-138087948D01*
X158989882Y-138147506D01*
X159013179Y-138215910D01*
X159020957Y-138245737D01*
X159025979Y-138268516D01*
X159027335Y-138280022D01*
X159027120Y-138280568D01*
X159020689Y-138276651D01*
X159008961Y-138262975D01*
X159006870Y-138260158D01*
X158989734Y-138236634D01*
X158957184Y-138252450D01*
X158930347Y-138261615D01*
X158894568Y-138268828D01*
X158865366Y-138272019D01*
X158832424Y-138273372D01*
X158809961Y-138271462D01*
X158791636Y-138264994D01*
X158771264Y-138252771D01*
X158741357Y-138228845D01*
X158720081Y-138200369D01*
X158704266Y-138162417D01*
X158703965Y-138161354D01*
X158752356Y-138161354D01*
X158753660Y-138168983D01*
X158765407Y-138185715D01*
X158775630Y-138197304D01*
X158792350Y-138212989D01*
X158808795Y-138220612D01*
X158832037Y-138222735D01*
X158845480Y-138222604D01*
X158890766Y-138221608D01*
X158849389Y-138214673D01*
X158809632Y-138202201D01*
X158779539Y-138180141D01*
X158761110Y-138164512D01*
X158752356Y-138161354D01*
X158703965Y-138161354D01*
X158697601Y-138138933D01*
X158742600Y-138138933D01*
X158745698Y-138145902D01*
X158748244Y-138144578D01*
X158749258Y-138134530D01*
X158748244Y-138133289D01*
X158743211Y-138134451D01*
X158742600Y-138138933D01*
X158697601Y-138138933D01*
X158697258Y-138137728D01*
X158689361Y-138111012D01*
X158681056Y-138096528D01*
X158669110Y-138089811D01*
X158661272Y-138088060D01*
X158636880Y-138083753D01*
X158650274Y-138074308D01*
X158787287Y-138074308D01*
X158789000Y-138079398D01*
X158801372Y-138086435D01*
X158816667Y-138083170D01*
X158825152Y-138073321D01*
X158822164Y-138062357D01*
X158809861Y-138056338D01*
X158795728Y-138058063D01*
X158791875Y-138060871D01*
X158787287Y-138074308D01*
X158650274Y-138074308D01*
X158662223Y-138065882D01*
X158723698Y-138029167D01*
X158780657Y-138008737D01*
X158832877Y-138004495D01*
X158880133Y-138016347D01*
G36*
X158985948Y-137803086D02*
G01*
X159039289Y-137812671D01*
X159083239Y-137831938D01*
X159120619Y-137861827D01*
X159130173Y-137872091D01*
X159141748Y-137885496D01*
X159151129Y-137897797D01*
X159159347Y-137911487D01*
X159167434Y-137929060D01*
X159176423Y-137953008D01*
X159187345Y-137985825D01*
X159201232Y-138030003D01*
X159217844Y-138083900D01*
X159237762Y-138145318D01*
X159255920Y-138193022D01*
X159273796Y-138229918D01*
X159292863Y-138258913D01*
X159314599Y-138282914D01*
X159322537Y-138290172D01*
X159340887Y-138307700D01*
X159345460Y-138315516D01*
X159336605Y-138313250D01*
X159314669Y-138300533D01*
X159313508Y-138299791D01*
X159278022Y-138269832D01*
X159243729Y-138225850D01*
X159210073Y-138166969D01*
X159176504Y-138092312D01*
X159166138Y-138066115D01*
X159151245Y-138029948D01*
X159135116Y-137994664D01*
X159121111Y-137967590D01*
X159120453Y-137966457D01*
X159094738Y-137930933D01*
X159061632Y-137896766D01*
X159026467Y-137868939D01*
X159001006Y-137854826D01*
X158959894Y-137843389D01*
X158906863Y-137837450D01*
X158846088Y-137837249D01*
X158786259Y-137842427D01*
X158751672Y-137846472D01*
X158723904Y-137848870D01*
X158706868Y-137849328D01*
X158703506Y-137848662D01*
X158707343Y-137843612D01*
X158724688Y-137836941D01*
X158752276Y-137829347D01*
X158786842Y-137821529D01*
X158825121Y-137814186D01*
X158863848Y-137808017D01*
X158899757Y-137803720D01*
X158920400Y-137802246D01*
X158985948Y-137803086D01*
X158985948Y-137803086D01*
G37*
X158985948Y-137803086D02*
X159039289Y-137812671D01*
X159083239Y-137831938D01*
X159120619Y-137861827D01*
X159130173Y-137872091D01*
X159141748Y-137885496D01*
X159151129Y-137897797D01*
X159159347Y-137911487D01*
X159167434Y-137929060D01*
X159176423Y-137953008D01*
X159187345Y-137985825D01*
X159201232Y-138030003D01*
X159217844Y-138083900D01*
X159237762Y-138145318D01*
X159255920Y-138193022D01*
X159273796Y-138229918D01*
X159292863Y-138258913D01*
X159314599Y-138282914D01*
X159322537Y-138290172D01*
X159340887Y-138307700D01*
X159345460Y-138315516D01*
X159336605Y-138313250D01*
X159314669Y-138300533D01*
X159313508Y-138299791D01*
X159278022Y-138269832D01*
X159243729Y-138225850D01*
X159210073Y-138166969D01*
X159176504Y-138092312D01*
X159166138Y-138066115D01*
X159151245Y-138029948D01*
X159135116Y-137994664D01*
X159121111Y-137967590D01*
X159120453Y-137966457D01*
X159094738Y-137930933D01*
X159061632Y-137896766D01*
X159026467Y-137868939D01*
X159001006Y-137854826D01*
X158959894Y-137843389D01*
X158906863Y-137837450D01*
X158846088Y-137837249D01*
X158786259Y-137842427D01*
X158751672Y-137846472D01*
X158723904Y-137848870D01*
X158706868Y-137849328D01*
X158703506Y-137848662D01*
X158707343Y-137843612D01*
X158724688Y-137836941D01*
X158752276Y-137829347D01*
X158786842Y-137821529D01*
X158825121Y-137814186D01*
X158863848Y-137808017D01*
X158899757Y-137803720D01*
X158920400Y-137802246D01*
X158985948Y-137803086D01*
G36*
X158045511Y-138328022D02*
G01*
X158046524Y-138338070D01*
X158045511Y-138339311D01*
X158040478Y-138338149D01*
X158039867Y-138333667D01*
X158042964Y-138326697D01*
X158045511Y-138328022D01*
X158045511Y-138328022D01*
G37*
X158045511Y-138328022D02*
X158046524Y-138338070D01*
X158045511Y-138339311D01*
X158040478Y-138338149D01*
X158039867Y-138333667D01*
X158042964Y-138326697D01*
X158045511Y-138328022D01*
G36*
X158107600Y-138354833D02*
G01*
X158103367Y-138359067D01*
X158099133Y-138354833D01*
X158103367Y-138350600D01*
X158107600Y-138354833D01*
X158107600Y-138354833D01*
G37*
X158107600Y-138354833D02*
X158103367Y-138359067D01*
X158099133Y-138354833D01*
X158103367Y-138350600D01*
X158107600Y-138354833D01*
G36*
X158268467Y-138371767D02*
G01*
X158264233Y-138376000D01*
X158260000Y-138371767D01*
X158264233Y-138367533D01*
X158268467Y-138371767D01*
X158268467Y-138371767D01*
G37*
X158268467Y-138371767D02*
X158264233Y-138376000D01*
X158260000Y-138371767D01*
X158264233Y-138367533D01*
X158268467Y-138371767D01*
G36*
X158159433Y-138353352D02*
G01*
X158165043Y-138367381D01*
X158164455Y-138372767D01*
X158158680Y-138369748D01*
X158155212Y-138362973D01*
X158150416Y-138346896D01*
X158152385Y-138343688D01*
X158159433Y-138353352D01*
X158159433Y-138353352D01*
G37*
X158159433Y-138353352D02*
X158165043Y-138367381D01*
X158164455Y-138372767D01*
X158158680Y-138369748D01*
X158155212Y-138362973D01*
X158150416Y-138346896D01*
X158152385Y-138343688D01*
X158159433Y-138353352D01*
G36*
X158113244Y-138370355D02*
G01*
X158114258Y-138380403D01*
X158113244Y-138381644D01*
X158108211Y-138380482D01*
X158107600Y-138376000D01*
X158110698Y-138369031D01*
X158113244Y-138370355D01*
X158113244Y-138370355D01*
G37*
X158113244Y-138370355D02*
X158114258Y-138380403D01*
X158113244Y-138381644D01*
X158108211Y-138380482D01*
X158107600Y-138376000D01*
X158110698Y-138369031D01*
X158113244Y-138370355D01*
G36*
X158054117Y-138365946D02*
G01*
X158055126Y-138379178D01*
X158053448Y-138382173D01*
X158049600Y-138379648D01*
X158049002Y-138371061D01*
X158051069Y-138362027D01*
X158054117Y-138365946D01*
X158054117Y-138365946D01*
G37*
X158054117Y-138365946D02*
X158055126Y-138379178D01*
X158053448Y-138382173D01*
X158049600Y-138379648D01*
X158049002Y-138371061D01*
X158051069Y-138362027D01*
X158054117Y-138365946D01*
G36*
X158175333Y-138388700D02*
G01*
X158171100Y-138392933D01*
X158166867Y-138388700D01*
X158171100Y-138384467D01*
X158175333Y-138388700D01*
X158175333Y-138388700D01*
G37*
X158175333Y-138388700D02*
X158171100Y-138392933D01*
X158166867Y-138388700D01*
X158171100Y-138384467D01*
X158175333Y-138388700D01*
G36*
X158121711Y-138395755D02*
G01*
X158122724Y-138405803D01*
X158121711Y-138407044D01*
X158116678Y-138405882D01*
X158116067Y-138401400D01*
X158119164Y-138394431D01*
X158121711Y-138395755D01*
X158121711Y-138395755D01*
G37*
X158121711Y-138395755D02*
X158122724Y-138405803D01*
X158121711Y-138407044D01*
X158116678Y-138405882D01*
X158116067Y-138401400D01*
X158119164Y-138394431D01*
X158121711Y-138395755D01*
G36*
X158062584Y-138399812D02*
G01*
X158063593Y-138413045D01*
X158061915Y-138416040D01*
X158058067Y-138413515D01*
X158057468Y-138404928D01*
X158059536Y-138395893D01*
X158062584Y-138399812D01*
X158062584Y-138399812D01*
G37*
X158062584Y-138399812D02*
X158063593Y-138413045D01*
X158061915Y-138416040D01*
X158058067Y-138413515D01*
X158057468Y-138404928D01*
X158059536Y-138395893D01*
X158062584Y-138399812D01*
G36*
X158603892Y-138301573D02*
G01*
X158615165Y-138315793D01*
X158633743Y-138344713D01*
X158634702Y-138346288D01*
X158671567Y-138399150D01*
X158715593Y-138449772D01*
X158762904Y-138494315D01*
X158809623Y-138528938D01*
X158831500Y-138541304D01*
X158855259Y-138552471D01*
X158875727Y-138559748D01*
X158897665Y-138563960D01*
X158925832Y-138565931D01*
X158964988Y-138566486D01*
X158976948Y-138566500D01*
X159019869Y-138566940D01*
X159046218Y-138568510D01*
X159056342Y-138571587D01*
X159050584Y-138576547D01*
X159029291Y-138583766D01*
X159000101Y-138591735D01*
X158941065Y-138602376D01*
X158888207Y-138601095D01*
X158864862Y-138596666D01*
X158806959Y-138574448D01*
X158751613Y-138536922D01*
X158700547Y-138485695D01*
X158655485Y-138422372D01*
X158632574Y-138380317D01*
X158614267Y-138341426D01*
X158603408Y-138314958D01*
X158599961Y-138301484D01*
X158603892Y-138301573D01*
X158603892Y-138301573D01*
G37*
X158603892Y-138301573D02*
X158615165Y-138315793D01*
X158633743Y-138344713D01*
X158634702Y-138346288D01*
X158671567Y-138399150D01*
X158715593Y-138449772D01*
X158762904Y-138494315D01*
X158809623Y-138528938D01*
X158831500Y-138541304D01*
X158855259Y-138552471D01*
X158875727Y-138559748D01*
X158897665Y-138563960D01*
X158925832Y-138565931D01*
X158964988Y-138566486D01*
X158976948Y-138566500D01*
X159019869Y-138566940D01*
X159046218Y-138568510D01*
X159056342Y-138571587D01*
X159050584Y-138576547D01*
X159029291Y-138583766D01*
X159000101Y-138591735D01*
X158941065Y-138602376D01*
X158888207Y-138601095D01*
X158864862Y-138596666D01*
X158806959Y-138574448D01*
X158751613Y-138536922D01*
X158700547Y-138485695D01*
X158655485Y-138422372D01*
X158632574Y-138380317D01*
X158614267Y-138341426D01*
X158603408Y-138314958D01*
X158599961Y-138301484D01*
X158603892Y-138301573D01*
G36*
X157723175Y-138793086D02*
G01*
X157721866Y-138802136D01*
X157714370Y-138821325D01*
X157706320Y-138838378D01*
X157692963Y-138867788D01*
X157677807Y-138905299D01*
X157664106Y-138942849D01*
X157663964Y-138943267D01*
X157654071Y-138970603D01*
X157646506Y-138988189D01*
X157642490Y-138993311D01*
X157642150Y-138991683D01*
X157644856Y-138973615D01*
X157652411Y-138946797D01*
X157663426Y-138914630D01*
X157676513Y-138880518D01*
X157690284Y-138847863D01*
X157703350Y-138820067D01*
X157714323Y-138800533D01*
X157721815Y-138792664D01*
X157723175Y-138793086D01*
X157723175Y-138793086D01*
G37*
X157723175Y-138793086D02*
X157721866Y-138802136D01*
X157714370Y-138821325D01*
X157706320Y-138838378D01*
X157692963Y-138867788D01*
X157677807Y-138905299D01*
X157664106Y-138942849D01*
X157663964Y-138943267D01*
X157654071Y-138970603D01*
X157646506Y-138988189D01*
X157642490Y-138993311D01*
X157642150Y-138991683D01*
X157644856Y-138973615D01*
X157652411Y-138946797D01*
X157663426Y-138914630D01*
X157676513Y-138880518D01*
X157690284Y-138847863D01*
X157703350Y-138820067D01*
X157714323Y-138800533D01*
X157721815Y-138792664D01*
X157723175Y-138793086D01*
G36*
X159963907Y-138688255D02*
G01*
X159983789Y-138700715D01*
X159985222Y-138701662D01*
X160023443Y-138721545D01*
X160058279Y-138729351D01*
X160086430Y-138724371D01*
X160087765Y-138723687D01*
X160101827Y-138719027D01*
X160105369Y-138726205D01*
X160098480Y-138745882D01*
X160092485Y-138758059D01*
X160075113Y-138779689D01*
X160053069Y-138794681D01*
X160026900Y-138805684D01*
X160049346Y-138820391D01*
X160074755Y-138830640D01*
X160102443Y-138829348D01*
X160133095Y-138823598D01*
X160115079Y-138848898D01*
X160095686Y-138872116D01*
X160072097Y-138894953D01*
X160049548Y-138912693D01*
X160036196Y-138919913D01*
X160029787Y-138925415D01*
X160036091Y-138936643D01*
X160036920Y-138937656D01*
X160057302Y-138950171D01*
X160083837Y-138948795D01*
X160097823Y-138942969D01*
X160111046Y-138938805D01*
X160112787Y-138945877D01*
X160103123Y-138963045D01*
X160095845Y-138972784D01*
X160063241Y-139001375D01*
X160022147Y-139015565D01*
X159973377Y-139015103D01*
X159964440Y-139013560D01*
X159945914Y-139009959D01*
X159961899Y-138972669D01*
X159984434Y-138900686D01*
X159990398Y-138829217D01*
X159979772Y-138759325D01*
X159966575Y-138721288D01*
X159956835Y-138696926D01*
X159955434Y-138686453D01*
X159963907Y-138688255D01*
X159963907Y-138688255D01*
G37*
X159963907Y-138688255D02*
X159983789Y-138700715D01*
X159985222Y-138701662D01*
X160023443Y-138721545D01*
X160058279Y-138729351D01*
X160086430Y-138724371D01*
X160087765Y-138723687D01*
X160101827Y-138719027D01*
X160105369Y-138726205D01*
X160098480Y-138745882D01*
X160092485Y-138758059D01*
X160075113Y-138779689D01*
X160053069Y-138794681D01*
X160026900Y-138805684D01*
X160049346Y-138820391D01*
X160074755Y-138830640D01*
X160102443Y-138829348D01*
X160133095Y-138823598D01*
X160115079Y-138848898D01*
X160095686Y-138872116D01*
X160072097Y-138894953D01*
X160049548Y-138912693D01*
X160036196Y-138919913D01*
X160029787Y-138925415D01*
X160036091Y-138936643D01*
X160036920Y-138937656D01*
X160057302Y-138950171D01*
X160083837Y-138948795D01*
X160097823Y-138942969D01*
X160111046Y-138938805D01*
X160112787Y-138945877D01*
X160103123Y-138963045D01*
X160095845Y-138972784D01*
X160063241Y-139001375D01*
X160022147Y-139015565D01*
X159973377Y-139015103D01*
X159964440Y-139013560D01*
X159945914Y-139009959D01*
X159961899Y-138972669D01*
X159984434Y-138900686D01*
X159990398Y-138829217D01*
X159979772Y-138759325D01*
X159966575Y-138721288D01*
X159956835Y-138696926D01*
X159955434Y-138686453D01*
X159963907Y-138688255D01*
G36*
X157773580Y-138863194D02*
G01*
X157767583Y-138890250D01*
X157757581Y-138930567D01*
X157748979Y-138964691D01*
X157740703Y-138998022D01*
X157736504Y-139015233D01*
X157731393Y-139033740D01*
X157728041Y-139040794D01*
X157727475Y-139039452D01*
X157728652Y-139022165D01*
X157733257Y-138993648D01*
X157740184Y-138958983D01*
X157748325Y-138923255D01*
X157756576Y-138891548D01*
X157763830Y-138868945D01*
X157765360Y-138865307D01*
X157772360Y-138851637D01*
X157775137Y-138850628D01*
X157773580Y-138863194D01*
X157773580Y-138863194D01*
G37*
X157773580Y-138863194D02*
X157767583Y-138890250D01*
X157757581Y-138930567D01*
X157748979Y-138964691D01*
X157740703Y-138998022D01*
X157736504Y-139015233D01*
X157731393Y-139033740D01*
X157728041Y-139040794D01*
X157727475Y-139039452D01*
X157728652Y-139022165D01*
X157733257Y-138993648D01*
X157740184Y-138958983D01*
X157748325Y-138923255D01*
X157756576Y-138891548D01*
X157763830Y-138868945D01*
X157765360Y-138865307D01*
X157772360Y-138851637D01*
X157775137Y-138850628D01*
X157773580Y-138863194D01*
G36*
X157676500Y-138748296D02*
G01*
X157661556Y-138773011D01*
X157648338Y-138792409D01*
X157597952Y-138869914D01*
X157558597Y-138944328D01*
X157531717Y-139008777D01*
X157520633Y-139037496D01*
X157512071Y-139057589D01*
X157507373Y-139065994D01*
X157506878Y-139065453D01*
X157510455Y-139039355D01*
X157521927Y-139002587D01*
X157539729Y-138958523D01*
X157562294Y-138910537D01*
X157588055Y-138862002D01*
X157615447Y-138816292D01*
X157637679Y-138783756D01*
X157660977Y-138753771D01*
X157675612Y-138738190D01*
X157680986Y-138736526D01*
X157676500Y-138748296D01*
X157676500Y-138748296D01*
G37*
X157676500Y-138748296D02*
X157661556Y-138773011D01*
X157648338Y-138792409D01*
X157597952Y-138869914D01*
X157558597Y-138944328D01*
X157531717Y-139008777D01*
X157520633Y-139037496D01*
X157512071Y-139057589D01*
X157507373Y-139065994D01*
X157506878Y-139065453D01*
X157510455Y-139039355D01*
X157521927Y-139002587D01*
X157539729Y-138958523D01*
X157562294Y-138910537D01*
X157588055Y-138862002D01*
X157615447Y-138816292D01*
X157637679Y-138783756D01*
X157660977Y-138753771D01*
X157675612Y-138738190D01*
X157680986Y-138736526D01*
X157676500Y-138748296D01*
G36*
X157503644Y-139081555D02*
G01*
X157504658Y-139091603D01*
X157503644Y-139092844D01*
X157498611Y-139091682D01*
X157498000Y-139087200D01*
X157501098Y-139080231D01*
X157503644Y-139081555D01*
X157503644Y-139081555D01*
G37*
X157503644Y-139081555D02*
X157504658Y-139091603D01*
X157503644Y-139092844D01*
X157498611Y-139091682D01*
X157498000Y-139087200D01*
X157501098Y-139080231D01*
X157503644Y-139081555D01*
G36*
X157631239Y-138720672D02*
G01*
X157619204Y-138737492D01*
X157598183Y-138765496D01*
X157567599Y-138805634D01*
X157554766Y-138822413D01*
X157488209Y-138920872D01*
X157432228Y-139027195D01*
X157404664Y-139093591D01*
X157393669Y-139121517D01*
X157385150Y-139140019D01*
X157380418Y-139146383D01*
X157379878Y-139144854D01*
X157382787Y-139128101D01*
X157391046Y-139100143D01*
X157403110Y-139065241D01*
X157417437Y-139027658D01*
X157432483Y-138991656D01*
X157445211Y-138964433D01*
X157479785Y-138903814D01*
X157522957Y-138840259D01*
X157569671Y-138780846D01*
X157601057Y-138746242D01*
X157619196Y-138727822D01*
X157630658Y-138716787D01*
X157634864Y-138714087D01*
X157631239Y-138720672D01*
X157631239Y-138720672D01*
G37*
X157631239Y-138720672D02*
X157619204Y-138737492D01*
X157598183Y-138765496D01*
X157567599Y-138805634D01*
X157554766Y-138822413D01*
X157488209Y-138920872D01*
X157432228Y-139027195D01*
X157404664Y-139093591D01*
X157393669Y-139121517D01*
X157385150Y-139140019D01*
X157380418Y-139146383D01*
X157379878Y-139144854D01*
X157382787Y-139128101D01*
X157391046Y-139100143D01*
X157403110Y-139065241D01*
X157417437Y-139027658D01*
X157432483Y-138991656D01*
X157445211Y-138964433D01*
X157479785Y-138903814D01*
X157522957Y-138840259D01*
X157569671Y-138780846D01*
X157601057Y-138746242D01*
X157619196Y-138727822D01*
X157630658Y-138716787D01*
X157634864Y-138714087D01*
X157631239Y-138720672D01*
G36*
X157624104Y-138644871D02*
G01*
X157615184Y-138655783D01*
X157597356Y-138673443D01*
X157571457Y-138696620D01*
X157561879Y-138704768D01*
X157472781Y-138788520D01*
X157388649Y-138884727D01*
X157312931Y-138988980D01*
X157249076Y-139096867D01*
X157237453Y-139119661D01*
X157218043Y-139159283D01*
X157200629Y-139195615D01*
X157187030Y-139224807D01*
X157179067Y-139243008D01*
X157178744Y-139243833D01*
X157168948Y-139269233D01*
X157173669Y-139243833D01*
X157185337Y-139202351D01*
X157205912Y-139151215D01*
X157233553Y-139093860D01*
X157266422Y-139033716D01*
X157302678Y-138974218D01*
X157340480Y-138918797D01*
X157365453Y-138886034D01*
X157397298Y-138849024D01*
X157437601Y-138806036D01*
X157482199Y-138761190D01*
X157526925Y-138718604D01*
X157567616Y-138682396D01*
X157589017Y-138664938D01*
X157611859Y-138648216D01*
X157623275Y-138641938D01*
X157624104Y-138644871D01*
X157624104Y-138644871D01*
G37*
X157624104Y-138644871D02*
X157615184Y-138655783D01*
X157597356Y-138673443D01*
X157571457Y-138696620D01*
X157561879Y-138704768D01*
X157472781Y-138788520D01*
X157388649Y-138884727D01*
X157312931Y-138988980D01*
X157249076Y-139096867D01*
X157237453Y-139119661D01*
X157218043Y-139159283D01*
X157200629Y-139195615D01*
X157187030Y-139224807D01*
X157179067Y-139243008D01*
X157178744Y-139243833D01*
X157168948Y-139269233D01*
X157173669Y-139243833D01*
X157185337Y-139202351D01*
X157205912Y-139151215D01*
X157233553Y-139093860D01*
X157266422Y-139033716D01*
X157302678Y-138974218D01*
X157340480Y-138918797D01*
X157365453Y-138886034D01*
X157397298Y-138849024D01*
X157437601Y-138806036D01*
X157482199Y-138761190D01*
X157526925Y-138718604D01*
X157567616Y-138682396D01*
X157589017Y-138664938D01*
X157611859Y-138648216D01*
X157623275Y-138641938D01*
X157624104Y-138644871D01*
G36*
X160066769Y-138520750D02*
G01*
X160102582Y-138524437D01*
X160122619Y-138528380D01*
X160186816Y-138553033D01*
X160238636Y-138589212D01*
X160278387Y-138637230D01*
X160306380Y-138697399D01*
X160313216Y-138720457D01*
X160324470Y-138792909D01*
X160320178Y-138865347D01*
X160300095Y-138938598D01*
X160263977Y-139013490D01*
X160211578Y-139090849D01*
X160198841Y-139107041D01*
X160177334Y-139132297D01*
X160152441Y-139159200D01*
X160125825Y-139186281D01*
X160099146Y-139212069D01*
X160074067Y-139235096D01*
X160052250Y-139253891D01*
X160035354Y-139266986D01*
X160025044Y-139272909D01*
X160022979Y-139270192D01*
X160030821Y-139257366D01*
X160034607Y-139252300D01*
X160094252Y-139167397D01*
X160142544Y-139083927D01*
X160178944Y-139003363D01*
X160202914Y-138927178D01*
X160213917Y-138856846D01*
X160211413Y-138793840D01*
X160208094Y-138777190D01*
X160185028Y-138716897D01*
X160146631Y-138663071D01*
X160093395Y-138616147D01*
X160025809Y-138576560D01*
X159946162Y-138545313D01*
X159924637Y-138537947D01*
X159917495Y-138533127D01*
X159922828Y-138528781D01*
X159928782Y-138526429D01*
X159951648Y-138521836D01*
X159985881Y-138519394D01*
X160026062Y-138519051D01*
X160066769Y-138520750D01*
X160066769Y-138520750D01*
G37*
X160066769Y-138520750D02*
X160102582Y-138524437D01*
X160122619Y-138528380D01*
X160186816Y-138553033D01*
X160238636Y-138589212D01*
X160278387Y-138637230D01*
X160306380Y-138697399D01*
X160313216Y-138720457D01*
X160324470Y-138792909D01*
X160320178Y-138865347D01*
X160300095Y-138938598D01*
X160263977Y-139013490D01*
X160211578Y-139090849D01*
X160198841Y-139107041D01*
X160177334Y-139132297D01*
X160152441Y-139159200D01*
X160125825Y-139186281D01*
X160099146Y-139212069D01*
X160074067Y-139235096D01*
X160052250Y-139253891D01*
X160035354Y-139266986D01*
X160025044Y-139272909D01*
X160022979Y-139270192D01*
X160030821Y-139257366D01*
X160034607Y-139252300D01*
X160094252Y-139167397D01*
X160142544Y-139083927D01*
X160178944Y-139003363D01*
X160202914Y-138927178D01*
X160213917Y-138856846D01*
X160211413Y-138793840D01*
X160208094Y-138777190D01*
X160185028Y-138716897D01*
X160146631Y-138663071D01*
X160093395Y-138616147D01*
X160025809Y-138576560D01*
X159946162Y-138545313D01*
X159924637Y-138537947D01*
X159917495Y-138533127D01*
X159922828Y-138528781D01*
X159928782Y-138526429D01*
X159951648Y-138521836D01*
X159985881Y-138519394D01*
X160026062Y-138519051D01*
X160066769Y-138520750D01*
G36*
X158276933Y-139641766D02*
G01*
X158272700Y-139646000D01*
X158268467Y-139641766D01*
X158272700Y-139637533D01*
X158276933Y-139641766D01*
X158276933Y-139641766D01*
G37*
X158276933Y-139641766D02*
X158272700Y-139646000D01*
X158268467Y-139641766D01*
X158272700Y-139637533D01*
X158276933Y-139641766D01*
G36*
X163092018Y-139032503D02*
G01*
X163303559Y-139050289D01*
X163512093Y-139084326D01*
X163523699Y-139086724D01*
X163739433Y-139140383D01*
X163951548Y-139210464D01*
X164160136Y-139297008D01*
X164365292Y-139400059D01*
X164567107Y-139519660D01*
X164765673Y-139655853D01*
X164779333Y-139665919D01*
X164830463Y-139704084D01*
X164867824Y-139732729D01*
X164891542Y-139752014D01*
X164901739Y-139762102D01*
X164898540Y-139763152D01*
X164882070Y-139755326D01*
X164852454Y-139738785D01*
X164821667Y-139720744D01*
X164776301Y-139695166D01*
X164718762Y-139664790D01*
X164652518Y-139631308D01*
X164581035Y-139596411D01*
X164507781Y-139561792D01*
X164436222Y-139529143D01*
X164369826Y-139500155D01*
X164368700Y-139499677D01*
X164131678Y-139406796D01*
X163891394Y-139327496D01*
X163649837Y-139262279D01*
X163409001Y-139211648D01*
X163170874Y-139176106D01*
X163033967Y-139162538D01*
X162967166Y-139158650D01*
X162889104Y-139156514D01*
X162803488Y-139156037D01*
X162714022Y-139157126D01*
X162624411Y-139159685D01*
X162538362Y-139163623D01*
X162459579Y-139168844D01*
X162391767Y-139175255D01*
X162357866Y-139179638D01*
X162179903Y-139209947D01*
X162014394Y-139246878D01*
X161857794Y-139291516D01*
X161706556Y-139344942D01*
X161557135Y-139408240D01*
X161465464Y-139452113D01*
X161424968Y-139472057D01*
X161390146Y-139488751D01*
X161363636Y-139500963D01*
X161348080Y-139507466D01*
X161345121Y-139508143D01*
X161350413Y-139502631D01*
X161368204Y-139490585D01*
X161396037Y-139473418D01*
X161431458Y-139452542D01*
X161472011Y-139429370D01*
X161515240Y-139405313D01*
X161558691Y-139381786D01*
X161599909Y-139360200D01*
X161619693Y-139350186D01*
X161821398Y-139258494D01*
X162027817Y-139181983D01*
X162237847Y-139120807D01*
X162450385Y-139075119D01*
X162664328Y-139045070D01*
X162878573Y-139030814D01*
X163092018Y-139032503D01*
X163092018Y-139032503D01*
G37*
X163092018Y-139032503D02*
X163303559Y-139050289D01*
X163512093Y-139084326D01*
X163523699Y-139086724D01*
X163739433Y-139140383D01*
X163951548Y-139210464D01*
X164160136Y-139297008D01*
X164365292Y-139400059D01*
X164567107Y-139519660D01*
X164765673Y-139655853D01*
X164779333Y-139665919D01*
X164830463Y-139704084D01*
X164867824Y-139732729D01*
X164891542Y-139752014D01*
X164901739Y-139762102D01*
X164898540Y-139763152D01*
X164882070Y-139755326D01*
X164852454Y-139738785D01*
X164821667Y-139720744D01*
X164776301Y-139695166D01*
X164718762Y-139664790D01*
X164652518Y-139631308D01*
X164581035Y-139596411D01*
X164507781Y-139561792D01*
X164436222Y-139529143D01*
X164369826Y-139500155D01*
X164368700Y-139499677D01*
X164131678Y-139406796D01*
X163891394Y-139327496D01*
X163649837Y-139262279D01*
X163409001Y-139211648D01*
X163170874Y-139176106D01*
X163033967Y-139162538D01*
X162967166Y-139158650D01*
X162889104Y-139156514D01*
X162803488Y-139156037D01*
X162714022Y-139157126D01*
X162624411Y-139159685D01*
X162538362Y-139163623D01*
X162459579Y-139168844D01*
X162391767Y-139175255D01*
X162357866Y-139179638D01*
X162179903Y-139209947D01*
X162014394Y-139246878D01*
X161857794Y-139291516D01*
X161706556Y-139344942D01*
X161557135Y-139408240D01*
X161465464Y-139452113D01*
X161424968Y-139472057D01*
X161390146Y-139488751D01*
X161363636Y-139500963D01*
X161348080Y-139507466D01*
X161345121Y-139508143D01*
X161350413Y-139502631D01*
X161368204Y-139490585D01*
X161396037Y-139473418D01*
X161431458Y-139452542D01*
X161472011Y-139429370D01*
X161515240Y-139405313D01*
X161558691Y-139381786D01*
X161599909Y-139360200D01*
X161619693Y-139350186D01*
X161821398Y-139258494D01*
X162027817Y-139181983D01*
X162237847Y-139120807D01*
X162450385Y-139075119D01*
X162664328Y-139045070D01*
X162878573Y-139030814D01*
X163092018Y-139032503D01*
G36*
X158934363Y-137534598D02*
G01*
X159076140Y-137548777D01*
X159223461Y-137572265D01*
X159372592Y-137604301D01*
X159519795Y-137644123D01*
X159661337Y-137690971D01*
X159741667Y-137722003D01*
X159785542Y-137740969D01*
X159838787Y-137765520D01*
X159896855Y-137793417D01*
X159955200Y-137822420D01*
X160009276Y-137850287D01*
X160054537Y-137874778D01*
X160071867Y-137884719D01*
X160214258Y-137977202D01*
X160353760Y-138084430D01*
X160488106Y-138204227D01*
X160615027Y-138334417D01*
X160732255Y-138472821D01*
X160837521Y-138617265D01*
X160841674Y-138623473D01*
X160948354Y-138798088D01*
X161044131Y-138985390D01*
X161128887Y-139185014D01*
X161202502Y-139396592D01*
X161264858Y-139619757D01*
X161315837Y-139854141D01*
X161355320Y-140099378D01*
X161375926Y-140276011D01*
X161381794Y-140338322D01*
X161386187Y-140391503D01*
X161389126Y-140434658D01*
X161390631Y-140466892D01*
X161390723Y-140487308D01*
X161389420Y-140495011D01*
X161386744Y-140489104D01*
X161382714Y-140468692D01*
X161377350Y-140432878D01*
X161373133Y-140400718D01*
X161340816Y-140192574D01*
X161296376Y-139982442D01*
X161240683Y-139772762D01*
X161174609Y-139565975D01*
X161099022Y-139364520D01*
X161014794Y-139170840D01*
X160922795Y-138987373D01*
X160823895Y-138816562D01*
X160788478Y-138761233D01*
X160684072Y-138612048D01*
X160574137Y-138474549D01*
X160454471Y-138343540D01*
X160432831Y-138321513D01*
X160382411Y-138270875D01*
X160341122Y-138229991D01*
X160306281Y-138196483D01*
X160275204Y-138167974D01*
X160245208Y-138142087D01*
X160213611Y-138116444D01*
X160177729Y-138088667D01*
X160134879Y-138056379D01*
X160126900Y-138050413D01*
X160023033Y-137976453D01*
X159920327Y-137911280D01*
X159811958Y-137850736D01*
X159737433Y-137812963D01*
X159601771Y-137750756D01*
X159465205Y-137697064D01*
X159324942Y-137651107D01*
X159178187Y-137612104D01*
X159022150Y-137579276D01*
X158854035Y-137551843D01*
X158755300Y-137538758D01*
X158731770Y-137535760D01*
X158719385Y-137533686D01*
X158719316Y-137532327D01*
X158732733Y-137531475D01*
X158760806Y-137530923D01*
X158801866Y-137530489D01*
X158934363Y-137534598D01*
X158934363Y-137534598D01*
G37*
X158934363Y-137534598D02*
X159076140Y-137548777D01*
X159223461Y-137572265D01*
X159372592Y-137604301D01*
X159519795Y-137644123D01*
X159661337Y-137690971D01*
X159741667Y-137722003D01*
X159785542Y-137740969D01*
X159838787Y-137765520D01*
X159896855Y-137793417D01*
X159955200Y-137822420D01*
X160009276Y-137850287D01*
X160054537Y-137874778D01*
X160071867Y-137884719D01*
X160214258Y-137977202D01*
X160353760Y-138084430D01*
X160488106Y-138204227D01*
X160615027Y-138334417D01*
X160732255Y-138472821D01*
X160837521Y-138617265D01*
X160841674Y-138623473D01*
X160948354Y-138798088D01*
X161044131Y-138985390D01*
X161128887Y-139185014D01*
X161202502Y-139396592D01*
X161264858Y-139619757D01*
X161315837Y-139854141D01*
X161355320Y-140099378D01*
X161375926Y-140276011D01*
X161381794Y-140338322D01*
X161386187Y-140391503D01*
X161389126Y-140434658D01*
X161390631Y-140466892D01*
X161390723Y-140487308D01*
X161389420Y-140495011D01*
X161386744Y-140489104D01*
X161382714Y-140468692D01*
X161377350Y-140432878D01*
X161373133Y-140400718D01*
X161340816Y-140192574D01*
X161296376Y-139982442D01*
X161240683Y-139772762D01*
X161174609Y-139565975D01*
X161099022Y-139364520D01*
X161014794Y-139170840D01*
X160922795Y-138987373D01*
X160823895Y-138816562D01*
X160788478Y-138761233D01*
X160684072Y-138612048D01*
X160574137Y-138474549D01*
X160454471Y-138343540D01*
X160432831Y-138321513D01*
X160382411Y-138270875D01*
X160341122Y-138229991D01*
X160306281Y-138196483D01*
X160275204Y-138167974D01*
X160245208Y-138142087D01*
X160213611Y-138116444D01*
X160177729Y-138088667D01*
X160134879Y-138056379D01*
X160126900Y-138050413D01*
X160023033Y-137976453D01*
X159920327Y-137911280D01*
X159811958Y-137850736D01*
X159737433Y-137812963D01*
X159601771Y-137750756D01*
X159465205Y-137697064D01*
X159324942Y-137651107D01*
X159178187Y-137612104D01*
X159022150Y-137579276D01*
X158854035Y-137551843D01*
X158755300Y-137538758D01*
X158731770Y-137535760D01*
X158719385Y-137533686D01*
X158719316Y-137532327D01*
X158732733Y-137531475D01*
X158760806Y-137530923D01*
X158801866Y-137530489D01*
X158934363Y-137534598D01*
G36*
X161401133Y-140539233D02*
G01*
X161396900Y-140543467D01*
X161392667Y-140539233D01*
X161396900Y-140535000D01*
X161401133Y-140539233D01*
X161401133Y-140539233D01*
G37*
X161401133Y-140539233D02*
X161396900Y-140543467D01*
X161392667Y-140539233D01*
X161396900Y-140535000D01*
X161401133Y-140539233D01*
G36*
X157647481Y-137896125D02*
G01*
X157648135Y-137905658D01*
X157646655Y-137927916D01*
X157643353Y-137958872D01*
X157641407Y-137974183D01*
X157636025Y-138038043D01*
X157638395Y-138088699D01*
X157648222Y-138125698D01*
X157665211Y-138148585D01*
X157689068Y-138156905D01*
X157719496Y-138150202D01*
X157745966Y-138135375D01*
X157776161Y-138114884D01*
X157793890Y-138175592D01*
X157834245Y-138289257D01*
X157887279Y-138399970D01*
X157950024Y-138501588D01*
X157954013Y-138507233D01*
X157974794Y-138535492D01*
X157998695Y-138566570D01*
X158023352Y-138597573D01*
X158046401Y-138625608D01*
X158065481Y-138647783D01*
X158078227Y-138661206D01*
X158081976Y-138663867D01*
X158083407Y-138655999D01*
X158083366Y-138634628D01*
X158082046Y-138603101D01*
X158079639Y-138564767D01*
X158076337Y-138522974D01*
X158072333Y-138481070D01*
X158070551Y-138464791D01*
X158068147Y-138441945D01*
X158068195Y-138434862D01*
X158070943Y-138442516D01*
X158073579Y-138452200D01*
X158077525Y-138472281D01*
X158082365Y-138504653D01*
X158087470Y-138544743D01*
X158091944Y-138585364D01*
X158102457Y-138688895D01*
X158147362Y-138733241D01*
X158170668Y-138755352D01*
X158184625Y-138765955D01*
X158191118Y-138766214D01*
X158192232Y-138760944D01*
X158190506Y-138739556D01*
X158185878Y-138705864D01*
X158179092Y-138664099D01*
X158170892Y-138618493D01*
X158162022Y-138573278D01*
X158153223Y-138532686D01*
X158149148Y-138515700D01*
X158140668Y-138481863D01*
X158133379Y-138452758D01*
X158128586Y-138433597D01*
X158127946Y-138431033D01*
X158126173Y-138420493D01*
X158130505Y-138425172D01*
X158131519Y-138426800D01*
X158137472Y-138441810D01*
X158145851Y-138469974D01*
X158155836Y-138507826D01*
X158166606Y-138551900D01*
X158177341Y-138598731D01*
X158187221Y-138644852D01*
X158195426Y-138686799D01*
X158201087Y-138720765D01*
X158205499Y-138750226D01*
X158210413Y-138771936D01*
X158218172Y-138789194D01*
X158231116Y-138805305D01*
X158251590Y-138823571D01*
X158281935Y-138847293D01*
X158301286Y-138862039D01*
X158307987Y-138864860D01*
X158309759Y-138857195D01*
X158307122Y-138836194D01*
X158306596Y-138833007D01*
X158299526Y-138798601D01*
X158288209Y-138752500D01*
X158273870Y-138699034D01*
X158257738Y-138642532D01*
X158241039Y-138587324D01*
X158224999Y-138537740D01*
X158214284Y-138507233D01*
X158198011Y-138463036D01*
X158187122Y-138433022D01*
X158181118Y-138415497D01*
X158179505Y-138408765D01*
X158181785Y-138411129D01*
X158187463Y-138420894D01*
X158190745Y-138426800D01*
X158203945Y-138454875D01*
X158220112Y-138495812D01*
X158238074Y-138546052D01*
X158256662Y-138602038D01*
X158274704Y-138660211D01*
X158291029Y-138717012D01*
X158304467Y-138768883D01*
X158307389Y-138781321D01*
X158317479Y-138824684D01*
X158325330Y-138854735D01*
X158332386Y-138874693D01*
X158340087Y-138887773D01*
X158349876Y-138897195D01*
X158363196Y-138906174D01*
X158363412Y-138906310D01*
X158385038Y-138921099D01*
X158394304Y-138929766D01*
X158390763Y-138931146D01*
X158373972Y-138924072D01*
X158369280Y-138921693D01*
X158350776Y-138913729D01*
X158339618Y-138911896D01*
X158338957Y-138912287D01*
X158338047Y-138922075D01*
X158339455Y-138944110D01*
X158342872Y-138973909D01*
X158343505Y-138978528D01*
X158348902Y-139021133D01*
X158354144Y-139069043D01*
X158357489Y-139104887D01*
X158362789Y-139169140D01*
X158404308Y-139200137D01*
X158426954Y-139216472D01*
X158443986Y-139227703D01*
X158450889Y-139231133D01*
X158453188Y-139223275D01*
X158452381Y-139201396D01*
X158448882Y-139168038D01*
X158443105Y-139125744D01*
X158435464Y-139077056D01*
X158426372Y-139024516D01*
X158416244Y-138970668D01*
X158405492Y-138918053D01*
X158394531Y-138869213D01*
X158387104Y-138839204D01*
X158366596Y-138766802D01*
X158341373Y-138688151D01*
X158313131Y-138607884D01*
X158283564Y-138530633D01*
X158254366Y-138461032D01*
X158229302Y-138407765D01*
X158218864Y-138385527D01*
X158213600Y-138370916D01*
X158213868Y-138367533D01*
X158219680Y-138374897D01*
X158230710Y-138395160D01*
X158245691Y-138425577D01*
X158263358Y-138463405D01*
X158282443Y-138505899D01*
X158301681Y-138550316D01*
X158319806Y-138593912D01*
X158329136Y-138617300D01*
X158357942Y-138697310D01*
X158386217Y-138787762D01*
X158412795Y-138884003D01*
X158436510Y-138981382D01*
X158456197Y-139075248D01*
X158470688Y-139160949D01*
X158476086Y-139203514D01*
X158479919Y-139232581D01*
X158485972Y-139251934D01*
X158497695Y-139267753D01*
X158518540Y-139286219D01*
X158525403Y-139291829D01*
X158554477Y-139316135D01*
X158583712Y-139341602D01*
X158600628Y-139356997D01*
X158619216Y-139373029D01*
X158632552Y-139381904D01*
X158636390Y-139382498D01*
X158636609Y-139372422D01*
X158632955Y-139348757D01*
X158626082Y-139314234D01*
X158616641Y-139271581D01*
X158605287Y-139223529D01*
X158592671Y-139172806D01*
X158579448Y-139122142D01*
X158566269Y-139074267D01*
X158553787Y-139031909D01*
X158548575Y-139015386D01*
X158514712Y-138917654D01*
X158475003Y-138814496D01*
X158431310Y-138710161D01*
X158385494Y-138608894D01*
X158339416Y-138514945D01*
X158294937Y-138432562D01*
X158287924Y-138420450D01*
X158276699Y-138399889D01*
X158271149Y-138386864D01*
X158271356Y-138384467D01*
X158278570Y-138391765D01*
X158291859Y-138412209D01*
X158310093Y-138443619D01*
X158332141Y-138483816D01*
X158356872Y-138530623D01*
X158383157Y-138581860D01*
X158409864Y-138635348D01*
X158435863Y-138688909D01*
X158460024Y-138740365D01*
X158481215Y-138787536D01*
X158484772Y-138795739D01*
X158512065Y-138862699D01*
X158540016Y-138937732D01*
X158567573Y-139017452D01*
X158593680Y-139098469D01*
X158617283Y-139177396D01*
X158637330Y-139250846D01*
X158652765Y-139315429D01*
X158662365Y-139366600D01*
X158666523Y-139388999D01*
X158672913Y-139408156D01*
X158683632Y-139427530D01*
X158700778Y-139450579D01*
X158726447Y-139480760D01*
X158742811Y-139499244D01*
X158816775Y-139591721D01*
X158875014Y-139685227D01*
X158917315Y-139779162D01*
X158943463Y-139872927D01*
X158953245Y-139965925D01*
X158946447Y-140057557D01*
X158945025Y-140065662D01*
X158930648Y-140118288D01*
X158906302Y-140178367D01*
X158874005Y-140241396D01*
X158844750Y-140289467D01*
X158822164Y-140326892D01*
X158795449Y-140375784D01*
X158766689Y-140431859D01*
X158737966Y-140490830D01*
X158711364Y-140548413D01*
X158688965Y-140600321D01*
X158672853Y-140642269D01*
X158671898Y-140645067D01*
X158634836Y-140770164D01*
X158606239Y-140899092D01*
X158586583Y-141028190D01*
X158576344Y-141153797D01*
X158575999Y-141272254D01*
X158581167Y-141342401D01*
X158584929Y-141379847D01*
X158587463Y-141410531D01*
X158588512Y-141430898D01*
X158588072Y-141437417D01*
X158584950Y-141431580D01*
X158579947Y-141413332D01*
X158575266Y-141392015D01*
X158555437Y-141259524D01*
X158549251Y-141125221D01*
X158556851Y-140987599D01*
X158578378Y-140845149D01*
X158613973Y-140696367D01*
X158652221Y-140573100D01*
X158664718Y-140537708D01*
X158681968Y-140490891D01*
X158702361Y-140436917D01*
X158724284Y-140380052D01*
X158744932Y-140327567D01*
X158777766Y-140243859D01*
X158804075Y-140173473D01*
X158824269Y-140114283D01*
X158838755Y-140064162D01*
X158847942Y-140020982D01*
X158852238Y-139982617D01*
X158852051Y-139946940D01*
X158847791Y-139911825D01*
X158839864Y-139875144D01*
X158835193Y-139857496D01*
X158816550Y-139806308D01*
X158788522Y-139749907D01*
X158754407Y-139694302D01*
X158721495Y-139650233D01*
X158700351Y-139624833D01*
X158700153Y-139777233D01*
X158699267Y-139839648D01*
X158696944Y-139901852D01*
X158693448Y-139958793D01*
X158689047Y-140005414D01*
X158687556Y-140016870D01*
X158681030Y-140058504D01*
X158673068Y-140102815D01*
X158664358Y-140146681D01*
X158655585Y-140186980D01*
X158647437Y-140220590D01*
X158640598Y-140244389D01*
X158635757Y-140255254D01*
X158635074Y-140255600D01*
X158633512Y-140248724D01*
X158635834Y-140236550D01*
X158648447Y-140178435D01*
X158658151Y-140105456D01*
X158664983Y-140017133D01*
X158668984Y-139912987D01*
X158670185Y-139812605D01*
X158670633Y-139593976D01*
X158583429Y-139508931D01*
X158552209Y-139479023D01*
X158525345Y-139454308D01*
X158505079Y-139436770D01*
X158493653Y-139428393D01*
X158492049Y-139428062D01*
X158489709Y-139437706D01*
X158486591Y-139460605D01*
X158483137Y-139493126D01*
X158480374Y-139524302D01*
X158475166Y-139574353D01*
X158467632Y-139629722D01*
X158459075Y-139681246D01*
X158455438Y-139699780D01*
X158446201Y-139741459D01*
X158435943Y-139783685D01*
X158425516Y-139823413D01*
X158415774Y-139857595D01*
X158407569Y-139883186D01*
X158401755Y-139897139D01*
X158399769Y-139898657D01*
X158400215Y-139889642D01*
X158404019Y-139868293D01*
X158410420Y-139838703D01*
X158412680Y-139829056D01*
X158430707Y-139740503D01*
X158445408Y-139642046D01*
X158455837Y-139540547D01*
X158459002Y-139493600D01*
X158464368Y-139396233D01*
X158410867Y-139352163D01*
X158357367Y-139308093D01*
X158350726Y-139343696D01*
X158339150Y-139405098D01*
X158329788Y-139452909D01*
X158321955Y-139490224D01*
X158314967Y-139520135D01*
X158308139Y-139545738D01*
X158300788Y-139570125D01*
X158300282Y-139571723D01*
X158291043Y-139599225D01*
X158283588Y-139618519D01*
X158279404Y-139625792D01*
X158279226Y-139625714D01*
X158279805Y-139616733D01*
X158283957Y-139595463D01*
X158290858Y-139565967D01*
X158293357Y-139556058D01*
X158301560Y-139519259D01*
X158310240Y-139472425D01*
X158318203Y-139422373D01*
X158322870Y-139387766D01*
X158335285Y-139286166D01*
X158312102Y-139267880D01*
X158293490Y-139252915D01*
X158267733Y-139231859D01*
X158242709Y-139211177D01*
X158196500Y-139172760D01*
X158182992Y-139225859D01*
X158174087Y-139257490D01*
X158162907Y-139292401D01*
X158150745Y-139327144D01*
X158138892Y-139358271D01*
X158128642Y-139382334D01*
X158121285Y-139395885D01*
X158118688Y-139397444D01*
X158118992Y-139387843D01*
X158123620Y-139376774D01*
X158130367Y-139359582D01*
X158139346Y-139330681D01*
X158149345Y-139294776D01*
X158159154Y-139256570D01*
X158167561Y-139220771D01*
X158173353Y-139192082D01*
X158175333Y-139175906D01*
X158169198Y-139159187D01*
X158150079Y-139136867D01*
X158123793Y-139113333D01*
X158098951Y-139093128D01*
X158079101Y-139078009D01*
X158067744Y-139070612D01*
X158066643Y-139070278D01*
X158061597Y-139077743D01*
X158053868Y-139097256D01*
X158045554Y-139123195D01*
X158036874Y-139149164D01*
X158024517Y-139181486D01*
X158010037Y-139216638D01*
X157994982Y-139251101D01*
X157980906Y-139281352D01*
X157969358Y-139303872D01*
X157961890Y-139315140D01*
X157960702Y-139315800D01*
X157961992Y-139308534D01*
X157968669Y-139288902D01*
X157979572Y-139260151D01*
X157989663Y-139234950D01*
X158005611Y-139193975D01*
X158020560Y-139152216D01*
X158032195Y-139116267D01*
X158035895Y-139103122D01*
X158049105Y-139052144D01*
X158026805Y-139034603D01*
X157985067Y-138999845D01*
X157950291Y-138968689D01*
X158085273Y-138968689D01*
X158092199Y-138980595D01*
X158108889Y-138996089D01*
X158133953Y-139015267D01*
X158157879Y-139032500D01*
X158175127Y-139042457D01*
X158186807Y-139043557D01*
X158194033Y-139034222D01*
X158197916Y-139012869D01*
X158199568Y-138977921D01*
X158199831Y-138953123D01*
X158213542Y-138953123D01*
X158213651Y-139072981D01*
X158272809Y-139112181D01*
X158331967Y-139151380D01*
X158334767Y-139125775D01*
X158335097Y-139106978D01*
X158333813Y-139076019D01*
X158331164Y-139037569D01*
X158328290Y-139005144D01*
X158324192Y-138965964D01*
X158320187Y-138932504D01*
X158316774Y-138908677D01*
X158314715Y-138898923D01*
X158306388Y-138890437D01*
X158288299Y-138876656D01*
X158265307Y-138860828D01*
X158242274Y-138846196D01*
X158224059Y-138836008D01*
X158216343Y-138833232D01*
X158215310Y-138841209D01*
X158214454Y-138863105D01*
X158213845Y-138895906D01*
X158213555Y-138936599D01*
X158213542Y-138953123D01*
X158199831Y-138953123D01*
X158200100Y-138927795D01*
X158200138Y-138921202D01*
X158200733Y-138818704D01*
X158153818Y-138783619D01*
X158130145Y-138766174D01*
X158112440Y-138753611D01*
X158104388Y-138748543D01*
X158104313Y-138748533D01*
X158102834Y-138756427D01*
X158100778Y-138777859D01*
X158098428Y-138809456D01*
X158096298Y-138843783D01*
X158093650Y-138884017D01*
X158090668Y-138919445D01*
X158087752Y-138945765D01*
X158085704Y-138957488D01*
X158085273Y-138968689D01*
X157950291Y-138968689D01*
X157936668Y-138956485D01*
X157885975Y-138908695D01*
X157837354Y-138860647D01*
X157795171Y-138816510D01*
X157775593Y-138794601D01*
X157714624Y-138717120D01*
X157668534Y-138643497D01*
X157637434Y-138574199D01*
X157621432Y-138509691D01*
X157620638Y-138450437D01*
X157635161Y-138396903D01*
X157665110Y-138349553D01*
X157669799Y-138344250D01*
X157686243Y-138328647D01*
X157693786Y-138327350D01*
X157692322Y-138340194D01*
X157682898Y-138364421D01*
X157669164Y-138415810D01*
X157669768Y-138473426D01*
X157684213Y-138535333D01*
X157712001Y-138599594D01*
X157752635Y-138664272D01*
X157763626Y-138678849D01*
X157788387Y-138708496D01*
X157819656Y-138742654D01*
X157855433Y-138779476D01*
X157893717Y-138817115D01*
X157932505Y-138853725D01*
X157969798Y-138887458D01*
X158003594Y-138916468D01*
X158031891Y-138938907D01*
X158052689Y-138952930D01*
X158063986Y-138956688D01*
X158064444Y-138956475D01*
X158068796Y-138946270D01*
X158073220Y-138923631D01*
X158076888Y-138893035D01*
X158077482Y-138886060D01*
X158080538Y-138847696D01*
X158083590Y-138809882D01*
X158085981Y-138780739D01*
X158086001Y-138780504D01*
X158089337Y-138740509D01*
X158003074Y-138653504D01*
X157930389Y-138574740D01*
X157869302Y-138495677D01*
X157815469Y-138410303D01*
X157781203Y-138346394D01*
X157757885Y-138302989D01*
X157738984Y-138274540D01*
X157723333Y-138260018D01*
X157709762Y-138258395D01*
X157697103Y-138268641D01*
X157695409Y-138270864D01*
X157686242Y-138281122D01*
X157678512Y-138278225D01*
X157671363Y-138269668D01*
X157642291Y-138222791D01*
X157620029Y-138167384D01*
X157606268Y-138109347D01*
X157602703Y-138054583D01*
X157604351Y-138036015D01*
X157609013Y-138011480D01*
X157616301Y-137982004D01*
X157624962Y-137951652D01*
X157633742Y-137924489D01*
X157641388Y-137904580D01*
X157646647Y-137895991D01*
X157647481Y-137896125D01*
X157647481Y-137896125D01*
G37*
X157647481Y-137896125D02*
X157648135Y-137905658D01*
X157646655Y-137927916D01*
X157643353Y-137958872D01*
X157641407Y-137974183D01*
X157636025Y-138038043D01*
X157638395Y-138088699D01*
X157648222Y-138125698D01*
X157665211Y-138148585D01*
X157689068Y-138156905D01*
X157719496Y-138150202D01*
X157745966Y-138135375D01*
X157776161Y-138114884D01*
X157793890Y-138175592D01*
X157834245Y-138289257D01*
X157887279Y-138399970D01*
X157950024Y-138501588D01*
X157954013Y-138507233D01*
X157974794Y-138535492D01*
X157998695Y-138566570D01*
X158023352Y-138597573D01*
X158046401Y-138625608D01*
X158065481Y-138647783D01*
X158078227Y-138661206D01*
X158081976Y-138663867D01*
X158083407Y-138655999D01*
X158083366Y-138634628D01*
X158082046Y-138603101D01*
X158079639Y-138564767D01*
X158076337Y-138522974D01*
X158072333Y-138481070D01*
X158070551Y-138464791D01*
X158068147Y-138441945D01*
X158068195Y-138434862D01*
X158070943Y-138442516D01*
X158073579Y-138452200D01*
X158077525Y-138472281D01*
X158082365Y-138504653D01*
X158087470Y-138544743D01*
X158091944Y-138585364D01*
X158102457Y-138688895D01*
X158147362Y-138733241D01*
X158170668Y-138755352D01*
X158184625Y-138765955D01*
X158191118Y-138766214D01*
X158192232Y-138760944D01*
X158190506Y-138739556D01*
X158185878Y-138705864D01*
X158179092Y-138664099D01*
X158170892Y-138618493D01*
X158162022Y-138573278D01*
X158153223Y-138532686D01*
X158149148Y-138515700D01*
X158140668Y-138481863D01*
X158133379Y-138452758D01*
X158128586Y-138433597D01*
X158127946Y-138431033D01*
X158126173Y-138420493D01*
X158130505Y-138425172D01*
X158131519Y-138426800D01*
X158137472Y-138441810D01*
X158145851Y-138469974D01*
X158155836Y-138507826D01*
X158166606Y-138551900D01*
X158177341Y-138598731D01*
X158187221Y-138644852D01*
X158195426Y-138686799D01*
X158201087Y-138720765D01*
X158205499Y-138750226D01*
X158210413Y-138771936D01*
X158218172Y-138789194D01*
X158231116Y-138805305D01*
X158251590Y-138823571D01*
X158281935Y-138847293D01*
X158301286Y-138862039D01*
X158307987Y-138864860D01*
X158309759Y-138857195D01*
X158307122Y-138836194D01*
X158306596Y-138833007D01*
X158299526Y-138798601D01*
X158288209Y-138752500D01*
X158273870Y-138699034D01*
X158257738Y-138642532D01*
X158241039Y-138587324D01*
X158224999Y-138537740D01*
X158214284Y-138507233D01*
X158198011Y-138463036D01*
X158187122Y-138433022D01*
X158181118Y-138415497D01*
X158179505Y-138408765D01*
X158181785Y-138411129D01*
X158187463Y-138420894D01*
X158190745Y-138426800D01*
X158203945Y-138454875D01*
X158220112Y-138495812D01*
X158238074Y-138546052D01*
X158256662Y-138602038D01*
X158274704Y-138660211D01*
X158291029Y-138717012D01*
X158304467Y-138768883D01*
X158307389Y-138781321D01*
X158317479Y-138824684D01*
X158325330Y-138854735D01*
X158332386Y-138874693D01*
X158340087Y-138887773D01*
X158349876Y-138897195D01*
X158363196Y-138906174D01*
X158363412Y-138906310D01*
X158385038Y-138921099D01*
X158394304Y-138929766D01*
X158390763Y-138931146D01*
X158373972Y-138924072D01*
X158369280Y-138921693D01*
X158350776Y-138913729D01*
X158339618Y-138911896D01*
X158338957Y-138912287D01*
X158338047Y-138922075D01*
X158339455Y-138944110D01*
X158342872Y-138973909D01*
X158343505Y-138978528D01*
X158348902Y-139021133D01*
X158354144Y-139069043D01*
X158357489Y-139104887D01*
X158362789Y-139169140D01*
X158404308Y-139200137D01*
X158426954Y-139216472D01*
X158443986Y-139227703D01*
X158450889Y-139231133D01*
X158453188Y-139223275D01*
X158452381Y-139201396D01*
X158448882Y-139168038D01*
X158443105Y-139125744D01*
X158435464Y-139077056D01*
X158426372Y-139024516D01*
X158416244Y-138970668D01*
X158405492Y-138918053D01*
X158394531Y-138869213D01*
X158387104Y-138839204D01*
X158366596Y-138766802D01*
X158341373Y-138688151D01*
X158313131Y-138607884D01*
X158283564Y-138530633D01*
X158254366Y-138461032D01*
X158229302Y-138407765D01*
X158218864Y-138385527D01*
X158213600Y-138370916D01*
X158213868Y-138367533D01*
X158219680Y-138374897D01*
X158230710Y-138395160D01*
X158245691Y-138425577D01*
X158263358Y-138463405D01*
X158282443Y-138505899D01*
X158301681Y-138550316D01*
X158319806Y-138593912D01*
X158329136Y-138617300D01*
X158357942Y-138697310D01*
X158386217Y-138787762D01*
X158412795Y-138884003D01*
X158436510Y-138981382D01*
X158456197Y-139075248D01*
X158470688Y-139160949D01*
X158476086Y-139203514D01*
X158479919Y-139232581D01*
X158485972Y-139251934D01*
X158497695Y-139267753D01*
X158518540Y-139286219D01*
X158525403Y-139291829D01*
X158554477Y-139316135D01*
X158583712Y-139341602D01*
X158600628Y-139356997D01*
X158619216Y-139373029D01*
X158632552Y-139381904D01*
X158636390Y-139382498D01*
X158636609Y-139372422D01*
X158632955Y-139348757D01*
X158626082Y-139314234D01*
X158616641Y-139271581D01*
X158605287Y-139223529D01*
X158592671Y-139172806D01*
X158579448Y-139122142D01*
X158566269Y-139074267D01*
X158553787Y-139031909D01*
X158548575Y-139015386D01*
X158514712Y-138917654D01*
X158475003Y-138814496D01*
X158431310Y-138710161D01*
X158385494Y-138608894D01*
X158339416Y-138514945D01*
X158294937Y-138432562D01*
X158287924Y-138420450D01*
X158276699Y-138399889D01*
X158271149Y-138386864D01*
X158271356Y-138384467D01*
X158278570Y-138391765D01*
X158291859Y-138412209D01*
X158310093Y-138443619D01*
X158332141Y-138483816D01*
X158356872Y-138530623D01*
X158383157Y-138581860D01*
X158409864Y-138635348D01*
X158435863Y-138688909D01*
X158460024Y-138740365D01*
X158481215Y-138787536D01*
X158484772Y-138795739D01*
X158512065Y-138862699D01*
X158540016Y-138937732D01*
X158567573Y-139017452D01*
X158593680Y-139098469D01*
X158617283Y-139177396D01*
X158637330Y-139250846D01*
X158652765Y-139315429D01*
X158662365Y-139366600D01*
X158666523Y-139388999D01*
X158672913Y-139408156D01*
X158683632Y-139427530D01*
X158700778Y-139450579D01*
X158726447Y-139480760D01*
X158742811Y-139499244D01*
X158816775Y-139591721D01*
X158875014Y-139685227D01*
X158917315Y-139779162D01*
X158943463Y-139872927D01*
X158953245Y-139965925D01*
X158946447Y-140057557D01*
X158945025Y-140065662D01*
X158930648Y-140118288D01*
X158906302Y-140178367D01*
X158874005Y-140241396D01*
X158844750Y-140289467D01*
X158822164Y-140326892D01*
X158795449Y-140375784D01*
X158766689Y-140431859D01*
X158737966Y-140490830D01*
X158711364Y-140548413D01*
X158688965Y-140600321D01*
X158672853Y-140642269D01*
X158671898Y-140645067D01*
X158634836Y-140770164D01*
X158606239Y-140899092D01*
X158586583Y-141028190D01*
X158576344Y-141153797D01*
X158575999Y-141272254D01*
X158581167Y-141342401D01*
X158584929Y-141379847D01*
X158587463Y-141410531D01*
X158588512Y-141430898D01*
X158588072Y-141437417D01*
X158584950Y-141431580D01*
X158579947Y-141413332D01*
X158575266Y-141392015D01*
X158555437Y-141259524D01*
X158549251Y-141125221D01*
X158556851Y-140987599D01*
X158578378Y-140845149D01*
X158613973Y-140696367D01*
X158652221Y-140573100D01*
X158664718Y-140537708D01*
X158681968Y-140490891D01*
X158702361Y-140436917D01*
X158724284Y-140380052D01*
X158744932Y-140327567D01*
X158777766Y-140243859D01*
X158804075Y-140173473D01*
X158824269Y-140114283D01*
X158838755Y-140064162D01*
X158847942Y-140020982D01*
X158852238Y-139982617D01*
X158852051Y-139946940D01*
X158847791Y-139911825D01*
X158839864Y-139875144D01*
X158835193Y-139857496D01*
X158816550Y-139806308D01*
X158788522Y-139749907D01*
X158754407Y-139694302D01*
X158721495Y-139650233D01*
X158700351Y-139624833D01*
X158700153Y-139777233D01*
X158699267Y-139839648D01*
X158696944Y-139901852D01*
X158693448Y-139958793D01*
X158689047Y-140005414D01*
X158687556Y-140016870D01*
X158681030Y-140058504D01*
X158673068Y-140102815D01*
X158664358Y-140146681D01*
X158655585Y-140186980D01*
X158647437Y-140220590D01*
X158640598Y-140244389D01*
X158635757Y-140255254D01*
X158635074Y-140255600D01*
X158633512Y-140248724D01*
X158635834Y-140236550D01*
X158648447Y-140178435D01*
X158658151Y-140105456D01*
X158664983Y-140017133D01*
X158668984Y-139912987D01*
X158670185Y-139812605D01*
X158670633Y-139593976D01*
X158583429Y-139508931D01*
X158552209Y-139479023D01*
X158525345Y-139454308D01*
X158505079Y-139436770D01*
X158493653Y-139428393D01*
X158492049Y-139428062D01*
X158489709Y-139437706D01*
X158486591Y-139460605D01*
X158483137Y-139493126D01*
X158480374Y-139524302D01*
X158475166Y-139574353D01*
X158467632Y-139629722D01*
X158459075Y-139681246D01*
X158455438Y-139699780D01*
X158446201Y-139741459D01*
X158435943Y-139783685D01*
X158425516Y-139823413D01*
X158415774Y-139857595D01*
X158407569Y-139883186D01*
X158401755Y-139897139D01*
X158399769Y-139898657D01*
X158400215Y-139889642D01*
X158404019Y-139868293D01*
X158410420Y-139838703D01*
X158412680Y-139829056D01*
X158430707Y-139740503D01*
X158445408Y-139642046D01*
X158455837Y-139540547D01*
X158459002Y-139493600D01*
X158464368Y-139396233D01*
X158410867Y-139352163D01*
X158357367Y-139308093D01*
X158350726Y-139343696D01*
X158339150Y-139405098D01*
X158329788Y-139452909D01*
X158321955Y-139490224D01*
X158314967Y-139520135D01*
X158308139Y-139545738D01*
X158300788Y-139570125D01*
X158300282Y-139571723D01*
X158291043Y-139599225D01*
X158283588Y-139618519D01*
X158279404Y-139625792D01*
X158279226Y-139625714D01*
X158279805Y-139616733D01*
X158283957Y-139595463D01*
X158290858Y-139565967D01*
X158293357Y-139556058D01*
X158301560Y-139519259D01*
X158310240Y-139472425D01*
X158318203Y-139422373D01*
X158322870Y-139387766D01*
X158335285Y-139286166D01*
X158312102Y-139267880D01*
X158293490Y-139252915D01*
X158267733Y-139231859D01*
X158242709Y-139211177D01*
X158196500Y-139172760D01*
X158182992Y-139225859D01*
X158174087Y-139257490D01*
X158162907Y-139292401D01*
X158150745Y-139327144D01*
X158138892Y-139358271D01*
X158128642Y-139382334D01*
X158121285Y-139395885D01*
X158118688Y-139397444D01*
X158118992Y-139387843D01*
X158123620Y-139376774D01*
X158130367Y-139359582D01*
X158139346Y-139330681D01*
X158149345Y-139294776D01*
X158159154Y-139256570D01*
X158167561Y-139220771D01*
X158173353Y-139192082D01*
X158175333Y-139175906D01*
X158169198Y-139159187D01*
X158150079Y-139136867D01*
X158123793Y-139113333D01*
X158098951Y-139093128D01*
X158079101Y-139078009D01*
X158067744Y-139070612D01*
X158066643Y-139070278D01*
X158061597Y-139077743D01*
X158053868Y-139097256D01*
X158045554Y-139123195D01*
X158036874Y-139149164D01*
X158024517Y-139181486D01*
X158010037Y-139216638D01*
X157994982Y-139251101D01*
X157980906Y-139281352D01*
X157969358Y-139303872D01*
X157961890Y-139315140D01*
X157960702Y-139315800D01*
X157961992Y-139308534D01*
X157968669Y-139288902D01*
X157979572Y-139260151D01*
X157989663Y-139234950D01*
X158005611Y-139193975D01*
X158020560Y-139152216D01*
X158032195Y-139116267D01*
X158035895Y-139103122D01*
X158049105Y-139052144D01*
X158026805Y-139034603D01*
X157985067Y-138999845D01*
X157950291Y-138968689D01*
X158085273Y-138968689D01*
X158092199Y-138980595D01*
X158108889Y-138996089D01*
X158133953Y-139015267D01*
X158157879Y-139032500D01*
X158175127Y-139042457D01*
X158186807Y-139043557D01*
X158194033Y-139034222D01*
X158197916Y-139012869D01*
X158199568Y-138977921D01*
X158199831Y-138953123D01*
X158213542Y-138953123D01*
X158213651Y-139072981D01*
X158272809Y-139112181D01*
X158331967Y-139151380D01*
X158334767Y-139125775D01*
X158335097Y-139106978D01*
X158333813Y-139076019D01*
X158331164Y-139037569D01*
X158328290Y-139005144D01*
X158324192Y-138965964D01*
X158320187Y-138932504D01*
X158316774Y-138908677D01*
X158314715Y-138898923D01*
X158306388Y-138890437D01*
X158288299Y-138876656D01*
X158265307Y-138860828D01*
X158242274Y-138846196D01*
X158224059Y-138836008D01*
X158216343Y-138833232D01*
X158215310Y-138841209D01*
X158214454Y-138863105D01*
X158213845Y-138895906D01*
X158213555Y-138936599D01*
X158213542Y-138953123D01*
X158199831Y-138953123D01*
X158200100Y-138927795D01*
X158200138Y-138921202D01*
X158200733Y-138818704D01*
X158153818Y-138783619D01*
X158130145Y-138766174D01*
X158112440Y-138753611D01*
X158104388Y-138748543D01*
X158104313Y-138748533D01*
X158102834Y-138756427D01*
X158100778Y-138777859D01*
X158098428Y-138809456D01*
X158096298Y-138843783D01*
X158093650Y-138884017D01*
X158090668Y-138919445D01*
X158087752Y-138945765D01*
X158085704Y-138957488D01*
X158085273Y-138968689D01*
X157950291Y-138968689D01*
X157936668Y-138956485D01*
X157885975Y-138908695D01*
X157837354Y-138860647D01*
X157795171Y-138816510D01*
X157775593Y-138794601D01*
X157714624Y-138717120D01*
X157668534Y-138643497D01*
X157637434Y-138574199D01*
X157621432Y-138509691D01*
X157620638Y-138450437D01*
X157635161Y-138396903D01*
X157665110Y-138349553D01*
X157669799Y-138344250D01*
X157686243Y-138328647D01*
X157693786Y-138327350D01*
X157692322Y-138340194D01*
X157682898Y-138364421D01*
X157669164Y-138415810D01*
X157669768Y-138473426D01*
X157684213Y-138535333D01*
X157712001Y-138599594D01*
X157752635Y-138664272D01*
X157763626Y-138678849D01*
X157788387Y-138708496D01*
X157819656Y-138742654D01*
X157855433Y-138779476D01*
X157893717Y-138817115D01*
X157932505Y-138853725D01*
X157969798Y-138887458D01*
X158003594Y-138916468D01*
X158031891Y-138938907D01*
X158052689Y-138952930D01*
X158063986Y-138956688D01*
X158064444Y-138956475D01*
X158068796Y-138946270D01*
X158073220Y-138923631D01*
X158076888Y-138893035D01*
X158077482Y-138886060D01*
X158080538Y-138847696D01*
X158083590Y-138809882D01*
X158085981Y-138780739D01*
X158086001Y-138780504D01*
X158089337Y-138740509D01*
X158003074Y-138653504D01*
X157930389Y-138574740D01*
X157869302Y-138495677D01*
X157815469Y-138410303D01*
X157781203Y-138346394D01*
X157757885Y-138302989D01*
X157738984Y-138274540D01*
X157723333Y-138260018D01*
X157709762Y-138258395D01*
X157697103Y-138268641D01*
X157695409Y-138270864D01*
X157686242Y-138281122D01*
X157678512Y-138278225D01*
X157671363Y-138269668D01*
X157642291Y-138222791D01*
X157620029Y-138167384D01*
X157606268Y-138109347D01*
X157602703Y-138054583D01*
X157604351Y-138036015D01*
X157609013Y-138011480D01*
X157616301Y-137982004D01*
X157624962Y-137951652D01*
X157633742Y-137924489D01*
X157641388Y-137904580D01*
X157646647Y-137895991D01*
X157647481Y-137896125D01*
G36*
X165399940Y-139835084D02*
G01*
X165389770Y-139839307D01*
X165366366Y-139846428D01*
X165330811Y-139856128D01*
X165284192Y-139868091D01*
X165227593Y-139882001D01*
X165189967Y-139890991D01*
X165014872Y-139932991D01*
X164852975Y-139973216D01*
X164702691Y-140012345D01*
X164562434Y-140051058D01*
X164430619Y-140090035D01*
X164305663Y-140129955D01*
X164185980Y-140171498D01*
X164069984Y-140215343D01*
X163956092Y-140262171D01*
X163842717Y-140312662D01*
X163728276Y-140367493D01*
X163611184Y-140427347D01*
X163489855Y-140492901D01*
X163362705Y-140564837D01*
X163228148Y-140643833D01*
X163084600Y-140730569D01*
X162930476Y-140825725D01*
X162764192Y-140929981D01*
X162757646Y-140934109D01*
X162707128Y-140966011D01*
X162659804Y-140995955D01*
X162618072Y-141022418D01*
X162584332Y-141043878D01*
X162560984Y-141058812D01*
X162552600Y-141064243D01*
X162522351Y-141083785D01*
X162480102Y-141110598D01*
X162427908Y-141143413D01*
X162367827Y-141180962D01*
X162301913Y-141221975D01*
X162232224Y-141265183D01*
X162160815Y-141309317D01*
X162089742Y-141353107D01*
X162021061Y-141395285D01*
X161956829Y-141434581D01*
X161899102Y-141469727D01*
X161849935Y-141499453D01*
X161811385Y-141522489D01*
X161789249Y-141535434D01*
X161583166Y-141646240D01*
X161378207Y-141741188D01*
X161172166Y-141821024D01*
X160962839Y-141886491D01*
X160748021Y-141938336D01*
X160525507Y-141977304D01*
X160452867Y-141987106D01*
X160400535Y-141992316D01*
X160335164Y-141996699D01*
X160260630Y-142000179D01*
X160180810Y-142002676D01*
X160099581Y-142004114D01*
X160020820Y-142004416D01*
X159948403Y-142003502D01*
X159886209Y-142001296D01*
X159852980Y-141999122D01*
X159624736Y-141972106D01*
X159396110Y-141929154D01*
X159169274Y-141870945D01*
X158946398Y-141798161D01*
X158729652Y-141711481D01*
X158521207Y-141611587D01*
X158394963Y-141542080D01*
X158339639Y-141509044D01*
X158281743Y-141472836D01*
X158224238Y-141435449D01*
X158170087Y-141398879D01*
X158122254Y-141365119D01*
X158083701Y-141336163D01*
X158061033Y-141317350D01*
X158027167Y-141286937D01*
X158065267Y-141309351D01*
X158099401Y-141328313D01*
X158145961Y-141352573D01*
X158201851Y-141380654D01*
X158263977Y-141411079D01*
X158329245Y-141442373D01*
X158394560Y-141473058D01*
X158456828Y-141501657D01*
X158512955Y-141526694D01*
X158559847Y-141546693D01*
X158577500Y-141553807D01*
X158820040Y-141640760D01*
X159061884Y-141711010D01*
X159302864Y-141764545D01*
X159542812Y-141801353D01*
X159781560Y-141821424D01*
X160018940Y-141824744D01*
X160254785Y-141811303D01*
X160488926Y-141781088D01*
X160721196Y-141734088D01*
X160812700Y-141710812D01*
X160983713Y-141659675D01*
X161153644Y-141598411D01*
X161324492Y-141526119D01*
X161498257Y-141441898D01*
X161676938Y-141344846D01*
X161841400Y-141247146D01*
X161866540Y-141231667D01*
X161893047Y-141215380D01*
X161922304Y-141197440D01*
X161955693Y-141177005D01*
X161994596Y-141153230D01*
X162040396Y-141125270D01*
X162094474Y-141092282D01*
X162158214Y-141053422D01*
X162232998Y-141007845D01*
X162320207Y-140954708D01*
X162366333Y-140926606D01*
X162469612Y-140864093D01*
X162581792Y-140796915D01*
X162696953Y-140728592D01*
X162809173Y-140662647D01*
X162857400Y-140634533D01*
X163033947Y-140533573D01*
X163199410Y-140442685D01*
X163355749Y-140361146D01*
X163504927Y-140288233D01*
X163648907Y-140223225D01*
X163789650Y-140165400D01*
X163929119Y-140114035D01*
X164069277Y-140068408D01*
X164212085Y-140027797D01*
X164359506Y-139991480D01*
X164513502Y-139958735D01*
X164676036Y-139928839D01*
X164849069Y-139901070D01*
X164851300Y-139900735D01*
X164918507Y-139891076D01*
X164994696Y-139880853D01*
X165072785Y-139870972D01*
X165145696Y-139862340D01*
X165185733Y-139857954D01*
X165238504Y-139852350D01*
X165286987Y-139847072D01*
X165328086Y-139842468D01*
X165358704Y-139838886D01*
X165375746Y-139836672D01*
X165376233Y-139836596D01*
X165395789Y-139834075D01*
X165399940Y-139835084D01*
X165399940Y-139835084D01*
G37*
X165399940Y-139835084D02*
X165389770Y-139839307D01*
X165366366Y-139846428D01*
X165330811Y-139856128D01*
X165284192Y-139868091D01*
X165227593Y-139882001D01*
X165189967Y-139890991D01*
X165014872Y-139932991D01*
X164852975Y-139973216D01*
X164702691Y-140012345D01*
X164562434Y-140051058D01*
X164430619Y-140090035D01*
X164305663Y-140129955D01*
X164185980Y-140171498D01*
X164069984Y-140215343D01*
X163956092Y-140262171D01*
X163842717Y-140312662D01*
X163728276Y-140367493D01*
X163611184Y-140427347D01*
X163489855Y-140492901D01*
X163362705Y-140564837D01*
X163228148Y-140643833D01*
X163084600Y-140730569D01*
X162930476Y-140825725D01*
X162764192Y-140929981D01*
X162757646Y-140934109D01*
X162707128Y-140966011D01*
X162659804Y-140995955D01*
X162618072Y-141022418D01*
X162584332Y-141043878D01*
X162560984Y-141058812D01*
X162552600Y-141064243D01*
X162522351Y-141083785D01*
X162480102Y-141110598D01*
X162427908Y-141143413D01*
X162367827Y-141180962D01*
X162301913Y-141221975D01*
X162232224Y-141265183D01*
X162160815Y-141309317D01*
X162089742Y-141353107D01*
X162021061Y-141395285D01*
X161956829Y-141434581D01*
X161899102Y-141469727D01*
X161849935Y-141499453D01*
X161811385Y-141522489D01*
X161789249Y-141535434D01*
X161583166Y-141646240D01*
X161378207Y-141741188D01*
X161172166Y-141821024D01*
X160962839Y-141886491D01*
X160748021Y-141938336D01*
X160525507Y-141977304D01*
X160452867Y-141987106D01*
X160400535Y-141992316D01*
X160335164Y-141996699D01*
X160260630Y-142000179D01*
X160180810Y-142002676D01*
X160099581Y-142004114D01*
X160020820Y-142004416D01*
X159948403Y-142003502D01*
X159886209Y-142001296D01*
X159852980Y-141999122D01*
X159624736Y-141972106D01*
X159396110Y-141929154D01*
X159169274Y-141870945D01*
X158946398Y-141798161D01*
X158729652Y-141711481D01*
X158521207Y-141611587D01*
X158394963Y-141542080D01*
X158339639Y-141509044D01*
X158281743Y-141472836D01*
X158224238Y-141435449D01*
X158170087Y-141398879D01*
X158122254Y-141365119D01*
X158083701Y-141336163D01*
X158061033Y-141317350D01*
X158027167Y-141286937D01*
X158065267Y-141309351D01*
X158099401Y-141328313D01*
X158145961Y-141352573D01*
X158201851Y-141380654D01*
X158263977Y-141411079D01*
X158329245Y-141442373D01*
X158394560Y-141473058D01*
X158456828Y-141501657D01*
X158512955Y-141526694D01*
X158559847Y-141546693D01*
X158577500Y-141553807D01*
X158820040Y-141640760D01*
X159061884Y-141711010D01*
X159302864Y-141764545D01*
X159542812Y-141801353D01*
X159781560Y-141821424D01*
X160018940Y-141824744D01*
X160254785Y-141811303D01*
X160488926Y-141781088D01*
X160721196Y-141734088D01*
X160812700Y-141710812D01*
X160983713Y-141659675D01*
X161153644Y-141598411D01*
X161324492Y-141526119D01*
X161498257Y-141441898D01*
X161676938Y-141344846D01*
X161841400Y-141247146D01*
X161866540Y-141231667D01*
X161893047Y-141215380D01*
X161922304Y-141197440D01*
X161955693Y-141177005D01*
X161994596Y-141153230D01*
X162040396Y-141125270D01*
X162094474Y-141092282D01*
X162158214Y-141053422D01*
X162232998Y-141007845D01*
X162320207Y-140954708D01*
X162366333Y-140926606D01*
X162469612Y-140864093D01*
X162581792Y-140796915D01*
X162696953Y-140728592D01*
X162809173Y-140662647D01*
X162857400Y-140634533D01*
X163033947Y-140533573D01*
X163199410Y-140442685D01*
X163355749Y-140361146D01*
X163504927Y-140288233D01*
X163648907Y-140223225D01*
X163789650Y-140165400D01*
X163929119Y-140114035D01*
X164069277Y-140068408D01*
X164212085Y-140027797D01*
X164359506Y-139991480D01*
X164513502Y-139958735D01*
X164676036Y-139928839D01*
X164849069Y-139901070D01*
X164851300Y-139900735D01*
X164918507Y-139891076D01*
X164994696Y-139880853D01*
X165072785Y-139870972D01*
X165145696Y-139862340D01*
X165185733Y-139857954D01*
X165238504Y-139852350D01*
X165286987Y-139847072D01*
X165328086Y-139842468D01*
X165358704Y-139838886D01*
X165375746Y-139836672D01*
X165376233Y-139836596D01*
X165395789Y-139834075D01*
X165399940Y-139835084D01*
G36*
X164752212Y-140293390D02*
G01*
X164749040Y-140299091D01*
X164740328Y-140303389D01*
X164726858Y-140308589D01*
X164701062Y-140318776D01*
X164666321Y-140332608D01*
X164626013Y-140348744D01*
X164614233Y-140353474D01*
X164455878Y-140417856D01*
X164311497Y-140478311D01*
X164178916Y-140536009D01*
X164055960Y-140592116D01*
X163940455Y-140647802D01*
X163830225Y-140704232D01*
X163723098Y-140762577D01*
X163616897Y-140824002D01*
X163509448Y-140889677D01*
X163398577Y-140960768D01*
X163282109Y-141038445D01*
X163157870Y-141123873D01*
X163086000Y-141174191D01*
X163046975Y-141201621D01*
X163007985Y-141228961D01*
X162973764Y-141252897D01*
X162950652Y-141268998D01*
X162926333Y-141286003D01*
X162892338Y-141309945D01*
X162852774Y-141337924D01*
X162811749Y-141367040D01*
X162802485Y-141373630D01*
X162758461Y-141404861D01*
X162711801Y-141437790D01*
X162667799Y-141468692D01*
X162631748Y-141493840D01*
X162628800Y-141495884D01*
X162593402Y-141520515D01*
X162558511Y-141544977D01*
X162529487Y-141565504D01*
X162518733Y-141573200D01*
X162306319Y-141717934D01*
X162093147Y-141846247D01*
X161877967Y-141958643D01*
X161659531Y-142055628D01*
X161436590Y-142137707D01*
X161207897Y-142205384D01*
X160972201Y-142259164D01*
X160728254Y-142299553D01*
X160719567Y-142300728D01*
X160668559Y-142307347D01*
X160622954Y-142312618D01*
X160579626Y-142316720D01*
X160535447Y-142319831D01*
X160487292Y-142322128D01*
X160432033Y-142323790D01*
X160366544Y-142324995D01*
X160287699Y-142325921D01*
X160275067Y-142326041D01*
X160204287Y-142326442D01*
X160135313Y-142326345D01*
X160070937Y-142325792D01*
X160013950Y-142324822D01*
X159967145Y-142323475D01*
X159933314Y-142321792D01*
X159923700Y-142321000D01*
X159879016Y-142316085D01*
X159828225Y-142309772D01*
X159774684Y-142302556D01*
X159721752Y-142294935D01*
X159672786Y-142287404D01*
X159631143Y-142280460D01*
X159600181Y-142274600D01*
X159585033Y-142270925D01*
X159579276Y-142267593D01*
X159590082Y-142266367D01*
X159617543Y-142267244D01*
X159644300Y-142268936D01*
X159672865Y-142270326D01*
X159715736Y-142271578D01*
X159770288Y-142272655D01*
X159833894Y-142273520D01*
X159903928Y-142274136D01*
X159977763Y-142274466D01*
X160038000Y-142274498D01*
X160129840Y-142274183D01*
X160207077Y-142273444D01*
X160272037Y-142272197D01*
X160327048Y-142270359D01*
X160374436Y-142267848D01*
X160416527Y-142264581D01*
X160455649Y-142260474D01*
X160465567Y-142259265D01*
X160627885Y-142237122D01*
X160776841Y-142212773D01*
X160915940Y-142185460D01*
X161048692Y-142154428D01*
X161178602Y-142118919D01*
X161309180Y-142078179D01*
X161316467Y-142075766D01*
X161388885Y-142051326D01*
X161453980Y-142028586D01*
X161509447Y-142008381D01*
X161552982Y-141991548D01*
X161578933Y-141980493D01*
X161598821Y-141971466D01*
X161629618Y-141957642D01*
X161666744Y-141941073D01*
X161697467Y-141927421D01*
X161755738Y-141901071D01*
X161811329Y-141874729D01*
X161865707Y-141847501D01*
X161920341Y-141818496D01*
X161976701Y-141786822D01*
X162036256Y-141751586D01*
X162100474Y-141711896D01*
X162170825Y-141666860D01*
X162248777Y-141615586D01*
X162335800Y-141557181D01*
X162433363Y-141490754D01*
X162542934Y-141415411D01*
X162561066Y-141402891D01*
X162714461Y-141297374D01*
X162855613Y-141201315D01*
X162985813Y-141113998D01*
X163106355Y-141034708D01*
X163218531Y-140962730D01*
X163323633Y-140897346D01*
X163422954Y-140837842D01*
X163517786Y-140783501D01*
X163609422Y-140733608D01*
X163699155Y-140687447D01*
X163788276Y-140644303D01*
X163878078Y-140603458D01*
X163969854Y-140564198D01*
X164064897Y-140525806D01*
X164164497Y-140487568D01*
X164269949Y-140448766D01*
X164309433Y-140434579D01*
X164357521Y-140417694D01*
X164410881Y-140399463D01*
X164467212Y-140380620D01*
X164524211Y-140361899D01*
X164579578Y-140344033D01*
X164631009Y-140327758D01*
X164676205Y-140313806D01*
X164712863Y-140302912D01*
X164738681Y-140295810D01*
X164751358Y-140293233D01*
X164752212Y-140293390D01*
X164752212Y-140293390D01*
G37*
X164752212Y-140293390D02*
X164749040Y-140299091D01*
X164740328Y-140303389D01*
X164726858Y-140308589D01*
X164701062Y-140318776D01*
X164666321Y-140332608D01*
X164626013Y-140348744D01*
X164614233Y-140353474D01*
X164455878Y-140417856D01*
X164311497Y-140478311D01*
X164178916Y-140536009D01*
X164055960Y-140592116D01*
X163940455Y-140647802D01*
X163830225Y-140704232D01*
X163723098Y-140762577D01*
X163616897Y-140824002D01*
X163509448Y-140889677D01*
X163398577Y-140960768D01*
X163282109Y-141038445D01*
X163157870Y-141123873D01*
X163086000Y-141174191D01*
X163046975Y-141201621D01*
X163007985Y-141228961D01*
X162973764Y-141252897D01*
X162950652Y-141268998D01*
X162926333Y-141286003D01*
X162892338Y-141309945D01*
X162852774Y-141337924D01*
X162811749Y-141367040D01*
X162802485Y-141373630D01*
X162758461Y-141404861D01*
X162711801Y-141437790D01*
X162667799Y-141468692D01*
X162631748Y-141493840D01*
X162628800Y-141495884D01*
X162593402Y-141520515D01*
X162558511Y-141544977D01*
X162529487Y-141565504D01*
X162518733Y-141573200D01*
X162306319Y-141717934D01*
X162093147Y-141846247D01*
X161877967Y-141958643D01*
X161659531Y-142055628D01*
X161436590Y-142137707D01*
X161207897Y-142205384D01*
X160972201Y-142259164D01*
X160728254Y-142299553D01*
X160719567Y-142300728D01*
X160668559Y-142307347D01*
X160622954Y-142312618D01*
X160579626Y-142316720D01*
X160535447Y-142319831D01*
X160487292Y-142322128D01*
X160432033Y-142323790D01*
X160366544Y-142324995D01*
X160287699Y-142325921D01*
X160275067Y-142326041D01*
X160204287Y-142326442D01*
X160135313Y-142326345D01*
X160070937Y-142325792D01*
X160013950Y-142324822D01*
X159967145Y-142323475D01*
X159933314Y-142321792D01*
X159923700Y-142321000D01*
X159879016Y-142316085D01*
X159828225Y-142309772D01*
X159774684Y-142302556D01*
X159721752Y-142294935D01*
X159672786Y-142287404D01*
X159631143Y-142280460D01*
X159600181Y-142274600D01*
X159585033Y-142270925D01*
X159579276Y-142267593D01*
X159590082Y-142266367D01*
X159617543Y-142267244D01*
X159644300Y-142268936D01*
X159672865Y-142270326D01*
X159715736Y-142271578D01*
X159770288Y-142272655D01*
X159833894Y-142273520D01*
X159903928Y-142274136D01*
X159977763Y-142274466D01*
X160038000Y-142274498D01*
X160129840Y-142274183D01*
X160207077Y-142273444D01*
X160272037Y-142272197D01*
X160327048Y-142270359D01*
X160374436Y-142267848D01*
X160416527Y-142264581D01*
X160455649Y-142260474D01*
X160465567Y-142259265D01*
X160627885Y-142237122D01*
X160776841Y-142212773D01*
X160915940Y-142185460D01*
X161048692Y-142154428D01*
X161178602Y-142118919D01*
X161309180Y-142078179D01*
X161316467Y-142075766D01*
X161388885Y-142051326D01*
X161453980Y-142028586D01*
X161509447Y-142008381D01*
X161552982Y-141991548D01*
X161578933Y-141980493D01*
X161598821Y-141971466D01*
X161629618Y-141957642D01*
X161666744Y-141941073D01*
X161697467Y-141927421D01*
X161755738Y-141901071D01*
X161811329Y-141874729D01*
X161865707Y-141847501D01*
X161920341Y-141818496D01*
X161976701Y-141786822D01*
X162036256Y-141751586D01*
X162100474Y-141711896D01*
X162170825Y-141666860D01*
X162248777Y-141615586D01*
X162335800Y-141557181D01*
X162433363Y-141490754D01*
X162542934Y-141415411D01*
X162561066Y-141402891D01*
X162714461Y-141297374D01*
X162855613Y-141201315D01*
X162985813Y-141113998D01*
X163106355Y-141034708D01*
X163218531Y-140962730D01*
X163323633Y-140897346D01*
X163422954Y-140837842D01*
X163517786Y-140783501D01*
X163609422Y-140733608D01*
X163699155Y-140687447D01*
X163788276Y-140644303D01*
X163878078Y-140603458D01*
X163969854Y-140564198D01*
X164064897Y-140525806D01*
X164164497Y-140487568D01*
X164269949Y-140448766D01*
X164309433Y-140434579D01*
X164357521Y-140417694D01*
X164410881Y-140399463D01*
X164467212Y-140380620D01*
X164524211Y-140361899D01*
X164579578Y-140344033D01*
X164631009Y-140327758D01*
X164676205Y-140313806D01*
X164712863Y-140302912D01*
X164738681Y-140295810D01*
X164751358Y-140293233D01*
X164752212Y-140293390D01*
D16*
X128543932Y-123474265D02*
X128543932Y-125924265D01*
X131763932Y-125274265D02*
X131763932Y-123474265D01*
X128565000Y-115750000D02*
X128565000Y-118200000D01*
X131785000Y-117550000D02*
X131785000Y-115750000D01*
D12*
X134250000Y-136775000D02*
X136000000Y-136775000D01*
X134250000Y-131020000D02*
X128750000Y-131020000D01*
X134250000Y-137430000D02*
X128750000Y-137430000D01*
X134250000Y-131020000D02*
X134250000Y-131770000D01*
X128750000Y-131020000D02*
X128750000Y-131770000D01*
X128750000Y-137430000D02*
X128750000Y-136680000D01*
X134250000Y-137430000D02*
X134250000Y-136775000D01*
D16*
X134463932Y-124920343D02*
X134463932Y-124403187D01*
X133043932Y-124920343D02*
X133043932Y-124403187D01*
X134435000Y-117096079D02*
X134435000Y-116578923D01*
X133015000Y-117096079D02*
X133015000Y-116578923D01*
X138437221Y-132210000D02*
X138762779Y-132210000D01*
X138437221Y-131190000D02*
X138762779Y-131190000D01*
X124053932Y-129500000D02*
X128053932Y-129500000D01*
X124053932Y-125300000D02*
X128053932Y-125300000D01*
X124125000Y-121800000D02*
X128125000Y-121800000D01*
X124125000Y-117600000D02*
X128125000Y-117600000D01*
X132750000Y-129700000D02*
X128900000Y-129700000D01*
X132750000Y-127700000D02*
X128900000Y-127700000D01*
X132750000Y-129700000D02*
X132750000Y-127700000D01*
X132775000Y-121850000D02*
X128925000Y-121850000D01*
X132775000Y-119850000D02*
X128925000Y-119850000D01*
X132775000Y-121850000D02*
X132775000Y-119850000D01*
X126250001Y-131975000D02*
X126250001Y-135825000D01*
X124250001Y-131975000D02*
X124250001Y-135825000D01*
X126250001Y-131975000D02*
X124250001Y-131975000D01*
X134463932Y-128432842D02*
X134463932Y-127915686D01*
X133043932Y-128432842D02*
X133043932Y-127915686D01*
X126382854Y-124910000D02*
X126900010Y-124910000D01*
X126382854Y-123490000D02*
X126900010Y-123490000D01*
X134435000Y-120558578D02*
X134435000Y-120041422D01*
X133015000Y-120558578D02*
X133015000Y-120041422D01*
X126416422Y-117210000D02*
X126933578Y-117210000D01*
X126416422Y-115790000D02*
X126933578Y-115790000D01*
X135049721Y-138910000D02*
X135375279Y-138910000D01*
X135049721Y-137890000D02*
X135375279Y-137890000D01*
X136765000Y-134087221D02*
X136765000Y-134412779D01*
X137785000Y-134087221D02*
X137785000Y-134412779D01*
X125250280Y-130665000D02*
X124924722Y-130665000D01*
X125250280Y-131685000D02*
X124924722Y-131685000D01*
D10*
X124100000Y-145250000D02*
X132500000Y-145250000D01*
X132500000Y-145250000D02*
X132500000Y-144850000D01*
D17*
X132500000Y-142450000D02*
X132500000Y-141050000D01*
D10*
X124100000Y-145250000D02*
X124100000Y-144850000D01*
X124100000Y-142450000D02*
X124100000Y-141050000D01*
X124750000Y-139850000D02*
X125050000Y-139850000D01*
X131850000Y-139850000D02*
X131550000Y-139850000D01*
D16*
X138310000Y-138375279D02*
X138310000Y-138049721D01*
X137290000Y-138375279D02*
X137290000Y-138049721D01*
X137107778Y-141110000D02*
X136782220Y-141110000D01*
X137107778Y-140090000D02*
X136782220Y-140090000D01*
X135192222Y-142810000D02*
X135517780Y-142810000D01*
X135192222Y-141790000D02*
X135517780Y-141790000D01*
X135192221Y-143295001D02*
X135517779Y-143295001D01*
X135192221Y-144315001D02*
X135517779Y-144315001D01*
D10*
X153600000Y-118170000D02*
X153600000Y-115820000D01*
X153600000Y-115820000D02*
X152600000Y-115820000D01*
X136600000Y-118170000D02*
X136600000Y-115820000D01*
X136600000Y-115820000D02*
X137600000Y-115820000D01*
X141290000Y-129336428D02*
X141290000Y-129765000D01*
X141261428Y-129850714D01*
X141204285Y-129907857D01*
X141118571Y-129936428D01*
X141061428Y-129936428D01*
X141890000Y-129936428D02*
X141547142Y-129936428D01*
X141718571Y-129936428D02*
X141718571Y-129336428D01*
X141661428Y-129422142D01*
X141604285Y-129479285D01*
X141547142Y-129507857D01*
X129342857Y-126421428D02*
X129342857Y-126907142D01*
X129371428Y-126964285D01*
X129400000Y-126992857D01*
X129457142Y-127021428D01*
X129571428Y-127021428D01*
X129628571Y-126992857D01*
X129657142Y-126964285D01*
X129685714Y-126907142D01*
X129685714Y-126421428D01*
X130228571Y-126621428D02*
X130228571Y-127021428D01*
X130085714Y-126392857D02*
X129942857Y-126821428D01*
X130314285Y-126821428D01*
X129092857Y-118721428D02*
X129092857Y-119207142D01*
X129121428Y-119264285D01*
X129150000Y-119292857D01*
X129207142Y-119321428D01*
X129321428Y-119321428D01*
X129378571Y-119292857D01*
X129407142Y-119264285D01*
X129435714Y-119207142D01*
X129435714Y-118721428D01*
X129664285Y-118721428D02*
X130035714Y-118721428D01*
X129835714Y-118950000D01*
X129921428Y-118950000D01*
X129978571Y-118978571D01*
X130007142Y-119007142D01*
X130035714Y-119064285D01*
X130035714Y-119207142D01*
X130007142Y-119264285D01*
X129978571Y-119292857D01*
X129921428Y-119321428D01*
X129750000Y-119321428D01*
X129692857Y-119292857D01*
X129664285Y-119264285D01*
X134792857Y-131121428D02*
X134792857Y-131607142D01*
X134821428Y-131664285D01*
X134850000Y-131692857D01*
X134907142Y-131721428D01*
X135021428Y-131721428D01*
X135078571Y-131692857D01*
X135107142Y-131664285D01*
X135135714Y-131607142D01*
X135135714Y-131121428D01*
X135392857Y-131178571D02*
X135421428Y-131150000D01*
X135478571Y-131121428D01*
X135621428Y-131121428D01*
X135678571Y-131150000D01*
X135707142Y-131178571D01*
X135735714Y-131235714D01*
X135735714Y-131292857D01*
X135707142Y-131378571D01*
X135364285Y-131721428D01*
X135735714Y-131721428D01*
X155900000Y-124621428D02*
X155700000Y-124335714D01*
X155557142Y-124621428D02*
X155557142Y-124021428D01*
X155785714Y-124021428D01*
X155842857Y-124050000D01*
X155871428Y-124078571D01*
X155900000Y-124135714D01*
X155900000Y-124221428D01*
X155871428Y-124278571D01*
X155842857Y-124307142D01*
X155785714Y-124335714D01*
X155557142Y-124335714D01*
X156242857Y-124278571D02*
X156185714Y-124250000D01*
X156157142Y-124221428D01*
X156128571Y-124164285D01*
X156128571Y-124135714D01*
X156157142Y-124078571D01*
X156185714Y-124050000D01*
X156242857Y-124021428D01*
X156357142Y-124021428D01*
X156414285Y-124050000D01*
X156442857Y-124078571D01*
X156471428Y-124135714D01*
X156471428Y-124164285D01*
X156442857Y-124221428D01*
X156414285Y-124250000D01*
X156357142Y-124278571D01*
X156242857Y-124278571D01*
X156185714Y-124307142D01*
X156157142Y-124335714D01*
X156128571Y-124392857D01*
X156128571Y-124507142D01*
X156157142Y-124564285D01*
X156185714Y-124592857D01*
X156242857Y-124621428D01*
X156357142Y-124621428D01*
X156414285Y-124592857D01*
X156442857Y-124564285D01*
X156471428Y-124507142D01*
X156471428Y-124392857D01*
X156442857Y-124335714D01*
X156414285Y-124307142D01*
X156357142Y-124278571D01*
X132300000Y-124933193D02*
X132100000Y-124647479D01*
X131957142Y-124933193D02*
X131957142Y-124333193D01*
X132185714Y-124333193D01*
X132242857Y-124361765D01*
X132271428Y-124390336D01*
X132300000Y-124447479D01*
X132300000Y-124533193D01*
X132271428Y-124590336D01*
X132242857Y-124618907D01*
X132185714Y-124647479D01*
X131957142Y-124647479D01*
X132500000Y-124333193D02*
X132900000Y-124333193D01*
X132642857Y-124933193D01*
X132300000Y-117121428D02*
X132100000Y-116835714D01*
X131957142Y-117121428D02*
X131957142Y-116521428D01*
X132185714Y-116521428D01*
X132242857Y-116550000D01*
X132271428Y-116578571D01*
X132300000Y-116635714D01*
X132300000Y-116721428D01*
X132271428Y-116778571D01*
X132242857Y-116807142D01*
X132185714Y-116835714D01*
X131957142Y-116835714D01*
X132814285Y-116521428D02*
X132700000Y-116521428D01*
X132642857Y-116550000D01*
X132614285Y-116578571D01*
X132557142Y-116664285D01*
X132528571Y-116778571D01*
X132528571Y-117007142D01*
X132557142Y-117064285D01*
X132585714Y-117092857D01*
X132642857Y-117121428D01*
X132757142Y-117121428D01*
X132814285Y-117092857D01*
X132842857Y-117064285D01*
X132871428Y-117007142D01*
X132871428Y-116864285D01*
X132842857Y-116807142D01*
X132814285Y-116778571D01*
X132757142Y-116750000D01*
X132642857Y-116750000D01*
X132585714Y-116778571D01*
X132557142Y-116807142D01*
X132528571Y-116864285D01*
X138500000Y-130541428D02*
X138300000Y-130255714D01*
X138157142Y-130541428D02*
X138157142Y-129941428D01*
X138385714Y-129941428D01*
X138442857Y-129970000D01*
X138471428Y-129998571D01*
X138500000Y-130055714D01*
X138500000Y-130141428D01*
X138471428Y-130198571D01*
X138442857Y-130227142D01*
X138385714Y-130255714D01*
X138157142Y-130255714D01*
X139042857Y-129941428D02*
X138757142Y-129941428D01*
X138728571Y-130227142D01*
X138757142Y-130198571D01*
X138814285Y-130170000D01*
X138957142Y-130170000D01*
X139014285Y-130198571D01*
X139042857Y-130227142D01*
X139071428Y-130284285D01*
X139071428Y-130427142D01*
X139042857Y-130484285D01*
X139014285Y-130512857D01*
X138957142Y-130541428D01*
X138814285Y-130541428D01*
X138757142Y-130512857D01*
X138728571Y-130484285D01*
X125950000Y-130271428D02*
X125664285Y-130271428D01*
X125664285Y-129671428D01*
X126121428Y-129728571D02*
X126150000Y-129700000D01*
X126207142Y-129671428D01*
X126350000Y-129671428D01*
X126407142Y-129700000D01*
X126435714Y-129728571D01*
X126464285Y-129785714D01*
X126464285Y-129842857D01*
X126435714Y-129928571D01*
X126092857Y-130271428D01*
X126464285Y-130271428D01*
X126025000Y-122571428D02*
X125739285Y-122571428D01*
X125739285Y-121971428D01*
X126539285Y-122571428D02*
X126196428Y-122571428D01*
X126367857Y-122571428D02*
X126367857Y-121971428D01*
X126310714Y-122057142D01*
X126253571Y-122114285D01*
X126196428Y-122142857D01*
X131757142Y-130471428D02*
X131757142Y-129871428D01*
X131900000Y-129871428D01*
X131985714Y-129900000D01*
X132042857Y-129957142D01*
X132071428Y-130014285D01*
X132100000Y-130128571D01*
X132100000Y-130214285D01*
X132071428Y-130328571D01*
X132042857Y-130385714D01*
X131985714Y-130442857D01*
X131900000Y-130471428D01*
X131757142Y-130471428D01*
X132300000Y-129871428D02*
X132671428Y-129871428D01*
X132471428Y-130100000D01*
X132557142Y-130100000D01*
X132614285Y-130128571D01*
X132642857Y-130157142D01*
X132671428Y-130214285D01*
X132671428Y-130357142D01*
X132642857Y-130414285D01*
X132614285Y-130442857D01*
X132557142Y-130471428D01*
X132385714Y-130471428D01*
X132328571Y-130442857D01*
X132300000Y-130414285D01*
X131707142Y-122621428D02*
X131707142Y-122021428D01*
X131850000Y-122021428D01*
X131935714Y-122050000D01*
X131992857Y-122107142D01*
X132021428Y-122164285D01*
X132050000Y-122278571D01*
X132050000Y-122364285D01*
X132021428Y-122478571D01*
X131992857Y-122535714D01*
X131935714Y-122592857D01*
X131850000Y-122621428D01*
X131707142Y-122621428D01*
X132278571Y-122078571D02*
X132307142Y-122050000D01*
X132364285Y-122021428D01*
X132507142Y-122021428D01*
X132564285Y-122050000D01*
X132592857Y-122078571D01*
X132621428Y-122135714D01*
X132621428Y-122192857D01*
X132592857Y-122278571D01*
X132250000Y-122621428D01*
X132621428Y-122621428D01*
X127426429Y-134490857D02*
X126826429Y-134490857D01*
X126826429Y-134348000D01*
X126855001Y-134262285D01*
X126912143Y-134205142D01*
X126969286Y-134176571D01*
X127083572Y-134148000D01*
X127169286Y-134148000D01*
X127283572Y-134176571D01*
X127340715Y-134205142D01*
X127397858Y-134262285D01*
X127426429Y-134348000D01*
X127426429Y-134490857D01*
X127426429Y-133576571D02*
X127426429Y-133919428D01*
X127426429Y-133748000D02*
X126826429Y-133748000D01*
X126912143Y-133805142D01*
X126969286Y-133862285D01*
X126997858Y-133919428D01*
X132100000Y-127414285D02*
X132071428Y-127442857D01*
X131985714Y-127471428D01*
X131928571Y-127471428D01*
X131842857Y-127442857D01*
X131785714Y-127385714D01*
X131757142Y-127328571D01*
X131728571Y-127214285D01*
X131728571Y-127128571D01*
X131757142Y-127014285D01*
X131785714Y-126957142D01*
X131842857Y-126900000D01*
X131928571Y-126871428D01*
X131985714Y-126871428D01*
X132071428Y-126900000D01*
X132100000Y-126928571D01*
X132300000Y-126871428D02*
X132700000Y-126871428D01*
X132442857Y-127471428D01*
X124650000Y-122964285D02*
X124621428Y-122992857D01*
X124535714Y-123021428D01*
X124478571Y-123021428D01*
X124392857Y-122992857D01*
X124335714Y-122935714D01*
X124307142Y-122878571D01*
X124278571Y-122764285D01*
X124278571Y-122678571D01*
X124307142Y-122564285D01*
X124335714Y-122507142D01*
X124392857Y-122450000D01*
X124478571Y-122421428D01*
X124535714Y-122421428D01*
X124621428Y-122450000D01*
X124650000Y-122478571D01*
X125164285Y-122421428D02*
X125050000Y-122421428D01*
X124992857Y-122450000D01*
X124964285Y-122478571D01*
X124907142Y-122564285D01*
X124878571Y-122678571D01*
X124878571Y-122907142D01*
X124907142Y-122964285D01*
X124935714Y-122992857D01*
X124992857Y-123021428D01*
X125107142Y-123021428D01*
X125164285Y-122992857D01*
X125192857Y-122964285D01*
X125221428Y-122907142D01*
X125221428Y-122764285D01*
X125192857Y-122707142D01*
X125164285Y-122678571D01*
X125107142Y-122650000D01*
X124992857Y-122650000D01*
X124935714Y-122678571D01*
X124907142Y-122707142D01*
X124878571Y-122764285D01*
X132100000Y-119564285D02*
X132071428Y-119592857D01*
X131985714Y-119621428D01*
X131928571Y-119621428D01*
X131842857Y-119592857D01*
X131785714Y-119535714D01*
X131757142Y-119478571D01*
X131728571Y-119364285D01*
X131728571Y-119278571D01*
X131757142Y-119164285D01*
X131785714Y-119107142D01*
X131842857Y-119050000D01*
X131928571Y-119021428D01*
X131985714Y-119021428D01*
X132071428Y-119050000D01*
X132100000Y-119078571D01*
X132642857Y-119021428D02*
X132357142Y-119021428D01*
X132328571Y-119307142D01*
X132357142Y-119278571D01*
X132414285Y-119250000D01*
X132557142Y-119250000D01*
X132614285Y-119278571D01*
X132642857Y-119307142D01*
X132671428Y-119364285D01*
X132671428Y-119507142D01*
X132642857Y-119564285D01*
X132614285Y-119592857D01*
X132557142Y-119621428D01*
X132414285Y-119621428D01*
X132357142Y-119592857D01*
X132328571Y-119564285D01*
X124450000Y-116714285D02*
X124421428Y-116742857D01*
X124335714Y-116771428D01*
X124278571Y-116771428D01*
X124192857Y-116742857D01*
X124135714Y-116685714D01*
X124107142Y-116628571D01*
X124078571Y-116514285D01*
X124078571Y-116428571D01*
X124107142Y-116314285D01*
X124135714Y-116257142D01*
X124192857Y-116200000D01*
X124278571Y-116171428D01*
X124335714Y-116171428D01*
X124421428Y-116200000D01*
X124450000Y-116228571D01*
X124964285Y-116371428D02*
X124964285Y-116771428D01*
X124821428Y-116142857D02*
X124678571Y-116571428D01*
X125050000Y-116571428D01*
X135112500Y-139664285D02*
X135083928Y-139692857D01*
X134998214Y-139721428D01*
X134941071Y-139721428D01*
X134855357Y-139692857D01*
X134798214Y-139635714D01*
X134769642Y-139578571D01*
X134741071Y-139464285D01*
X134741071Y-139378571D01*
X134769642Y-139264285D01*
X134798214Y-139207142D01*
X134855357Y-139150000D01*
X134941071Y-139121428D01*
X134998214Y-139121428D01*
X135083928Y-139150000D01*
X135112500Y-139178571D01*
X135312500Y-139121428D02*
X135683928Y-139121428D01*
X135483928Y-139350000D01*
X135569642Y-139350000D01*
X135626785Y-139378571D01*
X135655357Y-139407142D01*
X135683928Y-139464285D01*
X135683928Y-139607142D01*
X135655357Y-139664285D01*
X135626785Y-139692857D01*
X135569642Y-139721428D01*
X135398214Y-139721428D01*
X135341071Y-139692857D01*
X135312500Y-139664285D01*
X138350000Y-134464285D02*
X138321428Y-134492857D01*
X138235714Y-134521428D01*
X138178571Y-134521428D01*
X138092857Y-134492857D01*
X138035714Y-134435714D01*
X138007142Y-134378571D01*
X137978571Y-134264285D01*
X137978571Y-134178571D01*
X138007142Y-134064285D01*
X138035714Y-134007142D01*
X138092857Y-133950000D01*
X138178571Y-133921428D01*
X138235714Y-133921428D01*
X138321428Y-133950000D01*
X138350000Y-133978571D01*
X138578571Y-133978571D02*
X138607142Y-133950000D01*
X138664285Y-133921428D01*
X138807142Y-133921428D01*
X138864285Y-133950000D01*
X138892857Y-133978571D01*
X138921428Y-134035714D01*
X138921428Y-134092857D01*
X138892857Y-134178571D01*
X138550000Y-134521428D01*
X138921428Y-134521428D01*
X124987501Y-132819285D02*
X124958929Y-132847857D01*
X124873215Y-132876428D01*
X124816072Y-132876428D01*
X124730358Y-132847857D01*
X124673215Y-132790714D01*
X124644643Y-132733571D01*
X124616072Y-132619285D01*
X124616072Y-132533571D01*
X124644643Y-132419285D01*
X124673215Y-132362142D01*
X124730358Y-132305000D01*
X124816072Y-132276428D01*
X124873215Y-132276428D01*
X124958929Y-132305000D01*
X124987501Y-132333571D01*
X125558929Y-132876428D02*
X125216072Y-132876428D01*
X125387501Y-132876428D02*
X125387501Y-132276428D01*
X125330358Y-132362142D01*
X125273215Y-132419285D01*
X125216072Y-132447857D01*
X138900000Y-138521428D02*
X138700000Y-138235714D01*
X138557142Y-138521428D02*
X138557142Y-137921428D01*
X138785714Y-137921428D01*
X138842857Y-137950000D01*
X138871428Y-137978571D01*
X138900000Y-138035714D01*
X138900000Y-138121428D01*
X138871428Y-138178571D01*
X138842857Y-138207142D01*
X138785714Y-138235714D01*
X138557142Y-138235714D01*
X139414285Y-138121428D02*
X139414285Y-138521428D01*
X139271428Y-137892857D02*
X139128571Y-138321428D01*
X139500000Y-138321428D01*
X138400000Y-142021428D02*
X138200000Y-141735714D01*
X138057142Y-142021428D02*
X138057142Y-141421428D01*
X138285714Y-141421428D01*
X138342857Y-141450000D01*
X138371428Y-141478571D01*
X138400000Y-141535714D01*
X138400000Y-141621428D01*
X138371428Y-141678571D01*
X138342857Y-141707142D01*
X138285714Y-141735714D01*
X138057142Y-141735714D01*
X138600000Y-141421428D02*
X138971428Y-141421428D01*
X138771428Y-141650000D01*
X138857142Y-141650000D01*
X138914285Y-141678571D01*
X138942857Y-141707142D01*
X138971428Y-141764285D01*
X138971428Y-141907142D01*
X138942857Y-141964285D01*
X138914285Y-141992857D01*
X138857142Y-142021428D01*
X138685714Y-142021428D01*
X138628571Y-141992857D01*
X138600000Y-141964285D01*
X137250000Y-142571428D02*
X137050000Y-142285714D01*
X136907142Y-142571428D02*
X136907142Y-141971428D01*
X137135714Y-141971428D01*
X137192857Y-142000000D01*
X137221428Y-142028571D01*
X137250000Y-142085714D01*
X137250000Y-142171428D01*
X137221428Y-142228571D01*
X137192857Y-142257142D01*
X137135714Y-142285714D01*
X136907142Y-142285714D01*
X137478571Y-142028571D02*
X137507142Y-142000000D01*
X137564285Y-141971428D01*
X137707142Y-141971428D01*
X137764285Y-142000000D01*
X137792857Y-142028571D01*
X137821428Y-142085714D01*
X137821428Y-142142857D01*
X137792857Y-142228571D01*
X137450000Y-142571428D01*
X137821428Y-142571428D01*
X137250000Y-144071428D02*
X137050000Y-143785714D01*
X136907142Y-144071428D02*
X136907142Y-143471428D01*
X137135714Y-143471428D01*
X137192857Y-143500000D01*
X137221428Y-143528571D01*
X137250000Y-143585714D01*
X137250000Y-143671428D01*
X137221428Y-143728571D01*
X137192857Y-143757142D01*
X137135714Y-143785714D01*
X136907142Y-143785714D01*
X137821428Y-144071428D02*
X137478571Y-144071428D01*
X137650000Y-144071428D02*
X137650000Y-143471428D01*
X137592857Y-143557142D01*
X137535714Y-143614285D01*
X137478571Y-143642857D01*
M02*
