G04 #@! TF.GenerationSoftware,KiCad,Pcbnew,5.1.4+dfsg1-1*
G04 #@! TF.CreationDate,2019-12-22T00:56:44+01:00*
G04 #@! TF.ProjectId,OtterScreen,4f747465-7253-4637-9265-656e2e6b6963,rev?*
G04 #@! TF.SameCoordinates,Original*
G04 #@! TF.FileFunction,Copper,L2,Bot*
G04 #@! TF.FilePolarity,Positive*
%FSLAX46Y46*%
G04 Gerber Fmt 4.6, Leading zero omitted, Abs format (unit mm)*
G04 Created by KiCad (PCBNEW 5.1.4+dfsg1-1) date 2019-12-22 00:56:44*
%MOMM*%
%LPD*%
G04 APERTURE LIST*
%ADD10C,0.150000*%
%ADD11O,1.400000X2.800000*%
%ADD12O,1.200000X2.400000*%
%ADD13O,1.000000X1.800000*%
%ADD14C,0.600000*%
%ADD15C,0.154000*%
%ADD16C,0.300000*%
%ADD17C,0.254000*%
%ADD18C,0.200000*%
G04 APERTURE END LIST*
D10*
X164099999Y-114200001D02*
G75*
G02X165800000Y-115900000I1J-1700000D01*
G01*
X121000001Y-115900001D02*
G75*
G02X122700000Y-114200000I1700000J1D01*
G01*
X122700001Y-145599999D02*
G75*
G02X121000000Y-143900000I-1J1700000D01*
G01*
X165800000Y-143900000D02*
G75*
G02X164100000Y-145600000I-1700000J0D01*
G01*
X164100000Y-145600000D02*
X136200000Y-145600000D01*
X165800000Y-115900000D02*
X165800000Y-143900000D01*
X122700000Y-114200000D02*
X164099999Y-114200001D01*
X121000000Y-143900000D02*
X121000001Y-115900001D01*
X136200000Y-145600000D02*
X122700001Y-145599999D01*
D11*
X124450000Y-134690000D03*
D12*
X124450000Y-141470000D03*
D11*
X140950000Y-134690000D03*
D12*
X140950000Y-141470000D03*
D13*
X152270000Y-140150000D03*
X160730000Y-140150000D03*
X152270000Y-143950000D03*
X160730000Y-143950000D03*
D14*
X125800000Y-126350000D03*
X126600000Y-126350000D03*
X127400000Y-126350000D03*
X143020000Y-124200000D03*
X142070000Y-124200000D03*
X151020000Y-117660000D03*
X151000000Y-118540000D03*
X137800000Y-143400000D03*
X139280000Y-131370000D03*
X136880000Y-133870000D03*
X134720000Y-133840000D03*
X143420000Y-136890000D03*
X143640000Y-134430000D03*
X146480000Y-139310000D03*
X148770000Y-136970000D03*
X148790000Y-139380000D03*
X147050000Y-141370000D03*
X144450000Y-142310000D03*
X154600000Y-135940000D03*
X155560000Y-127670000D03*
X149780000Y-126220000D03*
X145650000Y-126410000D03*
X145510000Y-130130000D03*
X139150000Y-128060000D03*
X137950000Y-125070000D03*
X137950000Y-122630000D03*
X137950000Y-120590000D03*
X138190000Y-127660000D03*
X140330000Y-117860000D03*
X142410000Y-117810000D03*
X144890000Y-117800000D03*
X138140000Y-117760000D03*
X133700000Y-117740000D03*
X130120000Y-117720000D03*
X131740000Y-118200000D03*
X130000000Y-115040000D03*
X133430000Y-114980000D03*
X136990000Y-115070000D03*
X139050000Y-114980000D03*
X126070000Y-123780000D03*
X128990000Y-122980000D03*
X127500000Y-123760000D03*
X122170000Y-123400000D03*
X124200000Y-122040000D03*
X126070000Y-127960000D03*
X128460000Y-128710000D03*
X127460000Y-131860000D03*
X127860000Y-133310000D03*
X124180000Y-132240000D03*
X127920000Y-136260000D03*
X125690000Y-138150000D03*
X126240000Y-140610000D03*
X129870000Y-137770000D03*
X132740000Y-136510000D03*
X136670000Y-136490000D03*
X139270000Y-135950000D03*
X140380000Y-137860000D03*
X149230000Y-143720000D03*
X163500000Y-140490000D03*
X163600000Y-144170000D03*
X155210000Y-137480000D03*
X153710000Y-138740000D03*
X159180000Y-138490000D03*
X158130000Y-126080000D03*
X158130000Y-130240000D03*
X158130000Y-134390000D03*
X159450000Y-122220000D03*
X155880000Y-122920000D03*
X152630000Y-123020000D03*
X149430000Y-123620000D03*
X146400000Y-123640000D03*
X145710000Y-119920000D03*
X147100000Y-114960000D03*
X153250000Y-115030000D03*
X156080000Y-115070000D03*
X158420000Y-116290000D03*
X154830000Y-121130000D03*
X147600000Y-119720000D03*
X147550000Y-118510000D03*
X141470000Y-120840000D03*
X122450000Y-122050000D03*
X125800000Y-125600000D03*
X126600000Y-125600000D03*
X127400000Y-125600000D03*
X130200000Y-128800000D03*
X130200000Y-120200000D03*
X132330000Y-133930000D03*
X130280000Y-135960000D03*
X131530000Y-133880000D03*
X129470000Y-135930000D03*
X144800000Y-140000000D03*
X144800000Y-138400000D03*
X147000000Y-138400008D03*
X137128990Y-128620000D03*
X137404010Y-126950000D03*
X133040000Y-129250000D03*
X133663219Y-130163494D03*
X134913468Y-130173379D03*
X134200000Y-129360000D03*
X135820000Y-130130000D03*
X136221010Y-128860001D03*
X132530000Y-120690000D03*
X132530000Y-117970000D03*
X143800000Y-120100000D03*
X143200000Y-120100000D03*
X139100000Y-121600000D03*
X139100000Y-122200000D03*
X142690000Y-133110000D03*
X142660000Y-130980000D03*
X151030000Y-126130000D03*
X151030000Y-124030000D03*
D15*
X130200000Y-128800000D02*
X130200000Y-120200000D01*
X132330000Y-133930000D02*
X130300000Y-135960000D01*
X130300000Y-135960000D02*
X130280000Y-135960000D01*
X131530000Y-133880000D02*
X129480000Y-135930000D01*
X129480000Y-135930000D02*
X129470000Y-135930000D01*
D16*
X144800000Y-140000000D02*
X144800000Y-138400000D01*
X146999992Y-138400000D02*
X147000000Y-138400008D01*
X144800000Y-138400000D02*
X146999992Y-138400000D01*
D15*
X137128990Y-128620000D02*
X137128990Y-127225020D01*
X137128990Y-127225020D02*
X137404010Y-126950000D01*
X133663219Y-129873219D02*
X133663219Y-130163494D01*
X133040000Y-129250000D02*
X133663219Y-129873219D01*
X134200000Y-129459911D02*
X134200000Y-129360000D01*
X134913468Y-130173379D02*
X134200000Y-129459911D01*
X135820000Y-129261011D02*
X135921011Y-129160000D01*
X135820000Y-130130000D02*
X135820000Y-129261011D01*
X135921011Y-129160000D02*
X136221010Y-128860001D01*
X132530000Y-120690000D02*
X132530000Y-117970000D01*
D16*
X143200000Y-120100000D02*
X140300000Y-120100000D01*
X140300000Y-120100000D02*
X139100000Y-121300000D01*
X139100000Y-121300000D02*
X139100000Y-121600000D01*
D15*
X142690000Y-133110000D02*
X142690000Y-131010000D01*
X142690000Y-131010000D02*
X142660000Y-130980000D01*
X151030000Y-126130000D02*
X151030000Y-124030000D01*
D17*
G36*
X122910197Y-125089803D02*
G01*
X122929443Y-125105597D01*
X122951399Y-125117333D01*
X122975224Y-125124560D01*
X123000000Y-125127000D01*
X128073000Y-125127000D01*
X128073000Y-126873000D01*
X123000000Y-126873000D01*
X122975224Y-126875440D01*
X122951399Y-126882667D01*
X122929443Y-126894403D01*
X122910197Y-126910197D01*
X122894403Y-126929443D01*
X122882667Y-126951399D01*
X122875440Y-126975224D01*
X122873004Y-126998992D01*
X122824004Y-133173000D01*
X121727000Y-133173000D01*
X121727000Y-123906606D01*
X122910197Y-125089803D01*
X122910197Y-125089803D01*
G37*
X122910197Y-125089803D02*
X122929443Y-125105597D01*
X122951399Y-125117333D01*
X122975224Y-125124560D01*
X123000000Y-125127000D01*
X128073000Y-125127000D01*
X128073000Y-126873000D01*
X123000000Y-126873000D01*
X122975224Y-126875440D01*
X122951399Y-126882667D01*
X122929443Y-126894403D01*
X122910197Y-126910197D01*
X122894403Y-126929443D01*
X122882667Y-126951399D01*
X122875440Y-126975224D01*
X122873004Y-126998992D01*
X122824004Y-133173000D01*
X121727000Y-133173000D01*
X121727000Y-123906606D01*
X122910197Y-125089803D01*
D18*
G36*
X164081662Y-114575001D02*
G01*
X164357009Y-114601999D01*
X164604234Y-114676640D01*
X164832251Y-114797879D01*
X165032373Y-114961095D01*
X165196984Y-115160077D01*
X165319812Y-115387242D01*
X165396175Y-115633931D01*
X165425000Y-115908179D01*
X165425001Y-143881653D01*
X165398002Y-144157008D01*
X165323360Y-144404235D01*
X165202125Y-144632246D01*
X165038904Y-144832374D01*
X164839927Y-144996982D01*
X164612759Y-145119811D01*
X164366068Y-145196175D01*
X164091821Y-145225000D01*
X136181581Y-145225000D01*
X136181571Y-145225001D01*
X122718338Y-145224999D01*
X122442991Y-145198001D01*
X122195767Y-145123360D01*
X121967755Y-145002125D01*
X121767627Y-144838904D01*
X121603017Y-144639925D01*
X121480189Y-144412761D01*
X121403825Y-144166068D01*
X121396881Y-144100000D01*
X151470000Y-144100000D01*
X151470000Y-144500000D01*
X151514635Y-144653190D01*
X151588299Y-144794729D01*
X151688160Y-144919177D01*
X151810381Y-145021752D01*
X151950265Y-145098512D01*
X151998919Y-145102672D01*
X152120000Y-145059313D01*
X152120000Y-144100000D01*
X152420000Y-144100000D01*
X152420000Y-145059313D01*
X152541081Y-145102672D01*
X152589735Y-145098512D01*
X152729619Y-145021752D01*
X152851840Y-144919177D01*
X152951701Y-144794729D01*
X153025365Y-144653190D01*
X153070000Y-144500000D01*
X153070000Y-144100000D01*
X159930000Y-144100000D01*
X159930000Y-144500000D01*
X159974635Y-144653190D01*
X160048299Y-144794729D01*
X160148160Y-144919177D01*
X160270381Y-145021752D01*
X160410265Y-145098512D01*
X160458919Y-145102672D01*
X160580000Y-145059313D01*
X160580000Y-144100000D01*
X160880000Y-144100000D01*
X160880000Y-145059313D01*
X161001081Y-145102672D01*
X161049735Y-145098512D01*
X161189619Y-145021752D01*
X161311840Y-144919177D01*
X161411701Y-144794729D01*
X161485365Y-144653190D01*
X161530000Y-144500000D01*
X161530000Y-144100000D01*
X160880000Y-144100000D01*
X160580000Y-144100000D01*
X159930000Y-144100000D01*
X153070000Y-144100000D01*
X152420000Y-144100000D01*
X152120000Y-144100000D01*
X151470000Y-144100000D01*
X121396881Y-144100000D01*
X121374999Y-143891812D01*
X121374999Y-143400000D01*
X151470000Y-143400000D01*
X151470000Y-143800000D01*
X152120000Y-143800000D01*
X152120000Y-142840687D01*
X152420000Y-142840687D01*
X152420000Y-143800000D01*
X153070000Y-143800000D01*
X153070000Y-143400000D01*
X159930000Y-143400000D01*
X159930000Y-143800000D01*
X160580000Y-143800000D01*
X160580000Y-142840687D01*
X160880000Y-142840687D01*
X160880000Y-143800000D01*
X161530000Y-143800000D01*
X161530000Y-143400000D01*
X161485365Y-143246810D01*
X161411701Y-143105271D01*
X161311840Y-142980823D01*
X161189619Y-142878248D01*
X161049735Y-142801488D01*
X161001081Y-142797328D01*
X160880000Y-142840687D01*
X160580000Y-142840687D01*
X160458919Y-142797328D01*
X160410265Y-142801488D01*
X160270381Y-142878248D01*
X160148160Y-142980823D01*
X160048299Y-143105271D01*
X159974635Y-143246810D01*
X159930000Y-143400000D01*
X153070000Y-143400000D01*
X153025365Y-143246810D01*
X152951701Y-143105271D01*
X152851840Y-142980823D01*
X152729619Y-142878248D01*
X152589735Y-142801488D01*
X152541081Y-142797328D01*
X152420000Y-142840687D01*
X152120000Y-142840687D01*
X151998919Y-142797328D01*
X151950265Y-142801488D01*
X151810381Y-142878248D01*
X151688160Y-142980823D01*
X151588299Y-143105271D01*
X151514635Y-143246810D01*
X151470000Y-143400000D01*
X121374999Y-143400000D01*
X121374999Y-141620000D01*
X123550000Y-141620000D01*
X123550000Y-142220000D01*
X123596557Y-142392699D01*
X123675911Y-142552997D01*
X123785013Y-142694734D01*
X123919670Y-142812462D01*
X124074707Y-142901658D01*
X124163025Y-142923021D01*
X124300000Y-142881249D01*
X124300000Y-141620000D01*
X124600000Y-141620000D01*
X124600000Y-142881249D01*
X124736975Y-142923021D01*
X124825293Y-142901658D01*
X124980330Y-142812462D01*
X125114987Y-142694734D01*
X125224089Y-142552997D01*
X125303443Y-142392699D01*
X125336113Y-142271509D01*
X131700000Y-142271509D01*
X131700000Y-142468491D01*
X131738429Y-142661689D01*
X131813811Y-142843678D01*
X131923249Y-143007463D01*
X132062537Y-143146751D01*
X132226322Y-143256189D01*
X132408311Y-143331571D01*
X132601509Y-143370000D01*
X132798491Y-143370000D01*
X132991689Y-143331571D01*
X133173678Y-143256189D01*
X133337463Y-143146751D01*
X133476751Y-143007463D01*
X133586189Y-142843678D01*
X133661571Y-142661689D01*
X133700000Y-142468491D01*
X133700000Y-142271509D01*
X133661571Y-142078311D01*
X133586189Y-141896322D01*
X133476751Y-141732537D01*
X133364214Y-141620000D01*
X140050000Y-141620000D01*
X140050000Y-142220000D01*
X140096557Y-142392699D01*
X140175911Y-142552997D01*
X140285013Y-142694734D01*
X140419670Y-142812462D01*
X140574707Y-142901658D01*
X140663025Y-142923021D01*
X140800000Y-142881249D01*
X140800000Y-141620000D01*
X141100000Y-141620000D01*
X141100000Y-142881249D01*
X141236975Y-142923021D01*
X141325293Y-142901658D01*
X141480330Y-142812462D01*
X141614987Y-142694734D01*
X141724089Y-142552997D01*
X141803443Y-142392699D01*
X141850000Y-142220000D01*
X141850000Y-141620000D01*
X141100000Y-141620000D01*
X140800000Y-141620000D01*
X140050000Y-141620000D01*
X133364214Y-141620000D01*
X133337463Y-141593249D01*
X133173678Y-141483811D01*
X132991689Y-141408429D01*
X132798491Y-141370000D01*
X132601509Y-141370000D01*
X132408311Y-141408429D01*
X132226322Y-141483811D01*
X132062537Y-141593249D01*
X131923249Y-141732537D01*
X131813811Y-141896322D01*
X131738429Y-142078311D01*
X131700000Y-142271509D01*
X125336113Y-142271509D01*
X125350000Y-142220000D01*
X125350000Y-141620000D01*
X124600000Y-141620000D01*
X124300000Y-141620000D01*
X123550000Y-141620000D01*
X121374999Y-141620000D01*
X121374999Y-140720000D01*
X123550000Y-140720000D01*
X123550000Y-141320000D01*
X124300000Y-141320000D01*
X124300000Y-140058751D01*
X124600000Y-140058751D01*
X124600000Y-141320000D01*
X125350000Y-141320000D01*
X125350000Y-140720000D01*
X140050000Y-140720000D01*
X140050000Y-141320000D01*
X140800000Y-141320000D01*
X140800000Y-140058751D01*
X141100000Y-140058751D01*
X141100000Y-141320000D01*
X141850000Y-141320000D01*
X141850000Y-140720000D01*
X141803443Y-140547301D01*
X141724089Y-140387003D01*
X141614987Y-140245266D01*
X141480330Y-140127538D01*
X141325293Y-140038342D01*
X141236975Y-140016979D01*
X141100000Y-140058751D01*
X140800000Y-140058751D01*
X140663025Y-140016979D01*
X140574707Y-140038342D01*
X140419670Y-140127538D01*
X140285013Y-140245266D01*
X140175911Y-140387003D01*
X140096557Y-140547301D01*
X140050000Y-140720000D01*
X125350000Y-140720000D01*
X125303443Y-140547301D01*
X125224089Y-140387003D01*
X125114987Y-140245266D01*
X124980330Y-140127538D01*
X124825293Y-140038342D01*
X124736975Y-140016979D01*
X124600000Y-140058751D01*
X124300000Y-140058751D01*
X124163025Y-140016979D01*
X124074707Y-140038342D01*
X123919670Y-140127538D01*
X123785013Y-140245266D01*
X123675911Y-140387003D01*
X123596557Y-140547301D01*
X123550000Y-140720000D01*
X121374999Y-140720000D01*
X121374999Y-138340905D01*
X144200000Y-138340905D01*
X144200000Y-138459095D01*
X144223058Y-138575014D01*
X144268287Y-138684207D01*
X144333950Y-138782478D01*
X144350001Y-138798529D01*
X144350000Y-139601472D01*
X144333950Y-139617522D01*
X144268287Y-139715793D01*
X144223058Y-139824986D01*
X144200000Y-139940905D01*
X144200000Y-140059095D01*
X144223058Y-140175014D01*
X144268287Y-140284207D01*
X144333950Y-140382478D01*
X144417522Y-140466050D01*
X144515793Y-140531713D01*
X144624986Y-140576942D01*
X144740905Y-140600000D01*
X144859095Y-140600000D01*
X144975014Y-140576942D01*
X145084207Y-140531713D01*
X145182478Y-140466050D01*
X145266050Y-140382478D01*
X145321160Y-140300000D01*
X151470000Y-140300000D01*
X151470000Y-140700000D01*
X151514635Y-140853190D01*
X151588299Y-140994729D01*
X151688160Y-141119177D01*
X151810381Y-141221752D01*
X151950265Y-141298512D01*
X151998919Y-141302672D01*
X152120000Y-141259313D01*
X152120000Y-140300000D01*
X152420000Y-140300000D01*
X152420000Y-141259313D01*
X152541081Y-141302672D01*
X152589735Y-141298512D01*
X152729619Y-141221752D01*
X152851840Y-141119177D01*
X152951701Y-140994729D01*
X153025365Y-140853190D01*
X153070000Y-140700000D01*
X153070000Y-140300000D01*
X159930000Y-140300000D01*
X159930000Y-140700000D01*
X159974635Y-140853190D01*
X160048299Y-140994729D01*
X160148160Y-141119177D01*
X160270381Y-141221752D01*
X160410265Y-141298512D01*
X160458919Y-141302672D01*
X160580000Y-141259313D01*
X160580000Y-140300000D01*
X160880000Y-140300000D01*
X160880000Y-141259313D01*
X161001081Y-141302672D01*
X161049735Y-141298512D01*
X161189619Y-141221752D01*
X161311840Y-141119177D01*
X161411701Y-140994729D01*
X161485365Y-140853190D01*
X161530000Y-140700000D01*
X161530000Y-140300000D01*
X160880000Y-140300000D01*
X160580000Y-140300000D01*
X159930000Y-140300000D01*
X153070000Y-140300000D01*
X152420000Y-140300000D01*
X152120000Y-140300000D01*
X151470000Y-140300000D01*
X145321160Y-140300000D01*
X145331713Y-140284207D01*
X145376942Y-140175014D01*
X145400000Y-140059095D01*
X145400000Y-139940905D01*
X145376942Y-139824986D01*
X145331713Y-139715793D01*
X145266050Y-139617522D01*
X145250000Y-139601472D01*
X145250000Y-139600000D01*
X151470000Y-139600000D01*
X151470000Y-140000000D01*
X152120000Y-140000000D01*
X152120000Y-139040687D01*
X152420000Y-139040687D01*
X152420000Y-140000000D01*
X153070000Y-140000000D01*
X153070000Y-139600000D01*
X159930000Y-139600000D01*
X159930000Y-140000000D01*
X160580000Y-140000000D01*
X160580000Y-139040687D01*
X160880000Y-139040687D01*
X160880000Y-140000000D01*
X161530000Y-140000000D01*
X161530000Y-139600000D01*
X161485365Y-139446810D01*
X161411701Y-139305271D01*
X161311840Y-139180823D01*
X161189619Y-139078248D01*
X161049735Y-139001488D01*
X161001081Y-138997328D01*
X160880000Y-139040687D01*
X160580000Y-139040687D01*
X160458919Y-138997328D01*
X160410265Y-139001488D01*
X160270381Y-139078248D01*
X160148160Y-139180823D01*
X160048299Y-139305271D01*
X159974635Y-139446810D01*
X159930000Y-139600000D01*
X153070000Y-139600000D01*
X153025365Y-139446810D01*
X152951701Y-139305271D01*
X152851840Y-139180823D01*
X152729619Y-139078248D01*
X152589735Y-139001488D01*
X152541081Y-138997328D01*
X152420000Y-139040687D01*
X152120000Y-139040687D01*
X151998919Y-138997328D01*
X151950265Y-139001488D01*
X151810381Y-139078248D01*
X151688160Y-139180823D01*
X151588299Y-139305271D01*
X151514635Y-139446810D01*
X151470000Y-139600000D01*
X145250000Y-139600000D01*
X145250000Y-138850000D01*
X146601464Y-138850000D01*
X146617522Y-138866058D01*
X146715793Y-138931721D01*
X146824986Y-138976950D01*
X146940905Y-139000008D01*
X147059095Y-139000008D01*
X147175014Y-138976950D01*
X147284207Y-138931721D01*
X147382478Y-138866058D01*
X147466050Y-138782486D01*
X147531713Y-138684215D01*
X147576942Y-138575022D01*
X147600000Y-138459103D01*
X147600000Y-138340913D01*
X147576942Y-138224994D01*
X147531713Y-138115801D01*
X147466050Y-138017530D01*
X147382478Y-137933958D01*
X147284207Y-137868295D01*
X147175014Y-137823066D01*
X147059095Y-137800008D01*
X146940905Y-137800008D01*
X146824986Y-137823066D01*
X146715793Y-137868295D01*
X146617522Y-137933958D01*
X146601480Y-137950000D01*
X145198528Y-137950000D01*
X145182478Y-137933950D01*
X145084207Y-137868287D01*
X144975014Y-137823058D01*
X144859095Y-137800000D01*
X144740905Y-137800000D01*
X144624986Y-137823058D01*
X144515793Y-137868287D01*
X144417522Y-137933950D01*
X144333950Y-138017522D01*
X144268287Y-138115793D01*
X144223058Y-138224986D01*
X144200000Y-138340905D01*
X121374999Y-138340905D01*
X121374999Y-134840000D01*
X123450000Y-134840000D01*
X123450000Y-135540000D01*
X123498478Y-135732208D01*
X123583523Y-135911265D01*
X123701866Y-136070290D01*
X123848959Y-136203172D01*
X124019150Y-136304804D01*
X124147182Y-136343048D01*
X124300000Y-136302757D01*
X124300000Y-134840000D01*
X124600000Y-134840000D01*
X124600000Y-136302757D01*
X124752818Y-136343048D01*
X124880850Y-136304804D01*
X125051041Y-136203172D01*
X125198134Y-136070290D01*
X125316477Y-135911265D01*
X125335646Y-135870905D01*
X128870000Y-135870905D01*
X128870000Y-135989095D01*
X128893058Y-136105014D01*
X128938287Y-136214207D01*
X129003950Y-136312478D01*
X129087522Y-136396050D01*
X129185793Y-136461713D01*
X129294986Y-136506942D01*
X129410905Y-136530000D01*
X129529095Y-136530000D01*
X129645014Y-136506942D01*
X129754207Y-136461713D01*
X129852478Y-136396050D01*
X129860000Y-136388528D01*
X129897522Y-136426050D01*
X129995793Y-136491713D01*
X130104986Y-136536942D01*
X130220905Y-136560000D01*
X130339095Y-136560000D01*
X130455014Y-136536942D01*
X130564207Y-136491713D01*
X130654760Y-136431207D01*
X160830000Y-136431207D01*
X160830000Y-136588793D01*
X160860743Y-136743351D01*
X160921049Y-136888942D01*
X161008599Y-137019970D01*
X161120030Y-137131401D01*
X161251058Y-137218951D01*
X161396649Y-137279257D01*
X161551207Y-137310000D01*
X161708793Y-137310000D01*
X161863351Y-137279257D01*
X162008942Y-137218951D01*
X162139970Y-137131401D01*
X162251401Y-137019970D01*
X162338951Y-136888942D01*
X162399257Y-136743351D01*
X162430000Y-136588793D01*
X162430000Y-136431207D01*
X162399257Y-136276649D01*
X162338951Y-136131058D01*
X162251401Y-136000030D01*
X162139970Y-135888599D01*
X162008942Y-135801049D01*
X161863351Y-135740743D01*
X161708793Y-135710000D01*
X161551207Y-135710000D01*
X161396649Y-135740743D01*
X161251058Y-135801049D01*
X161120030Y-135888599D01*
X161008599Y-136000030D01*
X160921049Y-136131058D01*
X160860743Y-136276649D01*
X160830000Y-136431207D01*
X130654760Y-136431207D01*
X130662478Y-136426050D01*
X130746050Y-136342478D01*
X130811713Y-136244207D01*
X130856942Y-136135014D01*
X130880000Y-136019095D01*
X130880000Y-135913158D01*
X131953158Y-134840000D01*
X139950000Y-134840000D01*
X139950000Y-135540000D01*
X139998478Y-135732208D01*
X140083523Y-135911265D01*
X140201866Y-136070290D01*
X140348959Y-136203172D01*
X140519150Y-136304804D01*
X140647182Y-136343048D01*
X140800000Y-136302757D01*
X140800000Y-134840000D01*
X141100000Y-134840000D01*
X141100000Y-136302757D01*
X141252818Y-136343048D01*
X141380850Y-136304804D01*
X141551041Y-136203172D01*
X141698134Y-136070290D01*
X141816477Y-135911265D01*
X141901522Y-135732208D01*
X141950000Y-135540000D01*
X141950000Y-134840000D01*
X141100000Y-134840000D01*
X140800000Y-134840000D01*
X139950000Y-134840000D01*
X131953158Y-134840000D01*
X132264444Y-134528715D01*
X132270905Y-134530000D01*
X132389095Y-134530000D01*
X132505014Y-134506942D01*
X132614207Y-134461713D01*
X132712478Y-134396050D01*
X132796050Y-134312478D01*
X132861713Y-134214207D01*
X132906942Y-134105014D01*
X132930000Y-133989095D01*
X132930000Y-133870905D01*
X132923853Y-133840000D01*
X139950000Y-133840000D01*
X139950000Y-134540000D01*
X140800000Y-134540000D01*
X140800000Y-133077243D01*
X141100000Y-133077243D01*
X141100000Y-134540000D01*
X141950000Y-134540000D01*
X141950000Y-133840000D01*
X141901522Y-133647792D01*
X141816477Y-133468735D01*
X141698134Y-133309710D01*
X141551041Y-133176828D01*
X141380850Y-133075196D01*
X141252818Y-133036952D01*
X141100000Y-133077243D01*
X140800000Y-133077243D01*
X140647182Y-133036952D01*
X140519150Y-133075196D01*
X140348959Y-133176828D01*
X140201866Y-133309710D01*
X140083523Y-133468735D01*
X139998478Y-133647792D01*
X139950000Y-133840000D01*
X132923853Y-133840000D01*
X132906942Y-133754986D01*
X132861713Y-133645793D01*
X132796050Y-133547522D01*
X132712478Y-133463950D01*
X132614207Y-133398287D01*
X132505014Y-133353058D01*
X132389095Y-133330000D01*
X132270905Y-133330000D01*
X132154986Y-133353058D01*
X132045793Y-133398287D01*
X131956487Y-133457959D01*
X131912478Y-133413950D01*
X131814207Y-133348287D01*
X131705014Y-133303058D01*
X131589095Y-133280000D01*
X131470905Y-133280000D01*
X131354986Y-133303058D01*
X131245793Y-133348287D01*
X131147522Y-133413950D01*
X131063950Y-133497522D01*
X130998287Y-133595793D01*
X130953058Y-133704986D01*
X130930000Y-133820905D01*
X130930000Y-133939095D01*
X130931285Y-133945556D01*
X129543897Y-135332944D01*
X129529095Y-135330000D01*
X129410905Y-135330000D01*
X129294986Y-135353058D01*
X129185793Y-135398287D01*
X129087522Y-135463950D01*
X129003950Y-135547522D01*
X128938287Y-135645793D01*
X128893058Y-135754986D01*
X128870000Y-135870905D01*
X125335646Y-135870905D01*
X125401522Y-135732208D01*
X125450000Y-135540000D01*
X125450000Y-134840000D01*
X124600000Y-134840000D01*
X124300000Y-134840000D01*
X123450000Y-134840000D01*
X121374999Y-134840000D01*
X121374999Y-133840000D01*
X123450000Y-133840000D01*
X123450000Y-134540000D01*
X124300000Y-134540000D01*
X124300000Y-133077243D01*
X124600000Y-133077243D01*
X124600000Y-134540000D01*
X125450000Y-134540000D01*
X125450000Y-133840000D01*
X125401522Y-133647792D01*
X125316477Y-133468735D01*
X125198134Y-133309710D01*
X125051041Y-133176828D01*
X124880850Y-133075196D01*
X124752818Y-133036952D01*
X124600000Y-133077243D01*
X124300000Y-133077243D01*
X124147182Y-133036952D01*
X124019150Y-133075196D01*
X123848959Y-133176828D01*
X123701866Y-133309710D01*
X123583523Y-133468735D01*
X123498478Y-133647792D01*
X123450000Y-133840000D01*
X121374999Y-133840000D01*
X121375000Y-133496452D01*
X121387868Y-133512132D01*
X121433329Y-133549441D01*
X121485195Y-133577164D01*
X121541473Y-133594236D01*
X121600000Y-133600000D01*
X122950000Y-133600000D01*
X123006190Y-133594691D01*
X123062602Y-133578066D01*
X123114686Y-133550756D01*
X123160442Y-133513809D01*
X123198110Y-133468645D01*
X123226244Y-133417001D01*
X123243762Y-133360860D01*
X123249991Y-133302381D01*
X123268891Y-130920905D01*
X142060000Y-130920905D01*
X142060000Y-131039095D01*
X142083058Y-131155014D01*
X142128287Y-131264207D01*
X142193950Y-131362478D01*
X142277522Y-131446050D01*
X142313001Y-131469756D01*
X142313000Y-132640290D01*
X142307522Y-132643950D01*
X142223950Y-132727522D01*
X142158287Y-132825793D01*
X142113058Y-132934986D01*
X142090000Y-133050905D01*
X142090000Y-133169095D01*
X142113058Y-133285014D01*
X142158287Y-133394207D01*
X142223950Y-133492478D01*
X142307522Y-133576050D01*
X142405793Y-133641713D01*
X142514986Y-133686942D01*
X142630905Y-133710000D01*
X142749095Y-133710000D01*
X142865014Y-133686942D01*
X142974207Y-133641713D01*
X143072478Y-133576050D01*
X143156050Y-133492478D01*
X143221713Y-133394207D01*
X143266942Y-133285014D01*
X143290000Y-133169095D01*
X143290000Y-133050905D01*
X143266942Y-132934986D01*
X143221713Y-132825793D01*
X143156050Y-132727522D01*
X143072478Y-132643950D01*
X143067000Y-132640290D01*
X143067000Y-131421528D01*
X143126050Y-131362478D01*
X143191713Y-131264207D01*
X143236942Y-131155014D01*
X143260000Y-131039095D01*
X143260000Y-130920905D01*
X143236942Y-130804986D01*
X143191713Y-130695793D01*
X143126050Y-130597522D01*
X143042478Y-130513950D01*
X142944207Y-130448287D01*
X142835014Y-130403058D01*
X142719095Y-130380000D01*
X142600905Y-130380000D01*
X142484986Y-130403058D01*
X142375793Y-130448287D01*
X142277522Y-130513950D01*
X142193950Y-130597522D01*
X142128287Y-130695793D01*
X142083058Y-130804986D01*
X142060000Y-130920905D01*
X123268891Y-130920905D01*
X123297629Y-127300000D01*
X128200000Y-127300000D01*
X128258527Y-127294236D01*
X128314805Y-127277164D01*
X128366671Y-127249441D01*
X128412132Y-127212132D01*
X128449441Y-127166671D01*
X128477164Y-127114805D01*
X128494236Y-127058527D01*
X128500000Y-127000000D01*
X128500000Y-125000000D01*
X128494236Y-124941473D01*
X128477164Y-124885195D01*
X128449441Y-124833329D01*
X128412132Y-124787868D01*
X128366671Y-124750559D01*
X128314805Y-124722836D01*
X128258527Y-124705764D01*
X128200000Y-124700000D01*
X123124264Y-124700000D01*
X121812132Y-123387868D01*
X121766671Y-123350559D01*
X121714805Y-123322836D01*
X121658527Y-123305764D01*
X121600000Y-123300000D01*
X121541473Y-123305764D01*
X121485195Y-123322836D01*
X121433329Y-123350559D01*
X121387868Y-123387868D01*
X121375000Y-123403547D01*
X121375000Y-120140905D01*
X129600000Y-120140905D01*
X129600000Y-120259095D01*
X129623058Y-120375014D01*
X129668287Y-120484207D01*
X129733950Y-120582478D01*
X129817522Y-120666050D01*
X129823001Y-120669711D01*
X129823000Y-128330290D01*
X129817522Y-128333950D01*
X129733950Y-128417522D01*
X129668287Y-128515793D01*
X129623058Y-128624986D01*
X129600000Y-128740905D01*
X129600000Y-128859095D01*
X129623058Y-128975014D01*
X129668287Y-129084207D01*
X129733950Y-129182478D01*
X129817522Y-129266050D01*
X129915793Y-129331713D01*
X130024986Y-129376942D01*
X130140905Y-129400000D01*
X130259095Y-129400000D01*
X130375014Y-129376942D01*
X130484207Y-129331713D01*
X130582478Y-129266050D01*
X130657623Y-129190905D01*
X132440000Y-129190905D01*
X132440000Y-129309095D01*
X132463058Y-129425014D01*
X132508287Y-129534207D01*
X132573950Y-129632478D01*
X132657522Y-129716050D01*
X132755793Y-129781713D01*
X132864986Y-129826942D01*
X132980905Y-129850000D01*
X133099095Y-129850000D01*
X133105556Y-129848715D01*
X133133357Y-129876516D01*
X133131506Y-129879287D01*
X133086277Y-129988480D01*
X133063219Y-130104399D01*
X133063219Y-130222589D01*
X133086277Y-130338508D01*
X133131506Y-130447701D01*
X133197169Y-130545972D01*
X133280741Y-130629544D01*
X133379012Y-130695207D01*
X133488205Y-130740436D01*
X133604124Y-130763494D01*
X133722314Y-130763494D01*
X133838233Y-130740436D01*
X133947426Y-130695207D01*
X134045697Y-130629544D01*
X134129269Y-130545972D01*
X134194932Y-130447701D01*
X134240161Y-130338508D01*
X134263219Y-130222589D01*
X134263219Y-130104399D01*
X134251273Y-130044342D01*
X134314753Y-130107823D01*
X134313468Y-130114284D01*
X134313468Y-130232474D01*
X134336526Y-130348393D01*
X134381755Y-130457586D01*
X134447418Y-130555857D01*
X134530990Y-130639429D01*
X134629261Y-130705092D01*
X134738454Y-130750321D01*
X134854373Y-130773379D01*
X134972563Y-130773379D01*
X135088482Y-130750321D01*
X135197675Y-130705092D01*
X135295946Y-130639429D01*
X135379518Y-130555857D01*
X135386652Y-130545180D01*
X135437522Y-130596050D01*
X135535793Y-130661713D01*
X135644986Y-130706942D01*
X135760905Y-130730000D01*
X135879095Y-130730000D01*
X135995014Y-130706942D01*
X136104207Y-130661713D01*
X136202478Y-130596050D01*
X136286050Y-130512478D01*
X136351713Y-130414207D01*
X136396942Y-130305014D01*
X136420000Y-130189095D01*
X136420000Y-130070905D01*
X136396942Y-129954986D01*
X136351713Y-129845793D01*
X136286050Y-129747522D01*
X136202478Y-129663950D01*
X136197000Y-129660290D01*
X136197000Y-129460001D01*
X136280105Y-129460001D01*
X136396024Y-129436943D01*
X136505217Y-129391714D01*
X136603488Y-129326051D01*
X136687060Y-129242479D01*
X136752723Y-129144208D01*
X136770244Y-129101908D01*
X136844783Y-129151713D01*
X136953976Y-129196942D01*
X137069895Y-129220000D01*
X137188085Y-129220000D01*
X137304004Y-129196942D01*
X137413197Y-129151713D01*
X137511468Y-129086050D01*
X137595040Y-129002478D01*
X137660703Y-128904207D01*
X137705932Y-128795014D01*
X137728990Y-128679095D01*
X137728990Y-128560905D01*
X137705932Y-128444986D01*
X137660703Y-128335793D01*
X137595040Y-128237522D01*
X137511468Y-128153950D01*
X137505990Y-128150290D01*
X137505990Y-127541470D01*
X137579024Y-127526942D01*
X137688217Y-127481713D01*
X137786488Y-127416050D01*
X137870060Y-127332478D01*
X137935723Y-127234207D01*
X137980952Y-127125014D01*
X138004010Y-127009095D01*
X138004010Y-126890905D01*
X137980952Y-126774986D01*
X137935723Y-126665793D01*
X137870060Y-126567522D01*
X137786488Y-126483950D01*
X137688217Y-126418287D01*
X137579024Y-126373058D01*
X137463105Y-126350000D01*
X137344915Y-126350000D01*
X137228996Y-126373058D01*
X137119803Y-126418287D01*
X137021532Y-126483950D01*
X136937960Y-126567522D01*
X136872297Y-126665793D01*
X136827068Y-126774986D01*
X136804010Y-126890905D01*
X136804010Y-127009095D01*
X136807514Y-127026710D01*
X136779002Y-127080051D01*
X136757445Y-127151115D01*
X136750167Y-127225020D01*
X136751991Y-127243542D01*
X136751990Y-128150289D01*
X136746512Y-128153950D01*
X136662940Y-128237522D01*
X136597277Y-128335793D01*
X136579756Y-128378093D01*
X136505217Y-128328288D01*
X136396024Y-128283059D01*
X136280105Y-128260001D01*
X136161915Y-128260001D01*
X136045996Y-128283059D01*
X135936803Y-128328288D01*
X135838532Y-128393951D01*
X135754960Y-128477523D01*
X135689297Y-128575794D01*
X135644068Y-128684987D01*
X135621010Y-128800906D01*
X135621010Y-128919096D01*
X135622295Y-128925558D01*
X135566514Y-128981339D01*
X135552132Y-128993142D01*
X135540329Y-129007524D01*
X135540326Y-129007527D01*
X135505020Y-129050548D01*
X135470012Y-129116042D01*
X135448455Y-129187106D01*
X135441177Y-129261011D01*
X135443001Y-129279533D01*
X135443001Y-129660289D01*
X135437522Y-129663950D01*
X135353950Y-129747522D01*
X135346816Y-129758199D01*
X135295946Y-129707329D01*
X135197675Y-129641666D01*
X135088482Y-129596437D01*
X134972563Y-129573379D01*
X134854373Y-129573379D01*
X134847912Y-129574664D01*
X134782138Y-129508891D01*
X134800000Y-129419095D01*
X134800000Y-129300905D01*
X134776942Y-129184986D01*
X134731713Y-129075793D01*
X134666050Y-128977522D01*
X134582478Y-128893950D01*
X134484207Y-128828287D01*
X134375014Y-128783058D01*
X134259095Y-128760000D01*
X134140905Y-128760000D01*
X134024986Y-128783058D01*
X133915793Y-128828287D01*
X133817522Y-128893950D01*
X133733950Y-128977522D01*
X133668287Y-129075793D01*
X133633708Y-129159274D01*
X133616942Y-129074986D01*
X133571713Y-128965793D01*
X133506050Y-128867522D01*
X133422478Y-128783950D01*
X133324207Y-128718287D01*
X133215014Y-128673058D01*
X133099095Y-128650000D01*
X132980905Y-128650000D01*
X132864986Y-128673058D01*
X132755793Y-128718287D01*
X132657522Y-128783950D01*
X132573950Y-128867522D01*
X132508287Y-128965793D01*
X132463058Y-129074986D01*
X132440000Y-129190905D01*
X130657623Y-129190905D01*
X130666050Y-129182478D01*
X130731713Y-129084207D01*
X130776942Y-128975014D01*
X130800000Y-128859095D01*
X130800000Y-128740905D01*
X130776942Y-128624986D01*
X130731713Y-128515793D01*
X130666050Y-128417522D01*
X130582478Y-128333950D01*
X130577000Y-128330290D01*
X130577000Y-123970905D01*
X150430000Y-123970905D01*
X150430000Y-124089095D01*
X150453058Y-124205014D01*
X150498287Y-124314207D01*
X150563950Y-124412478D01*
X150647522Y-124496050D01*
X150653001Y-124499711D01*
X150653000Y-125660290D01*
X150647522Y-125663950D01*
X150563950Y-125747522D01*
X150498287Y-125845793D01*
X150453058Y-125954986D01*
X150430000Y-126070905D01*
X150430000Y-126189095D01*
X150453058Y-126305014D01*
X150498287Y-126414207D01*
X150563950Y-126512478D01*
X150647522Y-126596050D01*
X150745793Y-126661713D01*
X150854986Y-126706942D01*
X150970905Y-126730000D01*
X151089095Y-126730000D01*
X151205014Y-126706942D01*
X151314207Y-126661713D01*
X151412478Y-126596050D01*
X151496050Y-126512478D01*
X151561713Y-126414207D01*
X151606942Y-126305014D01*
X151630000Y-126189095D01*
X151630000Y-126070905D01*
X151606942Y-125954986D01*
X151561713Y-125845793D01*
X151496050Y-125747522D01*
X151412478Y-125663950D01*
X151407000Y-125660290D01*
X151407000Y-124499710D01*
X151412478Y-124496050D01*
X151496050Y-124412478D01*
X151561713Y-124314207D01*
X151606942Y-124205014D01*
X151630000Y-124089095D01*
X151630000Y-123970905D01*
X151606942Y-123854986D01*
X151561713Y-123745793D01*
X151496050Y-123647522D01*
X151479735Y-123631207D01*
X160830000Y-123631207D01*
X160830000Y-123788793D01*
X160860743Y-123943351D01*
X160921049Y-124088942D01*
X161008599Y-124219970D01*
X161120030Y-124331401D01*
X161251058Y-124418951D01*
X161396649Y-124479257D01*
X161551207Y-124510000D01*
X161708793Y-124510000D01*
X161863351Y-124479257D01*
X162008942Y-124418951D01*
X162139970Y-124331401D01*
X162251401Y-124219970D01*
X162338951Y-124088942D01*
X162399257Y-123943351D01*
X162430000Y-123788793D01*
X162430000Y-123631207D01*
X162399257Y-123476649D01*
X162338951Y-123331058D01*
X162251401Y-123200030D01*
X162139970Y-123088599D01*
X162008942Y-123001049D01*
X161863351Y-122940743D01*
X161708793Y-122910000D01*
X161551207Y-122910000D01*
X161396649Y-122940743D01*
X161251058Y-123001049D01*
X161120030Y-123088599D01*
X161008599Y-123200030D01*
X160921049Y-123331058D01*
X160860743Y-123476649D01*
X160830000Y-123631207D01*
X151479735Y-123631207D01*
X151412478Y-123563950D01*
X151314207Y-123498287D01*
X151205014Y-123453058D01*
X151089095Y-123430000D01*
X150970905Y-123430000D01*
X150854986Y-123453058D01*
X150745793Y-123498287D01*
X150647522Y-123563950D01*
X150563950Y-123647522D01*
X150498287Y-123745793D01*
X150453058Y-123854986D01*
X150430000Y-123970905D01*
X130577000Y-123970905D01*
X130577000Y-121540905D01*
X138500000Y-121540905D01*
X138500000Y-121659095D01*
X138523058Y-121775014D01*
X138568287Y-121884207D01*
X138578840Y-121900000D01*
X138568287Y-121915793D01*
X138523058Y-122024986D01*
X138500000Y-122140905D01*
X138500000Y-122259095D01*
X138523058Y-122375014D01*
X138568287Y-122484207D01*
X138633950Y-122582478D01*
X138717522Y-122666050D01*
X138815793Y-122731713D01*
X138924986Y-122776942D01*
X139040905Y-122800000D01*
X139159095Y-122800000D01*
X139275014Y-122776942D01*
X139384207Y-122731713D01*
X139482478Y-122666050D01*
X139566050Y-122582478D01*
X139631713Y-122484207D01*
X139676942Y-122375014D01*
X139700000Y-122259095D01*
X139700000Y-122140905D01*
X139676942Y-122024986D01*
X139631713Y-121915793D01*
X139621160Y-121900000D01*
X139631713Y-121884207D01*
X139676942Y-121775014D01*
X139700000Y-121659095D01*
X139700000Y-121540905D01*
X139676942Y-121424986D01*
X139657748Y-121378647D01*
X140486396Y-120550000D01*
X142801472Y-120550000D01*
X142817522Y-120566050D01*
X142915793Y-120631713D01*
X143024986Y-120676942D01*
X143140905Y-120700000D01*
X143259095Y-120700000D01*
X143375014Y-120676942D01*
X143484207Y-120631713D01*
X143500000Y-120621160D01*
X143515793Y-120631713D01*
X143624986Y-120676942D01*
X143740905Y-120700000D01*
X143859095Y-120700000D01*
X143975014Y-120676942D01*
X144084207Y-120631713D01*
X144182478Y-120566050D01*
X144266050Y-120482478D01*
X144331713Y-120384207D01*
X144376942Y-120275014D01*
X144400000Y-120159095D01*
X144400000Y-120040905D01*
X144376942Y-119924986D01*
X144331713Y-119815793D01*
X144266050Y-119717522D01*
X144182478Y-119633950D01*
X144084207Y-119568287D01*
X143975014Y-119523058D01*
X143859095Y-119500000D01*
X143740905Y-119500000D01*
X143624986Y-119523058D01*
X143515793Y-119568287D01*
X143500000Y-119578840D01*
X143484207Y-119568287D01*
X143375014Y-119523058D01*
X143259095Y-119500000D01*
X143140905Y-119500000D01*
X143024986Y-119523058D01*
X142915793Y-119568287D01*
X142817522Y-119633950D01*
X142801472Y-119650000D01*
X140322091Y-119650000D01*
X140299999Y-119647824D01*
X140277907Y-119650000D01*
X140277895Y-119650000D01*
X140211785Y-119656511D01*
X140126959Y-119682243D01*
X140048783Y-119724029D01*
X139997432Y-119766172D01*
X139997428Y-119766176D01*
X139980263Y-119780263D01*
X139966176Y-119797428D01*
X138797434Y-120966171D01*
X138780263Y-120980263D01*
X138766172Y-120997433D01*
X138724029Y-121048784D01*
X138682244Y-121126959D01*
X138682243Y-121126960D01*
X138663837Y-121187635D01*
X138633950Y-121217522D01*
X138568287Y-121315793D01*
X138523058Y-121424986D01*
X138500000Y-121540905D01*
X130577000Y-121540905D01*
X130577000Y-120669710D01*
X130582478Y-120666050D01*
X130666050Y-120582478D01*
X130731713Y-120484207D01*
X130776942Y-120375014D01*
X130800000Y-120259095D01*
X130800000Y-120140905D01*
X130776942Y-120024986D01*
X130731713Y-119915793D01*
X130666050Y-119817522D01*
X130582478Y-119733950D01*
X130484207Y-119668287D01*
X130375014Y-119623058D01*
X130259095Y-119600000D01*
X130140905Y-119600000D01*
X130024986Y-119623058D01*
X129915793Y-119668287D01*
X129817522Y-119733950D01*
X129733950Y-119817522D01*
X129668287Y-119915793D01*
X129623058Y-120024986D01*
X129600000Y-120140905D01*
X121375000Y-120140905D01*
X121375000Y-119398692D01*
X123763440Y-119398692D01*
X123952627Y-119627963D01*
X124289391Y-119791260D01*
X124651542Y-119885720D01*
X125025163Y-119907713D01*
X125395895Y-119856394D01*
X125749492Y-119733734D01*
X125947373Y-119627963D01*
X126136560Y-119398692D01*
X124950000Y-118212132D01*
X123763440Y-119398692D01*
X121375000Y-119398692D01*
X121375000Y-118075163D01*
X123042287Y-118075163D01*
X123093606Y-118445895D01*
X123216266Y-118799492D01*
X123322037Y-118997373D01*
X123551308Y-119186560D01*
X124737868Y-118000000D01*
X125162132Y-118000000D01*
X126348692Y-119186560D01*
X126577963Y-118997373D01*
X126741260Y-118660609D01*
X126835720Y-118298458D01*
X126857713Y-117924837D01*
X126855785Y-117910905D01*
X131930000Y-117910905D01*
X131930000Y-118029095D01*
X131953058Y-118145014D01*
X131998287Y-118254207D01*
X132063950Y-118352478D01*
X132147522Y-118436050D01*
X132153001Y-118439711D01*
X132153000Y-120220290D01*
X132147522Y-120223950D01*
X132063950Y-120307522D01*
X131998287Y-120405793D01*
X131953058Y-120514986D01*
X131930000Y-120630905D01*
X131930000Y-120749095D01*
X131953058Y-120865014D01*
X131998287Y-120974207D01*
X132063950Y-121072478D01*
X132147522Y-121156050D01*
X132245793Y-121221713D01*
X132354986Y-121266942D01*
X132470905Y-121290000D01*
X132589095Y-121290000D01*
X132705014Y-121266942D01*
X132814207Y-121221713D01*
X132912478Y-121156050D01*
X132996050Y-121072478D01*
X133061713Y-120974207D01*
X133106942Y-120865014D01*
X133130000Y-120749095D01*
X133130000Y-120630905D01*
X133106942Y-120514986D01*
X133061713Y-120405793D01*
X132996050Y-120307522D01*
X132912478Y-120223950D01*
X132907000Y-120220290D01*
X132907000Y-119398692D01*
X160613440Y-119398692D01*
X160802627Y-119627963D01*
X161139391Y-119791260D01*
X161501542Y-119885720D01*
X161875163Y-119907713D01*
X162245895Y-119856394D01*
X162599492Y-119733734D01*
X162797373Y-119627963D01*
X162986560Y-119398692D01*
X161800000Y-118212132D01*
X160613440Y-119398692D01*
X132907000Y-119398692D01*
X132907000Y-118439710D01*
X132912478Y-118436050D01*
X132996050Y-118352478D01*
X133061713Y-118254207D01*
X133106942Y-118145014D01*
X133120836Y-118075163D01*
X159892287Y-118075163D01*
X159943606Y-118445895D01*
X160066266Y-118799492D01*
X160172037Y-118997373D01*
X160401308Y-119186560D01*
X161587868Y-118000000D01*
X162012132Y-118000000D01*
X163198692Y-119186560D01*
X163427963Y-118997373D01*
X163591260Y-118660609D01*
X163685720Y-118298458D01*
X163707713Y-117924837D01*
X163656394Y-117554105D01*
X163533734Y-117200508D01*
X163427963Y-117002627D01*
X163198692Y-116813440D01*
X162012132Y-118000000D01*
X161587868Y-118000000D01*
X160401308Y-116813440D01*
X160172037Y-117002627D01*
X160008740Y-117339391D01*
X159914280Y-117701542D01*
X159892287Y-118075163D01*
X133120836Y-118075163D01*
X133130000Y-118029095D01*
X133130000Y-117910905D01*
X133106942Y-117794986D01*
X133061713Y-117685793D01*
X132996050Y-117587522D01*
X132912478Y-117503950D01*
X132814207Y-117438287D01*
X132705014Y-117393058D01*
X132589095Y-117370000D01*
X132470905Y-117370000D01*
X132354986Y-117393058D01*
X132245793Y-117438287D01*
X132147522Y-117503950D01*
X132063950Y-117587522D01*
X131998287Y-117685793D01*
X131953058Y-117794986D01*
X131930000Y-117910905D01*
X126855785Y-117910905D01*
X126806394Y-117554105D01*
X126683734Y-117200508D01*
X126577963Y-117002627D01*
X126348692Y-116813440D01*
X125162132Y-118000000D01*
X124737868Y-118000000D01*
X123551308Y-116813440D01*
X123322037Y-117002627D01*
X123158740Y-117339391D01*
X123064280Y-117701542D01*
X123042287Y-118075163D01*
X121375000Y-118075163D01*
X121375000Y-116601308D01*
X123763440Y-116601308D01*
X124950000Y-117787868D01*
X126136560Y-116601308D01*
X160613440Y-116601308D01*
X161800000Y-117787868D01*
X162986560Y-116601308D01*
X162797373Y-116372037D01*
X162460609Y-116208740D01*
X162098458Y-116114280D01*
X161724837Y-116092287D01*
X161354105Y-116143606D01*
X161000508Y-116266266D01*
X160802627Y-116372037D01*
X160613440Y-116601308D01*
X126136560Y-116601308D01*
X125947373Y-116372037D01*
X125610609Y-116208740D01*
X125248458Y-116114280D01*
X124874837Y-116092287D01*
X124504105Y-116143606D01*
X124150508Y-116266266D01*
X123952627Y-116372037D01*
X123763440Y-116601308D01*
X121375000Y-116601308D01*
X121375001Y-115918338D01*
X121401999Y-115642991D01*
X121476640Y-115395766D01*
X121597879Y-115167749D01*
X121761095Y-114967627D01*
X121960077Y-114803016D01*
X122187242Y-114680188D01*
X122433931Y-114603825D01*
X122708188Y-114574999D01*
X164081662Y-114575001D01*
X164081662Y-114575001D01*
G37*
X164081662Y-114575001D02*
X164357009Y-114601999D01*
X164604234Y-114676640D01*
X164832251Y-114797879D01*
X165032373Y-114961095D01*
X165196984Y-115160077D01*
X165319812Y-115387242D01*
X165396175Y-115633931D01*
X165425000Y-115908179D01*
X165425001Y-143881653D01*
X165398002Y-144157008D01*
X165323360Y-144404235D01*
X165202125Y-144632246D01*
X165038904Y-144832374D01*
X164839927Y-144996982D01*
X164612759Y-145119811D01*
X164366068Y-145196175D01*
X164091821Y-145225000D01*
X136181581Y-145225000D01*
X136181571Y-145225001D01*
X122718338Y-145224999D01*
X122442991Y-145198001D01*
X122195767Y-145123360D01*
X121967755Y-145002125D01*
X121767627Y-144838904D01*
X121603017Y-144639925D01*
X121480189Y-144412761D01*
X121403825Y-144166068D01*
X121396881Y-144100000D01*
X151470000Y-144100000D01*
X151470000Y-144500000D01*
X151514635Y-144653190D01*
X151588299Y-144794729D01*
X151688160Y-144919177D01*
X151810381Y-145021752D01*
X151950265Y-145098512D01*
X151998919Y-145102672D01*
X152120000Y-145059313D01*
X152120000Y-144100000D01*
X152420000Y-144100000D01*
X152420000Y-145059313D01*
X152541081Y-145102672D01*
X152589735Y-145098512D01*
X152729619Y-145021752D01*
X152851840Y-144919177D01*
X152951701Y-144794729D01*
X153025365Y-144653190D01*
X153070000Y-144500000D01*
X153070000Y-144100000D01*
X159930000Y-144100000D01*
X159930000Y-144500000D01*
X159974635Y-144653190D01*
X160048299Y-144794729D01*
X160148160Y-144919177D01*
X160270381Y-145021752D01*
X160410265Y-145098512D01*
X160458919Y-145102672D01*
X160580000Y-145059313D01*
X160580000Y-144100000D01*
X160880000Y-144100000D01*
X160880000Y-145059313D01*
X161001081Y-145102672D01*
X161049735Y-145098512D01*
X161189619Y-145021752D01*
X161311840Y-144919177D01*
X161411701Y-144794729D01*
X161485365Y-144653190D01*
X161530000Y-144500000D01*
X161530000Y-144100000D01*
X160880000Y-144100000D01*
X160580000Y-144100000D01*
X159930000Y-144100000D01*
X153070000Y-144100000D01*
X152420000Y-144100000D01*
X152120000Y-144100000D01*
X151470000Y-144100000D01*
X121396881Y-144100000D01*
X121374999Y-143891812D01*
X121374999Y-143400000D01*
X151470000Y-143400000D01*
X151470000Y-143800000D01*
X152120000Y-143800000D01*
X152120000Y-142840687D01*
X152420000Y-142840687D01*
X152420000Y-143800000D01*
X153070000Y-143800000D01*
X153070000Y-143400000D01*
X159930000Y-143400000D01*
X159930000Y-143800000D01*
X160580000Y-143800000D01*
X160580000Y-142840687D01*
X160880000Y-142840687D01*
X160880000Y-143800000D01*
X161530000Y-143800000D01*
X161530000Y-143400000D01*
X161485365Y-143246810D01*
X161411701Y-143105271D01*
X161311840Y-142980823D01*
X161189619Y-142878248D01*
X161049735Y-142801488D01*
X161001081Y-142797328D01*
X160880000Y-142840687D01*
X160580000Y-142840687D01*
X160458919Y-142797328D01*
X160410265Y-142801488D01*
X160270381Y-142878248D01*
X160148160Y-142980823D01*
X160048299Y-143105271D01*
X159974635Y-143246810D01*
X159930000Y-143400000D01*
X153070000Y-143400000D01*
X153025365Y-143246810D01*
X152951701Y-143105271D01*
X152851840Y-142980823D01*
X152729619Y-142878248D01*
X152589735Y-142801488D01*
X152541081Y-142797328D01*
X152420000Y-142840687D01*
X152120000Y-142840687D01*
X151998919Y-142797328D01*
X151950265Y-142801488D01*
X151810381Y-142878248D01*
X151688160Y-142980823D01*
X151588299Y-143105271D01*
X151514635Y-143246810D01*
X151470000Y-143400000D01*
X121374999Y-143400000D01*
X121374999Y-141620000D01*
X123550000Y-141620000D01*
X123550000Y-142220000D01*
X123596557Y-142392699D01*
X123675911Y-142552997D01*
X123785013Y-142694734D01*
X123919670Y-142812462D01*
X124074707Y-142901658D01*
X124163025Y-142923021D01*
X124300000Y-142881249D01*
X124300000Y-141620000D01*
X124600000Y-141620000D01*
X124600000Y-142881249D01*
X124736975Y-142923021D01*
X124825293Y-142901658D01*
X124980330Y-142812462D01*
X125114987Y-142694734D01*
X125224089Y-142552997D01*
X125303443Y-142392699D01*
X125336113Y-142271509D01*
X131700000Y-142271509D01*
X131700000Y-142468491D01*
X131738429Y-142661689D01*
X131813811Y-142843678D01*
X131923249Y-143007463D01*
X132062537Y-143146751D01*
X132226322Y-143256189D01*
X132408311Y-143331571D01*
X132601509Y-143370000D01*
X132798491Y-143370000D01*
X132991689Y-143331571D01*
X133173678Y-143256189D01*
X133337463Y-143146751D01*
X133476751Y-143007463D01*
X133586189Y-142843678D01*
X133661571Y-142661689D01*
X133700000Y-142468491D01*
X133700000Y-142271509D01*
X133661571Y-142078311D01*
X133586189Y-141896322D01*
X133476751Y-141732537D01*
X133364214Y-141620000D01*
X140050000Y-141620000D01*
X140050000Y-142220000D01*
X140096557Y-142392699D01*
X140175911Y-142552997D01*
X140285013Y-142694734D01*
X140419670Y-142812462D01*
X140574707Y-142901658D01*
X140663025Y-142923021D01*
X140800000Y-142881249D01*
X140800000Y-141620000D01*
X141100000Y-141620000D01*
X141100000Y-142881249D01*
X141236975Y-142923021D01*
X141325293Y-142901658D01*
X141480330Y-142812462D01*
X141614987Y-142694734D01*
X141724089Y-142552997D01*
X141803443Y-142392699D01*
X141850000Y-142220000D01*
X141850000Y-141620000D01*
X141100000Y-141620000D01*
X140800000Y-141620000D01*
X140050000Y-141620000D01*
X133364214Y-141620000D01*
X133337463Y-141593249D01*
X133173678Y-141483811D01*
X132991689Y-141408429D01*
X132798491Y-141370000D01*
X132601509Y-141370000D01*
X132408311Y-141408429D01*
X132226322Y-141483811D01*
X132062537Y-141593249D01*
X131923249Y-141732537D01*
X131813811Y-141896322D01*
X131738429Y-142078311D01*
X131700000Y-142271509D01*
X125336113Y-142271509D01*
X125350000Y-142220000D01*
X125350000Y-141620000D01*
X124600000Y-141620000D01*
X124300000Y-141620000D01*
X123550000Y-141620000D01*
X121374999Y-141620000D01*
X121374999Y-140720000D01*
X123550000Y-140720000D01*
X123550000Y-141320000D01*
X124300000Y-141320000D01*
X124300000Y-140058751D01*
X124600000Y-140058751D01*
X124600000Y-141320000D01*
X125350000Y-141320000D01*
X125350000Y-140720000D01*
X140050000Y-140720000D01*
X140050000Y-141320000D01*
X140800000Y-141320000D01*
X140800000Y-140058751D01*
X141100000Y-140058751D01*
X141100000Y-141320000D01*
X141850000Y-141320000D01*
X141850000Y-140720000D01*
X141803443Y-140547301D01*
X141724089Y-140387003D01*
X141614987Y-140245266D01*
X141480330Y-140127538D01*
X141325293Y-140038342D01*
X141236975Y-140016979D01*
X141100000Y-140058751D01*
X140800000Y-140058751D01*
X140663025Y-140016979D01*
X140574707Y-140038342D01*
X140419670Y-140127538D01*
X140285013Y-140245266D01*
X140175911Y-140387003D01*
X140096557Y-140547301D01*
X140050000Y-140720000D01*
X125350000Y-140720000D01*
X125303443Y-140547301D01*
X125224089Y-140387003D01*
X125114987Y-140245266D01*
X124980330Y-140127538D01*
X124825293Y-140038342D01*
X124736975Y-140016979D01*
X124600000Y-140058751D01*
X124300000Y-140058751D01*
X124163025Y-140016979D01*
X124074707Y-140038342D01*
X123919670Y-140127538D01*
X123785013Y-140245266D01*
X123675911Y-140387003D01*
X123596557Y-140547301D01*
X123550000Y-140720000D01*
X121374999Y-140720000D01*
X121374999Y-138340905D01*
X144200000Y-138340905D01*
X144200000Y-138459095D01*
X144223058Y-138575014D01*
X144268287Y-138684207D01*
X144333950Y-138782478D01*
X144350001Y-138798529D01*
X144350000Y-139601472D01*
X144333950Y-139617522D01*
X144268287Y-139715793D01*
X144223058Y-139824986D01*
X144200000Y-139940905D01*
X144200000Y-140059095D01*
X144223058Y-140175014D01*
X144268287Y-140284207D01*
X144333950Y-140382478D01*
X144417522Y-140466050D01*
X144515793Y-140531713D01*
X144624986Y-140576942D01*
X144740905Y-140600000D01*
X144859095Y-140600000D01*
X144975014Y-140576942D01*
X145084207Y-140531713D01*
X145182478Y-140466050D01*
X145266050Y-140382478D01*
X145321160Y-140300000D01*
X151470000Y-140300000D01*
X151470000Y-140700000D01*
X151514635Y-140853190D01*
X151588299Y-140994729D01*
X151688160Y-141119177D01*
X151810381Y-141221752D01*
X151950265Y-141298512D01*
X151998919Y-141302672D01*
X152120000Y-141259313D01*
X152120000Y-140300000D01*
X152420000Y-140300000D01*
X152420000Y-141259313D01*
X152541081Y-141302672D01*
X152589735Y-141298512D01*
X152729619Y-141221752D01*
X152851840Y-141119177D01*
X152951701Y-140994729D01*
X153025365Y-140853190D01*
X153070000Y-140700000D01*
X153070000Y-140300000D01*
X159930000Y-140300000D01*
X159930000Y-140700000D01*
X159974635Y-140853190D01*
X160048299Y-140994729D01*
X160148160Y-141119177D01*
X160270381Y-141221752D01*
X160410265Y-141298512D01*
X160458919Y-141302672D01*
X160580000Y-141259313D01*
X160580000Y-140300000D01*
X160880000Y-140300000D01*
X160880000Y-141259313D01*
X161001081Y-141302672D01*
X161049735Y-141298512D01*
X161189619Y-141221752D01*
X161311840Y-141119177D01*
X161411701Y-140994729D01*
X161485365Y-140853190D01*
X161530000Y-140700000D01*
X161530000Y-140300000D01*
X160880000Y-140300000D01*
X160580000Y-140300000D01*
X159930000Y-140300000D01*
X153070000Y-140300000D01*
X152420000Y-140300000D01*
X152120000Y-140300000D01*
X151470000Y-140300000D01*
X145321160Y-140300000D01*
X145331713Y-140284207D01*
X145376942Y-140175014D01*
X145400000Y-140059095D01*
X145400000Y-139940905D01*
X145376942Y-139824986D01*
X145331713Y-139715793D01*
X145266050Y-139617522D01*
X145250000Y-139601472D01*
X145250000Y-139600000D01*
X151470000Y-139600000D01*
X151470000Y-140000000D01*
X152120000Y-140000000D01*
X152120000Y-139040687D01*
X152420000Y-139040687D01*
X152420000Y-140000000D01*
X153070000Y-140000000D01*
X153070000Y-139600000D01*
X159930000Y-139600000D01*
X159930000Y-140000000D01*
X160580000Y-140000000D01*
X160580000Y-139040687D01*
X160880000Y-139040687D01*
X160880000Y-140000000D01*
X161530000Y-140000000D01*
X161530000Y-139600000D01*
X161485365Y-139446810D01*
X161411701Y-139305271D01*
X161311840Y-139180823D01*
X161189619Y-139078248D01*
X161049735Y-139001488D01*
X161001081Y-138997328D01*
X160880000Y-139040687D01*
X160580000Y-139040687D01*
X160458919Y-138997328D01*
X160410265Y-139001488D01*
X160270381Y-139078248D01*
X160148160Y-139180823D01*
X160048299Y-139305271D01*
X159974635Y-139446810D01*
X159930000Y-139600000D01*
X153070000Y-139600000D01*
X153025365Y-139446810D01*
X152951701Y-139305271D01*
X152851840Y-139180823D01*
X152729619Y-139078248D01*
X152589735Y-139001488D01*
X152541081Y-138997328D01*
X152420000Y-139040687D01*
X152120000Y-139040687D01*
X151998919Y-138997328D01*
X151950265Y-139001488D01*
X151810381Y-139078248D01*
X151688160Y-139180823D01*
X151588299Y-139305271D01*
X151514635Y-139446810D01*
X151470000Y-139600000D01*
X145250000Y-139600000D01*
X145250000Y-138850000D01*
X146601464Y-138850000D01*
X146617522Y-138866058D01*
X146715793Y-138931721D01*
X146824986Y-138976950D01*
X146940905Y-139000008D01*
X147059095Y-139000008D01*
X147175014Y-138976950D01*
X147284207Y-138931721D01*
X147382478Y-138866058D01*
X147466050Y-138782486D01*
X147531713Y-138684215D01*
X147576942Y-138575022D01*
X147600000Y-138459103D01*
X147600000Y-138340913D01*
X147576942Y-138224994D01*
X147531713Y-138115801D01*
X147466050Y-138017530D01*
X147382478Y-137933958D01*
X147284207Y-137868295D01*
X147175014Y-137823066D01*
X147059095Y-137800008D01*
X146940905Y-137800008D01*
X146824986Y-137823066D01*
X146715793Y-137868295D01*
X146617522Y-137933958D01*
X146601480Y-137950000D01*
X145198528Y-137950000D01*
X145182478Y-137933950D01*
X145084207Y-137868287D01*
X144975014Y-137823058D01*
X144859095Y-137800000D01*
X144740905Y-137800000D01*
X144624986Y-137823058D01*
X144515793Y-137868287D01*
X144417522Y-137933950D01*
X144333950Y-138017522D01*
X144268287Y-138115793D01*
X144223058Y-138224986D01*
X144200000Y-138340905D01*
X121374999Y-138340905D01*
X121374999Y-134840000D01*
X123450000Y-134840000D01*
X123450000Y-135540000D01*
X123498478Y-135732208D01*
X123583523Y-135911265D01*
X123701866Y-136070290D01*
X123848959Y-136203172D01*
X124019150Y-136304804D01*
X124147182Y-136343048D01*
X124300000Y-136302757D01*
X124300000Y-134840000D01*
X124600000Y-134840000D01*
X124600000Y-136302757D01*
X124752818Y-136343048D01*
X124880850Y-136304804D01*
X125051041Y-136203172D01*
X125198134Y-136070290D01*
X125316477Y-135911265D01*
X125335646Y-135870905D01*
X128870000Y-135870905D01*
X128870000Y-135989095D01*
X128893058Y-136105014D01*
X128938287Y-136214207D01*
X129003950Y-136312478D01*
X129087522Y-136396050D01*
X129185793Y-136461713D01*
X129294986Y-136506942D01*
X129410905Y-136530000D01*
X129529095Y-136530000D01*
X129645014Y-136506942D01*
X129754207Y-136461713D01*
X129852478Y-136396050D01*
X129860000Y-136388528D01*
X129897522Y-136426050D01*
X129995793Y-136491713D01*
X130104986Y-136536942D01*
X130220905Y-136560000D01*
X130339095Y-136560000D01*
X130455014Y-136536942D01*
X130564207Y-136491713D01*
X130654760Y-136431207D01*
X160830000Y-136431207D01*
X160830000Y-136588793D01*
X160860743Y-136743351D01*
X160921049Y-136888942D01*
X161008599Y-137019970D01*
X161120030Y-137131401D01*
X161251058Y-137218951D01*
X161396649Y-137279257D01*
X161551207Y-137310000D01*
X161708793Y-137310000D01*
X161863351Y-137279257D01*
X162008942Y-137218951D01*
X162139970Y-137131401D01*
X162251401Y-137019970D01*
X162338951Y-136888942D01*
X162399257Y-136743351D01*
X162430000Y-136588793D01*
X162430000Y-136431207D01*
X162399257Y-136276649D01*
X162338951Y-136131058D01*
X162251401Y-136000030D01*
X162139970Y-135888599D01*
X162008942Y-135801049D01*
X161863351Y-135740743D01*
X161708793Y-135710000D01*
X161551207Y-135710000D01*
X161396649Y-135740743D01*
X161251058Y-135801049D01*
X161120030Y-135888599D01*
X161008599Y-136000030D01*
X160921049Y-136131058D01*
X160860743Y-136276649D01*
X160830000Y-136431207D01*
X130654760Y-136431207D01*
X130662478Y-136426050D01*
X130746050Y-136342478D01*
X130811713Y-136244207D01*
X130856942Y-136135014D01*
X130880000Y-136019095D01*
X130880000Y-135913158D01*
X131953158Y-134840000D01*
X139950000Y-134840000D01*
X139950000Y-135540000D01*
X139998478Y-135732208D01*
X140083523Y-135911265D01*
X140201866Y-136070290D01*
X140348959Y-136203172D01*
X140519150Y-136304804D01*
X140647182Y-136343048D01*
X140800000Y-136302757D01*
X140800000Y-134840000D01*
X141100000Y-134840000D01*
X141100000Y-136302757D01*
X141252818Y-136343048D01*
X141380850Y-136304804D01*
X141551041Y-136203172D01*
X141698134Y-136070290D01*
X141816477Y-135911265D01*
X141901522Y-135732208D01*
X141950000Y-135540000D01*
X141950000Y-134840000D01*
X141100000Y-134840000D01*
X140800000Y-134840000D01*
X139950000Y-134840000D01*
X131953158Y-134840000D01*
X132264444Y-134528715D01*
X132270905Y-134530000D01*
X132389095Y-134530000D01*
X132505014Y-134506942D01*
X132614207Y-134461713D01*
X132712478Y-134396050D01*
X132796050Y-134312478D01*
X132861713Y-134214207D01*
X132906942Y-134105014D01*
X132930000Y-133989095D01*
X132930000Y-133870905D01*
X132923853Y-133840000D01*
X139950000Y-133840000D01*
X139950000Y-134540000D01*
X140800000Y-134540000D01*
X140800000Y-133077243D01*
X141100000Y-133077243D01*
X141100000Y-134540000D01*
X141950000Y-134540000D01*
X141950000Y-133840000D01*
X141901522Y-133647792D01*
X141816477Y-133468735D01*
X141698134Y-133309710D01*
X141551041Y-133176828D01*
X141380850Y-133075196D01*
X141252818Y-133036952D01*
X141100000Y-133077243D01*
X140800000Y-133077243D01*
X140647182Y-133036952D01*
X140519150Y-133075196D01*
X140348959Y-133176828D01*
X140201866Y-133309710D01*
X140083523Y-133468735D01*
X139998478Y-133647792D01*
X139950000Y-133840000D01*
X132923853Y-133840000D01*
X132906942Y-133754986D01*
X132861713Y-133645793D01*
X132796050Y-133547522D01*
X132712478Y-133463950D01*
X132614207Y-133398287D01*
X132505014Y-133353058D01*
X132389095Y-133330000D01*
X132270905Y-133330000D01*
X132154986Y-133353058D01*
X132045793Y-133398287D01*
X131956487Y-133457959D01*
X131912478Y-133413950D01*
X131814207Y-133348287D01*
X131705014Y-133303058D01*
X131589095Y-133280000D01*
X131470905Y-133280000D01*
X131354986Y-133303058D01*
X131245793Y-133348287D01*
X131147522Y-133413950D01*
X131063950Y-133497522D01*
X130998287Y-133595793D01*
X130953058Y-133704986D01*
X130930000Y-133820905D01*
X130930000Y-133939095D01*
X130931285Y-133945556D01*
X129543897Y-135332944D01*
X129529095Y-135330000D01*
X129410905Y-135330000D01*
X129294986Y-135353058D01*
X129185793Y-135398287D01*
X129087522Y-135463950D01*
X129003950Y-135547522D01*
X128938287Y-135645793D01*
X128893058Y-135754986D01*
X128870000Y-135870905D01*
X125335646Y-135870905D01*
X125401522Y-135732208D01*
X125450000Y-135540000D01*
X125450000Y-134840000D01*
X124600000Y-134840000D01*
X124300000Y-134840000D01*
X123450000Y-134840000D01*
X121374999Y-134840000D01*
X121374999Y-133840000D01*
X123450000Y-133840000D01*
X123450000Y-134540000D01*
X124300000Y-134540000D01*
X124300000Y-133077243D01*
X124600000Y-133077243D01*
X124600000Y-134540000D01*
X125450000Y-134540000D01*
X125450000Y-133840000D01*
X125401522Y-133647792D01*
X125316477Y-133468735D01*
X125198134Y-133309710D01*
X125051041Y-133176828D01*
X124880850Y-133075196D01*
X124752818Y-133036952D01*
X124600000Y-133077243D01*
X124300000Y-133077243D01*
X124147182Y-133036952D01*
X124019150Y-133075196D01*
X123848959Y-133176828D01*
X123701866Y-133309710D01*
X123583523Y-133468735D01*
X123498478Y-133647792D01*
X123450000Y-133840000D01*
X121374999Y-133840000D01*
X121375000Y-133496452D01*
X121387868Y-133512132D01*
X121433329Y-133549441D01*
X121485195Y-133577164D01*
X121541473Y-133594236D01*
X121600000Y-133600000D01*
X122950000Y-133600000D01*
X123006190Y-133594691D01*
X123062602Y-133578066D01*
X123114686Y-133550756D01*
X123160442Y-133513809D01*
X123198110Y-133468645D01*
X123226244Y-133417001D01*
X123243762Y-133360860D01*
X123249991Y-133302381D01*
X123268891Y-130920905D01*
X142060000Y-130920905D01*
X142060000Y-131039095D01*
X142083058Y-131155014D01*
X142128287Y-131264207D01*
X142193950Y-131362478D01*
X142277522Y-131446050D01*
X142313001Y-131469756D01*
X142313000Y-132640290D01*
X142307522Y-132643950D01*
X142223950Y-132727522D01*
X142158287Y-132825793D01*
X142113058Y-132934986D01*
X142090000Y-133050905D01*
X142090000Y-133169095D01*
X142113058Y-133285014D01*
X142158287Y-133394207D01*
X142223950Y-133492478D01*
X142307522Y-133576050D01*
X142405793Y-133641713D01*
X142514986Y-133686942D01*
X142630905Y-133710000D01*
X142749095Y-133710000D01*
X142865014Y-133686942D01*
X142974207Y-133641713D01*
X143072478Y-133576050D01*
X143156050Y-133492478D01*
X143221713Y-133394207D01*
X143266942Y-133285014D01*
X143290000Y-133169095D01*
X143290000Y-133050905D01*
X143266942Y-132934986D01*
X143221713Y-132825793D01*
X143156050Y-132727522D01*
X143072478Y-132643950D01*
X143067000Y-132640290D01*
X143067000Y-131421528D01*
X143126050Y-131362478D01*
X143191713Y-131264207D01*
X143236942Y-131155014D01*
X143260000Y-131039095D01*
X143260000Y-130920905D01*
X143236942Y-130804986D01*
X143191713Y-130695793D01*
X143126050Y-130597522D01*
X143042478Y-130513950D01*
X142944207Y-130448287D01*
X142835014Y-130403058D01*
X142719095Y-130380000D01*
X142600905Y-130380000D01*
X142484986Y-130403058D01*
X142375793Y-130448287D01*
X142277522Y-130513950D01*
X142193950Y-130597522D01*
X142128287Y-130695793D01*
X142083058Y-130804986D01*
X142060000Y-130920905D01*
X123268891Y-130920905D01*
X123297629Y-127300000D01*
X128200000Y-127300000D01*
X128258527Y-127294236D01*
X128314805Y-127277164D01*
X128366671Y-127249441D01*
X128412132Y-127212132D01*
X128449441Y-127166671D01*
X128477164Y-127114805D01*
X128494236Y-127058527D01*
X128500000Y-127000000D01*
X128500000Y-125000000D01*
X128494236Y-124941473D01*
X128477164Y-124885195D01*
X128449441Y-124833329D01*
X128412132Y-124787868D01*
X128366671Y-124750559D01*
X128314805Y-124722836D01*
X128258527Y-124705764D01*
X128200000Y-124700000D01*
X123124264Y-124700000D01*
X121812132Y-123387868D01*
X121766671Y-123350559D01*
X121714805Y-123322836D01*
X121658527Y-123305764D01*
X121600000Y-123300000D01*
X121541473Y-123305764D01*
X121485195Y-123322836D01*
X121433329Y-123350559D01*
X121387868Y-123387868D01*
X121375000Y-123403547D01*
X121375000Y-120140905D01*
X129600000Y-120140905D01*
X129600000Y-120259095D01*
X129623058Y-120375014D01*
X129668287Y-120484207D01*
X129733950Y-120582478D01*
X129817522Y-120666050D01*
X129823001Y-120669711D01*
X129823000Y-128330290D01*
X129817522Y-128333950D01*
X129733950Y-128417522D01*
X129668287Y-128515793D01*
X129623058Y-128624986D01*
X129600000Y-128740905D01*
X129600000Y-128859095D01*
X129623058Y-128975014D01*
X129668287Y-129084207D01*
X129733950Y-129182478D01*
X129817522Y-129266050D01*
X129915793Y-129331713D01*
X130024986Y-129376942D01*
X130140905Y-129400000D01*
X130259095Y-129400000D01*
X130375014Y-129376942D01*
X130484207Y-129331713D01*
X130582478Y-129266050D01*
X130657623Y-129190905D01*
X132440000Y-129190905D01*
X132440000Y-129309095D01*
X132463058Y-129425014D01*
X132508287Y-129534207D01*
X132573950Y-129632478D01*
X132657522Y-129716050D01*
X132755793Y-129781713D01*
X132864986Y-129826942D01*
X132980905Y-129850000D01*
X133099095Y-129850000D01*
X133105556Y-129848715D01*
X133133357Y-129876516D01*
X133131506Y-129879287D01*
X133086277Y-129988480D01*
X133063219Y-130104399D01*
X133063219Y-130222589D01*
X133086277Y-130338508D01*
X133131506Y-130447701D01*
X133197169Y-130545972D01*
X133280741Y-130629544D01*
X133379012Y-130695207D01*
X133488205Y-130740436D01*
X133604124Y-130763494D01*
X133722314Y-130763494D01*
X133838233Y-130740436D01*
X133947426Y-130695207D01*
X134045697Y-130629544D01*
X134129269Y-130545972D01*
X134194932Y-130447701D01*
X134240161Y-130338508D01*
X134263219Y-130222589D01*
X134263219Y-130104399D01*
X134251273Y-130044342D01*
X134314753Y-130107823D01*
X134313468Y-130114284D01*
X134313468Y-130232474D01*
X134336526Y-130348393D01*
X134381755Y-130457586D01*
X134447418Y-130555857D01*
X134530990Y-130639429D01*
X134629261Y-130705092D01*
X134738454Y-130750321D01*
X134854373Y-130773379D01*
X134972563Y-130773379D01*
X135088482Y-130750321D01*
X135197675Y-130705092D01*
X135295946Y-130639429D01*
X135379518Y-130555857D01*
X135386652Y-130545180D01*
X135437522Y-130596050D01*
X135535793Y-130661713D01*
X135644986Y-130706942D01*
X135760905Y-130730000D01*
X135879095Y-130730000D01*
X135995014Y-130706942D01*
X136104207Y-130661713D01*
X136202478Y-130596050D01*
X136286050Y-130512478D01*
X136351713Y-130414207D01*
X136396942Y-130305014D01*
X136420000Y-130189095D01*
X136420000Y-130070905D01*
X136396942Y-129954986D01*
X136351713Y-129845793D01*
X136286050Y-129747522D01*
X136202478Y-129663950D01*
X136197000Y-129660290D01*
X136197000Y-129460001D01*
X136280105Y-129460001D01*
X136396024Y-129436943D01*
X136505217Y-129391714D01*
X136603488Y-129326051D01*
X136687060Y-129242479D01*
X136752723Y-129144208D01*
X136770244Y-129101908D01*
X136844783Y-129151713D01*
X136953976Y-129196942D01*
X137069895Y-129220000D01*
X137188085Y-129220000D01*
X137304004Y-129196942D01*
X137413197Y-129151713D01*
X137511468Y-129086050D01*
X137595040Y-129002478D01*
X137660703Y-128904207D01*
X137705932Y-128795014D01*
X137728990Y-128679095D01*
X137728990Y-128560905D01*
X137705932Y-128444986D01*
X137660703Y-128335793D01*
X137595040Y-128237522D01*
X137511468Y-128153950D01*
X137505990Y-128150290D01*
X137505990Y-127541470D01*
X137579024Y-127526942D01*
X137688217Y-127481713D01*
X137786488Y-127416050D01*
X137870060Y-127332478D01*
X137935723Y-127234207D01*
X137980952Y-127125014D01*
X138004010Y-127009095D01*
X138004010Y-126890905D01*
X137980952Y-126774986D01*
X137935723Y-126665793D01*
X137870060Y-126567522D01*
X137786488Y-126483950D01*
X137688217Y-126418287D01*
X137579024Y-126373058D01*
X137463105Y-126350000D01*
X137344915Y-126350000D01*
X137228996Y-126373058D01*
X137119803Y-126418287D01*
X137021532Y-126483950D01*
X136937960Y-126567522D01*
X136872297Y-126665793D01*
X136827068Y-126774986D01*
X136804010Y-126890905D01*
X136804010Y-127009095D01*
X136807514Y-127026710D01*
X136779002Y-127080051D01*
X136757445Y-127151115D01*
X136750167Y-127225020D01*
X136751991Y-127243542D01*
X136751990Y-128150289D01*
X136746512Y-128153950D01*
X136662940Y-128237522D01*
X136597277Y-128335793D01*
X136579756Y-128378093D01*
X136505217Y-128328288D01*
X136396024Y-128283059D01*
X136280105Y-128260001D01*
X136161915Y-128260001D01*
X136045996Y-128283059D01*
X135936803Y-128328288D01*
X135838532Y-128393951D01*
X135754960Y-128477523D01*
X135689297Y-128575794D01*
X135644068Y-128684987D01*
X135621010Y-128800906D01*
X135621010Y-128919096D01*
X135622295Y-128925558D01*
X135566514Y-128981339D01*
X135552132Y-128993142D01*
X135540329Y-129007524D01*
X135540326Y-129007527D01*
X135505020Y-129050548D01*
X135470012Y-129116042D01*
X135448455Y-129187106D01*
X135441177Y-129261011D01*
X135443001Y-129279533D01*
X135443001Y-129660289D01*
X135437522Y-129663950D01*
X135353950Y-129747522D01*
X135346816Y-129758199D01*
X135295946Y-129707329D01*
X135197675Y-129641666D01*
X135088482Y-129596437D01*
X134972563Y-129573379D01*
X134854373Y-129573379D01*
X134847912Y-129574664D01*
X134782138Y-129508891D01*
X134800000Y-129419095D01*
X134800000Y-129300905D01*
X134776942Y-129184986D01*
X134731713Y-129075793D01*
X134666050Y-128977522D01*
X134582478Y-128893950D01*
X134484207Y-128828287D01*
X134375014Y-128783058D01*
X134259095Y-128760000D01*
X134140905Y-128760000D01*
X134024986Y-128783058D01*
X133915793Y-128828287D01*
X133817522Y-128893950D01*
X133733950Y-128977522D01*
X133668287Y-129075793D01*
X133633708Y-129159274D01*
X133616942Y-129074986D01*
X133571713Y-128965793D01*
X133506050Y-128867522D01*
X133422478Y-128783950D01*
X133324207Y-128718287D01*
X133215014Y-128673058D01*
X133099095Y-128650000D01*
X132980905Y-128650000D01*
X132864986Y-128673058D01*
X132755793Y-128718287D01*
X132657522Y-128783950D01*
X132573950Y-128867522D01*
X132508287Y-128965793D01*
X132463058Y-129074986D01*
X132440000Y-129190905D01*
X130657623Y-129190905D01*
X130666050Y-129182478D01*
X130731713Y-129084207D01*
X130776942Y-128975014D01*
X130800000Y-128859095D01*
X130800000Y-128740905D01*
X130776942Y-128624986D01*
X130731713Y-128515793D01*
X130666050Y-128417522D01*
X130582478Y-128333950D01*
X130577000Y-128330290D01*
X130577000Y-123970905D01*
X150430000Y-123970905D01*
X150430000Y-124089095D01*
X150453058Y-124205014D01*
X150498287Y-124314207D01*
X150563950Y-124412478D01*
X150647522Y-124496050D01*
X150653001Y-124499711D01*
X150653000Y-125660290D01*
X150647522Y-125663950D01*
X150563950Y-125747522D01*
X150498287Y-125845793D01*
X150453058Y-125954986D01*
X150430000Y-126070905D01*
X150430000Y-126189095D01*
X150453058Y-126305014D01*
X150498287Y-126414207D01*
X150563950Y-126512478D01*
X150647522Y-126596050D01*
X150745793Y-126661713D01*
X150854986Y-126706942D01*
X150970905Y-126730000D01*
X151089095Y-126730000D01*
X151205014Y-126706942D01*
X151314207Y-126661713D01*
X151412478Y-126596050D01*
X151496050Y-126512478D01*
X151561713Y-126414207D01*
X151606942Y-126305014D01*
X151630000Y-126189095D01*
X151630000Y-126070905D01*
X151606942Y-125954986D01*
X151561713Y-125845793D01*
X151496050Y-125747522D01*
X151412478Y-125663950D01*
X151407000Y-125660290D01*
X151407000Y-124499710D01*
X151412478Y-124496050D01*
X151496050Y-124412478D01*
X151561713Y-124314207D01*
X151606942Y-124205014D01*
X151630000Y-124089095D01*
X151630000Y-123970905D01*
X151606942Y-123854986D01*
X151561713Y-123745793D01*
X151496050Y-123647522D01*
X151479735Y-123631207D01*
X160830000Y-123631207D01*
X160830000Y-123788793D01*
X160860743Y-123943351D01*
X160921049Y-124088942D01*
X161008599Y-124219970D01*
X161120030Y-124331401D01*
X161251058Y-124418951D01*
X161396649Y-124479257D01*
X161551207Y-124510000D01*
X161708793Y-124510000D01*
X161863351Y-124479257D01*
X162008942Y-124418951D01*
X162139970Y-124331401D01*
X162251401Y-124219970D01*
X162338951Y-124088942D01*
X162399257Y-123943351D01*
X162430000Y-123788793D01*
X162430000Y-123631207D01*
X162399257Y-123476649D01*
X162338951Y-123331058D01*
X162251401Y-123200030D01*
X162139970Y-123088599D01*
X162008942Y-123001049D01*
X161863351Y-122940743D01*
X161708793Y-122910000D01*
X161551207Y-122910000D01*
X161396649Y-122940743D01*
X161251058Y-123001049D01*
X161120030Y-123088599D01*
X161008599Y-123200030D01*
X160921049Y-123331058D01*
X160860743Y-123476649D01*
X160830000Y-123631207D01*
X151479735Y-123631207D01*
X151412478Y-123563950D01*
X151314207Y-123498287D01*
X151205014Y-123453058D01*
X151089095Y-123430000D01*
X150970905Y-123430000D01*
X150854986Y-123453058D01*
X150745793Y-123498287D01*
X150647522Y-123563950D01*
X150563950Y-123647522D01*
X150498287Y-123745793D01*
X150453058Y-123854986D01*
X150430000Y-123970905D01*
X130577000Y-123970905D01*
X130577000Y-121540905D01*
X138500000Y-121540905D01*
X138500000Y-121659095D01*
X138523058Y-121775014D01*
X138568287Y-121884207D01*
X138578840Y-121900000D01*
X138568287Y-121915793D01*
X138523058Y-122024986D01*
X138500000Y-122140905D01*
X138500000Y-122259095D01*
X138523058Y-122375014D01*
X138568287Y-122484207D01*
X138633950Y-122582478D01*
X138717522Y-122666050D01*
X138815793Y-122731713D01*
X138924986Y-122776942D01*
X139040905Y-122800000D01*
X139159095Y-122800000D01*
X139275014Y-122776942D01*
X139384207Y-122731713D01*
X139482478Y-122666050D01*
X139566050Y-122582478D01*
X139631713Y-122484207D01*
X139676942Y-122375014D01*
X139700000Y-122259095D01*
X139700000Y-122140905D01*
X139676942Y-122024986D01*
X139631713Y-121915793D01*
X139621160Y-121900000D01*
X139631713Y-121884207D01*
X139676942Y-121775014D01*
X139700000Y-121659095D01*
X139700000Y-121540905D01*
X139676942Y-121424986D01*
X139657748Y-121378647D01*
X140486396Y-120550000D01*
X142801472Y-120550000D01*
X142817522Y-120566050D01*
X142915793Y-120631713D01*
X143024986Y-120676942D01*
X143140905Y-120700000D01*
X143259095Y-120700000D01*
X143375014Y-120676942D01*
X143484207Y-120631713D01*
X143500000Y-120621160D01*
X143515793Y-120631713D01*
X143624986Y-120676942D01*
X143740905Y-120700000D01*
X143859095Y-120700000D01*
X143975014Y-120676942D01*
X144084207Y-120631713D01*
X144182478Y-120566050D01*
X144266050Y-120482478D01*
X144331713Y-120384207D01*
X144376942Y-120275014D01*
X144400000Y-120159095D01*
X144400000Y-120040905D01*
X144376942Y-119924986D01*
X144331713Y-119815793D01*
X144266050Y-119717522D01*
X144182478Y-119633950D01*
X144084207Y-119568287D01*
X143975014Y-119523058D01*
X143859095Y-119500000D01*
X143740905Y-119500000D01*
X143624986Y-119523058D01*
X143515793Y-119568287D01*
X143500000Y-119578840D01*
X143484207Y-119568287D01*
X143375014Y-119523058D01*
X143259095Y-119500000D01*
X143140905Y-119500000D01*
X143024986Y-119523058D01*
X142915793Y-119568287D01*
X142817522Y-119633950D01*
X142801472Y-119650000D01*
X140322091Y-119650000D01*
X140299999Y-119647824D01*
X140277907Y-119650000D01*
X140277895Y-119650000D01*
X140211785Y-119656511D01*
X140126959Y-119682243D01*
X140048783Y-119724029D01*
X139997432Y-119766172D01*
X139997428Y-119766176D01*
X139980263Y-119780263D01*
X139966176Y-119797428D01*
X138797434Y-120966171D01*
X138780263Y-120980263D01*
X138766172Y-120997433D01*
X138724029Y-121048784D01*
X138682244Y-121126959D01*
X138682243Y-121126960D01*
X138663837Y-121187635D01*
X138633950Y-121217522D01*
X138568287Y-121315793D01*
X138523058Y-121424986D01*
X138500000Y-121540905D01*
X130577000Y-121540905D01*
X130577000Y-120669710D01*
X130582478Y-120666050D01*
X130666050Y-120582478D01*
X130731713Y-120484207D01*
X130776942Y-120375014D01*
X130800000Y-120259095D01*
X130800000Y-120140905D01*
X130776942Y-120024986D01*
X130731713Y-119915793D01*
X130666050Y-119817522D01*
X130582478Y-119733950D01*
X130484207Y-119668287D01*
X130375014Y-119623058D01*
X130259095Y-119600000D01*
X130140905Y-119600000D01*
X130024986Y-119623058D01*
X129915793Y-119668287D01*
X129817522Y-119733950D01*
X129733950Y-119817522D01*
X129668287Y-119915793D01*
X129623058Y-120024986D01*
X129600000Y-120140905D01*
X121375000Y-120140905D01*
X121375000Y-119398692D01*
X123763440Y-119398692D01*
X123952627Y-119627963D01*
X124289391Y-119791260D01*
X124651542Y-119885720D01*
X125025163Y-119907713D01*
X125395895Y-119856394D01*
X125749492Y-119733734D01*
X125947373Y-119627963D01*
X126136560Y-119398692D01*
X124950000Y-118212132D01*
X123763440Y-119398692D01*
X121375000Y-119398692D01*
X121375000Y-118075163D01*
X123042287Y-118075163D01*
X123093606Y-118445895D01*
X123216266Y-118799492D01*
X123322037Y-118997373D01*
X123551308Y-119186560D01*
X124737868Y-118000000D01*
X125162132Y-118000000D01*
X126348692Y-119186560D01*
X126577963Y-118997373D01*
X126741260Y-118660609D01*
X126835720Y-118298458D01*
X126857713Y-117924837D01*
X126855785Y-117910905D01*
X131930000Y-117910905D01*
X131930000Y-118029095D01*
X131953058Y-118145014D01*
X131998287Y-118254207D01*
X132063950Y-118352478D01*
X132147522Y-118436050D01*
X132153001Y-118439711D01*
X132153000Y-120220290D01*
X132147522Y-120223950D01*
X132063950Y-120307522D01*
X131998287Y-120405793D01*
X131953058Y-120514986D01*
X131930000Y-120630905D01*
X131930000Y-120749095D01*
X131953058Y-120865014D01*
X131998287Y-120974207D01*
X132063950Y-121072478D01*
X132147522Y-121156050D01*
X132245793Y-121221713D01*
X132354986Y-121266942D01*
X132470905Y-121290000D01*
X132589095Y-121290000D01*
X132705014Y-121266942D01*
X132814207Y-121221713D01*
X132912478Y-121156050D01*
X132996050Y-121072478D01*
X133061713Y-120974207D01*
X133106942Y-120865014D01*
X133130000Y-120749095D01*
X133130000Y-120630905D01*
X133106942Y-120514986D01*
X133061713Y-120405793D01*
X132996050Y-120307522D01*
X132912478Y-120223950D01*
X132907000Y-120220290D01*
X132907000Y-119398692D01*
X160613440Y-119398692D01*
X160802627Y-119627963D01*
X161139391Y-119791260D01*
X161501542Y-119885720D01*
X161875163Y-119907713D01*
X162245895Y-119856394D01*
X162599492Y-119733734D01*
X162797373Y-119627963D01*
X162986560Y-119398692D01*
X161800000Y-118212132D01*
X160613440Y-119398692D01*
X132907000Y-119398692D01*
X132907000Y-118439710D01*
X132912478Y-118436050D01*
X132996050Y-118352478D01*
X133061713Y-118254207D01*
X133106942Y-118145014D01*
X133120836Y-118075163D01*
X159892287Y-118075163D01*
X159943606Y-118445895D01*
X160066266Y-118799492D01*
X160172037Y-118997373D01*
X160401308Y-119186560D01*
X161587868Y-118000000D01*
X162012132Y-118000000D01*
X163198692Y-119186560D01*
X163427963Y-118997373D01*
X163591260Y-118660609D01*
X163685720Y-118298458D01*
X163707713Y-117924837D01*
X163656394Y-117554105D01*
X163533734Y-117200508D01*
X163427963Y-117002627D01*
X163198692Y-116813440D01*
X162012132Y-118000000D01*
X161587868Y-118000000D01*
X160401308Y-116813440D01*
X160172037Y-117002627D01*
X160008740Y-117339391D01*
X159914280Y-117701542D01*
X159892287Y-118075163D01*
X133120836Y-118075163D01*
X133130000Y-118029095D01*
X133130000Y-117910905D01*
X133106942Y-117794986D01*
X133061713Y-117685793D01*
X132996050Y-117587522D01*
X132912478Y-117503950D01*
X132814207Y-117438287D01*
X132705014Y-117393058D01*
X132589095Y-117370000D01*
X132470905Y-117370000D01*
X132354986Y-117393058D01*
X132245793Y-117438287D01*
X132147522Y-117503950D01*
X132063950Y-117587522D01*
X131998287Y-117685793D01*
X131953058Y-117794986D01*
X131930000Y-117910905D01*
X126855785Y-117910905D01*
X126806394Y-117554105D01*
X126683734Y-117200508D01*
X126577963Y-117002627D01*
X126348692Y-116813440D01*
X125162132Y-118000000D01*
X124737868Y-118000000D01*
X123551308Y-116813440D01*
X123322037Y-117002627D01*
X123158740Y-117339391D01*
X123064280Y-117701542D01*
X123042287Y-118075163D01*
X121375000Y-118075163D01*
X121375000Y-116601308D01*
X123763440Y-116601308D01*
X124950000Y-117787868D01*
X126136560Y-116601308D01*
X160613440Y-116601308D01*
X161800000Y-117787868D01*
X162986560Y-116601308D01*
X162797373Y-116372037D01*
X162460609Y-116208740D01*
X162098458Y-116114280D01*
X161724837Y-116092287D01*
X161354105Y-116143606D01*
X161000508Y-116266266D01*
X160802627Y-116372037D01*
X160613440Y-116601308D01*
X126136560Y-116601308D01*
X125947373Y-116372037D01*
X125610609Y-116208740D01*
X125248458Y-116114280D01*
X124874837Y-116092287D01*
X124504105Y-116143606D01*
X124150508Y-116266266D01*
X123952627Y-116372037D01*
X123763440Y-116601308D01*
X121375000Y-116601308D01*
X121375001Y-115918338D01*
X121401999Y-115642991D01*
X121476640Y-115395766D01*
X121597879Y-115167749D01*
X121761095Y-114967627D01*
X121960077Y-114803016D01*
X122187242Y-114680188D01*
X122433931Y-114603825D01*
X122708188Y-114574999D01*
X164081662Y-114575001D01*
M02*
