M48
; DRILL file {KiCad 5.1.2} date Mon 22 Jul 2019 02:15:20 AM CEST
; FORMAT={-:-/ absolute / inch / decimal}
; #@! TF.CreationDate,2019-07-22T02:15:20+02:00
; #@! TF.GenerationSoftware,Kicad,Pcbnew,5.1.2
; #@! TF.FileFunction,Plated,1,2,PTH
FMAT,2
INCH
T1C0.0118
T2C0.0236
%
G90
G05
T1
X4.8425Y-4.6181
X4.8425Y-5.0276
X4.9291Y-5.2835
X4.9331Y-5.3898
X4.9488Y-5.5669
X4.9606Y-4.6575
X4.9606Y-4.7205
X4.9606Y-4.7835
X4.9606Y-4.9567
X4.9606Y-5.0118
X4.9606Y-5.0669
X5.0197Y-5.1299
X5.0945Y-5.2598
X5.0984Y-5.3858
X5.122Y-4.8976
X5.126Y-4.5945
X5.1378Y-4.685
X5.1457Y-4.7992
X5.1457Y-5.122
X5.1535Y-5.0
X5.1906Y-5.3094
X5.1969Y-4.5472
X5.1969Y-4.8543
X5.2087Y-5.2717
X5.2362Y-5.3543
X5.2402Y-4.8189
X5.2559Y-5.2598
X5.2992Y-5.5433
X5.3228Y-4.5354
X5.3228Y-5.4016
X5.3268Y-4.9606
X5.3307Y-4.6811
X5.3331Y-4.9157
X5.3386Y-4.8228
X5.3626Y-4.9157
X5.374Y-5.0472
X5.378Y-4.7283
X5.3976Y-4.878
X5.4213Y-4.6299
X5.4252Y-5.6457
X5.4488Y-4.7913
X5.4567Y-4.9724
X5.4921Y-4.9154
X5.5079Y-4.6339
X5.5173Y-4.8909
X5.5276Y-4.8228
X5.5354Y-5.437
X5.5748Y-4.9173
X5.5787Y-4.748
X5.5866Y-4.5276
X5.5945Y-4.6299
X5.5984Y-5.3937
X5.6102Y-4.9882
X5.6181Y-5.1535
X5.6298Y-5.3016
X5.6378Y-5.2165
X5.6417Y-5.3386
X5.6496Y-5.2795
X5.6535Y-5.0512
X5.6938Y-4.6347
X5.7008Y-5.4331
X5.7087Y-4.8504
X5.7126Y-5.0157
X5.7137Y-4.9572
X5.7253Y-4.6347
X5.7359Y-4.9349
X5.7402Y-4.7402
X5.7559Y-5.4016
X5.7579Y-4.6345
X5.7806Y-5.3846
X5.7894Y-4.6345
X5.8031Y-5.0787
X5.8055Y-5.3649
X5.8071Y-4.7402
X5.815Y-5.2992
X5.823Y-4.6345
X5.8545Y-4.6345
X5.8701Y-5.4606
X5.881Y-4.7432
X5.8857Y-4.8277
X5.8906Y-4.6343
X5.9033Y-4.7655
X5.908Y-4.8054
X5.922Y-4.6343
X5.9444Y-4.958
X5.9449Y-5.2874
X5.9567Y-4.7874
X5.9666Y-4.9357
X5.9685Y-4.8858
X5.9717Y-4.737
X5.9724Y-4.5433
X6.0073Y-4.614
X6.0073Y-4.6455
X6.0138Y-5.0961
X6.0197Y-5.0039
X6.0276Y-4.7421
X6.0297Y-4.5618
X6.0453Y-5.0961
X6.1102Y-5.1575
X6.1417Y-5.4646
X6.1673Y-4.8976
X6.1713Y-5.0472
X6.185Y-4.7618
X6.2815Y-5.0846
X6.2894Y-5.3622
T2
G00X5.5079Y-5.3165
M15
G01X5.5079Y-5.2772
M16
G05
G00X5.5079Y-5.5835
M15
G01X5.5079Y-5.5441
M16
G05
G00X6.1575Y-5.3165
M15
G01X6.1575Y-5.2772
M16
G05
G00X6.1575Y-5.5835
M15
G01X6.1575Y-5.5441
M16
G05
G00X4.8846Y-5.4902
M15
G01X4.8846Y-5.5217
M16
G05
G00X4.8846Y-5.6398
M15
G01X4.8846Y-5.6713
M16
G05
G00X5.2177Y-5.4902
M15
G01X5.2177Y-5.5217
M16
G05
G00X5.2177Y-5.6398
M15
G01X5.2177Y-5.6713
M16
G05
T0
M30
