G04 #@! TF.GenerationSoftware,KiCad,Pcbnew,5.0.1*
G04 #@! TF.CreationDate,2019-09-04T02:10:02+02:00*
G04 #@! TF.ProjectId,OtterScreen,4F7474657253637265656E2E6B696361,rev?*
G04 #@! TF.SameCoordinates,Original*
G04 #@! TF.FileFunction,Paste,Top*
G04 #@! TF.FilePolarity,Positive*
%FSLAX46Y46*%
G04 Gerber Fmt 4.6, Leading zero omitted, Abs format (unit mm)*
G04 Created by KiCad (PCBNEW 5.0.1) date Wed 04 Sep 2019 02:10:02 AM CEST*
%MOMM*%
%LPD*%
G01*
G04 APERTURE LIST*
%ADD10C,0.150000*%
%ADD11C,0.100000*%
%ADD12C,0.875000*%
%ADD13C,0.375000*%
%ADD14C,0.640000*%
%ADD15C,0.975000*%
%ADD16R,2.000000X3.800000*%
%ADD17R,2.000000X1.500000*%
%ADD18R,0.280000X2.400000*%
%ADD19R,1.750000X0.550000*%
%ADD20R,1.400000X1.500000*%
%ADD21R,1.400000X1.200000*%
%ADD22R,3.700000X1.200000*%
%ADD23R,1.200000X3.700000*%
%ADD24R,1.100000X1.100000*%
%ADD25R,0.800000X1.000000*%
%ADD26R,0.700000X1.000000*%
%ADD27R,0.300000X0.950000*%
%ADD28R,0.260000X1.000000*%
%ADD29R,0.450000X0.900000*%
G04 APERTURE END LIST*
D10*
X164099999Y-114200001D02*
G75*
G02X165800000Y-115900000I1J-1700000D01*
G01*
X121000001Y-115900001D02*
G75*
G02X122700000Y-114200000I1700000J1D01*
G01*
X122700001Y-145599999D02*
G75*
G02X121000000Y-143900000I-1J1700000D01*
G01*
X165800000Y-143900000D02*
G75*
G02X164100000Y-145600000I-1700000J0D01*
G01*
X164100000Y-145600000D02*
X136200000Y-145600000D01*
X165800000Y-115900000D02*
X165800000Y-143900000D01*
X122700000Y-114200000D02*
X164099999Y-114200001D01*
X121000000Y-143900000D02*
X121000001Y-115900001D01*
X136200000Y-145600000D02*
X122700001Y-145599999D01*
D11*
G04 #@! TO.C,C10*
G36*
X148877691Y-120151053D02*
X148898926Y-120154203D01*
X148919750Y-120159419D01*
X148939962Y-120166651D01*
X148959368Y-120175830D01*
X148977781Y-120186866D01*
X148995024Y-120199654D01*
X149010930Y-120214070D01*
X149025346Y-120229976D01*
X149038134Y-120247219D01*
X149049170Y-120265632D01*
X149058349Y-120285038D01*
X149065581Y-120305250D01*
X149070797Y-120326074D01*
X149073947Y-120347309D01*
X149075000Y-120368750D01*
X149075000Y-120806250D01*
X149073947Y-120827691D01*
X149070797Y-120848926D01*
X149065581Y-120869750D01*
X149058349Y-120889962D01*
X149049170Y-120909368D01*
X149038134Y-120927781D01*
X149025346Y-120945024D01*
X149010930Y-120960930D01*
X148995024Y-120975346D01*
X148977781Y-120988134D01*
X148959368Y-120999170D01*
X148939962Y-121008349D01*
X148919750Y-121015581D01*
X148898926Y-121020797D01*
X148877691Y-121023947D01*
X148856250Y-121025000D01*
X148343750Y-121025000D01*
X148322309Y-121023947D01*
X148301074Y-121020797D01*
X148280250Y-121015581D01*
X148260038Y-121008349D01*
X148240632Y-120999170D01*
X148222219Y-120988134D01*
X148204976Y-120975346D01*
X148189070Y-120960930D01*
X148174654Y-120945024D01*
X148161866Y-120927781D01*
X148150830Y-120909368D01*
X148141651Y-120889962D01*
X148134419Y-120869750D01*
X148129203Y-120848926D01*
X148126053Y-120827691D01*
X148125000Y-120806250D01*
X148125000Y-120368750D01*
X148126053Y-120347309D01*
X148129203Y-120326074D01*
X148134419Y-120305250D01*
X148141651Y-120285038D01*
X148150830Y-120265632D01*
X148161866Y-120247219D01*
X148174654Y-120229976D01*
X148189070Y-120214070D01*
X148204976Y-120199654D01*
X148222219Y-120186866D01*
X148240632Y-120175830D01*
X148260038Y-120166651D01*
X148280250Y-120159419D01*
X148301074Y-120154203D01*
X148322309Y-120151053D01*
X148343750Y-120150000D01*
X148856250Y-120150000D01*
X148877691Y-120151053D01*
X148877691Y-120151053D01*
G37*
D12*
X148600000Y-120587500D03*
D11*
G36*
X148877691Y-118576053D02*
X148898926Y-118579203D01*
X148919750Y-118584419D01*
X148939962Y-118591651D01*
X148959368Y-118600830D01*
X148977781Y-118611866D01*
X148995024Y-118624654D01*
X149010930Y-118639070D01*
X149025346Y-118654976D01*
X149038134Y-118672219D01*
X149049170Y-118690632D01*
X149058349Y-118710038D01*
X149065581Y-118730250D01*
X149070797Y-118751074D01*
X149073947Y-118772309D01*
X149075000Y-118793750D01*
X149075000Y-119231250D01*
X149073947Y-119252691D01*
X149070797Y-119273926D01*
X149065581Y-119294750D01*
X149058349Y-119314962D01*
X149049170Y-119334368D01*
X149038134Y-119352781D01*
X149025346Y-119370024D01*
X149010930Y-119385930D01*
X148995024Y-119400346D01*
X148977781Y-119413134D01*
X148959368Y-119424170D01*
X148939962Y-119433349D01*
X148919750Y-119440581D01*
X148898926Y-119445797D01*
X148877691Y-119448947D01*
X148856250Y-119450000D01*
X148343750Y-119450000D01*
X148322309Y-119448947D01*
X148301074Y-119445797D01*
X148280250Y-119440581D01*
X148260038Y-119433349D01*
X148240632Y-119424170D01*
X148222219Y-119413134D01*
X148204976Y-119400346D01*
X148189070Y-119385930D01*
X148174654Y-119370024D01*
X148161866Y-119352781D01*
X148150830Y-119334368D01*
X148141651Y-119314962D01*
X148134419Y-119294750D01*
X148129203Y-119273926D01*
X148126053Y-119252691D01*
X148125000Y-119231250D01*
X148125000Y-118793750D01*
X148126053Y-118772309D01*
X148129203Y-118751074D01*
X148134419Y-118730250D01*
X148141651Y-118710038D01*
X148150830Y-118690632D01*
X148161866Y-118672219D01*
X148174654Y-118654976D01*
X148189070Y-118639070D01*
X148204976Y-118624654D01*
X148222219Y-118611866D01*
X148240632Y-118600830D01*
X148260038Y-118591651D01*
X148280250Y-118584419D01*
X148301074Y-118579203D01*
X148322309Y-118576053D01*
X148343750Y-118575000D01*
X148856250Y-118575000D01*
X148877691Y-118576053D01*
X148877691Y-118576053D01*
G37*
D12*
X148600000Y-119012500D03*
G04 #@! TD*
D11*
G04 #@! TO.C,C11*
G36*
X142427691Y-121226053D02*
X142448926Y-121229203D01*
X142469750Y-121234419D01*
X142489962Y-121241651D01*
X142509368Y-121250830D01*
X142527781Y-121261866D01*
X142545024Y-121274654D01*
X142560930Y-121289070D01*
X142575346Y-121304976D01*
X142588134Y-121322219D01*
X142599170Y-121340632D01*
X142608349Y-121360038D01*
X142615581Y-121380250D01*
X142620797Y-121401074D01*
X142623947Y-121422309D01*
X142625000Y-121443750D01*
X142625000Y-121956250D01*
X142623947Y-121977691D01*
X142620797Y-121998926D01*
X142615581Y-122019750D01*
X142608349Y-122039962D01*
X142599170Y-122059368D01*
X142588134Y-122077781D01*
X142575346Y-122095024D01*
X142560930Y-122110930D01*
X142545024Y-122125346D01*
X142527781Y-122138134D01*
X142509368Y-122149170D01*
X142489962Y-122158349D01*
X142469750Y-122165581D01*
X142448926Y-122170797D01*
X142427691Y-122173947D01*
X142406250Y-122175000D01*
X141968750Y-122175000D01*
X141947309Y-122173947D01*
X141926074Y-122170797D01*
X141905250Y-122165581D01*
X141885038Y-122158349D01*
X141865632Y-122149170D01*
X141847219Y-122138134D01*
X141829976Y-122125346D01*
X141814070Y-122110930D01*
X141799654Y-122095024D01*
X141786866Y-122077781D01*
X141775830Y-122059368D01*
X141766651Y-122039962D01*
X141759419Y-122019750D01*
X141754203Y-121998926D01*
X141751053Y-121977691D01*
X141750000Y-121956250D01*
X141750000Y-121443750D01*
X141751053Y-121422309D01*
X141754203Y-121401074D01*
X141759419Y-121380250D01*
X141766651Y-121360038D01*
X141775830Y-121340632D01*
X141786866Y-121322219D01*
X141799654Y-121304976D01*
X141814070Y-121289070D01*
X141829976Y-121274654D01*
X141847219Y-121261866D01*
X141865632Y-121250830D01*
X141885038Y-121241651D01*
X141905250Y-121234419D01*
X141926074Y-121229203D01*
X141947309Y-121226053D01*
X141968750Y-121225000D01*
X142406250Y-121225000D01*
X142427691Y-121226053D01*
X142427691Y-121226053D01*
G37*
D12*
X142187500Y-121700000D03*
D11*
G36*
X140852691Y-121226053D02*
X140873926Y-121229203D01*
X140894750Y-121234419D01*
X140914962Y-121241651D01*
X140934368Y-121250830D01*
X140952781Y-121261866D01*
X140970024Y-121274654D01*
X140985930Y-121289070D01*
X141000346Y-121304976D01*
X141013134Y-121322219D01*
X141024170Y-121340632D01*
X141033349Y-121360038D01*
X141040581Y-121380250D01*
X141045797Y-121401074D01*
X141048947Y-121422309D01*
X141050000Y-121443750D01*
X141050000Y-121956250D01*
X141048947Y-121977691D01*
X141045797Y-121998926D01*
X141040581Y-122019750D01*
X141033349Y-122039962D01*
X141024170Y-122059368D01*
X141013134Y-122077781D01*
X141000346Y-122095024D01*
X140985930Y-122110930D01*
X140970024Y-122125346D01*
X140952781Y-122138134D01*
X140934368Y-122149170D01*
X140914962Y-122158349D01*
X140894750Y-122165581D01*
X140873926Y-122170797D01*
X140852691Y-122173947D01*
X140831250Y-122175000D01*
X140393750Y-122175000D01*
X140372309Y-122173947D01*
X140351074Y-122170797D01*
X140330250Y-122165581D01*
X140310038Y-122158349D01*
X140290632Y-122149170D01*
X140272219Y-122138134D01*
X140254976Y-122125346D01*
X140239070Y-122110930D01*
X140224654Y-122095024D01*
X140211866Y-122077781D01*
X140200830Y-122059368D01*
X140191651Y-122039962D01*
X140184419Y-122019750D01*
X140179203Y-121998926D01*
X140176053Y-121977691D01*
X140175000Y-121956250D01*
X140175000Y-121443750D01*
X140176053Y-121422309D01*
X140179203Y-121401074D01*
X140184419Y-121380250D01*
X140191651Y-121360038D01*
X140200830Y-121340632D01*
X140211866Y-121322219D01*
X140224654Y-121304976D01*
X140239070Y-121289070D01*
X140254976Y-121274654D01*
X140272219Y-121261866D01*
X140290632Y-121250830D01*
X140310038Y-121241651D01*
X140330250Y-121234419D01*
X140351074Y-121229203D01*
X140372309Y-121226053D01*
X140393750Y-121225000D01*
X140831250Y-121225000D01*
X140852691Y-121226053D01*
X140852691Y-121226053D01*
G37*
D12*
X140612500Y-121700000D03*
G04 #@! TD*
D11*
G04 #@! TO.C,U3*
G36*
X151990439Y-117250451D02*
X151999540Y-117251801D01*
X152008464Y-117254037D01*
X152017127Y-117257136D01*
X152025443Y-117261070D01*
X152033335Y-117265800D01*
X152040724Y-117271280D01*
X152047541Y-117277459D01*
X152053720Y-117284276D01*
X152059200Y-117291665D01*
X152063930Y-117299557D01*
X152067864Y-117307873D01*
X152070963Y-117316536D01*
X152073199Y-117325460D01*
X152074549Y-117334561D01*
X152075000Y-117343750D01*
X152075000Y-117556250D01*
X152074549Y-117565439D01*
X152073199Y-117574540D01*
X152070963Y-117583464D01*
X152067864Y-117592127D01*
X152063930Y-117600443D01*
X152059200Y-117608335D01*
X152053720Y-117615724D01*
X152047541Y-117622541D01*
X152040724Y-117628720D01*
X152033335Y-117634200D01*
X152025443Y-117638930D01*
X152017127Y-117642864D01*
X152008464Y-117645963D01*
X151999540Y-117648199D01*
X151990439Y-117649549D01*
X151981250Y-117650000D01*
X151793750Y-117650000D01*
X151784561Y-117649549D01*
X151775460Y-117648199D01*
X151766536Y-117645963D01*
X151757873Y-117642864D01*
X151749557Y-117638930D01*
X151741665Y-117634200D01*
X151734276Y-117628720D01*
X151727459Y-117622541D01*
X151721280Y-117615724D01*
X151715800Y-117608335D01*
X151711070Y-117600443D01*
X151707136Y-117592127D01*
X151704037Y-117583464D01*
X151701801Y-117574540D01*
X151700451Y-117565439D01*
X151700000Y-117556250D01*
X151700000Y-117343750D01*
X151700451Y-117334561D01*
X151701801Y-117325460D01*
X151704037Y-117316536D01*
X151707136Y-117307873D01*
X151711070Y-117299557D01*
X151715800Y-117291665D01*
X151721280Y-117284276D01*
X151727459Y-117277459D01*
X151734276Y-117271280D01*
X151741665Y-117265800D01*
X151749557Y-117261070D01*
X151757873Y-117257136D01*
X151766536Y-117254037D01*
X151775460Y-117251801D01*
X151784561Y-117250451D01*
X151793750Y-117250000D01*
X151981250Y-117250000D01*
X151990439Y-117250451D01*
X151990439Y-117250451D01*
G37*
D13*
X151887500Y-117450000D03*
D11*
G36*
X151990439Y-117900451D02*
X151999540Y-117901801D01*
X152008464Y-117904037D01*
X152017127Y-117907136D01*
X152025443Y-117911070D01*
X152033335Y-117915800D01*
X152040724Y-117921280D01*
X152047541Y-117927459D01*
X152053720Y-117934276D01*
X152059200Y-117941665D01*
X152063930Y-117949557D01*
X152067864Y-117957873D01*
X152070963Y-117966536D01*
X152073199Y-117975460D01*
X152074549Y-117984561D01*
X152075000Y-117993750D01*
X152075000Y-118206250D01*
X152074549Y-118215439D01*
X152073199Y-118224540D01*
X152070963Y-118233464D01*
X152067864Y-118242127D01*
X152063930Y-118250443D01*
X152059200Y-118258335D01*
X152053720Y-118265724D01*
X152047541Y-118272541D01*
X152040724Y-118278720D01*
X152033335Y-118284200D01*
X152025443Y-118288930D01*
X152017127Y-118292864D01*
X152008464Y-118295963D01*
X151999540Y-118298199D01*
X151990439Y-118299549D01*
X151981250Y-118300000D01*
X151793750Y-118300000D01*
X151784561Y-118299549D01*
X151775460Y-118298199D01*
X151766536Y-118295963D01*
X151757873Y-118292864D01*
X151749557Y-118288930D01*
X151741665Y-118284200D01*
X151734276Y-118278720D01*
X151727459Y-118272541D01*
X151721280Y-118265724D01*
X151715800Y-118258335D01*
X151711070Y-118250443D01*
X151707136Y-118242127D01*
X151704037Y-118233464D01*
X151701801Y-118224540D01*
X151700451Y-118215439D01*
X151700000Y-118206250D01*
X151700000Y-117993750D01*
X151700451Y-117984561D01*
X151701801Y-117975460D01*
X151704037Y-117966536D01*
X151707136Y-117957873D01*
X151711070Y-117949557D01*
X151715800Y-117941665D01*
X151721280Y-117934276D01*
X151727459Y-117927459D01*
X151734276Y-117921280D01*
X151741665Y-117915800D01*
X151749557Y-117911070D01*
X151757873Y-117907136D01*
X151766536Y-117904037D01*
X151775460Y-117901801D01*
X151784561Y-117900451D01*
X151793750Y-117900000D01*
X151981250Y-117900000D01*
X151990439Y-117900451D01*
X151990439Y-117900451D01*
G37*
D13*
X151887500Y-118100000D03*
D11*
G36*
X151990439Y-118550451D02*
X151999540Y-118551801D01*
X152008464Y-118554037D01*
X152017127Y-118557136D01*
X152025443Y-118561070D01*
X152033335Y-118565800D01*
X152040724Y-118571280D01*
X152047541Y-118577459D01*
X152053720Y-118584276D01*
X152059200Y-118591665D01*
X152063930Y-118599557D01*
X152067864Y-118607873D01*
X152070963Y-118616536D01*
X152073199Y-118625460D01*
X152074549Y-118634561D01*
X152075000Y-118643750D01*
X152075000Y-118856250D01*
X152074549Y-118865439D01*
X152073199Y-118874540D01*
X152070963Y-118883464D01*
X152067864Y-118892127D01*
X152063930Y-118900443D01*
X152059200Y-118908335D01*
X152053720Y-118915724D01*
X152047541Y-118922541D01*
X152040724Y-118928720D01*
X152033335Y-118934200D01*
X152025443Y-118938930D01*
X152017127Y-118942864D01*
X152008464Y-118945963D01*
X151999540Y-118948199D01*
X151990439Y-118949549D01*
X151981250Y-118950000D01*
X151793750Y-118950000D01*
X151784561Y-118949549D01*
X151775460Y-118948199D01*
X151766536Y-118945963D01*
X151757873Y-118942864D01*
X151749557Y-118938930D01*
X151741665Y-118934200D01*
X151734276Y-118928720D01*
X151727459Y-118922541D01*
X151721280Y-118915724D01*
X151715800Y-118908335D01*
X151711070Y-118900443D01*
X151707136Y-118892127D01*
X151704037Y-118883464D01*
X151701801Y-118874540D01*
X151700451Y-118865439D01*
X151700000Y-118856250D01*
X151700000Y-118643750D01*
X151700451Y-118634561D01*
X151701801Y-118625460D01*
X151704037Y-118616536D01*
X151707136Y-118607873D01*
X151711070Y-118599557D01*
X151715800Y-118591665D01*
X151721280Y-118584276D01*
X151727459Y-118577459D01*
X151734276Y-118571280D01*
X151741665Y-118565800D01*
X151749557Y-118561070D01*
X151757873Y-118557136D01*
X151766536Y-118554037D01*
X151775460Y-118551801D01*
X151784561Y-118550451D01*
X151793750Y-118550000D01*
X151981250Y-118550000D01*
X151990439Y-118550451D01*
X151990439Y-118550451D01*
G37*
D13*
X151887500Y-118750000D03*
D11*
G36*
X150215439Y-118550451D02*
X150224540Y-118551801D01*
X150233464Y-118554037D01*
X150242127Y-118557136D01*
X150250443Y-118561070D01*
X150258335Y-118565800D01*
X150265724Y-118571280D01*
X150272541Y-118577459D01*
X150278720Y-118584276D01*
X150284200Y-118591665D01*
X150288930Y-118599557D01*
X150292864Y-118607873D01*
X150295963Y-118616536D01*
X150298199Y-118625460D01*
X150299549Y-118634561D01*
X150300000Y-118643750D01*
X150300000Y-118856250D01*
X150299549Y-118865439D01*
X150298199Y-118874540D01*
X150295963Y-118883464D01*
X150292864Y-118892127D01*
X150288930Y-118900443D01*
X150284200Y-118908335D01*
X150278720Y-118915724D01*
X150272541Y-118922541D01*
X150265724Y-118928720D01*
X150258335Y-118934200D01*
X150250443Y-118938930D01*
X150242127Y-118942864D01*
X150233464Y-118945963D01*
X150224540Y-118948199D01*
X150215439Y-118949549D01*
X150206250Y-118950000D01*
X150018750Y-118950000D01*
X150009561Y-118949549D01*
X150000460Y-118948199D01*
X149991536Y-118945963D01*
X149982873Y-118942864D01*
X149974557Y-118938930D01*
X149966665Y-118934200D01*
X149959276Y-118928720D01*
X149952459Y-118922541D01*
X149946280Y-118915724D01*
X149940800Y-118908335D01*
X149936070Y-118900443D01*
X149932136Y-118892127D01*
X149929037Y-118883464D01*
X149926801Y-118874540D01*
X149925451Y-118865439D01*
X149925000Y-118856250D01*
X149925000Y-118643750D01*
X149925451Y-118634561D01*
X149926801Y-118625460D01*
X149929037Y-118616536D01*
X149932136Y-118607873D01*
X149936070Y-118599557D01*
X149940800Y-118591665D01*
X149946280Y-118584276D01*
X149952459Y-118577459D01*
X149959276Y-118571280D01*
X149966665Y-118565800D01*
X149974557Y-118561070D01*
X149982873Y-118557136D01*
X149991536Y-118554037D01*
X150000460Y-118551801D01*
X150009561Y-118550451D01*
X150018750Y-118550000D01*
X150206250Y-118550000D01*
X150215439Y-118550451D01*
X150215439Y-118550451D01*
G37*
D13*
X150112500Y-118750000D03*
D11*
G36*
X150215439Y-117900451D02*
X150224540Y-117901801D01*
X150233464Y-117904037D01*
X150242127Y-117907136D01*
X150250443Y-117911070D01*
X150258335Y-117915800D01*
X150265724Y-117921280D01*
X150272541Y-117927459D01*
X150278720Y-117934276D01*
X150284200Y-117941665D01*
X150288930Y-117949557D01*
X150292864Y-117957873D01*
X150295963Y-117966536D01*
X150298199Y-117975460D01*
X150299549Y-117984561D01*
X150300000Y-117993750D01*
X150300000Y-118206250D01*
X150299549Y-118215439D01*
X150298199Y-118224540D01*
X150295963Y-118233464D01*
X150292864Y-118242127D01*
X150288930Y-118250443D01*
X150284200Y-118258335D01*
X150278720Y-118265724D01*
X150272541Y-118272541D01*
X150265724Y-118278720D01*
X150258335Y-118284200D01*
X150250443Y-118288930D01*
X150242127Y-118292864D01*
X150233464Y-118295963D01*
X150224540Y-118298199D01*
X150215439Y-118299549D01*
X150206250Y-118300000D01*
X150018750Y-118300000D01*
X150009561Y-118299549D01*
X150000460Y-118298199D01*
X149991536Y-118295963D01*
X149982873Y-118292864D01*
X149974557Y-118288930D01*
X149966665Y-118284200D01*
X149959276Y-118278720D01*
X149952459Y-118272541D01*
X149946280Y-118265724D01*
X149940800Y-118258335D01*
X149936070Y-118250443D01*
X149932136Y-118242127D01*
X149929037Y-118233464D01*
X149926801Y-118224540D01*
X149925451Y-118215439D01*
X149925000Y-118206250D01*
X149925000Y-117993750D01*
X149925451Y-117984561D01*
X149926801Y-117975460D01*
X149929037Y-117966536D01*
X149932136Y-117957873D01*
X149936070Y-117949557D01*
X149940800Y-117941665D01*
X149946280Y-117934276D01*
X149952459Y-117927459D01*
X149959276Y-117921280D01*
X149966665Y-117915800D01*
X149974557Y-117911070D01*
X149982873Y-117907136D01*
X149991536Y-117904037D01*
X150000460Y-117901801D01*
X150009561Y-117900451D01*
X150018750Y-117900000D01*
X150206250Y-117900000D01*
X150215439Y-117900451D01*
X150215439Y-117900451D01*
G37*
D13*
X150112500Y-118100000D03*
D11*
G36*
X150215439Y-117250451D02*
X150224540Y-117251801D01*
X150233464Y-117254037D01*
X150242127Y-117257136D01*
X150250443Y-117261070D01*
X150258335Y-117265800D01*
X150265724Y-117271280D01*
X150272541Y-117277459D01*
X150278720Y-117284276D01*
X150284200Y-117291665D01*
X150288930Y-117299557D01*
X150292864Y-117307873D01*
X150295963Y-117316536D01*
X150298199Y-117325460D01*
X150299549Y-117334561D01*
X150300000Y-117343750D01*
X150300000Y-117556250D01*
X150299549Y-117565439D01*
X150298199Y-117574540D01*
X150295963Y-117583464D01*
X150292864Y-117592127D01*
X150288930Y-117600443D01*
X150284200Y-117608335D01*
X150278720Y-117615724D01*
X150272541Y-117622541D01*
X150265724Y-117628720D01*
X150258335Y-117634200D01*
X150250443Y-117638930D01*
X150242127Y-117642864D01*
X150233464Y-117645963D01*
X150224540Y-117648199D01*
X150215439Y-117649549D01*
X150206250Y-117650000D01*
X150018750Y-117650000D01*
X150009561Y-117649549D01*
X150000460Y-117648199D01*
X149991536Y-117645963D01*
X149982873Y-117642864D01*
X149974557Y-117638930D01*
X149966665Y-117634200D01*
X149959276Y-117628720D01*
X149952459Y-117622541D01*
X149946280Y-117615724D01*
X149940800Y-117608335D01*
X149936070Y-117600443D01*
X149932136Y-117592127D01*
X149929037Y-117583464D01*
X149926801Y-117574540D01*
X149925451Y-117565439D01*
X149925000Y-117556250D01*
X149925000Y-117343750D01*
X149925451Y-117334561D01*
X149926801Y-117325460D01*
X149929037Y-117316536D01*
X149932136Y-117307873D01*
X149936070Y-117299557D01*
X149940800Y-117291665D01*
X149946280Y-117284276D01*
X149952459Y-117277459D01*
X149959276Y-117271280D01*
X149966665Y-117265800D01*
X149974557Y-117261070D01*
X149982873Y-117257136D01*
X149991536Y-117254037D01*
X150000460Y-117251801D01*
X150009561Y-117250451D01*
X150018750Y-117250000D01*
X150206250Y-117250000D01*
X150215439Y-117250451D01*
X150215439Y-117250451D01*
G37*
D13*
X150112500Y-117450000D03*
D11*
G36*
X151260683Y-118180770D02*
X151276214Y-118183074D01*
X151291446Y-118186890D01*
X151306229Y-118192179D01*
X151320423Y-118198893D01*
X151333891Y-118206965D01*
X151346503Y-118216318D01*
X151358137Y-118226863D01*
X151368682Y-118238497D01*
X151378035Y-118251109D01*
X151386107Y-118264577D01*
X151392821Y-118278771D01*
X151398110Y-118293554D01*
X151401926Y-118308786D01*
X151404230Y-118324317D01*
X151405000Y-118340000D01*
X151405000Y-118660000D01*
X151404230Y-118675683D01*
X151401926Y-118691214D01*
X151398110Y-118706446D01*
X151392821Y-118721229D01*
X151386107Y-118735423D01*
X151378035Y-118748891D01*
X151368682Y-118761503D01*
X151358137Y-118773137D01*
X151346503Y-118783682D01*
X151333891Y-118793035D01*
X151320423Y-118801107D01*
X151306229Y-118807821D01*
X151291446Y-118813110D01*
X151276214Y-118816926D01*
X151260683Y-118819230D01*
X151245000Y-118820000D01*
X150755000Y-118820000D01*
X150739317Y-118819230D01*
X150723786Y-118816926D01*
X150708554Y-118813110D01*
X150693771Y-118807821D01*
X150679577Y-118801107D01*
X150666109Y-118793035D01*
X150653497Y-118783682D01*
X150641863Y-118773137D01*
X150631318Y-118761503D01*
X150621965Y-118748891D01*
X150613893Y-118735423D01*
X150607179Y-118721229D01*
X150601890Y-118706446D01*
X150598074Y-118691214D01*
X150595770Y-118675683D01*
X150595000Y-118660000D01*
X150595000Y-118340000D01*
X150595770Y-118324317D01*
X150598074Y-118308786D01*
X150601890Y-118293554D01*
X150607179Y-118278771D01*
X150613893Y-118264577D01*
X150621965Y-118251109D01*
X150631318Y-118238497D01*
X150641863Y-118226863D01*
X150653497Y-118216318D01*
X150666109Y-118206965D01*
X150679577Y-118198893D01*
X150693771Y-118192179D01*
X150708554Y-118186890D01*
X150723786Y-118183074D01*
X150739317Y-118180770D01*
X150755000Y-118180000D01*
X151245000Y-118180000D01*
X151260683Y-118180770D01*
X151260683Y-118180770D01*
G37*
D14*
X151000000Y-118500000D03*
D11*
G36*
X151260683Y-117380770D02*
X151276214Y-117383074D01*
X151291446Y-117386890D01*
X151306229Y-117392179D01*
X151320423Y-117398893D01*
X151333891Y-117406965D01*
X151346503Y-117416318D01*
X151358137Y-117426863D01*
X151368682Y-117438497D01*
X151378035Y-117451109D01*
X151386107Y-117464577D01*
X151392821Y-117478771D01*
X151398110Y-117493554D01*
X151401926Y-117508786D01*
X151404230Y-117524317D01*
X151405000Y-117540000D01*
X151405000Y-117860000D01*
X151404230Y-117875683D01*
X151401926Y-117891214D01*
X151398110Y-117906446D01*
X151392821Y-117921229D01*
X151386107Y-117935423D01*
X151378035Y-117948891D01*
X151368682Y-117961503D01*
X151358137Y-117973137D01*
X151346503Y-117983682D01*
X151333891Y-117993035D01*
X151320423Y-118001107D01*
X151306229Y-118007821D01*
X151291446Y-118013110D01*
X151276214Y-118016926D01*
X151260683Y-118019230D01*
X151245000Y-118020000D01*
X150755000Y-118020000D01*
X150739317Y-118019230D01*
X150723786Y-118016926D01*
X150708554Y-118013110D01*
X150693771Y-118007821D01*
X150679577Y-118001107D01*
X150666109Y-117993035D01*
X150653497Y-117983682D01*
X150641863Y-117973137D01*
X150631318Y-117961503D01*
X150621965Y-117948891D01*
X150613893Y-117935423D01*
X150607179Y-117921229D01*
X150601890Y-117906446D01*
X150598074Y-117891214D01*
X150595770Y-117875683D01*
X150595000Y-117860000D01*
X150595000Y-117540000D01*
X150595770Y-117524317D01*
X150598074Y-117508786D01*
X150601890Y-117493554D01*
X150607179Y-117478771D01*
X150613893Y-117464577D01*
X150621965Y-117451109D01*
X150631318Y-117438497D01*
X150641863Y-117426863D01*
X150653497Y-117416318D01*
X150666109Y-117406965D01*
X150679577Y-117398893D01*
X150693771Y-117392179D01*
X150708554Y-117386890D01*
X150723786Y-117383074D01*
X150739317Y-117380770D01*
X150755000Y-117380000D01*
X151245000Y-117380000D01*
X151260683Y-117380770D01*
X151260683Y-117380770D01*
G37*
D14*
X151000000Y-117700000D03*
G04 #@! TD*
D11*
G04 #@! TO.C,U4*
G36*
X143075683Y-123795770D02*
X143091214Y-123798074D01*
X143106446Y-123801890D01*
X143121229Y-123807179D01*
X143135423Y-123813893D01*
X143148891Y-123821965D01*
X143161503Y-123831318D01*
X143173137Y-123841863D01*
X143183682Y-123853497D01*
X143193035Y-123866109D01*
X143201107Y-123879577D01*
X143207821Y-123893771D01*
X143213110Y-123908554D01*
X143216926Y-123923786D01*
X143219230Y-123939317D01*
X143220000Y-123955000D01*
X143220000Y-124445000D01*
X143219230Y-124460683D01*
X143216926Y-124476214D01*
X143213110Y-124491446D01*
X143207821Y-124506229D01*
X143201107Y-124520423D01*
X143193035Y-124533891D01*
X143183682Y-124546503D01*
X143173137Y-124558137D01*
X143161503Y-124568682D01*
X143148891Y-124578035D01*
X143135423Y-124586107D01*
X143121229Y-124592821D01*
X143106446Y-124598110D01*
X143091214Y-124601926D01*
X143075683Y-124604230D01*
X143060000Y-124605000D01*
X142740000Y-124605000D01*
X142724317Y-124604230D01*
X142708786Y-124601926D01*
X142693554Y-124598110D01*
X142678771Y-124592821D01*
X142664577Y-124586107D01*
X142651109Y-124578035D01*
X142638497Y-124568682D01*
X142626863Y-124558137D01*
X142616318Y-124546503D01*
X142606965Y-124533891D01*
X142598893Y-124520423D01*
X142592179Y-124506229D01*
X142586890Y-124491446D01*
X142583074Y-124476214D01*
X142580770Y-124460683D01*
X142580000Y-124445000D01*
X142580000Y-123955000D01*
X142580770Y-123939317D01*
X142583074Y-123923786D01*
X142586890Y-123908554D01*
X142592179Y-123893771D01*
X142598893Y-123879577D01*
X142606965Y-123866109D01*
X142616318Y-123853497D01*
X142626863Y-123841863D01*
X142638497Y-123831318D01*
X142651109Y-123821965D01*
X142664577Y-123813893D01*
X142678771Y-123807179D01*
X142693554Y-123801890D01*
X142708786Y-123798074D01*
X142724317Y-123795770D01*
X142740000Y-123795000D01*
X143060000Y-123795000D01*
X143075683Y-123795770D01*
X143075683Y-123795770D01*
G37*
D14*
X142900000Y-124200000D03*
D11*
G36*
X142275683Y-123795770D02*
X142291214Y-123798074D01*
X142306446Y-123801890D01*
X142321229Y-123807179D01*
X142335423Y-123813893D01*
X142348891Y-123821965D01*
X142361503Y-123831318D01*
X142373137Y-123841863D01*
X142383682Y-123853497D01*
X142393035Y-123866109D01*
X142401107Y-123879577D01*
X142407821Y-123893771D01*
X142413110Y-123908554D01*
X142416926Y-123923786D01*
X142419230Y-123939317D01*
X142420000Y-123955000D01*
X142420000Y-124445000D01*
X142419230Y-124460683D01*
X142416926Y-124476214D01*
X142413110Y-124491446D01*
X142407821Y-124506229D01*
X142401107Y-124520423D01*
X142393035Y-124533891D01*
X142383682Y-124546503D01*
X142373137Y-124558137D01*
X142361503Y-124568682D01*
X142348891Y-124578035D01*
X142335423Y-124586107D01*
X142321229Y-124592821D01*
X142306446Y-124598110D01*
X142291214Y-124601926D01*
X142275683Y-124604230D01*
X142260000Y-124605000D01*
X141940000Y-124605000D01*
X141924317Y-124604230D01*
X141908786Y-124601926D01*
X141893554Y-124598110D01*
X141878771Y-124592821D01*
X141864577Y-124586107D01*
X141851109Y-124578035D01*
X141838497Y-124568682D01*
X141826863Y-124558137D01*
X141816318Y-124546503D01*
X141806965Y-124533891D01*
X141798893Y-124520423D01*
X141792179Y-124506229D01*
X141786890Y-124491446D01*
X141783074Y-124476214D01*
X141780770Y-124460683D01*
X141780000Y-124445000D01*
X141780000Y-123955000D01*
X141780770Y-123939317D01*
X141783074Y-123923786D01*
X141786890Y-123908554D01*
X141792179Y-123893771D01*
X141798893Y-123879577D01*
X141806965Y-123866109D01*
X141816318Y-123853497D01*
X141826863Y-123841863D01*
X141838497Y-123831318D01*
X141851109Y-123821965D01*
X141864577Y-123813893D01*
X141878771Y-123807179D01*
X141893554Y-123801890D01*
X141908786Y-123798074D01*
X141924317Y-123795770D01*
X141940000Y-123795000D01*
X142260000Y-123795000D01*
X142275683Y-123795770D01*
X142275683Y-123795770D01*
G37*
D14*
X142100000Y-124200000D03*
D11*
G36*
X143265439Y-123125451D02*
X143274540Y-123126801D01*
X143283464Y-123129037D01*
X143292127Y-123132136D01*
X143300443Y-123136070D01*
X143308335Y-123140800D01*
X143315724Y-123146280D01*
X143322541Y-123152459D01*
X143328720Y-123159276D01*
X143334200Y-123166665D01*
X143338930Y-123174557D01*
X143342864Y-123182873D01*
X143345963Y-123191536D01*
X143348199Y-123200460D01*
X143349549Y-123209561D01*
X143350000Y-123218750D01*
X143350000Y-123406250D01*
X143349549Y-123415439D01*
X143348199Y-123424540D01*
X143345963Y-123433464D01*
X143342864Y-123442127D01*
X143338930Y-123450443D01*
X143334200Y-123458335D01*
X143328720Y-123465724D01*
X143322541Y-123472541D01*
X143315724Y-123478720D01*
X143308335Y-123484200D01*
X143300443Y-123488930D01*
X143292127Y-123492864D01*
X143283464Y-123495963D01*
X143274540Y-123498199D01*
X143265439Y-123499549D01*
X143256250Y-123500000D01*
X143043750Y-123500000D01*
X143034561Y-123499549D01*
X143025460Y-123498199D01*
X143016536Y-123495963D01*
X143007873Y-123492864D01*
X142999557Y-123488930D01*
X142991665Y-123484200D01*
X142984276Y-123478720D01*
X142977459Y-123472541D01*
X142971280Y-123465724D01*
X142965800Y-123458335D01*
X142961070Y-123450443D01*
X142957136Y-123442127D01*
X142954037Y-123433464D01*
X142951801Y-123424540D01*
X142950451Y-123415439D01*
X142950000Y-123406250D01*
X142950000Y-123218750D01*
X142950451Y-123209561D01*
X142951801Y-123200460D01*
X142954037Y-123191536D01*
X142957136Y-123182873D01*
X142961070Y-123174557D01*
X142965800Y-123166665D01*
X142971280Y-123159276D01*
X142977459Y-123152459D01*
X142984276Y-123146280D01*
X142991665Y-123140800D01*
X142999557Y-123136070D01*
X143007873Y-123132136D01*
X143016536Y-123129037D01*
X143025460Y-123126801D01*
X143034561Y-123125451D01*
X143043750Y-123125000D01*
X143256250Y-123125000D01*
X143265439Y-123125451D01*
X143265439Y-123125451D01*
G37*
D13*
X143150000Y-123312500D03*
D11*
G36*
X142615439Y-123125451D02*
X142624540Y-123126801D01*
X142633464Y-123129037D01*
X142642127Y-123132136D01*
X142650443Y-123136070D01*
X142658335Y-123140800D01*
X142665724Y-123146280D01*
X142672541Y-123152459D01*
X142678720Y-123159276D01*
X142684200Y-123166665D01*
X142688930Y-123174557D01*
X142692864Y-123182873D01*
X142695963Y-123191536D01*
X142698199Y-123200460D01*
X142699549Y-123209561D01*
X142700000Y-123218750D01*
X142700000Y-123406250D01*
X142699549Y-123415439D01*
X142698199Y-123424540D01*
X142695963Y-123433464D01*
X142692864Y-123442127D01*
X142688930Y-123450443D01*
X142684200Y-123458335D01*
X142678720Y-123465724D01*
X142672541Y-123472541D01*
X142665724Y-123478720D01*
X142658335Y-123484200D01*
X142650443Y-123488930D01*
X142642127Y-123492864D01*
X142633464Y-123495963D01*
X142624540Y-123498199D01*
X142615439Y-123499549D01*
X142606250Y-123500000D01*
X142393750Y-123500000D01*
X142384561Y-123499549D01*
X142375460Y-123498199D01*
X142366536Y-123495963D01*
X142357873Y-123492864D01*
X142349557Y-123488930D01*
X142341665Y-123484200D01*
X142334276Y-123478720D01*
X142327459Y-123472541D01*
X142321280Y-123465724D01*
X142315800Y-123458335D01*
X142311070Y-123450443D01*
X142307136Y-123442127D01*
X142304037Y-123433464D01*
X142301801Y-123424540D01*
X142300451Y-123415439D01*
X142300000Y-123406250D01*
X142300000Y-123218750D01*
X142300451Y-123209561D01*
X142301801Y-123200460D01*
X142304037Y-123191536D01*
X142307136Y-123182873D01*
X142311070Y-123174557D01*
X142315800Y-123166665D01*
X142321280Y-123159276D01*
X142327459Y-123152459D01*
X142334276Y-123146280D01*
X142341665Y-123140800D01*
X142349557Y-123136070D01*
X142357873Y-123132136D01*
X142366536Y-123129037D01*
X142375460Y-123126801D01*
X142384561Y-123125451D01*
X142393750Y-123125000D01*
X142606250Y-123125000D01*
X142615439Y-123125451D01*
X142615439Y-123125451D01*
G37*
D13*
X142500000Y-123312500D03*
D11*
G36*
X141965439Y-123125451D02*
X141974540Y-123126801D01*
X141983464Y-123129037D01*
X141992127Y-123132136D01*
X142000443Y-123136070D01*
X142008335Y-123140800D01*
X142015724Y-123146280D01*
X142022541Y-123152459D01*
X142028720Y-123159276D01*
X142034200Y-123166665D01*
X142038930Y-123174557D01*
X142042864Y-123182873D01*
X142045963Y-123191536D01*
X142048199Y-123200460D01*
X142049549Y-123209561D01*
X142050000Y-123218750D01*
X142050000Y-123406250D01*
X142049549Y-123415439D01*
X142048199Y-123424540D01*
X142045963Y-123433464D01*
X142042864Y-123442127D01*
X142038930Y-123450443D01*
X142034200Y-123458335D01*
X142028720Y-123465724D01*
X142022541Y-123472541D01*
X142015724Y-123478720D01*
X142008335Y-123484200D01*
X142000443Y-123488930D01*
X141992127Y-123492864D01*
X141983464Y-123495963D01*
X141974540Y-123498199D01*
X141965439Y-123499549D01*
X141956250Y-123500000D01*
X141743750Y-123500000D01*
X141734561Y-123499549D01*
X141725460Y-123498199D01*
X141716536Y-123495963D01*
X141707873Y-123492864D01*
X141699557Y-123488930D01*
X141691665Y-123484200D01*
X141684276Y-123478720D01*
X141677459Y-123472541D01*
X141671280Y-123465724D01*
X141665800Y-123458335D01*
X141661070Y-123450443D01*
X141657136Y-123442127D01*
X141654037Y-123433464D01*
X141651801Y-123424540D01*
X141650451Y-123415439D01*
X141650000Y-123406250D01*
X141650000Y-123218750D01*
X141650451Y-123209561D01*
X141651801Y-123200460D01*
X141654037Y-123191536D01*
X141657136Y-123182873D01*
X141661070Y-123174557D01*
X141665800Y-123166665D01*
X141671280Y-123159276D01*
X141677459Y-123152459D01*
X141684276Y-123146280D01*
X141691665Y-123140800D01*
X141699557Y-123136070D01*
X141707873Y-123132136D01*
X141716536Y-123129037D01*
X141725460Y-123126801D01*
X141734561Y-123125451D01*
X141743750Y-123125000D01*
X141956250Y-123125000D01*
X141965439Y-123125451D01*
X141965439Y-123125451D01*
G37*
D13*
X141850000Y-123312500D03*
D11*
G36*
X141965439Y-124900451D02*
X141974540Y-124901801D01*
X141983464Y-124904037D01*
X141992127Y-124907136D01*
X142000443Y-124911070D01*
X142008335Y-124915800D01*
X142015724Y-124921280D01*
X142022541Y-124927459D01*
X142028720Y-124934276D01*
X142034200Y-124941665D01*
X142038930Y-124949557D01*
X142042864Y-124957873D01*
X142045963Y-124966536D01*
X142048199Y-124975460D01*
X142049549Y-124984561D01*
X142050000Y-124993750D01*
X142050000Y-125181250D01*
X142049549Y-125190439D01*
X142048199Y-125199540D01*
X142045963Y-125208464D01*
X142042864Y-125217127D01*
X142038930Y-125225443D01*
X142034200Y-125233335D01*
X142028720Y-125240724D01*
X142022541Y-125247541D01*
X142015724Y-125253720D01*
X142008335Y-125259200D01*
X142000443Y-125263930D01*
X141992127Y-125267864D01*
X141983464Y-125270963D01*
X141974540Y-125273199D01*
X141965439Y-125274549D01*
X141956250Y-125275000D01*
X141743750Y-125275000D01*
X141734561Y-125274549D01*
X141725460Y-125273199D01*
X141716536Y-125270963D01*
X141707873Y-125267864D01*
X141699557Y-125263930D01*
X141691665Y-125259200D01*
X141684276Y-125253720D01*
X141677459Y-125247541D01*
X141671280Y-125240724D01*
X141665800Y-125233335D01*
X141661070Y-125225443D01*
X141657136Y-125217127D01*
X141654037Y-125208464D01*
X141651801Y-125199540D01*
X141650451Y-125190439D01*
X141650000Y-125181250D01*
X141650000Y-124993750D01*
X141650451Y-124984561D01*
X141651801Y-124975460D01*
X141654037Y-124966536D01*
X141657136Y-124957873D01*
X141661070Y-124949557D01*
X141665800Y-124941665D01*
X141671280Y-124934276D01*
X141677459Y-124927459D01*
X141684276Y-124921280D01*
X141691665Y-124915800D01*
X141699557Y-124911070D01*
X141707873Y-124907136D01*
X141716536Y-124904037D01*
X141725460Y-124901801D01*
X141734561Y-124900451D01*
X141743750Y-124900000D01*
X141956250Y-124900000D01*
X141965439Y-124900451D01*
X141965439Y-124900451D01*
G37*
D13*
X141850000Y-125087500D03*
D11*
G36*
X142615439Y-124900451D02*
X142624540Y-124901801D01*
X142633464Y-124904037D01*
X142642127Y-124907136D01*
X142650443Y-124911070D01*
X142658335Y-124915800D01*
X142665724Y-124921280D01*
X142672541Y-124927459D01*
X142678720Y-124934276D01*
X142684200Y-124941665D01*
X142688930Y-124949557D01*
X142692864Y-124957873D01*
X142695963Y-124966536D01*
X142698199Y-124975460D01*
X142699549Y-124984561D01*
X142700000Y-124993750D01*
X142700000Y-125181250D01*
X142699549Y-125190439D01*
X142698199Y-125199540D01*
X142695963Y-125208464D01*
X142692864Y-125217127D01*
X142688930Y-125225443D01*
X142684200Y-125233335D01*
X142678720Y-125240724D01*
X142672541Y-125247541D01*
X142665724Y-125253720D01*
X142658335Y-125259200D01*
X142650443Y-125263930D01*
X142642127Y-125267864D01*
X142633464Y-125270963D01*
X142624540Y-125273199D01*
X142615439Y-125274549D01*
X142606250Y-125275000D01*
X142393750Y-125275000D01*
X142384561Y-125274549D01*
X142375460Y-125273199D01*
X142366536Y-125270963D01*
X142357873Y-125267864D01*
X142349557Y-125263930D01*
X142341665Y-125259200D01*
X142334276Y-125253720D01*
X142327459Y-125247541D01*
X142321280Y-125240724D01*
X142315800Y-125233335D01*
X142311070Y-125225443D01*
X142307136Y-125217127D01*
X142304037Y-125208464D01*
X142301801Y-125199540D01*
X142300451Y-125190439D01*
X142300000Y-125181250D01*
X142300000Y-124993750D01*
X142300451Y-124984561D01*
X142301801Y-124975460D01*
X142304037Y-124966536D01*
X142307136Y-124957873D01*
X142311070Y-124949557D01*
X142315800Y-124941665D01*
X142321280Y-124934276D01*
X142327459Y-124927459D01*
X142334276Y-124921280D01*
X142341665Y-124915800D01*
X142349557Y-124911070D01*
X142357873Y-124907136D01*
X142366536Y-124904037D01*
X142375460Y-124901801D01*
X142384561Y-124900451D01*
X142393750Y-124900000D01*
X142606250Y-124900000D01*
X142615439Y-124900451D01*
X142615439Y-124900451D01*
G37*
D13*
X142500000Y-125087500D03*
D11*
G36*
X143265439Y-124900451D02*
X143274540Y-124901801D01*
X143283464Y-124904037D01*
X143292127Y-124907136D01*
X143300443Y-124911070D01*
X143308335Y-124915800D01*
X143315724Y-124921280D01*
X143322541Y-124927459D01*
X143328720Y-124934276D01*
X143334200Y-124941665D01*
X143338930Y-124949557D01*
X143342864Y-124957873D01*
X143345963Y-124966536D01*
X143348199Y-124975460D01*
X143349549Y-124984561D01*
X143350000Y-124993750D01*
X143350000Y-125181250D01*
X143349549Y-125190439D01*
X143348199Y-125199540D01*
X143345963Y-125208464D01*
X143342864Y-125217127D01*
X143338930Y-125225443D01*
X143334200Y-125233335D01*
X143328720Y-125240724D01*
X143322541Y-125247541D01*
X143315724Y-125253720D01*
X143308335Y-125259200D01*
X143300443Y-125263930D01*
X143292127Y-125267864D01*
X143283464Y-125270963D01*
X143274540Y-125273199D01*
X143265439Y-125274549D01*
X143256250Y-125275000D01*
X143043750Y-125275000D01*
X143034561Y-125274549D01*
X143025460Y-125273199D01*
X143016536Y-125270963D01*
X143007873Y-125267864D01*
X142999557Y-125263930D01*
X142991665Y-125259200D01*
X142984276Y-125253720D01*
X142977459Y-125247541D01*
X142971280Y-125240724D01*
X142965800Y-125233335D01*
X142961070Y-125225443D01*
X142957136Y-125217127D01*
X142954037Y-125208464D01*
X142951801Y-125199540D01*
X142950451Y-125190439D01*
X142950000Y-125181250D01*
X142950000Y-124993750D01*
X142950451Y-124984561D01*
X142951801Y-124975460D01*
X142954037Y-124966536D01*
X142957136Y-124957873D01*
X142961070Y-124949557D01*
X142965800Y-124941665D01*
X142971280Y-124934276D01*
X142977459Y-124927459D01*
X142984276Y-124921280D01*
X142991665Y-124915800D01*
X142999557Y-124911070D01*
X143007873Y-124907136D01*
X143016536Y-124904037D01*
X143025460Y-124901801D01*
X143034561Y-124900451D01*
X143043750Y-124900000D01*
X143256250Y-124900000D01*
X143265439Y-124900451D01*
X143265439Y-124900451D01*
G37*
D13*
X143150000Y-125087500D03*
G04 #@! TD*
D11*
G04 #@! TO.C,C8*
G36*
X123960142Y-129901174D02*
X123983803Y-129904684D01*
X124007007Y-129910496D01*
X124029529Y-129918554D01*
X124051153Y-129928782D01*
X124071670Y-129941079D01*
X124090883Y-129955329D01*
X124108607Y-129971393D01*
X124124671Y-129989117D01*
X124138921Y-130008330D01*
X124151218Y-130028847D01*
X124161446Y-130050471D01*
X124169504Y-130072993D01*
X124175316Y-130096197D01*
X124178826Y-130119858D01*
X124180000Y-130143750D01*
X124180000Y-131056250D01*
X124178826Y-131080142D01*
X124175316Y-131103803D01*
X124169504Y-131127007D01*
X124161446Y-131149529D01*
X124151218Y-131171153D01*
X124138921Y-131191670D01*
X124124671Y-131210883D01*
X124108607Y-131228607D01*
X124090883Y-131244671D01*
X124071670Y-131258921D01*
X124051153Y-131271218D01*
X124029529Y-131281446D01*
X124007007Y-131289504D01*
X123983803Y-131295316D01*
X123960142Y-131298826D01*
X123936250Y-131300000D01*
X123448750Y-131300000D01*
X123424858Y-131298826D01*
X123401197Y-131295316D01*
X123377993Y-131289504D01*
X123355471Y-131281446D01*
X123333847Y-131271218D01*
X123313330Y-131258921D01*
X123294117Y-131244671D01*
X123276393Y-131228607D01*
X123260329Y-131210883D01*
X123246079Y-131191670D01*
X123233782Y-131171153D01*
X123223554Y-131149529D01*
X123215496Y-131127007D01*
X123209684Y-131103803D01*
X123206174Y-131080142D01*
X123205000Y-131056250D01*
X123205000Y-130143750D01*
X123206174Y-130119858D01*
X123209684Y-130096197D01*
X123215496Y-130072993D01*
X123223554Y-130050471D01*
X123233782Y-130028847D01*
X123246079Y-130008330D01*
X123260329Y-129989117D01*
X123276393Y-129971393D01*
X123294117Y-129955329D01*
X123313330Y-129941079D01*
X123333847Y-129928782D01*
X123355471Y-129918554D01*
X123377993Y-129910496D01*
X123401197Y-129904684D01*
X123424858Y-129901174D01*
X123448750Y-129900000D01*
X123936250Y-129900000D01*
X123960142Y-129901174D01*
X123960142Y-129901174D01*
G37*
D15*
X123692500Y-130600000D03*
D11*
G36*
X125835142Y-129901174D02*
X125858803Y-129904684D01*
X125882007Y-129910496D01*
X125904529Y-129918554D01*
X125926153Y-129928782D01*
X125946670Y-129941079D01*
X125965883Y-129955329D01*
X125983607Y-129971393D01*
X125999671Y-129989117D01*
X126013921Y-130008330D01*
X126026218Y-130028847D01*
X126036446Y-130050471D01*
X126044504Y-130072993D01*
X126050316Y-130096197D01*
X126053826Y-130119858D01*
X126055000Y-130143750D01*
X126055000Y-131056250D01*
X126053826Y-131080142D01*
X126050316Y-131103803D01*
X126044504Y-131127007D01*
X126036446Y-131149529D01*
X126026218Y-131171153D01*
X126013921Y-131191670D01*
X125999671Y-131210883D01*
X125983607Y-131228607D01*
X125965883Y-131244671D01*
X125946670Y-131258921D01*
X125926153Y-131271218D01*
X125904529Y-131281446D01*
X125882007Y-131289504D01*
X125858803Y-131295316D01*
X125835142Y-131298826D01*
X125811250Y-131300000D01*
X125323750Y-131300000D01*
X125299858Y-131298826D01*
X125276197Y-131295316D01*
X125252993Y-131289504D01*
X125230471Y-131281446D01*
X125208847Y-131271218D01*
X125188330Y-131258921D01*
X125169117Y-131244671D01*
X125151393Y-131228607D01*
X125135329Y-131210883D01*
X125121079Y-131191670D01*
X125108782Y-131171153D01*
X125098554Y-131149529D01*
X125090496Y-131127007D01*
X125084684Y-131103803D01*
X125081174Y-131080142D01*
X125080000Y-131056250D01*
X125080000Y-130143750D01*
X125081174Y-130119858D01*
X125084684Y-130096197D01*
X125090496Y-130072993D01*
X125098554Y-130050471D01*
X125108782Y-130028847D01*
X125121079Y-130008330D01*
X125135329Y-129989117D01*
X125151393Y-129971393D01*
X125169117Y-129955329D01*
X125188330Y-129941079D01*
X125208847Y-129928782D01*
X125230471Y-129918554D01*
X125252993Y-129910496D01*
X125276197Y-129904684D01*
X125299858Y-129901174D01*
X125323750Y-129900000D01*
X125811250Y-129900000D01*
X125835142Y-129901174D01*
X125835142Y-129901174D01*
G37*
D15*
X125567500Y-130600000D03*
G04 #@! TD*
D11*
G04 #@! TO.C,C9*
G36*
X131275142Y-120771174D02*
X131298803Y-120774684D01*
X131322007Y-120780496D01*
X131344529Y-120788554D01*
X131366153Y-120798782D01*
X131386670Y-120811079D01*
X131405883Y-120825329D01*
X131423607Y-120841393D01*
X131439671Y-120859117D01*
X131453921Y-120878330D01*
X131466218Y-120898847D01*
X131476446Y-120920471D01*
X131484504Y-120942993D01*
X131490316Y-120966197D01*
X131493826Y-120989858D01*
X131495000Y-121013750D01*
X131495000Y-121926250D01*
X131493826Y-121950142D01*
X131490316Y-121973803D01*
X131484504Y-121997007D01*
X131476446Y-122019529D01*
X131466218Y-122041153D01*
X131453921Y-122061670D01*
X131439671Y-122080883D01*
X131423607Y-122098607D01*
X131405883Y-122114671D01*
X131386670Y-122128921D01*
X131366153Y-122141218D01*
X131344529Y-122151446D01*
X131322007Y-122159504D01*
X131298803Y-122165316D01*
X131275142Y-122168826D01*
X131251250Y-122170000D01*
X130763750Y-122170000D01*
X130739858Y-122168826D01*
X130716197Y-122165316D01*
X130692993Y-122159504D01*
X130670471Y-122151446D01*
X130648847Y-122141218D01*
X130628330Y-122128921D01*
X130609117Y-122114671D01*
X130591393Y-122098607D01*
X130575329Y-122080883D01*
X130561079Y-122061670D01*
X130548782Y-122041153D01*
X130538554Y-122019529D01*
X130530496Y-121997007D01*
X130524684Y-121973803D01*
X130521174Y-121950142D01*
X130520000Y-121926250D01*
X130520000Y-121013750D01*
X130521174Y-120989858D01*
X130524684Y-120966197D01*
X130530496Y-120942993D01*
X130538554Y-120920471D01*
X130548782Y-120898847D01*
X130561079Y-120878330D01*
X130575329Y-120859117D01*
X130591393Y-120841393D01*
X130609117Y-120825329D01*
X130628330Y-120811079D01*
X130648847Y-120798782D01*
X130670471Y-120788554D01*
X130692993Y-120780496D01*
X130716197Y-120774684D01*
X130739858Y-120771174D01*
X130763750Y-120770000D01*
X131251250Y-120770000D01*
X131275142Y-120771174D01*
X131275142Y-120771174D01*
G37*
D15*
X131007500Y-121470000D03*
D11*
G36*
X129400142Y-120771174D02*
X129423803Y-120774684D01*
X129447007Y-120780496D01*
X129469529Y-120788554D01*
X129491153Y-120798782D01*
X129511670Y-120811079D01*
X129530883Y-120825329D01*
X129548607Y-120841393D01*
X129564671Y-120859117D01*
X129578921Y-120878330D01*
X129591218Y-120898847D01*
X129601446Y-120920471D01*
X129609504Y-120942993D01*
X129615316Y-120966197D01*
X129618826Y-120989858D01*
X129620000Y-121013750D01*
X129620000Y-121926250D01*
X129618826Y-121950142D01*
X129615316Y-121973803D01*
X129609504Y-121997007D01*
X129601446Y-122019529D01*
X129591218Y-122041153D01*
X129578921Y-122061670D01*
X129564671Y-122080883D01*
X129548607Y-122098607D01*
X129530883Y-122114671D01*
X129511670Y-122128921D01*
X129491153Y-122141218D01*
X129469529Y-122151446D01*
X129447007Y-122159504D01*
X129423803Y-122165316D01*
X129400142Y-122168826D01*
X129376250Y-122170000D01*
X128888750Y-122170000D01*
X128864858Y-122168826D01*
X128841197Y-122165316D01*
X128817993Y-122159504D01*
X128795471Y-122151446D01*
X128773847Y-122141218D01*
X128753330Y-122128921D01*
X128734117Y-122114671D01*
X128716393Y-122098607D01*
X128700329Y-122080883D01*
X128686079Y-122061670D01*
X128673782Y-122041153D01*
X128663554Y-122019529D01*
X128655496Y-121997007D01*
X128649684Y-121973803D01*
X128646174Y-121950142D01*
X128645000Y-121926250D01*
X128645000Y-121013750D01*
X128646174Y-120989858D01*
X128649684Y-120966197D01*
X128655496Y-120942993D01*
X128663554Y-120920471D01*
X128673782Y-120898847D01*
X128686079Y-120878330D01*
X128700329Y-120859117D01*
X128716393Y-120841393D01*
X128734117Y-120825329D01*
X128753330Y-120811079D01*
X128773847Y-120798782D01*
X128795471Y-120788554D01*
X128817993Y-120780496D01*
X128841197Y-120774684D01*
X128864858Y-120771174D01*
X128888750Y-120770000D01*
X129376250Y-120770000D01*
X129400142Y-120771174D01*
X129400142Y-120771174D01*
G37*
D15*
X129132500Y-121470000D03*
G04 #@! TD*
D16*
G04 #@! TO.C,U5*
X130500000Y-126020000D03*
D17*
X124200000Y-126020000D03*
X124200000Y-128320000D03*
X124200000Y-123720000D03*
G04 #@! TD*
D18*
G04 #@! TO.C,J1*
X138200000Y-132090000D03*
X137700000Y-132090000D03*
X137200000Y-132090000D03*
X136700000Y-132090000D03*
X136200000Y-132090000D03*
X135700000Y-132090000D03*
X135200000Y-132090000D03*
X134700000Y-132090000D03*
X134200000Y-132090000D03*
X133700000Y-132090000D03*
X133200000Y-132090000D03*
X132700000Y-132090000D03*
X132200000Y-132090000D03*
X131700000Y-132090000D03*
X131200000Y-132090000D03*
X130700000Y-132090000D03*
X130200000Y-132090000D03*
X129700000Y-132090000D03*
X129200000Y-132090000D03*
X128700000Y-132090000D03*
G04 #@! TD*
D19*
G04 #@! TO.C,U2*
X150380000Y-137825000D03*
X150380000Y-139095000D03*
X150380000Y-140365000D03*
X150380000Y-141635000D03*
X142980000Y-141635000D03*
X142980000Y-140365000D03*
X142980000Y-139095000D03*
X142980000Y-137825000D03*
G04 #@! TD*
D20*
G04 #@! TO.C,R8*
X164130000Y-122460000D03*
X164130000Y-138560000D03*
D21*
X154130000Y-134510000D03*
X154130000Y-126510000D03*
X154130000Y-132510000D03*
X154130000Y-128510000D03*
X154130000Y-130510000D03*
G04 #@! TD*
D11*
G04 #@! TO.C,R7*
G36*
X148880142Y-115176174D02*
X148903803Y-115179684D01*
X148927007Y-115185496D01*
X148949529Y-115193554D01*
X148971153Y-115203782D01*
X148991670Y-115216079D01*
X149010883Y-115230329D01*
X149028607Y-115246393D01*
X149044671Y-115264117D01*
X149058921Y-115283330D01*
X149071218Y-115303847D01*
X149081446Y-115325471D01*
X149089504Y-115347993D01*
X149095316Y-115371197D01*
X149098826Y-115394858D01*
X149100000Y-115418750D01*
X149100000Y-115906250D01*
X149098826Y-115930142D01*
X149095316Y-115953803D01*
X149089504Y-115977007D01*
X149081446Y-115999529D01*
X149071218Y-116021153D01*
X149058921Y-116041670D01*
X149044671Y-116060883D01*
X149028607Y-116078607D01*
X149010883Y-116094671D01*
X148991670Y-116108921D01*
X148971153Y-116121218D01*
X148949529Y-116131446D01*
X148927007Y-116139504D01*
X148903803Y-116145316D01*
X148880142Y-116148826D01*
X148856250Y-116150000D01*
X147943750Y-116150000D01*
X147919858Y-116148826D01*
X147896197Y-116145316D01*
X147872993Y-116139504D01*
X147850471Y-116131446D01*
X147828847Y-116121218D01*
X147808330Y-116108921D01*
X147789117Y-116094671D01*
X147771393Y-116078607D01*
X147755329Y-116060883D01*
X147741079Y-116041670D01*
X147728782Y-116021153D01*
X147718554Y-115999529D01*
X147710496Y-115977007D01*
X147704684Y-115953803D01*
X147701174Y-115930142D01*
X147700000Y-115906250D01*
X147700000Y-115418750D01*
X147701174Y-115394858D01*
X147704684Y-115371197D01*
X147710496Y-115347993D01*
X147718554Y-115325471D01*
X147728782Y-115303847D01*
X147741079Y-115283330D01*
X147755329Y-115264117D01*
X147771393Y-115246393D01*
X147789117Y-115230329D01*
X147808330Y-115216079D01*
X147828847Y-115203782D01*
X147850471Y-115193554D01*
X147872993Y-115185496D01*
X147896197Y-115179684D01*
X147919858Y-115176174D01*
X147943750Y-115175000D01*
X148856250Y-115175000D01*
X148880142Y-115176174D01*
X148880142Y-115176174D01*
G37*
D15*
X148400000Y-115662500D03*
D11*
G36*
X148880142Y-117051174D02*
X148903803Y-117054684D01*
X148927007Y-117060496D01*
X148949529Y-117068554D01*
X148971153Y-117078782D01*
X148991670Y-117091079D01*
X149010883Y-117105329D01*
X149028607Y-117121393D01*
X149044671Y-117139117D01*
X149058921Y-117158330D01*
X149071218Y-117178847D01*
X149081446Y-117200471D01*
X149089504Y-117222993D01*
X149095316Y-117246197D01*
X149098826Y-117269858D01*
X149100000Y-117293750D01*
X149100000Y-117781250D01*
X149098826Y-117805142D01*
X149095316Y-117828803D01*
X149089504Y-117852007D01*
X149081446Y-117874529D01*
X149071218Y-117896153D01*
X149058921Y-117916670D01*
X149044671Y-117935883D01*
X149028607Y-117953607D01*
X149010883Y-117969671D01*
X148991670Y-117983921D01*
X148971153Y-117996218D01*
X148949529Y-118006446D01*
X148927007Y-118014504D01*
X148903803Y-118020316D01*
X148880142Y-118023826D01*
X148856250Y-118025000D01*
X147943750Y-118025000D01*
X147919858Y-118023826D01*
X147896197Y-118020316D01*
X147872993Y-118014504D01*
X147850471Y-118006446D01*
X147828847Y-117996218D01*
X147808330Y-117983921D01*
X147789117Y-117969671D01*
X147771393Y-117953607D01*
X147755329Y-117935883D01*
X147741079Y-117916670D01*
X147728782Y-117896153D01*
X147718554Y-117874529D01*
X147710496Y-117852007D01*
X147704684Y-117828803D01*
X147701174Y-117805142D01*
X147700000Y-117781250D01*
X147700000Y-117293750D01*
X147701174Y-117269858D01*
X147704684Y-117246197D01*
X147710496Y-117222993D01*
X147718554Y-117200471D01*
X147728782Y-117178847D01*
X147741079Y-117158330D01*
X147755329Y-117139117D01*
X147771393Y-117121393D01*
X147789117Y-117105329D01*
X147808330Y-117091079D01*
X147828847Y-117078782D01*
X147850471Y-117068554D01*
X147872993Y-117060496D01*
X147896197Y-117054684D01*
X147919858Y-117051174D01*
X147943750Y-117050000D01*
X148856250Y-117050000D01*
X148880142Y-117051174D01*
X148880142Y-117051174D01*
G37*
D15*
X148400000Y-117537500D03*
G04 #@! TD*
D11*
G04 #@! TO.C,R6*
G36*
X145805142Y-120801173D02*
X145828803Y-120804683D01*
X145852007Y-120810495D01*
X145874529Y-120818553D01*
X145896153Y-120828781D01*
X145916670Y-120841078D01*
X145935883Y-120855328D01*
X145953607Y-120871392D01*
X145969671Y-120889116D01*
X145983921Y-120908329D01*
X145996218Y-120928846D01*
X146006446Y-120950470D01*
X146014504Y-120972992D01*
X146020316Y-120996196D01*
X146023826Y-121019857D01*
X146025000Y-121043749D01*
X146025000Y-121956249D01*
X146023826Y-121980141D01*
X146020316Y-122003802D01*
X146014504Y-122027006D01*
X146006446Y-122049528D01*
X145996218Y-122071152D01*
X145983921Y-122091669D01*
X145969671Y-122110882D01*
X145953607Y-122128606D01*
X145935883Y-122144670D01*
X145916670Y-122158920D01*
X145896153Y-122171217D01*
X145874529Y-122181445D01*
X145852007Y-122189503D01*
X145828803Y-122195315D01*
X145805142Y-122198825D01*
X145781250Y-122199999D01*
X145293750Y-122199999D01*
X145269858Y-122198825D01*
X145246197Y-122195315D01*
X145222993Y-122189503D01*
X145200471Y-122181445D01*
X145178847Y-122171217D01*
X145158330Y-122158920D01*
X145139117Y-122144670D01*
X145121393Y-122128606D01*
X145105329Y-122110882D01*
X145091079Y-122091669D01*
X145078782Y-122071152D01*
X145068554Y-122049528D01*
X145060496Y-122027006D01*
X145054684Y-122003802D01*
X145051174Y-121980141D01*
X145050000Y-121956249D01*
X145050000Y-121043749D01*
X145051174Y-121019857D01*
X145054684Y-120996196D01*
X145060496Y-120972992D01*
X145068554Y-120950470D01*
X145078782Y-120928846D01*
X145091079Y-120908329D01*
X145105329Y-120889116D01*
X145121393Y-120871392D01*
X145139117Y-120855328D01*
X145158330Y-120841078D01*
X145178847Y-120828781D01*
X145200471Y-120818553D01*
X145222993Y-120810495D01*
X145246197Y-120804683D01*
X145269858Y-120801173D01*
X145293750Y-120799999D01*
X145781250Y-120799999D01*
X145805142Y-120801173D01*
X145805142Y-120801173D01*
G37*
D15*
X145537500Y-121499999D03*
D11*
G36*
X143930142Y-120801173D02*
X143953803Y-120804683D01*
X143977007Y-120810495D01*
X143999529Y-120818553D01*
X144021153Y-120828781D01*
X144041670Y-120841078D01*
X144060883Y-120855328D01*
X144078607Y-120871392D01*
X144094671Y-120889116D01*
X144108921Y-120908329D01*
X144121218Y-120928846D01*
X144131446Y-120950470D01*
X144139504Y-120972992D01*
X144145316Y-120996196D01*
X144148826Y-121019857D01*
X144150000Y-121043749D01*
X144150000Y-121956249D01*
X144148826Y-121980141D01*
X144145316Y-122003802D01*
X144139504Y-122027006D01*
X144131446Y-122049528D01*
X144121218Y-122071152D01*
X144108921Y-122091669D01*
X144094671Y-122110882D01*
X144078607Y-122128606D01*
X144060883Y-122144670D01*
X144041670Y-122158920D01*
X144021153Y-122171217D01*
X143999529Y-122181445D01*
X143977007Y-122189503D01*
X143953803Y-122195315D01*
X143930142Y-122198825D01*
X143906250Y-122199999D01*
X143418750Y-122199999D01*
X143394858Y-122198825D01*
X143371197Y-122195315D01*
X143347993Y-122189503D01*
X143325471Y-122181445D01*
X143303847Y-122171217D01*
X143283330Y-122158920D01*
X143264117Y-122144670D01*
X143246393Y-122128606D01*
X143230329Y-122110882D01*
X143216079Y-122091669D01*
X143203782Y-122071152D01*
X143193554Y-122049528D01*
X143185496Y-122027006D01*
X143179684Y-122003802D01*
X143176174Y-121980141D01*
X143175000Y-121956249D01*
X143175000Y-121043749D01*
X143176174Y-121019857D01*
X143179684Y-120996196D01*
X143185496Y-120972992D01*
X143193554Y-120950470D01*
X143203782Y-120928846D01*
X143216079Y-120908329D01*
X143230329Y-120889116D01*
X143246393Y-120871392D01*
X143264117Y-120855328D01*
X143283330Y-120841078D01*
X143303847Y-120828781D01*
X143325471Y-120818553D01*
X143347993Y-120810495D01*
X143371197Y-120804683D01*
X143394858Y-120801173D01*
X143418750Y-120799999D01*
X143906250Y-120799999D01*
X143930142Y-120801173D01*
X143930142Y-120801173D01*
G37*
D15*
X143662500Y-121499999D03*
G04 #@! TD*
D11*
G04 #@! TO.C,R5*
G36*
X154057691Y-136706053D02*
X154078926Y-136709203D01*
X154099750Y-136714419D01*
X154119962Y-136721651D01*
X154139368Y-136730830D01*
X154157781Y-136741866D01*
X154175024Y-136754654D01*
X154190930Y-136769070D01*
X154205346Y-136784976D01*
X154218134Y-136802219D01*
X154229170Y-136820632D01*
X154238349Y-136840038D01*
X154245581Y-136860250D01*
X154250797Y-136881074D01*
X154253947Y-136902309D01*
X154255000Y-136923750D01*
X154255000Y-137436250D01*
X154253947Y-137457691D01*
X154250797Y-137478926D01*
X154245581Y-137499750D01*
X154238349Y-137519962D01*
X154229170Y-137539368D01*
X154218134Y-137557781D01*
X154205346Y-137575024D01*
X154190930Y-137590930D01*
X154175024Y-137605346D01*
X154157781Y-137618134D01*
X154139368Y-137629170D01*
X154119962Y-137638349D01*
X154099750Y-137645581D01*
X154078926Y-137650797D01*
X154057691Y-137653947D01*
X154036250Y-137655000D01*
X153598750Y-137655000D01*
X153577309Y-137653947D01*
X153556074Y-137650797D01*
X153535250Y-137645581D01*
X153515038Y-137638349D01*
X153495632Y-137629170D01*
X153477219Y-137618134D01*
X153459976Y-137605346D01*
X153444070Y-137590930D01*
X153429654Y-137575024D01*
X153416866Y-137557781D01*
X153405830Y-137539368D01*
X153396651Y-137519962D01*
X153389419Y-137499750D01*
X153384203Y-137478926D01*
X153381053Y-137457691D01*
X153380000Y-137436250D01*
X153380000Y-136923750D01*
X153381053Y-136902309D01*
X153384203Y-136881074D01*
X153389419Y-136860250D01*
X153396651Y-136840038D01*
X153405830Y-136820632D01*
X153416866Y-136802219D01*
X153429654Y-136784976D01*
X153444070Y-136769070D01*
X153459976Y-136754654D01*
X153477219Y-136741866D01*
X153495632Y-136730830D01*
X153515038Y-136721651D01*
X153535250Y-136714419D01*
X153556074Y-136709203D01*
X153577309Y-136706053D01*
X153598750Y-136705000D01*
X154036250Y-136705000D01*
X154057691Y-136706053D01*
X154057691Y-136706053D01*
G37*
D12*
X153817500Y-137180000D03*
D11*
G36*
X152482691Y-136706053D02*
X152503926Y-136709203D01*
X152524750Y-136714419D01*
X152544962Y-136721651D01*
X152564368Y-136730830D01*
X152582781Y-136741866D01*
X152600024Y-136754654D01*
X152615930Y-136769070D01*
X152630346Y-136784976D01*
X152643134Y-136802219D01*
X152654170Y-136820632D01*
X152663349Y-136840038D01*
X152670581Y-136860250D01*
X152675797Y-136881074D01*
X152678947Y-136902309D01*
X152680000Y-136923750D01*
X152680000Y-137436250D01*
X152678947Y-137457691D01*
X152675797Y-137478926D01*
X152670581Y-137499750D01*
X152663349Y-137519962D01*
X152654170Y-137539368D01*
X152643134Y-137557781D01*
X152630346Y-137575024D01*
X152615930Y-137590930D01*
X152600024Y-137605346D01*
X152582781Y-137618134D01*
X152564368Y-137629170D01*
X152544962Y-137638349D01*
X152524750Y-137645581D01*
X152503926Y-137650797D01*
X152482691Y-137653947D01*
X152461250Y-137655000D01*
X152023750Y-137655000D01*
X152002309Y-137653947D01*
X151981074Y-137650797D01*
X151960250Y-137645581D01*
X151940038Y-137638349D01*
X151920632Y-137629170D01*
X151902219Y-137618134D01*
X151884976Y-137605346D01*
X151869070Y-137590930D01*
X151854654Y-137575024D01*
X151841866Y-137557781D01*
X151830830Y-137539368D01*
X151821651Y-137519962D01*
X151814419Y-137499750D01*
X151809203Y-137478926D01*
X151806053Y-137457691D01*
X151805000Y-137436250D01*
X151805000Y-136923750D01*
X151806053Y-136902309D01*
X151809203Y-136881074D01*
X151814419Y-136860250D01*
X151821651Y-136840038D01*
X151830830Y-136820632D01*
X151841866Y-136802219D01*
X151854654Y-136784976D01*
X151869070Y-136769070D01*
X151884976Y-136754654D01*
X151902219Y-136741866D01*
X151920632Y-136730830D01*
X151940038Y-136721651D01*
X151960250Y-136714419D01*
X151981074Y-136709203D01*
X152002309Y-136706053D01*
X152023750Y-136705000D01*
X152461250Y-136705000D01*
X152482691Y-136706053D01*
X152482691Y-136706053D01*
G37*
D12*
X152242500Y-137180000D03*
G04 #@! TD*
D22*
G04 #@! TO.C,L2*
X154900000Y-119400000D03*
X154900000Y-116600000D03*
G04 #@! TD*
D23*
G04 #@! TO.C,L1*
X141200000Y-128000000D03*
X144000000Y-128000000D03*
G04 #@! TD*
D24*
G04 #@! TO.C,D3*
X156300000Y-121400000D03*
X153500000Y-121400000D03*
G04 #@! TD*
G04 #@! TO.C,D2*
X139200000Y-129400000D03*
X139200000Y-126600000D03*
G04 #@! TD*
G04 #@! TO.C,D1*
X148040000Y-144280000D03*
X145240000Y-144280000D03*
G04 #@! TD*
D11*
G04 #@! TO.C,C7*
G36*
X150330142Y-119601174D02*
X150353803Y-119604684D01*
X150377007Y-119610496D01*
X150399529Y-119618554D01*
X150421153Y-119628782D01*
X150441670Y-119641079D01*
X150460883Y-119655329D01*
X150478607Y-119671393D01*
X150494671Y-119689117D01*
X150508921Y-119708330D01*
X150521218Y-119728847D01*
X150531446Y-119750471D01*
X150539504Y-119772993D01*
X150545316Y-119796197D01*
X150548826Y-119819858D01*
X150550000Y-119843750D01*
X150550000Y-120756250D01*
X150548826Y-120780142D01*
X150545316Y-120803803D01*
X150539504Y-120827007D01*
X150531446Y-120849529D01*
X150521218Y-120871153D01*
X150508921Y-120891670D01*
X150494671Y-120910883D01*
X150478607Y-120928607D01*
X150460883Y-120944671D01*
X150441670Y-120958921D01*
X150421153Y-120971218D01*
X150399529Y-120981446D01*
X150377007Y-120989504D01*
X150353803Y-120995316D01*
X150330142Y-120998826D01*
X150306250Y-121000000D01*
X149818750Y-121000000D01*
X149794858Y-120998826D01*
X149771197Y-120995316D01*
X149747993Y-120989504D01*
X149725471Y-120981446D01*
X149703847Y-120971218D01*
X149683330Y-120958921D01*
X149664117Y-120944671D01*
X149646393Y-120928607D01*
X149630329Y-120910883D01*
X149616079Y-120891670D01*
X149603782Y-120871153D01*
X149593554Y-120849529D01*
X149585496Y-120827007D01*
X149579684Y-120803803D01*
X149576174Y-120780142D01*
X149575000Y-120756250D01*
X149575000Y-119843750D01*
X149576174Y-119819858D01*
X149579684Y-119796197D01*
X149585496Y-119772993D01*
X149593554Y-119750471D01*
X149603782Y-119728847D01*
X149616079Y-119708330D01*
X149630329Y-119689117D01*
X149646393Y-119671393D01*
X149664117Y-119655329D01*
X149683330Y-119641079D01*
X149703847Y-119628782D01*
X149725471Y-119618554D01*
X149747993Y-119610496D01*
X149771197Y-119604684D01*
X149794858Y-119601174D01*
X149818750Y-119600000D01*
X150306250Y-119600000D01*
X150330142Y-119601174D01*
X150330142Y-119601174D01*
G37*
D15*
X150062500Y-120300000D03*
D11*
G36*
X152205142Y-119601174D02*
X152228803Y-119604684D01*
X152252007Y-119610496D01*
X152274529Y-119618554D01*
X152296153Y-119628782D01*
X152316670Y-119641079D01*
X152335883Y-119655329D01*
X152353607Y-119671393D01*
X152369671Y-119689117D01*
X152383921Y-119708330D01*
X152396218Y-119728847D01*
X152406446Y-119750471D01*
X152414504Y-119772993D01*
X152420316Y-119796197D01*
X152423826Y-119819858D01*
X152425000Y-119843750D01*
X152425000Y-120756250D01*
X152423826Y-120780142D01*
X152420316Y-120803803D01*
X152414504Y-120827007D01*
X152406446Y-120849529D01*
X152396218Y-120871153D01*
X152383921Y-120891670D01*
X152369671Y-120910883D01*
X152353607Y-120928607D01*
X152335883Y-120944671D01*
X152316670Y-120958921D01*
X152296153Y-120971218D01*
X152274529Y-120981446D01*
X152252007Y-120989504D01*
X152228803Y-120995316D01*
X152205142Y-120998826D01*
X152181250Y-121000000D01*
X151693750Y-121000000D01*
X151669858Y-120998826D01*
X151646197Y-120995316D01*
X151622993Y-120989504D01*
X151600471Y-120981446D01*
X151578847Y-120971218D01*
X151558330Y-120958921D01*
X151539117Y-120944671D01*
X151521393Y-120928607D01*
X151505329Y-120910883D01*
X151491079Y-120891670D01*
X151478782Y-120871153D01*
X151468554Y-120849529D01*
X151460496Y-120827007D01*
X151454684Y-120803803D01*
X151451174Y-120780142D01*
X151450000Y-120756250D01*
X151450000Y-119843750D01*
X151451174Y-119819858D01*
X151454684Y-119796197D01*
X151460496Y-119772993D01*
X151468554Y-119750471D01*
X151478782Y-119728847D01*
X151491079Y-119708330D01*
X151505329Y-119689117D01*
X151521393Y-119671393D01*
X151539117Y-119655329D01*
X151558330Y-119641079D01*
X151578847Y-119628782D01*
X151600471Y-119618554D01*
X151622993Y-119610496D01*
X151646197Y-119604684D01*
X151669858Y-119601174D01*
X151693750Y-119600000D01*
X152181250Y-119600000D01*
X152205142Y-119601174D01*
X152205142Y-119601174D01*
G37*
D15*
X151937500Y-120300000D03*
G04 #@! TD*
D11*
G04 #@! TO.C,C6*
G36*
X150330142Y-115191174D02*
X150353803Y-115194684D01*
X150377007Y-115200496D01*
X150399529Y-115208554D01*
X150421153Y-115218782D01*
X150441670Y-115231079D01*
X150460883Y-115245329D01*
X150478607Y-115261393D01*
X150494671Y-115279117D01*
X150508921Y-115298330D01*
X150521218Y-115318847D01*
X150531446Y-115340471D01*
X150539504Y-115362993D01*
X150545316Y-115386197D01*
X150548826Y-115409858D01*
X150550000Y-115433750D01*
X150550000Y-116346250D01*
X150548826Y-116370142D01*
X150545316Y-116393803D01*
X150539504Y-116417007D01*
X150531446Y-116439529D01*
X150521218Y-116461153D01*
X150508921Y-116481670D01*
X150494671Y-116500883D01*
X150478607Y-116518607D01*
X150460883Y-116534671D01*
X150441670Y-116548921D01*
X150421153Y-116561218D01*
X150399529Y-116571446D01*
X150377007Y-116579504D01*
X150353803Y-116585316D01*
X150330142Y-116588826D01*
X150306250Y-116590000D01*
X149818750Y-116590000D01*
X149794858Y-116588826D01*
X149771197Y-116585316D01*
X149747993Y-116579504D01*
X149725471Y-116571446D01*
X149703847Y-116561218D01*
X149683330Y-116548921D01*
X149664117Y-116534671D01*
X149646393Y-116518607D01*
X149630329Y-116500883D01*
X149616079Y-116481670D01*
X149603782Y-116461153D01*
X149593554Y-116439529D01*
X149585496Y-116417007D01*
X149579684Y-116393803D01*
X149576174Y-116370142D01*
X149575000Y-116346250D01*
X149575000Y-115433750D01*
X149576174Y-115409858D01*
X149579684Y-115386197D01*
X149585496Y-115362993D01*
X149593554Y-115340471D01*
X149603782Y-115318847D01*
X149616079Y-115298330D01*
X149630329Y-115279117D01*
X149646393Y-115261393D01*
X149664117Y-115245329D01*
X149683330Y-115231079D01*
X149703847Y-115218782D01*
X149725471Y-115208554D01*
X149747993Y-115200496D01*
X149771197Y-115194684D01*
X149794858Y-115191174D01*
X149818750Y-115190000D01*
X150306250Y-115190000D01*
X150330142Y-115191174D01*
X150330142Y-115191174D01*
G37*
D15*
X150062500Y-115890000D03*
D11*
G36*
X152205142Y-115191174D02*
X152228803Y-115194684D01*
X152252007Y-115200496D01*
X152274529Y-115208554D01*
X152296153Y-115218782D01*
X152316670Y-115231079D01*
X152335883Y-115245329D01*
X152353607Y-115261393D01*
X152369671Y-115279117D01*
X152383921Y-115298330D01*
X152396218Y-115318847D01*
X152406446Y-115340471D01*
X152414504Y-115362993D01*
X152420316Y-115386197D01*
X152423826Y-115409858D01*
X152425000Y-115433750D01*
X152425000Y-116346250D01*
X152423826Y-116370142D01*
X152420316Y-116393803D01*
X152414504Y-116417007D01*
X152406446Y-116439529D01*
X152396218Y-116461153D01*
X152383921Y-116481670D01*
X152369671Y-116500883D01*
X152353607Y-116518607D01*
X152335883Y-116534671D01*
X152316670Y-116548921D01*
X152296153Y-116561218D01*
X152274529Y-116571446D01*
X152252007Y-116579504D01*
X152228803Y-116585316D01*
X152205142Y-116588826D01*
X152181250Y-116590000D01*
X151693750Y-116590000D01*
X151669858Y-116588826D01*
X151646197Y-116585316D01*
X151622993Y-116579504D01*
X151600471Y-116571446D01*
X151578847Y-116561218D01*
X151558330Y-116548921D01*
X151539117Y-116534671D01*
X151521393Y-116518607D01*
X151505329Y-116500883D01*
X151491079Y-116481670D01*
X151478782Y-116461153D01*
X151468554Y-116439529D01*
X151460496Y-116417007D01*
X151454684Y-116393803D01*
X151451174Y-116370142D01*
X151450000Y-116346250D01*
X151450000Y-115433750D01*
X151451174Y-115409858D01*
X151454684Y-115386197D01*
X151460496Y-115362993D01*
X151468554Y-115340471D01*
X151478782Y-115318847D01*
X151491079Y-115298330D01*
X151505329Y-115279117D01*
X151521393Y-115261393D01*
X151539117Y-115245329D01*
X151558330Y-115231079D01*
X151578847Y-115218782D01*
X151600471Y-115208554D01*
X151622993Y-115200496D01*
X151646197Y-115194684D01*
X151669858Y-115191174D01*
X151693750Y-115190000D01*
X152181250Y-115190000D01*
X152205142Y-115191174D01*
X152205142Y-115191174D01*
G37*
D15*
X151937500Y-115890000D03*
G04 #@! TD*
D11*
G04 #@! TO.C,C5*
G36*
X140780142Y-122676174D02*
X140803803Y-122679684D01*
X140827007Y-122685496D01*
X140849529Y-122693554D01*
X140871153Y-122703782D01*
X140891670Y-122716079D01*
X140910883Y-122730329D01*
X140928607Y-122746393D01*
X140944671Y-122764117D01*
X140958921Y-122783330D01*
X140971218Y-122803847D01*
X140981446Y-122825471D01*
X140989504Y-122847993D01*
X140995316Y-122871197D01*
X140998826Y-122894858D01*
X141000000Y-122918750D01*
X141000000Y-123406250D01*
X140998826Y-123430142D01*
X140995316Y-123453803D01*
X140989504Y-123477007D01*
X140981446Y-123499529D01*
X140971218Y-123521153D01*
X140958921Y-123541670D01*
X140944671Y-123560883D01*
X140928607Y-123578607D01*
X140910883Y-123594671D01*
X140891670Y-123608921D01*
X140871153Y-123621218D01*
X140849529Y-123631446D01*
X140827007Y-123639504D01*
X140803803Y-123645316D01*
X140780142Y-123648826D01*
X140756250Y-123650000D01*
X139843750Y-123650000D01*
X139819858Y-123648826D01*
X139796197Y-123645316D01*
X139772993Y-123639504D01*
X139750471Y-123631446D01*
X139728847Y-123621218D01*
X139708330Y-123608921D01*
X139689117Y-123594671D01*
X139671393Y-123578607D01*
X139655329Y-123560883D01*
X139641079Y-123541670D01*
X139628782Y-123521153D01*
X139618554Y-123499529D01*
X139610496Y-123477007D01*
X139604684Y-123453803D01*
X139601174Y-123430142D01*
X139600000Y-123406250D01*
X139600000Y-122918750D01*
X139601174Y-122894858D01*
X139604684Y-122871197D01*
X139610496Y-122847993D01*
X139618554Y-122825471D01*
X139628782Y-122803847D01*
X139641079Y-122783330D01*
X139655329Y-122764117D01*
X139671393Y-122746393D01*
X139689117Y-122730329D01*
X139708330Y-122716079D01*
X139728847Y-122703782D01*
X139750471Y-122693554D01*
X139772993Y-122685496D01*
X139796197Y-122679684D01*
X139819858Y-122676174D01*
X139843750Y-122675000D01*
X140756250Y-122675000D01*
X140780142Y-122676174D01*
X140780142Y-122676174D01*
G37*
D15*
X140300000Y-123162500D03*
D11*
G36*
X140780142Y-124551174D02*
X140803803Y-124554684D01*
X140827007Y-124560496D01*
X140849529Y-124568554D01*
X140871153Y-124578782D01*
X140891670Y-124591079D01*
X140910883Y-124605329D01*
X140928607Y-124621393D01*
X140944671Y-124639117D01*
X140958921Y-124658330D01*
X140971218Y-124678847D01*
X140981446Y-124700471D01*
X140989504Y-124722993D01*
X140995316Y-124746197D01*
X140998826Y-124769858D01*
X141000000Y-124793750D01*
X141000000Y-125281250D01*
X140998826Y-125305142D01*
X140995316Y-125328803D01*
X140989504Y-125352007D01*
X140981446Y-125374529D01*
X140971218Y-125396153D01*
X140958921Y-125416670D01*
X140944671Y-125435883D01*
X140928607Y-125453607D01*
X140910883Y-125469671D01*
X140891670Y-125483921D01*
X140871153Y-125496218D01*
X140849529Y-125506446D01*
X140827007Y-125514504D01*
X140803803Y-125520316D01*
X140780142Y-125523826D01*
X140756250Y-125525000D01*
X139843750Y-125525000D01*
X139819858Y-125523826D01*
X139796197Y-125520316D01*
X139772993Y-125514504D01*
X139750471Y-125506446D01*
X139728847Y-125496218D01*
X139708330Y-125483921D01*
X139689117Y-125469671D01*
X139671393Y-125453607D01*
X139655329Y-125435883D01*
X139641079Y-125416670D01*
X139628782Y-125396153D01*
X139618554Y-125374529D01*
X139610496Y-125352007D01*
X139604684Y-125328803D01*
X139601174Y-125305142D01*
X139600000Y-125281250D01*
X139600000Y-124793750D01*
X139601174Y-124769858D01*
X139604684Y-124746197D01*
X139610496Y-124722993D01*
X139618554Y-124700471D01*
X139628782Y-124678847D01*
X139641079Y-124658330D01*
X139655329Y-124639117D01*
X139671393Y-124621393D01*
X139689117Y-124605329D01*
X139708330Y-124591079D01*
X139728847Y-124578782D01*
X139750471Y-124568554D01*
X139772993Y-124560496D01*
X139796197Y-124554684D01*
X139819858Y-124551174D01*
X139843750Y-124550000D01*
X140756250Y-124550000D01*
X140780142Y-124551174D01*
X140780142Y-124551174D01*
G37*
D15*
X140300000Y-125037500D03*
G04 #@! TD*
D11*
G04 #@! TO.C,C4*
G36*
X145180142Y-122676174D02*
X145203803Y-122679684D01*
X145227007Y-122685496D01*
X145249529Y-122693554D01*
X145271153Y-122703782D01*
X145291670Y-122716079D01*
X145310883Y-122730329D01*
X145328607Y-122746393D01*
X145344671Y-122764117D01*
X145358921Y-122783330D01*
X145371218Y-122803847D01*
X145381446Y-122825471D01*
X145389504Y-122847993D01*
X145395316Y-122871197D01*
X145398826Y-122894858D01*
X145400000Y-122918750D01*
X145400000Y-123406250D01*
X145398826Y-123430142D01*
X145395316Y-123453803D01*
X145389504Y-123477007D01*
X145381446Y-123499529D01*
X145371218Y-123521153D01*
X145358921Y-123541670D01*
X145344671Y-123560883D01*
X145328607Y-123578607D01*
X145310883Y-123594671D01*
X145291670Y-123608921D01*
X145271153Y-123621218D01*
X145249529Y-123631446D01*
X145227007Y-123639504D01*
X145203803Y-123645316D01*
X145180142Y-123648826D01*
X145156250Y-123650000D01*
X144243750Y-123650000D01*
X144219858Y-123648826D01*
X144196197Y-123645316D01*
X144172993Y-123639504D01*
X144150471Y-123631446D01*
X144128847Y-123621218D01*
X144108330Y-123608921D01*
X144089117Y-123594671D01*
X144071393Y-123578607D01*
X144055329Y-123560883D01*
X144041079Y-123541670D01*
X144028782Y-123521153D01*
X144018554Y-123499529D01*
X144010496Y-123477007D01*
X144004684Y-123453803D01*
X144001174Y-123430142D01*
X144000000Y-123406250D01*
X144000000Y-122918750D01*
X144001174Y-122894858D01*
X144004684Y-122871197D01*
X144010496Y-122847993D01*
X144018554Y-122825471D01*
X144028782Y-122803847D01*
X144041079Y-122783330D01*
X144055329Y-122764117D01*
X144071393Y-122746393D01*
X144089117Y-122730329D01*
X144108330Y-122716079D01*
X144128847Y-122703782D01*
X144150471Y-122693554D01*
X144172993Y-122685496D01*
X144196197Y-122679684D01*
X144219858Y-122676174D01*
X144243750Y-122675000D01*
X145156250Y-122675000D01*
X145180142Y-122676174D01*
X145180142Y-122676174D01*
G37*
D15*
X144700000Y-123162500D03*
D11*
G36*
X145180142Y-124551174D02*
X145203803Y-124554684D01*
X145227007Y-124560496D01*
X145249529Y-124568554D01*
X145271153Y-124578782D01*
X145291670Y-124591079D01*
X145310883Y-124605329D01*
X145328607Y-124621393D01*
X145344671Y-124639117D01*
X145358921Y-124658330D01*
X145371218Y-124678847D01*
X145381446Y-124700471D01*
X145389504Y-124722993D01*
X145395316Y-124746197D01*
X145398826Y-124769858D01*
X145400000Y-124793750D01*
X145400000Y-125281250D01*
X145398826Y-125305142D01*
X145395316Y-125328803D01*
X145389504Y-125352007D01*
X145381446Y-125374529D01*
X145371218Y-125396153D01*
X145358921Y-125416670D01*
X145344671Y-125435883D01*
X145328607Y-125453607D01*
X145310883Y-125469671D01*
X145291670Y-125483921D01*
X145271153Y-125496218D01*
X145249529Y-125506446D01*
X145227007Y-125514504D01*
X145203803Y-125520316D01*
X145180142Y-125523826D01*
X145156250Y-125525000D01*
X144243750Y-125525000D01*
X144219858Y-125523826D01*
X144196197Y-125520316D01*
X144172993Y-125514504D01*
X144150471Y-125506446D01*
X144128847Y-125496218D01*
X144108330Y-125483921D01*
X144089117Y-125469671D01*
X144071393Y-125453607D01*
X144055329Y-125435883D01*
X144041079Y-125416670D01*
X144028782Y-125396153D01*
X144018554Y-125374529D01*
X144010496Y-125352007D01*
X144004684Y-125328803D01*
X144001174Y-125305142D01*
X144000000Y-125281250D01*
X144000000Y-124793750D01*
X144001174Y-124769858D01*
X144004684Y-124746197D01*
X144010496Y-124722993D01*
X144018554Y-124700471D01*
X144028782Y-124678847D01*
X144041079Y-124658330D01*
X144055329Y-124639117D01*
X144071393Y-124621393D01*
X144089117Y-124605329D01*
X144108330Y-124591079D01*
X144128847Y-124578782D01*
X144150471Y-124568554D01*
X144172993Y-124560496D01*
X144196197Y-124554684D01*
X144219858Y-124551174D01*
X144243750Y-124550000D01*
X145156250Y-124550000D01*
X145180142Y-124551174D01*
X145180142Y-124551174D01*
G37*
D15*
X144700000Y-125037500D03*
G04 #@! TD*
D11*
G04 #@! TO.C,C3*
G36*
X147402691Y-135126053D02*
X147423926Y-135129203D01*
X147444750Y-135134419D01*
X147464962Y-135141651D01*
X147484368Y-135150830D01*
X147502781Y-135161866D01*
X147520024Y-135174654D01*
X147535930Y-135189070D01*
X147550346Y-135204976D01*
X147563134Y-135222219D01*
X147574170Y-135240632D01*
X147583349Y-135260038D01*
X147590581Y-135280250D01*
X147595797Y-135301074D01*
X147598947Y-135322309D01*
X147600000Y-135343750D01*
X147600000Y-135856250D01*
X147598947Y-135877691D01*
X147595797Y-135898926D01*
X147590581Y-135919750D01*
X147583349Y-135939962D01*
X147574170Y-135959368D01*
X147563134Y-135977781D01*
X147550346Y-135995024D01*
X147535930Y-136010930D01*
X147520024Y-136025346D01*
X147502781Y-136038134D01*
X147484368Y-136049170D01*
X147464962Y-136058349D01*
X147444750Y-136065581D01*
X147423926Y-136070797D01*
X147402691Y-136073947D01*
X147381250Y-136075000D01*
X146943750Y-136075000D01*
X146922309Y-136073947D01*
X146901074Y-136070797D01*
X146880250Y-136065581D01*
X146860038Y-136058349D01*
X146840632Y-136049170D01*
X146822219Y-136038134D01*
X146804976Y-136025346D01*
X146789070Y-136010930D01*
X146774654Y-135995024D01*
X146761866Y-135977781D01*
X146750830Y-135959368D01*
X146741651Y-135939962D01*
X146734419Y-135919750D01*
X146729203Y-135898926D01*
X146726053Y-135877691D01*
X146725000Y-135856250D01*
X146725000Y-135343750D01*
X146726053Y-135322309D01*
X146729203Y-135301074D01*
X146734419Y-135280250D01*
X146741651Y-135260038D01*
X146750830Y-135240632D01*
X146761866Y-135222219D01*
X146774654Y-135204976D01*
X146789070Y-135189070D01*
X146804976Y-135174654D01*
X146822219Y-135161866D01*
X146840632Y-135150830D01*
X146860038Y-135141651D01*
X146880250Y-135134419D01*
X146901074Y-135129203D01*
X146922309Y-135126053D01*
X146943750Y-135125000D01*
X147381250Y-135125000D01*
X147402691Y-135126053D01*
X147402691Y-135126053D01*
G37*
D12*
X147162500Y-135600000D03*
D11*
G36*
X148977691Y-135126053D02*
X148998926Y-135129203D01*
X149019750Y-135134419D01*
X149039962Y-135141651D01*
X149059368Y-135150830D01*
X149077781Y-135161866D01*
X149095024Y-135174654D01*
X149110930Y-135189070D01*
X149125346Y-135204976D01*
X149138134Y-135222219D01*
X149149170Y-135240632D01*
X149158349Y-135260038D01*
X149165581Y-135280250D01*
X149170797Y-135301074D01*
X149173947Y-135322309D01*
X149175000Y-135343750D01*
X149175000Y-135856250D01*
X149173947Y-135877691D01*
X149170797Y-135898926D01*
X149165581Y-135919750D01*
X149158349Y-135939962D01*
X149149170Y-135959368D01*
X149138134Y-135977781D01*
X149125346Y-135995024D01*
X149110930Y-136010930D01*
X149095024Y-136025346D01*
X149077781Y-136038134D01*
X149059368Y-136049170D01*
X149039962Y-136058349D01*
X149019750Y-136065581D01*
X148998926Y-136070797D01*
X148977691Y-136073947D01*
X148956250Y-136075000D01*
X148518750Y-136075000D01*
X148497309Y-136073947D01*
X148476074Y-136070797D01*
X148455250Y-136065581D01*
X148435038Y-136058349D01*
X148415632Y-136049170D01*
X148397219Y-136038134D01*
X148379976Y-136025346D01*
X148364070Y-136010930D01*
X148349654Y-135995024D01*
X148336866Y-135977781D01*
X148325830Y-135959368D01*
X148316651Y-135939962D01*
X148309419Y-135919750D01*
X148304203Y-135898926D01*
X148301053Y-135877691D01*
X148300000Y-135856250D01*
X148300000Y-135343750D01*
X148301053Y-135322309D01*
X148304203Y-135301074D01*
X148309419Y-135280250D01*
X148316651Y-135260038D01*
X148325830Y-135240632D01*
X148336866Y-135222219D01*
X148349654Y-135204976D01*
X148364070Y-135189070D01*
X148379976Y-135174654D01*
X148397219Y-135161866D01*
X148415632Y-135150830D01*
X148435038Y-135141651D01*
X148455250Y-135134419D01*
X148476074Y-135129203D01*
X148497309Y-135126053D01*
X148518750Y-135125000D01*
X148956250Y-135125000D01*
X148977691Y-135126053D01*
X148977691Y-135126053D01*
G37*
D12*
X148737500Y-135600000D03*
G04 #@! TD*
D11*
G04 #@! TO.C,C2*
G36*
X144232691Y-135156053D02*
X144253926Y-135159203D01*
X144274750Y-135164419D01*
X144294962Y-135171651D01*
X144314368Y-135180830D01*
X144332781Y-135191866D01*
X144350024Y-135204654D01*
X144365930Y-135219070D01*
X144380346Y-135234976D01*
X144393134Y-135252219D01*
X144404170Y-135270632D01*
X144413349Y-135290038D01*
X144420581Y-135310250D01*
X144425797Y-135331074D01*
X144428947Y-135352309D01*
X144430000Y-135373750D01*
X144430000Y-135886250D01*
X144428947Y-135907691D01*
X144425797Y-135928926D01*
X144420581Y-135949750D01*
X144413349Y-135969962D01*
X144404170Y-135989368D01*
X144393134Y-136007781D01*
X144380346Y-136025024D01*
X144365930Y-136040930D01*
X144350024Y-136055346D01*
X144332781Y-136068134D01*
X144314368Y-136079170D01*
X144294962Y-136088349D01*
X144274750Y-136095581D01*
X144253926Y-136100797D01*
X144232691Y-136103947D01*
X144211250Y-136105000D01*
X143773750Y-136105000D01*
X143752309Y-136103947D01*
X143731074Y-136100797D01*
X143710250Y-136095581D01*
X143690038Y-136088349D01*
X143670632Y-136079170D01*
X143652219Y-136068134D01*
X143634976Y-136055346D01*
X143619070Y-136040930D01*
X143604654Y-136025024D01*
X143591866Y-136007781D01*
X143580830Y-135989368D01*
X143571651Y-135969962D01*
X143564419Y-135949750D01*
X143559203Y-135928926D01*
X143556053Y-135907691D01*
X143555000Y-135886250D01*
X143555000Y-135373750D01*
X143556053Y-135352309D01*
X143559203Y-135331074D01*
X143564419Y-135310250D01*
X143571651Y-135290038D01*
X143580830Y-135270632D01*
X143591866Y-135252219D01*
X143604654Y-135234976D01*
X143619070Y-135219070D01*
X143634976Y-135204654D01*
X143652219Y-135191866D01*
X143670632Y-135180830D01*
X143690038Y-135171651D01*
X143710250Y-135164419D01*
X143731074Y-135159203D01*
X143752309Y-135156053D01*
X143773750Y-135155000D01*
X144211250Y-135155000D01*
X144232691Y-135156053D01*
X144232691Y-135156053D01*
G37*
D12*
X143992500Y-135630000D03*
D11*
G36*
X145807691Y-135156053D02*
X145828926Y-135159203D01*
X145849750Y-135164419D01*
X145869962Y-135171651D01*
X145889368Y-135180830D01*
X145907781Y-135191866D01*
X145925024Y-135204654D01*
X145940930Y-135219070D01*
X145955346Y-135234976D01*
X145968134Y-135252219D01*
X145979170Y-135270632D01*
X145988349Y-135290038D01*
X145995581Y-135310250D01*
X146000797Y-135331074D01*
X146003947Y-135352309D01*
X146005000Y-135373750D01*
X146005000Y-135886250D01*
X146003947Y-135907691D01*
X146000797Y-135928926D01*
X145995581Y-135949750D01*
X145988349Y-135969962D01*
X145979170Y-135989368D01*
X145968134Y-136007781D01*
X145955346Y-136025024D01*
X145940930Y-136040930D01*
X145925024Y-136055346D01*
X145907781Y-136068134D01*
X145889368Y-136079170D01*
X145869962Y-136088349D01*
X145849750Y-136095581D01*
X145828926Y-136100797D01*
X145807691Y-136103947D01*
X145786250Y-136105000D01*
X145348750Y-136105000D01*
X145327309Y-136103947D01*
X145306074Y-136100797D01*
X145285250Y-136095581D01*
X145265038Y-136088349D01*
X145245632Y-136079170D01*
X145227219Y-136068134D01*
X145209976Y-136055346D01*
X145194070Y-136040930D01*
X145179654Y-136025024D01*
X145166866Y-136007781D01*
X145155830Y-135989368D01*
X145146651Y-135969962D01*
X145139419Y-135949750D01*
X145134203Y-135928926D01*
X145131053Y-135907691D01*
X145130000Y-135886250D01*
X145130000Y-135373750D01*
X145131053Y-135352309D01*
X145134203Y-135331074D01*
X145139419Y-135310250D01*
X145146651Y-135290038D01*
X145155830Y-135270632D01*
X145166866Y-135252219D01*
X145179654Y-135234976D01*
X145194070Y-135219070D01*
X145209976Y-135204654D01*
X145227219Y-135191866D01*
X145245632Y-135180830D01*
X145265038Y-135171651D01*
X145285250Y-135164419D01*
X145306074Y-135159203D01*
X145327309Y-135156053D01*
X145348750Y-135155000D01*
X145786250Y-135155000D01*
X145807691Y-135156053D01*
X145807691Y-135156053D01*
G37*
D12*
X145567500Y-135630000D03*
G04 #@! TD*
D11*
G04 #@! TO.C,C1*
G36*
X150697691Y-144171053D02*
X150718926Y-144174203D01*
X150739750Y-144179419D01*
X150759962Y-144186651D01*
X150779368Y-144195830D01*
X150797781Y-144206866D01*
X150815024Y-144219654D01*
X150830930Y-144234070D01*
X150845346Y-144249976D01*
X150858134Y-144267219D01*
X150869170Y-144285632D01*
X150878349Y-144305038D01*
X150885581Y-144325250D01*
X150890797Y-144346074D01*
X150893947Y-144367309D01*
X150895000Y-144388750D01*
X150895000Y-144826250D01*
X150893947Y-144847691D01*
X150890797Y-144868926D01*
X150885581Y-144889750D01*
X150878349Y-144909962D01*
X150869170Y-144929368D01*
X150858134Y-144947781D01*
X150845346Y-144965024D01*
X150830930Y-144980930D01*
X150815024Y-144995346D01*
X150797781Y-145008134D01*
X150779368Y-145019170D01*
X150759962Y-145028349D01*
X150739750Y-145035581D01*
X150718926Y-145040797D01*
X150697691Y-145043947D01*
X150676250Y-145045000D01*
X150163750Y-145045000D01*
X150142309Y-145043947D01*
X150121074Y-145040797D01*
X150100250Y-145035581D01*
X150080038Y-145028349D01*
X150060632Y-145019170D01*
X150042219Y-145008134D01*
X150024976Y-144995346D01*
X150009070Y-144980930D01*
X149994654Y-144965024D01*
X149981866Y-144947781D01*
X149970830Y-144929368D01*
X149961651Y-144909962D01*
X149954419Y-144889750D01*
X149949203Y-144868926D01*
X149946053Y-144847691D01*
X149945000Y-144826250D01*
X149945000Y-144388750D01*
X149946053Y-144367309D01*
X149949203Y-144346074D01*
X149954419Y-144325250D01*
X149961651Y-144305038D01*
X149970830Y-144285632D01*
X149981866Y-144267219D01*
X149994654Y-144249976D01*
X150009070Y-144234070D01*
X150024976Y-144219654D01*
X150042219Y-144206866D01*
X150060632Y-144195830D01*
X150080038Y-144186651D01*
X150100250Y-144179419D01*
X150121074Y-144174203D01*
X150142309Y-144171053D01*
X150163750Y-144170000D01*
X150676250Y-144170000D01*
X150697691Y-144171053D01*
X150697691Y-144171053D01*
G37*
D12*
X150420000Y-144607500D03*
D11*
G36*
X150697691Y-142596053D02*
X150718926Y-142599203D01*
X150739750Y-142604419D01*
X150759962Y-142611651D01*
X150779368Y-142620830D01*
X150797781Y-142631866D01*
X150815024Y-142644654D01*
X150830930Y-142659070D01*
X150845346Y-142674976D01*
X150858134Y-142692219D01*
X150869170Y-142710632D01*
X150878349Y-142730038D01*
X150885581Y-142750250D01*
X150890797Y-142771074D01*
X150893947Y-142792309D01*
X150895000Y-142813750D01*
X150895000Y-143251250D01*
X150893947Y-143272691D01*
X150890797Y-143293926D01*
X150885581Y-143314750D01*
X150878349Y-143334962D01*
X150869170Y-143354368D01*
X150858134Y-143372781D01*
X150845346Y-143390024D01*
X150830930Y-143405930D01*
X150815024Y-143420346D01*
X150797781Y-143433134D01*
X150779368Y-143444170D01*
X150759962Y-143453349D01*
X150739750Y-143460581D01*
X150718926Y-143465797D01*
X150697691Y-143468947D01*
X150676250Y-143470000D01*
X150163750Y-143470000D01*
X150142309Y-143468947D01*
X150121074Y-143465797D01*
X150100250Y-143460581D01*
X150080038Y-143453349D01*
X150060632Y-143444170D01*
X150042219Y-143433134D01*
X150024976Y-143420346D01*
X150009070Y-143405930D01*
X149994654Y-143390024D01*
X149981866Y-143372781D01*
X149970830Y-143354368D01*
X149961651Y-143334962D01*
X149954419Y-143314750D01*
X149949203Y-143293926D01*
X149946053Y-143272691D01*
X149945000Y-143251250D01*
X149945000Y-142813750D01*
X149946053Y-142792309D01*
X149949203Y-142771074D01*
X149954419Y-142750250D01*
X149961651Y-142730038D01*
X149970830Y-142710632D01*
X149981866Y-142692219D01*
X149994654Y-142674976D01*
X150009070Y-142659070D01*
X150024976Y-142644654D01*
X150042219Y-142631866D01*
X150060632Y-142620830D01*
X150080038Y-142611651D01*
X150100250Y-142604419D01*
X150121074Y-142599203D01*
X150142309Y-142596053D01*
X150163750Y-142595000D01*
X150676250Y-142595000D01*
X150697691Y-142596053D01*
X150697691Y-142596053D01*
G37*
D12*
X150420000Y-143032500D03*
G04 #@! TD*
D25*
G04 #@! TO.C,J2*
X153800000Y-140150000D03*
D26*
X156000000Y-140150000D03*
X155000000Y-140150000D03*
X157000000Y-140150000D03*
X158000000Y-140150000D03*
D25*
X159200000Y-140150000D03*
G04 #@! TD*
D11*
G04 #@! TO.C,R4*
G36*
X122627691Y-137138553D02*
X122648926Y-137141703D01*
X122669750Y-137146919D01*
X122689962Y-137154151D01*
X122709368Y-137163330D01*
X122727781Y-137174366D01*
X122745024Y-137187154D01*
X122760930Y-137201570D01*
X122775346Y-137217476D01*
X122788134Y-137234719D01*
X122799170Y-137253132D01*
X122808349Y-137272538D01*
X122815581Y-137292750D01*
X122820797Y-137313574D01*
X122823947Y-137334809D01*
X122825000Y-137356250D01*
X122825000Y-137793750D01*
X122823947Y-137815191D01*
X122820797Y-137836426D01*
X122815581Y-137857250D01*
X122808349Y-137877462D01*
X122799170Y-137896868D01*
X122788134Y-137915281D01*
X122775346Y-137932524D01*
X122760930Y-137948430D01*
X122745024Y-137962846D01*
X122727781Y-137975634D01*
X122709368Y-137986670D01*
X122689962Y-137995849D01*
X122669750Y-138003081D01*
X122648926Y-138008297D01*
X122627691Y-138011447D01*
X122606250Y-138012500D01*
X122093750Y-138012500D01*
X122072309Y-138011447D01*
X122051074Y-138008297D01*
X122030250Y-138003081D01*
X122010038Y-137995849D01*
X121990632Y-137986670D01*
X121972219Y-137975634D01*
X121954976Y-137962846D01*
X121939070Y-137948430D01*
X121924654Y-137932524D01*
X121911866Y-137915281D01*
X121900830Y-137896868D01*
X121891651Y-137877462D01*
X121884419Y-137857250D01*
X121879203Y-137836426D01*
X121876053Y-137815191D01*
X121875000Y-137793750D01*
X121875000Y-137356250D01*
X121876053Y-137334809D01*
X121879203Y-137313574D01*
X121884419Y-137292750D01*
X121891651Y-137272538D01*
X121900830Y-137253132D01*
X121911866Y-137234719D01*
X121924654Y-137217476D01*
X121939070Y-137201570D01*
X121954976Y-137187154D01*
X121972219Y-137174366D01*
X121990632Y-137163330D01*
X122010038Y-137154151D01*
X122030250Y-137146919D01*
X122051074Y-137141703D01*
X122072309Y-137138553D01*
X122093750Y-137137500D01*
X122606250Y-137137500D01*
X122627691Y-137138553D01*
X122627691Y-137138553D01*
G37*
D12*
X122350000Y-137575000D03*
D11*
G36*
X122627691Y-138713553D02*
X122648926Y-138716703D01*
X122669750Y-138721919D01*
X122689962Y-138729151D01*
X122709368Y-138738330D01*
X122727781Y-138749366D01*
X122745024Y-138762154D01*
X122760930Y-138776570D01*
X122775346Y-138792476D01*
X122788134Y-138809719D01*
X122799170Y-138828132D01*
X122808349Y-138847538D01*
X122815581Y-138867750D01*
X122820797Y-138888574D01*
X122823947Y-138909809D01*
X122825000Y-138931250D01*
X122825000Y-139368750D01*
X122823947Y-139390191D01*
X122820797Y-139411426D01*
X122815581Y-139432250D01*
X122808349Y-139452462D01*
X122799170Y-139471868D01*
X122788134Y-139490281D01*
X122775346Y-139507524D01*
X122760930Y-139523430D01*
X122745024Y-139537846D01*
X122727781Y-139550634D01*
X122709368Y-139561670D01*
X122689962Y-139570849D01*
X122669750Y-139578081D01*
X122648926Y-139583297D01*
X122627691Y-139586447D01*
X122606250Y-139587500D01*
X122093750Y-139587500D01*
X122072309Y-139586447D01*
X122051074Y-139583297D01*
X122030250Y-139578081D01*
X122010038Y-139570849D01*
X121990632Y-139561670D01*
X121972219Y-139550634D01*
X121954976Y-139537846D01*
X121939070Y-139523430D01*
X121924654Y-139507524D01*
X121911866Y-139490281D01*
X121900830Y-139471868D01*
X121891651Y-139452462D01*
X121884419Y-139432250D01*
X121879203Y-139411426D01*
X121876053Y-139390191D01*
X121875000Y-139368750D01*
X121875000Y-138931250D01*
X121876053Y-138909809D01*
X121879203Y-138888574D01*
X121884419Y-138867750D01*
X121891651Y-138847538D01*
X121900830Y-138828132D01*
X121911866Y-138809719D01*
X121924654Y-138792476D01*
X121939070Y-138776570D01*
X121954976Y-138762154D01*
X121972219Y-138749366D01*
X121990632Y-138738330D01*
X122010038Y-138729151D01*
X122030250Y-138721919D01*
X122051074Y-138716703D01*
X122072309Y-138713553D01*
X122093750Y-138712500D01*
X122606250Y-138712500D01*
X122627691Y-138713553D01*
X122627691Y-138713553D01*
G37*
D12*
X122350000Y-139150000D03*
G04 #@! TD*
D11*
G04 #@! TO.C,R3*
G36*
X122627691Y-140226053D02*
X122648926Y-140229203D01*
X122669750Y-140234419D01*
X122689962Y-140241651D01*
X122709368Y-140250830D01*
X122727781Y-140261866D01*
X122745024Y-140274654D01*
X122760930Y-140289070D01*
X122775346Y-140304976D01*
X122788134Y-140322219D01*
X122799170Y-140340632D01*
X122808349Y-140360038D01*
X122815581Y-140380250D01*
X122820797Y-140401074D01*
X122823947Y-140422309D01*
X122825000Y-140443750D01*
X122825000Y-140881250D01*
X122823947Y-140902691D01*
X122820797Y-140923926D01*
X122815581Y-140944750D01*
X122808349Y-140964962D01*
X122799170Y-140984368D01*
X122788134Y-141002781D01*
X122775346Y-141020024D01*
X122760930Y-141035930D01*
X122745024Y-141050346D01*
X122727781Y-141063134D01*
X122709368Y-141074170D01*
X122689962Y-141083349D01*
X122669750Y-141090581D01*
X122648926Y-141095797D01*
X122627691Y-141098947D01*
X122606250Y-141100000D01*
X122093750Y-141100000D01*
X122072309Y-141098947D01*
X122051074Y-141095797D01*
X122030250Y-141090581D01*
X122010038Y-141083349D01*
X121990632Y-141074170D01*
X121972219Y-141063134D01*
X121954976Y-141050346D01*
X121939070Y-141035930D01*
X121924654Y-141020024D01*
X121911866Y-141002781D01*
X121900830Y-140984368D01*
X121891651Y-140964962D01*
X121884419Y-140944750D01*
X121879203Y-140923926D01*
X121876053Y-140902691D01*
X121875000Y-140881250D01*
X121875000Y-140443750D01*
X121876053Y-140422309D01*
X121879203Y-140401074D01*
X121884419Y-140380250D01*
X121891651Y-140360038D01*
X121900830Y-140340632D01*
X121911866Y-140322219D01*
X121924654Y-140304976D01*
X121939070Y-140289070D01*
X121954976Y-140274654D01*
X121972219Y-140261866D01*
X121990632Y-140250830D01*
X122010038Y-140241651D01*
X122030250Y-140234419D01*
X122051074Y-140229203D01*
X122072309Y-140226053D01*
X122093750Y-140225000D01*
X122606250Y-140225000D01*
X122627691Y-140226053D01*
X122627691Y-140226053D01*
G37*
D12*
X122350000Y-140662500D03*
D11*
G36*
X122627691Y-141801053D02*
X122648926Y-141804203D01*
X122669750Y-141809419D01*
X122689962Y-141816651D01*
X122709368Y-141825830D01*
X122727781Y-141836866D01*
X122745024Y-141849654D01*
X122760930Y-141864070D01*
X122775346Y-141879976D01*
X122788134Y-141897219D01*
X122799170Y-141915632D01*
X122808349Y-141935038D01*
X122815581Y-141955250D01*
X122820797Y-141976074D01*
X122823947Y-141997309D01*
X122825000Y-142018750D01*
X122825000Y-142456250D01*
X122823947Y-142477691D01*
X122820797Y-142498926D01*
X122815581Y-142519750D01*
X122808349Y-142539962D01*
X122799170Y-142559368D01*
X122788134Y-142577781D01*
X122775346Y-142595024D01*
X122760930Y-142610930D01*
X122745024Y-142625346D01*
X122727781Y-142638134D01*
X122709368Y-142649170D01*
X122689962Y-142658349D01*
X122669750Y-142665581D01*
X122648926Y-142670797D01*
X122627691Y-142673947D01*
X122606250Y-142675000D01*
X122093750Y-142675000D01*
X122072309Y-142673947D01*
X122051074Y-142670797D01*
X122030250Y-142665581D01*
X122010038Y-142658349D01*
X121990632Y-142649170D01*
X121972219Y-142638134D01*
X121954976Y-142625346D01*
X121939070Y-142610930D01*
X121924654Y-142595024D01*
X121911866Y-142577781D01*
X121900830Y-142559368D01*
X121891651Y-142539962D01*
X121884419Y-142519750D01*
X121879203Y-142498926D01*
X121876053Y-142477691D01*
X121875000Y-142456250D01*
X121875000Y-142018750D01*
X121876053Y-141997309D01*
X121879203Y-141976074D01*
X121884419Y-141955250D01*
X121891651Y-141935038D01*
X121900830Y-141915632D01*
X121911866Y-141897219D01*
X121924654Y-141879976D01*
X121939070Y-141864070D01*
X121954976Y-141849654D01*
X121972219Y-141836866D01*
X121990632Y-141825830D01*
X122010038Y-141816651D01*
X122030250Y-141809419D01*
X122051074Y-141804203D01*
X122072309Y-141801053D01*
X122093750Y-141800000D01*
X122606250Y-141800000D01*
X122627691Y-141801053D01*
X122627691Y-141801053D01*
G37*
D12*
X122350000Y-142237500D03*
G04 #@! TD*
D11*
G04 #@! TO.C,R2*
G36*
X162547691Y-139446053D02*
X162568926Y-139449203D01*
X162589750Y-139454419D01*
X162609962Y-139461651D01*
X162629368Y-139470830D01*
X162647781Y-139481866D01*
X162665024Y-139494654D01*
X162680930Y-139509070D01*
X162695346Y-139524976D01*
X162708134Y-139542219D01*
X162719170Y-139560632D01*
X162728349Y-139580038D01*
X162735581Y-139600250D01*
X162740797Y-139621074D01*
X162743947Y-139642309D01*
X162745000Y-139663750D01*
X162745000Y-140101250D01*
X162743947Y-140122691D01*
X162740797Y-140143926D01*
X162735581Y-140164750D01*
X162728349Y-140184962D01*
X162719170Y-140204368D01*
X162708134Y-140222781D01*
X162695346Y-140240024D01*
X162680930Y-140255930D01*
X162665024Y-140270346D01*
X162647781Y-140283134D01*
X162629368Y-140294170D01*
X162609962Y-140303349D01*
X162589750Y-140310581D01*
X162568926Y-140315797D01*
X162547691Y-140318947D01*
X162526250Y-140320000D01*
X162013750Y-140320000D01*
X161992309Y-140318947D01*
X161971074Y-140315797D01*
X161950250Y-140310581D01*
X161930038Y-140303349D01*
X161910632Y-140294170D01*
X161892219Y-140283134D01*
X161874976Y-140270346D01*
X161859070Y-140255930D01*
X161844654Y-140240024D01*
X161831866Y-140222781D01*
X161820830Y-140204368D01*
X161811651Y-140184962D01*
X161804419Y-140164750D01*
X161799203Y-140143926D01*
X161796053Y-140122691D01*
X161795000Y-140101250D01*
X161795000Y-139663750D01*
X161796053Y-139642309D01*
X161799203Y-139621074D01*
X161804419Y-139600250D01*
X161811651Y-139580038D01*
X161820830Y-139560632D01*
X161831866Y-139542219D01*
X161844654Y-139524976D01*
X161859070Y-139509070D01*
X161874976Y-139494654D01*
X161892219Y-139481866D01*
X161910632Y-139470830D01*
X161930038Y-139461651D01*
X161950250Y-139454419D01*
X161971074Y-139449203D01*
X161992309Y-139446053D01*
X162013750Y-139445000D01*
X162526250Y-139445000D01*
X162547691Y-139446053D01*
X162547691Y-139446053D01*
G37*
D12*
X162270000Y-139882500D03*
D11*
G36*
X162547691Y-141021053D02*
X162568926Y-141024203D01*
X162589750Y-141029419D01*
X162609962Y-141036651D01*
X162629368Y-141045830D01*
X162647781Y-141056866D01*
X162665024Y-141069654D01*
X162680930Y-141084070D01*
X162695346Y-141099976D01*
X162708134Y-141117219D01*
X162719170Y-141135632D01*
X162728349Y-141155038D01*
X162735581Y-141175250D01*
X162740797Y-141196074D01*
X162743947Y-141217309D01*
X162745000Y-141238750D01*
X162745000Y-141676250D01*
X162743947Y-141697691D01*
X162740797Y-141718926D01*
X162735581Y-141739750D01*
X162728349Y-141759962D01*
X162719170Y-141779368D01*
X162708134Y-141797781D01*
X162695346Y-141815024D01*
X162680930Y-141830930D01*
X162665024Y-141845346D01*
X162647781Y-141858134D01*
X162629368Y-141869170D01*
X162609962Y-141878349D01*
X162589750Y-141885581D01*
X162568926Y-141890797D01*
X162547691Y-141893947D01*
X162526250Y-141895000D01*
X162013750Y-141895000D01*
X161992309Y-141893947D01*
X161971074Y-141890797D01*
X161950250Y-141885581D01*
X161930038Y-141878349D01*
X161910632Y-141869170D01*
X161892219Y-141858134D01*
X161874976Y-141845346D01*
X161859070Y-141830930D01*
X161844654Y-141815024D01*
X161831866Y-141797781D01*
X161820830Y-141779368D01*
X161811651Y-141759962D01*
X161804419Y-141739750D01*
X161799203Y-141718926D01*
X161796053Y-141697691D01*
X161795000Y-141676250D01*
X161795000Y-141238750D01*
X161796053Y-141217309D01*
X161799203Y-141196074D01*
X161804419Y-141175250D01*
X161811651Y-141155038D01*
X161820830Y-141135632D01*
X161831866Y-141117219D01*
X161844654Y-141099976D01*
X161859070Y-141084070D01*
X161874976Y-141069654D01*
X161892219Y-141056866D01*
X161910632Y-141045830D01*
X161930038Y-141036651D01*
X161950250Y-141029419D01*
X161971074Y-141024203D01*
X161992309Y-141021053D01*
X162013750Y-141020000D01*
X162526250Y-141020000D01*
X162547691Y-141021053D01*
X162547691Y-141021053D01*
G37*
D12*
X162270000Y-141457500D03*
G04 #@! TD*
D11*
G04 #@! TO.C,R1*
G36*
X162547691Y-142426053D02*
X162568926Y-142429203D01*
X162589750Y-142434419D01*
X162609962Y-142441651D01*
X162629368Y-142450830D01*
X162647781Y-142461866D01*
X162665024Y-142474654D01*
X162680930Y-142489070D01*
X162695346Y-142504976D01*
X162708134Y-142522219D01*
X162719170Y-142540632D01*
X162728349Y-142560038D01*
X162735581Y-142580250D01*
X162740797Y-142601074D01*
X162743947Y-142622309D01*
X162745000Y-142643750D01*
X162745000Y-143081250D01*
X162743947Y-143102691D01*
X162740797Y-143123926D01*
X162735581Y-143144750D01*
X162728349Y-143164962D01*
X162719170Y-143184368D01*
X162708134Y-143202781D01*
X162695346Y-143220024D01*
X162680930Y-143235930D01*
X162665024Y-143250346D01*
X162647781Y-143263134D01*
X162629368Y-143274170D01*
X162609962Y-143283349D01*
X162589750Y-143290581D01*
X162568926Y-143295797D01*
X162547691Y-143298947D01*
X162526250Y-143300000D01*
X162013750Y-143300000D01*
X161992309Y-143298947D01*
X161971074Y-143295797D01*
X161950250Y-143290581D01*
X161930038Y-143283349D01*
X161910632Y-143274170D01*
X161892219Y-143263134D01*
X161874976Y-143250346D01*
X161859070Y-143235930D01*
X161844654Y-143220024D01*
X161831866Y-143202781D01*
X161820830Y-143184368D01*
X161811651Y-143164962D01*
X161804419Y-143144750D01*
X161799203Y-143123926D01*
X161796053Y-143102691D01*
X161795000Y-143081250D01*
X161795000Y-142643750D01*
X161796053Y-142622309D01*
X161799203Y-142601074D01*
X161804419Y-142580250D01*
X161811651Y-142560038D01*
X161820830Y-142540632D01*
X161831866Y-142522219D01*
X161844654Y-142504976D01*
X161859070Y-142489070D01*
X161874976Y-142474654D01*
X161892219Y-142461866D01*
X161910632Y-142450830D01*
X161930038Y-142441651D01*
X161950250Y-142434419D01*
X161971074Y-142429203D01*
X161992309Y-142426053D01*
X162013750Y-142425000D01*
X162526250Y-142425000D01*
X162547691Y-142426053D01*
X162547691Y-142426053D01*
G37*
D12*
X162270000Y-142862500D03*
D11*
G36*
X162547691Y-144001053D02*
X162568926Y-144004203D01*
X162589750Y-144009419D01*
X162609962Y-144016651D01*
X162629368Y-144025830D01*
X162647781Y-144036866D01*
X162665024Y-144049654D01*
X162680930Y-144064070D01*
X162695346Y-144079976D01*
X162708134Y-144097219D01*
X162719170Y-144115632D01*
X162728349Y-144135038D01*
X162735581Y-144155250D01*
X162740797Y-144176074D01*
X162743947Y-144197309D01*
X162745000Y-144218750D01*
X162745000Y-144656250D01*
X162743947Y-144677691D01*
X162740797Y-144698926D01*
X162735581Y-144719750D01*
X162728349Y-144739962D01*
X162719170Y-144759368D01*
X162708134Y-144777781D01*
X162695346Y-144795024D01*
X162680930Y-144810930D01*
X162665024Y-144825346D01*
X162647781Y-144838134D01*
X162629368Y-144849170D01*
X162609962Y-144858349D01*
X162589750Y-144865581D01*
X162568926Y-144870797D01*
X162547691Y-144873947D01*
X162526250Y-144875000D01*
X162013750Y-144875000D01*
X161992309Y-144873947D01*
X161971074Y-144870797D01*
X161950250Y-144865581D01*
X161930038Y-144858349D01*
X161910632Y-144849170D01*
X161892219Y-144838134D01*
X161874976Y-144825346D01*
X161859070Y-144810930D01*
X161844654Y-144795024D01*
X161831866Y-144777781D01*
X161820830Y-144759368D01*
X161811651Y-144739962D01*
X161804419Y-144719750D01*
X161799203Y-144698926D01*
X161796053Y-144677691D01*
X161795000Y-144656250D01*
X161795000Y-144218750D01*
X161796053Y-144197309D01*
X161799203Y-144176074D01*
X161804419Y-144155250D01*
X161811651Y-144135038D01*
X161820830Y-144115632D01*
X161831866Y-144097219D01*
X161844654Y-144079976D01*
X161859070Y-144064070D01*
X161874976Y-144049654D01*
X161892219Y-144036866D01*
X161910632Y-144025830D01*
X161930038Y-144016651D01*
X161950250Y-144009419D01*
X161971074Y-144004203D01*
X161992309Y-144001053D01*
X162013750Y-144000000D01*
X162526250Y-144000000D01*
X162547691Y-144001053D01*
X162547691Y-144001053D01*
G37*
D12*
X162270000Y-144437500D03*
G04 #@! TD*
D27*
G04 #@! TO.C,U1*
X142750000Y-119165000D03*
X143350000Y-119165000D03*
X143950000Y-119165000D03*
X142150000Y-119165000D03*
X141550000Y-119165000D03*
X140950000Y-119165000D03*
X137350000Y-119165000D03*
X137950000Y-119165000D03*
X138550000Y-119165000D03*
X140350000Y-119165000D03*
X139750000Y-119165000D03*
X139150000Y-119165000D03*
X131950000Y-119165000D03*
X132550000Y-119165000D03*
X133150000Y-119165000D03*
X131350000Y-119165000D03*
X130750000Y-119165000D03*
X130150000Y-119165000D03*
X133750000Y-119165000D03*
X134350000Y-119165000D03*
X134950000Y-119165000D03*
X136750000Y-119165000D03*
X136150000Y-119165000D03*
X135550000Y-119165000D03*
X144550000Y-119165000D03*
D28*
X129850000Y-116290000D03*
X130450000Y-116290000D03*
X131050000Y-116290000D03*
X131650000Y-116290000D03*
X132250000Y-116290000D03*
X132850000Y-116290000D03*
X133450000Y-116290000D03*
X134050000Y-116290000D03*
X134650000Y-116290000D03*
X135250000Y-116290000D03*
X135850000Y-116290000D03*
X136450000Y-116290000D03*
X137050000Y-116290000D03*
X137650000Y-116290000D03*
X138250000Y-116290000D03*
X138850000Y-116290000D03*
X139450000Y-116290000D03*
X140050000Y-116290000D03*
X140650000Y-116290000D03*
X141250000Y-116290000D03*
X141850000Y-116290000D03*
X142450000Y-116290000D03*
X143050000Y-116290000D03*
X143650000Y-116290000D03*
X144250000Y-116290000D03*
X144850000Y-116290000D03*
D29*
X129150000Y-116615000D03*
X145550000Y-116615000D03*
G04 #@! TD*
M02*
