G04 #@! TF.GenerationSoftware,KiCad,Pcbnew,5.1.2*
G04 #@! TF.CreationDate,2019-07-22T02:15:18+02:00*
G04 #@! TF.ProjectId,OtterScreen,4f747465-7253-4637-9265-656e2e6b6963,rev?*
G04 #@! TF.SameCoordinates,Original*
G04 #@! TF.FileFunction,Copper,L2,Bot*
G04 #@! TF.FilePolarity,Positive*
%FSLAX46Y46*%
G04 Gerber Fmt 4.6, Leading zero omitted, Abs format (unit mm)*
G04 Created by KiCad (PCBNEW 5.1.2) date 2019-07-22 02:15:18*
%MOMM*%
%LPD*%
G04 APERTURE LIST*
%ADD10C,0.150000*%
%ADD11O,1.400000X2.800000*%
%ADD12O,1.200000X2.400000*%
%ADD13O,1.000000X1.800000*%
%ADD14C,0.600000*%
%ADD15C,0.154000*%
%ADD16C,0.500000*%
%ADD17C,0.200000*%
G04 APERTURE END LIST*
D10*
X164099999Y-114200001D02*
G75*
G02X165800000Y-115900000I1J-1700000D01*
G01*
X121000001Y-115900001D02*
G75*
G02X122700000Y-114200000I1700000J1D01*
G01*
X122700001Y-145599999D02*
G75*
G02X121000000Y-143900000I-1J1700000D01*
G01*
X165800000Y-143900000D02*
G75*
G02X164100000Y-145600000I-1700000J0D01*
G01*
X164100000Y-145600000D02*
X136200000Y-145600000D01*
X165800000Y-115900000D02*
X165800000Y-143900000D01*
X122700000Y-114200000D02*
X164099999Y-114200001D01*
X121000000Y-143900000D02*
X121000001Y-115900001D01*
X136200000Y-145600000D02*
X122700001Y-145599999D01*
D11*
X139900000Y-134540000D03*
D12*
X139900000Y-141320000D03*
D11*
X156400000Y-134540000D03*
D12*
X156400000Y-141320000D03*
D13*
X124070000Y-139850000D03*
X132530000Y-139850000D03*
X124070000Y-143650000D03*
X132530000Y-143650000D03*
D14*
X142100000Y-117600000D03*
X139900000Y-117700000D03*
X137700000Y-117600000D03*
X141900000Y-115000000D03*
X141700000Y-120600000D03*
X138400000Y-121700000D03*
X140400000Y-122500000D03*
X137100000Y-123900000D03*
X135600000Y-122500000D03*
X136600000Y-120100000D03*
X135400000Y-118900000D03*
X135200000Y-115200000D03*
X130200000Y-116700000D03*
X130500000Y-119000000D03*
X126000000Y-118300000D03*
X126000000Y-119900000D03*
X126000000Y-121500000D03*
X130700000Y-121900000D03*
X133100000Y-122400000D03*
X130100000Y-124400000D03*
X126000000Y-125900000D03*
X126000000Y-127300000D03*
X126000000Y-128700000D03*
X130900000Y-127000000D03*
X130700000Y-130100000D03*
X140600000Y-138100000D03*
X132300000Y-133900000D03*
X135200000Y-137200000D03*
X133000000Y-136000000D03*
X134600000Y-140800000D03*
X137800000Y-143400000D03*
X144800000Y-138000000D03*
X155200000Y-131000000D03*
X143600000Y-128300000D03*
X142700000Y-130900000D03*
X147700000Y-134600000D03*
X151000000Y-134300000D03*
X147400000Y-129000000D03*
X145000000Y-123200000D03*
X151600000Y-124100000D03*
X151300000Y-121600000D03*
X145800000Y-120400000D03*
X147500000Y-120400000D03*
X142500000Y-126700000D03*
X141600000Y-124900000D03*
X138600000Y-126300000D03*
X136500000Y-128200000D03*
X135300000Y-126000000D03*
X123000000Y-127700000D03*
X123000000Y-117300000D03*
X125700000Y-141400000D03*
X125300000Y-136900000D03*
X129500000Y-136800000D03*
X125200000Y-134200000D03*
X127500000Y-130300000D03*
X143300000Y-135600000D03*
X153100000Y-120450000D03*
X156750000Y-128200000D03*
X156650000Y-124400000D03*
X157100000Y-120950000D03*
X159550000Y-129150000D03*
X159750000Y-136200000D03*
X156000000Y-138800000D03*
X149100000Y-138700000D03*
X152900000Y-127100000D03*
X143200000Y-132500000D03*
X151700000Y-115400000D03*
X151680000Y-120320000D03*
X145100000Y-127400000D03*
X153153893Y-115868990D03*
X152750000Y-129440000D03*
X144623175Y-117721096D03*
X152586277Y-117194665D03*
X145127157Y-125912843D03*
X149942843Y-121042843D03*
X150420000Y-117710000D03*
X149377157Y-120477157D03*
X149620000Y-117710000D03*
X150062843Y-122057157D03*
X148703272Y-117715998D03*
X149497157Y-122622843D03*
X147903272Y-117715998D03*
X153550000Y-129440000D03*
X145423175Y-117721096D03*
X150987157Y-125932843D03*
X146250000Y-117715998D03*
X151552843Y-125367157D03*
X147050000Y-117715998D03*
X152586277Y-117994665D03*
X145692843Y-125347157D03*
X142200000Y-137000000D03*
X129400000Y-133600000D03*
X131840000Y-134860000D03*
X146200000Y-137200000D03*
X142996167Y-134660969D03*
X146827376Y-136768990D03*
X139500000Y-124850000D03*
X136210000Y-124860000D03*
X135460000Y-124860000D03*
X140140000Y-124230000D03*
X132000000Y-115500000D03*
X132000000Y-123300000D03*
X133500000Y-133600000D03*
X143500000Y-134100000D03*
X147460633Y-136268990D03*
D15*
X152900000Y-127100000D02*
X154600000Y-128800000D01*
X154600000Y-128800000D02*
X154600000Y-131900000D01*
X154600000Y-131900000D02*
X154000000Y-132500000D01*
X154000000Y-132500000D02*
X143200000Y-132500000D01*
X151680000Y-120320000D02*
X152800000Y-119200000D01*
X152800000Y-119200000D02*
X152600000Y-119400000D01*
X151700000Y-115400000D02*
X151900000Y-115400000D01*
X153500000Y-118500000D02*
X152800000Y-119200000D01*
X153500000Y-117000000D02*
X153500000Y-118500000D01*
X151900000Y-115400000D02*
X153500000Y-117000000D01*
X152853894Y-115568991D02*
X153153893Y-115868990D01*
X145100000Y-127400000D02*
X142799999Y-125099999D01*
X142799999Y-125099999D02*
X142799999Y-115200001D01*
X142799999Y-115200001D02*
X143300000Y-114700000D01*
X143300000Y-114700000D02*
X151984903Y-114700000D01*
X151984903Y-114700000D02*
X152853894Y-115568991D01*
X144846175Y-121236807D02*
X144846175Y-117944096D01*
X144846175Y-117944096D02*
X144623175Y-117721096D01*
X152750000Y-129440000D02*
X152750000Y-129140632D01*
X152750000Y-129140632D02*
X144846175Y-121236807D01*
X145127157Y-125597473D02*
X145127157Y-125912843D01*
X143503000Y-123973316D02*
X145127157Y-125597473D01*
X144146684Y-115033000D02*
X143503000Y-115676684D01*
X149963316Y-115033000D02*
X144146684Y-115033000D01*
X152347981Y-117417665D02*
X149963316Y-115033000D01*
X152363277Y-117417665D02*
X152347981Y-117417665D01*
X143503000Y-115676684D02*
X143503000Y-123973316D01*
X152586277Y-117194665D02*
X152363277Y-117417665D01*
X149942843Y-120727473D02*
X150197000Y-120473316D01*
X149942843Y-121042843D02*
X149942843Y-120727473D01*
X150197000Y-117933000D02*
X150420000Y-117710000D01*
X150197000Y-120473316D02*
X150197000Y-117933000D01*
X149377157Y-120477157D02*
X149692527Y-120477157D01*
X149692527Y-120477157D02*
X149843000Y-120326684D01*
X149843000Y-117933000D02*
X149620000Y-117710000D01*
X149843000Y-120326684D02*
X149843000Y-117933000D01*
X149747473Y-122057157D02*
X148480272Y-120789956D01*
X148480272Y-120789956D02*
X148480272Y-117938998D01*
X150062843Y-122057157D02*
X149747473Y-122057157D01*
X148480272Y-117938998D02*
X148703272Y-117715998D01*
X148126272Y-117938998D02*
X147903272Y-117715998D01*
X149497157Y-122307473D02*
X148126272Y-120936588D01*
X148126272Y-120936588D02*
X148126272Y-117938998D01*
X149497157Y-122622843D02*
X149497157Y-122307473D01*
X145200175Y-121090175D02*
X145200175Y-117944096D01*
X145200175Y-117944096D02*
X145423175Y-117721096D01*
X153550000Y-129440000D02*
X145200175Y-121090175D01*
X150987157Y-125617473D02*
X146473000Y-121103316D01*
X146473000Y-117938998D02*
X146250000Y-117715998D01*
X146473000Y-121103316D02*
X146473000Y-117938998D01*
X150987157Y-125932843D02*
X150987157Y-125617473D01*
X146827000Y-120956684D02*
X146827000Y-117938998D01*
X151552843Y-125367157D02*
X151237473Y-125367157D01*
X146827000Y-117938998D02*
X147050000Y-117715998D01*
X151237473Y-125367157D02*
X146827000Y-120956684D01*
X145377473Y-125347157D02*
X145692843Y-125347157D01*
X143857000Y-123826684D02*
X145377473Y-125347157D01*
X152201349Y-117771665D02*
X149816684Y-115387000D01*
X152586277Y-117994665D02*
X152363277Y-117771665D01*
X152363277Y-117771665D02*
X152201349Y-117771665D01*
X144293316Y-115387000D02*
X143857000Y-115823316D01*
X149816684Y-115387000D02*
X144293316Y-115387000D01*
X143857000Y-115823316D02*
X143857000Y-123826684D01*
X129400000Y-133600000D02*
X130600000Y-134800000D01*
X130600000Y-134800000D02*
X131780000Y-134800000D01*
X131780000Y-134800000D02*
X131840000Y-134860000D01*
X142200000Y-137000000D02*
X146000000Y-137000000D01*
X146000000Y-137000000D02*
X146200000Y-137200000D01*
X146540137Y-136481751D02*
X146827376Y-136768990D01*
X142996167Y-134660969D02*
X144719355Y-134660969D01*
X144719355Y-134660969D02*
X146540137Y-136481751D01*
D16*
X139500000Y-124850000D02*
X136220000Y-124850000D01*
X136220000Y-124850000D02*
X136210000Y-124860000D01*
X140120000Y-124230000D02*
X139500000Y-124850000D01*
X140140000Y-124230000D02*
X140120000Y-124230000D01*
X136210000Y-124860000D02*
X135460000Y-124860000D01*
D15*
X132000000Y-115500000D02*
X132000000Y-123300000D01*
X132000000Y-123300000D02*
X132000000Y-132100000D01*
X132000000Y-132100000D02*
X133500000Y-133600000D01*
X143500000Y-134100000D02*
X145291643Y-134100000D01*
X145291643Y-134100000D02*
X147460633Y-136268990D01*
D17*
G36*
X142891841Y-114575000D02*
G01*
X142546513Y-114920329D01*
X142532131Y-114932132D01*
X142520328Y-114946514D01*
X142520325Y-114946517D01*
X142485019Y-114989538D01*
X142450011Y-115055032D01*
X142428454Y-115126096D01*
X142421176Y-115200001D01*
X142423000Y-115218523D01*
X142422999Y-125081487D01*
X142421176Y-125099999D01*
X142422999Y-125118511D01*
X142422999Y-125118517D01*
X142426759Y-125156693D01*
X142428454Y-125173904D01*
X142444235Y-125225928D01*
X142450011Y-125244968D01*
X142485018Y-125310461D01*
X142532130Y-125367868D01*
X142546518Y-125379676D01*
X144501285Y-127334444D01*
X144500000Y-127340905D01*
X144500000Y-127459095D01*
X144523058Y-127575014D01*
X144568287Y-127684207D01*
X144633950Y-127782478D01*
X144717522Y-127866050D01*
X144815793Y-127931713D01*
X144924986Y-127976942D01*
X145040905Y-128000000D01*
X145159095Y-128000000D01*
X145275014Y-127976942D01*
X145384207Y-127931713D01*
X145482478Y-127866050D01*
X145566050Y-127782478D01*
X145631713Y-127684207D01*
X145676942Y-127575014D01*
X145700000Y-127459095D01*
X145700000Y-127340905D01*
X145676942Y-127224986D01*
X145631713Y-127115793D01*
X145566050Y-127017522D01*
X145482478Y-126933950D01*
X145384207Y-126868287D01*
X145275014Y-126823058D01*
X145159095Y-126800000D01*
X145040905Y-126800000D01*
X145034444Y-126801285D01*
X143176999Y-124943841D01*
X143176999Y-124163161D01*
X143188020Y-124183779D01*
X143223326Y-124226800D01*
X143223329Y-124226803D01*
X143235132Y-124241185D01*
X143249514Y-124252988D01*
X144607347Y-125610822D01*
X144595444Y-125628636D01*
X144550215Y-125737829D01*
X144527157Y-125853748D01*
X144527157Y-125971938D01*
X144550215Y-126087857D01*
X144595444Y-126197050D01*
X144661107Y-126295321D01*
X144744679Y-126378893D01*
X144842950Y-126444556D01*
X144952143Y-126489785D01*
X145068062Y-126512843D01*
X145186252Y-126512843D01*
X145302171Y-126489785D01*
X145411364Y-126444556D01*
X145509635Y-126378893D01*
X145593207Y-126295321D01*
X145658870Y-126197050D01*
X145704099Y-126087857D01*
X145727157Y-125971938D01*
X145727157Y-125947157D01*
X145751938Y-125947157D01*
X145867857Y-125924099D01*
X145977050Y-125878870D01*
X146075321Y-125813207D01*
X146158893Y-125729635D01*
X146224556Y-125631364D01*
X146269785Y-125522171D01*
X146292843Y-125406252D01*
X146292843Y-125288062D01*
X146269785Y-125172143D01*
X146224556Y-125062950D01*
X146158893Y-124964679D01*
X146075321Y-124881107D01*
X145977050Y-124815444D01*
X145867857Y-124770215D01*
X145751938Y-124747157D01*
X145633748Y-124747157D01*
X145517829Y-124770215D01*
X145408636Y-124815444D01*
X145390822Y-124827347D01*
X144234000Y-123670526D01*
X144234000Y-118180449D01*
X144240697Y-118187146D01*
X144338968Y-118252809D01*
X144448161Y-118298038D01*
X144469176Y-118302218D01*
X144469175Y-121218295D01*
X144467352Y-121236807D01*
X144469175Y-121255319D01*
X144469175Y-121255325D01*
X144472253Y-121286576D01*
X144474630Y-121310712D01*
X144488611Y-121356800D01*
X144496187Y-121381776D01*
X144531194Y-121447269D01*
X144578306Y-121504676D01*
X144592694Y-121516484D01*
X152223781Y-129147571D01*
X152218287Y-129155793D01*
X152173058Y-129264986D01*
X152150000Y-129380905D01*
X152150000Y-129499095D01*
X152173058Y-129615014D01*
X152218287Y-129724207D01*
X152283950Y-129822478D01*
X152367522Y-129906050D01*
X152465793Y-129971713D01*
X152574986Y-130016942D01*
X152690905Y-130040000D01*
X152809095Y-130040000D01*
X152925014Y-130016942D01*
X153034207Y-129971713D01*
X153132478Y-129906050D01*
X153150000Y-129888528D01*
X153167522Y-129906050D01*
X153265793Y-129971713D01*
X153374986Y-130016942D01*
X153490905Y-130040000D01*
X153609095Y-130040000D01*
X153725014Y-130016942D01*
X153834207Y-129971713D01*
X153932478Y-129906050D01*
X154016050Y-129822478D01*
X154081713Y-129724207D01*
X154126942Y-129615014D01*
X154150000Y-129499095D01*
X154150000Y-129380905D01*
X154126942Y-129264986D01*
X154081713Y-129155793D01*
X154016050Y-129057522D01*
X153932478Y-128973950D01*
X153834207Y-128908287D01*
X153725014Y-128863058D01*
X153609095Y-128840000D01*
X153490905Y-128840000D01*
X153484444Y-128841285D01*
X151154475Y-126511316D01*
X151162171Y-126509785D01*
X151271364Y-126464556D01*
X151369635Y-126398893D01*
X151453207Y-126315321D01*
X151518870Y-126217050D01*
X151564099Y-126107857D01*
X151587157Y-125991938D01*
X151587157Y-125967157D01*
X151611938Y-125967157D01*
X151727857Y-125944099D01*
X151837050Y-125898870D01*
X151935321Y-125833207D01*
X152018893Y-125749635D01*
X152084556Y-125651364D01*
X152129785Y-125542171D01*
X152152843Y-125426252D01*
X152152843Y-125308062D01*
X152129785Y-125192143D01*
X152084556Y-125082950D01*
X152018893Y-124984679D01*
X151935321Y-124901107D01*
X151837050Y-124835444D01*
X151727857Y-124790215D01*
X151611938Y-124767157D01*
X151493748Y-124767157D01*
X151377829Y-124790215D01*
X151268636Y-124835444D01*
X151250822Y-124847347D01*
X149614693Y-123211218D01*
X149672171Y-123199785D01*
X149781364Y-123154556D01*
X149879635Y-123088893D01*
X149963207Y-123005321D01*
X150028870Y-122907050D01*
X150074099Y-122797857D01*
X150097157Y-122681938D01*
X150097157Y-122657157D01*
X150121938Y-122657157D01*
X150237857Y-122634099D01*
X150347050Y-122588870D01*
X150445321Y-122523207D01*
X150528893Y-122439635D01*
X150594556Y-122341364D01*
X150639785Y-122232171D01*
X150662843Y-122116252D01*
X150662843Y-121998062D01*
X150639785Y-121882143D01*
X150594556Y-121772950D01*
X150528893Y-121674679D01*
X150445321Y-121591107D01*
X150347050Y-121525444D01*
X150318345Y-121513554D01*
X150325321Y-121508893D01*
X150408893Y-121425321D01*
X150474556Y-121327050D01*
X150519785Y-121217857D01*
X150542843Y-121101938D01*
X150542843Y-120983748D01*
X150519785Y-120867829D01*
X150474556Y-120758636D01*
X150463594Y-120742231D01*
X150464869Y-120741185D01*
X150511981Y-120683779D01*
X150546988Y-120618286D01*
X150568545Y-120547221D01*
X150574000Y-120491835D01*
X150574000Y-120491826D01*
X150575823Y-120473317D01*
X150574000Y-120454808D01*
X150574000Y-118291122D01*
X150595014Y-118286942D01*
X150704207Y-118241713D01*
X150802478Y-118176050D01*
X150886050Y-118092478D01*
X150951713Y-117994207D01*
X150996942Y-117885014D01*
X151020000Y-117769095D01*
X151020000Y-117650905D01*
X150996942Y-117534986D01*
X150951713Y-117425793D01*
X150886050Y-117327522D01*
X150802478Y-117243950D01*
X150704207Y-117178287D01*
X150595014Y-117133058D01*
X150479095Y-117110000D01*
X150360905Y-117110000D01*
X150244986Y-117133058D01*
X150135793Y-117178287D01*
X150037522Y-117243950D01*
X150020000Y-117261472D01*
X150002478Y-117243950D01*
X149904207Y-117178287D01*
X149795014Y-117133058D01*
X149679095Y-117110000D01*
X149560905Y-117110000D01*
X149444986Y-117133058D01*
X149335793Y-117178287D01*
X149237522Y-117243950D01*
X149158637Y-117322835D01*
X149085750Y-117249948D01*
X148987479Y-117184285D01*
X148878286Y-117139056D01*
X148762367Y-117115998D01*
X148644177Y-117115998D01*
X148528258Y-117139056D01*
X148419065Y-117184285D01*
X148320794Y-117249948D01*
X148303272Y-117267470D01*
X148285750Y-117249948D01*
X148187479Y-117184285D01*
X148078286Y-117139056D01*
X147962367Y-117115998D01*
X147844177Y-117115998D01*
X147728258Y-117139056D01*
X147619065Y-117184285D01*
X147520794Y-117249948D01*
X147476636Y-117294106D01*
X147432478Y-117249948D01*
X147334207Y-117184285D01*
X147225014Y-117139056D01*
X147109095Y-117115998D01*
X146990905Y-117115998D01*
X146874986Y-117139056D01*
X146765793Y-117184285D01*
X146667522Y-117249948D01*
X146650000Y-117267470D01*
X146632478Y-117249948D01*
X146534207Y-117184285D01*
X146425014Y-117139056D01*
X146309095Y-117115998D01*
X146190905Y-117115998D01*
X146074986Y-117139056D01*
X145965793Y-117184285D01*
X145867522Y-117249948D01*
X145834039Y-117283432D01*
X145805653Y-117255046D01*
X145707382Y-117189383D01*
X145598189Y-117144154D01*
X145482270Y-117121096D01*
X145364080Y-117121096D01*
X145248161Y-117144154D01*
X145138968Y-117189383D01*
X145040697Y-117255046D01*
X145023175Y-117272568D01*
X145005653Y-117255046D01*
X144907382Y-117189383D01*
X144798189Y-117144154D01*
X144682270Y-117121096D01*
X144564080Y-117121096D01*
X144448161Y-117144154D01*
X144338968Y-117189383D01*
X144240697Y-117255046D01*
X144234000Y-117261743D01*
X144234000Y-115979474D01*
X144449475Y-115764000D01*
X149660526Y-115764000D01*
X151921677Y-118025152D01*
X151933480Y-118039534D01*
X151947862Y-118051337D01*
X151947864Y-118051339D01*
X151990886Y-118086646D01*
X151993048Y-118087802D01*
X152009335Y-118169679D01*
X152054564Y-118278872D01*
X152120227Y-118377143D01*
X152203799Y-118460715D01*
X152302070Y-118526378D01*
X152411263Y-118571607D01*
X152527182Y-118594665D01*
X152645372Y-118594665D01*
X152761291Y-118571607D01*
X152870484Y-118526378D01*
X152968755Y-118460715D01*
X153052327Y-118377143D01*
X153117990Y-118278872D01*
X153123001Y-118266775D01*
X153123001Y-118343841D01*
X152546521Y-118920321D01*
X152546515Y-118920326D01*
X151745556Y-119721285D01*
X151739095Y-119720000D01*
X151620905Y-119720000D01*
X151504986Y-119743058D01*
X151395793Y-119788287D01*
X151297522Y-119853950D01*
X151213950Y-119937522D01*
X151148287Y-120035793D01*
X151103058Y-120144986D01*
X151080000Y-120260905D01*
X151080000Y-120379095D01*
X151103058Y-120495014D01*
X151148287Y-120604207D01*
X151213950Y-120702478D01*
X151297522Y-120786050D01*
X151395793Y-120851713D01*
X151504986Y-120896942D01*
X151620905Y-120920000D01*
X151739095Y-120920000D01*
X151855014Y-120896942D01*
X151964207Y-120851713D01*
X152062478Y-120786050D01*
X152146050Y-120702478D01*
X152211713Y-120604207D01*
X152256942Y-120495014D01*
X152280000Y-120379095D01*
X152280000Y-120260905D01*
X152278715Y-120254444D01*
X153079674Y-119453485D01*
X153079679Y-119453479D01*
X153753481Y-118779677D01*
X153767869Y-118767869D01*
X153814981Y-118710463D01*
X153849988Y-118644970D01*
X153871545Y-118573905D01*
X153877000Y-118518519D01*
X153877000Y-118518510D01*
X153878823Y-118500001D01*
X153877000Y-118481492D01*
X153877000Y-117396207D01*
X161175000Y-117396207D01*
X161175000Y-117553793D01*
X161205743Y-117708351D01*
X161266049Y-117853942D01*
X161353599Y-117984970D01*
X161465030Y-118096401D01*
X161596058Y-118183951D01*
X161741649Y-118244257D01*
X161896207Y-118275000D01*
X162053793Y-118275000D01*
X162208351Y-118244257D01*
X162353942Y-118183951D01*
X162484970Y-118096401D01*
X162596401Y-117984970D01*
X162683951Y-117853942D01*
X162744257Y-117708351D01*
X162775000Y-117553793D01*
X162775000Y-117396207D01*
X162744257Y-117241649D01*
X162683951Y-117096058D01*
X162596401Y-116965030D01*
X162484970Y-116853599D01*
X162353942Y-116766049D01*
X162208351Y-116705743D01*
X162053793Y-116675000D01*
X161896207Y-116675000D01*
X161741649Y-116705743D01*
X161596058Y-116766049D01*
X161465030Y-116853599D01*
X161353599Y-116965030D01*
X161266049Y-117096058D01*
X161205743Y-117241649D01*
X161175000Y-117396207D01*
X153877000Y-117396207D01*
X153877000Y-117018519D01*
X153878824Y-117000000D01*
X153871545Y-116926094D01*
X153849988Y-116855030D01*
X153844454Y-116844677D01*
X153814981Y-116789537D01*
X153767869Y-116732131D01*
X153753488Y-116720329D01*
X153435103Y-116401944D01*
X153438100Y-116400703D01*
X153536371Y-116335040D01*
X153619943Y-116251468D01*
X153685606Y-116153197D01*
X153730835Y-116044004D01*
X153753893Y-115928085D01*
X153753893Y-115809895D01*
X153730835Y-115693976D01*
X153685606Y-115584783D01*
X153619943Y-115486512D01*
X153536371Y-115402940D01*
X153438100Y-115337277D01*
X153328907Y-115292048D01*
X153212988Y-115268990D01*
X153094798Y-115268990D01*
X153088337Y-115270275D01*
X152393062Y-114575000D01*
X164081662Y-114575001D01*
X164357009Y-114601999D01*
X164604234Y-114676640D01*
X164832251Y-114797879D01*
X165032373Y-114961095D01*
X165196984Y-115160077D01*
X165319812Y-115387242D01*
X165396175Y-115633931D01*
X165425000Y-115908179D01*
X165425001Y-143881653D01*
X165398002Y-144157008D01*
X165323360Y-144404235D01*
X165202125Y-144632246D01*
X165038904Y-144832374D01*
X164839927Y-144996982D01*
X164612759Y-145119811D01*
X164366068Y-145196175D01*
X164091821Y-145225000D01*
X136181581Y-145225000D01*
X136181571Y-145225001D01*
X122718338Y-145224999D01*
X122442991Y-145198001D01*
X122195767Y-145123360D01*
X121967755Y-145002125D01*
X121767627Y-144838904D01*
X121603017Y-144639925D01*
X121480189Y-144412761D01*
X121403825Y-144166068D01*
X121374999Y-143891812D01*
X121374999Y-143800000D01*
X123270000Y-143800000D01*
X123270000Y-144200000D01*
X123314635Y-144353190D01*
X123388299Y-144494729D01*
X123488160Y-144619177D01*
X123610381Y-144721752D01*
X123750265Y-144798512D01*
X123798919Y-144802672D01*
X123920000Y-144759313D01*
X123920000Y-143800000D01*
X124220000Y-143800000D01*
X124220000Y-144759313D01*
X124341081Y-144802672D01*
X124389735Y-144798512D01*
X124529619Y-144721752D01*
X124651840Y-144619177D01*
X124751701Y-144494729D01*
X124825365Y-144353190D01*
X124870000Y-144200000D01*
X124870000Y-143800000D01*
X131730000Y-143800000D01*
X131730000Y-144200000D01*
X131774635Y-144353190D01*
X131848299Y-144494729D01*
X131948160Y-144619177D01*
X132070381Y-144721752D01*
X132210265Y-144798512D01*
X132258919Y-144802672D01*
X132380000Y-144759313D01*
X132380000Y-143800000D01*
X132680000Y-143800000D01*
X132680000Y-144759313D01*
X132801081Y-144802672D01*
X132849735Y-144798512D01*
X132989619Y-144721752D01*
X133111840Y-144619177D01*
X133211701Y-144494729D01*
X133285365Y-144353190D01*
X133330000Y-144200000D01*
X133330000Y-143800000D01*
X132680000Y-143800000D01*
X132380000Y-143800000D01*
X131730000Y-143800000D01*
X124870000Y-143800000D01*
X124220000Y-143800000D01*
X123920000Y-143800000D01*
X123270000Y-143800000D01*
X121374999Y-143800000D01*
X121374999Y-143100000D01*
X123270000Y-143100000D01*
X123270000Y-143500000D01*
X123920000Y-143500000D01*
X123920000Y-142540687D01*
X124220000Y-142540687D01*
X124220000Y-143500000D01*
X124870000Y-143500000D01*
X124870000Y-143100000D01*
X131730000Y-143100000D01*
X131730000Y-143500000D01*
X132380000Y-143500000D01*
X132380000Y-142540687D01*
X132680000Y-142540687D01*
X132680000Y-143500000D01*
X133330000Y-143500000D01*
X133330000Y-143100000D01*
X133285365Y-142946810D01*
X133211701Y-142805271D01*
X133111840Y-142680823D01*
X132989619Y-142578248D01*
X132849735Y-142501488D01*
X132801081Y-142497328D01*
X132680000Y-142540687D01*
X132380000Y-142540687D01*
X132258919Y-142497328D01*
X132210265Y-142501488D01*
X132070381Y-142578248D01*
X131948160Y-142680823D01*
X131848299Y-142805271D01*
X131774635Y-142946810D01*
X131730000Y-143100000D01*
X124870000Y-143100000D01*
X124825365Y-142946810D01*
X124751701Y-142805271D01*
X124651840Y-142680823D01*
X124529619Y-142578248D01*
X124389735Y-142501488D01*
X124341081Y-142497328D01*
X124220000Y-142540687D01*
X123920000Y-142540687D01*
X123798919Y-142497328D01*
X123750265Y-142501488D01*
X123610381Y-142578248D01*
X123488160Y-142680823D01*
X123388299Y-142805271D01*
X123314635Y-142946810D01*
X123270000Y-143100000D01*
X121374999Y-143100000D01*
X121374999Y-141470000D01*
X139000000Y-141470000D01*
X139000000Y-142070000D01*
X139046557Y-142242699D01*
X139125911Y-142402997D01*
X139235013Y-142544734D01*
X139369670Y-142662462D01*
X139524707Y-142751658D01*
X139613025Y-142773021D01*
X139750000Y-142731249D01*
X139750000Y-141470000D01*
X140050000Y-141470000D01*
X140050000Y-142731249D01*
X140186975Y-142773021D01*
X140275293Y-142751658D01*
X140430330Y-142662462D01*
X140564987Y-142544734D01*
X140674089Y-142402997D01*
X140753443Y-142242699D01*
X140786113Y-142121509D01*
X147150000Y-142121509D01*
X147150000Y-142318491D01*
X147188429Y-142511689D01*
X147263811Y-142693678D01*
X147373249Y-142857463D01*
X147512537Y-142996751D01*
X147676322Y-143106189D01*
X147858311Y-143181571D01*
X148051509Y-143220000D01*
X148248491Y-143220000D01*
X148441689Y-143181571D01*
X148623678Y-143106189D01*
X148787463Y-142996751D01*
X148926751Y-142857463D01*
X149036189Y-142693678D01*
X149111571Y-142511689D01*
X149150000Y-142318491D01*
X149150000Y-142121509D01*
X149111571Y-141928311D01*
X149036189Y-141746322D01*
X148926751Y-141582537D01*
X148814214Y-141470000D01*
X155500000Y-141470000D01*
X155500000Y-142070000D01*
X155546557Y-142242699D01*
X155625911Y-142402997D01*
X155735013Y-142544734D01*
X155869670Y-142662462D01*
X156024707Y-142751658D01*
X156113025Y-142773021D01*
X156250000Y-142731249D01*
X156250000Y-141470000D01*
X156550000Y-141470000D01*
X156550000Y-142731249D01*
X156686975Y-142773021D01*
X156775293Y-142751658D01*
X156930330Y-142662462D01*
X157064987Y-142544734D01*
X157174089Y-142402997D01*
X157253443Y-142242699D01*
X157300000Y-142070000D01*
X157300000Y-141470000D01*
X156550000Y-141470000D01*
X156250000Y-141470000D01*
X155500000Y-141470000D01*
X148814214Y-141470000D01*
X148787463Y-141443249D01*
X148623678Y-141333811D01*
X148441689Y-141258429D01*
X148248491Y-141220000D01*
X148051509Y-141220000D01*
X147858311Y-141258429D01*
X147676322Y-141333811D01*
X147512537Y-141443249D01*
X147373249Y-141582537D01*
X147263811Y-141746322D01*
X147188429Y-141928311D01*
X147150000Y-142121509D01*
X140786113Y-142121509D01*
X140800000Y-142070000D01*
X140800000Y-141470000D01*
X140050000Y-141470000D01*
X139750000Y-141470000D01*
X139000000Y-141470000D01*
X121374999Y-141470000D01*
X121374999Y-140000000D01*
X123270000Y-140000000D01*
X123270000Y-140400000D01*
X123314635Y-140553190D01*
X123388299Y-140694729D01*
X123488160Y-140819177D01*
X123610381Y-140921752D01*
X123750265Y-140998512D01*
X123798919Y-141002672D01*
X123920000Y-140959313D01*
X123920000Y-140000000D01*
X124220000Y-140000000D01*
X124220000Y-140959313D01*
X124341081Y-141002672D01*
X124389735Y-140998512D01*
X124529619Y-140921752D01*
X124651840Y-140819177D01*
X124751701Y-140694729D01*
X124825365Y-140553190D01*
X124870000Y-140400000D01*
X124870000Y-140000000D01*
X131730000Y-140000000D01*
X131730000Y-140400000D01*
X131774635Y-140553190D01*
X131848299Y-140694729D01*
X131948160Y-140819177D01*
X132070381Y-140921752D01*
X132210265Y-140998512D01*
X132258919Y-141002672D01*
X132380000Y-140959313D01*
X132380000Y-140000000D01*
X132680000Y-140000000D01*
X132680000Y-140959313D01*
X132801081Y-141002672D01*
X132849735Y-140998512D01*
X132989619Y-140921752D01*
X133111840Y-140819177D01*
X133211701Y-140694729D01*
X133276616Y-140570000D01*
X139000000Y-140570000D01*
X139000000Y-141170000D01*
X139750000Y-141170000D01*
X139750000Y-139908751D01*
X140050000Y-139908751D01*
X140050000Y-141170000D01*
X140800000Y-141170000D01*
X140800000Y-140570000D01*
X155500000Y-140570000D01*
X155500000Y-141170000D01*
X156250000Y-141170000D01*
X156250000Y-139908751D01*
X156550000Y-139908751D01*
X156550000Y-141170000D01*
X157300000Y-141170000D01*
X157300000Y-140570000D01*
X157253443Y-140397301D01*
X157174089Y-140237003D01*
X157064987Y-140095266D01*
X156930330Y-139977538D01*
X156775293Y-139888342D01*
X156686975Y-139866979D01*
X156550000Y-139908751D01*
X156250000Y-139908751D01*
X156113025Y-139866979D01*
X156024707Y-139888342D01*
X155869670Y-139977538D01*
X155735013Y-140095266D01*
X155625911Y-140237003D01*
X155546557Y-140397301D01*
X155500000Y-140570000D01*
X140800000Y-140570000D01*
X140753443Y-140397301D01*
X140674089Y-140237003D01*
X140564987Y-140095266D01*
X140430330Y-139977538D01*
X140275293Y-139888342D01*
X140186975Y-139866979D01*
X140050000Y-139908751D01*
X139750000Y-139908751D01*
X139613025Y-139866979D01*
X139524707Y-139888342D01*
X139369670Y-139977538D01*
X139235013Y-140095266D01*
X139125911Y-140237003D01*
X139046557Y-140397301D01*
X139000000Y-140570000D01*
X133276616Y-140570000D01*
X133285365Y-140553190D01*
X133330000Y-140400000D01*
X133330000Y-140000000D01*
X132680000Y-140000000D01*
X132380000Y-140000000D01*
X131730000Y-140000000D01*
X124870000Y-140000000D01*
X124220000Y-140000000D01*
X123920000Y-140000000D01*
X123270000Y-140000000D01*
X121374999Y-140000000D01*
X121374999Y-139300000D01*
X123270000Y-139300000D01*
X123270000Y-139700000D01*
X123920000Y-139700000D01*
X123920000Y-138740687D01*
X124220000Y-138740687D01*
X124220000Y-139700000D01*
X124870000Y-139700000D01*
X124870000Y-139300000D01*
X131730000Y-139300000D01*
X131730000Y-139700000D01*
X132380000Y-139700000D01*
X132380000Y-138740687D01*
X132680000Y-138740687D01*
X132680000Y-139700000D01*
X133330000Y-139700000D01*
X133330000Y-139300000D01*
X133285365Y-139146810D01*
X133211701Y-139005271D01*
X133111840Y-138880823D01*
X132989619Y-138778248D01*
X132849735Y-138701488D01*
X132801081Y-138697328D01*
X132680000Y-138740687D01*
X132380000Y-138740687D01*
X132258919Y-138697328D01*
X132210265Y-138701488D01*
X132070381Y-138778248D01*
X131948160Y-138880823D01*
X131848299Y-139005271D01*
X131774635Y-139146810D01*
X131730000Y-139300000D01*
X124870000Y-139300000D01*
X124825365Y-139146810D01*
X124751701Y-139005271D01*
X124651840Y-138880823D01*
X124529619Y-138778248D01*
X124389735Y-138701488D01*
X124341081Y-138697328D01*
X124220000Y-138740687D01*
X123920000Y-138740687D01*
X123798919Y-138697328D01*
X123750265Y-138701488D01*
X123610381Y-138778248D01*
X123488160Y-138880823D01*
X123388299Y-139005271D01*
X123314635Y-139146810D01*
X123270000Y-139300000D01*
X121374999Y-139300000D01*
X121374999Y-136940905D01*
X141600000Y-136940905D01*
X141600000Y-137059095D01*
X141623058Y-137175014D01*
X141668287Y-137284207D01*
X141733950Y-137382478D01*
X141817522Y-137466050D01*
X141915793Y-137531713D01*
X142024986Y-137576942D01*
X142140905Y-137600000D01*
X142259095Y-137600000D01*
X142375014Y-137576942D01*
X142484207Y-137531713D01*
X142582478Y-137466050D01*
X142666050Y-137382478D01*
X142669710Y-137377000D01*
X145623881Y-137377000D01*
X145668287Y-137484207D01*
X145733950Y-137582478D01*
X145817522Y-137666050D01*
X145915793Y-137731713D01*
X146024986Y-137776942D01*
X146140905Y-137800000D01*
X146259095Y-137800000D01*
X146375014Y-137776942D01*
X146484207Y-137731713D01*
X146582478Y-137666050D01*
X146666050Y-137582478D01*
X146731713Y-137484207D01*
X146776942Y-137375014D01*
X146778140Y-137368990D01*
X146886471Y-137368990D01*
X147002390Y-137345932D01*
X147111583Y-137300703D01*
X147209854Y-137235040D01*
X147293426Y-137151468D01*
X147359089Y-137053197D01*
X147404318Y-136944004D01*
X147419239Y-136868990D01*
X147519728Y-136868990D01*
X147635647Y-136845932D01*
X147744840Y-136800703D01*
X147843111Y-136735040D01*
X147926683Y-136651468D01*
X147992346Y-136553197D01*
X148037575Y-136444004D01*
X148060633Y-136328085D01*
X148060633Y-136209895D01*
X148037575Y-136093976D01*
X147992346Y-135984783D01*
X147926683Y-135886512D01*
X147843111Y-135802940D01*
X147744840Y-135737277D01*
X147635647Y-135692048D01*
X147519728Y-135668990D01*
X147401538Y-135668990D01*
X147395077Y-135670275D01*
X146414802Y-134690000D01*
X155400000Y-134690000D01*
X155400000Y-135390000D01*
X155448478Y-135582208D01*
X155533523Y-135761265D01*
X155651866Y-135920290D01*
X155798959Y-136053172D01*
X155969150Y-136154804D01*
X156097182Y-136193048D01*
X156250000Y-136152757D01*
X156250000Y-134690000D01*
X156550000Y-134690000D01*
X156550000Y-136152757D01*
X156702818Y-136193048D01*
X156830850Y-136154804D01*
X157001041Y-136053172D01*
X157148134Y-135920290D01*
X157266477Y-135761265D01*
X157351522Y-135582208D01*
X157400000Y-135390000D01*
X157400000Y-134690000D01*
X156550000Y-134690000D01*
X156250000Y-134690000D01*
X155400000Y-134690000D01*
X146414802Y-134690000D01*
X145571320Y-133846519D01*
X145559512Y-133832131D01*
X145502106Y-133785019D01*
X145436613Y-133750012D01*
X145365548Y-133728455D01*
X145310162Y-133723000D01*
X145310155Y-133723000D01*
X145291643Y-133721177D01*
X145273131Y-133723000D01*
X143969710Y-133723000D01*
X143966050Y-133717522D01*
X143938528Y-133690000D01*
X155400000Y-133690000D01*
X155400000Y-134390000D01*
X156250000Y-134390000D01*
X156250000Y-132927243D01*
X156550000Y-132927243D01*
X156550000Y-134390000D01*
X157400000Y-134390000D01*
X157400000Y-133690000D01*
X157351522Y-133497792D01*
X157266477Y-133318735D01*
X157148134Y-133159710D01*
X157001041Y-133026828D01*
X156830850Y-132925196D01*
X156702818Y-132886952D01*
X156550000Y-132927243D01*
X156250000Y-132927243D01*
X156097182Y-132886952D01*
X155969150Y-132925196D01*
X155798959Y-133026828D01*
X155651866Y-133159710D01*
X155533523Y-133318735D01*
X155448478Y-133497792D01*
X155400000Y-133690000D01*
X143938528Y-133690000D01*
X143882478Y-133633950D01*
X143784207Y-133568287D01*
X143675014Y-133523058D01*
X143559095Y-133500000D01*
X143440905Y-133500000D01*
X143324986Y-133523058D01*
X143215793Y-133568287D01*
X143117522Y-133633950D01*
X143033950Y-133717522D01*
X142968287Y-133815793D01*
X142923058Y-133924986D01*
X142900000Y-134040905D01*
X142900000Y-134068343D01*
X142821153Y-134084027D01*
X142711960Y-134129256D01*
X142613689Y-134194919D01*
X142530117Y-134278491D01*
X142464454Y-134376762D01*
X142419225Y-134485955D01*
X142396167Y-134601874D01*
X142396167Y-134720064D01*
X142419225Y-134835983D01*
X142464454Y-134945176D01*
X142530117Y-135043447D01*
X142613689Y-135127019D01*
X142711960Y-135192682D01*
X142821153Y-135237911D01*
X142937072Y-135260969D01*
X143055262Y-135260969D01*
X143171181Y-135237911D01*
X143280374Y-135192682D01*
X143378645Y-135127019D01*
X143462217Y-135043447D01*
X143465877Y-135037969D01*
X144563197Y-135037969D01*
X146127828Y-136602601D01*
X146024986Y-136623058D01*
X146023857Y-136623526D01*
X146018519Y-136623000D01*
X146018512Y-136623000D01*
X146000000Y-136621177D01*
X145981488Y-136623000D01*
X142669710Y-136623000D01*
X142666050Y-136617522D01*
X142582478Y-136533950D01*
X142484207Y-136468287D01*
X142375014Y-136423058D01*
X142259095Y-136400000D01*
X142140905Y-136400000D01*
X142024986Y-136423058D01*
X141915793Y-136468287D01*
X141817522Y-136533950D01*
X141733950Y-136617522D01*
X141668287Y-136715793D01*
X141623058Y-136824986D01*
X141600000Y-136940905D01*
X121374999Y-136940905D01*
X121374999Y-133540905D01*
X128800000Y-133540905D01*
X128800000Y-133659095D01*
X128823058Y-133775014D01*
X128868287Y-133884207D01*
X128933950Y-133982478D01*
X129017522Y-134066050D01*
X129115793Y-134131713D01*
X129224986Y-134176942D01*
X129340905Y-134200000D01*
X129459095Y-134200000D01*
X129465557Y-134198715D01*
X130320323Y-135053481D01*
X130332131Y-135067869D01*
X130389537Y-135114981D01*
X130455030Y-135149988D01*
X130526095Y-135171545D01*
X130581481Y-135177000D01*
X130581490Y-135177000D01*
X130599999Y-135178823D01*
X130618508Y-135177000D01*
X131330199Y-135177000D01*
X131373950Y-135242478D01*
X131457522Y-135326050D01*
X131555793Y-135391713D01*
X131664986Y-135436942D01*
X131780905Y-135460000D01*
X131899095Y-135460000D01*
X132015014Y-135436942D01*
X132124207Y-135391713D01*
X132222478Y-135326050D01*
X132306050Y-135242478D01*
X132371713Y-135144207D01*
X132416942Y-135035014D01*
X132440000Y-134919095D01*
X132440000Y-134800905D01*
X132417940Y-134690000D01*
X138900000Y-134690000D01*
X138900000Y-135390000D01*
X138948478Y-135582208D01*
X139033523Y-135761265D01*
X139151866Y-135920290D01*
X139298959Y-136053172D01*
X139469150Y-136154804D01*
X139597182Y-136193048D01*
X139750000Y-136152757D01*
X139750000Y-134690000D01*
X140050000Y-134690000D01*
X140050000Y-136152757D01*
X140202818Y-136193048D01*
X140330850Y-136154804D01*
X140501041Y-136053172D01*
X140648134Y-135920290D01*
X140766477Y-135761265D01*
X140851522Y-135582208D01*
X140900000Y-135390000D01*
X140900000Y-134690000D01*
X140050000Y-134690000D01*
X139750000Y-134690000D01*
X138900000Y-134690000D01*
X132417940Y-134690000D01*
X132416942Y-134684986D01*
X132371713Y-134575793D01*
X132306050Y-134477522D01*
X132222478Y-134393950D01*
X132124207Y-134328287D01*
X132015014Y-134283058D01*
X131899095Y-134260000D01*
X131780905Y-134260000D01*
X131664986Y-134283058D01*
X131555793Y-134328287D01*
X131457522Y-134393950D01*
X131428472Y-134423000D01*
X130756158Y-134423000D01*
X129998715Y-133665557D01*
X130000000Y-133659095D01*
X130000000Y-133540905D01*
X129976942Y-133424986D01*
X129931713Y-133315793D01*
X129866050Y-133217522D01*
X129782478Y-133133950D01*
X129684207Y-133068287D01*
X129575014Y-133023058D01*
X129459095Y-133000000D01*
X129340905Y-133000000D01*
X129224986Y-133023058D01*
X129115793Y-133068287D01*
X129017522Y-133133950D01*
X128933950Y-133217522D01*
X128868287Y-133315793D01*
X128823058Y-133424986D01*
X128800000Y-133540905D01*
X121374999Y-133540905D01*
X121375001Y-115918338D01*
X121401999Y-115642991D01*
X121463011Y-115440905D01*
X131400000Y-115440905D01*
X131400000Y-115559095D01*
X131423058Y-115675014D01*
X131468287Y-115784207D01*
X131533950Y-115882478D01*
X131617522Y-115966050D01*
X131623000Y-115969710D01*
X131623001Y-122830289D01*
X131617522Y-122833950D01*
X131533950Y-122917522D01*
X131468287Y-123015793D01*
X131423058Y-123124986D01*
X131400000Y-123240905D01*
X131400000Y-123359095D01*
X131423058Y-123475014D01*
X131468287Y-123584207D01*
X131533950Y-123682478D01*
X131617522Y-123766050D01*
X131623000Y-123769710D01*
X131623001Y-132081478D01*
X131621177Y-132100000D01*
X131628455Y-132173905D01*
X131650012Y-132244969D01*
X131685020Y-132310463D01*
X131720326Y-132353484D01*
X131720329Y-132353487D01*
X131732132Y-132367869D01*
X131746514Y-132379672D01*
X132901285Y-133534443D01*
X132900000Y-133540905D01*
X132900000Y-133659095D01*
X132923058Y-133775014D01*
X132968287Y-133884207D01*
X133033950Y-133982478D01*
X133117522Y-134066050D01*
X133215793Y-134131713D01*
X133324986Y-134176942D01*
X133440905Y-134200000D01*
X133559095Y-134200000D01*
X133675014Y-134176942D01*
X133784207Y-134131713D01*
X133882478Y-134066050D01*
X133966050Y-133982478D01*
X134031713Y-133884207D01*
X134076942Y-133775014D01*
X134093852Y-133690000D01*
X138900000Y-133690000D01*
X138900000Y-134390000D01*
X139750000Y-134390000D01*
X139750000Y-132927243D01*
X140050000Y-132927243D01*
X140050000Y-134390000D01*
X140900000Y-134390000D01*
X140900000Y-133690000D01*
X140851522Y-133497792D01*
X140766477Y-133318735D01*
X140648134Y-133159710D01*
X140501041Y-133026828D01*
X140330850Y-132925196D01*
X140202818Y-132886952D01*
X140050000Y-132927243D01*
X139750000Y-132927243D01*
X139597182Y-132886952D01*
X139469150Y-132925196D01*
X139298959Y-133026828D01*
X139151866Y-133159710D01*
X139033523Y-133318735D01*
X138948478Y-133497792D01*
X138900000Y-133690000D01*
X134093852Y-133690000D01*
X134100000Y-133659095D01*
X134100000Y-133540905D01*
X134076942Y-133424986D01*
X134031713Y-133315793D01*
X133966050Y-133217522D01*
X133882478Y-133133950D01*
X133784207Y-133068287D01*
X133675014Y-133023058D01*
X133559095Y-133000000D01*
X133440905Y-133000000D01*
X133434443Y-133001285D01*
X132874063Y-132440905D01*
X142600000Y-132440905D01*
X142600000Y-132559095D01*
X142623058Y-132675014D01*
X142668287Y-132784207D01*
X142733950Y-132882478D01*
X142817522Y-132966050D01*
X142915793Y-133031713D01*
X143024986Y-133076942D01*
X143140905Y-133100000D01*
X143259095Y-133100000D01*
X143375014Y-133076942D01*
X143484207Y-133031713D01*
X143582478Y-132966050D01*
X143666050Y-132882478D01*
X143669710Y-132877000D01*
X153981488Y-132877000D01*
X154000000Y-132878823D01*
X154018512Y-132877000D01*
X154018519Y-132877000D01*
X154073905Y-132871545D01*
X154144970Y-132849988D01*
X154210463Y-132814981D01*
X154267869Y-132767869D01*
X154279677Y-132753481D01*
X154853487Y-132179672D01*
X154867869Y-132167869D01*
X154914981Y-132110463D01*
X154949988Y-132044970D01*
X154971545Y-131973905D01*
X154977000Y-131918519D01*
X154977000Y-131918510D01*
X154978823Y-131900001D01*
X154977000Y-131881492D01*
X154977000Y-130196207D01*
X161175000Y-130196207D01*
X161175000Y-130353793D01*
X161205743Y-130508351D01*
X161266049Y-130653942D01*
X161353599Y-130784970D01*
X161465030Y-130896401D01*
X161596058Y-130983951D01*
X161741649Y-131044257D01*
X161896207Y-131075000D01*
X162053793Y-131075000D01*
X162208351Y-131044257D01*
X162353942Y-130983951D01*
X162484970Y-130896401D01*
X162596401Y-130784970D01*
X162683951Y-130653942D01*
X162744257Y-130508351D01*
X162775000Y-130353793D01*
X162775000Y-130196207D01*
X162744257Y-130041649D01*
X162683951Y-129896058D01*
X162596401Y-129765030D01*
X162484970Y-129653599D01*
X162353942Y-129566049D01*
X162208351Y-129505743D01*
X162053793Y-129475000D01*
X161896207Y-129475000D01*
X161741649Y-129505743D01*
X161596058Y-129566049D01*
X161465030Y-129653599D01*
X161353599Y-129765030D01*
X161266049Y-129896058D01*
X161205743Y-130041649D01*
X161175000Y-130196207D01*
X154977000Y-130196207D01*
X154977000Y-128818508D01*
X154978823Y-128799999D01*
X154977000Y-128781490D01*
X154977000Y-128781481D01*
X154971545Y-128726095D01*
X154949988Y-128655030D01*
X154914981Y-128589537D01*
X154867869Y-128532131D01*
X154853488Y-128520329D01*
X153498715Y-127165557D01*
X153500000Y-127159095D01*
X153500000Y-127040905D01*
X153476942Y-126924986D01*
X153431713Y-126815793D01*
X153366050Y-126717522D01*
X153282478Y-126633950D01*
X153184207Y-126568287D01*
X153075014Y-126523058D01*
X152959095Y-126500000D01*
X152840905Y-126500000D01*
X152724986Y-126523058D01*
X152615793Y-126568287D01*
X152517522Y-126633950D01*
X152433950Y-126717522D01*
X152368287Y-126815793D01*
X152323058Y-126924986D01*
X152300000Y-127040905D01*
X152300000Y-127159095D01*
X152323058Y-127275014D01*
X152368287Y-127384207D01*
X152433950Y-127482478D01*
X152517522Y-127566050D01*
X152615793Y-127631713D01*
X152724986Y-127676942D01*
X152840905Y-127700000D01*
X152959095Y-127700000D01*
X152965557Y-127698715D01*
X154223000Y-128956159D01*
X154223001Y-131743840D01*
X153843842Y-132123000D01*
X143669710Y-132123000D01*
X143666050Y-132117522D01*
X143582478Y-132033950D01*
X143484207Y-131968287D01*
X143375014Y-131923058D01*
X143259095Y-131900000D01*
X143140905Y-131900000D01*
X143024986Y-131923058D01*
X142915793Y-131968287D01*
X142817522Y-132033950D01*
X142733950Y-132117522D01*
X142668287Y-132215793D01*
X142623058Y-132324986D01*
X142600000Y-132440905D01*
X132874063Y-132440905D01*
X132377000Y-131943842D01*
X132377000Y-124800905D01*
X134860000Y-124800905D01*
X134860000Y-124919095D01*
X134883058Y-125035014D01*
X134928287Y-125144207D01*
X134993950Y-125242478D01*
X135077522Y-125326050D01*
X135175793Y-125391713D01*
X135284986Y-125436942D01*
X135400905Y-125460000D01*
X135519095Y-125460000D01*
X135635014Y-125436942D01*
X135700058Y-125410000D01*
X135969942Y-125410000D01*
X136034986Y-125436942D01*
X136150905Y-125460000D01*
X136269095Y-125460000D01*
X136385014Y-125436942D01*
X136474200Y-125400000D01*
X139259942Y-125400000D01*
X139324986Y-125426942D01*
X139440905Y-125450000D01*
X139559095Y-125450000D01*
X139675014Y-125426942D01*
X139784207Y-125381713D01*
X139882478Y-125316050D01*
X139966050Y-125232478D01*
X140031713Y-125134207D01*
X140058655Y-125069162D01*
X140325020Y-124802797D01*
X140424207Y-124761713D01*
X140522478Y-124696050D01*
X140606050Y-124612478D01*
X140671713Y-124514207D01*
X140716942Y-124405014D01*
X140740000Y-124289095D01*
X140740000Y-124170905D01*
X140716942Y-124054986D01*
X140671713Y-123945793D01*
X140606050Y-123847522D01*
X140522478Y-123763950D01*
X140424207Y-123698287D01*
X140315014Y-123653058D01*
X140199095Y-123630000D01*
X140080905Y-123630000D01*
X139964986Y-123653058D01*
X139855793Y-123698287D01*
X139757522Y-123763950D01*
X139673950Y-123847522D01*
X139608287Y-123945793D01*
X139595487Y-123976695D01*
X139280838Y-124291345D01*
X139259942Y-124300000D01*
X136425916Y-124300000D01*
X136385014Y-124283058D01*
X136269095Y-124260000D01*
X136150905Y-124260000D01*
X136034986Y-124283058D01*
X135969942Y-124310000D01*
X135700058Y-124310000D01*
X135635014Y-124283058D01*
X135519095Y-124260000D01*
X135400905Y-124260000D01*
X135284986Y-124283058D01*
X135175793Y-124328287D01*
X135077522Y-124393950D01*
X134993950Y-124477522D01*
X134928287Y-124575793D01*
X134883058Y-124684986D01*
X134860000Y-124800905D01*
X132377000Y-124800905D01*
X132377000Y-123769710D01*
X132382478Y-123766050D01*
X132466050Y-123682478D01*
X132531713Y-123584207D01*
X132576942Y-123475014D01*
X132600000Y-123359095D01*
X132600000Y-123240905D01*
X132576942Y-123124986D01*
X132531713Y-123015793D01*
X132466050Y-122917522D01*
X132382478Y-122833950D01*
X132377000Y-122830290D01*
X132377000Y-115969710D01*
X132382478Y-115966050D01*
X132466050Y-115882478D01*
X132531713Y-115784207D01*
X132576942Y-115675014D01*
X132600000Y-115559095D01*
X132600000Y-115440905D01*
X132576942Y-115324986D01*
X132531713Y-115215793D01*
X132466050Y-115117522D01*
X132382478Y-115033950D01*
X132284207Y-114968287D01*
X132175014Y-114923058D01*
X132059095Y-114900000D01*
X131940905Y-114900000D01*
X131824986Y-114923058D01*
X131715793Y-114968287D01*
X131617522Y-115033950D01*
X131533950Y-115117522D01*
X131468287Y-115215793D01*
X131423058Y-115324986D01*
X131400000Y-115440905D01*
X121463011Y-115440905D01*
X121476640Y-115395766D01*
X121597879Y-115167749D01*
X121761095Y-114967627D01*
X121960077Y-114803016D01*
X122187242Y-114680188D01*
X122433931Y-114603825D01*
X122708188Y-114574999D01*
X142891841Y-114575000D01*
X142891841Y-114575000D01*
G37*
X142891841Y-114575000D02*
X142546513Y-114920329D01*
X142532131Y-114932132D01*
X142520328Y-114946514D01*
X142520325Y-114946517D01*
X142485019Y-114989538D01*
X142450011Y-115055032D01*
X142428454Y-115126096D01*
X142421176Y-115200001D01*
X142423000Y-115218523D01*
X142422999Y-125081487D01*
X142421176Y-125099999D01*
X142422999Y-125118511D01*
X142422999Y-125118517D01*
X142426759Y-125156693D01*
X142428454Y-125173904D01*
X142444235Y-125225928D01*
X142450011Y-125244968D01*
X142485018Y-125310461D01*
X142532130Y-125367868D01*
X142546518Y-125379676D01*
X144501285Y-127334444D01*
X144500000Y-127340905D01*
X144500000Y-127459095D01*
X144523058Y-127575014D01*
X144568287Y-127684207D01*
X144633950Y-127782478D01*
X144717522Y-127866050D01*
X144815793Y-127931713D01*
X144924986Y-127976942D01*
X145040905Y-128000000D01*
X145159095Y-128000000D01*
X145275014Y-127976942D01*
X145384207Y-127931713D01*
X145482478Y-127866050D01*
X145566050Y-127782478D01*
X145631713Y-127684207D01*
X145676942Y-127575014D01*
X145700000Y-127459095D01*
X145700000Y-127340905D01*
X145676942Y-127224986D01*
X145631713Y-127115793D01*
X145566050Y-127017522D01*
X145482478Y-126933950D01*
X145384207Y-126868287D01*
X145275014Y-126823058D01*
X145159095Y-126800000D01*
X145040905Y-126800000D01*
X145034444Y-126801285D01*
X143176999Y-124943841D01*
X143176999Y-124163161D01*
X143188020Y-124183779D01*
X143223326Y-124226800D01*
X143223329Y-124226803D01*
X143235132Y-124241185D01*
X143249514Y-124252988D01*
X144607347Y-125610822D01*
X144595444Y-125628636D01*
X144550215Y-125737829D01*
X144527157Y-125853748D01*
X144527157Y-125971938D01*
X144550215Y-126087857D01*
X144595444Y-126197050D01*
X144661107Y-126295321D01*
X144744679Y-126378893D01*
X144842950Y-126444556D01*
X144952143Y-126489785D01*
X145068062Y-126512843D01*
X145186252Y-126512843D01*
X145302171Y-126489785D01*
X145411364Y-126444556D01*
X145509635Y-126378893D01*
X145593207Y-126295321D01*
X145658870Y-126197050D01*
X145704099Y-126087857D01*
X145727157Y-125971938D01*
X145727157Y-125947157D01*
X145751938Y-125947157D01*
X145867857Y-125924099D01*
X145977050Y-125878870D01*
X146075321Y-125813207D01*
X146158893Y-125729635D01*
X146224556Y-125631364D01*
X146269785Y-125522171D01*
X146292843Y-125406252D01*
X146292843Y-125288062D01*
X146269785Y-125172143D01*
X146224556Y-125062950D01*
X146158893Y-124964679D01*
X146075321Y-124881107D01*
X145977050Y-124815444D01*
X145867857Y-124770215D01*
X145751938Y-124747157D01*
X145633748Y-124747157D01*
X145517829Y-124770215D01*
X145408636Y-124815444D01*
X145390822Y-124827347D01*
X144234000Y-123670526D01*
X144234000Y-118180449D01*
X144240697Y-118187146D01*
X144338968Y-118252809D01*
X144448161Y-118298038D01*
X144469176Y-118302218D01*
X144469175Y-121218295D01*
X144467352Y-121236807D01*
X144469175Y-121255319D01*
X144469175Y-121255325D01*
X144472253Y-121286576D01*
X144474630Y-121310712D01*
X144488611Y-121356800D01*
X144496187Y-121381776D01*
X144531194Y-121447269D01*
X144578306Y-121504676D01*
X144592694Y-121516484D01*
X152223781Y-129147571D01*
X152218287Y-129155793D01*
X152173058Y-129264986D01*
X152150000Y-129380905D01*
X152150000Y-129499095D01*
X152173058Y-129615014D01*
X152218287Y-129724207D01*
X152283950Y-129822478D01*
X152367522Y-129906050D01*
X152465793Y-129971713D01*
X152574986Y-130016942D01*
X152690905Y-130040000D01*
X152809095Y-130040000D01*
X152925014Y-130016942D01*
X153034207Y-129971713D01*
X153132478Y-129906050D01*
X153150000Y-129888528D01*
X153167522Y-129906050D01*
X153265793Y-129971713D01*
X153374986Y-130016942D01*
X153490905Y-130040000D01*
X153609095Y-130040000D01*
X153725014Y-130016942D01*
X153834207Y-129971713D01*
X153932478Y-129906050D01*
X154016050Y-129822478D01*
X154081713Y-129724207D01*
X154126942Y-129615014D01*
X154150000Y-129499095D01*
X154150000Y-129380905D01*
X154126942Y-129264986D01*
X154081713Y-129155793D01*
X154016050Y-129057522D01*
X153932478Y-128973950D01*
X153834207Y-128908287D01*
X153725014Y-128863058D01*
X153609095Y-128840000D01*
X153490905Y-128840000D01*
X153484444Y-128841285D01*
X151154475Y-126511316D01*
X151162171Y-126509785D01*
X151271364Y-126464556D01*
X151369635Y-126398893D01*
X151453207Y-126315321D01*
X151518870Y-126217050D01*
X151564099Y-126107857D01*
X151587157Y-125991938D01*
X151587157Y-125967157D01*
X151611938Y-125967157D01*
X151727857Y-125944099D01*
X151837050Y-125898870D01*
X151935321Y-125833207D01*
X152018893Y-125749635D01*
X152084556Y-125651364D01*
X152129785Y-125542171D01*
X152152843Y-125426252D01*
X152152843Y-125308062D01*
X152129785Y-125192143D01*
X152084556Y-125082950D01*
X152018893Y-124984679D01*
X151935321Y-124901107D01*
X151837050Y-124835444D01*
X151727857Y-124790215D01*
X151611938Y-124767157D01*
X151493748Y-124767157D01*
X151377829Y-124790215D01*
X151268636Y-124835444D01*
X151250822Y-124847347D01*
X149614693Y-123211218D01*
X149672171Y-123199785D01*
X149781364Y-123154556D01*
X149879635Y-123088893D01*
X149963207Y-123005321D01*
X150028870Y-122907050D01*
X150074099Y-122797857D01*
X150097157Y-122681938D01*
X150097157Y-122657157D01*
X150121938Y-122657157D01*
X150237857Y-122634099D01*
X150347050Y-122588870D01*
X150445321Y-122523207D01*
X150528893Y-122439635D01*
X150594556Y-122341364D01*
X150639785Y-122232171D01*
X150662843Y-122116252D01*
X150662843Y-121998062D01*
X150639785Y-121882143D01*
X150594556Y-121772950D01*
X150528893Y-121674679D01*
X150445321Y-121591107D01*
X150347050Y-121525444D01*
X150318345Y-121513554D01*
X150325321Y-121508893D01*
X150408893Y-121425321D01*
X150474556Y-121327050D01*
X150519785Y-121217857D01*
X150542843Y-121101938D01*
X150542843Y-120983748D01*
X150519785Y-120867829D01*
X150474556Y-120758636D01*
X150463594Y-120742231D01*
X150464869Y-120741185D01*
X150511981Y-120683779D01*
X150546988Y-120618286D01*
X150568545Y-120547221D01*
X150574000Y-120491835D01*
X150574000Y-120491826D01*
X150575823Y-120473317D01*
X150574000Y-120454808D01*
X150574000Y-118291122D01*
X150595014Y-118286942D01*
X150704207Y-118241713D01*
X150802478Y-118176050D01*
X150886050Y-118092478D01*
X150951713Y-117994207D01*
X150996942Y-117885014D01*
X151020000Y-117769095D01*
X151020000Y-117650905D01*
X150996942Y-117534986D01*
X150951713Y-117425793D01*
X150886050Y-117327522D01*
X150802478Y-117243950D01*
X150704207Y-117178287D01*
X150595014Y-117133058D01*
X150479095Y-117110000D01*
X150360905Y-117110000D01*
X150244986Y-117133058D01*
X150135793Y-117178287D01*
X150037522Y-117243950D01*
X150020000Y-117261472D01*
X150002478Y-117243950D01*
X149904207Y-117178287D01*
X149795014Y-117133058D01*
X149679095Y-117110000D01*
X149560905Y-117110000D01*
X149444986Y-117133058D01*
X149335793Y-117178287D01*
X149237522Y-117243950D01*
X149158637Y-117322835D01*
X149085750Y-117249948D01*
X148987479Y-117184285D01*
X148878286Y-117139056D01*
X148762367Y-117115998D01*
X148644177Y-117115998D01*
X148528258Y-117139056D01*
X148419065Y-117184285D01*
X148320794Y-117249948D01*
X148303272Y-117267470D01*
X148285750Y-117249948D01*
X148187479Y-117184285D01*
X148078286Y-117139056D01*
X147962367Y-117115998D01*
X147844177Y-117115998D01*
X147728258Y-117139056D01*
X147619065Y-117184285D01*
X147520794Y-117249948D01*
X147476636Y-117294106D01*
X147432478Y-117249948D01*
X147334207Y-117184285D01*
X147225014Y-117139056D01*
X147109095Y-117115998D01*
X146990905Y-117115998D01*
X146874986Y-117139056D01*
X146765793Y-117184285D01*
X146667522Y-117249948D01*
X146650000Y-117267470D01*
X146632478Y-117249948D01*
X146534207Y-117184285D01*
X146425014Y-117139056D01*
X146309095Y-117115998D01*
X146190905Y-117115998D01*
X146074986Y-117139056D01*
X145965793Y-117184285D01*
X145867522Y-117249948D01*
X145834039Y-117283432D01*
X145805653Y-117255046D01*
X145707382Y-117189383D01*
X145598189Y-117144154D01*
X145482270Y-117121096D01*
X145364080Y-117121096D01*
X145248161Y-117144154D01*
X145138968Y-117189383D01*
X145040697Y-117255046D01*
X145023175Y-117272568D01*
X145005653Y-117255046D01*
X144907382Y-117189383D01*
X144798189Y-117144154D01*
X144682270Y-117121096D01*
X144564080Y-117121096D01*
X144448161Y-117144154D01*
X144338968Y-117189383D01*
X144240697Y-117255046D01*
X144234000Y-117261743D01*
X144234000Y-115979474D01*
X144449475Y-115764000D01*
X149660526Y-115764000D01*
X151921677Y-118025152D01*
X151933480Y-118039534D01*
X151947862Y-118051337D01*
X151947864Y-118051339D01*
X151990886Y-118086646D01*
X151993048Y-118087802D01*
X152009335Y-118169679D01*
X152054564Y-118278872D01*
X152120227Y-118377143D01*
X152203799Y-118460715D01*
X152302070Y-118526378D01*
X152411263Y-118571607D01*
X152527182Y-118594665D01*
X152645372Y-118594665D01*
X152761291Y-118571607D01*
X152870484Y-118526378D01*
X152968755Y-118460715D01*
X153052327Y-118377143D01*
X153117990Y-118278872D01*
X153123001Y-118266775D01*
X153123001Y-118343841D01*
X152546521Y-118920321D01*
X152546515Y-118920326D01*
X151745556Y-119721285D01*
X151739095Y-119720000D01*
X151620905Y-119720000D01*
X151504986Y-119743058D01*
X151395793Y-119788287D01*
X151297522Y-119853950D01*
X151213950Y-119937522D01*
X151148287Y-120035793D01*
X151103058Y-120144986D01*
X151080000Y-120260905D01*
X151080000Y-120379095D01*
X151103058Y-120495014D01*
X151148287Y-120604207D01*
X151213950Y-120702478D01*
X151297522Y-120786050D01*
X151395793Y-120851713D01*
X151504986Y-120896942D01*
X151620905Y-120920000D01*
X151739095Y-120920000D01*
X151855014Y-120896942D01*
X151964207Y-120851713D01*
X152062478Y-120786050D01*
X152146050Y-120702478D01*
X152211713Y-120604207D01*
X152256942Y-120495014D01*
X152280000Y-120379095D01*
X152280000Y-120260905D01*
X152278715Y-120254444D01*
X153079674Y-119453485D01*
X153079679Y-119453479D01*
X153753481Y-118779677D01*
X153767869Y-118767869D01*
X153814981Y-118710463D01*
X153849988Y-118644970D01*
X153871545Y-118573905D01*
X153877000Y-118518519D01*
X153877000Y-118518510D01*
X153878823Y-118500001D01*
X153877000Y-118481492D01*
X153877000Y-117396207D01*
X161175000Y-117396207D01*
X161175000Y-117553793D01*
X161205743Y-117708351D01*
X161266049Y-117853942D01*
X161353599Y-117984970D01*
X161465030Y-118096401D01*
X161596058Y-118183951D01*
X161741649Y-118244257D01*
X161896207Y-118275000D01*
X162053793Y-118275000D01*
X162208351Y-118244257D01*
X162353942Y-118183951D01*
X162484970Y-118096401D01*
X162596401Y-117984970D01*
X162683951Y-117853942D01*
X162744257Y-117708351D01*
X162775000Y-117553793D01*
X162775000Y-117396207D01*
X162744257Y-117241649D01*
X162683951Y-117096058D01*
X162596401Y-116965030D01*
X162484970Y-116853599D01*
X162353942Y-116766049D01*
X162208351Y-116705743D01*
X162053793Y-116675000D01*
X161896207Y-116675000D01*
X161741649Y-116705743D01*
X161596058Y-116766049D01*
X161465030Y-116853599D01*
X161353599Y-116965030D01*
X161266049Y-117096058D01*
X161205743Y-117241649D01*
X161175000Y-117396207D01*
X153877000Y-117396207D01*
X153877000Y-117018519D01*
X153878824Y-117000000D01*
X153871545Y-116926094D01*
X153849988Y-116855030D01*
X153844454Y-116844677D01*
X153814981Y-116789537D01*
X153767869Y-116732131D01*
X153753488Y-116720329D01*
X153435103Y-116401944D01*
X153438100Y-116400703D01*
X153536371Y-116335040D01*
X153619943Y-116251468D01*
X153685606Y-116153197D01*
X153730835Y-116044004D01*
X153753893Y-115928085D01*
X153753893Y-115809895D01*
X153730835Y-115693976D01*
X153685606Y-115584783D01*
X153619943Y-115486512D01*
X153536371Y-115402940D01*
X153438100Y-115337277D01*
X153328907Y-115292048D01*
X153212988Y-115268990D01*
X153094798Y-115268990D01*
X153088337Y-115270275D01*
X152393062Y-114575000D01*
X164081662Y-114575001D01*
X164357009Y-114601999D01*
X164604234Y-114676640D01*
X164832251Y-114797879D01*
X165032373Y-114961095D01*
X165196984Y-115160077D01*
X165319812Y-115387242D01*
X165396175Y-115633931D01*
X165425000Y-115908179D01*
X165425001Y-143881653D01*
X165398002Y-144157008D01*
X165323360Y-144404235D01*
X165202125Y-144632246D01*
X165038904Y-144832374D01*
X164839927Y-144996982D01*
X164612759Y-145119811D01*
X164366068Y-145196175D01*
X164091821Y-145225000D01*
X136181581Y-145225000D01*
X136181571Y-145225001D01*
X122718338Y-145224999D01*
X122442991Y-145198001D01*
X122195767Y-145123360D01*
X121967755Y-145002125D01*
X121767627Y-144838904D01*
X121603017Y-144639925D01*
X121480189Y-144412761D01*
X121403825Y-144166068D01*
X121374999Y-143891812D01*
X121374999Y-143800000D01*
X123270000Y-143800000D01*
X123270000Y-144200000D01*
X123314635Y-144353190D01*
X123388299Y-144494729D01*
X123488160Y-144619177D01*
X123610381Y-144721752D01*
X123750265Y-144798512D01*
X123798919Y-144802672D01*
X123920000Y-144759313D01*
X123920000Y-143800000D01*
X124220000Y-143800000D01*
X124220000Y-144759313D01*
X124341081Y-144802672D01*
X124389735Y-144798512D01*
X124529619Y-144721752D01*
X124651840Y-144619177D01*
X124751701Y-144494729D01*
X124825365Y-144353190D01*
X124870000Y-144200000D01*
X124870000Y-143800000D01*
X131730000Y-143800000D01*
X131730000Y-144200000D01*
X131774635Y-144353190D01*
X131848299Y-144494729D01*
X131948160Y-144619177D01*
X132070381Y-144721752D01*
X132210265Y-144798512D01*
X132258919Y-144802672D01*
X132380000Y-144759313D01*
X132380000Y-143800000D01*
X132680000Y-143800000D01*
X132680000Y-144759313D01*
X132801081Y-144802672D01*
X132849735Y-144798512D01*
X132989619Y-144721752D01*
X133111840Y-144619177D01*
X133211701Y-144494729D01*
X133285365Y-144353190D01*
X133330000Y-144200000D01*
X133330000Y-143800000D01*
X132680000Y-143800000D01*
X132380000Y-143800000D01*
X131730000Y-143800000D01*
X124870000Y-143800000D01*
X124220000Y-143800000D01*
X123920000Y-143800000D01*
X123270000Y-143800000D01*
X121374999Y-143800000D01*
X121374999Y-143100000D01*
X123270000Y-143100000D01*
X123270000Y-143500000D01*
X123920000Y-143500000D01*
X123920000Y-142540687D01*
X124220000Y-142540687D01*
X124220000Y-143500000D01*
X124870000Y-143500000D01*
X124870000Y-143100000D01*
X131730000Y-143100000D01*
X131730000Y-143500000D01*
X132380000Y-143500000D01*
X132380000Y-142540687D01*
X132680000Y-142540687D01*
X132680000Y-143500000D01*
X133330000Y-143500000D01*
X133330000Y-143100000D01*
X133285365Y-142946810D01*
X133211701Y-142805271D01*
X133111840Y-142680823D01*
X132989619Y-142578248D01*
X132849735Y-142501488D01*
X132801081Y-142497328D01*
X132680000Y-142540687D01*
X132380000Y-142540687D01*
X132258919Y-142497328D01*
X132210265Y-142501488D01*
X132070381Y-142578248D01*
X131948160Y-142680823D01*
X131848299Y-142805271D01*
X131774635Y-142946810D01*
X131730000Y-143100000D01*
X124870000Y-143100000D01*
X124825365Y-142946810D01*
X124751701Y-142805271D01*
X124651840Y-142680823D01*
X124529619Y-142578248D01*
X124389735Y-142501488D01*
X124341081Y-142497328D01*
X124220000Y-142540687D01*
X123920000Y-142540687D01*
X123798919Y-142497328D01*
X123750265Y-142501488D01*
X123610381Y-142578248D01*
X123488160Y-142680823D01*
X123388299Y-142805271D01*
X123314635Y-142946810D01*
X123270000Y-143100000D01*
X121374999Y-143100000D01*
X121374999Y-141470000D01*
X139000000Y-141470000D01*
X139000000Y-142070000D01*
X139046557Y-142242699D01*
X139125911Y-142402997D01*
X139235013Y-142544734D01*
X139369670Y-142662462D01*
X139524707Y-142751658D01*
X139613025Y-142773021D01*
X139750000Y-142731249D01*
X139750000Y-141470000D01*
X140050000Y-141470000D01*
X140050000Y-142731249D01*
X140186975Y-142773021D01*
X140275293Y-142751658D01*
X140430330Y-142662462D01*
X140564987Y-142544734D01*
X140674089Y-142402997D01*
X140753443Y-142242699D01*
X140786113Y-142121509D01*
X147150000Y-142121509D01*
X147150000Y-142318491D01*
X147188429Y-142511689D01*
X147263811Y-142693678D01*
X147373249Y-142857463D01*
X147512537Y-142996751D01*
X147676322Y-143106189D01*
X147858311Y-143181571D01*
X148051509Y-143220000D01*
X148248491Y-143220000D01*
X148441689Y-143181571D01*
X148623678Y-143106189D01*
X148787463Y-142996751D01*
X148926751Y-142857463D01*
X149036189Y-142693678D01*
X149111571Y-142511689D01*
X149150000Y-142318491D01*
X149150000Y-142121509D01*
X149111571Y-141928311D01*
X149036189Y-141746322D01*
X148926751Y-141582537D01*
X148814214Y-141470000D01*
X155500000Y-141470000D01*
X155500000Y-142070000D01*
X155546557Y-142242699D01*
X155625911Y-142402997D01*
X155735013Y-142544734D01*
X155869670Y-142662462D01*
X156024707Y-142751658D01*
X156113025Y-142773021D01*
X156250000Y-142731249D01*
X156250000Y-141470000D01*
X156550000Y-141470000D01*
X156550000Y-142731249D01*
X156686975Y-142773021D01*
X156775293Y-142751658D01*
X156930330Y-142662462D01*
X157064987Y-142544734D01*
X157174089Y-142402997D01*
X157253443Y-142242699D01*
X157300000Y-142070000D01*
X157300000Y-141470000D01*
X156550000Y-141470000D01*
X156250000Y-141470000D01*
X155500000Y-141470000D01*
X148814214Y-141470000D01*
X148787463Y-141443249D01*
X148623678Y-141333811D01*
X148441689Y-141258429D01*
X148248491Y-141220000D01*
X148051509Y-141220000D01*
X147858311Y-141258429D01*
X147676322Y-141333811D01*
X147512537Y-141443249D01*
X147373249Y-141582537D01*
X147263811Y-141746322D01*
X147188429Y-141928311D01*
X147150000Y-142121509D01*
X140786113Y-142121509D01*
X140800000Y-142070000D01*
X140800000Y-141470000D01*
X140050000Y-141470000D01*
X139750000Y-141470000D01*
X139000000Y-141470000D01*
X121374999Y-141470000D01*
X121374999Y-140000000D01*
X123270000Y-140000000D01*
X123270000Y-140400000D01*
X123314635Y-140553190D01*
X123388299Y-140694729D01*
X123488160Y-140819177D01*
X123610381Y-140921752D01*
X123750265Y-140998512D01*
X123798919Y-141002672D01*
X123920000Y-140959313D01*
X123920000Y-140000000D01*
X124220000Y-140000000D01*
X124220000Y-140959313D01*
X124341081Y-141002672D01*
X124389735Y-140998512D01*
X124529619Y-140921752D01*
X124651840Y-140819177D01*
X124751701Y-140694729D01*
X124825365Y-140553190D01*
X124870000Y-140400000D01*
X124870000Y-140000000D01*
X131730000Y-140000000D01*
X131730000Y-140400000D01*
X131774635Y-140553190D01*
X131848299Y-140694729D01*
X131948160Y-140819177D01*
X132070381Y-140921752D01*
X132210265Y-140998512D01*
X132258919Y-141002672D01*
X132380000Y-140959313D01*
X132380000Y-140000000D01*
X132680000Y-140000000D01*
X132680000Y-140959313D01*
X132801081Y-141002672D01*
X132849735Y-140998512D01*
X132989619Y-140921752D01*
X133111840Y-140819177D01*
X133211701Y-140694729D01*
X133276616Y-140570000D01*
X139000000Y-140570000D01*
X139000000Y-141170000D01*
X139750000Y-141170000D01*
X139750000Y-139908751D01*
X140050000Y-139908751D01*
X140050000Y-141170000D01*
X140800000Y-141170000D01*
X140800000Y-140570000D01*
X155500000Y-140570000D01*
X155500000Y-141170000D01*
X156250000Y-141170000D01*
X156250000Y-139908751D01*
X156550000Y-139908751D01*
X156550000Y-141170000D01*
X157300000Y-141170000D01*
X157300000Y-140570000D01*
X157253443Y-140397301D01*
X157174089Y-140237003D01*
X157064987Y-140095266D01*
X156930330Y-139977538D01*
X156775293Y-139888342D01*
X156686975Y-139866979D01*
X156550000Y-139908751D01*
X156250000Y-139908751D01*
X156113025Y-139866979D01*
X156024707Y-139888342D01*
X155869670Y-139977538D01*
X155735013Y-140095266D01*
X155625911Y-140237003D01*
X155546557Y-140397301D01*
X155500000Y-140570000D01*
X140800000Y-140570000D01*
X140753443Y-140397301D01*
X140674089Y-140237003D01*
X140564987Y-140095266D01*
X140430330Y-139977538D01*
X140275293Y-139888342D01*
X140186975Y-139866979D01*
X140050000Y-139908751D01*
X139750000Y-139908751D01*
X139613025Y-139866979D01*
X139524707Y-139888342D01*
X139369670Y-139977538D01*
X139235013Y-140095266D01*
X139125911Y-140237003D01*
X139046557Y-140397301D01*
X139000000Y-140570000D01*
X133276616Y-140570000D01*
X133285365Y-140553190D01*
X133330000Y-140400000D01*
X133330000Y-140000000D01*
X132680000Y-140000000D01*
X132380000Y-140000000D01*
X131730000Y-140000000D01*
X124870000Y-140000000D01*
X124220000Y-140000000D01*
X123920000Y-140000000D01*
X123270000Y-140000000D01*
X121374999Y-140000000D01*
X121374999Y-139300000D01*
X123270000Y-139300000D01*
X123270000Y-139700000D01*
X123920000Y-139700000D01*
X123920000Y-138740687D01*
X124220000Y-138740687D01*
X124220000Y-139700000D01*
X124870000Y-139700000D01*
X124870000Y-139300000D01*
X131730000Y-139300000D01*
X131730000Y-139700000D01*
X132380000Y-139700000D01*
X132380000Y-138740687D01*
X132680000Y-138740687D01*
X132680000Y-139700000D01*
X133330000Y-139700000D01*
X133330000Y-139300000D01*
X133285365Y-139146810D01*
X133211701Y-139005271D01*
X133111840Y-138880823D01*
X132989619Y-138778248D01*
X132849735Y-138701488D01*
X132801081Y-138697328D01*
X132680000Y-138740687D01*
X132380000Y-138740687D01*
X132258919Y-138697328D01*
X132210265Y-138701488D01*
X132070381Y-138778248D01*
X131948160Y-138880823D01*
X131848299Y-139005271D01*
X131774635Y-139146810D01*
X131730000Y-139300000D01*
X124870000Y-139300000D01*
X124825365Y-139146810D01*
X124751701Y-139005271D01*
X124651840Y-138880823D01*
X124529619Y-138778248D01*
X124389735Y-138701488D01*
X124341081Y-138697328D01*
X124220000Y-138740687D01*
X123920000Y-138740687D01*
X123798919Y-138697328D01*
X123750265Y-138701488D01*
X123610381Y-138778248D01*
X123488160Y-138880823D01*
X123388299Y-139005271D01*
X123314635Y-139146810D01*
X123270000Y-139300000D01*
X121374999Y-139300000D01*
X121374999Y-136940905D01*
X141600000Y-136940905D01*
X141600000Y-137059095D01*
X141623058Y-137175014D01*
X141668287Y-137284207D01*
X141733950Y-137382478D01*
X141817522Y-137466050D01*
X141915793Y-137531713D01*
X142024986Y-137576942D01*
X142140905Y-137600000D01*
X142259095Y-137600000D01*
X142375014Y-137576942D01*
X142484207Y-137531713D01*
X142582478Y-137466050D01*
X142666050Y-137382478D01*
X142669710Y-137377000D01*
X145623881Y-137377000D01*
X145668287Y-137484207D01*
X145733950Y-137582478D01*
X145817522Y-137666050D01*
X145915793Y-137731713D01*
X146024986Y-137776942D01*
X146140905Y-137800000D01*
X146259095Y-137800000D01*
X146375014Y-137776942D01*
X146484207Y-137731713D01*
X146582478Y-137666050D01*
X146666050Y-137582478D01*
X146731713Y-137484207D01*
X146776942Y-137375014D01*
X146778140Y-137368990D01*
X146886471Y-137368990D01*
X147002390Y-137345932D01*
X147111583Y-137300703D01*
X147209854Y-137235040D01*
X147293426Y-137151468D01*
X147359089Y-137053197D01*
X147404318Y-136944004D01*
X147419239Y-136868990D01*
X147519728Y-136868990D01*
X147635647Y-136845932D01*
X147744840Y-136800703D01*
X147843111Y-136735040D01*
X147926683Y-136651468D01*
X147992346Y-136553197D01*
X148037575Y-136444004D01*
X148060633Y-136328085D01*
X148060633Y-136209895D01*
X148037575Y-136093976D01*
X147992346Y-135984783D01*
X147926683Y-135886512D01*
X147843111Y-135802940D01*
X147744840Y-135737277D01*
X147635647Y-135692048D01*
X147519728Y-135668990D01*
X147401538Y-135668990D01*
X147395077Y-135670275D01*
X146414802Y-134690000D01*
X155400000Y-134690000D01*
X155400000Y-135390000D01*
X155448478Y-135582208D01*
X155533523Y-135761265D01*
X155651866Y-135920290D01*
X155798959Y-136053172D01*
X155969150Y-136154804D01*
X156097182Y-136193048D01*
X156250000Y-136152757D01*
X156250000Y-134690000D01*
X156550000Y-134690000D01*
X156550000Y-136152757D01*
X156702818Y-136193048D01*
X156830850Y-136154804D01*
X157001041Y-136053172D01*
X157148134Y-135920290D01*
X157266477Y-135761265D01*
X157351522Y-135582208D01*
X157400000Y-135390000D01*
X157400000Y-134690000D01*
X156550000Y-134690000D01*
X156250000Y-134690000D01*
X155400000Y-134690000D01*
X146414802Y-134690000D01*
X145571320Y-133846519D01*
X145559512Y-133832131D01*
X145502106Y-133785019D01*
X145436613Y-133750012D01*
X145365548Y-133728455D01*
X145310162Y-133723000D01*
X145310155Y-133723000D01*
X145291643Y-133721177D01*
X145273131Y-133723000D01*
X143969710Y-133723000D01*
X143966050Y-133717522D01*
X143938528Y-133690000D01*
X155400000Y-133690000D01*
X155400000Y-134390000D01*
X156250000Y-134390000D01*
X156250000Y-132927243D01*
X156550000Y-132927243D01*
X156550000Y-134390000D01*
X157400000Y-134390000D01*
X157400000Y-133690000D01*
X157351522Y-133497792D01*
X157266477Y-133318735D01*
X157148134Y-133159710D01*
X157001041Y-133026828D01*
X156830850Y-132925196D01*
X156702818Y-132886952D01*
X156550000Y-132927243D01*
X156250000Y-132927243D01*
X156097182Y-132886952D01*
X155969150Y-132925196D01*
X155798959Y-133026828D01*
X155651866Y-133159710D01*
X155533523Y-133318735D01*
X155448478Y-133497792D01*
X155400000Y-133690000D01*
X143938528Y-133690000D01*
X143882478Y-133633950D01*
X143784207Y-133568287D01*
X143675014Y-133523058D01*
X143559095Y-133500000D01*
X143440905Y-133500000D01*
X143324986Y-133523058D01*
X143215793Y-133568287D01*
X143117522Y-133633950D01*
X143033950Y-133717522D01*
X142968287Y-133815793D01*
X142923058Y-133924986D01*
X142900000Y-134040905D01*
X142900000Y-134068343D01*
X142821153Y-134084027D01*
X142711960Y-134129256D01*
X142613689Y-134194919D01*
X142530117Y-134278491D01*
X142464454Y-134376762D01*
X142419225Y-134485955D01*
X142396167Y-134601874D01*
X142396167Y-134720064D01*
X142419225Y-134835983D01*
X142464454Y-134945176D01*
X142530117Y-135043447D01*
X142613689Y-135127019D01*
X142711960Y-135192682D01*
X142821153Y-135237911D01*
X142937072Y-135260969D01*
X143055262Y-135260969D01*
X143171181Y-135237911D01*
X143280374Y-135192682D01*
X143378645Y-135127019D01*
X143462217Y-135043447D01*
X143465877Y-135037969D01*
X144563197Y-135037969D01*
X146127828Y-136602601D01*
X146024986Y-136623058D01*
X146023857Y-136623526D01*
X146018519Y-136623000D01*
X146018512Y-136623000D01*
X146000000Y-136621177D01*
X145981488Y-136623000D01*
X142669710Y-136623000D01*
X142666050Y-136617522D01*
X142582478Y-136533950D01*
X142484207Y-136468287D01*
X142375014Y-136423058D01*
X142259095Y-136400000D01*
X142140905Y-136400000D01*
X142024986Y-136423058D01*
X141915793Y-136468287D01*
X141817522Y-136533950D01*
X141733950Y-136617522D01*
X141668287Y-136715793D01*
X141623058Y-136824986D01*
X141600000Y-136940905D01*
X121374999Y-136940905D01*
X121374999Y-133540905D01*
X128800000Y-133540905D01*
X128800000Y-133659095D01*
X128823058Y-133775014D01*
X128868287Y-133884207D01*
X128933950Y-133982478D01*
X129017522Y-134066050D01*
X129115793Y-134131713D01*
X129224986Y-134176942D01*
X129340905Y-134200000D01*
X129459095Y-134200000D01*
X129465557Y-134198715D01*
X130320323Y-135053481D01*
X130332131Y-135067869D01*
X130389537Y-135114981D01*
X130455030Y-135149988D01*
X130526095Y-135171545D01*
X130581481Y-135177000D01*
X130581490Y-135177000D01*
X130599999Y-135178823D01*
X130618508Y-135177000D01*
X131330199Y-135177000D01*
X131373950Y-135242478D01*
X131457522Y-135326050D01*
X131555793Y-135391713D01*
X131664986Y-135436942D01*
X131780905Y-135460000D01*
X131899095Y-135460000D01*
X132015014Y-135436942D01*
X132124207Y-135391713D01*
X132222478Y-135326050D01*
X132306050Y-135242478D01*
X132371713Y-135144207D01*
X132416942Y-135035014D01*
X132440000Y-134919095D01*
X132440000Y-134800905D01*
X132417940Y-134690000D01*
X138900000Y-134690000D01*
X138900000Y-135390000D01*
X138948478Y-135582208D01*
X139033523Y-135761265D01*
X139151866Y-135920290D01*
X139298959Y-136053172D01*
X139469150Y-136154804D01*
X139597182Y-136193048D01*
X139750000Y-136152757D01*
X139750000Y-134690000D01*
X140050000Y-134690000D01*
X140050000Y-136152757D01*
X140202818Y-136193048D01*
X140330850Y-136154804D01*
X140501041Y-136053172D01*
X140648134Y-135920290D01*
X140766477Y-135761265D01*
X140851522Y-135582208D01*
X140900000Y-135390000D01*
X140900000Y-134690000D01*
X140050000Y-134690000D01*
X139750000Y-134690000D01*
X138900000Y-134690000D01*
X132417940Y-134690000D01*
X132416942Y-134684986D01*
X132371713Y-134575793D01*
X132306050Y-134477522D01*
X132222478Y-134393950D01*
X132124207Y-134328287D01*
X132015014Y-134283058D01*
X131899095Y-134260000D01*
X131780905Y-134260000D01*
X131664986Y-134283058D01*
X131555793Y-134328287D01*
X131457522Y-134393950D01*
X131428472Y-134423000D01*
X130756158Y-134423000D01*
X129998715Y-133665557D01*
X130000000Y-133659095D01*
X130000000Y-133540905D01*
X129976942Y-133424986D01*
X129931713Y-133315793D01*
X129866050Y-133217522D01*
X129782478Y-133133950D01*
X129684207Y-133068287D01*
X129575014Y-133023058D01*
X129459095Y-133000000D01*
X129340905Y-133000000D01*
X129224986Y-133023058D01*
X129115793Y-133068287D01*
X129017522Y-133133950D01*
X128933950Y-133217522D01*
X128868287Y-133315793D01*
X128823058Y-133424986D01*
X128800000Y-133540905D01*
X121374999Y-133540905D01*
X121375001Y-115918338D01*
X121401999Y-115642991D01*
X121463011Y-115440905D01*
X131400000Y-115440905D01*
X131400000Y-115559095D01*
X131423058Y-115675014D01*
X131468287Y-115784207D01*
X131533950Y-115882478D01*
X131617522Y-115966050D01*
X131623000Y-115969710D01*
X131623001Y-122830289D01*
X131617522Y-122833950D01*
X131533950Y-122917522D01*
X131468287Y-123015793D01*
X131423058Y-123124986D01*
X131400000Y-123240905D01*
X131400000Y-123359095D01*
X131423058Y-123475014D01*
X131468287Y-123584207D01*
X131533950Y-123682478D01*
X131617522Y-123766050D01*
X131623000Y-123769710D01*
X131623001Y-132081478D01*
X131621177Y-132100000D01*
X131628455Y-132173905D01*
X131650012Y-132244969D01*
X131685020Y-132310463D01*
X131720326Y-132353484D01*
X131720329Y-132353487D01*
X131732132Y-132367869D01*
X131746514Y-132379672D01*
X132901285Y-133534443D01*
X132900000Y-133540905D01*
X132900000Y-133659095D01*
X132923058Y-133775014D01*
X132968287Y-133884207D01*
X133033950Y-133982478D01*
X133117522Y-134066050D01*
X133215793Y-134131713D01*
X133324986Y-134176942D01*
X133440905Y-134200000D01*
X133559095Y-134200000D01*
X133675014Y-134176942D01*
X133784207Y-134131713D01*
X133882478Y-134066050D01*
X133966050Y-133982478D01*
X134031713Y-133884207D01*
X134076942Y-133775014D01*
X134093852Y-133690000D01*
X138900000Y-133690000D01*
X138900000Y-134390000D01*
X139750000Y-134390000D01*
X139750000Y-132927243D01*
X140050000Y-132927243D01*
X140050000Y-134390000D01*
X140900000Y-134390000D01*
X140900000Y-133690000D01*
X140851522Y-133497792D01*
X140766477Y-133318735D01*
X140648134Y-133159710D01*
X140501041Y-133026828D01*
X140330850Y-132925196D01*
X140202818Y-132886952D01*
X140050000Y-132927243D01*
X139750000Y-132927243D01*
X139597182Y-132886952D01*
X139469150Y-132925196D01*
X139298959Y-133026828D01*
X139151866Y-133159710D01*
X139033523Y-133318735D01*
X138948478Y-133497792D01*
X138900000Y-133690000D01*
X134093852Y-133690000D01*
X134100000Y-133659095D01*
X134100000Y-133540905D01*
X134076942Y-133424986D01*
X134031713Y-133315793D01*
X133966050Y-133217522D01*
X133882478Y-133133950D01*
X133784207Y-133068287D01*
X133675014Y-133023058D01*
X133559095Y-133000000D01*
X133440905Y-133000000D01*
X133434443Y-133001285D01*
X132874063Y-132440905D01*
X142600000Y-132440905D01*
X142600000Y-132559095D01*
X142623058Y-132675014D01*
X142668287Y-132784207D01*
X142733950Y-132882478D01*
X142817522Y-132966050D01*
X142915793Y-133031713D01*
X143024986Y-133076942D01*
X143140905Y-133100000D01*
X143259095Y-133100000D01*
X143375014Y-133076942D01*
X143484207Y-133031713D01*
X143582478Y-132966050D01*
X143666050Y-132882478D01*
X143669710Y-132877000D01*
X153981488Y-132877000D01*
X154000000Y-132878823D01*
X154018512Y-132877000D01*
X154018519Y-132877000D01*
X154073905Y-132871545D01*
X154144970Y-132849988D01*
X154210463Y-132814981D01*
X154267869Y-132767869D01*
X154279677Y-132753481D01*
X154853487Y-132179672D01*
X154867869Y-132167869D01*
X154914981Y-132110463D01*
X154949988Y-132044970D01*
X154971545Y-131973905D01*
X154977000Y-131918519D01*
X154977000Y-131918510D01*
X154978823Y-131900001D01*
X154977000Y-131881492D01*
X154977000Y-130196207D01*
X161175000Y-130196207D01*
X161175000Y-130353793D01*
X161205743Y-130508351D01*
X161266049Y-130653942D01*
X161353599Y-130784970D01*
X161465030Y-130896401D01*
X161596058Y-130983951D01*
X161741649Y-131044257D01*
X161896207Y-131075000D01*
X162053793Y-131075000D01*
X162208351Y-131044257D01*
X162353942Y-130983951D01*
X162484970Y-130896401D01*
X162596401Y-130784970D01*
X162683951Y-130653942D01*
X162744257Y-130508351D01*
X162775000Y-130353793D01*
X162775000Y-130196207D01*
X162744257Y-130041649D01*
X162683951Y-129896058D01*
X162596401Y-129765030D01*
X162484970Y-129653599D01*
X162353942Y-129566049D01*
X162208351Y-129505743D01*
X162053793Y-129475000D01*
X161896207Y-129475000D01*
X161741649Y-129505743D01*
X161596058Y-129566049D01*
X161465030Y-129653599D01*
X161353599Y-129765030D01*
X161266049Y-129896058D01*
X161205743Y-130041649D01*
X161175000Y-130196207D01*
X154977000Y-130196207D01*
X154977000Y-128818508D01*
X154978823Y-128799999D01*
X154977000Y-128781490D01*
X154977000Y-128781481D01*
X154971545Y-128726095D01*
X154949988Y-128655030D01*
X154914981Y-128589537D01*
X154867869Y-128532131D01*
X154853488Y-128520329D01*
X153498715Y-127165557D01*
X153500000Y-127159095D01*
X153500000Y-127040905D01*
X153476942Y-126924986D01*
X153431713Y-126815793D01*
X153366050Y-126717522D01*
X153282478Y-126633950D01*
X153184207Y-126568287D01*
X153075014Y-126523058D01*
X152959095Y-126500000D01*
X152840905Y-126500000D01*
X152724986Y-126523058D01*
X152615793Y-126568287D01*
X152517522Y-126633950D01*
X152433950Y-126717522D01*
X152368287Y-126815793D01*
X152323058Y-126924986D01*
X152300000Y-127040905D01*
X152300000Y-127159095D01*
X152323058Y-127275014D01*
X152368287Y-127384207D01*
X152433950Y-127482478D01*
X152517522Y-127566050D01*
X152615793Y-127631713D01*
X152724986Y-127676942D01*
X152840905Y-127700000D01*
X152959095Y-127700000D01*
X152965557Y-127698715D01*
X154223000Y-128956159D01*
X154223001Y-131743840D01*
X153843842Y-132123000D01*
X143669710Y-132123000D01*
X143666050Y-132117522D01*
X143582478Y-132033950D01*
X143484207Y-131968287D01*
X143375014Y-131923058D01*
X143259095Y-131900000D01*
X143140905Y-131900000D01*
X143024986Y-131923058D01*
X142915793Y-131968287D01*
X142817522Y-132033950D01*
X142733950Y-132117522D01*
X142668287Y-132215793D01*
X142623058Y-132324986D01*
X142600000Y-132440905D01*
X132874063Y-132440905D01*
X132377000Y-131943842D01*
X132377000Y-124800905D01*
X134860000Y-124800905D01*
X134860000Y-124919095D01*
X134883058Y-125035014D01*
X134928287Y-125144207D01*
X134993950Y-125242478D01*
X135077522Y-125326050D01*
X135175793Y-125391713D01*
X135284986Y-125436942D01*
X135400905Y-125460000D01*
X135519095Y-125460000D01*
X135635014Y-125436942D01*
X135700058Y-125410000D01*
X135969942Y-125410000D01*
X136034986Y-125436942D01*
X136150905Y-125460000D01*
X136269095Y-125460000D01*
X136385014Y-125436942D01*
X136474200Y-125400000D01*
X139259942Y-125400000D01*
X139324986Y-125426942D01*
X139440905Y-125450000D01*
X139559095Y-125450000D01*
X139675014Y-125426942D01*
X139784207Y-125381713D01*
X139882478Y-125316050D01*
X139966050Y-125232478D01*
X140031713Y-125134207D01*
X140058655Y-125069162D01*
X140325020Y-124802797D01*
X140424207Y-124761713D01*
X140522478Y-124696050D01*
X140606050Y-124612478D01*
X140671713Y-124514207D01*
X140716942Y-124405014D01*
X140740000Y-124289095D01*
X140740000Y-124170905D01*
X140716942Y-124054986D01*
X140671713Y-123945793D01*
X140606050Y-123847522D01*
X140522478Y-123763950D01*
X140424207Y-123698287D01*
X140315014Y-123653058D01*
X140199095Y-123630000D01*
X140080905Y-123630000D01*
X139964986Y-123653058D01*
X139855793Y-123698287D01*
X139757522Y-123763950D01*
X139673950Y-123847522D01*
X139608287Y-123945793D01*
X139595487Y-123976695D01*
X139280838Y-124291345D01*
X139259942Y-124300000D01*
X136425916Y-124300000D01*
X136385014Y-124283058D01*
X136269095Y-124260000D01*
X136150905Y-124260000D01*
X136034986Y-124283058D01*
X135969942Y-124310000D01*
X135700058Y-124310000D01*
X135635014Y-124283058D01*
X135519095Y-124260000D01*
X135400905Y-124260000D01*
X135284986Y-124283058D01*
X135175793Y-124328287D01*
X135077522Y-124393950D01*
X134993950Y-124477522D01*
X134928287Y-124575793D01*
X134883058Y-124684986D01*
X134860000Y-124800905D01*
X132377000Y-124800905D01*
X132377000Y-123769710D01*
X132382478Y-123766050D01*
X132466050Y-123682478D01*
X132531713Y-123584207D01*
X132576942Y-123475014D01*
X132600000Y-123359095D01*
X132600000Y-123240905D01*
X132576942Y-123124986D01*
X132531713Y-123015793D01*
X132466050Y-122917522D01*
X132382478Y-122833950D01*
X132377000Y-122830290D01*
X132377000Y-115969710D01*
X132382478Y-115966050D01*
X132466050Y-115882478D01*
X132531713Y-115784207D01*
X132576942Y-115675014D01*
X132600000Y-115559095D01*
X132600000Y-115440905D01*
X132576942Y-115324986D01*
X132531713Y-115215793D01*
X132466050Y-115117522D01*
X132382478Y-115033950D01*
X132284207Y-114968287D01*
X132175014Y-114923058D01*
X132059095Y-114900000D01*
X131940905Y-114900000D01*
X131824986Y-114923058D01*
X131715793Y-114968287D01*
X131617522Y-115033950D01*
X131533950Y-115117522D01*
X131468287Y-115215793D01*
X131423058Y-115324986D01*
X131400000Y-115440905D01*
X121463011Y-115440905D01*
X121476640Y-115395766D01*
X121597879Y-115167749D01*
X121761095Y-114967627D01*
X121960077Y-114803016D01*
X122187242Y-114680188D01*
X122433931Y-114603825D01*
X122708188Y-114574999D01*
X142891841Y-114575000D01*
G36*
X145867522Y-118182048D02*
G01*
X145965793Y-118247711D01*
X146074986Y-118292940D01*
X146096001Y-118297120D01*
X146096000Y-121084804D01*
X146094177Y-121103316D01*
X146096000Y-121121828D01*
X146096000Y-121121834D01*
X146097784Y-121139944D01*
X146101455Y-121177221D01*
X146113782Y-121217857D01*
X146123012Y-121248285D01*
X146158019Y-121313778D01*
X146205131Y-121371185D01*
X146219519Y-121382993D01*
X150467347Y-125630822D01*
X150455444Y-125648636D01*
X150410215Y-125757829D01*
X150408684Y-125765525D01*
X145577175Y-120934017D01*
X145577175Y-118302218D01*
X145598189Y-118298038D01*
X145707382Y-118252809D01*
X145805653Y-118187146D01*
X145839137Y-118153663D01*
X145867522Y-118182048D01*
X145867522Y-118182048D01*
G37*
X145867522Y-118182048D02*
X145965793Y-118247711D01*
X146074986Y-118292940D01*
X146096001Y-118297120D01*
X146096000Y-121084804D01*
X146094177Y-121103316D01*
X146096000Y-121121828D01*
X146096000Y-121121834D01*
X146097784Y-121139944D01*
X146101455Y-121177221D01*
X146113782Y-121217857D01*
X146123012Y-121248285D01*
X146158019Y-121313778D01*
X146205131Y-121371185D01*
X146219519Y-121382993D01*
X150467347Y-125630822D01*
X150455444Y-125648636D01*
X150410215Y-125757829D01*
X150408684Y-125765525D01*
X145577175Y-120934017D01*
X145577175Y-118302218D01*
X145598189Y-118298038D01*
X145707382Y-118252809D01*
X145805653Y-118187146D01*
X145839137Y-118153663D01*
X145867522Y-118182048D01*
G36*
X147520794Y-118182048D02*
G01*
X147619065Y-118247711D01*
X147728258Y-118292940D01*
X147749273Y-118297120D01*
X147749272Y-120918076D01*
X147747449Y-120936588D01*
X147749272Y-120955100D01*
X147749272Y-120955106D01*
X147752093Y-120983748D01*
X147754727Y-121010493D01*
X147776284Y-121081557D01*
X147811291Y-121147050D01*
X147858403Y-121204457D01*
X147872791Y-121216265D01*
X148977347Y-122320822D01*
X148965444Y-122338636D01*
X148920215Y-122447829D01*
X148908782Y-122505307D01*
X147204000Y-120800526D01*
X147204000Y-118297120D01*
X147225014Y-118292940D01*
X147334207Y-118247711D01*
X147432478Y-118182048D01*
X147476636Y-118137890D01*
X147520794Y-118182048D01*
X147520794Y-118182048D01*
G37*
X147520794Y-118182048D02*
X147619065Y-118247711D01*
X147728258Y-118292940D01*
X147749273Y-118297120D01*
X147749272Y-120918076D01*
X147747449Y-120936588D01*
X147749272Y-120955100D01*
X147749272Y-120955106D01*
X147752093Y-120983748D01*
X147754727Y-121010493D01*
X147776284Y-121081557D01*
X147811291Y-121147050D01*
X147858403Y-121204457D01*
X147872791Y-121216265D01*
X148977347Y-122320822D01*
X148965444Y-122338636D01*
X148920215Y-122447829D01*
X148908782Y-122505307D01*
X147204000Y-120800526D01*
X147204000Y-118297120D01*
X147225014Y-118292940D01*
X147334207Y-118247711D01*
X147432478Y-118182048D01*
X147476636Y-118137890D01*
X147520794Y-118182048D01*
M02*
