G04 #@! TF.GenerationSoftware,KiCad,Pcbnew,5.1.4+dfsg1-1*
G04 #@! TF.CreationDate,2019-12-22T00:56:44+01:00*
G04 #@! TF.ProjectId,OtterScreen,4f747465-7253-4637-9265-656e2e6b6963,rev?*
G04 #@! TF.SameCoordinates,Original*
G04 #@! TF.FileFunction,Legend,Top*
G04 #@! TF.FilePolarity,Positive*
%FSLAX46Y46*%
G04 Gerber Fmt 4.6, Leading zero omitted, Abs format (unit mm)*
G04 Created by KiCad (PCBNEW 5.1.4+dfsg1-1) date 2019-12-22 00:56:44*
%MOMM*%
%LPD*%
G04 APERTURE LIST*
%ADD10C,0.200000*%
%ADD11C,0.100000*%
%ADD12C,0.130000*%
%ADD13C,0.150000*%
%ADD14C,0.120000*%
%ADD15C,0.127000*%
%ADD16C,0.110000*%
G04 APERTURE END LIST*
D10*
X155118064Y-126778891D02*
G75*
G02X165799999Y-124270001I6511936J-3731109D01*
G01*
X165795785Y-136748649D02*
G75*
G02X155110000Y-134220000I-4165785J6238649D01*
G01*
D11*
X144916666Y-132941666D02*
X144916666Y-132241666D01*
X145083333Y-132241666D01*
X145183333Y-132275000D01*
X145250000Y-132341666D01*
X145283333Y-132408333D01*
X145316666Y-132541666D01*
X145316666Y-132641666D01*
X145283333Y-132775000D01*
X145250000Y-132841666D01*
X145183333Y-132908333D01*
X145083333Y-132941666D01*
X144916666Y-132941666D01*
X145883333Y-132908333D02*
X145816666Y-132941666D01*
X145683333Y-132941666D01*
X145616666Y-132908333D01*
X145583333Y-132841666D01*
X145583333Y-132575000D01*
X145616666Y-132508333D01*
X145683333Y-132475000D01*
X145816666Y-132475000D01*
X145883333Y-132508333D01*
X145916666Y-132575000D01*
X145916666Y-132641666D01*
X145583333Y-132708333D01*
X146183333Y-132908333D02*
X146250000Y-132941666D01*
X146383333Y-132941666D01*
X146450000Y-132908333D01*
X146483333Y-132841666D01*
X146483333Y-132808333D01*
X146450000Y-132741666D01*
X146383333Y-132708333D01*
X146283333Y-132708333D01*
X146216666Y-132675000D01*
X146183333Y-132608333D01*
X146183333Y-132575000D01*
X146216666Y-132508333D01*
X146283333Y-132475000D01*
X146383333Y-132475000D01*
X146450000Y-132508333D01*
X146783333Y-132941666D02*
X146783333Y-132475000D01*
X146783333Y-132241666D02*
X146750000Y-132275000D01*
X146783333Y-132308333D01*
X146816666Y-132275000D01*
X146783333Y-132241666D01*
X146783333Y-132308333D01*
X147416666Y-132475000D02*
X147416666Y-133041666D01*
X147383333Y-133108333D01*
X147350000Y-133141666D01*
X147283333Y-133175000D01*
X147183333Y-133175000D01*
X147116666Y-133141666D01*
X147416666Y-132908333D02*
X147350000Y-132941666D01*
X147216666Y-132941666D01*
X147150000Y-132908333D01*
X147116666Y-132875000D01*
X147083333Y-132808333D01*
X147083333Y-132608333D01*
X147116666Y-132541666D01*
X147150000Y-132508333D01*
X147216666Y-132475000D01*
X147350000Y-132475000D01*
X147416666Y-132508333D01*
X147750000Y-132475000D02*
X147750000Y-132941666D01*
X147750000Y-132541666D02*
X147783333Y-132508333D01*
X147850000Y-132475000D01*
X147950000Y-132475000D01*
X148016666Y-132508333D01*
X148050000Y-132575000D01*
X148050000Y-132941666D01*
X148916666Y-132941666D02*
X148916666Y-132241666D01*
X148916666Y-132508333D02*
X148983333Y-132475000D01*
X149116666Y-132475000D01*
X149183333Y-132508333D01*
X149216666Y-132541666D01*
X149250000Y-132608333D01*
X149250000Y-132808333D01*
X149216666Y-132875000D01*
X149183333Y-132908333D01*
X149116666Y-132941666D01*
X148983333Y-132941666D01*
X148916666Y-132908333D01*
X149483333Y-132475000D02*
X149650000Y-132941666D01*
X149816666Y-132475000D02*
X149650000Y-132941666D01*
X149583333Y-133108333D01*
X149550000Y-133141666D01*
X149483333Y-133175000D01*
X142666666Y-133391666D02*
X142666666Y-133891666D01*
X142633333Y-133991666D01*
X142566666Y-134058333D01*
X142466666Y-134091666D01*
X142400000Y-134091666D01*
X143300000Y-134091666D02*
X143300000Y-133725000D01*
X143266666Y-133658333D01*
X143200000Y-133625000D01*
X143066666Y-133625000D01*
X143000000Y-133658333D01*
X143300000Y-134058333D02*
X143233333Y-134091666D01*
X143066666Y-134091666D01*
X143000000Y-134058333D01*
X142966666Y-133991666D01*
X142966666Y-133925000D01*
X143000000Y-133858333D01*
X143066666Y-133825000D01*
X143233333Y-133825000D01*
X143300000Y-133791666D01*
X143633333Y-133625000D02*
X143633333Y-134091666D01*
X143633333Y-133691666D02*
X143666666Y-133658333D01*
X143733333Y-133625000D01*
X143833333Y-133625000D01*
X143900000Y-133658333D01*
X143933333Y-133725000D01*
X143933333Y-134091666D01*
X144800000Y-134091666D02*
X144800000Y-133391666D01*
X144800000Y-133725000D02*
X145200000Y-133725000D01*
X145200000Y-134091666D02*
X145200000Y-133391666D01*
X145800000Y-134058333D02*
X145733333Y-134091666D01*
X145600000Y-134091666D01*
X145533333Y-134058333D01*
X145500000Y-133991666D01*
X145500000Y-133725000D01*
X145533333Y-133658333D01*
X145600000Y-133625000D01*
X145733333Y-133625000D01*
X145800000Y-133658333D01*
X145833333Y-133725000D01*
X145833333Y-133791666D01*
X145500000Y-133858333D01*
X146133333Y-133625000D02*
X146133333Y-134091666D01*
X146133333Y-133691666D02*
X146166666Y-133658333D01*
X146233333Y-133625000D01*
X146333333Y-133625000D01*
X146400000Y-133658333D01*
X146433333Y-133725000D01*
X146433333Y-134091666D01*
X146766666Y-134091666D02*
X146766666Y-133625000D01*
X146766666Y-133758333D02*
X146800000Y-133691666D01*
X146833333Y-133658333D01*
X146900000Y-133625000D01*
X146966666Y-133625000D01*
X147200000Y-134091666D02*
X147200000Y-133625000D01*
X147200000Y-133391666D02*
X147166666Y-133425000D01*
X147200000Y-133458333D01*
X147233333Y-133425000D01*
X147200000Y-133391666D01*
X147200000Y-133458333D01*
X147533333Y-134091666D02*
X147533333Y-133391666D01*
X147600000Y-133825000D02*
X147800000Y-134091666D01*
X147800000Y-133625000D02*
X147533333Y-133891666D01*
X148633333Y-134091666D02*
X148633333Y-133391666D01*
X148633333Y-133725000D02*
X149033333Y-133725000D01*
X149033333Y-134091666D02*
X149033333Y-133391666D01*
X149633333Y-134058333D02*
X149566666Y-134091666D01*
X149433333Y-134091666D01*
X149366666Y-134058333D01*
X149333333Y-133991666D01*
X149333333Y-133725000D01*
X149366666Y-133658333D01*
X149433333Y-133625000D01*
X149566666Y-133625000D01*
X149633333Y-133658333D01*
X149666666Y-133725000D01*
X149666666Y-133791666D01*
X149333333Y-133858333D01*
X149966666Y-134091666D02*
X149966666Y-133625000D01*
X149966666Y-133691666D02*
X150000000Y-133658333D01*
X150066666Y-133625000D01*
X150166666Y-133625000D01*
X150233333Y-133658333D01*
X150266666Y-133725000D01*
X150266666Y-134091666D01*
X150266666Y-133725000D02*
X150300000Y-133658333D01*
X150366666Y-133625000D01*
X150466666Y-133625000D01*
X150533333Y-133658333D01*
X150566666Y-133725000D01*
X150566666Y-134091666D01*
X150866666Y-134058333D02*
X150933333Y-134091666D01*
X151066666Y-134091666D01*
X151133333Y-134058333D01*
X151166666Y-133991666D01*
X151166666Y-133958333D01*
X151133333Y-133891666D01*
X151066666Y-133858333D01*
X150966666Y-133858333D01*
X150900000Y-133825000D01*
X150866666Y-133758333D01*
X150866666Y-133725000D01*
X150900000Y-133658333D01*
X150966666Y-133625000D01*
X151066666Y-133625000D01*
X151133333Y-133658333D01*
X151466666Y-134091666D02*
X151466666Y-133625000D01*
X151466666Y-133391666D02*
X151433333Y-133425000D01*
X151466666Y-133458333D01*
X151500000Y-133425000D01*
X151466666Y-133391666D01*
X151466666Y-133458333D01*
X151800000Y-133625000D02*
X151800000Y-134091666D01*
X151800000Y-133691666D02*
X151833333Y-133658333D01*
X151900000Y-133625000D01*
X152000000Y-133625000D01*
X152066666Y-133658333D01*
X152100000Y-133725000D01*
X152100000Y-134091666D01*
X152733333Y-133625000D02*
X152733333Y-134191666D01*
X152700000Y-134258333D01*
X152666666Y-134291666D01*
X152600000Y-134325000D01*
X152500000Y-134325000D01*
X152433333Y-134291666D01*
X152733333Y-134058333D02*
X152666666Y-134091666D01*
X152533333Y-134091666D01*
X152466666Y-134058333D01*
X152433333Y-134025000D01*
X152400000Y-133958333D01*
X152400000Y-133758333D01*
X152433333Y-133691666D01*
X152466666Y-133658333D01*
X152533333Y-133625000D01*
X152666666Y-133625000D01*
X152733333Y-133658333D01*
X130600000Y-129971428D02*
X130600000Y-129371428D01*
X130742857Y-129371428D01*
X130828571Y-129400000D01*
X130885714Y-129457142D01*
X130914285Y-129514285D01*
X130942857Y-129628571D01*
X130942857Y-129714285D01*
X130914285Y-129828571D01*
X130885714Y-129885714D01*
X130828571Y-129942857D01*
X130742857Y-129971428D01*
X130600000Y-129971428D01*
X131200000Y-129971428D02*
X131200000Y-129571428D01*
X131200000Y-129371428D02*
X131171428Y-129400000D01*
X131200000Y-129428571D01*
X131228571Y-129400000D01*
X131200000Y-129371428D01*
X131200000Y-129428571D01*
X131457142Y-129942857D02*
X131514285Y-129971428D01*
X131628571Y-129971428D01*
X131685714Y-129942857D01*
X131714285Y-129885714D01*
X131714285Y-129857142D01*
X131685714Y-129800000D01*
X131628571Y-129771428D01*
X131542857Y-129771428D01*
X131485714Y-129742857D01*
X131457142Y-129685714D01*
X131457142Y-129657142D01*
X131485714Y-129600000D01*
X131542857Y-129571428D01*
X131628571Y-129571428D01*
X131685714Y-129600000D01*
X131971428Y-129571428D02*
X131971428Y-130171428D01*
X131971428Y-129600000D02*
X132028571Y-129571428D01*
X132142857Y-129571428D01*
X132200000Y-129600000D01*
X132228571Y-129628571D01*
X132257142Y-129685714D01*
X132257142Y-129857142D01*
X132228571Y-129914285D01*
X132200000Y-129942857D01*
X132142857Y-129971428D01*
X132028571Y-129971428D01*
X131971428Y-129942857D01*
X132600000Y-129971428D02*
X132542857Y-129942857D01*
X132514285Y-129885714D01*
X132514285Y-129371428D01*
X133085714Y-129971428D02*
X133085714Y-129657142D01*
X133057142Y-129600000D01*
X133000000Y-129571428D01*
X132885714Y-129571428D01*
X132828571Y-129600000D01*
X133085714Y-129942857D02*
X133028571Y-129971428D01*
X132885714Y-129971428D01*
X132828571Y-129942857D01*
X132800000Y-129885714D01*
X132800000Y-129828571D01*
X132828571Y-129771428D01*
X132885714Y-129742857D01*
X133028571Y-129742857D01*
X133085714Y-129714285D01*
X133314285Y-129571428D02*
X133457142Y-129971428D01*
X133600000Y-129571428D02*
X133457142Y-129971428D01*
X133400000Y-130114285D01*
X133371428Y-130142857D01*
X133314285Y-130171428D01*
X133828571Y-129971428D02*
X133828571Y-129371428D01*
X134057142Y-129371428D01*
X134114285Y-129400000D01*
X134142857Y-129428571D01*
X134171428Y-129485714D01*
X134171428Y-129571428D01*
X134142857Y-129628571D01*
X134114285Y-129657142D01*
X134057142Y-129685714D01*
X133828571Y-129685714D01*
X134514285Y-129971428D02*
X134457142Y-129942857D01*
X134428571Y-129914285D01*
X134400000Y-129857142D01*
X134400000Y-129685714D01*
X134428571Y-129628571D01*
X134457142Y-129600000D01*
X134514285Y-129571428D01*
X134600000Y-129571428D01*
X134657142Y-129600000D01*
X134685714Y-129628571D01*
X134714285Y-129685714D01*
X134714285Y-129857142D01*
X134685714Y-129914285D01*
X134657142Y-129942857D01*
X134600000Y-129971428D01*
X134514285Y-129971428D01*
X134971428Y-129971428D02*
X134971428Y-129571428D01*
X134971428Y-129685714D02*
X135000000Y-129628571D01*
X135028571Y-129600000D01*
X135085714Y-129571428D01*
X135142857Y-129571428D01*
X135257142Y-129571428D02*
X135485714Y-129571428D01*
X135342857Y-129371428D02*
X135342857Y-129885714D01*
X135371428Y-129942857D01*
X135428571Y-129971428D01*
X135485714Y-129971428D01*
X155324285Y-138701428D02*
X155324285Y-138101428D01*
X155552857Y-138101428D01*
X155610000Y-138130000D01*
X155638571Y-138158571D01*
X155667142Y-138215714D01*
X155667142Y-138301428D01*
X155638571Y-138358571D01*
X155610000Y-138387142D01*
X155552857Y-138415714D01*
X155324285Y-138415714D01*
X156010000Y-138701428D02*
X155952857Y-138672857D01*
X155924285Y-138644285D01*
X155895714Y-138587142D01*
X155895714Y-138415714D01*
X155924285Y-138358571D01*
X155952857Y-138330000D01*
X156010000Y-138301428D01*
X156095714Y-138301428D01*
X156152857Y-138330000D01*
X156181428Y-138358571D01*
X156210000Y-138415714D01*
X156210000Y-138587142D01*
X156181428Y-138644285D01*
X156152857Y-138672857D01*
X156095714Y-138701428D01*
X156010000Y-138701428D01*
X156410000Y-138301428D02*
X156524285Y-138701428D01*
X156638571Y-138415714D01*
X156752857Y-138701428D01*
X156867142Y-138301428D01*
X157324285Y-138672857D02*
X157267142Y-138701428D01*
X157152857Y-138701428D01*
X157095714Y-138672857D01*
X157067142Y-138615714D01*
X157067142Y-138387142D01*
X157095714Y-138330000D01*
X157152857Y-138301428D01*
X157267142Y-138301428D01*
X157324285Y-138330000D01*
X157352857Y-138387142D01*
X157352857Y-138444285D01*
X157067142Y-138501428D01*
X157610000Y-138701428D02*
X157610000Y-138301428D01*
X157610000Y-138415714D02*
X157638571Y-138358571D01*
X157667142Y-138330000D01*
X157724285Y-138301428D01*
X157781428Y-138301428D01*
X140257142Y-120268571D02*
X140542857Y-120268571D01*
X140542857Y-120868571D01*
X140057142Y-120268571D02*
X140057142Y-120868571D01*
X139828571Y-120868571D01*
X139771428Y-120840000D01*
X139742857Y-120811428D01*
X139714285Y-120754285D01*
X139714285Y-120668571D01*
X139742857Y-120611428D01*
X139771428Y-120582857D01*
X139828571Y-120554285D01*
X140057142Y-120554285D01*
X139342857Y-120868571D02*
X139285714Y-120868571D01*
X139228571Y-120840000D01*
X139200000Y-120811428D01*
X139171428Y-120754285D01*
X139142857Y-120640000D01*
X139142857Y-120497142D01*
X139171428Y-120382857D01*
X139200000Y-120325714D01*
X139228571Y-120297142D01*
X139285714Y-120268571D01*
X139342857Y-120268571D01*
X139400000Y-120297142D01*
X139428571Y-120325714D01*
X139457142Y-120382857D01*
X139485714Y-120497142D01*
X139485714Y-120640000D01*
X139457142Y-120754285D01*
X139428571Y-120811428D01*
X139400000Y-120840000D01*
X139342857Y-120868571D01*
X138857142Y-120268571D02*
X138742857Y-120268571D01*
X138685714Y-120297142D01*
X138657142Y-120325714D01*
X138600000Y-120411428D01*
X138571428Y-120525714D01*
X138571428Y-120754285D01*
X138600000Y-120811428D01*
X138628571Y-120840000D01*
X138685714Y-120868571D01*
X138800000Y-120868571D01*
X138857142Y-120840000D01*
X138885714Y-120811428D01*
X138914285Y-120754285D01*
X138914285Y-120611428D01*
X138885714Y-120554285D01*
X138857142Y-120525714D01*
X138800000Y-120497142D01*
X138685714Y-120497142D01*
X138628571Y-120525714D01*
X138600000Y-120554285D01*
X138571428Y-120611428D01*
X138371428Y-120868571D02*
X137971428Y-120868571D01*
X138228571Y-120268571D01*
X137342857Y-120211428D02*
X137400000Y-120240000D01*
X137457142Y-120297142D01*
X137542857Y-120382857D01*
X137600000Y-120411428D01*
X137657142Y-120411428D01*
X137628571Y-120268571D02*
X137685714Y-120297142D01*
X137742857Y-120354285D01*
X137771428Y-120468571D01*
X137771428Y-120668571D01*
X137742857Y-120782857D01*
X137685714Y-120840000D01*
X137628571Y-120868571D01*
X137514285Y-120868571D01*
X137457142Y-120840000D01*
X137400000Y-120782857D01*
X137371428Y-120668571D01*
X137371428Y-120468571D01*
X137400000Y-120354285D01*
X137457142Y-120297142D01*
X137514285Y-120268571D01*
X137628571Y-120268571D01*
X137171428Y-120868571D02*
X136771428Y-120268571D01*
X136771428Y-120868571D02*
X137171428Y-120268571D01*
X136228571Y-120268571D02*
X136571428Y-120268571D01*
X136400000Y-120268571D02*
X136400000Y-120868571D01*
X136457142Y-120782857D01*
X136514285Y-120725714D01*
X136571428Y-120697142D01*
X135971428Y-120497142D02*
X135514285Y-120497142D01*
X135257142Y-120297142D02*
X135171428Y-120268571D01*
X135028571Y-120268571D01*
X134971428Y-120297142D01*
X134942857Y-120325714D01*
X134914285Y-120382857D01*
X134914285Y-120440000D01*
X134942857Y-120497142D01*
X134971428Y-120525714D01*
X135028571Y-120554285D01*
X135142857Y-120582857D01*
X135200000Y-120611428D01*
X135228571Y-120640000D01*
X135257142Y-120697142D01*
X135257142Y-120754285D01*
X135228571Y-120811428D01*
X135200000Y-120840000D01*
X135142857Y-120868571D01*
X135000000Y-120868571D01*
X134914285Y-120840000D01*
X134657142Y-120268571D02*
X134657142Y-120868571D01*
X134428571Y-120868571D01*
X134371428Y-120840000D01*
X134342857Y-120811428D01*
X134314285Y-120754285D01*
X134314285Y-120668571D01*
X134342857Y-120611428D01*
X134371428Y-120582857D01*
X134428571Y-120554285D01*
X134657142Y-120554285D01*
X134085714Y-120440000D02*
X133800000Y-120440000D01*
X134142857Y-120268571D02*
X133942857Y-120868571D01*
X133742857Y-120268571D01*
X133228571Y-120268571D02*
X133571428Y-120268571D01*
X133400000Y-120268571D02*
X133400000Y-120868571D01*
X133457142Y-120782857D01*
X133514285Y-120725714D01*
X133571428Y-120697142D01*
D12*
X146469047Y-125308095D02*
X146716666Y-125308095D01*
X146840476Y-125370000D01*
X146964285Y-125493809D01*
X147026190Y-125741428D01*
X147026190Y-126174761D01*
X146964285Y-126422380D01*
X146840476Y-126546190D01*
X146716666Y-126608095D01*
X146469047Y-126608095D01*
X146345238Y-126546190D01*
X146221428Y-126422380D01*
X146159523Y-126174761D01*
X146159523Y-125741428D01*
X146221428Y-125493809D01*
X146345238Y-125370000D01*
X146469047Y-125308095D01*
X147397619Y-125741428D02*
X147892857Y-125741428D01*
X147583333Y-125308095D02*
X147583333Y-126422380D01*
X147645238Y-126546190D01*
X147769047Y-126608095D01*
X147892857Y-126608095D01*
X148140476Y-125741428D02*
X148635714Y-125741428D01*
X148326190Y-125308095D02*
X148326190Y-126422380D01*
X148388095Y-126546190D01*
X148511904Y-126608095D01*
X148635714Y-126608095D01*
X149564285Y-126546190D02*
X149440476Y-126608095D01*
X149192857Y-126608095D01*
X149069047Y-126546190D01*
X149007142Y-126422380D01*
X149007142Y-125927142D01*
X149069047Y-125803333D01*
X149192857Y-125741428D01*
X149440476Y-125741428D01*
X149564285Y-125803333D01*
X149626190Y-125927142D01*
X149626190Y-126050952D01*
X149007142Y-126174761D01*
X150183333Y-126608095D02*
X150183333Y-125741428D01*
X150183333Y-125989047D02*
X150245238Y-125865238D01*
X150307142Y-125803333D01*
X150430952Y-125741428D01*
X150554761Y-125741428D01*
X150988095Y-126112857D02*
X151978571Y-126112857D01*
X145261904Y-128626190D02*
X145447619Y-128688095D01*
X145757142Y-128688095D01*
X145880952Y-128626190D01*
X145942857Y-128564285D01*
X146004761Y-128440476D01*
X146004761Y-128316666D01*
X145942857Y-128192857D01*
X145880952Y-128130952D01*
X145757142Y-128069047D01*
X145509523Y-128007142D01*
X145385714Y-127945238D01*
X145323809Y-127883333D01*
X145261904Y-127759523D01*
X145261904Y-127635714D01*
X145323809Y-127511904D01*
X145385714Y-127450000D01*
X145509523Y-127388095D01*
X145819047Y-127388095D01*
X146004761Y-127450000D01*
X147119047Y-128626190D02*
X146995238Y-128688095D01*
X146747619Y-128688095D01*
X146623809Y-128626190D01*
X146561904Y-128564285D01*
X146500000Y-128440476D01*
X146500000Y-128069047D01*
X146561904Y-127945238D01*
X146623809Y-127883333D01*
X146747619Y-127821428D01*
X146995238Y-127821428D01*
X147119047Y-127883333D01*
X147676190Y-128688095D02*
X147676190Y-127821428D01*
X147676190Y-128069047D02*
X147738095Y-127945238D01*
X147800000Y-127883333D01*
X147923809Y-127821428D01*
X148047619Y-127821428D01*
X148976190Y-128626190D02*
X148852380Y-128688095D01*
X148604761Y-128688095D01*
X148480952Y-128626190D01*
X148419047Y-128502380D01*
X148419047Y-128007142D01*
X148480952Y-127883333D01*
X148604761Y-127821428D01*
X148852380Y-127821428D01*
X148976190Y-127883333D01*
X149038095Y-128007142D01*
X149038095Y-128130952D01*
X148419047Y-128254761D01*
X150090476Y-128626190D02*
X149966666Y-128688095D01*
X149719047Y-128688095D01*
X149595238Y-128626190D01*
X149533333Y-128502380D01*
X149533333Y-128007142D01*
X149595238Y-127883333D01*
X149719047Y-127821428D01*
X149966666Y-127821428D01*
X150090476Y-127883333D01*
X150152380Y-128007142D01*
X150152380Y-128130952D01*
X149533333Y-128254761D01*
X150709523Y-127821428D02*
X150709523Y-128688095D01*
X150709523Y-127945238D02*
X150771428Y-127883333D01*
X150895238Y-127821428D01*
X151080952Y-127821428D01*
X151204761Y-127883333D01*
X151266666Y-128007142D01*
X151266666Y-128688095D01*
X151885714Y-128192857D02*
X152876190Y-128192857D01*
X145695238Y-130396666D02*
X146314285Y-130396666D01*
X145571428Y-130768095D02*
X146004761Y-129468095D01*
X146438095Y-130768095D01*
X147428571Y-130768095D02*
X147428571Y-129468095D01*
X147428571Y-130706190D02*
X147304761Y-130768095D01*
X147057142Y-130768095D01*
X146933333Y-130706190D01*
X146871428Y-130644285D01*
X146809523Y-130520476D01*
X146809523Y-130149047D01*
X146871428Y-130025238D01*
X146933333Y-129963333D01*
X147057142Y-129901428D01*
X147304761Y-129901428D01*
X147428571Y-129963333D01*
X148604761Y-130768095D02*
X148604761Y-130087142D01*
X148542857Y-129963333D01*
X148419047Y-129901428D01*
X148171428Y-129901428D01*
X148047619Y-129963333D01*
X148604761Y-130706190D02*
X148480952Y-130768095D01*
X148171428Y-130768095D01*
X148047619Y-130706190D01*
X147985714Y-130582380D01*
X147985714Y-130458571D01*
X148047619Y-130334761D01*
X148171428Y-130272857D01*
X148480952Y-130272857D01*
X148604761Y-130210952D01*
X149223809Y-129901428D02*
X149223809Y-131201428D01*
X149223809Y-129963333D02*
X149347619Y-129901428D01*
X149595238Y-129901428D01*
X149719047Y-129963333D01*
X149780952Y-130025238D01*
X149842857Y-130149047D01*
X149842857Y-130520476D01*
X149780952Y-130644285D01*
X149719047Y-130706190D01*
X149595238Y-130768095D01*
X149347619Y-130768095D01*
X149223809Y-130706190D01*
X150214285Y-129901428D02*
X150709523Y-129901428D01*
X150400000Y-129468095D02*
X150400000Y-130582380D01*
X150461904Y-130706190D01*
X150585714Y-130768095D01*
X150709523Y-130768095D01*
X151638095Y-130706190D02*
X151514285Y-130768095D01*
X151266666Y-130768095D01*
X151142857Y-130706190D01*
X151080952Y-130582380D01*
X151080952Y-130087142D01*
X151142857Y-129963333D01*
X151266666Y-129901428D01*
X151514285Y-129901428D01*
X151638095Y-129963333D01*
X151700000Y-130087142D01*
X151700000Y-130210952D01*
X151080952Y-130334761D01*
X152257142Y-130768095D02*
X152257142Y-129901428D01*
X152257142Y-130149047D02*
X152319047Y-130025238D01*
X152380952Y-129963333D01*
X152504761Y-129901428D01*
X152628571Y-129901428D01*
D13*
X158654285Y-120632857D02*
X158768571Y-120670952D01*
X158806666Y-120709047D01*
X158844761Y-120785238D01*
X158844761Y-120899523D01*
X158806666Y-120975714D01*
X158768571Y-121013809D01*
X158692380Y-121051904D01*
X158387619Y-121051904D01*
X158387619Y-120251904D01*
X158654285Y-120251904D01*
X158730476Y-120290000D01*
X158768571Y-120328095D01*
X158806666Y-120404285D01*
X158806666Y-120480476D01*
X158768571Y-120556666D01*
X158730476Y-120594761D01*
X158654285Y-120632857D01*
X158387619Y-120632857D01*
X159187619Y-121051904D02*
X159187619Y-120518571D01*
X159187619Y-120670952D02*
X159225714Y-120594761D01*
X159263809Y-120556666D01*
X159340000Y-120518571D01*
X159416190Y-120518571D01*
X159682857Y-121051904D02*
X159682857Y-120518571D01*
X159682857Y-120251904D02*
X159644761Y-120290000D01*
X159682857Y-120328095D01*
X159720952Y-120290000D01*
X159682857Y-120251904D01*
X159682857Y-120328095D01*
X160406666Y-120518571D02*
X160406666Y-121166190D01*
X160368571Y-121242380D01*
X160330476Y-121280476D01*
X160254285Y-121318571D01*
X160140000Y-121318571D01*
X160063809Y-121280476D01*
X160406666Y-121013809D02*
X160330476Y-121051904D01*
X160178095Y-121051904D01*
X160101904Y-121013809D01*
X160063809Y-120975714D01*
X160025714Y-120899523D01*
X160025714Y-120670952D01*
X160063809Y-120594761D01*
X160101904Y-120556666D01*
X160178095Y-120518571D01*
X160330476Y-120518571D01*
X160406666Y-120556666D01*
X160787619Y-121051904D02*
X160787619Y-120251904D01*
X161130476Y-121051904D02*
X161130476Y-120632857D01*
X161092380Y-120556666D01*
X161016190Y-120518571D01*
X160901904Y-120518571D01*
X160825714Y-120556666D01*
X160787619Y-120594761D01*
X161397142Y-120518571D02*
X161701904Y-120518571D01*
X161511428Y-120251904D02*
X161511428Y-120937619D01*
X161549523Y-121013809D01*
X161625714Y-121051904D01*
X161701904Y-121051904D01*
X161968571Y-120518571D02*
X161968571Y-121051904D01*
X161968571Y-120594761D02*
X162006666Y-120556666D01*
X162082857Y-120518571D01*
X162197142Y-120518571D01*
X162273333Y-120556666D01*
X162311428Y-120632857D01*
X162311428Y-121051904D01*
X162997142Y-121013809D02*
X162920952Y-121051904D01*
X162768571Y-121051904D01*
X162692380Y-121013809D01*
X162654285Y-120937619D01*
X162654285Y-120632857D01*
X162692380Y-120556666D01*
X162768571Y-120518571D01*
X162920952Y-120518571D01*
X162997142Y-120556666D01*
X163035238Y-120632857D01*
X163035238Y-120709047D01*
X162654285Y-120785238D01*
X163340000Y-121013809D02*
X163416190Y-121051904D01*
X163568571Y-121051904D01*
X163644761Y-121013809D01*
X163682857Y-120937619D01*
X163682857Y-120899523D01*
X163644761Y-120823333D01*
X163568571Y-120785238D01*
X163454285Y-120785238D01*
X163378095Y-120747142D01*
X163340000Y-120670952D01*
X163340000Y-120632857D01*
X163378095Y-120556666D01*
X163454285Y-120518571D01*
X163568571Y-120518571D01*
X163644761Y-120556666D01*
X163987619Y-121013809D02*
X164063809Y-121051904D01*
X164216190Y-121051904D01*
X164292380Y-121013809D01*
X164330476Y-120937619D01*
X164330476Y-120899523D01*
X164292380Y-120823333D01*
X164216190Y-120785238D01*
X164101904Y-120785238D01*
X164025714Y-120747142D01*
X163987619Y-120670952D01*
X163987619Y-120632857D01*
X164025714Y-120556666D01*
X164101904Y-120518571D01*
X164216190Y-120518571D01*
X164292380Y-120556666D01*
X164099999Y-114200001D02*
G75*
G02X165800000Y-115900000I1J-1700000D01*
G01*
X121000001Y-115900001D02*
G75*
G02X122700000Y-114200000I1700000J1D01*
G01*
X122700001Y-145599999D02*
G75*
G02X121000000Y-143900000I-1J1700000D01*
G01*
X165800000Y-143900000D02*
G75*
G02X164100000Y-145600000I-1700000J0D01*
G01*
X164100000Y-145600000D02*
X136200000Y-145600000D01*
X165800000Y-115900000D02*
X165800000Y-143900000D01*
X122700000Y-114200000D02*
X164099999Y-114200001D01*
X121000000Y-143900000D02*
X121000001Y-115900001D01*
X136200000Y-145600000D02*
X122700001Y-145599999D01*
D14*
X148090000Y-119637221D02*
X148090000Y-119962779D01*
X149110000Y-119637221D02*
X149110000Y-119962779D01*
X141562779Y-122210000D02*
X141237221Y-122210000D01*
X141562779Y-121190000D02*
X141237221Y-121190000D01*
X150000000Y-119210000D02*
X152000000Y-119210000D01*
X151000000Y-116990000D02*
X152000000Y-116990000D01*
X143610000Y-124200000D02*
X143610000Y-125200000D01*
X141390000Y-123200000D02*
X141390000Y-125200000D01*
X124888578Y-129890000D02*
X124371422Y-129890000D01*
X124888578Y-131310000D02*
X124371422Y-131310000D01*
X130328578Y-122180000D02*
X129811422Y-122180000D01*
X130328578Y-120760000D02*
X129811422Y-120760000D01*
X129260000Y-129430000D02*
X129260000Y-128170000D01*
X129260000Y-122610000D02*
X129260000Y-123870000D01*
X125500000Y-129430000D02*
X129260000Y-129430000D01*
X123250000Y-122610000D02*
X129260000Y-122610000D01*
D15*
X128250000Y-132280000D02*
X124250000Y-132280000D01*
X124250000Y-132280000D02*
X124250000Y-132980000D01*
X124250000Y-136410000D02*
X124250000Y-139960000D01*
X124250000Y-142990000D02*
X124250000Y-145650000D01*
X141150000Y-142990000D02*
X141150000Y-145650000D01*
X141150000Y-136410000D02*
X141150000Y-139960000D01*
X141150000Y-132280000D02*
X141150000Y-132980000D01*
X141150000Y-132280000D02*
X138650000Y-132280000D01*
D10*
X138300000Y-130250000D02*
G75*
G03X138300000Y-130250000I-100000J0D01*
G01*
D15*
X124250000Y-145650000D02*
X141150000Y-145650000D01*
D13*
X143930000Y-137180000D02*
X142180000Y-137180000D01*
X143930000Y-142935000D02*
X149430000Y-142935000D01*
X143930000Y-136525000D02*
X149430000Y-136525000D01*
X143930000Y-142935000D02*
X143930000Y-142185000D01*
X149430000Y-142935000D02*
X149430000Y-142185000D01*
X149430000Y-136525000D02*
X149430000Y-137275000D01*
X143930000Y-136525000D02*
X143930000Y-137180000D01*
D14*
X149110000Y-116858578D02*
X149110000Y-116341422D01*
X147690000Y-116858578D02*
X147690000Y-116341422D01*
X144341422Y-122209999D02*
X144858578Y-122209999D01*
X144341422Y-120789999D02*
X144858578Y-120789999D01*
X152867221Y-137690000D02*
X153192779Y-137690000D01*
X152867221Y-136670000D02*
X153192779Y-136670000D01*
X152800000Y-116000000D02*
X152800000Y-120000000D01*
X157000000Y-116000000D02*
X157000000Y-120000000D01*
X144600000Y-125900000D02*
X140600000Y-125900000D01*
X144600000Y-130100000D02*
X140600000Y-130100000D01*
X152700000Y-120400000D02*
X156550000Y-120400000D01*
X152700000Y-122400000D02*
X156550000Y-122400000D01*
X152700000Y-120400000D02*
X152700000Y-122400000D01*
X140200000Y-125800000D02*
X140200000Y-129650000D01*
X138200000Y-125800000D02*
X138200000Y-129650000D01*
X140200000Y-125800000D02*
X138200000Y-125800000D01*
X144440000Y-143280000D02*
X148290000Y-143280000D01*
X144440000Y-145280000D02*
X148290000Y-145280000D01*
X144440000Y-143280000D02*
X144440000Y-145280000D01*
X151258578Y-119590000D02*
X150741422Y-119590000D01*
X151258578Y-121010000D02*
X150741422Y-121010000D01*
X151258578Y-115180000D02*
X150741422Y-115180000D01*
X151258578Y-116600000D02*
X150741422Y-116600000D01*
X141010000Y-124358578D02*
X141010000Y-123841422D01*
X139590000Y-124358578D02*
X139590000Y-123841422D01*
X145410000Y-124358578D02*
X145410000Y-123841422D01*
X143990000Y-124358578D02*
X143990000Y-123841422D01*
X148112779Y-135090000D02*
X147787221Y-135090000D01*
X148112779Y-136110000D02*
X147787221Y-136110000D01*
X144942779Y-135120000D02*
X144617221Y-135120000D01*
X144942779Y-136140000D02*
X144617221Y-136140000D01*
X149910000Y-143657221D02*
X149910000Y-143982779D01*
X150930000Y-143657221D02*
X150930000Y-143982779D01*
D11*
X152300000Y-145550000D02*
X160700000Y-145550000D01*
X160700000Y-145550000D02*
X160700000Y-145150000D01*
D16*
X160700000Y-142750000D02*
X160700000Y-141350000D01*
D11*
X152300000Y-145550000D02*
X152300000Y-145150000D01*
X152300000Y-142750000D02*
X152300000Y-141350000D01*
X152950000Y-140150000D02*
X153250000Y-140150000D01*
X160050000Y-140150000D02*
X159750000Y-140150000D01*
D14*
X122860000Y-138525279D02*
X122860000Y-138199721D01*
X121840000Y-138525279D02*
X121840000Y-138199721D01*
X122860000Y-141287221D02*
X122860000Y-141612779D01*
X121840000Y-141287221D02*
X121840000Y-141612779D01*
X162780000Y-140832779D02*
X162780000Y-140507221D01*
X161760000Y-140832779D02*
X161760000Y-140507221D01*
X162780000Y-143487221D02*
X162780000Y-143812779D01*
X161760000Y-143487221D02*
X161760000Y-143812779D01*
D11*
X128850000Y-117190000D02*
X128850000Y-119540000D01*
X128850000Y-119540000D02*
X129850000Y-119540000D01*
X145850000Y-117190000D02*
X145850000Y-119540000D01*
X145850000Y-119540000D02*
X144850000Y-119540000D01*
X148310714Y-121660714D02*
X148289285Y-121682142D01*
X148225000Y-121703571D01*
X148182142Y-121703571D01*
X148117857Y-121682142D01*
X148075000Y-121639285D01*
X148053571Y-121596428D01*
X148032142Y-121510714D01*
X148032142Y-121446428D01*
X148053571Y-121360714D01*
X148075000Y-121317857D01*
X148117857Y-121275000D01*
X148182142Y-121253571D01*
X148225000Y-121253571D01*
X148289285Y-121275000D01*
X148310714Y-121296428D01*
X148739285Y-121703571D02*
X148482142Y-121703571D01*
X148610714Y-121703571D02*
X148610714Y-121253571D01*
X148567857Y-121317857D01*
X148525000Y-121360714D01*
X148482142Y-121382142D01*
X149017857Y-121253571D02*
X149060714Y-121253571D01*
X149103571Y-121275000D01*
X149125000Y-121296428D01*
X149146428Y-121339285D01*
X149167857Y-121425000D01*
X149167857Y-121532142D01*
X149146428Y-121617857D01*
X149125000Y-121660714D01*
X149103571Y-121682142D01*
X149060714Y-121703571D01*
X149017857Y-121703571D01*
X148975000Y-121682142D01*
X148953571Y-121660714D01*
X148932142Y-121617857D01*
X148910714Y-121532142D01*
X148910714Y-121425000D01*
X148932142Y-121339285D01*
X148953571Y-121296428D01*
X148975000Y-121275000D01*
X149017857Y-121253571D01*
X141910714Y-120860714D02*
X141889285Y-120882142D01*
X141825000Y-120903571D01*
X141782142Y-120903571D01*
X141717857Y-120882142D01*
X141675000Y-120839285D01*
X141653571Y-120796428D01*
X141632142Y-120710714D01*
X141632142Y-120646428D01*
X141653571Y-120560714D01*
X141675000Y-120517857D01*
X141717857Y-120475000D01*
X141782142Y-120453571D01*
X141825000Y-120453571D01*
X141889285Y-120475000D01*
X141910714Y-120496428D01*
X142339285Y-120903571D02*
X142082142Y-120903571D01*
X142210714Y-120903571D02*
X142210714Y-120453571D01*
X142167857Y-120517857D01*
X142125000Y-120560714D01*
X142082142Y-120582142D01*
X142767857Y-120903571D02*
X142510714Y-120903571D01*
X142639285Y-120903571D02*
X142639285Y-120453571D01*
X142596428Y-120517857D01*
X142553571Y-120560714D01*
X142510714Y-120582142D01*
X150657142Y-121253571D02*
X150657142Y-121617857D01*
X150678571Y-121660714D01*
X150700000Y-121682142D01*
X150742857Y-121703571D01*
X150828571Y-121703571D01*
X150871428Y-121682142D01*
X150892857Y-121660714D01*
X150914285Y-121617857D01*
X150914285Y-121253571D01*
X151085714Y-121253571D02*
X151364285Y-121253571D01*
X151214285Y-121425000D01*
X151278571Y-121425000D01*
X151321428Y-121446428D01*
X151342857Y-121467857D01*
X151364285Y-121510714D01*
X151364285Y-121617857D01*
X151342857Y-121660714D01*
X151321428Y-121682142D01*
X151278571Y-121703571D01*
X151150000Y-121703571D01*
X151107142Y-121682142D01*
X151085714Y-121660714D01*
X142557142Y-122353571D02*
X142557142Y-122717857D01*
X142578571Y-122760714D01*
X142600000Y-122782142D01*
X142642857Y-122803571D01*
X142728571Y-122803571D01*
X142771428Y-122782142D01*
X142792857Y-122760714D01*
X142814285Y-122717857D01*
X142814285Y-122353571D01*
X143221428Y-122503571D02*
X143221428Y-122803571D01*
X143114285Y-122332142D02*
X143007142Y-122653571D01*
X143285714Y-122653571D01*
X124555000Y-131860714D02*
X124533571Y-131882142D01*
X124469285Y-131903571D01*
X124426428Y-131903571D01*
X124362142Y-131882142D01*
X124319285Y-131839285D01*
X124297857Y-131796428D01*
X124276428Y-131710714D01*
X124276428Y-131646428D01*
X124297857Y-131560714D01*
X124319285Y-131517857D01*
X124362142Y-131475000D01*
X124426428Y-131453571D01*
X124469285Y-131453571D01*
X124533571Y-131475000D01*
X124555000Y-131496428D01*
X124812142Y-131646428D02*
X124769285Y-131625000D01*
X124747857Y-131603571D01*
X124726428Y-131560714D01*
X124726428Y-131539285D01*
X124747857Y-131496428D01*
X124769285Y-131475000D01*
X124812142Y-131453571D01*
X124897857Y-131453571D01*
X124940714Y-131475000D01*
X124962142Y-131496428D01*
X124983571Y-131539285D01*
X124983571Y-131560714D01*
X124962142Y-131603571D01*
X124940714Y-131625000D01*
X124897857Y-131646428D01*
X124812142Y-131646428D01*
X124769285Y-131667857D01*
X124747857Y-131689285D01*
X124726428Y-131732142D01*
X124726428Y-131817857D01*
X124747857Y-131860714D01*
X124769285Y-131882142D01*
X124812142Y-131903571D01*
X124897857Y-131903571D01*
X124940714Y-131882142D01*
X124962142Y-131860714D01*
X124983571Y-131817857D01*
X124983571Y-131732142D01*
X124962142Y-131689285D01*
X124940714Y-131667857D01*
X124897857Y-131646428D01*
X129995000Y-122760714D02*
X129973571Y-122782142D01*
X129909285Y-122803571D01*
X129866428Y-122803571D01*
X129802142Y-122782142D01*
X129759285Y-122739285D01*
X129737857Y-122696428D01*
X129716428Y-122610714D01*
X129716428Y-122546428D01*
X129737857Y-122460714D01*
X129759285Y-122417857D01*
X129802142Y-122375000D01*
X129866428Y-122353571D01*
X129909285Y-122353571D01*
X129973571Y-122375000D01*
X129995000Y-122396428D01*
X130209285Y-122803571D02*
X130295000Y-122803571D01*
X130337857Y-122782142D01*
X130359285Y-122760714D01*
X130402142Y-122696428D01*
X130423571Y-122610714D01*
X130423571Y-122439285D01*
X130402142Y-122396428D01*
X130380714Y-122375000D01*
X130337857Y-122353571D01*
X130252142Y-122353571D01*
X130209285Y-122375000D01*
X130187857Y-122396428D01*
X130166428Y-122439285D01*
X130166428Y-122546428D01*
X130187857Y-122589285D01*
X130209285Y-122610714D01*
X130252142Y-122632142D01*
X130337857Y-122632142D01*
X130380714Y-122610714D01*
X130402142Y-122589285D01*
X130423571Y-122546428D01*
X127457142Y-121953571D02*
X127457142Y-122317857D01*
X127478571Y-122360714D01*
X127500000Y-122382142D01*
X127542857Y-122403571D01*
X127628571Y-122403571D01*
X127671428Y-122382142D01*
X127692857Y-122360714D01*
X127714285Y-122317857D01*
X127714285Y-121953571D01*
X128142857Y-121953571D02*
X127928571Y-121953571D01*
X127907142Y-122167857D01*
X127928571Y-122146428D01*
X127971428Y-122125000D01*
X128078571Y-122125000D01*
X128121428Y-122146428D01*
X128142857Y-122167857D01*
X128164285Y-122210714D01*
X128164285Y-122317857D01*
X128142857Y-122360714D01*
X128121428Y-122382142D01*
X128078571Y-122403571D01*
X127971428Y-122403571D01*
X127928571Y-122382142D01*
X127907142Y-122360714D01*
X132550000Y-143553571D02*
X132550000Y-143875000D01*
X132528571Y-143939285D01*
X132485714Y-143982142D01*
X132421428Y-144003571D01*
X132378571Y-144003571D01*
X133000000Y-144003571D02*
X132742857Y-144003571D01*
X132871428Y-144003571D02*
X132871428Y-143553571D01*
X132828571Y-143617857D01*
X132785714Y-143660714D01*
X132742857Y-143682142D01*
X142587142Y-142258571D02*
X142587142Y-142622857D01*
X142608571Y-142665714D01*
X142630000Y-142687142D01*
X142672857Y-142708571D01*
X142758571Y-142708571D01*
X142801428Y-142687142D01*
X142822857Y-142665714D01*
X142844285Y-142622857D01*
X142844285Y-142258571D01*
X143037142Y-142301428D02*
X143058571Y-142280000D01*
X143101428Y-142258571D01*
X143208571Y-142258571D01*
X143251428Y-142280000D01*
X143272857Y-142301428D01*
X143294285Y-142344285D01*
X143294285Y-142387142D01*
X143272857Y-142451428D01*
X143015714Y-142708571D01*
X143294285Y-142708571D01*
X161525000Y-130703571D02*
X161375000Y-130489285D01*
X161267857Y-130703571D02*
X161267857Y-130253571D01*
X161439285Y-130253571D01*
X161482142Y-130275000D01*
X161503571Y-130296428D01*
X161525000Y-130339285D01*
X161525000Y-130403571D01*
X161503571Y-130446428D01*
X161482142Y-130467857D01*
X161439285Y-130489285D01*
X161267857Y-130489285D01*
X161782142Y-130446428D02*
X161739285Y-130425000D01*
X161717857Y-130403571D01*
X161696428Y-130360714D01*
X161696428Y-130339285D01*
X161717857Y-130296428D01*
X161739285Y-130275000D01*
X161782142Y-130253571D01*
X161867857Y-130253571D01*
X161910714Y-130275000D01*
X161932142Y-130296428D01*
X161953571Y-130339285D01*
X161953571Y-130360714D01*
X161932142Y-130403571D01*
X161910714Y-130425000D01*
X161867857Y-130446428D01*
X161782142Y-130446428D01*
X161739285Y-130467857D01*
X161717857Y-130489285D01*
X161696428Y-130532142D01*
X161696428Y-130617857D01*
X161717857Y-130660714D01*
X161739285Y-130682142D01*
X161782142Y-130703571D01*
X161867857Y-130703571D01*
X161910714Y-130682142D01*
X161932142Y-130660714D01*
X161953571Y-130617857D01*
X161953571Y-130532142D01*
X161932142Y-130489285D01*
X161910714Y-130467857D01*
X161867857Y-130446428D01*
X146971068Y-116803571D02*
X146821068Y-116589285D01*
X146713925Y-116803571D02*
X146713925Y-116353571D01*
X146885353Y-116353571D01*
X146928210Y-116375000D01*
X146949639Y-116396428D01*
X146971068Y-116439285D01*
X146971068Y-116503571D01*
X146949639Y-116546428D01*
X146928210Y-116567857D01*
X146885353Y-116589285D01*
X146713925Y-116589285D01*
X147121068Y-116353571D02*
X147421068Y-116353571D01*
X147228210Y-116803571D01*
X144512501Y-120603571D02*
X144362501Y-120389285D01*
X144255358Y-120603571D02*
X144255358Y-120153571D01*
X144426786Y-120153571D01*
X144469643Y-120175000D01*
X144491072Y-120196428D01*
X144512501Y-120239285D01*
X144512501Y-120303571D01*
X144491072Y-120346428D01*
X144469643Y-120367857D01*
X144426786Y-120389285D01*
X144255358Y-120389285D01*
X144898215Y-120153571D02*
X144812501Y-120153571D01*
X144769643Y-120175000D01*
X144748215Y-120196428D01*
X144705358Y-120260714D01*
X144683929Y-120346428D01*
X144683929Y-120517857D01*
X144705358Y-120560714D01*
X144726786Y-120582142D01*
X144769643Y-120603571D01*
X144855358Y-120603571D01*
X144898215Y-120582142D01*
X144919643Y-120560714D01*
X144941072Y-120517857D01*
X144941072Y-120410714D01*
X144919643Y-120367857D01*
X144898215Y-120346428D01*
X144855358Y-120325000D01*
X144769643Y-120325000D01*
X144726786Y-120346428D01*
X144705358Y-120367857D01*
X144683929Y-120410714D01*
X152955000Y-136503571D02*
X152805000Y-136289285D01*
X152697857Y-136503571D02*
X152697857Y-136053571D01*
X152869285Y-136053571D01*
X152912142Y-136075000D01*
X152933571Y-136096428D01*
X152955000Y-136139285D01*
X152955000Y-136203571D01*
X152933571Y-136246428D01*
X152912142Y-136267857D01*
X152869285Y-136289285D01*
X152697857Y-136289285D01*
X153362142Y-136053571D02*
X153147857Y-136053571D01*
X153126428Y-136267857D01*
X153147857Y-136246428D01*
X153190714Y-136225000D01*
X153297857Y-136225000D01*
X153340714Y-136246428D01*
X153362142Y-136267857D01*
X153383571Y-136310714D01*
X153383571Y-136417857D01*
X153362142Y-136460714D01*
X153340714Y-136482142D01*
X153297857Y-136503571D01*
X153190714Y-136503571D01*
X153147857Y-136482142D01*
X153126428Y-136460714D01*
X155025000Y-115603571D02*
X154810714Y-115603571D01*
X154810714Y-115153571D01*
X155153571Y-115196428D02*
X155175000Y-115175000D01*
X155217857Y-115153571D01*
X155325000Y-115153571D01*
X155367857Y-115175000D01*
X155389285Y-115196428D01*
X155410714Y-115239285D01*
X155410714Y-115282142D01*
X155389285Y-115346428D01*
X155132142Y-115603571D01*
X155410714Y-115603571D01*
X140825000Y-130803571D02*
X140610714Y-130803571D01*
X140610714Y-130353571D01*
X141210714Y-130803571D02*
X140953571Y-130803571D01*
X141082142Y-130803571D02*
X141082142Y-130353571D01*
X141039285Y-130417857D01*
X140996428Y-130460714D01*
X140953571Y-130482142D01*
X151767857Y-122303571D02*
X151767857Y-121853571D01*
X151875000Y-121853571D01*
X151939285Y-121875000D01*
X151982142Y-121917857D01*
X152003571Y-121960714D01*
X152025000Y-122046428D01*
X152025000Y-122110714D01*
X152003571Y-122196428D01*
X151982142Y-122239285D01*
X151939285Y-122282142D01*
X151875000Y-122303571D01*
X151767857Y-122303571D01*
X152175000Y-121853571D02*
X152453571Y-121853571D01*
X152303571Y-122025000D01*
X152367857Y-122025000D01*
X152410714Y-122046428D01*
X152432142Y-122067857D01*
X152453571Y-122110714D01*
X152453571Y-122217857D01*
X152432142Y-122260714D01*
X152410714Y-122282142D01*
X152367857Y-122303571D01*
X152239285Y-122303571D01*
X152196428Y-122282142D01*
X152175000Y-122260714D01*
X138867857Y-130703571D02*
X138867857Y-130253571D01*
X138975000Y-130253571D01*
X139039285Y-130275000D01*
X139082142Y-130317857D01*
X139103571Y-130360714D01*
X139125000Y-130446428D01*
X139125000Y-130510714D01*
X139103571Y-130596428D01*
X139082142Y-130639285D01*
X139039285Y-130682142D01*
X138975000Y-130703571D01*
X138867857Y-130703571D01*
X139296428Y-130296428D02*
X139317857Y-130275000D01*
X139360714Y-130253571D01*
X139467857Y-130253571D01*
X139510714Y-130275000D01*
X139532142Y-130296428D01*
X139553571Y-130339285D01*
X139553571Y-130382142D01*
X139532142Y-130446428D01*
X139275000Y-130703571D01*
X139553571Y-130703571D01*
X143567857Y-144503571D02*
X143567857Y-144053571D01*
X143675000Y-144053571D01*
X143739285Y-144075000D01*
X143782142Y-144117857D01*
X143803571Y-144160714D01*
X143825000Y-144246428D01*
X143825000Y-144310714D01*
X143803571Y-144396428D01*
X143782142Y-144439285D01*
X143739285Y-144482142D01*
X143675000Y-144503571D01*
X143567857Y-144503571D01*
X144253571Y-144503571D02*
X143996428Y-144503571D01*
X144125000Y-144503571D02*
X144125000Y-144053571D01*
X144082142Y-144117857D01*
X144039285Y-144160714D01*
X143996428Y-144182142D01*
X150925000Y-122260714D02*
X150903571Y-122282142D01*
X150839285Y-122303571D01*
X150796428Y-122303571D01*
X150732142Y-122282142D01*
X150689285Y-122239285D01*
X150667857Y-122196428D01*
X150646428Y-122110714D01*
X150646428Y-122046428D01*
X150667857Y-121960714D01*
X150689285Y-121917857D01*
X150732142Y-121875000D01*
X150796428Y-121853571D01*
X150839285Y-121853571D01*
X150903571Y-121875000D01*
X150925000Y-121896428D01*
X151075000Y-121853571D02*
X151375000Y-121853571D01*
X151182142Y-122303571D01*
X153025000Y-115660714D02*
X153003571Y-115682142D01*
X152939285Y-115703571D01*
X152896428Y-115703571D01*
X152832142Y-115682142D01*
X152789285Y-115639285D01*
X152767857Y-115596428D01*
X152746428Y-115510714D01*
X152746428Y-115446428D01*
X152767857Y-115360714D01*
X152789285Y-115317857D01*
X152832142Y-115275000D01*
X152896428Y-115253571D01*
X152939285Y-115253571D01*
X153003571Y-115275000D01*
X153025000Y-115296428D01*
X153410714Y-115253571D02*
X153325000Y-115253571D01*
X153282142Y-115275000D01*
X153260714Y-115296428D01*
X153217857Y-115360714D01*
X153196428Y-115446428D01*
X153196428Y-115617857D01*
X153217857Y-115660714D01*
X153239285Y-115682142D01*
X153282142Y-115703571D01*
X153367857Y-115703571D01*
X153410714Y-115682142D01*
X153432142Y-115660714D01*
X153453571Y-115617857D01*
X153453571Y-115510714D01*
X153432142Y-115467857D01*
X153410714Y-115446428D01*
X153367857Y-115425000D01*
X153282142Y-115425000D01*
X153239285Y-115446428D01*
X153217857Y-115467857D01*
X153196428Y-115510714D01*
X138925000Y-124260714D02*
X138903571Y-124282142D01*
X138839285Y-124303571D01*
X138796428Y-124303571D01*
X138732142Y-124282142D01*
X138689285Y-124239285D01*
X138667857Y-124196428D01*
X138646428Y-124110714D01*
X138646428Y-124046428D01*
X138667857Y-123960714D01*
X138689285Y-123917857D01*
X138732142Y-123875000D01*
X138796428Y-123853571D01*
X138839285Y-123853571D01*
X138903571Y-123875000D01*
X138925000Y-123896428D01*
X139332142Y-123853571D02*
X139117857Y-123853571D01*
X139096428Y-124067857D01*
X139117857Y-124046428D01*
X139160714Y-124025000D01*
X139267857Y-124025000D01*
X139310714Y-124046428D01*
X139332142Y-124067857D01*
X139353571Y-124110714D01*
X139353571Y-124217857D01*
X139332142Y-124260714D01*
X139310714Y-124282142D01*
X139267857Y-124303571D01*
X139160714Y-124303571D01*
X139117857Y-124282142D01*
X139096428Y-124260714D01*
X145925000Y-124260714D02*
X145903571Y-124282142D01*
X145839285Y-124303571D01*
X145796428Y-124303571D01*
X145732142Y-124282142D01*
X145689285Y-124239285D01*
X145667857Y-124196428D01*
X145646428Y-124110714D01*
X145646428Y-124046428D01*
X145667857Y-123960714D01*
X145689285Y-123917857D01*
X145732142Y-123875000D01*
X145796428Y-123853571D01*
X145839285Y-123853571D01*
X145903571Y-123875000D01*
X145925000Y-123896428D01*
X146310714Y-124003571D02*
X146310714Y-124303571D01*
X146203571Y-123832142D02*
X146096428Y-124153571D01*
X146375000Y-124153571D01*
X147875000Y-134860714D02*
X147853571Y-134882142D01*
X147789285Y-134903571D01*
X147746428Y-134903571D01*
X147682142Y-134882142D01*
X147639285Y-134839285D01*
X147617857Y-134796428D01*
X147596428Y-134710714D01*
X147596428Y-134646428D01*
X147617857Y-134560714D01*
X147639285Y-134517857D01*
X147682142Y-134475000D01*
X147746428Y-134453571D01*
X147789285Y-134453571D01*
X147853571Y-134475000D01*
X147875000Y-134496428D01*
X148025000Y-134453571D02*
X148303571Y-134453571D01*
X148153571Y-134625000D01*
X148217857Y-134625000D01*
X148260714Y-134646428D01*
X148282142Y-134667857D01*
X148303571Y-134710714D01*
X148303571Y-134817857D01*
X148282142Y-134860714D01*
X148260714Y-134882142D01*
X148217857Y-134903571D01*
X148089285Y-134903571D01*
X148046428Y-134882142D01*
X148025000Y-134860714D01*
X144705000Y-134860714D02*
X144683571Y-134882142D01*
X144619285Y-134903571D01*
X144576428Y-134903571D01*
X144512142Y-134882142D01*
X144469285Y-134839285D01*
X144447857Y-134796428D01*
X144426428Y-134710714D01*
X144426428Y-134646428D01*
X144447857Y-134560714D01*
X144469285Y-134517857D01*
X144512142Y-134475000D01*
X144576428Y-134453571D01*
X144619285Y-134453571D01*
X144683571Y-134475000D01*
X144705000Y-134496428D01*
X144876428Y-134496428D02*
X144897857Y-134475000D01*
X144940714Y-134453571D01*
X145047857Y-134453571D01*
X145090714Y-134475000D01*
X145112142Y-134496428D01*
X145133571Y-134539285D01*
X145133571Y-134582142D01*
X145112142Y-134646428D01*
X144855000Y-134903571D01*
X145133571Y-134903571D01*
X151525000Y-142660714D02*
X151503571Y-142682142D01*
X151439285Y-142703571D01*
X151396428Y-142703571D01*
X151332142Y-142682142D01*
X151289285Y-142639285D01*
X151267857Y-142596428D01*
X151246428Y-142510714D01*
X151246428Y-142446428D01*
X151267857Y-142360714D01*
X151289285Y-142317857D01*
X151332142Y-142275000D01*
X151396428Y-142253571D01*
X151439285Y-142253571D01*
X151503571Y-142275000D01*
X151525000Y-142296428D01*
X151953571Y-142703571D02*
X151696428Y-142703571D01*
X151825000Y-142703571D02*
X151825000Y-142253571D01*
X151782142Y-142317857D01*
X151739285Y-142360714D01*
X151696428Y-142382142D01*
X122325000Y-136803571D02*
X122175000Y-136589285D01*
X122067857Y-136803571D02*
X122067857Y-136353571D01*
X122239285Y-136353571D01*
X122282142Y-136375000D01*
X122303571Y-136396428D01*
X122325000Y-136439285D01*
X122325000Y-136503571D01*
X122303571Y-136546428D01*
X122282142Y-136567857D01*
X122239285Y-136589285D01*
X122067857Y-136589285D01*
X122710714Y-136503571D02*
X122710714Y-136803571D01*
X122603571Y-136332142D02*
X122496428Y-136653571D01*
X122775000Y-136653571D01*
X122325000Y-143603571D02*
X122175000Y-143389285D01*
X122067857Y-143603571D02*
X122067857Y-143153571D01*
X122239285Y-143153571D01*
X122282142Y-143175000D01*
X122303571Y-143196428D01*
X122325000Y-143239285D01*
X122325000Y-143303571D01*
X122303571Y-143346428D01*
X122282142Y-143367857D01*
X122239285Y-143389285D01*
X122067857Y-143389285D01*
X122475000Y-143153571D02*
X122753571Y-143153571D01*
X122603571Y-143325000D01*
X122667857Y-143325000D01*
X122710714Y-143346428D01*
X122732142Y-143367857D01*
X122753571Y-143410714D01*
X122753571Y-143517857D01*
X122732142Y-143560714D01*
X122710714Y-143582142D01*
X122667857Y-143603571D01*
X122539285Y-143603571D01*
X122496428Y-143582142D01*
X122475000Y-143560714D01*
X163325000Y-141703571D02*
X163175000Y-141489285D01*
X163067857Y-141703571D02*
X163067857Y-141253571D01*
X163239285Y-141253571D01*
X163282142Y-141275000D01*
X163303571Y-141296428D01*
X163325000Y-141339285D01*
X163325000Y-141403571D01*
X163303571Y-141446428D01*
X163282142Y-141467857D01*
X163239285Y-141489285D01*
X163067857Y-141489285D01*
X163496428Y-141296428D02*
X163517857Y-141275000D01*
X163560714Y-141253571D01*
X163667857Y-141253571D01*
X163710714Y-141275000D01*
X163732142Y-141296428D01*
X163753571Y-141339285D01*
X163753571Y-141382142D01*
X163732142Y-141446428D01*
X163475000Y-141703571D01*
X163753571Y-141703571D01*
X163325000Y-143103571D02*
X163175000Y-142889285D01*
X163067857Y-143103571D02*
X163067857Y-142653571D01*
X163239285Y-142653571D01*
X163282142Y-142675000D01*
X163303571Y-142696428D01*
X163325000Y-142739285D01*
X163325000Y-142803571D01*
X163303571Y-142846428D01*
X163282142Y-142867857D01*
X163239285Y-142889285D01*
X163067857Y-142889285D01*
X163753571Y-143103571D02*
X163496428Y-143103571D01*
X163625000Y-143103571D02*
X163625000Y-142653571D01*
X163582142Y-142717857D01*
X163539285Y-142760714D01*
X163496428Y-142782142D01*
M02*
