G04 #@! TF.GenerationSoftware,KiCad,Pcbnew,5.1.2*
G04 #@! TF.CreationDate,2019-07-22T02:15:18+02:00*
G04 #@! TF.ProjectId,OtterScreen,4f747465-7253-4637-9265-656e2e6b6963,rev?*
G04 #@! TF.SameCoordinates,Original*
G04 #@! TF.FileFunction,Soldermask,Top*
G04 #@! TF.FilePolarity,Negative*
%FSLAX46Y46*%
G04 Gerber Fmt 4.6, Leading zero omitted, Abs format (unit mm)*
G04 Created by KiCad (PCBNEW 5.1.2) date 2019-07-22 02:15:18*
%MOMM*%
%LPD*%
G04 APERTURE LIST*
%ADD10C,0.150000*%
%ADD11C,0.100000*%
G04 APERTURE END LIST*
D10*
X164099999Y-114200001D02*
G75*
G02X165800000Y-115900000I1J-1700000D01*
G01*
X121000001Y-115900001D02*
G75*
G02X122700000Y-114200000I1700000J1D01*
G01*
X122700001Y-145599999D02*
G75*
G02X121000000Y-143900000I-1J1700000D01*
G01*
X165800000Y-143900000D02*
G75*
G02X164100000Y-145600000I-1700000J0D01*
G01*
X164100000Y-145600000D02*
X136200000Y-145600000D01*
X165800000Y-115900000D02*
X165800000Y-143900000D01*
X122700000Y-114200000D02*
X164099999Y-114200001D01*
X121000000Y-143900000D02*
X121000001Y-115900001D01*
X136200000Y-145600000D02*
X122700001Y-145599999D01*
D11*
G36*
X124178014Y-142706973D02*
G01*
X124281878Y-142738479D01*
X124311778Y-142754461D01*
X124377599Y-142789643D01*
X124377601Y-142789644D01*
X124377600Y-142789644D01*
X124461501Y-142858499D01*
X124519887Y-142929643D01*
X124530357Y-142942401D01*
X124557987Y-142994093D01*
X124581521Y-143038121D01*
X124613027Y-143141985D01*
X124621000Y-143222933D01*
X124621000Y-144077067D01*
X124613027Y-144158015D01*
X124581521Y-144261879D01*
X124581519Y-144261882D01*
X124530357Y-144357600D01*
X124461501Y-144441501D01*
X124377600Y-144510357D01*
X124309055Y-144546995D01*
X124281879Y-144561521D01*
X124178015Y-144593027D01*
X124070000Y-144603666D01*
X123961986Y-144593027D01*
X123858122Y-144561521D01*
X123830946Y-144546995D01*
X123762401Y-144510357D01*
X123678500Y-144441501D01*
X123609644Y-144357600D01*
X123573424Y-144289837D01*
X123558480Y-144261879D01*
X123526973Y-144158015D01*
X123519000Y-144077067D01*
X123519000Y-143222934D01*
X123526973Y-143141986D01*
X123558479Y-143038122D01*
X123609644Y-142942400D01*
X123678499Y-142858499D01*
X123762400Y-142789644D01*
X123762399Y-142789644D01*
X123762401Y-142789643D01*
X123814093Y-142762013D01*
X123858121Y-142738479D01*
X123961985Y-142706973D01*
X124070000Y-142696334D01*
X124178014Y-142706973D01*
X124178014Y-142706973D01*
G37*
G36*
X132638014Y-142706973D02*
G01*
X132741878Y-142738479D01*
X132771778Y-142754461D01*
X132837599Y-142789643D01*
X132837601Y-142789644D01*
X132837600Y-142789644D01*
X132921501Y-142858499D01*
X132979887Y-142929643D01*
X132990357Y-142942401D01*
X133017987Y-142994093D01*
X133041521Y-143038121D01*
X133073027Y-143141985D01*
X133081000Y-143222933D01*
X133081000Y-144077067D01*
X133073027Y-144158015D01*
X133041521Y-144261879D01*
X133041519Y-144261882D01*
X132990357Y-144357600D01*
X132921501Y-144441501D01*
X132837600Y-144510357D01*
X132769055Y-144546995D01*
X132741879Y-144561521D01*
X132638015Y-144593027D01*
X132530000Y-144603666D01*
X132421986Y-144593027D01*
X132318122Y-144561521D01*
X132290946Y-144546995D01*
X132222401Y-144510357D01*
X132138500Y-144441501D01*
X132069644Y-144357600D01*
X132033424Y-144289837D01*
X132018480Y-144261879D01*
X131986973Y-144158015D01*
X131979000Y-144077067D01*
X131979000Y-143222934D01*
X131986973Y-143141986D01*
X132018479Y-143038122D01*
X132069644Y-142942400D01*
X132138499Y-142858499D01*
X132222400Y-142789644D01*
X132222399Y-142789644D01*
X132222401Y-142789643D01*
X132274093Y-142762013D01*
X132318121Y-142738479D01*
X132421985Y-142706973D01*
X132530000Y-142696334D01*
X132638014Y-142706973D01*
X132638014Y-142706973D01*
G37*
G36*
X134909591Y-143283086D02*
G01*
X134943569Y-143293394D01*
X134974890Y-143310135D01*
X135002339Y-143332662D01*
X135024866Y-143360111D01*
X135041607Y-143391432D01*
X135051915Y-143425410D01*
X135056000Y-143466891D01*
X135056000Y-144143111D01*
X135051915Y-144184592D01*
X135041607Y-144218570D01*
X135024866Y-144249891D01*
X135002339Y-144277340D01*
X134974890Y-144299867D01*
X134943569Y-144316608D01*
X134909591Y-144326916D01*
X134868110Y-144331001D01*
X134266890Y-144331001D01*
X134225409Y-144326916D01*
X134191431Y-144316608D01*
X134160110Y-144299867D01*
X134132661Y-144277340D01*
X134110134Y-144249891D01*
X134093393Y-144218570D01*
X134083085Y-144184592D01*
X134079000Y-144143111D01*
X134079000Y-143466891D01*
X134083085Y-143425410D01*
X134093393Y-143391432D01*
X134110134Y-143360111D01*
X134132661Y-143332662D01*
X134160110Y-143310135D01*
X134191431Y-143293394D01*
X134225409Y-143283086D01*
X134266890Y-143279001D01*
X134868110Y-143279001D01*
X134909591Y-143283086D01*
X134909591Y-143283086D01*
G37*
G36*
X136484591Y-143283086D02*
G01*
X136518569Y-143293394D01*
X136549890Y-143310135D01*
X136577339Y-143332662D01*
X136599866Y-143360111D01*
X136616607Y-143391432D01*
X136626915Y-143425410D01*
X136631000Y-143466891D01*
X136631000Y-144143111D01*
X136626915Y-144184592D01*
X136616607Y-144218570D01*
X136599866Y-144249891D01*
X136577339Y-144277340D01*
X136549890Y-144299867D01*
X136518569Y-144316608D01*
X136484591Y-144326916D01*
X136443110Y-144331001D01*
X135841890Y-144331001D01*
X135800409Y-144326916D01*
X135766431Y-144316608D01*
X135735110Y-144299867D01*
X135707661Y-144277340D01*
X135685134Y-144249891D01*
X135668393Y-144218570D01*
X135658085Y-144184592D01*
X135654000Y-144143111D01*
X135654000Y-143466891D01*
X135658085Y-143425410D01*
X135668393Y-143391432D01*
X135685134Y-143360111D01*
X135707661Y-143332662D01*
X135735110Y-143310135D01*
X135766431Y-143293394D01*
X135800409Y-143283086D01*
X135841890Y-143279001D01*
X136443110Y-143279001D01*
X136484591Y-143283086D01*
X136484591Y-143283086D01*
G37*
G36*
X148369059Y-141497860D02*
G01*
X148505732Y-141554472D01*
X148628735Y-141636660D01*
X148733340Y-141741265D01*
X148815528Y-141864268D01*
X148815529Y-141864270D01*
X148872140Y-142000941D01*
X148881425Y-142047618D01*
X148901000Y-142146033D01*
X148901000Y-142293967D01*
X148872140Y-142439059D01*
X148815528Y-142575732D01*
X148733340Y-142698735D01*
X148628735Y-142803340D01*
X148505732Y-142885528D01*
X148505731Y-142885529D01*
X148505730Y-142885529D01*
X148369059Y-142942140D01*
X148223968Y-142971000D01*
X148076032Y-142971000D01*
X147930941Y-142942140D01*
X147794270Y-142885529D01*
X147794269Y-142885529D01*
X147794268Y-142885528D01*
X147671265Y-142803340D01*
X147566660Y-142698735D01*
X147484472Y-142575732D01*
X147427860Y-142439059D01*
X147399000Y-142293967D01*
X147399000Y-142146033D01*
X147418576Y-142047618D01*
X147427860Y-142000941D01*
X147484471Y-141864270D01*
X147484472Y-141864268D01*
X147566660Y-141741265D01*
X147671265Y-141636660D01*
X147794268Y-141554472D01*
X147930941Y-141497860D01*
X148076032Y-141469000D01*
X148223968Y-141469000D01*
X148369059Y-141497860D01*
X148369059Y-141497860D01*
G37*
G36*
X136484592Y-141778085D02*
G01*
X136518570Y-141788393D01*
X136549891Y-141805134D01*
X136577340Y-141827661D01*
X136599867Y-141855110D01*
X136616608Y-141886431D01*
X136626916Y-141920409D01*
X136631001Y-141961890D01*
X136631001Y-142638110D01*
X136626916Y-142679591D01*
X136616608Y-142713569D01*
X136599867Y-142744890D01*
X136577340Y-142772339D01*
X136549891Y-142794866D01*
X136518570Y-142811607D01*
X136484592Y-142821915D01*
X136443111Y-142826000D01*
X135841891Y-142826000D01*
X135800410Y-142821915D01*
X135766432Y-142811607D01*
X135735111Y-142794866D01*
X135707662Y-142772339D01*
X135685135Y-142744890D01*
X135668394Y-142713569D01*
X135658086Y-142679591D01*
X135654001Y-142638110D01*
X135654001Y-141961890D01*
X135658086Y-141920409D01*
X135668394Y-141886431D01*
X135685135Y-141855110D01*
X135707662Y-141827661D01*
X135735111Y-141805134D01*
X135766432Y-141788393D01*
X135800410Y-141778085D01*
X135841891Y-141774000D01*
X136443111Y-141774000D01*
X136484592Y-141778085D01*
X136484592Y-141778085D01*
G37*
G36*
X134909592Y-141778085D02*
G01*
X134943570Y-141788393D01*
X134974891Y-141805134D01*
X135002340Y-141827661D01*
X135024867Y-141855110D01*
X135041608Y-141886431D01*
X135051916Y-141920409D01*
X135056001Y-141961890D01*
X135056001Y-142638110D01*
X135051916Y-142679591D01*
X135041608Y-142713569D01*
X135024867Y-142744890D01*
X135002340Y-142772339D01*
X134974891Y-142794866D01*
X134943570Y-142811607D01*
X134909592Y-142821915D01*
X134868111Y-142826000D01*
X134266891Y-142826000D01*
X134225410Y-142821915D01*
X134191432Y-142811607D01*
X134160111Y-142794866D01*
X134132662Y-142772339D01*
X134110135Y-142744890D01*
X134093394Y-142713569D01*
X134083086Y-142679591D01*
X134079001Y-142638110D01*
X134079001Y-141961890D01*
X134083086Y-141920409D01*
X134093394Y-141886431D01*
X134110135Y-141855110D01*
X134132662Y-141827661D01*
X134160111Y-141805134D01*
X134191432Y-141788393D01*
X134225410Y-141778085D01*
X134266891Y-141774000D01*
X134868111Y-141774000D01*
X134909592Y-141778085D01*
X134909592Y-141778085D01*
G37*
G36*
X140027617Y-140078420D02*
G01*
X140115681Y-140105134D01*
X140150335Y-140115646D01*
X140263424Y-140176094D01*
X140362554Y-140257447D01*
X140443906Y-140356575D01*
X140504354Y-140469664D01*
X140514040Y-140501596D01*
X140541580Y-140592382D01*
X140551000Y-140688027D01*
X140551000Y-141951973D01*
X140541580Y-142047618D01*
X140514040Y-142138404D01*
X140504354Y-142170336D01*
X140443906Y-142283425D01*
X140362554Y-142382554D01*
X140263425Y-142463906D01*
X140150336Y-142524354D01*
X140118404Y-142534040D01*
X140027618Y-142561580D01*
X139900000Y-142574149D01*
X139772383Y-142561580D01*
X139681597Y-142534040D01*
X139649665Y-142524354D01*
X139536576Y-142463906D01*
X139437447Y-142382554D01*
X139356095Y-142283425D01*
X139295647Y-142170336D01*
X139285961Y-142138404D01*
X139258421Y-142047618D01*
X139249001Y-141951973D01*
X139249000Y-140688028D01*
X139258420Y-140592383D01*
X139295645Y-140469669D01*
X139295646Y-140469665D01*
X139356094Y-140356576D01*
X139437447Y-140257446D01*
X139536575Y-140176094D01*
X139649664Y-140115646D01*
X139684318Y-140105134D01*
X139772382Y-140078420D01*
X139900000Y-140065851D01*
X140027617Y-140078420D01*
X140027617Y-140078420D01*
G37*
G36*
X156527617Y-140078420D02*
G01*
X156615681Y-140105134D01*
X156650335Y-140115646D01*
X156763424Y-140176094D01*
X156862554Y-140257447D01*
X156943906Y-140356575D01*
X157004354Y-140469664D01*
X157014040Y-140501596D01*
X157041580Y-140592382D01*
X157051000Y-140688027D01*
X157051000Y-141951973D01*
X157041580Y-142047618D01*
X157014040Y-142138404D01*
X157004354Y-142170336D01*
X156943906Y-142283425D01*
X156862554Y-142382554D01*
X156763425Y-142463906D01*
X156650336Y-142524354D01*
X156618404Y-142534040D01*
X156527618Y-142561580D01*
X156400000Y-142574149D01*
X156272383Y-142561580D01*
X156181597Y-142534040D01*
X156149665Y-142524354D01*
X156036576Y-142463906D01*
X155937447Y-142382554D01*
X155856095Y-142283425D01*
X155795647Y-142170336D01*
X155785961Y-142138404D01*
X155758421Y-142047618D01*
X155749001Y-141951973D01*
X155749000Y-140688028D01*
X155758420Y-140592383D01*
X155795645Y-140469669D01*
X155795646Y-140469665D01*
X155856094Y-140356576D01*
X155937447Y-140257446D01*
X156036575Y-140176094D01*
X156149664Y-140115646D01*
X156184318Y-140105134D01*
X156272382Y-140078420D01*
X156400000Y-140065851D01*
X156527617Y-140078420D01*
X156527617Y-140078420D01*
G37*
G36*
X138074590Y-140078085D02*
G01*
X138108568Y-140088393D01*
X138139889Y-140105134D01*
X138167338Y-140127661D01*
X138189865Y-140155110D01*
X138206606Y-140186431D01*
X138216914Y-140220409D01*
X138220999Y-140261890D01*
X138220999Y-140938110D01*
X138216914Y-140979591D01*
X138206606Y-141013569D01*
X138189865Y-141044890D01*
X138167338Y-141072339D01*
X138139889Y-141094866D01*
X138108568Y-141111607D01*
X138074590Y-141121915D01*
X138033109Y-141126000D01*
X137431889Y-141126000D01*
X137390408Y-141121915D01*
X137356430Y-141111607D01*
X137325109Y-141094866D01*
X137297660Y-141072339D01*
X137275133Y-141044890D01*
X137258392Y-141013569D01*
X137248084Y-140979591D01*
X137243999Y-140938110D01*
X137243999Y-140261890D01*
X137248084Y-140220409D01*
X137258392Y-140186431D01*
X137275133Y-140155110D01*
X137297660Y-140127661D01*
X137325109Y-140105134D01*
X137356430Y-140088393D01*
X137390408Y-140078085D01*
X137431889Y-140074000D01*
X138033109Y-140074000D01*
X138074590Y-140078085D01*
X138074590Y-140078085D01*
G37*
G36*
X136499590Y-140078085D02*
G01*
X136533568Y-140088393D01*
X136564889Y-140105134D01*
X136592338Y-140127661D01*
X136614865Y-140155110D01*
X136631606Y-140186431D01*
X136641914Y-140220409D01*
X136645999Y-140261890D01*
X136645999Y-140938110D01*
X136641914Y-140979591D01*
X136631606Y-141013569D01*
X136614865Y-141044890D01*
X136592338Y-141072339D01*
X136564889Y-141094866D01*
X136533568Y-141111607D01*
X136499590Y-141121915D01*
X136458109Y-141126000D01*
X135856889Y-141126000D01*
X135815408Y-141121915D01*
X135781430Y-141111607D01*
X135750109Y-141094866D01*
X135722660Y-141072339D01*
X135700133Y-141044890D01*
X135683392Y-141013569D01*
X135673084Y-140979591D01*
X135668999Y-140938110D01*
X135668999Y-140261890D01*
X135673084Y-140220409D01*
X135683392Y-140186431D01*
X135700133Y-140155110D01*
X135722660Y-140127661D01*
X135750109Y-140105134D01*
X135781430Y-140088393D01*
X135815408Y-140078085D01*
X135856889Y-140074000D01*
X136458109Y-140074000D01*
X136499590Y-140078085D01*
X136499590Y-140078085D01*
G37*
G36*
X124178014Y-138906973D02*
G01*
X124281878Y-138938479D01*
X124325907Y-138962013D01*
X124377599Y-138989643D01*
X124377601Y-138989644D01*
X124377600Y-138989644D01*
X124461501Y-139058499D01*
X124530356Y-139142400D01*
X124581521Y-139238121D01*
X124613027Y-139341985D01*
X124621000Y-139422933D01*
X124621000Y-140277067D01*
X124613027Y-140358015D01*
X124581521Y-140461879D01*
X124577357Y-140469669D01*
X124530357Y-140557600D01*
X124461501Y-140641501D01*
X124377600Y-140710357D01*
X124309055Y-140746995D01*
X124281879Y-140761521D01*
X124178015Y-140793027D01*
X124070000Y-140803666D01*
X123961986Y-140793027D01*
X123858122Y-140761521D01*
X123830946Y-140746995D01*
X123762401Y-140710357D01*
X123678500Y-140641501D01*
X123609644Y-140557600D01*
X123562644Y-140469669D01*
X123558480Y-140461879D01*
X123526973Y-140358015D01*
X123519000Y-140277067D01*
X123519000Y-139422934D01*
X123526973Y-139341986D01*
X123558479Y-139238122D01*
X123609644Y-139142400D01*
X123678499Y-139058499D01*
X123762400Y-138989644D01*
X123762399Y-138989644D01*
X123762401Y-138989643D01*
X123814093Y-138962013D01*
X123858121Y-138938479D01*
X123961985Y-138906973D01*
X124070000Y-138896334D01*
X124178014Y-138906973D01*
X124178014Y-138906973D01*
G37*
G36*
X132638014Y-138906973D02*
G01*
X132741878Y-138938479D01*
X132785907Y-138962013D01*
X132837599Y-138989643D01*
X132837601Y-138989644D01*
X132837600Y-138989644D01*
X132921501Y-139058499D01*
X132990356Y-139142400D01*
X133041521Y-139238121D01*
X133073027Y-139341985D01*
X133081000Y-139422933D01*
X133081000Y-140277067D01*
X133073027Y-140358015D01*
X133041521Y-140461879D01*
X133037357Y-140469669D01*
X132990357Y-140557600D01*
X132921501Y-140641501D01*
X132837600Y-140710357D01*
X132769055Y-140746995D01*
X132741879Y-140761521D01*
X132638015Y-140793027D01*
X132530000Y-140803666D01*
X132421986Y-140793027D01*
X132318122Y-140761521D01*
X132290946Y-140746995D01*
X132222401Y-140710357D01*
X132138500Y-140641501D01*
X132069644Y-140557600D01*
X132022644Y-140469669D01*
X132018480Y-140461879D01*
X131986973Y-140358015D01*
X131979000Y-140277067D01*
X131979000Y-139422934D01*
X131986973Y-139341986D01*
X132018479Y-139238122D01*
X132069644Y-139142400D01*
X132138499Y-139058499D01*
X132222400Y-138989644D01*
X132222399Y-138989644D01*
X132222401Y-138989643D01*
X132274093Y-138962013D01*
X132318121Y-138938479D01*
X132421985Y-138906973D01*
X132530000Y-138896334D01*
X132638014Y-138906973D01*
X132638014Y-138906973D01*
G37*
G36*
X130201000Y-140401000D02*
G01*
X126399000Y-140401000D01*
X126399000Y-139299000D01*
X130201000Y-139299000D01*
X130201000Y-140401000D01*
X130201000Y-140401000D01*
G37*
G36*
X131451000Y-140401000D02*
G01*
X130549000Y-140401000D01*
X130549000Y-139299000D01*
X131451000Y-139299000D01*
X131451000Y-140401000D01*
X131451000Y-140401000D01*
G37*
G36*
X126051000Y-140401000D02*
G01*
X125149000Y-140401000D01*
X125149000Y-139299000D01*
X126051000Y-139299000D01*
X126051000Y-140401000D01*
X126051000Y-140401000D01*
G37*
G36*
X138179591Y-138515585D02*
G01*
X138213569Y-138525893D01*
X138244890Y-138542634D01*
X138272339Y-138565161D01*
X138294866Y-138592610D01*
X138311607Y-138623931D01*
X138321915Y-138657909D01*
X138326000Y-138699390D01*
X138326000Y-139300610D01*
X138321915Y-139342091D01*
X138311607Y-139376069D01*
X138294866Y-139407390D01*
X138272339Y-139434839D01*
X138244890Y-139457366D01*
X138213569Y-139474107D01*
X138179591Y-139484415D01*
X138138110Y-139488500D01*
X137461890Y-139488500D01*
X137420409Y-139484415D01*
X137386431Y-139474107D01*
X137355110Y-139457366D01*
X137327661Y-139434839D01*
X137305134Y-139407390D01*
X137288393Y-139376069D01*
X137278085Y-139342091D01*
X137274000Y-139300610D01*
X137274000Y-138699390D01*
X137278085Y-138657909D01*
X137288393Y-138623931D01*
X137305134Y-138592610D01*
X137327661Y-138565161D01*
X137355110Y-138542634D01*
X137386431Y-138525893D01*
X137420409Y-138515585D01*
X137461890Y-138511500D01*
X138138110Y-138511500D01*
X138179591Y-138515585D01*
X138179591Y-138515585D01*
G37*
G36*
X134767091Y-137878085D02*
G01*
X134801069Y-137888393D01*
X134832390Y-137905134D01*
X134859839Y-137927661D01*
X134882366Y-137955110D01*
X134899107Y-137986431D01*
X134909415Y-138020409D01*
X134913500Y-138061890D01*
X134913500Y-138738110D01*
X134909415Y-138779591D01*
X134899107Y-138813569D01*
X134882366Y-138844890D01*
X134859839Y-138872339D01*
X134832390Y-138894866D01*
X134801069Y-138911607D01*
X134767091Y-138921915D01*
X134725610Y-138926000D01*
X134124390Y-138926000D01*
X134082909Y-138921915D01*
X134048931Y-138911607D01*
X134017610Y-138894866D01*
X133990161Y-138872339D01*
X133967634Y-138844890D01*
X133950893Y-138813569D01*
X133940585Y-138779591D01*
X133936500Y-138738110D01*
X133936500Y-138061890D01*
X133940585Y-138020409D01*
X133950893Y-137986431D01*
X133967634Y-137955110D01*
X133990161Y-137927661D01*
X134017610Y-137905134D01*
X134048931Y-137888393D01*
X134082909Y-137878085D01*
X134124390Y-137874000D01*
X134725610Y-137874000D01*
X134767091Y-137878085D01*
X134767091Y-137878085D01*
G37*
G36*
X136342091Y-137878085D02*
G01*
X136376069Y-137888393D01*
X136407390Y-137905134D01*
X136434839Y-137927661D01*
X136457366Y-137955110D01*
X136474107Y-137986431D01*
X136484415Y-138020409D01*
X136488500Y-138061890D01*
X136488500Y-138738110D01*
X136484415Y-138779591D01*
X136474107Y-138813569D01*
X136457366Y-138844890D01*
X136434839Y-138872339D01*
X136407390Y-138894866D01*
X136376069Y-138911607D01*
X136342091Y-138921915D01*
X136300610Y-138926000D01*
X135699390Y-138926000D01*
X135657909Y-138921915D01*
X135623931Y-138911607D01*
X135592610Y-138894866D01*
X135565161Y-138872339D01*
X135542634Y-138844890D01*
X135525893Y-138813569D01*
X135515585Y-138779591D01*
X135511500Y-138738110D01*
X135511500Y-138061890D01*
X135515585Y-138020409D01*
X135525893Y-137986431D01*
X135542634Y-137955110D01*
X135565161Y-137927661D01*
X135592610Y-137905134D01*
X135623931Y-137888393D01*
X135657909Y-137878085D01*
X135699390Y-137874000D01*
X136300610Y-137874000D01*
X136342091Y-137878085D01*
X136342091Y-137878085D01*
G37*
G36*
X138179591Y-136940585D02*
G01*
X138213569Y-136950893D01*
X138244890Y-136967634D01*
X138272339Y-136990161D01*
X138294866Y-137017610D01*
X138311607Y-137048931D01*
X138321915Y-137082909D01*
X138326000Y-137124390D01*
X138326000Y-137725610D01*
X138321915Y-137767091D01*
X138311607Y-137801069D01*
X138294866Y-137832390D01*
X138272339Y-137859839D01*
X138244890Y-137882366D01*
X138213569Y-137899107D01*
X138179591Y-137909415D01*
X138138110Y-137913500D01*
X137461890Y-137913500D01*
X137420409Y-137909415D01*
X137386431Y-137899107D01*
X137355110Y-137882366D01*
X137327661Y-137859839D01*
X137305134Y-137832390D01*
X137288393Y-137801069D01*
X137278085Y-137767091D01*
X137274000Y-137725610D01*
X137274000Y-137124390D01*
X137278085Y-137082909D01*
X137288393Y-137048931D01*
X137305134Y-137017610D01*
X137327661Y-136990161D01*
X137355110Y-136967634D01*
X137386431Y-136950893D01*
X137420409Y-136940585D01*
X137461890Y-136936500D01*
X138138110Y-136936500D01*
X138179591Y-136940585D01*
X138179591Y-136940585D01*
G37*
G36*
X128726000Y-136456000D02*
G01*
X126874000Y-136456000D01*
X126874000Y-135804000D01*
X128726000Y-135804000D01*
X128726000Y-136456000D01*
X128726000Y-136456000D01*
G37*
G36*
X136126000Y-136456000D02*
G01*
X134274000Y-136456000D01*
X134274000Y-135804000D01*
X136126000Y-135804000D01*
X136126000Y-136456000D01*
X136126000Y-136456000D01*
G37*
G36*
X125851001Y-136176000D02*
G01*
X124649001Y-136176000D01*
X124649001Y-134974000D01*
X125851001Y-134974000D01*
X125851001Y-136176000D01*
X125851001Y-136176000D01*
G37*
G36*
X156547221Y-133099867D02*
G01*
X156688785Y-133142810D01*
X156819251Y-133212546D01*
X156826201Y-133218250D01*
X156933607Y-133306394D01*
X156990730Y-133376000D01*
X157027454Y-133420748D01*
X157097190Y-133551214D01*
X157140133Y-133692778D01*
X157151000Y-133803113D01*
X157151000Y-135276887D01*
X157140133Y-135387222D01*
X157097190Y-135528786D01*
X157027454Y-135659252D01*
X157003008Y-135689040D01*
X156933607Y-135773607D01*
X156849040Y-135843008D01*
X156819252Y-135867454D01*
X156688786Y-135937190D01*
X156547222Y-135980133D01*
X156400000Y-135994633D01*
X156252779Y-135980133D01*
X156111215Y-135937190D01*
X155980749Y-135867454D01*
X155950961Y-135843008D01*
X155866394Y-135773607D01*
X155796993Y-135689040D01*
X155772547Y-135659252D01*
X155702811Y-135528786D01*
X155659868Y-135387222D01*
X155649001Y-135276887D01*
X155649000Y-133803114D01*
X155659867Y-133692779D01*
X155702810Y-133551215D01*
X155772546Y-133420749D01*
X155813714Y-133370585D01*
X155866394Y-133306393D01*
X155973798Y-133218250D01*
X155980748Y-133212546D01*
X156111214Y-133142810D01*
X156252778Y-133099867D01*
X156400000Y-133085367D01*
X156547221Y-133099867D01*
X156547221Y-133099867D01*
G37*
G36*
X140047221Y-133099867D02*
G01*
X140188785Y-133142810D01*
X140319251Y-133212546D01*
X140326201Y-133218250D01*
X140433607Y-133306394D01*
X140490730Y-133376000D01*
X140527454Y-133420748D01*
X140597190Y-133551214D01*
X140640133Y-133692778D01*
X140651000Y-133803113D01*
X140651000Y-135276887D01*
X140640133Y-135387222D01*
X140597190Y-135528786D01*
X140527454Y-135659252D01*
X140503008Y-135689040D01*
X140433607Y-135773607D01*
X140349040Y-135843008D01*
X140319252Y-135867454D01*
X140188786Y-135937190D01*
X140047222Y-135980133D01*
X139900000Y-135994633D01*
X139752779Y-135980133D01*
X139611215Y-135937190D01*
X139480749Y-135867454D01*
X139450961Y-135843008D01*
X139366394Y-135773607D01*
X139296993Y-135689040D01*
X139272547Y-135659252D01*
X139202811Y-135528786D01*
X139159868Y-135387222D01*
X139149001Y-135276887D01*
X139149000Y-133803114D01*
X139159867Y-133692779D01*
X139202810Y-133551215D01*
X139272546Y-133420749D01*
X139313714Y-133370585D01*
X139366394Y-133306393D01*
X139473798Y-133218250D01*
X139480748Y-133212546D01*
X139611214Y-133142810D01*
X139752778Y-133099867D01*
X139900000Y-133085367D01*
X140047221Y-133099867D01*
X140047221Y-133099867D01*
G37*
G36*
X137654591Y-134553085D02*
G01*
X137688569Y-134563393D01*
X137719890Y-134580134D01*
X137747339Y-134602661D01*
X137769866Y-134630110D01*
X137786607Y-134661431D01*
X137796915Y-134695409D01*
X137801000Y-134736890D01*
X137801000Y-135338110D01*
X137796915Y-135379591D01*
X137786607Y-135413569D01*
X137769866Y-135444890D01*
X137747339Y-135472339D01*
X137719890Y-135494866D01*
X137688569Y-135511607D01*
X137654591Y-135521915D01*
X137613110Y-135526000D01*
X136936890Y-135526000D01*
X136895409Y-135521915D01*
X136861431Y-135511607D01*
X136830110Y-135494866D01*
X136802661Y-135472339D01*
X136780134Y-135444890D01*
X136763393Y-135413569D01*
X136753085Y-135379591D01*
X136749000Y-135338110D01*
X136749000Y-134736890D01*
X136753085Y-134695409D01*
X136763393Y-134661431D01*
X136780134Y-134630110D01*
X136802661Y-134602661D01*
X136830110Y-134580134D01*
X136861431Y-134563393D01*
X136895409Y-134553085D01*
X136936890Y-134549000D01*
X137613110Y-134549000D01*
X137654591Y-134553085D01*
X137654591Y-134553085D01*
G37*
G36*
X136126000Y-135186000D02*
G01*
X134274000Y-135186000D01*
X134274000Y-134534000D01*
X136126000Y-134534000D01*
X136126000Y-135186000D01*
X136126000Y-135186000D01*
G37*
G36*
X128726000Y-135186000D02*
G01*
X126874000Y-135186000D01*
X126874000Y-134534000D01*
X128726000Y-134534000D01*
X128726000Y-135186000D01*
X128726000Y-135186000D01*
G37*
G36*
X137654591Y-132978085D02*
G01*
X137688569Y-132988393D01*
X137719890Y-133005134D01*
X137747339Y-133027661D01*
X137769866Y-133055110D01*
X137786607Y-133086431D01*
X137796915Y-133120409D01*
X137801000Y-133161890D01*
X137801000Y-133763110D01*
X137796915Y-133804591D01*
X137786607Y-133838569D01*
X137769866Y-133869890D01*
X137747339Y-133897339D01*
X137719890Y-133919866D01*
X137688569Y-133936607D01*
X137654591Y-133946915D01*
X137613110Y-133951000D01*
X136936890Y-133951000D01*
X136895409Y-133946915D01*
X136861431Y-133936607D01*
X136830110Y-133919866D01*
X136802661Y-133897339D01*
X136780134Y-133869890D01*
X136763393Y-133838569D01*
X136753085Y-133804591D01*
X136749000Y-133763110D01*
X136749000Y-133161890D01*
X136753085Y-133120409D01*
X136763393Y-133086431D01*
X136780134Y-133055110D01*
X136802661Y-133027661D01*
X136830110Y-133005134D01*
X136861431Y-132988393D01*
X136895409Y-132978085D01*
X136936890Y-132974000D01*
X137613110Y-132974000D01*
X137654591Y-132978085D01*
X137654591Y-132978085D01*
G37*
G36*
X128726000Y-133916000D02*
G01*
X126874000Y-133916000D01*
X126874000Y-133264000D01*
X128726000Y-133264000D01*
X128726000Y-133916000D01*
X128726000Y-133916000D01*
G37*
G36*
X136126000Y-133916000D02*
G01*
X134274000Y-133916000D01*
X134274000Y-133264000D01*
X136126000Y-133264000D01*
X136126000Y-133916000D01*
X136126000Y-133916000D01*
G37*
G36*
X125851001Y-133376000D02*
G01*
X124649001Y-133376000D01*
X124649001Y-132174000D01*
X125851001Y-132174000D01*
X125851001Y-133376000D01*
X125851001Y-133376000D01*
G37*
G36*
X153841000Y-133191000D02*
G01*
X143959000Y-133191000D01*
X143959000Y-130689000D01*
X153841000Y-130689000D01*
X153841000Y-133191000D01*
X153841000Y-133191000D01*
G37*
G36*
X165226000Y-133126000D02*
G01*
X163724000Y-133126000D01*
X163724000Y-131524000D01*
X165226000Y-131524000D01*
X165226000Y-133126000D01*
X165226000Y-133126000D01*
G37*
G36*
X136126000Y-132646000D02*
G01*
X134274000Y-132646000D01*
X134274000Y-131994000D01*
X136126000Y-131994000D01*
X136126000Y-132646000D01*
X136126000Y-132646000D01*
G37*
G36*
X128726000Y-132646000D02*
G01*
X126874000Y-132646000D01*
X126874000Y-131994000D01*
X128726000Y-131994000D01*
X128726000Y-132646000D01*
X128726000Y-132646000D01*
G37*
G36*
X138154591Y-131178085D02*
G01*
X138188569Y-131188393D01*
X138219890Y-131205134D01*
X138247339Y-131227661D01*
X138269866Y-131255110D01*
X138286607Y-131286431D01*
X138296915Y-131320409D01*
X138301000Y-131361890D01*
X138301000Y-132038110D01*
X138296915Y-132079591D01*
X138286607Y-132113569D01*
X138269866Y-132144890D01*
X138247339Y-132172339D01*
X138219890Y-132194866D01*
X138188569Y-132211607D01*
X138154591Y-132221915D01*
X138113110Y-132226000D01*
X137511890Y-132226000D01*
X137470409Y-132221915D01*
X137436431Y-132211607D01*
X137405110Y-132194866D01*
X137377661Y-132172339D01*
X137355134Y-132144890D01*
X137338393Y-132113569D01*
X137328085Y-132079591D01*
X137324000Y-132038110D01*
X137324000Y-131361890D01*
X137328085Y-131320409D01*
X137338393Y-131286431D01*
X137355134Y-131255110D01*
X137377661Y-131227661D01*
X137405110Y-131205134D01*
X137436431Y-131188393D01*
X137470409Y-131178085D01*
X137511890Y-131174000D01*
X138113110Y-131174000D01*
X138154591Y-131178085D01*
X138154591Y-131178085D01*
G37*
G36*
X139729591Y-131178085D02*
G01*
X139763569Y-131188393D01*
X139794890Y-131205134D01*
X139822339Y-131227661D01*
X139844866Y-131255110D01*
X139861607Y-131286431D01*
X139871915Y-131320409D01*
X139876000Y-131361890D01*
X139876000Y-132038110D01*
X139871915Y-132079591D01*
X139861607Y-132113569D01*
X139844866Y-132144890D01*
X139822339Y-132172339D01*
X139794890Y-132194866D01*
X139763569Y-132211607D01*
X139729591Y-132221915D01*
X139688110Y-132226000D01*
X139086890Y-132226000D01*
X139045409Y-132221915D01*
X139011431Y-132211607D01*
X138980110Y-132194866D01*
X138952661Y-132172339D01*
X138930134Y-132144890D01*
X138913393Y-132113569D01*
X138903085Y-132079591D01*
X138899000Y-132038110D01*
X138899000Y-131361890D01*
X138903085Y-131320409D01*
X138913393Y-131286431D01*
X138930134Y-131255110D01*
X138952661Y-131227661D01*
X138980110Y-131205134D01*
X139011431Y-131188393D01*
X139045409Y-131178085D01*
X139086890Y-131174000D01*
X139688110Y-131174000D01*
X139729591Y-131178085D01*
X139729591Y-131178085D01*
G37*
G36*
X126217092Y-130653085D02*
G01*
X126251070Y-130663393D01*
X126282391Y-130680134D01*
X126309840Y-130702661D01*
X126332367Y-130730110D01*
X126349108Y-130761431D01*
X126359416Y-130795409D01*
X126363501Y-130836890D01*
X126363501Y-131513110D01*
X126359416Y-131554591D01*
X126349108Y-131588569D01*
X126332367Y-131619890D01*
X126309840Y-131647339D01*
X126282391Y-131669866D01*
X126251070Y-131686607D01*
X126217092Y-131696915D01*
X126175611Y-131701000D01*
X125574391Y-131701000D01*
X125532910Y-131696915D01*
X125498932Y-131686607D01*
X125467611Y-131669866D01*
X125440162Y-131647339D01*
X125417635Y-131619890D01*
X125400894Y-131588569D01*
X125390586Y-131554591D01*
X125386501Y-131513110D01*
X125386501Y-130836890D01*
X125390586Y-130795409D01*
X125400894Y-130761431D01*
X125417635Y-130730110D01*
X125440162Y-130702661D01*
X125467611Y-130680134D01*
X125498932Y-130663393D01*
X125532910Y-130653085D01*
X125574391Y-130649000D01*
X126175611Y-130649000D01*
X126217092Y-130653085D01*
X126217092Y-130653085D01*
G37*
G36*
X124642092Y-130653085D02*
G01*
X124676070Y-130663393D01*
X124707391Y-130680134D01*
X124734840Y-130702661D01*
X124757367Y-130730110D01*
X124774108Y-130761431D01*
X124784416Y-130795409D01*
X124788501Y-130836890D01*
X124788501Y-131513110D01*
X124784416Y-131554591D01*
X124774108Y-131588569D01*
X124757367Y-131619890D01*
X124734840Y-131647339D01*
X124707391Y-131669866D01*
X124676070Y-131686607D01*
X124642092Y-131696915D01*
X124600611Y-131701000D01*
X123999391Y-131701000D01*
X123957910Y-131696915D01*
X123923932Y-131686607D01*
X123892611Y-131669866D01*
X123865162Y-131647339D01*
X123842635Y-131619890D01*
X123825894Y-131588569D01*
X123815586Y-131554591D01*
X123811501Y-131513110D01*
X123811501Y-130836890D01*
X123815586Y-130795409D01*
X123825894Y-130761431D01*
X123842635Y-130730110D01*
X123865162Y-130702661D01*
X123892611Y-130680134D01*
X123923932Y-130663393D01*
X123957910Y-130653085D01*
X123999391Y-130649000D01*
X124600611Y-130649000D01*
X124642092Y-130653085D01*
X124642092Y-130653085D01*
G37*
G36*
X162135721Y-129745174D02*
G01*
X162235995Y-129786709D01*
X162235996Y-129786710D01*
X162326242Y-129847010D01*
X162402990Y-129923758D01*
X162402991Y-129923760D01*
X162463291Y-130014005D01*
X162504826Y-130114279D01*
X162526000Y-130220730D01*
X162526000Y-130329270D01*
X162504826Y-130435721D01*
X162463291Y-130535995D01*
X162463290Y-130535996D01*
X162402990Y-130626242D01*
X162326242Y-130702990D01*
X162299978Y-130720539D01*
X162235995Y-130763291D01*
X162135721Y-130804826D01*
X162029270Y-130826000D01*
X161920730Y-130826000D01*
X161814279Y-130804826D01*
X161714005Y-130763291D01*
X161650022Y-130720539D01*
X161623758Y-130702990D01*
X161547010Y-130626242D01*
X161486710Y-130535996D01*
X161486709Y-130535995D01*
X161445174Y-130435721D01*
X161424000Y-130329270D01*
X161424000Y-130220730D01*
X161445174Y-130114279D01*
X161486709Y-130014005D01*
X161547009Y-129923760D01*
X161547010Y-129923758D01*
X161623758Y-129847010D01*
X161714004Y-129786710D01*
X161714005Y-129786709D01*
X161814279Y-129745174D01*
X161920730Y-129724000D01*
X162029270Y-129724000D01*
X162135721Y-129745174D01*
X162135721Y-129745174D01*
G37*
G36*
X134338400Y-128577829D02*
G01*
X134377070Y-128589560D01*
X134412709Y-128608610D01*
X134443949Y-128634247D01*
X134469586Y-128665487D01*
X134488636Y-128701126D01*
X134500367Y-128739796D01*
X134504932Y-128786152D01*
X134504932Y-129437376D01*
X134500367Y-129483732D01*
X134488636Y-129522402D01*
X134469586Y-129558041D01*
X134443949Y-129589281D01*
X134412709Y-129614918D01*
X134377070Y-129633968D01*
X134338400Y-129645699D01*
X134292044Y-129650264D01*
X133215820Y-129650264D01*
X133169464Y-129645699D01*
X133130794Y-129633968D01*
X133095155Y-129614918D01*
X133063915Y-129589281D01*
X133038278Y-129558041D01*
X133019228Y-129522402D01*
X133007497Y-129483732D01*
X133002932Y-129437376D01*
X133002932Y-128786152D01*
X133007497Y-128739796D01*
X133019228Y-128701126D01*
X133038278Y-128665487D01*
X133063915Y-128634247D01*
X133095155Y-128608610D01*
X133130794Y-128589560D01*
X133169464Y-128577829D01*
X133215820Y-128573264D01*
X134292044Y-128573264D01*
X134338400Y-128577829D01*
X134338400Y-128577829D01*
G37*
G36*
X132551000Y-129301000D02*
G01*
X131349000Y-129301000D01*
X131349000Y-128099000D01*
X132551000Y-128099000D01*
X132551000Y-129301000D01*
X132551000Y-129301000D01*
G37*
G36*
X129751000Y-129301000D02*
G01*
X128549000Y-129301000D01*
X128549000Y-128099000D01*
X129751000Y-128099000D01*
X129751000Y-129301000D01*
X129751000Y-129301000D01*
G37*
G36*
X128104932Y-129301000D02*
G01*
X126802932Y-129301000D01*
X126802932Y-125499000D01*
X128104932Y-125499000D01*
X128104932Y-129301000D01*
X128104932Y-129301000D01*
G37*
G36*
X125304932Y-129301000D02*
G01*
X124002932Y-129301000D01*
X124002932Y-125499000D01*
X125304932Y-125499000D01*
X125304932Y-129301000D01*
X125304932Y-129301000D01*
G37*
G36*
X155226000Y-128926000D02*
G01*
X153724000Y-128926000D01*
X153724000Y-127624000D01*
X155226000Y-127624000D01*
X155226000Y-128926000D01*
X155226000Y-128926000D01*
G37*
G36*
X134338400Y-126702829D02*
G01*
X134377070Y-126714560D01*
X134412709Y-126733610D01*
X134443949Y-126759247D01*
X134469586Y-126790487D01*
X134488636Y-126826126D01*
X134500367Y-126864796D01*
X134504932Y-126911152D01*
X134504932Y-127562376D01*
X134500367Y-127608732D01*
X134488636Y-127647402D01*
X134469586Y-127683041D01*
X134443949Y-127714281D01*
X134412709Y-127739918D01*
X134377070Y-127758968D01*
X134338400Y-127770699D01*
X134292044Y-127775264D01*
X133215820Y-127775264D01*
X133169464Y-127770699D01*
X133130794Y-127758968D01*
X133095155Y-127739918D01*
X133063915Y-127714281D01*
X133038278Y-127683041D01*
X133019228Y-127647402D01*
X133007497Y-127608732D01*
X133002932Y-127562376D01*
X133002932Y-126911152D01*
X133007497Y-126864796D01*
X133019228Y-126826126D01*
X133038278Y-126790487D01*
X133063915Y-126759247D01*
X133095155Y-126733610D01*
X133130794Y-126714560D01*
X133169464Y-126702829D01*
X133215820Y-126698264D01*
X134292044Y-126698264D01*
X134338400Y-126702829D01*
X134338400Y-126702829D01*
G37*
G36*
X155226000Y-126926000D02*
G01*
X153724000Y-126926000D01*
X153724000Y-125624000D01*
X155226000Y-125624000D01*
X155226000Y-126926000D01*
X155226000Y-126926000D01*
G37*
G36*
X134338400Y-125065330D02*
G01*
X134377070Y-125077061D01*
X134412709Y-125096111D01*
X134443949Y-125121748D01*
X134469586Y-125152988D01*
X134488636Y-125188627D01*
X134500367Y-125227297D01*
X134504932Y-125273653D01*
X134504932Y-125924877D01*
X134500367Y-125971233D01*
X134488636Y-126009903D01*
X134469586Y-126045542D01*
X134443949Y-126076782D01*
X134412709Y-126102419D01*
X134377070Y-126121469D01*
X134338400Y-126133200D01*
X134292044Y-126137765D01*
X133215820Y-126137765D01*
X133169464Y-126133200D01*
X133130794Y-126121469D01*
X133095155Y-126102419D01*
X133063915Y-126076782D01*
X133038278Y-126045542D01*
X133019228Y-126009903D01*
X133007497Y-125971233D01*
X133002932Y-125924877D01*
X133002932Y-125273653D01*
X133007497Y-125227297D01*
X133019228Y-125188627D01*
X133038278Y-125152988D01*
X133063915Y-125121748D01*
X133095155Y-125096111D01*
X133130794Y-125077061D01*
X133169464Y-125065330D01*
X133215820Y-125060765D01*
X134292044Y-125060765D01*
X134338400Y-125065330D01*
X134338400Y-125065330D01*
G37*
G36*
X131479932Y-126055265D02*
G01*
X128827932Y-126055265D01*
X128827932Y-124893265D01*
X131479932Y-124893265D01*
X131479932Y-126055265D01*
X131479932Y-126055265D01*
G37*
G36*
X127950900Y-123453565D02*
G01*
X127989570Y-123465296D01*
X128025209Y-123484346D01*
X128056449Y-123509983D01*
X128082086Y-123541223D01*
X128101136Y-123576862D01*
X128112867Y-123615532D01*
X128117432Y-123661888D01*
X128117432Y-124738112D01*
X128112867Y-124784468D01*
X128101136Y-124823138D01*
X128082086Y-124858777D01*
X128056449Y-124890017D01*
X128025209Y-124915654D01*
X127989570Y-124934704D01*
X127950900Y-124946435D01*
X127904544Y-124951000D01*
X127253320Y-124951000D01*
X127206964Y-124946435D01*
X127168294Y-124934704D01*
X127132655Y-124915654D01*
X127101415Y-124890017D01*
X127075778Y-124858777D01*
X127056728Y-124823138D01*
X127044997Y-124784468D01*
X127040432Y-124738112D01*
X127040432Y-123661888D01*
X127044997Y-123615532D01*
X127056728Y-123576862D01*
X127075778Y-123541223D01*
X127101415Y-123509983D01*
X127132655Y-123484346D01*
X127168294Y-123465296D01*
X127206964Y-123453565D01*
X127253320Y-123449000D01*
X127904544Y-123449000D01*
X127950900Y-123453565D01*
X127950900Y-123453565D01*
G37*
G36*
X126075900Y-123453565D02*
G01*
X126114570Y-123465296D01*
X126150209Y-123484346D01*
X126181449Y-123509983D01*
X126207086Y-123541223D01*
X126226136Y-123576862D01*
X126237867Y-123615532D01*
X126242432Y-123661888D01*
X126242432Y-124738112D01*
X126237867Y-124784468D01*
X126226136Y-124823138D01*
X126207086Y-124858777D01*
X126181449Y-124890017D01*
X126150209Y-124915654D01*
X126114570Y-124934704D01*
X126075900Y-124946435D01*
X126029544Y-124951000D01*
X125378320Y-124951000D01*
X125331964Y-124946435D01*
X125293294Y-124934704D01*
X125257655Y-124915654D01*
X125226415Y-124890017D01*
X125200778Y-124858777D01*
X125181728Y-124823138D01*
X125169997Y-124784468D01*
X125165432Y-124738112D01*
X125165432Y-123661888D01*
X125169997Y-123615532D01*
X125181728Y-123576862D01*
X125200778Y-123541223D01*
X125226415Y-123509983D01*
X125257655Y-123484346D01*
X125293294Y-123465296D01*
X125331964Y-123453565D01*
X125378320Y-123449000D01*
X126029544Y-123449000D01*
X126075900Y-123453565D01*
X126075900Y-123453565D01*
G37*
G36*
X155226000Y-124926000D02*
G01*
X153724000Y-124926000D01*
X153724000Y-123624000D01*
X155226000Y-123624000D01*
X155226000Y-124926000D01*
X155226000Y-124926000D01*
G37*
G36*
X134338400Y-123190330D02*
G01*
X134377070Y-123202061D01*
X134412709Y-123221111D01*
X134443949Y-123246748D01*
X134469586Y-123277988D01*
X134488636Y-123313627D01*
X134500367Y-123352297D01*
X134504932Y-123398653D01*
X134504932Y-124049877D01*
X134500367Y-124096233D01*
X134488636Y-124134903D01*
X134469586Y-124170542D01*
X134443949Y-124201782D01*
X134412709Y-124227419D01*
X134377070Y-124246469D01*
X134338400Y-124258200D01*
X134292044Y-124262765D01*
X133215820Y-124262765D01*
X133169464Y-124258200D01*
X133130794Y-124246469D01*
X133095155Y-124227419D01*
X133063915Y-124201782D01*
X133038278Y-124170542D01*
X133019228Y-124134903D01*
X133007497Y-124096233D01*
X133002932Y-124049877D01*
X133002932Y-123398653D01*
X133007497Y-123352297D01*
X133019228Y-123313627D01*
X133038278Y-123277988D01*
X133063915Y-123246748D01*
X133095155Y-123221111D01*
X133130794Y-123202061D01*
X133169464Y-123190330D01*
X133215820Y-123185765D01*
X134292044Y-123185765D01*
X134338400Y-123190330D01*
X134338400Y-123190330D01*
G37*
G36*
X131479932Y-123855265D02*
G01*
X128827932Y-123855265D01*
X128827932Y-122693265D01*
X131479932Y-122693265D01*
X131479932Y-123855265D01*
X131479932Y-123855265D01*
G37*
G36*
X155226000Y-122926000D02*
G01*
X153724000Y-122926000D01*
X153724000Y-121624000D01*
X155226000Y-121624000D01*
X155226000Y-122926000D01*
X155226000Y-122926000D01*
G37*
G36*
X134309468Y-120703565D02*
G01*
X134348138Y-120715296D01*
X134383777Y-120734346D01*
X134415017Y-120759983D01*
X134440654Y-120791223D01*
X134459704Y-120826862D01*
X134471435Y-120865532D01*
X134476000Y-120911888D01*
X134476000Y-121563112D01*
X134471435Y-121609468D01*
X134459704Y-121648138D01*
X134440654Y-121683777D01*
X134415017Y-121715017D01*
X134383777Y-121740654D01*
X134348138Y-121759704D01*
X134309468Y-121771435D01*
X134263112Y-121776000D01*
X133186888Y-121776000D01*
X133140532Y-121771435D01*
X133101862Y-121759704D01*
X133066223Y-121740654D01*
X133034983Y-121715017D01*
X133009346Y-121683777D01*
X132990296Y-121648138D01*
X132978565Y-121609468D01*
X132974000Y-121563112D01*
X132974000Y-120911888D01*
X132978565Y-120865532D01*
X132990296Y-120826862D01*
X133009346Y-120791223D01*
X133034983Y-120759983D01*
X133066223Y-120734346D01*
X133101862Y-120715296D01*
X133140532Y-120703565D01*
X133186888Y-120699000D01*
X134263112Y-120699000D01*
X134309468Y-120703565D01*
X134309468Y-120703565D01*
G37*
G36*
X125376000Y-121601000D02*
G01*
X124074000Y-121601000D01*
X124074000Y-117799000D01*
X125376000Y-117799000D01*
X125376000Y-121601000D01*
X125376000Y-121601000D01*
G37*
G36*
X128176000Y-121601000D02*
G01*
X126874000Y-121601000D01*
X126874000Y-117799000D01*
X128176000Y-117799000D01*
X128176000Y-121601000D01*
X128176000Y-121601000D01*
G37*
G36*
X129776000Y-121451000D02*
G01*
X128574000Y-121451000D01*
X128574000Y-120249000D01*
X129776000Y-120249000D01*
X129776000Y-121451000D01*
X129776000Y-121451000D01*
G37*
G36*
X132576000Y-121451000D02*
G01*
X131374000Y-121451000D01*
X131374000Y-120249000D01*
X132576000Y-120249000D01*
X132576000Y-121451000D01*
X132576000Y-121451000D01*
G37*
G36*
X155226000Y-120926000D02*
G01*
X153724000Y-120926000D01*
X153724000Y-119624000D01*
X155226000Y-119624000D01*
X155226000Y-120926000D01*
X155226000Y-120926000D01*
G37*
G36*
X134309468Y-118828565D02*
G01*
X134348138Y-118840296D01*
X134383777Y-118859346D01*
X134415017Y-118884983D01*
X134440654Y-118916223D01*
X134459704Y-118951862D01*
X134471435Y-118990532D01*
X134476000Y-119036888D01*
X134476000Y-119688112D01*
X134471435Y-119734468D01*
X134459704Y-119773138D01*
X134440654Y-119808777D01*
X134415017Y-119840017D01*
X134383777Y-119865654D01*
X134348138Y-119884704D01*
X134309468Y-119896435D01*
X134263112Y-119901000D01*
X133186888Y-119901000D01*
X133140532Y-119896435D01*
X133101862Y-119884704D01*
X133066223Y-119865654D01*
X133034983Y-119840017D01*
X133009346Y-119808777D01*
X132990296Y-119773138D01*
X132978565Y-119734468D01*
X132974000Y-119688112D01*
X132974000Y-119036888D01*
X132978565Y-118990532D01*
X132990296Y-118951862D01*
X133009346Y-118916223D01*
X133034983Y-118884983D01*
X133066223Y-118859346D01*
X133101862Y-118840296D01*
X133140532Y-118828565D01*
X133186888Y-118824000D01*
X134263112Y-118824000D01*
X134309468Y-118828565D01*
X134309468Y-118828565D01*
G37*
G36*
X137176000Y-118394001D02*
G01*
X137178402Y-118418387D01*
X137185515Y-118441836D01*
X137197066Y-118463447D01*
X137212611Y-118482389D01*
X137231553Y-118497934D01*
X137253164Y-118509485D01*
X137276613Y-118516598D01*
X137300999Y-118519000D01*
X152899001Y-118519000D01*
X152923387Y-118516598D01*
X152946836Y-118509485D01*
X152968447Y-118497934D01*
X152987389Y-118482389D01*
X153002934Y-118463447D01*
X153014485Y-118441836D01*
X153021598Y-118418387D01*
X153024000Y-118394001D01*
X153024000Y-118244000D01*
X153576000Y-118244000D01*
X153576000Y-119246000D01*
X152905999Y-119246000D01*
X152881613Y-119248402D01*
X152858164Y-119255515D01*
X152836553Y-119267066D01*
X152817611Y-119282611D01*
X152802066Y-119301553D01*
X152790515Y-119323164D01*
X152783402Y-119346613D01*
X152781000Y-119370999D01*
X152781000Y-119621000D01*
X137419000Y-119621000D01*
X137419000Y-119370999D01*
X137416598Y-119346613D01*
X137409485Y-119323164D01*
X137397934Y-119301553D01*
X137382389Y-119282611D01*
X137363447Y-119267066D01*
X137341836Y-119255515D01*
X137318387Y-119248402D01*
X137294001Y-119246000D01*
X136624000Y-119246000D01*
X136624000Y-118244000D01*
X137176000Y-118244000D01*
X137176000Y-118394001D01*
X137176000Y-118394001D01*
G37*
G36*
X131501000Y-118331000D02*
G01*
X128849000Y-118331000D01*
X128849000Y-117169000D01*
X131501000Y-117169000D01*
X131501000Y-118331000D01*
X131501000Y-118331000D01*
G37*
G36*
X134309468Y-117241066D02*
G01*
X134348138Y-117252797D01*
X134383777Y-117271847D01*
X134415017Y-117297484D01*
X134440654Y-117328724D01*
X134459704Y-117364363D01*
X134471435Y-117403033D01*
X134476000Y-117449389D01*
X134476000Y-118100613D01*
X134471435Y-118146969D01*
X134459704Y-118185639D01*
X134440654Y-118221278D01*
X134415017Y-118252518D01*
X134383777Y-118278155D01*
X134348138Y-118297205D01*
X134309468Y-118308936D01*
X134263112Y-118313501D01*
X133186888Y-118313501D01*
X133140532Y-118308936D01*
X133101862Y-118297205D01*
X133066223Y-118278155D01*
X133034983Y-118252518D01*
X133009346Y-118221278D01*
X132990296Y-118185639D01*
X132978565Y-118146969D01*
X132974000Y-118100613D01*
X132974000Y-117449389D01*
X132978565Y-117403033D01*
X132990296Y-117364363D01*
X133009346Y-117328724D01*
X133034983Y-117297484D01*
X133066223Y-117271847D01*
X133101862Y-117252797D01*
X133140532Y-117241066D01*
X133186888Y-117236501D01*
X134263112Y-117236501D01*
X134309468Y-117241066D01*
X134309468Y-117241066D01*
G37*
G36*
X162135721Y-116945174D02*
G01*
X162235995Y-116986709D01*
X162235996Y-116986710D01*
X162326242Y-117047010D01*
X162402990Y-117123758D01*
X162402991Y-117123760D01*
X162463291Y-117214005D01*
X162504826Y-117314279D01*
X162526000Y-117420730D01*
X162526000Y-117529270D01*
X162504826Y-117635721D01*
X162463291Y-117735995D01*
X162463290Y-117735996D01*
X162402990Y-117826242D01*
X162326242Y-117902990D01*
X162280812Y-117933345D01*
X162235995Y-117963291D01*
X162135721Y-118004826D01*
X162029270Y-118026000D01*
X161920730Y-118026000D01*
X161814279Y-118004826D01*
X161714005Y-117963291D01*
X161669188Y-117933345D01*
X161623758Y-117902990D01*
X161547010Y-117826242D01*
X161486710Y-117735996D01*
X161486709Y-117735995D01*
X161445174Y-117635721D01*
X161424000Y-117529270D01*
X161424000Y-117420730D01*
X161445174Y-117314279D01*
X161486709Y-117214005D01*
X161547009Y-117123760D01*
X161547010Y-117123758D01*
X161623758Y-117047010D01*
X161714004Y-116986710D01*
X161714005Y-116986709D01*
X161814279Y-116945174D01*
X161920730Y-116924000D01*
X162029270Y-116924000D01*
X162135721Y-116945174D01*
X162135721Y-116945174D01*
G37*
G36*
X126109468Y-115753565D02*
G01*
X126148138Y-115765296D01*
X126183777Y-115784346D01*
X126215017Y-115809983D01*
X126240654Y-115841223D01*
X126259704Y-115876862D01*
X126271435Y-115915532D01*
X126276000Y-115961888D01*
X126276000Y-117038112D01*
X126271435Y-117084468D01*
X126259704Y-117123138D01*
X126240654Y-117158777D01*
X126215017Y-117190017D01*
X126183777Y-117215654D01*
X126148138Y-117234704D01*
X126109468Y-117246435D01*
X126063112Y-117251000D01*
X125411888Y-117251000D01*
X125365532Y-117246435D01*
X125326862Y-117234704D01*
X125291223Y-117215654D01*
X125259983Y-117190017D01*
X125234346Y-117158777D01*
X125215296Y-117123138D01*
X125203565Y-117084468D01*
X125199000Y-117038112D01*
X125199000Y-115961888D01*
X125203565Y-115915532D01*
X125215296Y-115876862D01*
X125234346Y-115841223D01*
X125259983Y-115809983D01*
X125291223Y-115784346D01*
X125326862Y-115765296D01*
X125365532Y-115753565D01*
X125411888Y-115749000D01*
X126063112Y-115749000D01*
X126109468Y-115753565D01*
X126109468Y-115753565D01*
G37*
G36*
X127984468Y-115753565D02*
G01*
X128023138Y-115765296D01*
X128058777Y-115784346D01*
X128090017Y-115809983D01*
X128115654Y-115841223D01*
X128134704Y-115876862D01*
X128146435Y-115915532D01*
X128151000Y-115961888D01*
X128151000Y-117038112D01*
X128146435Y-117084468D01*
X128134704Y-117123138D01*
X128115654Y-117158777D01*
X128090017Y-117190017D01*
X128058777Y-117215654D01*
X128023138Y-117234704D01*
X127984468Y-117246435D01*
X127938112Y-117251000D01*
X127286888Y-117251000D01*
X127240532Y-117246435D01*
X127201862Y-117234704D01*
X127166223Y-117215654D01*
X127134983Y-117190017D01*
X127109346Y-117158777D01*
X127090296Y-117123138D01*
X127078565Y-117084468D01*
X127074000Y-117038112D01*
X127074000Y-115961888D01*
X127078565Y-115915532D01*
X127090296Y-115876862D01*
X127109346Y-115841223D01*
X127134983Y-115809983D01*
X127166223Y-115784346D01*
X127201862Y-115765296D01*
X127240532Y-115753565D01*
X127286888Y-115749000D01*
X127938112Y-115749000D01*
X127984468Y-115753565D01*
X127984468Y-115753565D01*
G37*
G36*
X165226000Y-117026000D02*
G01*
X163724000Y-117026000D01*
X163724000Y-115424000D01*
X165226000Y-115424000D01*
X165226000Y-117026000D01*
X165226000Y-117026000D01*
G37*
G36*
X152501000Y-116721000D02*
G01*
X137699000Y-116721000D01*
X137699000Y-115669000D01*
X152501000Y-115669000D01*
X152501000Y-116721000D01*
X152501000Y-116721000D01*
G37*
G36*
X134309468Y-115366066D02*
G01*
X134348138Y-115377797D01*
X134383777Y-115396847D01*
X134415017Y-115422484D01*
X134440654Y-115453724D01*
X134459704Y-115489363D01*
X134471435Y-115528033D01*
X134476000Y-115574389D01*
X134476000Y-116225613D01*
X134471435Y-116271969D01*
X134459704Y-116310639D01*
X134440654Y-116346278D01*
X134415017Y-116377518D01*
X134383777Y-116403155D01*
X134348138Y-116422205D01*
X134309468Y-116433936D01*
X134263112Y-116438501D01*
X133186888Y-116438501D01*
X133140532Y-116433936D01*
X133101862Y-116422205D01*
X133066223Y-116403155D01*
X133034983Y-116377518D01*
X133009346Y-116346278D01*
X132990296Y-116310639D01*
X132978565Y-116271969D01*
X132974000Y-116225613D01*
X132974000Y-115574389D01*
X132978565Y-115528033D01*
X132990296Y-115489363D01*
X133009346Y-115453724D01*
X133034983Y-115422484D01*
X133066223Y-115396847D01*
X133101862Y-115377797D01*
X133140532Y-115366066D01*
X133186888Y-115361501D01*
X134263112Y-115361501D01*
X134309468Y-115366066D01*
X134309468Y-115366066D01*
G37*
G36*
X131501000Y-116131000D02*
G01*
X128849000Y-116131000D01*
X128849000Y-114969000D01*
X131501000Y-114969000D01*
X131501000Y-116131000D01*
X131501000Y-116131000D01*
G37*
M02*
