G04 #@! TF.GenerationSoftware,KiCad,Pcbnew,5.0.1*
G04 #@! TF.CreationDate,2019-10-08T03:13:47+02:00*
G04 #@! TF.ProjectId,USB-C-Screen-Adapter,5553422D432D53637265656E2D416461,rev?*
G04 #@! TF.SameCoordinates,Original*
G04 #@! TF.FileFunction,Copper,L2,Inr,Signal*
G04 #@! TF.FilePolarity,Positive*
%FSLAX46Y46*%
G04 Gerber Fmt 4.6, Leading zero omitted, Abs format (unit mm)*
G04 Created by KiCad (PCBNEW 5.0.1) date Tue 08 Oct 2019 03:13:47 AM CEST*
%MOMM*%
%LPD*%
G01*
G04 APERTURE LIST*
G04 #@! TA.AperFunction,Conductor*
%ADD10C,0.100000*%
G04 #@! TD*
G04 #@! TA.AperFunction,ViaPad*
%ADD11C,1.100000*%
G04 #@! TD*
G04 #@! TA.AperFunction,ViaPad*
%ADD12C,1.300000*%
G04 #@! TD*
G04 #@! TA.AperFunction,ViaPad*
%ADD13C,0.600000*%
G04 #@! TD*
G04 APERTURE END LIST*
D10*
G04 #@! TO.N,GND*
G04 #@! TO.C,J1*
G36*
X106481955Y-117401324D02*
X106508650Y-117405284D01*
X106534828Y-117411841D01*
X106560238Y-117420933D01*
X106584634Y-117432472D01*
X106607782Y-117446346D01*
X106629458Y-117462422D01*
X106649454Y-117480546D01*
X106667578Y-117500542D01*
X106683654Y-117522218D01*
X106697528Y-117545366D01*
X106709067Y-117569762D01*
X106718159Y-117595172D01*
X106724716Y-117621350D01*
X106728676Y-117648045D01*
X106730000Y-117675000D01*
X106730000Y-119525000D01*
X106728676Y-119551955D01*
X106724716Y-119578650D01*
X106718159Y-119604828D01*
X106709067Y-119630238D01*
X106697528Y-119654634D01*
X106683654Y-119677782D01*
X106667578Y-119699458D01*
X106649454Y-119719454D01*
X106629458Y-119737578D01*
X106607782Y-119753654D01*
X106584634Y-119767528D01*
X106560238Y-119779067D01*
X106534828Y-119788159D01*
X106508650Y-119794716D01*
X106481955Y-119798676D01*
X106455000Y-119800000D01*
X105905000Y-119800000D01*
X105878045Y-119798676D01*
X105851350Y-119794716D01*
X105825172Y-119788159D01*
X105799762Y-119779067D01*
X105775366Y-119767528D01*
X105752218Y-119753654D01*
X105730542Y-119737578D01*
X105710546Y-119719454D01*
X105692422Y-119699458D01*
X105676346Y-119677782D01*
X105662472Y-119654634D01*
X105650933Y-119630238D01*
X105641841Y-119604828D01*
X105635284Y-119578650D01*
X105631324Y-119551955D01*
X105630000Y-119525000D01*
X105630000Y-117675000D01*
X105631324Y-117648045D01*
X105635284Y-117621350D01*
X105641841Y-117595172D01*
X105650933Y-117569762D01*
X105662472Y-117545366D01*
X105676346Y-117522218D01*
X105692422Y-117500542D01*
X105710546Y-117480546D01*
X105730542Y-117462422D01*
X105752218Y-117446346D01*
X105775366Y-117432472D01*
X105799762Y-117420933D01*
X105825172Y-117411841D01*
X105851350Y-117405284D01*
X105878045Y-117401324D01*
X105905000Y-117400000D01*
X106455000Y-117400000D01*
X106481955Y-117401324D01*
X106481955Y-117401324D01*
G37*
D11*
X106180000Y-118600000D03*
D10*
G36*
X115121955Y-117401324D02*
X115148650Y-117405284D01*
X115174828Y-117411841D01*
X115200238Y-117420933D01*
X115224634Y-117432472D01*
X115247782Y-117446346D01*
X115269458Y-117462422D01*
X115289454Y-117480546D01*
X115307578Y-117500542D01*
X115323654Y-117522218D01*
X115337528Y-117545366D01*
X115349067Y-117569762D01*
X115358159Y-117595172D01*
X115364716Y-117621350D01*
X115368676Y-117648045D01*
X115370000Y-117675000D01*
X115370000Y-119525000D01*
X115368676Y-119551955D01*
X115364716Y-119578650D01*
X115358159Y-119604828D01*
X115349067Y-119630238D01*
X115337528Y-119654634D01*
X115323654Y-119677782D01*
X115307578Y-119699458D01*
X115289454Y-119719454D01*
X115269458Y-119737578D01*
X115247782Y-119753654D01*
X115224634Y-119767528D01*
X115200238Y-119779067D01*
X115174828Y-119788159D01*
X115148650Y-119794716D01*
X115121955Y-119798676D01*
X115095000Y-119800000D01*
X114545000Y-119800000D01*
X114518045Y-119798676D01*
X114491350Y-119794716D01*
X114465172Y-119788159D01*
X114439762Y-119779067D01*
X114415366Y-119767528D01*
X114392218Y-119753654D01*
X114370542Y-119737578D01*
X114350546Y-119719454D01*
X114332422Y-119699458D01*
X114316346Y-119677782D01*
X114302472Y-119654634D01*
X114290933Y-119630238D01*
X114281841Y-119604828D01*
X114275284Y-119578650D01*
X114271324Y-119551955D01*
X114270000Y-119525000D01*
X114270000Y-117675000D01*
X114271324Y-117648045D01*
X114275284Y-117621350D01*
X114281841Y-117595172D01*
X114290933Y-117569762D01*
X114302472Y-117545366D01*
X114316346Y-117522218D01*
X114332422Y-117500542D01*
X114350546Y-117480546D01*
X114370542Y-117462422D01*
X114392218Y-117446346D01*
X114415366Y-117432472D01*
X114439762Y-117420933D01*
X114465172Y-117411841D01*
X114491350Y-117405284D01*
X114518045Y-117401324D01*
X114545000Y-117400000D01*
X115095000Y-117400000D01*
X115121955Y-117401324D01*
X115121955Y-117401324D01*
G37*
D11*
X114820000Y-118600000D03*
D10*
G36*
X106481955Y-113001324D02*
X106508650Y-113005284D01*
X106534828Y-113011841D01*
X106560238Y-113020933D01*
X106584634Y-113032472D01*
X106607782Y-113046346D01*
X106629458Y-113062422D01*
X106649454Y-113080546D01*
X106667578Y-113100542D01*
X106683654Y-113122218D01*
X106697528Y-113145366D01*
X106709067Y-113169762D01*
X106718159Y-113195172D01*
X106724716Y-113221350D01*
X106728676Y-113248045D01*
X106730000Y-113275000D01*
X106730000Y-114825000D01*
X106728676Y-114851955D01*
X106724716Y-114878650D01*
X106718159Y-114904828D01*
X106709067Y-114930238D01*
X106697528Y-114954634D01*
X106683654Y-114977782D01*
X106667578Y-114999458D01*
X106649454Y-115019454D01*
X106629458Y-115037578D01*
X106607782Y-115053654D01*
X106584634Y-115067528D01*
X106560238Y-115079067D01*
X106534828Y-115088159D01*
X106508650Y-115094716D01*
X106481955Y-115098676D01*
X106455000Y-115100000D01*
X105905000Y-115100000D01*
X105878045Y-115098676D01*
X105851350Y-115094716D01*
X105825172Y-115088159D01*
X105799762Y-115079067D01*
X105775366Y-115067528D01*
X105752218Y-115053654D01*
X105730542Y-115037578D01*
X105710546Y-115019454D01*
X105692422Y-114999458D01*
X105676346Y-114977782D01*
X105662472Y-114954634D01*
X105650933Y-114930238D01*
X105641841Y-114904828D01*
X105635284Y-114878650D01*
X105631324Y-114851955D01*
X105630000Y-114825000D01*
X105630000Y-113275000D01*
X105631324Y-113248045D01*
X105635284Y-113221350D01*
X105641841Y-113195172D01*
X105650933Y-113169762D01*
X105662472Y-113145366D01*
X105676346Y-113122218D01*
X105692422Y-113100542D01*
X105710546Y-113080546D01*
X105730542Y-113062422D01*
X105752218Y-113046346D01*
X105775366Y-113032472D01*
X105799762Y-113020933D01*
X105825172Y-113011841D01*
X105851350Y-113005284D01*
X105878045Y-113001324D01*
X105905000Y-113000000D01*
X106455000Y-113000000D01*
X106481955Y-113001324D01*
X106481955Y-113001324D01*
G37*
D11*
X106180000Y-114050000D03*
D10*
G36*
X115121955Y-113001324D02*
X115148650Y-113005284D01*
X115174828Y-113011841D01*
X115200238Y-113020933D01*
X115224634Y-113032472D01*
X115247782Y-113046346D01*
X115269458Y-113062422D01*
X115289454Y-113080546D01*
X115307578Y-113100542D01*
X115323654Y-113122218D01*
X115337528Y-113145366D01*
X115349067Y-113169762D01*
X115358159Y-113195172D01*
X115364716Y-113221350D01*
X115368676Y-113248045D01*
X115370000Y-113275000D01*
X115370000Y-114825000D01*
X115368676Y-114851955D01*
X115364716Y-114878650D01*
X115358159Y-114904828D01*
X115349067Y-114930238D01*
X115337528Y-114954634D01*
X115323654Y-114977782D01*
X115307578Y-114999458D01*
X115289454Y-115019454D01*
X115269458Y-115037578D01*
X115247782Y-115053654D01*
X115224634Y-115067528D01*
X115200238Y-115079067D01*
X115174828Y-115088159D01*
X115148650Y-115094716D01*
X115121955Y-115098676D01*
X115095000Y-115100000D01*
X114545000Y-115100000D01*
X114518045Y-115098676D01*
X114491350Y-115094716D01*
X114465172Y-115088159D01*
X114439762Y-115079067D01*
X114415366Y-115067528D01*
X114392218Y-115053654D01*
X114370542Y-115037578D01*
X114350546Y-115019454D01*
X114332422Y-114999458D01*
X114316346Y-114977782D01*
X114302472Y-114954634D01*
X114290933Y-114930238D01*
X114281841Y-114904828D01*
X114275284Y-114878650D01*
X114271324Y-114851955D01*
X114270000Y-114825000D01*
X114270000Y-113275000D01*
X114271324Y-113248045D01*
X114275284Y-113221350D01*
X114281841Y-113195172D01*
X114290933Y-113169762D01*
X114302472Y-113145366D01*
X114316346Y-113122218D01*
X114332422Y-113100542D01*
X114350546Y-113080546D01*
X114370542Y-113062422D01*
X114392218Y-113046346D01*
X114415366Y-113032472D01*
X114439762Y-113020933D01*
X114465172Y-113011841D01*
X114491350Y-113005284D01*
X114518045Y-113001324D01*
X114545000Y-113000000D01*
X115095000Y-113000000D01*
X115121955Y-113001324D01*
X115121955Y-113001324D01*
G37*
D11*
X114820000Y-114050000D03*
D10*
G36*
X106956856Y-113801565D02*
X106988404Y-113806245D01*
X107019343Y-113813994D01*
X107049372Y-113824739D01*
X107078204Y-113838376D01*
X107105560Y-113854772D01*
X107131178Y-113873772D01*
X107154810Y-113895190D01*
X107176228Y-113918822D01*
X107195228Y-113944440D01*
X107211624Y-113971796D01*
X107225261Y-114000628D01*
X107236006Y-114030657D01*
X107243755Y-114061596D01*
X107248435Y-114093144D01*
X107250000Y-114125000D01*
X107250000Y-114775000D01*
X107248435Y-114806856D01*
X107243755Y-114838404D01*
X107236006Y-114869343D01*
X107225261Y-114899372D01*
X107211624Y-114928204D01*
X107195228Y-114955560D01*
X107176228Y-114981178D01*
X107154810Y-115004810D01*
X107131178Y-115026228D01*
X107105560Y-115045228D01*
X107078204Y-115061624D01*
X107049372Y-115075261D01*
X107019343Y-115086006D01*
X106988404Y-115093755D01*
X106956856Y-115098435D01*
X106925000Y-115100000D01*
X105975000Y-115100000D01*
X105943144Y-115098435D01*
X105911596Y-115093755D01*
X105880657Y-115086006D01*
X105850628Y-115075261D01*
X105821796Y-115061624D01*
X105794440Y-115045228D01*
X105768822Y-115026228D01*
X105745190Y-115004810D01*
X105723772Y-114981178D01*
X105704772Y-114955560D01*
X105688376Y-114928204D01*
X105674739Y-114899372D01*
X105663994Y-114869343D01*
X105656245Y-114838404D01*
X105651565Y-114806856D01*
X105650000Y-114775000D01*
X105650000Y-114125000D01*
X105651565Y-114093144D01*
X105656245Y-114061596D01*
X105663994Y-114030657D01*
X105674739Y-114000628D01*
X105688376Y-113971796D01*
X105704772Y-113944440D01*
X105723772Y-113918822D01*
X105745190Y-113895190D01*
X105768822Y-113873772D01*
X105794440Y-113854772D01*
X105821796Y-113838376D01*
X105850628Y-113824739D01*
X105880657Y-113813994D01*
X105911596Y-113806245D01*
X105943144Y-113801565D01*
X105975000Y-113800000D01*
X106925000Y-113800000D01*
X106956856Y-113801565D01*
X106956856Y-113801565D01*
G37*
D12*
X106450000Y-114450000D03*
D10*
G36*
X115056856Y-113801565D02*
X115088404Y-113806245D01*
X115119343Y-113813994D01*
X115149372Y-113824739D01*
X115178204Y-113838376D01*
X115205560Y-113854772D01*
X115231178Y-113873772D01*
X115254810Y-113895190D01*
X115276228Y-113918822D01*
X115295228Y-113944440D01*
X115311624Y-113971796D01*
X115325261Y-114000628D01*
X115336006Y-114030657D01*
X115343755Y-114061596D01*
X115348435Y-114093144D01*
X115350000Y-114125000D01*
X115350000Y-114775000D01*
X115348435Y-114806856D01*
X115343755Y-114838404D01*
X115336006Y-114869343D01*
X115325261Y-114899372D01*
X115311624Y-114928204D01*
X115295228Y-114955560D01*
X115276228Y-114981178D01*
X115254810Y-115004810D01*
X115231178Y-115026228D01*
X115205560Y-115045228D01*
X115178204Y-115061624D01*
X115149372Y-115075261D01*
X115119343Y-115086006D01*
X115088404Y-115093755D01*
X115056856Y-115098435D01*
X115025000Y-115100000D01*
X114075000Y-115100000D01*
X114043144Y-115098435D01*
X114011596Y-115093755D01*
X113980657Y-115086006D01*
X113950628Y-115075261D01*
X113921796Y-115061624D01*
X113894440Y-115045228D01*
X113868822Y-115026228D01*
X113845190Y-115004810D01*
X113823772Y-114981178D01*
X113804772Y-114955560D01*
X113788376Y-114928204D01*
X113774739Y-114899372D01*
X113763994Y-114869343D01*
X113756245Y-114838404D01*
X113751565Y-114806856D01*
X113750000Y-114775000D01*
X113750000Y-114125000D01*
X113751565Y-114093144D01*
X113756245Y-114061596D01*
X113763994Y-114030657D01*
X113774739Y-114000628D01*
X113788376Y-113971796D01*
X113804772Y-113944440D01*
X113823772Y-113918822D01*
X113845190Y-113895190D01*
X113868822Y-113873772D01*
X113894440Y-113854772D01*
X113921796Y-113838376D01*
X113950628Y-113824739D01*
X113980657Y-113813994D01*
X114011596Y-113806245D01*
X114043144Y-113801565D01*
X114075000Y-113800000D01*
X115025000Y-113800000D01*
X115056856Y-113801565D01*
X115056856Y-113801565D01*
G37*
D12*
X114550000Y-114450000D03*
G04 #@! TD*
D13*
G04 #@! TO.N,GND*
X130550000Y-118150000D03*
X126000000Y-118150000D03*
X130550000Y-113700000D03*
X115000000Y-109200000D03*
X115000000Y-110400000D03*
X116500000Y-110400000D03*
X116500000Y-109200000D03*
X118300000Y-109800000D03*
G04 #@! TO.N,L1_P*
X108389502Y-103322916D03*
X112800000Y-116100000D03*
G04 #@! TO.N,L1_N*
X107788460Y-102721874D03*
X112000000Y-116100000D03*
G04 #@! TO.N,+5V*
X119800000Y-110700000D03*
X119800000Y-112100000D03*
X119800000Y-111400000D03*
X109400000Y-116900000D03*
X111400000Y-116900000D03*
X108500000Y-117200000D03*
X112400000Y-117000000D03*
G04 #@! TO.N,GND*
X133900000Y-110200000D03*
X135950000Y-108600000D03*
X138050000Y-105000000D03*
X136600000Y-100900000D03*
X136600000Y-101800000D03*
X134200000Y-102000000D03*
X131600000Y-102600000D03*
X130400000Y-102600000D03*
X132900000Y-102100000D03*
X135400000Y-102100000D03*
X134700000Y-106200000D03*
X133200000Y-106200000D03*
X130000000Y-105500000D03*
X129700000Y-106400000D03*
X127300000Y-107000000D03*
X126300000Y-107000000D03*
X126400000Y-104700000D03*
X125700000Y-104700000D03*
X125900000Y-102600000D03*
X125900000Y-100900000D03*
X125200000Y-100900000D03*
X125200000Y-102500000D03*
X128700000Y-102700000D03*
X123600000Y-103500000D03*
X122300000Y-104000000D03*
X120400000Y-104000000D03*
X119700000Y-103900000D03*
X119000000Y-100800000D03*
X115400000Y-100500000D03*
X113300000Y-103000000D03*
X111300000Y-102700000D03*
X109300000Y-103200000D03*
X108700000Y-102500000D03*
X114300000Y-105600000D03*
X115800000Y-105600000D03*
X115800000Y-106600000D03*
X114300000Y-108300000D03*
X111400000Y-107500000D03*
X108700000Y-108800000D03*
X105800000Y-100500000D03*
X101900000Y-100700000D03*
X103800000Y-105500000D03*
X104800000Y-106300000D03*
X103200000Y-106800000D03*
X102200000Y-105100000D03*
X102300000Y-104300000D03*
X101200000Y-105300000D03*
X101100000Y-103200000D03*
X104600000Y-109700000D03*
X106200000Y-111000000D03*
X107100000Y-112300000D03*
X101200000Y-118300000D03*
X101200000Y-115700000D03*
X101500000Y-113700000D03*
X100600000Y-114500000D03*
X116000000Y-114700000D03*
X119900000Y-116900000D03*
X116400000Y-119300000D03*
X120200000Y-119300000D03*
X121700000Y-118000000D03*
X122700000Y-118800000D03*
X121900000Y-119500000D03*
X124700000Y-119400000D03*
X126050000Y-113650000D03*
X132100000Y-120200000D03*
X131400000Y-120200000D03*
X135200000Y-118100000D03*
X136600000Y-120000000D03*
X138500000Y-120000000D03*
X139400000Y-118900000D03*
X137400000Y-113400000D03*
X138900000Y-111200000D03*
X138900000Y-112000000D03*
X133900000Y-109300000D03*
X132700000Y-117030010D03*
X135200000Y-113200000D03*
X123100000Y-111200000D03*
X120600000Y-115250000D03*
G04 #@! TO.N,+5V*
X118100000Y-117150000D03*
G04 #@! TO.N,USB_N*
X110800000Y-112400000D03*
X110195010Y-115700000D03*
X120050000Y-115950000D03*
G04 #@! TO.N,L2_N*
X109500521Y-111400521D03*
X107875000Y-106200000D03*
G04 #@! TO.N,SBU1*
X111500000Y-112000000D03*
X103800000Y-109700000D03*
X102400000Y-107200000D03*
G04 #@! TO.N,L2_P*
X108899479Y-110799479D03*
X108725000Y-106200000D03*
G04 #@! TO.N,CC1*
X110100000Y-110800000D03*
X116100000Y-117400000D03*
G04 #@! TO.N,+3V3*
X105700000Y-103000000D03*
X106700000Y-103000000D03*
X103800000Y-102600000D03*
X102900000Y-102600000D03*
X116900000Y-108000000D03*
X116000000Y-108000000D03*
X118000000Y-107300000D03*
X100700000Y-109800000D03*
G04 #@! TO.N,NRST*
X101000000Y-117100000D03*
G04 #@! TO.N,SBU_ENABLE*
X132650000Y-114150000D03*
G04 #@! TO.N,LEDA2*
X116100000Y-102800000D03*
X115300000Y-102700000D03*
X124300000Y-107800000D03*
X124350000Y-107150000D03*
X131200000Y-109100000D03*
X128599999Y-107162500D03*
G04 #@! TO.N,LEDA1*
X124400000Y-104700000D03*
X125400000Y-101600000D03*
G04 #@! TO.N,LEDC1*
X114475000Y-103275000D03*
X120200000Y-105000000D03*
X114175000Y-102600000D03*
X119450000Y-105050000D03*
G04 #@! TO.N,LEDC2*
X120200000Y-107000000D03*
X112074992Y-103300008D03*
X112375000Y-102500000D03*
X120200000Y-106200000D03*
G04 #@! TO.N,HPD*
X103000000Y-105500000D03*
X104100000Y-110900000D03*
G04 #@! TO.N,Net-(TP2-Pad1)*
X123700000Y-115800000D03*
G04 #@! TO.N,Net-(TP1-Pad1)*
X123800000Y-113700000D03*
G04 #@! TO.N,+5V*
X136950000Y-104950000D03*
X136950000Y-104200000D03*
X136800000Y-103500000D03*
X136337499Y-103037499D03*
G04 #@! TO.N,+3V3*
X135700000Y-116500000D03*
X138425000Y-116500000D03*
X125100000Y-111200000D03*
X122900000Y-119600000D03*
X123700000Y-110100000D03*
G04 #@! TO.N,NRST*
X132899975Y-118200025D03*
G04 #@! TO.N,SBU_ENABLE*
X136770010Y-115050000D03*
X137500000Y-119900000D03*
X102500000Y-109819998D03*
G04 #@! TO.N,_DP_AUX_N*
X130400000Y-111500000D03*
X105300000Y-109200000D03*
G04 #@! TO.N,Net-(C10-Pad1)*
X120850000Y-117850000D03*
X121200000Y-115900000D03*
G04 #@! TO.N,_DP_AUX_P*
X129669987Y-111500000D03*
X101100000Y-106300000D03*
G04 #@! TO.N,CC_RX*
X131850000Y-112400000D03*
X124150000Y-111350000D03*
G04 #@! TO.N,STM_HPD*
X129600000Y-120270000D03*
X104700000Y-115900000D03*
G04 #@! TO.N,PWM*
X128750000Y-110600000D03*
X125350000Y-106900000D03*
G04 #@! TO.N,DFU*
X128800000Y-120270000D03*
X135600000Y-120150000D03*
G04 #@! TO.N,CC_TX*
X127000000Y-120270000D03*
X120950000Y-113600000D03*
G04 #@! TO.N,Net-(D3-Pad1)*
X133900000Y-111900000D03*
X138300000Y-107350000D03*
G04 #@! TO.N,/_L3_N*
X109128768Y-108028768D03*
X108775346Y-116255002D03*
G04 #@! TO.N,/_L3_P*
X109871232Y-108771232D03*
X107725346Y-116255002D03*
G04 #@! TD*
D10*
G04 #@! TO.N,GND*
G36*
X101969469Y-100310000D02*
X138030531Y-100310000D01*
X138082326Y-100299697D01*
X138480529Y-100356724D01*
X138922426Y-100557643D01*
X139290172Y-100874513D01*
X139554199Y-101281858D01*
X139696112Y-101756379D01*
X139705978Y-101889149D01*
X139690001Y-101969469D01*
X139690000Y-118830530D01*
X139700303Y-118882326D01*
X139643276Y-119280530D01*
X139442358Y-119722424D01*
X139125486Y-120090172D01*
X138718145Y-120354198D01*
X138243619Y-120496112D01*
X138110855Y-120505978D01*
X138030531Y-120490000D01*
X135981249Y-120490000D01*
X136032357Y-120438892D01*
X136110000Y-120251445D01*
X136110000Y-120048555D01*
X136032357Y-119861108D01*
X135969804Y-119798555D01*
X136990000Y-119798555D01*
X136990000Y-120001445D01*
X137067643Y-120188892D01*
X137211108Y-120332357D01*
X137398555Y-120410000D01*
X137601445Y-120410000D01*
X137788892Y-120332357D01*
X137932357Y-120188892D01*
X138010000Y-120001445D01*
X138010000Y-119798555D01*
X137932357Y-119611108D01*
X137788892Y-119467643D01*
X137601445Y-119390000D01*
X137398555Y-119390000D01*
X137211108Y-119467643D01*
X137067643Y-119611108D01*
X136990000Y-119798555D01*
X135969804Y-119798555D01*
X135888892Y-119717643D01*
X135701445Y-119640000D01*
X135498555Y-119640000D01*
X135311108Y-119717643D01*
X135167643Y-119861108D01*
X135090000Y-120048555D01*
X135090000Y-120251445D01*
X135167643Y-120438892D01*
X135218751Y-120490000D01*
X130060893Y-120490000D01*
X130110000Y-120371445D01*
X130110000Y-120168555D01*
X130032357Y-119981108D01*
X129888892Y-119837643D01*
X129701445Y-119760000D01*
X129498555Y-119760000D01*
X129311108Y-119837643D01*
X129200000Y-119948751D01*
X129088892Y-119837643D01*
X128901445Y-119760000D01*
X128698555Y-119760000D01*
X128511108Y-119837643D01*
X128367643Y-119981108D01*
X128290000Y-120168555D01*
X128290000Y-120371445D01*
X128339107Y-120490000D01*
X127460893Y-120490000D01*
X127510000Y-120371445D01*
X127510000Y-120168555D01*
X127432357Y-119981108D01*
X127288892Y-119837643D01*
X127101445Y-119760000D01*
X126898555Y-119760000D01*
X126711108Y-119837643D01*
X126567643Y-119981108D01*
X126490000Y-120168555D01*
X126490000Y-120371445D01*
X126539107Y-120490000D01*
X101969469Y-120490000D01*
X101917674Y-120500303D01*
X101519470Y-120443276D01*
X101077576Y-120242358D01*
X100709828Y-119925486D01*
X100445802Y-119518145D01*
X100410533Y-119400212D01*
X101081240Y-119400212D01*
X101081240Y-119679788D01*
X101188229Y-119938082D01*
X101385918Y-120135771D01*
X101644212Y-120242760D01*
X101923788Y-120242760D01*
X102182082Y-120135771D01*
X102379771Y-119938082D01*
X102486760Y-119679788D01*
X102486760Y-119400212D01*
X103113240Y-119400212D01*
X103113240Y-119679788D01*
X103220229Y-119938082D01*
X103417918Y-120135771D01*
X103676212Y-120242760D01*
X103955788Y-120242760D01*
X104214082Y-120135771D01*
X104411771Y-119938082D01*
X104518760Y-119679788D01*
X104518760Y-119400212D01*
X104411771Y-119141918D01*
X104269853Y-119000000D01*
X105430000Y-119000000D01*
X105430000Y-119839783D01*
X105460449Y-119913291D01*
X105516710Y-119969552D01*
X105590218Y-120000000D01*
X105855000Y-120000000D01*
X105905000Y-119950000D01*
X105905000Y-118950000D01*
X106455000Y-118950000D01*
X106455000Y-119950000D01*
X106505000Y-120000000D01*
X106769782Y-120000000D01*
X106843290Y-119969552D01*
X106899551Y-119913291D01*
X106930000Y-119839783D01*
X106930000Y-119000000D01*
X114070000Y-119000000D01*
X114070000Y-119839783D01*
X114100449Y-119913291D01*
X114156710Y-119969552D01*
X114230218Y-120000000D01*
X114495000Y-120000000D01*
X114545000Y-119950000D01*
X114545000Y-118950000D01*
X115095000Y-118950000D01*
X115095000Y-119950000D01*
X115145000Y-120000000D01*
X115409782Y-120000000D01*
X115483290Y-119969552D01*
X115539551Y-119913291D01*
X115570000Y-119839783D01*
X115570000Y-119498555D01*
X122390000Y-119498555D01*
X122390000Y-119701445D01*
X122467643Y-119888892D01*
X122611108Y-120032357D01*
X122798555Y-120110000D01*
X123001445Y-120110000D01*
X123188892Y-120032357D01*
X123332357Y-119888892D01*
X123410000Y-119701445D01*
X123410000Y-119498555D01*
X123332357Y-119311108D01*
X123188892Y-119167643D01*
X123001445Y-119090000D01*
X122798555Y-119090000D01*
X122611108Y-119167643D01*
X122467643Y-119311108D01*
X122390000Y-119498555D01*
X115570000Y-119498555D01*
X115570000Y-119000000D01*
X115520000Y-118950000D01*
X115095000Y-118950000D01*
X114545000Y-118950000D01*
X114120000Y-118950000D01*
X114070000Y-119000000D01*
X106930000Y-119000000D01*
X106880000Y-118950000D01*
X106455000Y-118950000D01*
X105905000Y-118950000D01*
X105480000Y-118950000D01*
X105430000Y-119000000D01*
X104269853Y-119000000D01*
X104214082Y-118944229D01*
X103955788Y-118837240D01*
X103676212Y-118837240D01*
X103417918Y-118944229D01*
X103220229Y-119141918D01*
X103113240Y-119400212D01*
X102486760Y-119400212D01*
X102379771Y-119141918D01*
X102182082Y-118944229D01*
X101923788Y-118837240D01*
X101644212Y-118837240D01*
X101385918Y-118944229D01*
X101188229Y-119141918D01*
X101081240Y-119400212D01*
X100410533Y-119400212D01*
X100303888Y-119043619D01*
X100294022Y-118910855D01*
X100310000Y-118830531D01*
X100310000Y-116998555D01*
X100490000Y-116998555D01*
X100490000Y-117201445D01*
X100567643Y-117388892D01*
X100711108Y-117532357D01*
X100898555Y-117610000D01*
X101101445Y-117610000D01*
X101288892Y-117532357D01*
X101432357Y-117388892D01*
X101444234Y-117360217D01*
X105430000Y-117360217D01*
X105430000Y-118200000D01*
X105480000Y-118250000D01*
X105905000Y-118250000D01*
X105905000Y-117250000D01*
X106455000Y-117250000D01*
X106455000Y-118250000D01*
X106880000Y-118250000D01*
X106930000Y-118200000D01*
X106930000Y-117360217D01*
X106899551Y-117286709D01*
X106843290Y-117230448D01*
X106769782Y-117200000D01*
X106505000Y-117200000D01*
X106455000Y-117250000D01*
X105905000Y-117250000D01*
X105855000Y-117200000D01*
X105590218Y-117200000D01*
X105516710Y-117230448D01*
X105460449Y-117286709D01*
X105430000Y-117360217D01*
X101444234Y-117360217D01*
X101510000Y-117201445D01*
X101510000Y-117098555D01*
X107990000Y-117098555D01*
X107990000Y-117301445D01*
X108067643Y-117488892D01*
X108211108Y-117632357D01*
X108398555Y-117710000D01*
X108601445Y-117710000D01*
X108788892Y-117632357D01*
X108932357Y-117488892D01*
X109010000Y-117301445D01*
X109010000Y-117231249D01*
X109111108Y-117332357D01*
X109298555Y-117410000D01*
X109501445Y-117410000D01*
X109688892Y-117332357D01*
X109832357Y-117188892D01*
X109910000Y-117001445D01*
X109910000Y-116798555D01*
X110890000Y-116798555D01*
X110890000Y-117001445D01*
X110967643Y-117188892D01*
X111111108Y-117332357D01*
X111298555Y-117410000D01*
X111501445Y-117410000D01*
X111688892Y-117332357D01*
X111832357Y-117188892D01*
X111890000Y-117049729D01*
X111890000Y-117101445D01*
X111967643Y-117288892D01*
X112111108Y-117432357D01*
X112298555Y-117510000D01*
X112501445Y-117510000D01*
X112688892Y-117432357D01*
X112761032Y-117360217D01*
X114070000Y-117360217D01*
X114070000Y-118200000D01*
X114120000Y-118250000D01*
X114545000Y-118250000D01*
X114545000Y-117250000D01*
X115095000Y-117250000D01*
X115095000Y-118250000D01*
X115520000Y-118250000D01*
X115570000Y-118200000D01*
X115570000Y-117360217D01*
X115544458Y-117298555D01*
X115590000Y-117298555D01*
X115590000Y-117501445D01*
X115667643Y-117688892D01*
X115811108Y-117832357D01*
X115998555Y-117910000D01*
X116201445Y-117910000D01*
X116388892Y-117832357D01*
X116472694Y-117748555D01*
X120340000Y-117748555D01*
X120340000Y-117951445D01*
X120417643Y-118138892D01*
X120561108Y-118282357D01*
X120748555Y-118360000D01*
X120951445Y-118360000D01*
X121138892Y-118282357D01*
X121282357Y-118138892D01*
X121299054Y-118098580D01*
X132389975Y-118098580D01*
X132389975Y-118301470D01*
X132467618Y-118488917D01*
X132611083Y-118632382D01*
X132798530Y-118710025D01*
X133001420Y-118710025D01*
X133188867Y-118632382D01*
X133332332Y-118488917D01*
X133409975Y-118301470D01*
X133409975Y-118098580D01*
X133332332Y-117911133D01*
X133188867Y-117767668D01*
X133001420Y-117690025D01*
X132798530Y-117690025D01*
X132611083Y-117767668D01*
X132467618Y-117911133D01*
X132389975Y-118098580D01*
X121299054Y-118098580D01*
X121360000Y-117951445D01*
X121360000Y-117748555D01*
X121282357Y-117561108D01*
X121138892Y-117417643D01*
X120951445Y-117340000D01*
X120748555Y-117340000D01*
X120561108Y-117417643D01*
X120417643Y-117561108D01*
X120340000Y-117748555D01*
X116472694Y-117748555D01*
X116532357Y-117688892D01*
X116610000Y-117501445D01*
X116610000Y-117298555D01*
X116532357Y-117111108D01*
X116469804Y-117048555D01*
X117590000Y-117048555D01*
X117590000Y-117251445D01*
X117667643Y-117438892D01*
X117811108Y-117582357D01*
X117998555Y-117660000D01*
X118201445Y-117660000D01*
X118388892Y-117582357D01*
X118532357Y-117438892D01*
X118610000Y-117251445D01*
X118610000Y-117048555D01*
X118532357Y-116861108D01*
X118388892Y-116717643D01*
X118201445Y-116640000D01*
X117998555Y-116640000D01*
X117811108Y-116717643D01*
X117667643Y-116861108D01*
X117590000Y-117048555D01*
X116469804Y-117048555D01*
X116388892Y-116967643D01*
X116201445Y-116890000D01*
X115998555Y-116890000D01*
X115811108Y-116967643D01*
X115667643Y-117111108D01*
X115590000Y-117298555D01*
X115544458Y-117298555D01*
X115539551Y-117286709D01*
X115483290Y-117230448D01*
X115409782Y-117200000D01*
X115145000Y-117200000D01*
X115095000Y-117250000D01*
X114545000Y-117250000D01*
X114495000Y-117200000D01*
X114230218Y-117200000D01*
X114156710Y-117230448D01*
X114100449Y-117286709D01*
X114070000Y-117360217D01*
X112761032Y-117360217D01*
X112832357Y-117288892D01*
X112910000Y-117101445D01*
X112910000Y-116898555D01*
X112832357Y-116711108D01*
X112731249Y-116610000D01*
X112901445Y-116610000D01*
X113088892Y-116532357D01*
X113232357Y-116388892D01*
X113310000Y-116201445D01*
X113310000Y-115998555D01*
X113232357Y-115811108D01*
X113088892Y-115667643D01*
X112901445Y-115590000D01*
X112698555Y-115590000D01*
X112511108Y-115667643D01*
X112400000Y-115778751D01*
X112288892Y-115667643D01*
X112101445Y-115590000D01*
X111898555Y-115590000D01*
X111711108Y-115667643D01*
X111567643Y-115811108D01*
X111490000Y-115998555D01*
X111490000Y-116201445D01*
X111567643Y-116388892D01*
X111616343Y-116437592D01*
X111501445Y-116390000D01*
X111298555Y-116390000D01*
X111111108Y-116467643D01*
X110967643Y-116611108D01*
X110890000Y-116798555D01*
X109910000Y-116798555D01*
X109832357Y-116611108D01*
X109688892Y-116467643D01*
X109501445Y-116390000D01*
X109298555Y-116390000D01*
X109265834Y-116403554D01*
X109285346Y-116356447D01*
X109285346Y-116153557D01*
X109207703Y-115966110D01*
X109064238Y-115822645D01*
X108876791Y-115745002D01*
X108673901Y-115745002D01*
X108486454Y-115822645D01*
X108342989Y-115966110D01*
X108265346Y-116153557D01*
X108265346Y-116356447D01*
X108342989Y-116543894D01*
X108486454Y-116687359D01*
X108492830Y-116690000D01*
X108398555Y-116690000D01*
X108211108Y-116767643D01*
X108067643Y-116911108D01*
X107990000Y-117098555D01*
X101510000Y-117098555D01*
X101510000Y-116998555D01*
X101432357Y-116811108D01*
X101288892Y-116667643D01*
X101101445Y-116590000D01*
X100898555Y-116590000D01*
X100711108Y-116667643D01*
X100567643Y-116811108D01*
X100490000Y-116998555D01*
X100310000Y-116998555D01*
X100310000Y-115798555D01*
X104190000Y-115798555D01*
X104190000Y-116001445D01*
X104267643Y-116188892D01*
X104411108Y-116332357D01*
X104598555Y-116410000D01*
X104801445Y-116410000D01*
X104988892Y-116332357D01*
X105132357Y-116188892D01*
X105210000Y-116001445D01*
X105210000Y-115798555D01*
X105132357Y-115611108D01*
X104988892Y-115467643D01*
X104801445Y-115390000D01*
X104598555Y-115390000D01*
X104411108Y-115467643D01*
X104267643Y-115611108D01*
X104190000Y-115798555D01*
X100310000Y-115798555D01*
X100310000Y-114319960D01*
X102095970Y-114319960D01*
X102095970Y-114600040D01*
X102203152Y-114858801D01*
X102401199Y-115056848D01*
X102659960Y-115164030D01*
X102940040Y-115164030D01*
X103198801Y-115056848D01*
X103396848Y-114858801D01*
X103504030Y-114600040D01*
X103504030Y-114319960D01*
X103396848Y-114061199D01*
X103198801Y-113863152D01*
X102940040Y-113755970D01*
X102659960Y-113755970D01*
X102401199Y-113863152D01*
X102203152Y-114061199D01*
X102095970Y-114319960D01*
X100310000Y-114319960D01*
X100310000Y-112960217D01*
X105430000Y-112960217D01*
X105430000Y-113650000D01*
X105476425Y-113696425D01*
X105450000Y-113760217D01*
X105450000Y-114075000D01*
X105474998Y-114099998D01*
X105450000Y-114099998D01*
X105450000Y-114430000D01*
X105430000Y-114450000D01*
X105430000Y-115139783D01*
X105460449Y-115213291D01*
X105516710Y-115269552D01*
X105590218Y-115300000D01*
X106050000Y-115300000D01*
X106100000Y-115250000D01*
X106100000Y-114775000D01*
X106080000Y-114775000D01*
X106080000Y-114125000D01*
X106100000Y-114125000D01*
X106100000Y-113650000D01*
X106050000Y-113600000D01*
X105905000Y-113600000D01*
X105905000Y-112850000D01*
X106455000Y-112850000D01*
X106455000Y-113700000D01*
X106550000Y-113700000D01*
X106550000Y-114400000D01*
X106455000Y-114400000D01*
X106455000Y-115250000D01*
X106505000Y-115300000D01*
X106761962Y-115300000D01*
X106710031Y-115351931D01*
X106640000Y-115521000D01*
X106640000Y-115704000D01*
X106710031Y-115873069D01*
X106839431Y-116002469D01*
X107008500Y-116072500D01*
X107191500Y-116072500D01*
X107260813Y-116043789D01*
X107215346Y-116153557D01*
X107215346Y-116356447D01*
X107292989Y-116543894D01*
X107436454Y-116687359D01*
X107623901Y-116765002D01*
X107826791Y-116765002D01*
X108014238Y-116687359D01*
X108157703Y-116543894D01*
X108235346Y-116356447D01*
X108235346Y-116153557D01*
X108157703Y-115966110D01*
X108014238Y-115822645D01*
X107826791Y-115745002D01*
X107623901Y-115745002D01*
X107526265Y-115785444D01*
X107560000Y-115704000D01*
X107560000Y-115598555D01*
X109685010Y-115598555D01*
X109685010Y-115801445D01*
X109762653Y-115988892D01*
X109906118Y-116132357D01*
X110093565Y-116210000D01*
X110296455Y-116210000D01*
X110483902Y-116132357D01*
X110627367Y-115988892D01*
X110705010Y-115801445D01*
X110705010Y-115598555D01*
X110672886Y-115521000D01*
X113440000Y-115521000D01*
X113440000Y-115704000D01*
X113510031Y-115873069D01*
X113639431Y-116002469D01*
X113808500Y-116072500D01*
X113991500Y-116072500D01*
X114160569Y-116002469D01*
X114289969Y-115873069D01*
X114300123Y-115848555D01*
X119540000Y-115848555D01*
X119540000Y-116051445D01*
X119617643Y-116238892D01*
X119761108Y-116382357D01*
X119948555Y-116460000D01*
X120151445Y-116460000D01*
X120338892Y-116382357D01*
X120482357Y-116238892D01*
X120560000Y-116051445D01*
X120560000Y-115848555D01*
X120539290Y-115798555D01*
X120690000Y-115798555D01*
X120690000Y-116001445D01*
X120767643Y-116188892D01*
X120911108Y-116332357D01*
X121098555Y-116410000D01*
X121301445Y-116410000D01*
X121329075Y-116398555D01*
X135190000Y-116398555D01*
X135190000Y-116601445D01*
X135267643Y-116788892D01*
X135411108Y-116932357D01*
X135598555Y-117010000D01*
X135801445Y-117010000D01*
X135988892Y-116932357D01*
X136132357Y-116788892D01*
X136210000Y-116601445D01*
X136210000Y-116398555D01*
X137915000Y-116398555D01*
X137915000Y-116601445D01*
X137992643Y-116788892D01*
X138136108Y-116932357D01*
X138323555Y-117010000D01*
X138526445Y-117010000D01*
X138713892Y-116932357D01*
X138857357Y-116788892D01*
X138935000Y-116601445D01*
X138935000Y-116398555D01*
X138857357Y-116211108D01*
X138713892Y-116067643D01*
X138526445Y-115990000D01*
X138323555Y-115990000D01*
X138136108Y-116067643D01*
X137992643Y-116211108D01*
X137915000Y-116398555D01*
X136210000Y-116398555D01*
X136132357Y-116211108D01*
X135988892Y-116067643D01*
X135801445Y-115990000D01*
X135598555Y-115990000D01*
X135411108Y-116067643D01*
X135267643Y-116211108D01*
X135190000Y-116398555D01*
X121329075Y-116398555D01*
X121488892Y-116332357D01*
X121632357Y-116188892D01*
X121710000Y-116001445D01*
X121710000Y-115798555D01*
X121668579Y-115698555D01*
X123190000Y-115698555D01*
X123190000Y-115901445D01*
X123267643Y-116088892D01*
X123411108Y-116232357D01*
X123598555Y-116310000D01*
X123801445Y-116310000D01*
X123988892Y-116232357D01*
X124132357Y-116088892D01*
X124210000Y-115901445D01*
X124210000Y-115698555D01*
X124132357Y-115511108D01*
X123988892Y-115367643D01*
X123801445Y-115290000D01*
X123598555Y-115290000D01*
X123411108Y-115367643D01*
X123267643Y-115511108D01*
X123190000Y-115698555D01*
X121668579Y-115698555D01*
X121632357Y-115611108D01*
X121488892Y-115467643D01*
X121301445Y-115390000D01*
X121098555Y-115390000D01*
X120911108Y-115467643D01*
X120767643Y-115611108D01*
X120690000Y-115798555D01*
X120539290Y-115798555D01*
X120482357Y-115661108D01*
X120338892Y-115517643D01*
X120151445Y-115440000D01*
X119948555Y-115440000D01*
X119761108Y-115517643D01*
X119617643Y-115661108D01*
X119540000Y-115848555D01*
X114300123Y-115848555D01*
X114360000Y-115704000D01*
X114360000Y-115521000D01*
X114289969Y-115351931D01*
X114238038Y-115300000D01*
X114495000Y-115300000D01*
X114545000Y-115250000D01*
X114545000Y-114400000D01*
X114450000Y-114400000D01*
X114450000Y-113700000D01*
X114545000Y-113700000D01*
X114545000Y-113650000D01*
X114900000Y-113650000D01*
X114900000Y-114125000D01*
X114920000Y-114125000D01*
X114920000Y-114775000D01*
X114900000Y-114775000D01*
X114900000Y-115250000D01*
X114950000Y-115300000D01*
X115409782Y-115300000D01*
X115483290Y-115269552D01*
X115539551Y-115213291D01*
X115570000Y-115139783D01*
X115570000Y-114948555D01*
X136260010Y-114948555D01*
X136260010Y-115151445D01*
X136337653Y-115338892D01*
X136481118Y-115482357D01*
X136668565Y-115560000D01*
X136871455Y-115560000D01*
X137058902Y-115482357D01*
X137202367Y-115338892D01*
X137280010Y-115151445D01*
X137280010Y-114948555D01*
X137202367Y-114761108D01*
X137058902Y-114617643D01*
X136871455Y-114540000D01*
X136668565Y-114540000D01*
X136481118Y-114617643D01*
X136337653Y-114761108D01*
X136260010Y-114948555D01*
X115570000Y-114948555D01*
X115570000Y-114450000D01*
X115550000Y-114430000D01*
X115550000Y-114099998D01*
X115525002Y-114099998D01*
X115550000Y-114075000D01*
X115550000Y-113760217D01*
X115523575Y-113696425D01*
X115570000Y-113650000D01*
X115570000Y-113498555D01*
X120440000Y-113498555D01*
X120440000Y-113701445D01*
X120517643Y-113888892D01*
X120661108Y-114032357D01*
X120848555Y-114110000D01*
X121051445Y-114110000D01*
X121238892Y-114032357D01*
X121382357Y-113888892D01*
X121460000Y-113701445D01*
X121460000Y-113598555D01*
X123290000Y-113598555D01*
X123290000Y-113801445D01*
X123367643Y-113988892D01*
X123511108Y-114132357D01*
X123698555Y-114210000D01*
X123901445Y-114210000D01*
X124088892Y-114132357D01*
X124172694Y-114048555D01*
X132140000Y-114048555D01*
X132140000Y-114251445D01*
X132217643Y-114438892D01*
X132361108Y-114582357D01*
X132548555Y-114660000D01*
X132751445Y-114660000D01*
X132938892Y-114582357D01*
X133082357Y-114438892D01*
X133160000Y-114251445D01*
X133160000Y-114048555D01*
X133082357Y-113861108D01*
X132938892Y-113717643D01*
X132751445Y-113640000D01*
X132548555Y-113640000D01*
X132361108Y-113717643D01*
X132217643Y-113861108D01*
X132140000Y-114048555D01*
X124172694Y-114048555D01*
X124232357Y-113988892D01*
X124310000Y-113801445D01*
X124310000Y-113598555D01*
X124232357Y-113411108D01*
X124088892Y-113267643D01*
X123901445Y-113190000D01*
X123698555Y-113190000D01*
X123511108Y-113267643D01*
X123367643Y-113411108D01*
X123290000Y-113598555D01*
X121460000Y-113598555D01*
X121460000Y-113498555D01*
X121382357Y-113311108D01*
X121238892Y-113167643D01*
X121051445Y-113090000D01*
X120848555Y-113090000D01*
X120661108Y-113167643D01*
X120517643Y-113311108D01*
X120440000Y-113498555D01*
X115570000Y-113498555D01*
X115570000Y-112960217D01*
X115539551Y-112886709D01*
X115483290Y-112830448D01*
X115409782Y-112800000D01*
X115145000Y-112800000D01*
X115095000Y-112850000D01*
X115095000Y-113600000D01*
X114950000Y-113600000D01*
X114900000Y-113650000D01*
X114545000Y-113650000D01*
X114545000Y-112850000D01*
X114495000Y-112800000D01*
X114230218Y-112800000D01*
X114156710Y-112830448D01*
X114100449Y-112886709D01*
X114070000Y-112960217D01*
X114070000Y-113600000D01*
X113710218Y-113600000D01*
X113636710Y-113630448D01*
X113580449Y-113686709D01*
X113550000Y-113760217D01*
X113550000Y-114075000D01*
X113600000Y-114125000D01*
X114070000Y-114125000D01*
X114070000Y-114400002D01*
X114119998Y-114400002D01*
X114070000Y-114450000D01*
X114070000Y-114775000D01*
X113600000Y-114775000D01*
X113550000Y-114825000D01*
X113550000Y-115139783D01*
X113580449Y-115213291D01*
X113614560Y-115247402D01*
X113510031Y-115351931D01*
X113440000Y-115521000D01*
X110672886Y-115521000D01*
X110627367Y-115411108D01*
X110483902Y-115267643D01*
X110296455Y-115190000D01*
X110093565Y-115190000D01*
X109906118Y-115267643D01*
X109762653Y-115411108D01*
X109685010Y-115598555D01*
X107560000Y-115598555D01*
X107560000Y-115521000D01*
X107489969Y-115351931D01*
X107385440Y-115247402D01*
X107419551Y-115213291D01*
X107450000Y-115139783D01*
X107450000Y-114825000D01*
X107400000Y-114775000D01*
X106930000Y-114775000D01*
X106930000Y-114450000D01*
X106880002Y-114400002D01*
X106930000Y-114400002D01*
X106930000Y-114125000D01*
X107400000Y-114125000D01*
X107450000Y-114075000D01*
X107450000Y-113760217D01*
X107419551Y-113686709D01*
X107363290Y-113630448D01*
X107289782Y-113600000D01*
X106930000Y-113600000D01*
X106930000Y-112960217D01*
X106899551Y-112886709D01*
X106843290Y-112830448D01*
X106769782Y-112800000D01*
X106505000Y-112800000D01*
X106455000Y-112850000D01*
X105905000Y-112850000D01*
X105855000Y-112800000D01*
X105590218Y-112800000D01*
X105516710Y-112830448D01*
X105460449Y-112886709D01*
X105430000Y-112960217D01*
X100310000Y-112960217D01*
X100310000Y-112298555D01*
X110290000Y-112298555D01*
X110290000Y-112501445D01*
X110367643Y-112688892D01*
X110511108Y-112832357D01*
X110698555Y-112910000D01*
X110901445Y-112910000D01*
X111088892Y-112832357D01*
X111232357Y-112688892D01*
X111310000Y-112501445D01*
X111310000Y-112473319D01*
X111398555Y-112510000D01*
X111601445Y-112510000D01*
X111788892Y-112432357D01*
X111932357Y-112288892D01*
X112010000Y-112101445D01*
X112010000Y-111898555D01*
X111932357Y-111711108D01*
X111788892Y-111567643D01*
X111601445Y-111490000D01*
X111398555Y-111490000D01*
X111211108Y-111567643D01*
X111067643Y-111711108D01*
X110990000Y-111898555D01*
X110990000Y-111926681D01*
X110901445Y-111890000D01*
X110698555Y-111890000D01*
X110511108Y-111967643D01*
X110367643Y-112111108D01*
X110290000Y-112298555D01*
X100310000Y-112298555D01*
X100310000Y-110798555D01*
X103590000Y-110798555D01*
X103590000Y-111001445D01*
X103667643Y-111188892D01*
X103811108Y-111332357D01*
X103998555Y-111410000D01*
X104201445Y-111410000D01*
X104388892Y-111332357D01*
X104532357Y-111188892D01*
X104610000Y-111001445D01*
X104610000Y-110798555D01*
X104568363Y-110698034D01*
X108389479Y-110698034D01*
X108389479Y-110900924D01*
X108467122Y-111088371D01*
X108610587Y-111231836D01*
X108798034Y-111309479D01*
X108990521Y-111309479D01*
X108990521Y-111501966D01*
X109068164Y-111689413D01*
X109211629Y-111832878D01*
X109399076Y-111910521D01*
X109601966Y-111910521D01*
X109789413Y-111832878D01*
X109932878Y-111689413D01*
X110010521Y-111501966D01*
X110010521Y-111310000D01*
X110201445Y-111310000D01*
X110388892Y-111232357D01*
X110532357Y-111088892D01*
X110610000Y-110901445D01*
X110610000Y-110698555D01*
X110568579Y-110598555D01*
X119290000Y-110598555D01*
X119290000Y-110801445D01*
X119367643Y-110988892D01*
X119428751Y-111050000D01*
X119367643Y-111111108D01*
X119290000Y-111298555D01*
X119290000Y-111501445D01*
X119367643Y-111688892D01*
X119428751Y-111750000D01*
X119367643Y-111811108D01*
X119290000Y-111998555D01*
X119290000Y-112201445D01*
X119367643Y-112388892D01*
X119511108Y-112532357D01*
X119698555Y-112610000D01*
X119901445Y-112610000D01*
X120088892Y-112532357D01*
X120232357Y-112388892D01*
X120269775Y-112298555D01*
X131340000Y-112298555D01*
X131340000Y-112501445D01*
X131417643Y-112688892D01*
X131561108Y-112832357D01*
X131748555Y-112910000D01*
X131951445Y-112910000D01*
X132138892Y-112832357D01*
X132282357Y-112688892D01*
X132360000Y-112501445D01*
X132360000Y-112298555D01*
X132282357Y-112111108D01*
X132138892Y-111967643D01*
X131951445Y-111890000D01*
X131748555Y-111890000D01*
X131561108Y-111967643D01*
X131417643Y-112111108D01*
X131340000Y-112298555D01*
X120269775Y-112298555D01*
X120310000Y-112201445D01*
X120310000Y-111998555D01*
X120232357Y-111811108D01*
X120171249Y-111750000D01*
X120232357Y-111688892D01*
X120310000Y-111501445D01*
X120310000Y-111298555D01*
X120289290Y-111248555D01*
X123640000Y-111248555D01*
X123640000Y-111451445D01*
X123717643Y-111638892D01*
X123861108Y-111782357D01*
X124048555Y-111860000D01*
X124251445Y-111860000D01*
X124438892Y-111782357D01*
X124582357Y-111638892D01*
X124656066Y-111460943D01*
X124667643Y-111488892D01*
X124811108Y-111632357D01*
X124998555Y-111710000D01*
X125201445Y-111710000D01*
X125388892Y-111632357D01*
X125532357Y-111488892D01*
X125569775Y-111398555D01*
X129159987Y-111398555D01*
X129159987Y-111601445D01*
X129237630Y-111788892D01*
X129381095Y-111932357D01*
X129568542Y-112010000D01*
X129771432Y-112010000D01*
X129958879Y-111932357D01*
X130034994Y-111856243D01*
X130111108Y-111932357D01*
X130298555Y-112010000D01*
X130501445Y-112010000D01*
X130688892Y-111932357D01*
X130822694Y-111798555D01*
X133390000Y-111798555D01*
X133390000Y-112001445D01*
X133467643Y-112188892D01*
X133611108Y-112332357D01*
X133798555Y-112410000D01*
X134001445Y-112410000D01*
X134188892Y-112332357D01*
X134332357Y-112188892D01*
X134410000Y-112001445D01*
X134410000Y-111798555D01*
X134332357Y-111611108D01*
X134188892Y-111467643D01*
X134001445Y-111390000D01*
X133798555Y-111390000D01*
X133611108Y-111467643D01*
X133467643Y-111611108D01*
X133390000Y-111798555D01*
X130822694Y-111798555D01*
X130832357Y-111788892D01*
X130910000Y-111601445D01*
X130910000Y-111398555D01*
X130832357Y-111211108D01*
X130688892Y-111067643D01*
X130501445Y-110990000D01*
X130298555Y-110990000D01*
X130111108Y-111067643D01*
X130034994Y-111143758D01*
X129958879Y-111067643D01*
X129771432Y-110990000D01*
X129568542Y-110990000D01*
X129381095Y-111067643D01*
X129237630Y-111211108D01*
X129159987Y-111398555D01*
X125569775Y-111398555D01*
X125610000Y-111301445D01*
X125610000Y-111098555D01*
X125532357Y-110911108D01*
X125388892Y-110767643D01*
X125201445Y-110690000D01*
X124998555Y-110690000D01*
X124811108Y-110767643D01*
X124667643Y-110911108D01*
X124593934Y-111089057D01*
X124582357Y-111061108D01*
X124438892Y-110917643D01*
X124251445Y-110840000D01*
X124048555Y-110840000D01*
X123861108Y-110917643D01*
X123717643Y-111061108D01*
X123640000Y-111248555D01*
X120289290Y-111248555D01*
X120232357Y-111111108D01*
X120171249Y-111050000D01*
X120232357Y-110988892D01*
X120310000Y-110801445D01*
X120310000Y-110598555D01*
X120232357Y-110411108D01*
X120088892Y-110267643D01*
X119901445Y-110190000D01*
X119698555Y-110190000D01*
X119511108Y-110267643D01*
X119367643Y-110411108D01*
X119290000Y-110598555D01*
X110568579Y-110598555D01*
X110532357Y-110511108D01*
X110388892Y-110367643D01*
X110201445Y-110290000D01*
X109998555Y-110290000D01*
X109811108Y-110367643D01*
X109667643Y-110511108D01*
X109590000Y-110698555D01*
X109590000Y-110890521D01*
X109409479Y-110890521D01*
X109409479Y-110698034D01*
X109331836Y-110510587D01*
X109188371Y-110367122D01*
X109000924Y-110289479D01*
X108798034Y-110289479D01*
X108610587Y-110367122D01*
X108467122Y-110510587D01*
X108389479Y-110698034D01*
X104568363Y-110698034D01*
X104532357Y-110611108D01*
X104388892Y-110467643D01*
X104201445Y-110390000D01*
X103998555Y-110390000D01*
X103811108Y-110467643D01*
X103667643Y-110611108D01*
X103590000Y-110798555D01*
X100310000Y-110798555D01*
X100310000Y-110131249D01*
X100411108Y-110232357D01*
X100598555Y-110310000D01*
X100801445Y-110310000D01*
X100988892Y-110232357D01*
X101132357Y-110088892D01*
X101210000Y-109901445D01*
X101210000Y-109718553D01*
X101990000Y-109718553D01*
X101990000Y-109921443D01*
X102067643Y-110108890D01*
X102211108Y-110252355D01*
X102398555Y-110329998D01*
X102601445Y-110329998D01*
X102788892Y-110252355D01*
X102932357Y-110108890D01*
X103010000Y-109921443D01*
X103010000Y-109718553D01*
X102960296Y-109598555D01*
X103290000Y-109598555D01*
X103290000Y-109801445D01*
X103367643Y-109988892D01*
X103511108Y-110132357D01*
X103698555Y-110210000D01*
X103901445Y-110210000D01*
X104088892Y-110132357D01*
X104222694Y-109998555D01*
X123190000Y-109998555D01*
X123190000Y-110201445D01*
X123267643Y-110388892D01*
X123411108Y-110532357D01*
X123598555Y-110610000D01*
X123801445Y-110610000D01*
X123988892Y-110532357D01*
X124022694Y-110498555D01*
X128240000Y-110498555D01*
X128240000Y-110701445D01*
X128317643Y-110888892D01*
X128461108Y-111032357D01*
X128648555Y-111110000D01*
X128851445Y-111110000D01*
X129038892Y-111032357D01*
X129182357Y-110888892D01*
X129260000Y-110701445D01*
X129260000Y-110498555D01*
X129182357Y-110311108D01*
X129038892Y-110167643D01*
X128851445Y-110090000D01*
X128648555Y-110090000D01*
X128461108Y-110167643D01*
X128317643Y-110311108D01*
X128240000Y-110498555D01*
X124022694Y-110498555D01*
X124132357Y-110388892D01*
X124210000Y-110201445D01*
X124210000Y-109998555D01*
X124132357Y-109811108D01*
X123988892Y-109667643D01*
X123801445Y-109590000D01*
X123598555Y-109590000D01*
X123411108Y-109667643D01*
X123267643Y-109811108D01*
X123190000Y-109998555D01*
X104222694Y-109998555D01*
X104232357Y-109988892D01*
X104310000Y-109801445D01*
X104310000Y-109598555D01*
X104232357Y-109411108D01*
X104088892Y-109267643D01*
X103901445Y-109190000D01*
X103698555Y-109190000D01*
X103511108Y-109267643D01*
X103367643Y-109411108D01*
X103290000Y-109598555D01*
X102960296Y-109598555D01*
X102932357Y-109531106D01*
X102788892Y-109387641D01*
X102601445Y-109309998D01*
X102398555Y-109309998D01*
X102211108Y-109387641D01*
X102067643Y-109531106D01*
X101990000Y-109718553D01*
X101210000Y-109718553D01*
X101210000Y-109698555D01*
X101132357Y-109511108D01*
X100988892Y-109367643D01*
X100801445Y-109290000D01*
X100598555Y-109290000D01*
X100411108Y-109367643D01*
X100310000Y-109468751D01*
X100310000Y-109098555D01*
X104790000Y-109098555D01*
X104790000Y-109301445D01*
X104867643Y-109488892D01*
X105011108Y-109632357D01*
X105198555Y-109710000D01*
X105401445Y-109710000D01*
X105588892Y-109632357D01*
X105732357Y-109488892D01*
X105810000Y-109301445D01*
X105810000Y-109098555D01*
X105732357Y-108911108D01*
X105588892Y-108767643D01*
X105401445Y-108690000D01*
X105198555Y-108690000D01*
X105011108Y-108767643D01*
X104867643Y-108911108D01*
X104790000Y-109098555D01*
X100310000Y-109098555D01*
X100310000Y-108669787D01*
X109361232Y-108669787D01*
X109361232Y-108872677D01*
X109438875Y-109060124D01*
X109582340Y-109203589D01*
X109769787Y-109281232D01*
X109972677Y-109281232D01*
X110160124Y-109203589D01*
X110303589Y-109060124D01*
X110329091Y-108998555D01*
X130690000Y-108998555D01*
X130690000Y-109201445D01*
X130767643Y-109388892D01*
X130911108Y-109532357D01*
X131098555Y-109610000D01*
X131301445Y-109610000D01*
X131488892Y-109532357D01*
X131632357Y-109388892D01*
X131710000Y-109201445D01*
X131710000Y-108998555D01*
X131632357Y-108811108D01*
X131488892Y-108667643D01*
X131301445Y-108590000D01*
X131098555Y-108590000D01*
X130911108Y-108667643D01*
X130767643Y-108811108D01*
X130690000Y-108998555D01*
X110329091Y-108998555D01*
X110381232Y-108872677D01*
X110381232Y-108669787D01*
X110303589Y-108482340D01*
X110160124Y-108338875D01*
X109972677Y-108261232D01*
X109769787Y-108261232D01*
X109582340Y-108338875D01*
X109438875Y-108482340D01*
X109361232Y-108669787D01*
X100310000Y-108669787D01*
X100310000Y-107927323D01*
X108618768Y-107927323D01*
X108618768Y-108130213D01*
X108696411Y-108317660D01*
X108839876Y-108461125D01*
X109027323Y-108538768D01*
X109230213Y-108538768D01*
X109417660Y-108461125D01*
X109561125Y-108317660D01*
X109638768Y-108130213D01*
X109638768Y-107927323D01*
X109626852Y-107898555D01*
X115490000Y-107898555D01*
X115490000Y-108101445D01*
X115567643Y-108288892D01*
X115711108Y-108432357D01*
X115898555Y-108510000D01*
X116101445Y-108510000D01*
X116288892Y-108432357D01*
X116432357Y-108288892D01*
X116450000Y-108246298D01*
X116467643Y-108288892D01*
X116611108Y-108432357D01*
X116798555Y-108510000D01*
X117001445Y-108510000D01*
X117188892Y-108432357D01*
X117332357Y-108288892D01*
X117410000Y-108101445D01*
X117410000Y-107898555D01*
X117332357Y-107711108D01*
X117188892Y-107567643D01*
X117001445Y-107490000D01*
X116798555Y-107490000D01*
X116611108Y-107567643D01*
X116467643Y-107711108D01*
X116450000Y-107753702D01*
X116432357Y-107711108D01*
X116288892Y-107567643D01*
X116101445Y-107490000D01*
X115898555Y-107490000D01*
X115711108Y-107567643D01*
X115567643Y-107711108D01*
X115490000Y-107898555D01*
X109626852Y-107898555D01*
X109561125Y-107739876D01*
X109417660Y-107596411D01*
X109230213Y-107518768D01*
X109027323Y-107518768D01*
X108839876Y-107596411D01*
X108696411Y-107739876D01*
X108618768Y-107927323D01*
X100310000Y-107927323D01*
X100310000Y-107098555D01*
X101890000Y-107098555D01*
X101890000Y-107301445D01*
X101967643Y-107488892D01*
X102111108Y-107632357D01*
X102298555Y-107710000D01*
X102501445Y-107710000D01*
X102688892Y-107632357D01*
X102832357Y-107488892D01*
X102910000Y-107301445D01*
X102910000Y-107198555D01*
X117490000Y-107198555D01*
X117490000Y-107401445D01*
X117567643Y-107588892D01*
X117711108Y-107732357D01*
X117898555Y-107810000D01*
X118101445Y-107810000D01*
X118288892Y-107732357D01*
X118322694Y-107698555D01*
X123790000Y-107698555D01*
X123790000Y-107901445D01*
X123867643Y-108088892D01*
X124011108Y-108232357D01*
X124198555Y-108310000D01*
X124401445Y-108310000D01*
X124588892Y-108232357D01*
X124732357Y-108088892D01*
X124810000Y-107901445D01*
X124810000Y-107698555D01*
X124732357Y-107511108D01*
X124721249Y-107500000D01*
X124782357Y-107438892D01*
X124860000Y-107251445D01*
X124860000Y-107049729D01*
X124917643Y-107188892D01*
X125061108Y-107332357D01*
X125248555Y-107410000D01*
X125451445Y-107410000D01*
X125638892Y-107332357D01*
X125782357Y-107188892D01*
X125835308Y-107061055D01*
X128089999Y-107061055D01*
X128089999Y-107263945D01*
X128167642Y-107451392D01*
X128311107Y-107594857D01*
X128498554Y-107672500D01*
X128701444Y-107672500D01*
X128888891Y-107594857D01*
X129032356Y-107451392D01*
X129109999Y-107263945D01*
X129109999Y-107248555D01*
X137790000Y-107248555D01*
X137790000Y-107451445D01*
X137867643Y-107638892D01*
X138011108Y-107782357D01*
X138198555Y-107860000D01*
X138401445Y-107860000D01*
X138588892Y-107782357D01*
X138732357Y-107638892D01*
X138810000Y-107451445D01*
X138810000Y-107248555D01*
X138732357Y-107061108D01*
X138588892Y-106917643D01*
X138401445Y-106840000D01*
X138198555Y-106840000D01*
X138011108Y-106917643D01*
X137867643Y-107061108D01*
X137790000Y-107248555D01*
X129109999Y-107248555D01*
X129109999Y-107061055D01*
X129032356Y-106873608D01*
X128888891Y-106730143D01*
X128701444Y-106652500D01*
X128498554Y-106652500D01*
X128311107Y-106730143D01*
X128167642Y-106873608D01*
X128089999Y-107061055D01*
X125835308Y-107061055D01*
X125860000Y-107001445D01*
X125860000Y-106798555D01*
X125782357Y-106611108D01*
X125638892Y-106467643D01*
X125451445Y-106390000D01*
X125248555Y-106390000D01*
X125061108Y-106467643D01*
X124917643Y-106611108D01*
X124840000Y-106798555D01*
X124840000Y-107000271D01*
X124782357Y-106861108D01*
X124638892Y-106717643D01*
X124451445Y-106640000D01*
X124248555Y-106640000D01*
X124061108Y-106717643D01*
X123917643Y-106861108D01*
X123840000Y-107048555D01*
X123840000Y-107251445D01*
X123917643Y-107438892D01*
X123928751Y-107450000D01*
X123867643Y-107511108D01*
X123790000Y-107698555D01*
X118322694Y-107698555D01*
X118432357Y-107588892D01*
X118510000Y-107401445D01*
X118510000Y-107198555D01*
X118432357Y-107011108D01*
X118288892Y-106867643D01*
X118101445Y-106790000D01*
X117898555Y-106790000D01*
X117711108Y-106867643D01*
X117567643Y-107011108D01*
X117490000Y-107198555D01*
X102910000Y-107198555D01*
X102910000Y-107098555D01*
X102832357Y-106911108D01*
X102688892Y-106767643D01*
X102501445Y-106690000D01*
X102298555Y-106690000D01*
X102111108Y-106767643D01*
X101967643Y-106911108D01*
X101890000Y-107098555D01*
X100310000Y-107098555D01*
X100310000Y-106198555D01*
X100590000Y-106198555D01*
X100590000Y-106401445D01*
X100667643Y-106588892D01*
X100811108Y-106732357D01*
X100998555Y-106810000D01*
X101201445Y-106810000D01*
X101388892Y-106732357D01*
X101532357Y-106588892D01*
X101610000Y-106401445D01*
X101610000Y-106198555D01*
X101568579Y-106098555D01*
X107365000Y-106098555D01*
X107365000Y-106301445D01*
X107442643Y-106488892D01*
X107586108Y-106632357D01*
X107773555Y-106710000D01*
X107976445Y-106710000D01*
X108163892Y-106632357D01*
X108300000Y-106496249D01*
X108436108Y-106632357D01*
X108623555Y-106710000D01*
X108826445Y-106710000D01*
X109013892Y-106632357D01*
X109157357Y-106488892D01*
X109235000Y-106301445D01*
X109235000Y-106098555D01*
X119690000Y-106098555D01*
X119690000Y-106301445D01*
X119767643Y-106488892D01*
X119878751Y-106600000D01*
X119767643Y-106711108D01*
X119690000Y-106898555D01*
X119690000Y-107101445D01*
X119767643Y-107288892D01*
X119911108Y-107432357D01*
X120098555Y-107510000D01*
X120301445Y-107510000D01*
X120488892Y-107432357D01*
X120632357Y-107288892D01*
X120710000Y-107101445D01*
X120710000Y-106898555D01*
X120632357Y-106711108D01*
X120521249Y-106600000D01*
X120632357Y-106488892D01*
X120710000Y-106301445D01*
X120710000Y-106098555D01*
X120632357Y-105911108D01*
X120488892Y-105767643D01*
X120301445Y-105690000D01*
X120098555Y-105690000D01*
X119911108Y-105767643D01*
X119767643Y-105911108D01*
X119690000Y-106098555D01*
X109235000Y-106098555D01*
X109157357Y-105911108D01*
X109013892Y-105767643D01*
X108826445Y-105690000D01*
X108623555Y-105690000D01*
X108436108Y-105767643D01*
X108300000Y-105903751D01*
X108163892Y-105767643D01*
X107976445Y-105690000D01*
X107773555Y-105690000D01*
X107586108Y-105767643D01*
X107442643Y-105911108D01*
X107365000Y-106098555D01*
X101568579Y-106098555D01*
X101532357Y-106011108D01*
X101388892Y-105867643D01*
X101201445Y-105790000D01*
X100998555Y-105790000D01*
X100811108Y-105867643D01*
X100667643Y-106011108D01*
X100590000Y-106198555D01*
X100310000Y-106198555D01*
X100310000Y-105398555D01*
X102490000Y-105398555D01*
X102490000Y-105601445D01*
X102567643Y-105788892D01*
X102711108Y-105932357D01*
X102898555Y-106010000D01*
X103101445Y-106010000D01*
X103288892Y-105932357D01*
X103432357Y-105788892D01*
X103510000Y-105601445D01*
X103510000Y-105398555D01*
X103432357Y-105211108D01*
X103288892Y-105067643D01*
X103101445Y-104990000D01*
X102898555Y-104990000D01*
X102711108Y-105067643D01*
X102567643Y-105211108D01*
X102490000Y-105398555D01*
X100310000Y-105398555D01*
X100310000Y-104948555D01*
X118940000Y-104948555D01*
X118940000Y-105151445D01*
X119017643Y-105338892D01*
X119161108Y-105482357D01*
X119348555Y-105560000D01*
X119551445Y-105560000D01*
X119738892Y-105482357D01*
X119850000Y-105371249D01*
X119911108Y-105432357D01*
X120098555Y-105510000D01*
X120301445Y-105510000D01*
X120488892Y-105432357D01*
X120632357Y-105288892D01*
X120710000Y-105101445D01*
X120710000Y-104898555D01*
X120632357Y-104711108D01*
X120519804Y-104598555D01*
X123890000Y-104598555D01*
X123890000Y-104801445D01*
X123967643Y-104988892D01*
X124111108Y-105132357D01*
X124298555Y-105210000D01*
X124501445Y-105210000D01*
X124688892Y-105132357D01*
X124832357Y-104988892D01*
X124910000Y-104801445D01*
X124910000Y-104598555D01*
X124832357Y-104411108D01*
X124688892Y-104267643D01*
X124501445Y-104190000D01*
X124298555Y-104190000D01*
X124111108Y-104267643D01*
X123967643Y-104411108D01*
X123890000Y-104598555D01*
X120519804Y-104598555D01*
X120488892Y-104567643D01*
X120301445Y-104490000D01*
X120098555Y-104490000D01*
X119911108Y-104567643D01*
X119800000Y-104678751D01*
X119738892Y-104617643D01*
X119551445Y-104540000D01*
X119348555Y-104540000D01*
X119161108Y-104617643D01*
X119017643Y-104761108D01*
X118940000Y-104948555D01*
X100310000Y-104948555D01*
X100310000Y-102498555D01*
X102390000Y-102498555D01*
X102390000Y-102701445D01*
X102467643Y-102888892D01*
X102611108Y-103032357D01*
X102798555Y-103110000D01*
X103001445Y-103110000D01*
X103188892Y-103032357D01*
X103332357Y-102888892D01*
X103350000Y-102846298D01*
X103367643Y-102888892D01*
X103511108Y-103032357D01*
X103698555Y-103110000D01*
X103901445Y-103110000D01*
X104088892Y-103032357D01*
X104222694Y-102898555D01*
X105190000Y-102898555D01*
X105190000Y-103101445D01*
X105267643Y-103288892D01*
X105411108Y-103432357D01*
X105598555Y-103510000D01*
X105801445Y-103510000D01*
X105988892Y-103432357D01*
X106132357Y-103288892D01*
X106200000Y-103125587D01*
X106267643Y-103288892D01*
X106411108Y-103432357D01*
X106598555Y-103510000D01*
X106801445Y-103510000D01*
X106988892Y-103432357D01*
X107132357Y-103288892D01*
X107210000Y-103101445D01*
X107210000Y-102898555D01*
X107132357Y-102711108D01*
X107041678Y-102620429D01*
X107278460Y-102620429D01*
X107278460Y-102823319D01*
X107356103Y-103010766D01*
X107499568Y-103154231D01*
X107687015Y-103231874D01*
X107879502Y-103231874D01*
X107879502Y-103424361D01*
X107957145Y-103611808D01*
X108100610Y-103755273D01*
X108288057Y-103832916D01*
X108490947Y-103832916D01*
X108678394Y-103755273D01*
X108821859Y-103611808D01*
X108899502Y-103424361D01*
X108899502Y-103221471D01*
X108890014Y-103198563D01*
X111564992Y-103198563D01*
X111564992Y-103401453D01*
X111642635Y-103588900D01*
X111786100Y-103732365D01*
X111973547Y-103810008D01*
X112176437Y-103810008D01*
X112363884Y-103732365D01*
X112507349Y-103588900D01*
X112584992Y-103401453D01*
X112584992Y-103198563D01*
X112507349Y-103011116D01*
X112497508Y-103001275D01*
X112663892Y-102932357D01*
X112807357Y-102788892D01*
X112885000Y-102601445D01*
X112885000Y-102498555D01*
X113665000Y-102498555D01*
X113665000Y-102701445D01*
X113742643Y-102888892D01*
X113886108Y-103032357D01*
X114003368Y-103080927D01*
X113965000Y-103173555D01*
X113965000Y-103376445D01*
X114042643Y-103563892D01*
X114186108Y-103707357D01*
X114373555Y-103785000D01*
X114576445Y-103785000D01*
X114763892Y-103707357D01*
X114907357Y-103563892D01*
X114985000Y-103376445D01*
X114985000Y-103173555D01*
X114937408Y-103058657D01*
X115011108Y-103132357D01*
X115198555Y-103210000D01*
X115401445Y-103210000D01*
X115588892Y-103132357D01*
X115657308Y-103063941D01*
X115667643Y-103088892D01*
X115811108Y-103232357D01*
X115998555Y-103310000D01*
X116201445Y-103310000D01*
X116388892Y-103232357D01*
X116532357Y-103088892D01*
X116595664Y-102936054D01*
X135827499Y-102936054D01*
X135827499Y-103138944D01*
X135905142Y-103326391D01*
X136048607Y-103469856D01*
X136236054Y-103547499D01*
X136290000Y-103547499D01*
X136290000Y-103601445D01*
X136367643Y-103788892D01*
X136509505Y-103930754D01*
X136440000Y-104098555D01*
X136440000Y-104301445D01*
X136517643Y-104488892D01*
X136603751Y-104575000D01*
X136517643Y-104661108D01*
X136440000Y-104848555D01*
X136440000Y-105051445D01*
X136517643Y-105238892D01*
X136661108Y-105382357D01*
X136848555Y-105460000D01*
X137051445Y-105460000D01*
X137238892Y-105382357D01*
X137382357Y-105238892D01*
X137460000Y-105051445D01*
X137460000Y-104848555D01*
X137382357Y-104661108D01*
X137296249Y-104575000D01*
X137382357Y-104488892D01*
X137460000Y-104301445D01*
X137460000Y-104098555D01*
X137382357Y-103911108D01*
X137240495Y-103769246D01*
X137310000Y-103601445D01*
X137310000Y-103398555D01*
X137232357Y-103211108D01*
X137088892Y-103067643D01*
X136901445Y-102990000D01*
X136847499Y-102990000D01*
X136847499Y-102936054D01*
X136769856Y-102748607D01*
X136626391Y-102605142D01*
X136438944Y-102527499D01*
X136236054Y-102527499D01*
X136048607Y-102605142D01*
X135905142Y-102748607D01*
X135827499Y-102936054D01*
X116595664Y-102936054D01*
X116610000Y-102901445D01*
X116610000Y-102698555D01*
X116532357Y-102511108D01*
X116388892Y-102367643D01*
X116201445Y-102290000D01*
X115998555Y-102290000D01*
X115811108Y-102367643D01*
X115742692Y-102436059D01*
X115732357Y-102411108D01*
X115588892Y-102267643D01*
X115401445Y-102190000D01*
X115198555Y-102190000D01*
X115011108Y-102267643D01*
X114867643Y-102411108D01*
X114790000Y-102598555D01*
X114790000Y-102801445D01*
X114837592Y-102916343D01*
X114763892Y-102842643D01*
X114646632Y-102794073D01*
X114685000Y-102701445D01*
X114685000Y-102498555D01*
X114607357Y-102311108D01*
X114463892Y-102167643D01*
X114276445Y-102090000D01*
X114073555Y-102090000D01*
X113886108Y-102167643D01*
X113742643Y-102311108D01*
X113665000Y-102498555D01*
X112885000Y-102498555D01*
X112885000Y-102398555D01*
X112807357Y-102211108D01*
X112663892Y-102067643D01*
X112476445Y-101990000D01*
X112273555Y-101990000D01*
X112086108Y-102067643D01*
X111942643Y-102211108D01*
X111865000Y-102398555D01*
X111865000Y-102601445D01*
X111942643Y-102788892D01*
X111952484Y-102798733D01*
X111786100Y-102867651D01*
X111642635Y-103011116D01*
X111564992Y-103198563D01*
X108890014Y-103198563D01*
X108821859Y-103034024D01*
X108678394Y-102890559D01*
X108490947Y-102812916D01*
X108298460Y-102812916D01*
X108298460Y-102620429D01*
X108220817Y-102432982D01*
X108077352Y-102289517D01*
X107889905Y-102211874D01*
X107687015Y-102211874D01*
X107499568Y-102289517D01*
X107356103Y-102432982D01*
X107278460Y-102620429D01*
X107041678Y-102620429D01*
X106988892Y-102567643D01*
X106801445Y-102490000D01*
X106598555Y-102490000D01*
X106411108Y-102567643D01*
X106267643Y-102711108D01*
X106200000Y-102874413D01*
X106132357Y-102711108D01*
X105988892Y-102567643D01*
X105801445Y-102490000D01*
X105598555Y-102490000D01*
X105411108Y-102567643D01*
X105267643Y-102711108D01*
X105190000Y-102898555D01*
X104222694Y-102898555D01*
X104232357Y-102888892D01*
X104310000Y-102701445D01*
X104310000Y-102498555D01*
X104232357Y-102311108D01*
X104088892Y-102167643D01*
X103901445Y-102090000D01*
X103698555Y-102090000D01*
X103511108Y-102167643D01*
X103367643Y-102311108D01*
X103350000Y-102353702D01*
X103332357Y-102311108D01*
X103188892Y-102167643D01*
X103001445Y-102090000D01*
X102798555Y-102090000D01*
X102611108Y-102167643D01*
X102467643Y-102311108D01*
X102390000Y-102498555D01*
X100310000Y-102498555D01*
X100310000Y-101969469D01*
X100299698Y-101917677D01*
X100356725Y-101519472D01*
X100366235Y-101498555D01*
X124890000Y-101498555D01*
X124890000Y-101701445D01*
X124967643Y-101888892D01*
X125111108Y-102032357D01*
X125298555Y-102110000D01*
X125501445Y-102110000D01*
X125688892Y-102032357D01*
X125832357Y-101888892D01*
X125910000Y-101701445D01*
X125910000Y-101498555D01*
X125832357Y-101311108D01*
X125688892Y-101167643D01*
X125501445Y-101090000D01*
X125298555Y-101090000D01*
X125111108Y-101167643D01*
X124967643Y-101311108D01*
X124890000Y-101498555D01*
X100366235Y-101498555D01*
X100557644Y-101077575D01*
X100874516Y-100709828D01*
X101281859Y-100445802D01*
X101756379Y-100303889D01*
X101889149Y-100294023D01*
X101969469Y-100310000D01*
X101969469Y-100310000D01*
G37*
X101969469Y-100310000D02*
X138030531Y-100310000D01*
X138082326Y-100299697D01*
X138480529Y-100356724D01*
X138922426Y-100557643D01*
X139290172Y-100874513D01*
X139554199Y-101281858D01*
X139696112Y-101756379D01*
X139705978Y-101889149D01*
X139690001Y-101969469D01*
X139690000Y-118830530D01*
X139700303Y-118882326D01*
X139643276Y-119280530D01*
X139442358Y-119722424D01*
X139125486Y-120090172D01*
X138718145Y-120354198D01*
X138243619Y-120496112D01*
X138110855Y-120505978D01*
X138030531Y-120490000D01*
X135981249Y-120490000D01*
X136032357Y-120438892D01*
X136110000Y-120251445D01*
X136110000Y-120048555D01*
X136032357Y-119861108D01*
X135969804Y-119798555D01*
X136990000Y-119798555D01*
X136990000Y-120001445D01*
X137067643Y-120188892D01*
X137211108Y-120332357D01*
X137398555Y-120410000D01*
X137601445Y-120410000D01*
X137788892Y-120332357D01*
X137932357Y-120188892D01*
X138010000Y-120001445D01*
X138010000Y-119798555D01*
X137932357Y-119611108D01*
X137788892Y-119467643D01*
X137601445Y-119390000D01*
X137398555Y-119390000D01*
X137211108Y-119467643D01*
X137067643Y-119611108D01*
X136990000Y-119798555D01*
X135969804Y-119798555D01*
X135888892Y-119717643D01*
X135701445Y-119640000D01*
X135498555Y-119640000D01*
X135311108Y-119717643D01*
X135167643Y-119861108D01*
X135090000Y-120048555D01*
X135090000Y-120251445D01*
X135167643Y-120438892D01*
X135218751Y-120490000D01*
X130060893Y-120490000D01*
X130110000Y-120371445D01*
X130110000Y-120168555D01*
X130032357Y-119981108D01*
X129888892Y-119837643D01*
X129701445Y-119760000D01*
X129498555Y-119760000D01*
X129311108Y-119837643D01*
X129200000Y-119948751D01*
X129088892Y-119837643D01*
X128901445Y-119760000D01*
X128698555Y-119760000D01*
X128511108Y-119837643D01*
X128367643Y-119981108D01*
X128290000Y-120168555D01*
X128290000Y-120371445D01*
X128339107Y-120490000D01*
X127460893Y-120490000D01*
X127510000Y-120371445D01*
X127510000Y-120168555D01*
X127432357Y-119981108D01*
X127288892Y-119837643D01*
X127101445Y-119760000D01*
X126898555Y-119760000D01*
X126711108Y-119837643D01*
X126567643Y-119981108D01*
X126490000Y-120168555D01*
X126490000Y-120371445D01*
X126539107Y-120490000D01*
X101969469Y-120490000D01*
X101917674Y-120500303D01*
X101519470Y-120443276D01*
X101077576Y-120242358D01*
X100709828Y-119925486D01*
X100445802Y-119518145D01*
X100410533Y-119400212D01*
X101081240Y-119400212D01*
X101081240Y-119679788D01*
X101188229Y-119938082D01*
X101385918Y-120135771D01*
X101644212Y-120242760D01*
X101923788Y-120242760D01*
X102182082Y-120135771D01*
X102379771Y-119938082D01*
X102486760Y-119679788D01*
X102486760Y-119400212D01*
X103113240Y-119400212D01*
X103113240Y-119679788D01*
X103220229Y-119938082D01*
X103417918Y-120135771D01*
X103676212Y-120242760D01*
X103955788Y-120242760D01*
X104214082Y-120135771D01*
X104411771Y-119938082D01*
X104518760Y-119679788D01*
X104518760Y-119400212D01*
X104411771Y-119141918D01*
X104269853Y-119000000D01*
X105430000Y-119000000D01*
X105430000Y-119839783D01*
X105460449Y-119913291D01*
X105516710Y-119969552D01*
X105590218Y-120000000D01*
X105855000Y-120000000D01*
X105905000Y-119950000D01*
X105905000Y-118950000D01*
X106455000Y-118950000D01*
X106455000Y-119950000D01*
X106505000Y-120000000D01*
X106769782Y-120000000D01*
X106843290Y-119969552D01*
X106899551Y-119913291D01*
X106930000Y-119839783D01*
X106930000Y-119000000D01*
X114070000Y-119000000D01*
X114070000Y-119839783D01*
X114100449Y-119913291D01*
X114156710Y-119969552D01*
X114230218Y-120000000D01*
X114495000Y-120000000D01*
X114545000Y-119950000D01*
X114545000Y-118950000D01*
X115095000Y-118950000D01*
X115095000Y-119950000D01*
X115145000Y-120000000D01*
X115409782Y-120000000D01*
X115483290Y-119969552D01*
X115539551Y-119913291D01*
X115570000Y-119839783D01*
X115570000Y-119498555D01*
X122390000Y-119498555D01*
X122390000Y-119701445D01*
X122467643Y-119888892D01*
X122611108Y-120032357D01*
X122798555Y-120110000D01*
X123001445Y-120110000D01*
X123188892Y-120032357D01*
X123332357Y-119888892D01*
X123410000Y-119701445D01*
X123410000Y-119498555D01*
X123332357Y-119311108D01*
X123188892Y-119167643D01*
X123001445Y-119090000D01*
X122798555Y-119090000D01*
X122611108Y-119167643D01*
X122467643Y-119311108D01*
X122390000Y-119498555D01*
X115570000Y-119498555D01*
X115570000Y-119000000D01*
X115520000Y-118950000D01*
X115095000Y-118950000D01*
X114545000Y-118950000D01*
X114120000Y-118950000D01*
X114070000Y-119000000D01*
X106930000Y-119000000D01*
X106880000Y-118950000D01*
X106455000Y-118950000D01*
X105905000Y-118950000D01*
X105480000Y-118950000D01*
X105430000Y-119000000D01*
X104269853Y-119000000D01*
X104214082Y-118944229D01*
X103955788Y-118837240D01*
X103676212Y-118837240D01*
X103417918Y-118944229D01*
X103220229Y-119141918D01*
X103113240Y-119400212D01*
X102486760Y-119400212D01*
X102379771Y-119141918D01*
X102182082Y-118944229D01*
X101923788Y-118837240D01*
X101644212Y-118837240D01*
X101385918Y-118944229D01*
X101188229Y-119141918D01*
X101081240Y-119400212D01*
X100410533Y-119400212D01*
X100303888Y-119043619D01*
X100294022Y-118910855D01*
X100310000Y-118830531D01*
X100310000Y-116998555D01*
X100490000Y-116998555D01*
X100490000Y-117201445D01*
X100567643Y-117388892D01*
X100711108Y-117532357D01*
X100898555Y-117610000D01*
X101101445Y-117610000D01*
X101288892Y-117532357D01*
X101432357Y-117388892D01*
X101444234Y-117360217D01*
X105430000Y-117360217D01*
X105430000Y-118200000D01*
X105480000Y-118250000D01*
X105905000Y-118250000D01*
X105905000Y-117250000D01*
X106455000Y-117250000D01*
X106455000Y-118250000D01*
X106880000Y-118250000D01*
X106930000Y-118200000D01*
X106930000Y-117360217D01*
X106899551Y-117286709D01*
X106843290Y-117230448D01*
X106769782Y-117200000D01*
X106505000Y-117200000D01*
X106455000Y-117250000D01*
X105905000Y-117250000D01*
X105855000Y-117200000D01*
X105590218Y-117200000D01*
X105516710Y-117230448D01*
X105460449Y-117286709D01*
X105430000Y-117360217D01*
X101444234Y-117360217D01*
X101510000Y-117201445D01*
X101510000Y-117098555D01*
X107990000Y-117098555D01*
X107990000Y-117301445D01*
X108067643Y-117488892D01*
X108211108Y-117632357D01*
X108398555Y-117710000D01*
X108601445Y-117710000D01*
X108788892Y-117632357D01*
X108932357Y-117488892D01*
X109010000Y-117301445D01*
X109010000Y-117231249D01*
X109111108Y-117332357D01*
X109298555Y-117410000D01*
X109501445Y-117410000D01*
X109688892Y-117332357D01*
X109832357Y-117188892D01*
X109910000Y-117001445D01*
X109910000Y-116798555D01*
X110890000Y-116798555D01*
X110890000Y-117001445D01*
X110967643Y-117188892D01*
X111111108Y-117332357D01*
X111298555Y-117410000D01*
X111501445Y-117410000D01*
X111688892Y-117332357D01*
X111832357Y-117188892D01*
X111890000Y-117049729D01*
X111890000Y-117101445D01*
X111967643Y-117288892D01*
X112111108Y-117432357D01*
X112298555Y-117510000D01*
X112501445Y-117510000D01*
X112688892Y-117432357D01*
X112761032Y-117360217D01*
X114070000Y-117360217D01*
X114070000Y-118200000D01*
X114120000Y-118250000D01*
X114545000Y-118250000D01*
X114545000Y-117250000D01*
X115095000Y-117250000D01*
X115095000Y-118250000D01*
X115520000Y-118250000D01*
X115570000Y-118200000D01*
X115570000Y-117360217D01*
X115544458Y-117298555D01*
X115590000Y-117298555D01*
X115590000Y-117501445D01*
X115667643Y-117688892D01*
X115811108Y-117832357D01*
X115998555Y-117910000D01*
X116201445Y-117910000D01*
X116388892Y-117832357D01*
X116472694Y-117748555D01*
X120340000Y-117748555D01*
X120340000Y-117951445D01*
X120417643Y-118138892D01*
X120561108Y-118282357D01*
X120748555Y-118360000D01*
X120951445Y-118360000D01*
X121138892Y-118282357D01*
X121282357Y-118138892D01*
X121299054Y-118098580D01*
X132389975Y-118098580D01*
X132389975Y-118301470D01*
X132467618Y-118488917D01*
X132611083Y-118632382D01*
X132798530Y-118710025D01*
X133001420Y-118710025D01*
X133188867Y-118632382D01*
X133332332Y-118488917D01*
X133409975Y-118301470D01*
X133409975Y-118098580D01*
X133332332Y-117911133D01*
X133188867Y-117767668D01*
X133001420Y-117690025D01*
X132798530Y-117690025D01*
X132611083Y-117767668D01*
X132467618Y-117911133D01*
X132389975Y-118098580D01*
X121299054Y-118098580D01*
X121360000Y-117951445D01*
X121360000Y-117748555D01*
X121282357Y-117561108D01*
X121138892Y-117417643D01*
X120951445Y-117340000D01*
X120748555Y-117340000D01*
X120561108Y-117417643D01*
X120417643Y-117561108D01*
X120340000Y-117748555D01*
X116472694Y-117748555D01*
X116532357Y-117688892D01*
X116610000Y-117501445D01*
X116610000Y-117298555D01*
X116532357Y-117111108D01*
X116469804Y-117048555D01*
X117590000Y-117048555D01*
X117590000Y-117251445D01*
X117667643Y-117438892D01*
X117811108Y-117582357D01*
X117998555Y-117660000D01*
X118201445Y-117660000D01*
X118388892Y-117582357D01*
X118532357Y-117438892D01*
X118610000Y-117251445D01*
X118610000Y-117048555D01*
X118532357Y-116861108D01*
X118388892Y-116717643D01*
X118201445Y-116640000D01*
X117998555Y-116640000D01*
X117811108Y-116717643D01*
X117667643Y-116861108D01*
X117590000Y-117048555D01*
X116469804Y-117048555D01*
X116388892Y-116967643D01*
X116201445Y-116890000D01*
X115998555Y-116890000D01*
X115811108Y-116967643D01*
X115667643Y-117111108D01*
X115590000Y-117298555D01*
X115544458Y-117298555D01*
X115539551Y-117286709D01*
X115483290Y-117230448D01*
X115409782Y-117200000D01*
X115145000Y-117200000D01*
X115095000Y-117250000D01*
X114545000Y-117250000D01*
X114495000Y-117200000D01*
X114230218Y-117200000D01*
X114156710Y-117230448D01*
X114100449Y-117286709D01*
X114070000Y-117360217D01*
X112761032Y-117360217D01*
X112832357Y-117288892D01*
X112910000Y-117101445D01*
X112910000Y-116898555D01*
X112832357Y-116711108D01*
X112731249Y-116610000D01*
X112901445Y-116610000D01*
X113088892Y-116532357D01*
X113232357Y-116388892D01*
X113310000Y-116201445D01*
X113310000Y-115998555D01*
X113232357Y-115811108D01*
X113088892Y-115667643D01*
X112901445Y-115590000D01*
X112698555Y-115590000D01*
X112511108Y-115667643D01*
X112400000Y-115778751D01*
X112288892Y-115667643D01*
X112101445Y-115590000D01*
X111898555Y-115590000D01*
X111711108Y-115667643D01*
X111567643Y-115811108D01*
X111490000Y-115998555D01*
X111490000Y-116201445D01*
X111567643Y-116388892D01*
X111616343Y-116437592D01*
X111501445Y-116390000D01*
X111298555Y-116390000D01*
X111111108Y-116467643D01*
X110967643Y-116611108D01*
X110890000Y-116798555D01*
X109910000Y-116798555D01*
X109832357Y-116611108D01*
X109688892Y-116467643D01*
X109501445Y-116390000D01*
X109298555Y-116390000D01*
X109265834Y-116403554D01*
X109285346Y-116356447D01*
X109285346Y-116153557D01*
X109207703Y-115966110D01*
X109064238Y-115822645D01*
X108876791Y-115745002D01*
X108673901Y-115745002D01*
X108486454Y-115822645D01*
X108342989Y-115966110D01*
X108265346Y-116153557D01*
X108265346Y-116356447D01*
X108342989Y-116543894D01*
X108486454Y-116687359D01*
X108492830Y-116690000D01*
X108398555Y-116690000D01*
X108211108Y-116767643D01*
X108067643Y-116911108D01*
X107990000Y-117098555D01*
X101510000Y-117098555D01*
X101510000Y-116998555D01*
X101432357Y-116811108D01*
X101288892Y-116667643D01*
X101101445Y-116590000D01*
X100898555Y-116590000D01*
X100711108Y-116667643D01*
X100567643Y-116811108D01*
X100490000Y-116998555D01*
X100310000Y-116998555D01*
X100310000Y-115798555D01*
X104190000Y-115798555D01*
X104190000Y-116001445D01*
X104267643Y-116188892D01*
X104411108Y-116332357D01*
X104598555Y-116410000D01*
X104801445Y-116410000D01*
X104988892Y-116332357D01*
X105132357Y-116188892D01*
X105210000Y-116001445D01*
X105210000Y-115798555D01*
X105132357Y-115611108D01*
X104988892Y-115467643D01*
X104801445Y-115390000D01*
X104598555Y-115390000D01*
X104411108Y-115467643D01*
X104267643Y-115611108D01*
X104190000Y-115798555D01*
X100310000Y-115798555D01*
X100310000Y-114319960D01*
X102095970Y-114319960D01*
X102095970Y-114600040D01*
X102203152Y-114858801D01*
X102401199Y-115056848D01*
X102659960Y-115164030D01*
X102940040Y-115164030D01*
X103198801Y-115056848D01*
X103396848Y-114858801D01*
X103504030Y-114600040D01*
X103504030Y-114319960D01*
X103396848Y-114061199D01*
X103198801Y-113863152D01*
X102940040Y-113755970D01*
X102659960Y-113755970D01*
X102401199Y-113863152D01*
X102203152Y-114061199D01*
X102095970Y-114319960D01*
X100310000Y-114319960D01*
X100310000Y-112960217D01*
X105430000Y-112960217D01*
X105430000Y-113650000D01*
X105476425Y-113696425D01*
X105450000Y-113760217D01*
X105450000Y-114075000D01*
X105474998Y-114099998D01*
X105450000Y-114099998D01*
X105450000Y-114430000D01*
X105430000Y-114450000D01*
X105430000Y-115139783D01*
X105460449Y-115213291D01*
X105516710Y-115269552D01*
X105590218Y-115300000D01*
X106050000Y-115300000D01*
X106100000Y-115250000D01*
X106100000Y-114775000D01*
X106080000Y-114775000D01*
X106080000Y-114125000D01*
X106100000Y-114125000D01*
X106100000Y-113650000D01*
X106050000Y-113600000D01*
X105905000Y-113600000D01*
X105905000Y-112850000D01*
X106455000Y-112850000D01*
X106455000Y-113700000D01*
X106550000Y-113700000D01*
X106550000Y-114400000D01*
X106455000Y-114400000D01*
X106455000Y-115250000D01*
X106505000Y-115300000D01*
X106761962Y-115300000D01*
X106710031Y-115351931D01*
X106640000Y-115521000D01*
X106640000Y-115704000D01*
X106710031Y-115873069D01*
X106839431Y-116002469D01*
X107008500Y-116072500D01*
X107191500Y-116072500D01*
X107260813Y-116043789D01*
X107215346Y-116153557D01*
X107215346Y-116356447D01*
X107292989Y-116543894D01*
X107436454Y-116687359D01*
X107623901Y-116765002D01*
X107826791Y-116765002D01*
X108014238Y-116687359D01*
X108157703Y-116543894D01*
X108235346Y-116356447D01*
X108235346Y-116153557D01*
X108157703Y-115966110D01*
X108014238Y-115822645D01*
X107826791Y-115745002D01*
X107623901Y-115745002D01*
X107526265Y-115785444D01*
X107560000Y-115704000D01*
X107560000Y-115598555D01*
X109685010Y-115598555D01*
X109685010Y-115801445D01*
X109762653Y-115988892D01*
X109906118Y-116132357D01*
X110093565Y-116210000D01*
X110296455Y-116210000D01*
X110483902Y-116132357D01*
X110627367Y-115988892D01*
X110705010Y-115801445D01*
X110705010Y-115598555D01*
X110672886Y-115521000D01*
X113440000Y-115521000D01*
X113440000Y-115704000D01*
X113510031Y-115873069D01*
X113639431Y-116002469D01*
X113808500Y-116072500D01*
X113991500Y-116072500D01*
X114160569Y-116002469D01*
X114289969Y-115873069D01*
X114300123Y-115848555D01*
X119540000Y-115848555D01*
X119540000Y-116051445D01*
X119617643Y-116238892D01*
X119761108Y-116382357D01*
X119948555Y-116460000D01*
X120151445Y-116460000D01*
X120338892Y-116382357D01*
X120482357Y-116238892D01*
X120560000Y-116051445D01*
X120560000Y-115848555D01*
X120539290Y-115798555D01*
X120690000Y-115798555D01*
X120690000Y-116001445D01*
X120767643Y-116188892D01*
X120911108Y-116332357D01*
X121098555Y-116410000D01*
X121301445Y-116410000D01*
X121329075Y-116398555D01*
X135190000Y-116398555D01*
X135190000Y-116601445D01*
X135267643Y-116788892D01*
X135411108Y-116932357D01*
X135598555Y-117010000D01*
X135801445Y-117010000D01*
X135988892Y-116932357D01*
X136132357Y-116788892D01*
X136210000Y-116601445D01*
X136210000Y-116398555D01*
X137915000Y-116398555D01*
X137915000Y-116601445D01*
X137992643Y-116788892D01*
X138136108Y-116932357D01*
X138323555Y-117010000D01*
X138526445Y-117010000D01*
X138713892Y-116932357D01*
X138857357Y-116788892D01*
X138935000Y-116601445D01*
X138935000Y-116398555D01*
X138857357Y-116211108D01*
X138713892Y-116067643D01*
X138526445Y-115990000D01*
X138323555Y-115990000D01*
X138136108Y-116067643D01*
X137992643Y-116211108D01*
X137915000Y-116398555D01*
X136210000Y-116398555D01*
X136132357Y-116211108D01*
X135988892Y-116067643D01*
X135801445Y-115990000D01*
X135598555Y-115990000D01*
X135411108Y-116067643D01*
X135267643Y-116211108D01*
X135190000Y-116398555D01*
X121329075Y-116398555D01*
X121488892Y-116332357D01*
X121632357Y-116188892D01*
X121710000Y-116001445D01*
X121710000Y-115798555D01*
X121668579Y-115698555D01*
X123190000Y-115698555D01*
X123190000Y-115901445D01*
X123267643Y-116088892D01*
X123411108Y-116232357D01*
X123598555Y-116310000D01*
X123801445Y-116310000D01*
X123988892Y-116232357D01*
X124132357Y-116088892D01*
X124210000Y-115901445D01*
X124210000Y-115698555D01*
X124132357Y-115511108D01*
X123988892Y-115367643D01*
X123801445Y-115290000D01*
X123598555Y-115290000D01*
X123411108Y-115367643D01*
X123267643Y-115511108D01*
X123190000Y-115698555D01*
X121668579Y-115698555D01*
X121632357Y-115611108D01*
X121488892Y-115467643D01*
X121301445Y-115390000D01*
X121098555Y-115390000D01*
X120911108Y-115467643D01*
X120767643Y-115611108D01*
X120690000Y-115798555D01*
X120539290Y-115798555D01*
X120482357Y-115661108D01*
X120338892Y-115517643D01*
X120151445Y-115440000D01*
X119948555Y-115440000D01*
X119761108Y-115517643D01*
X119617643Y-115661108D01*
X119540000Y-115848555D01*
X114300123Y-115848555D01*
X114360000Y-115704000D01*
X114360000Y-115521000D01*
X114289969Y-115351931D01*
X114238038Y-115300000D01*
X114495000Y-115300000D01*
X114545000Y-115250000D01*
X114545000Y-114400000D01*
X114450000Y-114400000D01*
X114450000Y-113700000D01*
X114545000Y-113700000D01*
X114545000Y-113650000D01*
X114900000Y-113650000D01*
X114900000Y-114125000D01*
X114920000Y-114125000D01*
X114920000Y-114775000D01*
X114900000Y-114775000D01*
X114900000Y-115250000D01*
X114950000Y-115300000D01*
X115409782Y-115300000D01*
X115483290Y-115269552D01*
X115539551Y-115213291D01*
X115570000Y-115139783D01*
X115570000Y-114948555D01*
X136260010Y-114948555D01*
X136260010Y-115151445D01*
X136337653Y-115338892D01*
X136481118Y-115482357D01*
X136668565Y-115560000D01*
X136871455Y-115560000D01*
X137058902Y-115482357D01*
X137202367Y-115338892D01*
X137280010Y-115151445D01*
X137280010Y-114948555D01*
X137202367Y-114761108D01*
X137058902Y-114617643D01*
X136871455Y-114540000D01*
X136668565Y-114540000D01*
X136481118Y-114617643D01*
X136337653Y-114761108D01*
X136260010Y-114948555D01*
X115570000Y-114948555D01*
X115570000Y-114450000D01*
X115550000Y-114430000D01*
X115550000Y-114099998D01*
X115525002Y-114099998D01*
X115550000Y-114075000D01*
X115550000Y-113760217D01*
X115523575Y-113696425D01*
X115570000Y-113650000D01*
X115570000Y-113498555D01*
X120440000Y-113498555D01*
X120440000Y-113701445D01*
X120517643Y-113888892D01*
X120661108Y-114032357D01*
X120848555Y-114110000D01*
X121051445Y-114110000D01*
X121238892Y-114032357D01*
X121382357Y-113888892D01*
X121460000Y-113701445D01*
X121460000Y-113598555D01*
X123290000Y-113598555D01*
X123290000Y-113801445D01*
X123367643Y-113988892D01*
X123511108Y-114132357D01*
X123698555Y-114210000D01*
X123901445Y-114210000D01*
X124088892Y-114132357D01*
X124172694Y-114048555D01*
X132140000Y-114048555D01*
X132140000Y-114251445D01*
X132217643Y-114438892D01*
X132361108Y-114582357D01*
X132548555Y-114660000D01*
X132751445Y-114660000D01*
X132938892Y-114582357D01*
X133082357Y-114438892D01*
X133160000Y-114251445D01*
X133160000Y-114048555D01*
X133082357Y-113861108D01*
X132938892Y-113717643D01*
X132751445Y-113640000D01*
X132548555Y-113640000D01*
X132361108Y-113717643D01*
X132217643Y-113861108D01*
X132140000Y-114048555D01*
X124172694Y-114048555D01*
X124232357Y-113988892D01*
X124310000Y-113801445D01*
X124310000Y-113598555D01*
X124232357Y-113411108D01*
X124088892Y-113267643D01*
X123901445Y-113190000D01*
X123698555Y-113190000D01*
X123511108Y-113267643D01*
X123367643Y-113411108D01*
X123290000Y-113598555D01*
X121460000Y-113598555D01*
X121460000Y-113498555D01*
X121382357Y-113311108D01*
X121238892Y-113167643D01*
X121051445Y-113090000D01*
X120848555Y-113090000D01*
X120661108Y-113167643D01*
X120517643Y-113311108D01*
X120440000Y-113498555D01*
X115570000Y-113498555D01*
X115570000Y-112960217D01*
X115539551Y-112886709D01*
X115483290Y-112830448D01*
X115409782Y-112800000D01*
X115145000Y-112800000D01*
X115095000Y-112850000D01*
X115095000Y-113600000D01*
X114950000Y-113600000D01*
X114900000Y-113650000D01*
X114545000Y-113650000D01*
X114545000Y-112850000D01*
X114495000Y-112800000D01*
X114230218Y-112800000D01*
X114156710Y-112830448D01*
X114100449Y-112886709D01*
X114070000Y-112960217D01*
X114070000Y-113600000D01*
X113710218Y-113600000D01*
X113636710Y-113630448D01*
X113580449Y-113686709D01*
X113550000Y-113760217D01*
X113550000Y-114075000D01*
X113600000Y-114125000D01*
X114070000Y-114125000D01*
X114070000Y-114400002D01*
X114119998Y-114400002D01*
X114070000Y-114450000D01*
X114070000Y-114775000D01*
X113600000Y-114775000D01*
X113550000Y-114825000D01*
X113550000Y-115139783D01*
X113580449Y-115213291D01*
X113614560Y-115247402D01*
X113510031Y-115351931D01*
X113440000Y-115521000D01*
X110672886Y-115521000D01*
X110627367Y-115411108D01*
X110483902Y-115267643D01*
X110296455Y-115190000D01*
X110093565Y-115190000D01*
X109906118Y-115267643D01*
X109762653Y-115411108D01*
X109685010Y-115598555D01*
X107560000Y-115598555D01*
X107560000Y-115521000D01*
X107489969Y-115351931D01*
X107385440Y-115247402D01*
X107419551Y-115213291D01*
X107450000Y-115139783D01*
X107450000Y-114825000D01*
X107400000Y-114775000D01*
X106930000Y-114775000D01*
X106930000Y-114450000D01*
X106880002Y-114400002D01*
X106930000Y-114400002D01*
X106930000Y-114125000D01*
X107400000Y-114125000D01*
X107450000Y-114075000D01*
X107450000Y-113760217D01*
X107419551Y-113686709D01*
X107363290Y-113630448D01*
X107289782Y-113600000D01*
X106930000Y-113600000D01*
X106930000Y-112960217D01*
X106899551Y-112886709D01*
X106843290Y-112830448D01*
X106769782Y-112800000D01*
X106505000Y-112800000D01*
X106455000Y-112850000D01*
X105905000Y-112850000D01*
X105855000Y-112800000D01*
X105590218Y-112800000D01*
X105516710Y-112830448D01*
X105460449Y-112886709D01*
X105430000Y-112960217D01*
X100310000Y-112960217D01*
X100310000Y-112298555D01*
X110290000Y-112298555D01*
X110290000Y-112501445D01*
X110367643Y-112688892D01*
X110511108Y-112832357D01*
X110698555Y-112910000D01*
X110901445Y-112910000D01*
X111088892Y-112832357D01*
X111232357Y-112688892D01*
X111310000Y-112501445D01*
X111310000Y-112473319D01*
X111398555Y-112510000D01*
X111601445Y-112510000D01*
X111788892Y-112432357D01*
X111932357Y-112288892D01*
X112010000Y-112101445D01*
X112010000Y-111898555D01*
X111932357Y-111711108D01*
X111788892Y-111567643D01*
X111601445Y-111490000D01*
X111398555Y-111490000D01*
X111211108Y-111567643D01*
X111067643Y-111711108D01*
X110990000Y-111898555D01*
X110990000Y-111926681D01*
X110901445Y-111890000D01*
X110698555Y-111890000D01*
X110511108Y-111967643D01*
X110367643Y-112111108D01*
X110290000Y-112298555D01*
X100310000Y-112298555D01*
X100310000Y-110798555D01*
X103590000Y-110798555D01*
X103590000Y-111001445D01*
X103667643Y-111188892D01*
X103811108Y-111332357D01*
X103998555Y-111410000D01*
X104201445Y-111410000D01*
X104388892Y-111332357D01*
X104532357Y-111188892D01*
X104610000Y-111001445D01*
X104610000Y-110798555D01*
X104568363Y-110698034D01*
X108389479Y-110698034D01*
X108389479Y-110900924D01*
X108467122Y-111088371D01*
X108610587Y-111231836D01*
X108798034Y-111309479D01*
X108990521Y-111309479D01*
X108990521Y-111501966D01*
X109068164Y-111689413D01*
X109211629Y-111832878D01*
X109399076Y-111910521D01*
X109601966Y-111910521D01*
X109789413Y-111832878D01*
X109932878Y-111689413D01*
X110010521Y-111501966D01*
X110010521Y-111310000D01*
X110201445Y-111310000D01*
X110388892Y-111232357D01*
X110532357Y-111088892D01*
X110610000Y-110901445D01*
X110610000Y-110698555D01*
X110568579Y-110598555D01*
X119290000Y-110598555D01*
X119290000Y-110801445D01*
X119367643Y-110988892D01*
X119428751Y-111050000D01*
X119367643Y-111111108D01*
X119290000Y-111298555D01*
X119290000Y-111501445D01*
X119367643Y-111688892D01*
X119428751Y-111750000D01*
X119367643Y-111811108D01*
X119290000Y-111998555D01*
X119290000Y-112201445D01*
X119367643Y-112388892D01*
X119511108Y-112532357D01*
X119698555Y-112610000D01*
X119901445Y-112610000D01*
X120088892Y-112532357D01*
X120232357Y-112388892D01*
X120269775Y-112298555D01*
X131340000Y-112298555D01*
X131340000Y-112501445D01*
X131417643Y-112688892D01*
X131561108Y-112832357D01*
X131748555Y-112910000D01*
X131951445Y-112910000D01*
X132138892Y-112832357D01*
X132282357Y-112688892D01*
X132360000Y-112501445D01*
X132360000Y-112298555D01*
X132282357Y-112111108D01*
X132138892Y-111967643D01*
X131951445Y-111890000D01*
X131748555Y-111890000D01*
X131561108Y-111967643D01*
X131417643Y-112111108D01*
X131340000Y-112298555D01*
X120269775Y-112298555D01*
X120310000Y-112201445D01*
X120310000Y-111998555D01*
X120232357Y-111811108D01*
X120171249Y-111750000D01*
X120232357Y-111688892D01*
X120310000Y-111501445D01*
X120310000Y-111298555D01*
X120289290Y-111248555D01*
X123640000Y-111248555D01*
X123640000Y-111451445D01*
X123717643Y-111638892D01*
X123861108Y-111782357D01*
X124048555Y-111860000D01*
X124251445Y-111860000D01*
X124438892Y-111782357D01*
X124582357Y-111638892D01*
X124656066Y-111460943D01*
X124667643Y-111488892D01*
X124811108Y-111632357D01*
X124998555Y-111710000D01*
X125201445Y-111710000D01*
X125388892Y-111632357D01*
X125532357Y-111488892D01*
X125569775Y-111398555D01*
X129159987Y-111398555D01*
X129159987Y-111601445D01*
X129237630Y-111788892D01*
X129381095Y-111932357D01*
X129568542Y-112010000D01*
X129771432Y-112010000D01*
X129958879Y-111932357D01*
X130034994Y-111856243D01*
X130111108Y-111932357D01*
X130298555Y-112010000D01*
X130501445Y-112010000D01*
X130688892Y-111932357D01*
X130822694Y-111798555D01*
X133390000Y-111798555D01*
X133390000Y-112001445D01*
X133467643Y-112188892D01*
X133611108Y-112332357D01*
X133798555Y-112410000D01*
X134001445Y-112410000D01*
X134188892Y-112332357D01*
X134332357Y-112188892D01*
X134410000Y-112001445D01*
X134410000Y-111798555D01*
X134332357Y-111611108D01*
X134188892Y-111467643D01*
X134001445Y-111390000D01*
X133798555Y-111390000D01*
X133611108Y-111467643D01*
X133467643Y-111611108D01*
X133390000Y-111798555D01*
X130822694Y-111798555D01*
X130832357Y-111788892D01*
X130910000Y-111601445D01*
X130910000Y-111398555D01*
X130832357Y-111211108D01*
X130688892Y-111067643D01*
X130501445Y-110990000D01*
X130298555Y-110990000D01*
X130111108Y-111067643D01*
X130034994Y-111143758D01*
X129958879Y-111067643D01*
X129771432Y-110990000D01*
X129568542Y-110990000D01*
X129381095Y-111067643D01*
X129237630Y-111211108D01*
X129159987Y-111398555D01*
X125569775Y-111398555D01*
X125610000Y-111301445D01*
X125610000Y-111098555D01*
X125532357Y-110911108D01*
X125388892Y-110767643D01*
X125201445Y-110690000D01*
X124998555Y-110690000D01*
X124811108Y-110767643D01*
X124667643Y-110911108D01*
X124593934Y-111089057D01*
X124582357Y-111061108D01*
X124438892Y-110917643D01*
X124251445Y-110840000D01*
X124048555Y-110840000D01*
X123861108Y-110917643D01*
X123717643Y-111061108D01*
X123640000Y-111248555D01*
X120289290Y-111248555D01*
X120232357Y-111111108D01*
X120171249Y-111050000D01*
X120232357Y-110988892D01*
X120310000Y-110801445D01*
X120310000Y-110598555D01*
X120232357Y-110411108D01*
X120088892Y-110267643D01*
X119901445Y-110190000D01*
X119698555Y-110190000D01*
X119511108Y-110267643D01*
X119367643Y-110411108D01*
X119290000Y-110598555D01*
X110568579Y-110598555D01*
X110532357Y-110511108D01*
X110388892Y-110367643D01*
X110201445Y-110290000D01*
X109998555Y-110290000D01*
X109811108Y-110367643D01*
X109667643Y-110511108D01*
X109590000Y-110698555D01*
X109590000Y-110890521D01*
X109409479Y-110890521D01*
X109409479Y-110698034D01*
X109331836Y-110510587D01*
X109188371Y-110367122D01*
X109000924Y-110289479D01*
X108798034Y-110289479D01*
X108610587Y-110367122D01*
X108467122Y-110510587D01*
X108389479Y-110698034D01*
X104568363Y-110698034D01*
X104532357Y-110611108D01*
X104388892Y-110467643D01*
X104201445Y-110390000D01*
X103998555Y-110390000D01*
X103811108Y-110467643D01*
X103667643Y-110611108D01*
X103590000Y-110798555D01*
X100310000Y-110798555D01*
X100310000Y-110131249D01*
X100411108Y-110232357D01*
X100598555Y-110310000D01*
X100801445Y-110310000D01*
X100988892Y-110232357D01*
X101132357Y-110088892D01*
X101210000Y-109901445D01*
X101210000Y-109718553D01*
X101990000Y-109718553D01*
X101990000Y-109921443D01*
X102067643Y-110108890D01*
X102211108Y-110252355D01*
X102398555Y-110329998D01*
X102601445Y-110329998D01*
X102788892Y-110252355D01*
X102932357Y-110108890D01*
X103010000Y-109921443D01*
X103010000Y-109718553D01*
X102960296Y-109598555D01*
X103290000Y-109598555D01*
X103290000Y-109801445D01*
X103367643Y-109988892D01*
X103511108Y-110132357D01*
X103698555Y-110210000D01*
X103901445Y-110210000D01*
X104088892Y-110132357D01*
X104222694Y-109998555D01*
X123190000Y-109998555D01*
X123190000Y-110201445D01*
X123267643Y-110388892D01*
X123411108Y-110532357D01*
X123598555Y-110610000D01*
X123801445Y-110610000D01*
X123988892Y-110532357D01*
X124022694Y-110498555D01*
X128240000Y-110498555D01*
X128240000Y-110701445D01*
X128317643Y-110888892D01*
X128461108Y-111032357D01*
X128648555Y-111110000D01*
X128851445Y-111110000D01*
X129038892Y-111032357D01*
X129182357Y-110888892D01*
X129260000Y-110701445D01*
X129260000Y-110498555D01*
X129182357Y-110311108D01*
X129038892Y-110167643D01*
X128851445Y-110090000D01*
X128648555Y-110090000D01*
X128461108Y-110167643D01*
X128317643Y-110311108D01*
X128240000Y-110498555D01*
X124022694Y-110498555D01*
X124132357Y-110388892D01*
X124210000Y-110201445D01*
X124210000Y-109998555D01*
X124132357Y-109811108D01*
X123988892Y-109667643D01*
X123801445Y-109590000D01*
X123598555Y-109590000D01*
X123411108Y-109667643D01*
X123267643Y-109811108D01*
X123190000Y-109998555D01*
X104222694Y-109998555D01*
X104232357Y-109988892D01*
X104310000Y-109801445D01*
X104310000Y-109598555D01*
X104232357Y-109411108D01*
X104088892Y-109267643D01*
X103901445Y-109190000D01*
X103698555Y-109190000D01*
X103511108Y-109267643D01*
X103367643Y-109411108D01*
X103290000Y-109598555D01*
X102960296Y-109598555D01*
X102932357Y-109531106D01*
X102788892Y-109387641D01*
X102601445Y-109309998D01*
X102398555Y-109309998D01*
X102211108Y-109387641D01*
X102067643Y-109531106D01*
X101990000Y-109718553D01*
X101210000Y-109718553D01*
X101210000Y-109698555D01*
X101132357Y-109511108D01*
X100988892Y-109367643D01*
X100801445Y-109290000D01*
X100598555Y-109290000D01*
X100411108Y-109367643D01*
X100310000Y-109468751D01*
X100310000Y-109098555D01*
X104790000Y-109098555D01*
X104790000Y-109301445D01*
X104867643Y-109488892D01*
X105011108Y-109632357D01*
X105198555Y-109710000D01*
X105401445Y-109710000D01*
X105588892Y-109632357D01*
X105732357Y-109488892D01*
X105810000Y-109301445D01*
X105810000Y-109098555D01*
X105732357Y-108911108D01*
X105588892Y-108767643D01*
X105401445Y-108690000D01*
X105198555Y-108690000D01*
X105011108Y-108767643D01*
X104867643Y-108911108D01*
X104790000Y-109098555D01*
X100310000Y-109098555D01*
X100310000Y-108669787D01*
X109361232Y-108669787D01*
X109361232Y-108872677D01*
X109438875Y-109060124D01*
X109582340Y-109203589D01*
X109769787Y-109281232D01*
X109972677Y-109281232D01*
X110160124Y-109203589D01*
X110303589Y-109060124D01*
X110329091Y-108998555D01*
X130690000Y-108998555D01*
X130690000Y-109201445D01*
X130767643Y-109388892D01*
X130911108Y-109532357D01*
X131098555Y-109610000D01*
X131301445Y-109610000D01*
X131488892Y-109532357D01*
X131632357Y-109388892D01*
X131710000Y-109201445D01*
X131710000Y-108998555D01*
X131632357Y-108811108D01*
X131488892Y-108667643D01*
X131301445Y-108590000D01*
X131098555Y-108590000D01*
X130911108Y-108667643D01*
X130767643Y-108811108D01*
X130690000Y-108998555D01*
X110329091Y-108998555D01*
X110381232Y-108872677D01*
X110381232Y-108669787D01*
X110303589Y-108482340D01*
X110160124Y-108338875D01*
X109972677Y-108261232D01*
X109769787Y-108261232D01*
X109582340Y-108338875D01*
X109438875Y-108482340D01*
X109361232Y-108669787D01*
X100310000Y-108669787D01*
X100310000Y-107927323D01*
X108618768Y-107927323D01*
X108618768Y-108130213D01*
X108696411Y-108317660D01*
X108839876Y-108461125D01*
X109027323Y-108538768D01*
X109230213Y-108538768D01*
X109417660Y-108461125D01*
X109561125Y-108317660D01*
X109638768Y-108130213D01*
X109638768Y-107927323D01*
X109626852Y-107898555D01*
X115490000Y-107898555D01*
X115490000Y-108101445D01*
X115567643Y-108288892D01*
X115711108Y-108432357D01*
X115898555Y-108510000D01*
X116101445Y-108510000D01*
X116288892Y-108432357D01*
X116432357Y-108288892D01*
X116450000Y-108246298D01*
X116467643Y-108288892D01*
X116611108Y-108432357D01*
X116798555Y-108510000D01*
X117001445Y-108510000D01*
X117188892Y-108432357D01*
X117332357Y-108288892D01*
X117410000Y-108101445D01*
X117410000Y-107898555D01*
X117332357Y-107711108D01*
X117188892Y-107567643D01*
X117001445Y-107490000D01*
X116798555Y-107490000D01*
X116611108Y-107567643D01*
X116467643Y-107711108D01*
X116450000Y-107753702D01*
X116432357Y-107711108D01*
X116288892Y-107567643D01*
X116101445Y-107490000D01*
X115898555Y-107490000D01*
X115711108Y-107567643D01*
X115567643Y-107711108D01*
X115490000Y-107898555D01*
X109626852Y-107898555D01*
X109561125Y-107739876D01*
X109417660Y-107596411D01*
X109230213Y-107518768D01*
X109027323Y-107518768D01*
X108839876Y-107596411D01*
X108696411Y-107739876D01*
X108618768Y-107927323D01*
X100310000Y-107927323D01*
X100310000Y-107098555D01*
X101890000Y-107098555D01*
X101890000Y-107301445D01*
X101967643Y-107488892D01*
X102111108Y-107632357D01*
X102298555Y-107710000D01*
X102501445Y-107710000D01*
X102688892Y-107632357D01*
X102832357Y-107488892D01*
X102910000Y-107301445D01*
X102910000Y-107198555D01*
X117490000Y-107198555D01*
X117490000Y-107401445D01*
X117567643Y-107588892D01*
X117711108Y-107732357D01*
X117898555Y-107810000D01*
X118101445Y-107810000D01*
X118288892Y-107732357D01*
X118322694Y-107698555D01*
X123790000Y-107698555D01*
X123790000Y-107901445D01*
X123867643Y-108088892D01*
X124011108Y-108232357D01*
X124198555Y-108310000D01*
X124401445Y-108310000D01*
X124588892Y-108232357D01*
X124732357Y-108088892D01*
X124810000Y-107901445D01*
X124810000Y-107698555D01*
X124732357Y-107511108D01*
X124721249Y-107500000D01*
X124782357Y-107438892D01*
X124860000Y-107251445D01*
X124860000Y-107049729D01*
X124917643Y-107188892D01*
X125061108Y-107332357D01*
X125248555Y-107410000D01*
X125451445Y-107410000D01*
X125638892Y-107332357D01*
X125782357Y-107188892D01*
X125835308Y-107061055D01*
X128089999Y-107061055D01*
X128089999Y-107263945D01*
X128167642Y-107451392D01*
X128311107Y-107594857D01*
X128498554Y-107672500D01*
X128701444Y-107672500D01*
X128888891Y-107594857D01*
X129032356Y-107451392D01*
X129109999Y-107263945D01*
X129109999Y-107248555D01*
X137790000Y-107248555D01*
X137790000Y-107451445D01*
X137867643Y-107638892D01*
X138011108Y-107782357D01*
X138198555Y-107860000D01*
X138401445Y-107860000D01*
X138588892Y-107782357D01*
X138732357Y-107638892D01*
X138810000Y-107451445D01*
X138810000Y-107248555D01*
X138732357Y-107061108D01*
X138588892Y-106917643D01*
X138401445Y-106840000D01*
X138198555Y-106840000D01*
X138011108Y-106917643D01*
X137867643Y-107061108D01*
X137790000Y-107248555D01*
X129109999Y-107248555D01*
X129109999Y-107061055D01*
X129032356Y-106873608D01*
X128888891Y-106730143D01*
X128701444Y-106652500D01*
X128498554Y-106652500D01*
X128311107Y-106730143D01*
X128167642Y-106873608D01*
X128089999Y-107061055D01*
X125835308Y-107061055D01*
X125860000Y-107001445D01*
X125860000Y-106798555D01*
X125782357Y-106611108D01*
X125638892Y-106467643D01*
X125451445Y-106390000D01*
X125248555Y-106390000D01*
X125061108Y-106467643D01*
X124917643Y-106611108D01*
X124840000Y-106798555D01*
X124840000Y-107000271D01*
X124782357Y-106861108D01*
X124638892Y-106717643D01*
X124451445Y-106640000D01*
X124248555Y-106640000D01*
X124061108Y-106717643D01*
X123917643Y-106861108D01*
X123840000Y-107048555D01*
X123840000Y-107251445D01*
X123917643Y-107438892D01*
X123928751Y-107450000D01*
X123867643Y-107511108D01*
X123790000Y-107698555D01*
X118322694Y-107698555D01*
X118432357Y-107588892D01*
X118510000Y-107401445D01*
X118510000Y-107198555D01*
X118432357Y-107011108D01*
X118288892Y-106867643D01*
X118101445Y-106790000D01*
X117898555Y-106790000D01*
X117711108Y-106867643D01*
X117567643Y-107011108D01*
X117490000Y-107198555D01*
X102910000Y-107198555D01*
X102910000Y-107098555D01*
X102832357Y-106911108D01*
X102688892Y-106767643D01*
X102501445Y-106690000D01*
X102298555Y-106690000D01*
X102111108Y-106767643D01*
X101967643Y-106911108D01*
X101890000Y-107098555D01*
X100310000Y-107098555D01*
X100310000Y-106198555D01*
X100590000Y-106198555D01*
X100590000Y-106401445D01*
X100667643Y-106588892D01*
X100811108Y-106732357D01*
X100998555Y-106810000D01*
X101201445Y-106810000D01*
X101388892Y-106732357D01*
X101532357Y-106588892D01*
X101610000Y-106401445D01*
X101610000Y-106198555D01*
X101568579Y-106098555D01*
X107365000Y-106098555D01*
X107365000Y-106301445D01*
X107442643Y-106488892D01*
X107586108Y-106632357D01*
X107773555Y-106710000D01*
X107976445Y-106710000D01*
X108163892Y-106632357D01*
X108300000Y-106496249D01*
X108436108Y-106632357D01*
X108623555Y-106710000D01*
X108826445Y-106710000D01*
X109013892Y-106632357D01*
X109157357Y-106488892D01*
X109235000Y-106301445D01*
X109235000Y-106098555D01*
X119690000Y-106098555D01*
X119690000Y-106301445D01*
X119767643Y-106488892D01*
X119878751Y-106600000D01*
X119767643Y-106711108D01*
X119690000Y-106898555D01*
X119690000Y-107101445D01*
X119767643Y-107288892D01*
X119911108Y-107432357D01*
X120098555Y-107510000D01*
X120301445Y-107510000D01*
X120488892Y-107432357D01*
X120632357Y-107288892D01*
X120710000Y-107101445D01*
X120710000Y-106898555D01*
X120632357Y-106711108D01*
X120521249Y-106600000D01*
X120632357Y-106488892D01*
X120710000Y-106301445D01*
X120710000Y-106098555D01*
X120632357Y-105911108D01*
X120488892Y-105767643D01*
X120301445Y-105690000D01*
X120098555Y-105690000D01*
X119911108Y-105767643D01*
X119767643Y-105911108D01*
X119690000Y-106098555D01*
X109235000Y-106098555D01*
X109157357Y-105911108D01*
X109013892Y-105767643D01*
X108826445Y-105690000D01*
X108623555Y-105690000D01*
X108436108Y-105767643D01*
X108300000Y-105903751D01*
X108163892Y-105767643D01*
X107976445Y-105690000D01*
X107773555Y-105690000D01*
X107586108Y-105767643D01*
X107442643Y-105911108D01*
X107365000Y-106098555D01*
X101568579Y-106098555D01*
X101532357Y-106011108D01*
X101388892Y-105867643D01*
X101201445Y-105790000D01*
X100998555Y-105790000D01*
X100811108Y-105867643D01*
X100667643Y-106011108D01*
X100590000Y-106198555D01*
X100310000Y-106198555D01*
X100310000Y-105398555D01*
X102490000Y-105398555D01*
X102490000Y-105601445D01*
X102567643Y-105788892D01*
X102711108Y-105932357D01*
X102898555Y-106010000D01*
X103101445Y-106010000D01*
X103288892Y-105932357D01*
X103432357Y-105788892D01*
X103510000Y-105601445D01*
X103510000Y-105398555D01*
X103432357Y-105211108D01*
X103288892Y-105067643D01*
X103101445Y-104990000D01*
X102898555Y-104990000D01*
X102711108Y-105067643D01*
X102567643Y-105211108D01*
X102490000Y-105398555D01*
X100310000Y-105398555D01*
X100310000Y-104948555D01*
X118940000Y-104948555D01*
X118940000Y-105151445D01*
X119017643Y-105338892D01*
X119161108Y-105482357D01*
X119348555Y-105560000D01*
X119551445Y-105560000D01*
X119738892Y-105482357D01*
X119850000Y-105371249D01*
X119911108Y-105432357D01*
X120098555Y-105510000D01*
X120301445Y-105510000D01*
X120488892Y-105432357D01*
X120632357Y-105288892D01*
X120710000Y-105101445D01*
X120710000Y-104898555D01*
X120632357Y-104711108D01*
X120519804Y-104598555D01*
X123890000Y-104598555D01*
X123890000Y-104801445D01*
X123967643Y-104988892D01*
X124111108Y-105132357D01*
X124298555Y-105210000D01*
X124501445Y-105210000D01*
X124688892Y-105132357D01*
X124832357Y-104988892D01*
X124910000Y-104801445D01*
X124910000Y-104598555D01*
X124832357Y-104411108D01*
X124688892Y-104267643D01*
X124501445Y-104190000D01*
X124298555Y-104190000D01*
X124111108Y-104267643D01*
X123967643Y-104411108D01*
X123890000Y-104598555D01*
X120519804Y-104598555D01*
X120488892Y-104567643D01*
X120301445Y-104490000D01*
X120098555Y-104490000D01*
X119911108Y-104567643D01*
X119800000Y-104678751D01*
X119738892Y-104617643D01*
X119551445Y-104540000D01*
X119348555Y-104540000D01*
X119161108Y-104617643D01*
X119017643Y-104761108D01*
X118940000Y-104948555D01*
X100310000Y-104948555D01*
X100310000Y-102498555D01*
X102390000Y-102498555D01*
X102390000Y-102701445D01*
X102467643Y-102888892D01*
X102611108Y-103032357D01*
X102798555Y-103110000D01*
X103001445Y-103110000D01*
X103188892Y-103032357D01*
X103332357Y-102888892D01*
X103350000Y-102846298D01*
X103367643Y-102888892D01*
X103511108Y-103032357D01*
X103698555Y-103110000D01*
X103901445Y-103110000D01*
X104088892Y-103032357D01*
X104222694Y-102898555D01*
X105190000Y-102898555D01*
X105190000Y-103101445D01*
X105267643Y-103288892D01*
X105411108Y-103432357D01*
X105598555Y-103510000D01*
X105801445Y-103510000D01*
X105988892Y-103432357D01*
X106132357Y-103288892D01*
X106200000Y-103125587D01*
X106267643Y-103288892D01*
X106411108Y-103432357D01*
X106598555Y-103510000D01*
X106801445Y-103510000D01*
X106988892Y-103432357D01*
X107132357Y-103288892D01*
X107210000Y-103101445D01*
X107210000Y-102898555D01*
X107132357Y-102711108D01*
X107041678Y-102620429D01*
X107278460Y-102620429D01*
X107278460Y-102823319D01*
X107356103Y-103010766D01*
X107499568Y-103154231D01*
X107687015Y-103231874D01*
X107879502Y-103231874D01*
X107879502Y-103424361D01*
X107957145Y-103611808D01*
X108100610Y-103755273D01*
X108288057Y-103832916D01*
X108490947Y-103832916D01*
X108678394Y-103755273D01*
X108821859Y-103611808D01*
X108899502Y-103424361D01*
X108899502Y-103221471D01*
X108890014Y-103198563D01*
X111564992Y-103198563D01*
X111564992Y-103401453D01*
X111642635Y-103588900D01*
X111786100Y-103732365D01*
X111973547Y-103810008D01*
X112176437Y-103810008D01*
X112363884Y-103732365D01*
X112507349Y-103588900D01*
X112584992Y-103401453D01*
X112584992Y-103198563D01*
X112507349Y-103011116D01*
X112497508Y-103001275D01*
X112663892Y-102932357D01*
X112807357Y-102788892D01*
X112885000Y-102601445D01*
X112885000Y-102498555D01*
X113665000Y-102498555D01*
X113665000Y-102701445D01*
X113742643Y-102888892D01*
X113886108Y-103032357D01*
X114003368Y-103080927D01*
X113965000Y-103173555D01*
X113965000Y-103376445D01*
X114042643Y-103563892D01*
X114186108Y-103707357D01*
X114373555Y-103785000D01*
X114576445Y-103785000D01*
X114763892Y-103707357D01*
X114907357Y-103563892D01*
X114985000Y-103376445D01*
X114985000Y-103173555D01*
X114937408Y-103058657D01*
X115011108Y-103132357D01*
X115198555Y-103210000D01*
X115401445Y-103210000D01*
X115588892Y-103132357D01*
X115657308Y-103063941D01*
X115667643Y-103088892D01*
X115811108Y-103232357D01*
X115998555Y-103310000D01*
X116201445Y-103310000D01*
X116388892Y-103232357D01*
X116532357Y-103088892D01*
X116595664Y-102936054D01*
X135827499Y-102936054D01*
X135827499Y-103138944D01*
X135905142Y-103326391D01*
X136048607Y-103469856D01*
X136236054Y-103547499D01*
X136290000Y-103547499D01*
X136290000Y-103601445D01*
X136367643Y-103788892D01*
X136509505Y-103930754D01*
X136440000Y-104098555D01*
X136440000Y-104301445D01*
X136517643Y-104488892D01*
X136603751Y-104575000D01*
X136517643Y-104661108D01*
X136440000Y-104848555D01*
X136440000Y-105051445D01*
X136517643Y-105238892D01*
X136661108Y-105382357D01*
X136848555Y-105460000D01*
X137051445Y-105460000D01*
X137238892Y-105382357D01*
X137382357Y-105238892D01*
X137460000Y-105051445D01*
X137460000Y-104848555D01*
X137382357Y-104661108D01*
X137296249Y-104575000D01*
X137382357Y-104488892D01*
X137460000Y-104301445D01*
X137460000Y-104098555D01*
X137382357Y-103911108D01*
X137240495Y-103769246D01*
X137310000Y-103601445D01*
X137310000Y-103398555D01*
X137232357Y-103211108D01*
X137088892Y-103067643D01*
X136901445Y-102990000D01*
X136847499Y-102990000D01*
X136847499Y-102936054D01*
X136769856Y-102748607D01*
X136626391Y-102605142D01*
X136438944Y-102527499D01*
X136236054Y-102527499D01*
X136048607Y-102605142D01*
X135905142Y-102748607D01*
X135827499Y-102936054D01*
X116595664Y-102936054D01*
X116610000Y-102901445D01*
X116610000Y-102698555D01*
X116532357Y-102511108D01*
X116388892Y-102367643D01*
X116201445Y-102290000D01*
X115998555Y-102290000D01*
X115811108Y-102367643D01*
X115742692Y-102436059D01*
X115732357Y-102411108D01*
X115588892Y-102267643D01*
X115401445Y-102190000D01*
X115198555Y-102190000D01*
X115011108Y-102267643D01*
X114867643Y-102411108D01*
X114790000Y-102598555D01*
X114790000Y-102801445D01*
X114837592Y-102916343D01*
X114763892Y-102842643D01*
X114646632Y-102794073D01*
X114685000Y-102701445D01*
X114685000Y-102498555D01*
X114607357Y-102311108D01*
X114463892Y-102167643D01*
X114276445Y-102090000D01*
X114073555Y-102090000D01*
X113886108Y-102167643D01*
X113742643Y-102311108D01*
X113665000Y-102498555D01*
X112885000Y-102498555D01*
X112885000Y-102398555D01*
X112807357Y-102211108D01*
X112663892Y-102067643D01*
X112476445Y-101990000D01*
X112273555Y-101990000D01*
X112086108Y-102067643D01*
X111942643Y-102211108D01*
X111865000Y-102398555D01*
X111865000Y-102601445D01*
X111942643Y-102788892D01*
X111952484Y-102798733D01*
X111786100Y-102867651D01*
X111642635Y-103011116D01*
X111564992Y-103198563D01*
X108890014Y-103198563D01*
X108821859Y-103034024D01*
X108678394Y-102890559D01*
X108490947Y-102812916D01*
X108298460Y-102812916D01*
X108298460Y-102620429D01*
X108220817Y-102432982D01*
X108077352Y-102289517D01*
X107889905Y-102211874D01*
X107687015Y-102211874D01*
X107499568Y-102289517D01*
X107356103Y-102432982D01*
X107278460Y-102620429D01*
X107041678Y-102620429D01*
X106988892Y-102567643D01*
X106801445Y-102490000D01*
X106598555Y-102490000D01*
X106411108Y-102567643D01*
X106267643Y-102711108D01*
X106200000Y-102874413D01*
X106132357Y-102711108D01*
X105988892Y-102567643D01*
X105801445Y-102490000D01*
X105598555Y-102490000D01*
X105411108Y-102567643D01*
X105267643Y-102711108D01*
X105190000Y-102898555D01*
X104222694Y-102898555D01*
X104232357Y-102888892D01*
X104310000Y-102701445D01*
X104310000Y-102498555D01*
X104232357Y-102311108D01*
X104088892Y-102167643D01*
X103901445Y-102090000D01*
X103698555Y-102090000D01*
X103511108Y-102167643D01*
X103367643Y-102311108D01*
X103350000Y-102353702D01*
X103332357Y-102311108D01*
X103188892Y-102167643D01*
X103001445Y-102090000D01*
X102798555Y-102090000D01*
X102611108Y-102167643D01*
X102467643Y-102311108D01*
X102390000Y-102498555D01*
X100310000Y-102498555D01*
X100310000Y-101969469D01*
X100299698Y-101917677D01*
X100356725Y-101519472D01*
X100366235Y-101498555D01*
X124890000Y-101498555D01*
X124890000Y-101701445D01*
X124967643Y-101888892D01*
X125111108Y-102032357D01*
X125298555Y-102110000D01*
X125501445Y-102110000D01*
X125688892Y-102032357D01*
X125832357Y-101888892D01*
X125910000Y-101701445D01*
X125910000Y-101498555D01*
X125832357Y-101311108D01*
X125688892Y-101167643D01*
X125501445Y-101090000D01*
X125298555Y-101090000D01*
X125111108Y-101167643D01*
X124967643Y-101311108D01*
X124890000Y-101498555D01*
X100366235Y-101498555D01*
X100557644Y-101077575D01*
X100874516Y-100709828D01*
X101281859Y-100445802D01*
X101756379Y-100303889D01*
X101889149Y-100294023D01*
X101969469Y-100310000D01*
G04 #@! TD*
M02*
