G04 #@! TF.GenerationSoftware,KiCad,Pcbnew,5.0.1*
G04 #@! TF.CreationDate,2019-10-08T03:13:47+02:00*
G04 #@! TF.ProjectId,USB-C-Screen-Adapter,5553422D432D53637265656E2D416461,rev?*
G04 #@! TF.SameCoordinates,Original*
G04 #@! TF.FileFunction,Soldermask,Bot*
G04 #@! TF.FilePolarity,Negative*
%FSLAX46Y46*%
G04 Gerber Fmt 4.6, Leading zero omitted, Abs format (unit mm)*
G04 Created by KiCad (PCBNEW 5.0.1) date Tue 08 Oct 2019 03:13:47 AM CEST*
%MOMM*%
%LPD*%
G01*
G04 APERTURE LIST*
%ADD10C,0.100000*%
G04 APERTURE END LIST*
D10*
G36*
X101927732Y-119066176D02*
X102017409Y-119103321D01*
X102098117Y-119157249D01*
X102166751Y-119225883D01*
X102220679Y-119306591D01*
X102257824Y-119396268D01*
X102276760Y-119491466D01*
X102276760Y-119588534D01*
X102257824Y-119683732D01*
X102220679Y-119773409D01*
X102166751Y-119854117D01*
X102098117Y-119922751D01*
X102017409Y-119976679D01*
X101927732Y-120013824D01*
X101832534Y-120032760D01*
X101735466Y-120032760D01*
X101640268Y-120013824D01*
X101550591Y-119976679D01*
X101469883Y-119922751D01*
X101401249Y-119854117D01*
X101347321Y-119773409D01*
X101310176Y-119683732D01*
X101291240Y-119588534D01*
X101291240Y-119491466D01*
X101310176Y-119396268D01*
X101347321Y-119306591D01*
X101401249Y-119225883D01*
X101469883Y-119157249D01*
X101550591Y-119103321D01*
X101640268Y-119066176D01*
X101735466Y-119047240D01*
X101832534Y-119047240D01*
X101927732Y-119066176D01*
X101927732Y-119066176D01*
G37*
G36*
X103959732Y-119066176D02*
X104049409Y-119103321D01*
X104130117Y-119157249D01*
X104198751Y-119225883D01*
X104252679Y-119306591D01*
X104289824Y-119396268D01*
X104308760Y-119491466D01*
X104308760Y-119588534D01*
X104289824Y-119683732D01*
X104252679Y-119773409D01*
X104198751Y-119854117D01*
X104130117Y-119922751D01*
X104049409Y-119976679D01*
X103959732Y-120013824D01*
X103864534Y-120032760D01*
X103767466Y-120032760D01*
X103672268Y-120013824D01*
X103582591Y-119976679D01*
X103501883Y-119922751D01*
X103433249Y-119854117D01*
X103379321Y-119773409D01*
X103342176Y-119683732D01*
X103323240Y-119588534D01*
X103323240Y-119491466D01*
X103342176Y-119396268D01*
X103379321Y-119306591D01*
X103433249Y-119225883D01*
X103501883Y-119157249D01*
X103582591Y-119103321D01*
X103672268Y-119066176D01*
X103767466Y-119047240D01*
X103864534Y-119047240D01*
X103959732Y-119066176D01*
X103959732Y-119066176D01*
G37*
G36*
X115198840Y-117404676D02*
X115238589Y-117416734D01*
X115275223Y-117436315D01*
X115307333Y-117462667D01*
X115333685Y-117494777D01*
X115353266Y-117531411D01*
X115365324Y-117571160D01*
X115370000Y-117618640D01*
X115370000Y-119581360D01*
X115365324Y-119628840D01*
X115353266Y-119668589D01*
X115333685Y-119705223D01*
X115307333Y-119737333D01*
X115275223Y-119763685D01*
X115238589Y-119783266D01*
X115198840Y-119795324D01*
X115151360Y-119800000D01*
X114488640Y-119800000D01*
X114441160Y-119795324D01*
X114401411Y-119783266D01*
X114364777Y-119763685D01*
X114332667Y-119737333D01*
X114306315Y-119705223D01*
X114286734Y-119668589D01*
X114274676Y-119628840D01*
X114270000Y-119581360D01*
X114270000Y-117618640D01*
X114274676Y-117571160D01*
X114286734Y-117531411D01*
X114306315Y-117494777D01*
X114332667Y-117462667D01*
X114364777Y-117436315D01*
X114401411Y-117416734D01*
X114441160Y-117404676D01*
X114488640Y-117400000D01*
X115151360Y-117400000D01*
X115198840Y-117404676D01*
X115198840Y-117404676D01*
G37*
G36*
X106558840Y-117404676D02*
X106598589Y-117416734D01*
X106635223Y-117436315D01*
X106667333Y-117462667D01*
X106693685Y-117494777D01*
X106713266Y-117531411D01*
X106725324Y-117571160D01*
X106730000Y-117618640D01*
X106730000Y-119581360D01*
X106725324Y-119628840D01*
X106713266Y-119668589D01*
X106693685Y-119705223D01*
X106667333Y-119737333D01*
X106635223Y-119763685D01*
X106598589Y-119783266D01*
X106558840Y-119795324D01*
X106511360Y-119800000D01*
X105848640Y-119800000D01*
X105801160Y-119795324D01*
X105761411Y-119783266D01*
X105724777Y-119763685D01*
X105692667Y-119737333D01*
X105666315Y-119705223D01*
X105646734Y-119668589D01*
X105634676Y-119628840D01*
X105630000Y-119581360D01*
X105630000Y-117618640D01*
X105634676Y-117571160D01*
X105646734Y-117531411D01*
X105666315Y-117494777D01*
X105692667Y-117462667D01*
X105724777Y-117436315D01*
X105761411Y-117416734D01*
X105801160Y-117404676D01*
X105848640Y-117400000D01*
X106511360Y-117400000D01*
X106558840Y-117404676D01*
X106558840Y-117404676D01*
G37*
G36*
X122745845Y-116319215D02*
X122836839Y-116356906D01*
X122917640Y-116410896D01*
X122918734Y-116411627D01*
X122988373Y-116481266D01*
X123043095Y-116563163D01*
X123080785Y-116654155D01*
X123100000Y-116750755D01*
X123100000Y-116849245D01*
X123080785Y-116945845D01*
X123043095Y-117036837D01*
X122988373Y-117118734D01*
X122918734Y-117188373D01*
X122918731Y-117188375D01*
X122836839Y-117243094D01*
X122745845Y-117280785D01*
X122649246Y-117300000D01*
X122550754Y-117300000D01*
X122454155Y-117280785D01*
X122363161Y-117243094D01*
X122281269Y-117188375D01*
X122281266Y-117188373D01*
X122211627Y-117118734D01*
X122156905Y-117036837D01*
X122119215Y-116945845D01*
X122100000Y-116849245D01*
X122100000Y-116750755D01*
X122119215Y-116654155D01*
X122156905Y-116563163D01*
X122211627Y-116481266D01*
X122281266Y-116411627D01*
X122282360Y-116410896D01*
X122363161Y-116356906D01*
X122454155Y-116319215D01*
X122550754Y-116300000D01*
X122649246Y-116300000D01*
X122745845Y-116319215D01*
X122745845Y-116319215D01*
G37*
G36*
X107136698Y-115364902D02*
X107172922Y-115372107D01*
X107218420Y-115390953D01*
X107259366Y-115418312D01*
X107294188Y-115453134D01*
X107321547Y-115494080D01*
X107340393Y-115539578D01*
X107350000Y-115587877D01*
X107350000Y-115637123D01*
X107340393Y-115685422D01*
X107321547Y-115730920D01*
X107294188Y-115771866D01*
X107259366Y-115806688D01*
X107218420Y-115834047D01*
X107172922Y-115852893D01*
X107136698Y-115860098D01*
X107124624Y-115862500D01*
X107075376Y-115862500D01*
X107063302Y-115860098D01*
X107027078Y-115852893D01*
X106981580Y-115834047D01*
X106940634Y-115806688D01*
X106905812Y-115771866D01*
X106878453Y-115730920D01*
X106859607Y-115685422D01*
X106850000Y-115637123D01*
X106850000Y-115587877D01*
X106859607Y-115539578D01*
X106878453Y-115494080D01*
X106905812Y-115453134D01*
X106940634Y-115418312D01*
X106981580Y-115390953D01*
X107027078Y-115372107D01*
X107063302Y-115364902D01*
X107075376Y-115362500D01*
X107124624Y-115362500D01*
X107136698Y-115364902D01*
X107136698Y-115364902D01*
G37*
G36*
X113936698Y-115364902D02*
X113972922Y-115372107D01*
X114018420Y-115390953D01*
X114059366Y-115418312D01*
X114094188Y-115453134D01*
X114121547Y-115494080D01*
X114140393Y-115539578D01*
X114150000Y-115587877D01*
X114150000Y-115637123D01*
X114140393Y-115685422D01*
X114121547Y-115730920D01*
X114094188Y-115771866D01*
X114059366Y-115806688D01*
X114018420Y-115834047D01*
X113972922Y-115852893D01*
X113936698Y-115860098D01*
X113924624Y-115862500D01*
X113875376Y-115862500D01*
X113863302Y-115860098D01*
X113827078Y-115852893D01*
X113781580Y-115834047D01*
X113740634Y-115806688D01*
X113705812Y-115771866D01*
X113678453Y-115730920D01*
X113659607Y-115685422D01*
X113650000Y-115637123D01*
X113650000Y-115587877D01*
X113659607Y-115539578D01*
X113678453Y-115494080D01*
X113705812Y-115453134D01*
X113740634Y-115418312D01*
X113781580Y-115390953D01*
X113827078Y-115372107D01*
X113863302Y-115364902D01*
X113875376Y-115362500D01*
X113924624Y-115362500D01*
X113936698Y-115364902D01*
X113936698Y-115364902D01*
G37*
G36*
X122720845Y-114269215D02*
X122811839Y-114306906D01*
X122825296Y-114315898D01*
X122893734Y-114361627D01*
X122963373Y-114431266D01*
X123018095Y-114513163D01*
X123055785Y-114604155D01*
X123075000Y-114700755D01*
X123075000Y-114799245D01*
X123055785Y-114895845D01*
X123018095Y-114986837D01*
X122963373Y-115068734D01*
X122893734Y-115138373D01*
X122893731Y-115138375D01*
X122811839Y-115193094D01*
X122720845Y-115230785D01*
X122624246Y-115250000D01*
X122525754Y-115250000D01*
X122429155Y-115230785D01*
X122338161Y-115193094D01*
X122256269Y-115138375D01*
X122256266Y-115138373D01*
X122186627Y-115068734D01*
X122131905Y-114986837D01*
X122094215Y-114895845D01*
X122075000Y-114799245D01*
X122075000Y-114700755D01*
X122094215Y-114604155D01*
X122131905Y-114513163D01*
X122186627Y-114431266D01*
X122256266Y-114361627D01*
X122324704Y-114315898D01*
X122338161Y-114306906D01*
X122429155Y-114269215D01*
X122525754Y-114250000D01*
X122624246Y-114250000D01*
X122720845Y-114269215D01*
X122720845Y-114269215D01*
G37*
G36*
X106558840Y-113004676D02*
X106598589Y-113016734D01*
X106635223Y-113036315D01*
X106667333Y-113062667D01*
X106693685Y-113094777D01*
X106713266Y-113131411D01*
X106725324Y-113171160D01*
X106730000Y-113218640D01*
X106730000Y-113675000D01*
X106732402Y-113699386D01*
X106739515Y-113722835D01*
X106751066Y-113744446D01*
X106766612Y-113763388D01*
X106785554Y-113778934D01*
X106807165Y-113790485D01*
X106830614Y-113797598D01*
X106855000Y-113800000D01*
X106981359Y-113800000D01*
X107038591Y-113805637D01*
X107087724Y-113820541D01*
X107133002Y-113844743D01*
X107172688Y-113877312D01*
X107205257Y-113916998D01*
X107229459Y-113962276D01*
X107244363Y-114011409D01*
X107250000Y-114068641D01*
X107250000Y-114831359D01*
X107244363Y-114888591D01*
X107229459Y-114937724D01*
X107205257Y-114983002D01*
X107172688Y-115022688D01*
X107133002Y-115055257D01*
X107087724Y-115079459D01*
X107038591Y-115094363D01*
X106981359Y-115100000D01*
X105848640Y-115100000D01*
X105801160Y-115095324D01*
X105761411Y-115083266D01*
X105724777Y-115063685D01*
X105692667Y-115037333D01*
X105666315Y-115005223D01*
X105646734Y-114968589D01*
X105634676Y-114928840D01*
X105630000Y-114881360D01*
X105630000Y-113218640D01*
X105634676Y-113171160D01*
X105646734Y-113131411D01*
X105666315Y-113094777D01*
X105692667Y-113062667D01*
X105724777Y-113036315D01*
X105761411Y-113016734D01*
X105801160Y-113004676D01*
X105848640Y-113000000D01*
X106511360Y-113000000D01*
X106558840Y-113004676D01*
X106558840Y-113004676D01*
G37*
G36*
X115198840Y-113004676D02*
X115238589Y-113016734D01*
X115275223Y-113036315D01*
X115307333Y-113062667D01*
X115333685Y-113094777D01*
X115353266Y-113131411D01*
X115365324Y-113171160D01*
X115370000Y-113218640D01*
X115370000Y-114881360D01*
X115365324Y-114928840D01*
X115353266Y-114968589D01*
X115333685Y-115005223D01*
X115307333Y-115037333D01*
X115275223Y-115063685D01*
X115238589Y-115083266D01*
X115198840Y-115095324D01*
X115151360Y-115100000D01*
X114018641Y-115100000D01*
X113961409Y-115094363D01*
X113912276Y-115079459D01*
X113866998Y-115055257D01*
X113827312Y-115022688D01*
X113794743Y-114983002D01*
X113770541Y-114937724D01*
X113755637Y-114888591D01*
X113750000Y-114831359D01*
X113750000Y-114068641D01*
X113755637Y-114011409D01*
X113770541Y-113962276D01*
X113794743Y-113916998D01*
X113827312Y-113877312D01*
X113866998Y-113844743D01*
X113912276Y-113820541D01*
X113961409Y-113805637D01*
X114018641Y-113800000D01*
X114145000Y-113800000D01*
X114169386Y-113797598D01*
X114192835Y-113790485D01*
X114214446Y-113778934D01*
X114233388Y-113763388D01*
X114248934Y-113744446D01*
X114260485Y-113722835D01*
X114267598Y-113699386D01*
X114270000Y-113675000D01*
X114270000Y-113218640D01*
X114274676Y-113171160D01*
X114286734Y-113131411D01*
X114306315Y-113094777D01*
X114332667Y-113062667D01*
X114364777Y-113036315D01*
X114401411Y-113016734D01*
X114441160Y-113004676D01*
X114488640Y-113000000D01*
X115151360Y-113000000D01*
X115198840Y-113004676D01*
X115198840Y-113004676D01*
G37*
G36*
X102944102Y-113984955D02*
X103034008Y-114022195D01*
X103034011Y-114022197D01*
X103114926Y-114076262D01*
X103183738Y-114145074D01*
X103237803Y-114225989D01*
X103237805Y-114225992D01*
X103275045Y-114315898D01*
X103294030Y-114411341D01*
X103294030Y-114508659D01*
X103275045Y-114604102D01*
X103237805Y-114694008D01*
X103237803Y-114694011D01*
X103183738Y-114774926D01*
X103114926Y-114843738D01*
X103058620Y-114881360D01*
X103034008Y-114897805D01*
X102944102Y-114935045D01*
X102848659Y-114954030D01*
X102751341Y-114954030D01*
X102655898Y-114935045D01*
X102565992Y-114897805D01*
X102541380Y-114881360D01*
X102485074Y-114843738D01*
X102416262Y-114774926D01*
X102362197Y-114694011D01*
X102362195Y-114694008D01*
X102324955Y-114604102D01*
X102305970Y-114508659D01*
X102305970Y-114411341D01*
X102324955Y-114315898D01*
X102362195Y-114225992D01*
X102362197Y-114225989D01*
X102416262Y-114145074D01*
X102485074Y-114076262D01*
X102565989Y-114022197D01*
X102565992Y-114022195D01*
X102655898Y-113984955D01*
X102751341Y-113965970D01*
X102848659Y-113965970D01*
X102944102Y-113984955D01*
X102944102Y-113984955D01*
G37*
G36*
X122645845Y-112219215D02*
X122736839Y-112256906D01*
X122817640Y-112310896D01*
X122818734Y-112311627D01*
X122888373Y-112381266D01*
X122943095Y-112463163D01*
X122980785Y-112554155D01*
X123000000Y-112650755D01*
X123000000Y-112749245D01*
X122980785Y-112845845D01*
X122943095Y-112936837D01*
X122888373Y-113018734D01*
X122818734Y-113088373D01*
X122818731Y-113088375D01*
X122736839Y-113143094D01*
X122645845Y-113180785D01*
X122549246Y-113200000D01*
X122450754Y-113200000D01*
X122354155Y-113180785D01*
X122263161Y-113143094D01*
X122181269Y-113088375D01*
X122181266Y-113088373D01*
X122111627Y-113018734D01*
X122056905Y-112936837D01*
X122019215Y-112845845D01*
X122000000Y-112749245D01*
X122000000Y-112650755D01*
X122019215Y-112554155D01*
X122056905Y-112463163D01*
X122111627Y-112381266D01*
X122181266Y-112311627D01*
X122182360Y-112310896D01*
X122263161Y-112256906D01*
X122354155Y-112219215D01*
X122450754Y-112200000D01*
X122549246Y-112200000D01*
X122645845Y-112219215D01*
X122645845Y-112219215D01*
G37*
M02*
