G04 #@! TF.GenerationSoftware,KiCad,Pcbnew,5.0.1*
G04 #@! TF.CreationDate,2019-10-08T03:13:47+02:00*
G04 #@! TF.ProjectId,USB-C-Screen-Adapter,5553422D432D53637265656E2D416461,rev?*
G04 #@! TF.SameCoordinates,Original*
G04 #@! TF.FileFunction,Legend,Bot*
G04 #@! TF.FilePolarity,Positive*
%FSLAX46Y46*%
G04 Gerber Fmt 4.6, Leading zero omitted, Abs format (unit mm)*
G04 Created by KiCad (PCBNEW 5.0.1) date Tue 08 Oct 2019 03:13:47 AM CEST*
%MOMM*%
%LPD*%
G01*
G04 APERTURE LIST*
%ADD10C,0.200000*%
%ADD11C,0.010000*%
%ADD12C,0.120000*%
G04 APERTURE END LIST*
D10*
X114728571Y-109342857D02*
X114728571Y-108142857D01*
X114442857Y-108142857D01*
X114271428Y-108200000D01*
X114157142Y-108314285D01*
X114100000Y-108428571D01*
X114042857Y-108657142D01*
X114042857Y-108828571D01*
X114100000Y-109057142D01*
X114157142Y-109171428D01*
X114271428Y-109285714D01*
X114442857Y-109342857D01*
X114728571Y-109342857D01*
X113071428Y-109285714D02*
X113185714Y-109342857D01*
X113414285Y-109342857D01*
X113528571Y-109285714D01*
X113585714Y-109171428D01*
X113585714Y-108714285D01*
X113528571Y-108600000D01*
X113414285Y-108542857D01*
X113185714Y-108542857D01*
X113071428Y-108600000D01*
X113014285Y-108714285D01*
X113014285Y-108828571D01*
X113585714Y-108942857D01*
X112557142Y-109285714D02*
X112442857Y-109342857D01*
X112214285Y-109342857D01*
X112100000Y-109285714D01*
X112042857Y-109171428D01*
X112042857Y-109114285D01*
X112100000Y-109000000D01*
X112214285Y-108942857D01*
X112385714Y-108942857D01*
X112500000Y-108885714D01*
X112557142Y-108771428D01*
X112557142Y-108714285D01*
X112500000Y-108600000D01*
X112385714Y-108542857D01*
X112214285Y-108542857D01*
X112100000Y-108600000D01*
X111528571Y-109342857D02*
X111528571Y-108542857D01*
X111528571Y-108142857D02*
X111585714Y-108200000D01*
X111528571Y-108257142D01*
X111471428Y-108200000D01*
X111528571Y-108142857D01*
X111528571Y-108257142D01*
X110442857Y-108542857D02*
X110442857Y-109514285D01*
X110500000Y-109628571D01*
X110557142Y-109685714D01*
X110671428Y-109742857D01*
X110842857Y-109742857D01*
X110957142Y-109685714D01*
X110442857Y-109285714D02*
X110557142Y-109342857D01*
X110785714Y-109342857D01*
X110900000Y-109285714D01*
X110957142Y-109228571D01*
X111014285Y-109114285D01*
X111014285Y-108771428D01*
X110957142Y-108657142D01*
X110900000Y-108600000D01*
X110785714Y-108542857D01*
X110557142Y-108542857D01*
X110442857Y-108600000D01*
X109871428Y-108542857D02*
X109871428Y-109342857D01*
X109871428Y-108657142D02*
X109814285Y-108600000D01*
X109700000Y-108542857D01*
X109528571Y-108542857D01*
X109414285Y-108600000D01*
X109357142Y-108714285D01*
X109357142Y-109342857D01*
X107871428Y-109342857D02*
X107871428Y-108142857D01*
X107871428Y-108600000D02*
X107757142Y-108542857D01*
X107528571Y-108542857D01*
X107414285Y-108600000D01*
X107357142Y-108657142D01*
X107300000Y-108771428D01*
X107300000Y-109114285D01*
X107357142Y-109228571D01*
X107414285Y-109285714D01*
X107528571Y-109342857D01*
X107757142Y-109342857D01*
X107871428Y-109285714D01*
X106900000Y-108542857D02*
X106614285Y-109342857D01*
X106328571Y-108542857D02*
X106614285Y-109342857D01*
X106728571Y-109628571D01*
X106785714Y-109685714D01*
X106900000Y-109742857D01*
X105871428Y-109228571D02*
X105814285Y-109285714D01*
X105871428Y-109342857D01*
X105928571Y-109285714D01*
X105871428Y-109228571D01*
X105871428Y-109342857D01*
X105871428Y-108600000D02*
X105814285Y-108657142D01*
X105871428Y-108714285D01*
X105928571Y-108657142D01*
X105871428Y-108600000D01*
X105871428Y-108714285D01*
X118757142Y-110142857D02*
X118757142Y-111000000D01*
X118814285Y-111171428D01*
X118928571Y-111285714D01*
X119100000Y-111342857D01*
X119214285Y-111342857D01*
X117671428Y-111342857D02*
X117671428Y-110714285D01*
X117728571Y-110600000D01*
X117842857Y-110542857D01*
X118071428Y-110542857D01*
X118185714Y-110600000D01*
X117671428Y-111285714D02*
X117785714Y-111342857D01*
X118071428Y-111342857D01*
X118185714Y-111285714D01*
X118242857Y-111171428D01*
X118242857Y-111057142D01*
X118185714Y-110942857D01*
X118071428Y-110885714D01*
X117785714Y-110885714D01*
X117671428Y-110828571D01*
X117100000Y-110542857D02*
X117100000Y-111342857D01*
X117100000Y-110657142D02*
X117042857Y-110600000D01*
X116928571Y-110542857D01*
X116757142Y-110542857D01*
X116642857Y-110600000D01*
X116585714Y-110714285D01*
X116585714Y-111342857D01*
X115100000Y-111342857D02*
X115100000Y-110142857D01*
X115100000Y-110714285D02*
X114414285Y-110714285D01*
X114414285Y-111342857D02*
X114414285Y-110142857D01*
X113385714Y-111285714D02*
X113500000Y-111342857D01*
X113728571Y-111342857D01*
X113842857Y-111285714D01*
X113900000Y-111171428D01*
X113900000Y-110714285D01*
X113842857Y-110600000D01*
X113728571Y-110542857D01*
X113500000Y-110542857D01*
X113385714Y-110600000D01*
X113328571Y-110714285D01*
X113328571Y-110828571D01*
X113900000Y-110942857D01*
X112814285Y-110542857D02*
X112814285Y-111342857D01*
X112814285Y-110657142D02*
X112757142Y-110600000D01*
X112642857Y-110542857D01*
X112471428Y-110542857D01*
X112357142Y-110600000D01*
X112300000Y-110714285D01*
X112300000Y-111342857D01*
X111728571Y-111342857D02*
X111728571Y-110542857D01*
X111728571Y-110771428D02*
X111671428Y-110657142D01*
X111614285Y-110600000D01*
X111500000Y-110542857D01*
X111385714Y-110542857D01*
X110985714Y-111342857D02*
X110985714Y-110542857D01*
X110985714Y-110142857D02*
X111042857Y-110200000D01*
X110985714Y-110257142D01*
X110928571Y-110200000D01*
X110985714Y-110142857D01*
X110985714Y-110257142D01*
X110414285Y-111342857D02*
X110414285Y-110142857D01*
X110300000Y-110885714D02*
X109957142Y-111342857D01*
X109957142Y-110542857D02*
X110414285Y-111000000D01*
X108528571Y-111342857D02*
X108528571Y-110142857D01*
X108528571Y-110714285D02*
X107842857Y-110714285D01*
X107842857Y-111342857D02*
X107842857Y-110142857D01*
X106814285Y-111285714D02*
X106928571Y-111342857D01*
X107157142Y-111342857D01*
X107271428Y-111285714D01*
X107328571Y-111171428D01*
X107328571Y-110714285D01*
X107271428Y-110600000D01*
X107157142Y-110542857D01*
X106928571Y-110542857D01*
X106814285Y-110600000D01*
X106757142Y-110714285D01*
X106757142Y-110828571D01*
X107328571Y-110942857D01*
X106242857Y-111342857D02*
X106242857Y-110542857D01*
X106242857Y-110657142D02*
X106185714Y-110600000D01*
X106071428Y-110542857D01*
X105900000Y-110542857D01*
X105785714Y-110600000D01*
X105728571Y-110714285D01*
X105728571Y-111342857D01*
X105728571Y-110714285D02*
X105671428Y-110600000D01*
X105557142Y-110542857D01*
X105385714Y-110542857D01*
X105271428Y-110600000D01*
X105214285Y-110714285D01*
X105214285Y-111342857D01*
X104700000Y-111285714D02*
X104585714Y-111342857D01*
X104357142Y-111342857D01*
X104242857Y-111285714D01*
X104185714Y-111171428D01*
X104185714Y-111114285D01*
X104242857Y-111000000D01*
X104357142Y-110942857D01*
X104528571Y-110942857D01*
X104642857Y-110885714D01*
X104700000Y-110771428D01*
X104700000Y-110714285D01*
X104642857Y-110600000D01*
X104528571Y-110542857D01*
X104357142Y-110542857D01*
X104242857Y-110600000D01*
X103671428Y-111342857D02*
X103671428Y-110542857D01*
X103671428Y-110142857D02*
X103728571Y-110200000D01*
X103671428Y-110257142D01*
X103614285Y-110200000D01*
X103671428Y-110142857D01*
X103671428Y-110257142D01*
X103100000Y-110542857D02*
X103100000Y-111342857D01*
X103100000Y-110657142D02*
X103042857Y-110600000D01*
X102928571Y-110542857D01*
X102757142Y-110542857D01*
X102642857Y-110600000D01*
X102585714Y-110714285D01*
X102585714Y-111342857D01*
X101500000Y-110542857D02*
X101500000Y-111514285D01*
X101557142Y-111628571D01*
X101614285Y-111685714D01*
X101728571Y-111742857D01*
X101900000Y-111742857D01*
X102014285Y-111685714D01*
X101500000Y-111285714D02*
X101614285Y-111342857D01*
X101842857Y-111342857D01*
X101957142Y-111285714D01*
X102014285Y-111228571D01*
X102071428Y-111114285D01*
X102071428Y-110771428D01*
X102014285Y-110657142D01*
X101957142Y-110600000D01*
X101842857Y-110542857D01*
X101614285Y-110542857D01*
X101500000Y-110600000D01*
X126842857Y-114100000D02*
X126985714Y-114028571D01*
X127200000Y-114028571D01*
X127414285Y-114100000D01*
X127557142Y-114242857D01*
X127628571Y-114385714D01*
X127700000Y-114671428D01*
X127700000Y-114885714D01*
X127628571Y-115171428D01*
X127557142Y-115314285D01*
X127414285Y-115457142D01*
X127200000Y-115528571D01*
X127057142Y-115528571D01*
X126842857Y-115457142D01*
X126771428Y-115385714D01*
X126771428Y-114885714D01*
X127057142Y-114885714D01*
X126128571Y-115528571D02*
X126128571Y-114028571D01*
X125271428Y-115528571D01*
X125271428Y-114028571D01*
X124557142Y-115528571D02*
X124557142Y-114028571D01*
X124200000Y-114028571D01*
X123985714Y-114100000D01*
X123842857Y-114242857D01*
X123771428Y-114385714D01*
X123700000Y-114671428D01*
X123700000Y-114885714D01*
X123771428Y-115171428D01*
X123842857Y-115314285D01*
X123985714Y-115457142D01*
X124200000Y-115528571D01*
X124557142Y-115528571D01*
X125200000Y-117578571D02*
X125700000Y-116864285D01*
X126057142Y-117578571D02*
X126057142Y-116078571D01*
X125485714Y-116078571D01*
X125342857Y-116150000D01*
X125271428Y-116221428D01*
X125200000Y-116364285D01*
X125200000Y-116578571D01*
X125271428Y-116721428D01*
X125342857Y-116792857D01*
X125485714Y-116864285D01*
X126057142Y-116864285D01*
X124700000Y-116078571D02*
X123700000Y-117578571D01*
X123700000Y-116078571D02*
X124700000Y-117578571D01*
X125792857Y-111953571D02*
X124935714Y-111953571D01*
X125364285Y-113453571D02*
X125364285Y-111953571D01*
X124578571Y-111953571D02*
X123578571Y-113453571D01*
X123578571Y-111953571D02*
X124578571Y-113453571D01*
D11*
G04 #@! TO.C,G\002A\002A\002A*
G36*
X133157937Y-104167430D02*
X133290003Y-104167998D01*
X133395883Y-104169156D01*
X133481140Y-104171274D01*
X133551335Y-104174717D01*
X133612033Y-104179852D01*
X133668796Y-104187047D01*
X133727186Y-104196670D01*
X133792767Y-104209086D01*
X133794636Y-104209453D01*
X133896571Y-104231400D01*
X134001230Y-104258141D01*
X134114387Y-104291432D01*
X134241818Y-104333030D01*
X134389298Y-104384690D01*
X134482693Y-104418631D01*
X134582548Y-104447577D01*
X134683747Y-104463394D01*
X134776047Y-104465019D01*
X134836718Y-104455353D01*
X134867994Y-104449932D01*
X134879313Y-104461345D01*
X134880375Y-104475829D01*
X134871508Y-104516469D01*
X134849428Y-104568172D01*
X134820917Y-104617336D01*
X134793773Y-104649535D01*
X134782034Y-104663645D01*
X134788077Y-104677841D01*
X134816110Y-104697792D01*
X134840172Y-104711973D01*
X134878857Y-104738448D01*
X134933544Y-104781438D01*
X134997440Y-104835357D01*
X135063751Y-104894619D01*
X135074778Y-104904826D01*
X135166763Y-104989303D01*
X135239202Y-105053049D01*
X135294683Y-105098095D01*
X135335799Y-105126467D01*
X135365140Y-105140196D01*
X135377967Y-105142249D01*
X135400629Y-105150283D01*
X135404250Y-105158474D01*
X135391651Y-105175459D01*
X135360024Y-105200861D01*
X135318623Y-105228666D01*
X135276699Y-105252861D01*
X135243508Y-105267433D01*
X135233785Y-105269250D01*
X135226284Y-105279357D01*
X135237628Y-105311000D01*
X135255724Y-105344656D01*
X135314928Y-105435949D01*
X135378391Y-105513328D01*
X135440829Y-105570932D01*
X135483854Y-105597654D01*
X135522077Y-105617807D01*
X135544391Y-105634472D01*
X135546715Y-105638736D01*
X135533147Y-105654036D01*
X135498526Y-105668666D01*
X135453417Y-105679082D01*
X135417768Y-105682000D01*
X135386271Y-105685345D01*
X135375773Y-105693443D01*
X135375975Y-105693906D01*
X135424810Y-105794641D01*
X135462815Y-105888330D01*
X135492290Y-105983240D01*
X135515535Y-106087641D01*
X135534852Y-106209801D01*
X135547126Y-106309062D01*
X135560104Y-106409190D01*
X135576087Y-106502687D01*
X135596558Y-106593983D01*
X135622998Y-106687508D01*
X135656889Y-106787694D01*
X135699715Y-106898970D01*
X135752956Y-107025768D01*
X135818094Y-107172518D01*
X135884327Y-107317125D01*
X135945485Y-107449938D01*
X135995268Y-107559782D01*
X136035988Y-107652337D01*
X136069956Y-107733281D01*
X136099483Y-107808293D01*
X136126883Y-107883054D01*
X136154466Y-107963242D01*
X136184543Y-108054538D01*
X136184795Y-108055312D01*
X136246707Y-108245812D01*
X136239275Y-108023562D01*
X136229166Y-107851409D01*
X136210022Y-107699118D01*
X136179981Y-107555624D01*
X136137181Y-107409861D01*
X136134831Y-107402788D01*
X136114951Y-107341531D01*
X136100255Y-107292928D01*
X136092763Y-107263840D01*
X136092410Y-107258672D01*
X136103921Y-107267420D01*
X136129370Y-107294463D01*
X136155514Y-107324791D01*
X136280783Y-107492812D01*
X136400330Y-107689211D01*
X136512984Y-107910947D01*
X136617570Y-108154976D01*
X136712918Y-108418255D01*
X136797852Y-108697740D01*
X136871203Y-108990389D01*
X136931795Y-109293159D01*
X136945642Y-109375177D01*
X136959474Y-109480409D01*
X136971026Y-109607619D01*
X136980096Y-109749636D01*
X136986479Y-109899294D01*
X136989971Y-110049421D01*
X136990368Y-110192850D01*
X136987466Y-110322410D01*
X136981061Y-110430934D01*
X136976858Y-110472015D01*
X136939664Y-110697370D01*
X136885439Y-110906951D01*
X136815573Y-111096209D01*
X136740422Y-111245488D01*
X136709761Y-111291755D01*
X136669348Y-111344149D01*
X136623655Y-111397930D01*
X136577157Y-111448362D01*
X136534327Y-111490706D01*
X136499639Y-111520223D01*
X136477566Y-111532175D01*
X136472371Y-111529393D01*
X136472651Y-111506923D01*
X136478291Y-111460754D01*
X136488265Y-111398288D01*
X136497658Y-111346831D01*
X136533489Y-111112866D01*
X136554559Y-110867159D01*
X136560789Y-110618441D01*
X136552105Y-110375439D01*
X136528428Y-110146885D01*
X136509228Y-110031750D01*
X136493367Y-109952504D01*
X136478072Y-109881518D01*
X136465039Y-109826324D01*
X136455963Y-109794455D01*
X136455650Y-109793625D01*
X136446598Y-109774428D01*
X136440130Y-109776528D01*
X136434121Y-109803699D01*
X136428840Y-109841250D01*
X136417371Y-109914118D01*
X136399642Y-110009277D01*
X136377465Y-110118310D01*
X136352649Y-110232799D01*
X136327006Y-110344329D01*
X136302344Y-110444481D01*
X136285763Y-110506423D01*
X136179315Y-110841778D01*
X136052167Y-111166503D01*
X135906183Y-111477137D01*
X135743228Y-111770215D01*
X135565165Y-112042276D01*
X135373860Y-112289855D01*
X135251713Y-112427107D01*
X135193551Y-112490189D01*
X135157098Y-112533089D01*
X135141081Y-112557533D01*
X135144227Y-112565244D01*
X135150655Y-112564002D01*
X135227312Y-112531794D01*
X135317564Y-112480404D01*
X135414590Y-112414964D01*
X135511574Y-112340611D01*
X135601695Y-112262478D01*
X135678135Y-112185701D01*
X135720095Y-112135187D01*
X135755663Y-112087562D01*
X135746179Y-112131865D01*
X135697790Y-112283545D01*
X135619106Y-112431355D01*
X135511479Y-112573980D01*
X135376262Y-112710104D01*
X135214807Y-112838413D01*
X135028467Y-112957590D01*
X134818593Y-113066320D01*
X134756668Y-113094330D01*
X134646085Y-113140117D01*
X134532108Y-113182470D01*
X134424147Y-113218154D01*
X134331612Y-113243932D01*
X134303110Y-113250322D01*
X134241784Y-113262830D01*
X134322778Y-113318100D01*
X134371077Y-113356602D01*
X134428427Y-113410483D01*
X134484567Y-113469917D01*
X134500200Y-113488026D01*
X134577725Y-113570499D01*
X134651604Y-113630348D01*
X134678829Y-113646809D01*
X134738255Y-113686118D01*
X134777520Y-113727528D01*
X134783587Y-113738152D01*
X134794482Y-113777898D01*
X134804037Y-113848819D01*
X134812271Y-113951102D01*
X134818631Y-114071527D01*
X134824563Y-114194874D01*
X134830519Y-114289586D01*
X134836898Y-114358772D01*
X134844097Y-114405545D01*
X134852512Y-114433017D01*
X134862543Y-114444299D01*
X134866350Y-114445000D01*
X134880005Y-114432891D01*
X134880375Y-114429319D01*
X134881491Y-114409452D01*
X134884614Y-114362802D01*
X134889401Y-114294247D01*
X134895508Y-114208665D01*
X134902596Y-114110935D01*
X134905146Y-114076100D01*
X134922348Y-113876542D01*
X134942859Y-113705906D01*
X134967362Y-113561473D01*
X134996537Y-113440524D01*
X135031064Y-113340339D01*
X135071626Y-113258199D01*
X135118901Y-113191386D01*
X135129774Y-113179017D01*
X135164751Y-113146392D01*
X135185046Y-113138875D01*
X135188115Y-113155664D01*
X135173101Y-113192733D01*
X135159445Y-113227869D01*
X135142189Y-113284672D01*
X135124077Y-113353699D01*
X135114820Y-113393126D01*
X135105512Y-113436611D01*
X135098006Y-113478176D01*
X135092100Y-113521848D01*
X135087594Y-113571656D01*
X135084285Y-113631626D01*
X135081973Y-113705787D01*
X135080454Y-113798164D01*
X135079528Y-113912787D01*
X135078994Y-114053682D01*
X135078858Y-114111625D01*
X135078418Y-114262209D01*
X135077686Y-114384502D01*
X135076495Y-114481958D01*
X135074679Y-114558035D01*
X135072071Y-114616191D01*
X135068505Y-114659882D01*
X135063814Y-114692564D01*
X135057832Y-114717696D01*
X135050393Y-114738734D01*
X135048425Y-114743434D01*
X135031869Y-114788881D01*
X135027066Y-114829002D01*
X135032916Y-114879085D01*
X135037089Y-114900863D01*
X135047634Y-114966964D01*
X135053355Y-115031623D01*
X135054166Y-115087488D01*
X135049982Y-115127208D01*
X135040715Y-115143433D01*
X135039932Y-115143500D01*
X135017741Y-115129743D01*
X134986681Y-115091919D01*
X134950264Y-115035194D01*
X134912008Y-114964736D01*
X134896155Y-114932117D01*
X134863464Y-114868937D01*
X134833837Y-114828550D01*
X134801288Y-114803318D01*
X134791110Y-114798059D01*
X134761769Y-114786020D01*
X134738176Y-114783925D01*
X134717382Y-114795321D01*
X134696444Y-114823752D01*
X134672414Y-114872764D01*
X134642346Y-114945902D01*
X134619522Y-115004550D01*
X134587849Y-115084663D01*
X134555972Y-115161887D01*
X134527765Y-115227028D01*
X134508382Y-115268389D01*
X134471218Y-115328150D01*
X134426951Y-115379306D01*
X134382391Y-115415218D01*
X134344347Y-115429247D01*
X134343375Y-115429260D01*
X134321052Y-115444371D01*
X134290448Y-115489131D01*
X134255778Y-115555160D01*
X134224556Y-115615705D01*
X134194489Y-115667457D01*
X134170678Y-115701837D01*
X134164828Y-115708122D01*
X134141999Y-115726179D01*
X134130645Y-115721907D01*
X134124477Y-115708004D01*
X134120774Y-115679249D01*
X134120956Y-115629535D01*
X134124969Y-115569407D01*
X134125208Y-115566936D01*
X134133474Y-115469343D01*
X134139208Y-115374058D01*
X134142327Y-115286458D01*
X134142752Y-115211922D01*
X134140403Y-115155829D01*
X134135198Y-115123555D01*
X134131915Y-115118244D01*
X134114913Y-115118743D01*
X134084093Y-115134787D01*
X134037097Y-115168025D01*
X133971567Y-115220107D01*
X133897201Y-115282406D01*
X133849075Y-115321354D01*
X133808510Y-115350573D01*
X133782636Y-115365030D01*
X133779157Y-115365750D01*
X133762533Y-115379048D01*
X133738680Y-115413815D01*
X133714241Y-115459580D01*
X133670979Y-115542392D01*
X133633719Y-115598569D01*
X133603638Y-115627625D01*
X133581918Y-115629073D01*
X133569737Y-115602426D01*
X133568275Y-115547198D01*
X133570760Y-115518758D01*
X133579051Y-115453654D01*
X133588890Y-115390603D01*
X133595012Y-115358338D01*
X133600582Y-115303471D01*
X133591536Y-115274866D01*
X133583528Y-115256720D01*
X133581210Y-115225234D01*
X133584914Y-115176006D01*
X133594973Y-115104635D01*
X133611717Y-115006718D01*
X133611793Y-115006293D01*
X133621732Y-114945412D01*
X133624423Y-114906006D01*
X133619420Y-114878538D01*
X133606276Y-114853470D01*
X133604514Y-114850754D01*
X133566708Y-114808796D01*
X133516777Y-114772749D01*
X133466769Y-114750402D01*
X133443687Y-114746772D01*
X133406880Y-114751004D01*
X133359951Y-114761267D01*
X133355796Y-114762398D01*
X133321961Y-114775704D01*
X133296590Y-114798505D01*
X133272290Y-114838910D01*
X133257185Y-114870522D01*
X133220054Y-114943632D01*
X133183910Y-115000801D01*
X133152184Y-115037210D01*
X133130614Y-115048250D01*
X133122579Y-115035535D01*
X133120543Y-114996054D01*
X133124440Y-114927800D01*
X133126031Y-114909343D01*
X133132491Y-114827768D01*
X133137959Y-114741209D01*
X133141364Y-114666875D01*
X133141591Y-114659312D01*
X133144641Y-114600214D01*
X133151575Y-114547213D01*
X133164411Y-114493008D01*
X133185166Y-114430297D01*
X133215859Y-114351779D01*
X133247554Y-114275909D01*
X133277460Y-114202628D01*
X133293817Y-114149281D01*
X133296270Y-114106921D01*
X133284463Y-114066604D01*
X133258041Y-114019384D01*
X133236035Y-113985543D01*
X133193832Y-113921770D01*
X133071886Y-113987857D01*
X132994962Y-114025516D01*
X132941628Y-114042249D01*
X132911617Y-114038082D01*
X132904661Y-114013036D01*
X132906778Y-114002398D01*
X132922916Y-113972290D01*
X132955979Y-113928441D01*
X132999229Y-113878282D01*
X133045928Y-113829241D01*
X133089338Y-113788747D01*
X133122722Y-113764229D01*
X133122852Y-113764159D01*
X133155961Y-113736334D01*
X133172257Y-113707357D01*
X133195256Y-113656349D01*
X133239770Y-113607984D01*
X133309245Y-113559196D01*
X133385853Y-113517431D01*
X133544310Y-113426669D01*
X133672368Y-113328564D01*
X133770694Y-113222316D01*
X133839956Y-113107127D01*
X133880823Y-112982197D01*
X133891029Y-112913611D01*
X133900186Y-112815544D01*
X134013094Y-112789046D01*
X134190385Y-112731520D01*
X134364767Y-112643434D01*
X134535204Y-112525925D01*
X134700665Y-112380128D01*
X134860114Y-112207179D01*
X135012519Y-112008213D01*
X135156844Y-111784366D01*
X135292058Y-111536773D01*
X135417125Y-111266569D01*
X135432643Y-111229700D01*
X135556464Y-110893678D01*
X135655315Y-110542274D01*
X135727854Y-110181311D01*
X135772742Y-109816616D01*
X135779700Y-109722187D01*
X135789757Y-109563437D01*
X135661720Y-109724594D01*
X135499277Y-109914456D01*
X135336792Y-110074249D01*
X135171895Y-110205567D01*
X135002220Y-110310006D01*
X134825399Y-110389161D01*
X134639063Y-110444627D01*
X134572253Y-110458535D01*
X134526957Y-110463660D01*
X134497239Y-110461138D01*
X134487811Y-110452998D01*
X134503382Y-110441267D01*
X134518988Y-110435608D01*
X134568108Y-110413314D01*
X134632851Y-110374034D01*
X134706036Y-110322869D01*
X134780479Y-110264920D01*
X134848996Y-110205291D01*
X134865997Y-110189129D01*
X134930203Y-110124760D01*
X134988540Y-110061421D01*
X135044083Y-109994878D01*
X135099905Y-109920895D01*
X135159079Y-109835237D01*
X135224677Y-109733670D01*
X135299774Y-109611958D01*
X135371880Y-109492000D01*
X135423172Y-109407322D01*
X135473050Y-109327395D01*
X135517653Y-109258231D01*
X135553120Y-109205840D01*
X135571845Y-109180626D01*
X135625089Y-109115315D01*
X135595638Y-109037751D01*
X135577927Y-108981253D01*
X135561325Y-108906953D01*
X135545529Y-108812539D01*
X135530237Y-108695694D01*
X135515148Y-108554105D01*
X135499959Y-108385459D01*
X135484369Y-108187440D01*
X135483988Y-108182312D01*
X135459506Y-107868960D01*
X135434632Y-107585198D01*
X135408961Y-107328868D01*
X135382089Y-107097810D01*
X135353608Y-106889865D01*
X135323115Y-106702874D01*
X135290204Y-106534678D01*
X135254468Y-106383117D01*
X135215504Y-106246031D01*
X135172906Y-106121263D01*
X135126268Y-106006653D01*
X135075185Y-105900040D01*
X135045019Y-105843980D01*
X134980082Y-105744398D01*
X134903474Y-105653794D01*
X134820645Y-105577080D01*
X134737048Y-105519169D01*
X134658134Y-105484973D01*
X134642456Y-105481222D01*
X134606415Y-105472518D01*
X134598160Y-105461174D01*
X134615551Y-105438948D01*
X134628162Y-105426212D01*
X134650612Y-105395255D01*
X134654368Y-105358136D01*
X134650943Y-105334931D01*
X134636773Y-105252670D01*
X134630222Y-105195820D01*
X134631161Y-105159003D01*
X134639462Y-105136841D01*
X134646044Y-105129813D01*
X134701116Y-105103896D01*
X134768079Y-105105686D01*
X134832750Y-105129559D01*
X134891464Y-105170035D01*
X134923405Y-105220226D01*
X134930189Y-105284628D01*
X134915640Y-105360161D01*
X134904223Y-105408477D01*
X134900172Y-105443795D01*
X134902506Y-105455422D01*
X134925074Y-105457876D01*
X134959941Y-105441262D01*
X134999399Y-105411165D01*
X135035741Y-105373173D01*
X135055332Y-105344640D01*
X135082724Y-105277224D01*
X135092879Y-105208936D01*
X135085348Y-105149295D01*
X135066215Y-105114129D01*
X135015460Y-105078246D01*
X134941654Y-105052222D01*
X134852048Y-105036439D01*
X134753892Y-105031278D01*
X134654439Y-105037121D01*
X134560939Y-105054349D01*
X134480646Y-105083340D01*
X134424219Y-105114842D01*
X134387571Y-105147340D01*
X134360012Y-105190771D01*
X134355671Y-105199524D01*
X134331930Y-105273820D01*
X134330293Y-105346404D01*
X134350370Y-105408235D01*
X134365552Y-105429232D01*
X134379066Y-105445946D01*
X134377610Y-105455075D01*
X134355944Y-105458909D01*
X134308827Y-105459741D01*
X134295785Y-105459750D01*
X134246827Y-105456384D01*
X134174672Y-105447088D01*
X134087065Y-105433063D01*
X133991749Y-105415508D01*
X133932169Y-105403376D01*
X133779975Y-105373455D01*
X133653855Y-105353967D01*
X133550019Y-105344560D01*
X133464680Y-105344882D01*
X133397901Y-105353749D01*
X133336241Y-105366737D01*
X133395935Y-105427869D01*
X133434138Y-105472597D01*
X133452498Y-105512549D01*
X133457306Y-105552974D01*
X133450915Y-105605141D01*
X133432068Y-105650986D01*
X133405507Y-105686507D01*
X133375972Y-105707702D01*
X133348202Y-105710572D01*
X133326938Y-105691114D01*
X133319674Y-105669154D01*
X133294812Y-105622847D01*
X133242390Y-105589634D01*
X133164091Y-105570232D01*
X133077000Y-105565146D01*
X132971730Y-105575759D01*
X132882116Y-105605083D01*
X132813168Y-105651028D01*
X132782235Y-105688135D01*
X132758904Y-105752661D01*
X132755851Y-105835987D01*
X132771447Y-105933932D01*
X132804066Y-106042313D01*
X132852077Y-106156949D01*
X132913854Y-106273657D01*
X132987768Y-106388256D01*
X133072192Y-106496563D01*
X133115780Y-106544888D01*
X133173812Y-106606089D01*
X133118250Y-106594570D01*
X133058070Y-106576636D01*
X132988677Y-106545231D01*
X132908033Y-106498960D01*
X132814096Y-106436429D01*
X132704827Y-106356243D01*
X132578187Y-106257008D01*
X132432136Y-106137330D01*
X132356250Y-106073660D01*
X132295919Y-106022426D01*
X132242702Y-105976688D01*
X132202309Y-105941388D01*
X132180451Y-105921473D01*
X132180297Y-105921321D01*
X132137563Y-105880648D01*
X132081287Y-105829670D01*
X132016877Y-105772997D01*
X131949744Y-105715239D01*
X131885295Y-105661008D01*
X131828939Y-105614914D01*
X131786085Y-105581567D01*
X131764219Y-105566637D01*
X131711081Y-105547410D01*
X131648262Y-105547243D01*
X131641875Y-105548040D01*
X131507125Y-105575275D01*
X131379017Y-105618664D01*
X131311571Y-105650514D01*
X131257293Y-105676258D01*
X131227435Y-105682040D01*
X131221558Y-105676990D01*
X131212586Y-105637626D01*
X131203775Y-105582435D01*
X131196069Y-105520370D01*
X131190411Y-105460381D01*
X131187746Y-105411422D01*
X131189019Y-105382442D01*
X131190151Y-105379219D01*
X131193288Y-105367017D01*
X131184161Y-105370792D01*
X131170006Y-105391301D01*
X131152689Y-105432300D01*
X131141045Y-105467975D01*
X131127481Y-105520385D01*
X131124309Y-105559651D01*
X131131779Y-105601572D01*
X131143792Y-105641968D01*
X131171534Y-105729977D01*
X131105265Y-105795590D01*
X131056627Y-105849187D01*
X131008533Y-105910607D01*
X130989530Y-105938289D01*
X130961478Y-105979856D01*
X130939948Y-106007843D01*
X130931384Y-106015375D01*
X130928650Y-106000676D01*
X130928296Y-105961097D01*
X130930264Y-105903415D01*
X130932686Y-105860593D01*
X130961854Y-105639276D01*
X131019755Y-105431225D01*
X131106040Y-105237145D01*
X131220359Y-105057738D01*
X131362364Y-104893707D01*
X131455025Y-104807819D01*
X131512892Y-104756433D01*
X131551401Y-104716455D01*
X131576524Y-104680152D01*
X131594234Y-104639790D01*
X131601347Y-104618338D01*
X131633782Y-104536533D01*
X131675263Y-104463979D01*
X131720573Y-104408715D01*
X131753677Y-104383584D01*
X131802350Y-104370609D01*
X131871246Y-104370015D01*
X131877127Y-104370512D01*
X131952772Y-104370288D01*
X132021669Y-104351778D01*
X132035877Y-104345866D01*
X132142776Y-104305253D01*
X132273340Y-104265282D01*
X132419524Y-104228228D01*
X132546750Y-104201360D01*
X132606347Y-104190521D01*
X132661922Y-104182170D01*
X132718853Y-104176009D01*
X132782518Y-104171739D01*
X132858299Y-104169061D01*
X132951574Y-104167678D01*
X133067722Y-104167290D01*
X133157937Y-104167430D01*
X133157937Y-104167430D01*
G37*
X133157937Y-104167430D02*
X133290003Y-104167998D01*
X133395883Y-104169156D01*
X133481140Y-104171274D01*
X133551335Y-104174717D01*
X133612033Y-104179852D01*
X133668796Y-104187047D01*
X133727186Y-104196670D01*
X133792767Y-104209086D01*
X133794636Y-104209453D01*
X133896571Y-104231400D01*
X134001230Y-104258141D01*
X134114387Y-104291432D01*
X134241818Y-104333030D01*
X134389298Y-104384690D01*
X134482693Y-104418631D01*
X134582548Y-104447577D01*
X134683747Y-104463394D01*
X134776047Y-104465019D01*
X134836718Y-104455353D01*
X134867994Y-104449932D01*
X134879313Y-104461345D01*
X134880375Y-104475829D01*
X134871508Y-104516469D01*
X134849428Y-104568172D01*
X134820917Y-104617336D01*
X134793773Y-104649535D01*
X134782034Y-104663645D01*
X134788077Y-104677841D01*
X134816110Y-104697792D01*
X134840172Y-104711973D01*
X134878857Y-104738448D01*
X134933544Y-104781438D01*
X134997440Y-104835357D01*
X135063751Y-104894619D01*
X135074778Y-104904826D01*
X135166763Y-104989303D01*
X135239202Y-105053049D01*
X135294683Y-105098095D01*
X135335799Y-105126467D01*
X135365140Y-105140196D01*
X135377967Y-105142249D01*
X135400629Y-105150283D01*
X135404250Y-105158474D01*
X135391651Y-105175459D01*
X135360024Y-105200861D01*
X135318623Y-105228666D01*
X135276699Y-105252861D01*
X135243508Y-105267433D01*
X135233785Y-105269250D01*
X135226284Y-105279357D01*
X135237628Y-105311000D01*
X135255724Y-105344656D01*
X135314928Y-105435949D01*
X135378391Y-105513328D01*
X135440829Y-105570932D01*
X135483854Y-105597654D01*
X135522077Y-105617807D01*
X135544391Y-105634472D01*
X135546715Y-105638736D01*
X135533147Y-105654036D01*
X135498526Y-105668666D01*
X135453417Y-105679082D01*
X135417768Y-105682000D01*
X135386271Y-105685345D01*
X135375773Y-105693443D01*
X135375975Y-105693906D01*
X135424810Y-105794641D01*
X135462815Y-105888330D01*
X135492290Y-105983240D01*
X135515535Y-106087641D01*
X135534852Y-106209801D01*
X135547126Y-106309062D01*
X135560104Y-106409190D01*
X135576087Y-106502687D01*
X135596558Y-106593983D01*
X135622998Y-106687508D01*
X135656889Y-106787694D01*
X135699715Y-106898970D01*
X135752956Y-107025768D01*
X135818094Y-107172518D01*
X135884327Y-107317125D01*
X135945485Y-107449938D01*
X135995268Y-107559782D01*
X136035988Y-107652337D01*
X136069956Y-107733281D01*
X136099483Y-107808293D01*
X136126883Y-107883054D01*
X136154466Y-107963242D01*
X136184543Y-108054538D01*
X136184795Y-108055312D01*
X136246707Y-108245812D01*
X136239275Y-108023562D01*
X136229166Y-107851409D01*
X136210022Y-107699118D01*
X136179981Y-107555624D01*
X136137181Y-107409861D01*
X136134831Y-107402788D01*
X136114951Y-107341531D01*
X136100255Y-107292928D01*
X136092763Y-107263840D01*
X136092410Y-107258672D01*
X136103921Y-107267420D01*
X136129370Y-107294463D01*
X136155514Y-107324791D01*
X136280783Y-107492812D01*
X136400330Y-107689211D01*
X136512984Y-107910947D01*
X136617570Y-108154976D01*
X136712918Y-108418255D01*
X136797852Y-108697740D01*
X136871203Y-108990389D01*
X136931795Y-109293159D01*
X136945642Y-109375177D01*
X136959474Y-109480409D01*
X136971026Y-109607619D01*
X136980096Y-109749636D01*
X136986479Y-109899294D01*
X136989971Y-110049421D01*
X136990368Y-110192850D01*
X136987466Y-110322410D01*
X136981061Y-110430934D01*
X136976858Y-110472015D01*
X136939664Y-110697370D01*
X136885439Y-110906951D01*
X136815573Y-111096209D01*
X136740422Y-111245488D01*
X136709761Y-111291755D01*
X136669348Y-111344149D01*
X136623655Y-111397930D01*
X136577157Y-111448362D01*
X136534327Y-111490706D01*
X136499639Y-111520223D01*
X136477566Y-111532175D01*
X136472371Y-111529393D01*
X136472651Y-111506923D01*
X136478291Y-111460754D01*
X136488265Y-111398288D01*
X136497658Y-111346831D01*
X136533489Y-111112866D01*
X136554559Y-110867159D01*
X136560789Y-110618441D01*
X136552105Y-110375439D01*
X136528428Y-110146885D01*
X136509228Y-110031750D01*
X136493367Y-109952504D01*
X136478072Y-109881518D01*
X136465039Y-109826324D01*
X136455963Y-109794455D01*
X136455650Y-109793625D01*
X136446598Y-109774428D01*
X136440130Y-109776528D01*
X136434121Y-109803699D01*
X136428840Y-109841250D01*
X136417371Y-109914118D01*
X136399642Y-110009277D01*
X136377465Y-110118310D01*
X136352649Y-110232799D01*
X136327006Y-110344329D01*
X136302344Y-110444481D01*
X136285763Y-110506423D01*
X136179315Y-110841778D01*
X136052167Y-111166503D01*
X135906183Y-111477137D01*
X135743228Y-111770215D01*
X135565165Y-112042276D01*
X135373860Y-112289855D01*
X135251713Y-112427107D01*
X135193551Y-112490189D01*
X135157098Y-112533089D01*
X135141081Y-112557533D01*
X135144227Y-112565244D01*
X135150655Y-112564002D01*
X135227312Y-112531794D01*
X135317564Y-112480404D01*
X135414590Y-112414964D01*
X135511574Y-112340611D01*
X135601695Y-112262478D01*
X135678135Y-112185701D01*
X135720095Y-112135187D01*
X135755663Y-112087562D01*
X135746179Y-112131865D01*
X135697790Y-112283545D01*
X135619106Y-112431355D01*
X135511479Y-112573980D01*
X135376262Y-112710104D01*
X135214807Y-112838413D01*
X135028467Y-112957590D01*
X134818593Y-113066320D01*
X134756668Y-113094330D01*
X134646085Y-113140117D01*
X134532108Y-113182470D01*
X134424147Y-113218154D01*
X134331612Y-113243932D01*
X134303110Y-113250322D01*
X134241784Y-113262830D01*
X134322778Y-113318100D01*
X134371077Y-113356602D01*
X134428427Y-113410483D01*
X134484567Y-113469917D01*
X134500200Y-113488026D01*
X134577725Y-113570499D01*
X134651604Y-113630348D01*
X134678829Y-113646809D01*
X134738255Y-113686118D01*
X134777520Y-113727528D01*
X134783587Y-113738152D01*
X134794482Y-113777898D01*
X134804037Y-113848819D01*
X134812271Y-113951102D01*
X134818631Y-114071527D01*
X134824563Y-114194874D01*
X134830519Y-114289586D01*
X134836898Y-114358772D01*
X134844097Y-114405545D01*
X134852512Y-114433017D01*
X134862543Y-114444299D01*
X134866350Y-114445000D01*
X134880005Y-114432891D01*
X134880375Y-114429319D01*
X134881491Y-114409452D01*
X134884614Y-114362802D01*
X134889401Y-114294247D01*
X134895508Y-114208665D01*
X134902596Y-114110935D01*
X134905146Y-114076100D01*
X134922348Y-113876542D01*
X134942859Y-113705906D01*
X134967362Y-113561473D01*
X134996537Y-113440524D01*
X135031064Y-113340339D01*
X135071626Y-113258199D01*
X135118901Y-113191386D01*
X135129774Y-113179017D01*
X135164751Y-113146392D01*
X135185046Y-113138875D01*
X135188115Y-113155664D01*
X135173101Y-113192733D01*
X135159445Y-113227869D01*
X135142189Y-113284672D01*
X135124077Y-113353699D01*
X135114820Y-113393126D01*
X135105512Y-113436611D01*
X135098006Y-113478176D01*
X135092100Y-113521848D01*
X135087594Y-113571656D01*
X135084285Y-113631626D01*
X135081973Y-113705787D01*
X135080454Y-113798164D01*
X135079528Y-113912787D01*
X135078994Y-114053682D01*
X135078858Y-114111625D01*
X135078418Y-114262209D01*
X135077686Y-114384502D01*
X135076495Y-114481958D01*
X135074679Y-114558035D01*
X135072071Y-114616191D01*
X135068505Y-114659882D01*
X135063814Y-114692564D01*
X135057832Y-114717696D01*
X135050393Y-114738734D01*
X135048425Y-114743434D01*
X135031869Y-114788881D01*
X135027066Y-114829002D01*
X135032916Y-114879085D01*
X135037089Y-114900863D01*
X135047634Y-114966964D01*
X135053355Y-115031623D01*
X135054166Y-115087488D01*
X135049982Y-115127208D01*
X135040715Y-115143433D01*
X135039932Y-115143500D01*
X135017741Y-115129743D01*
X134986681Y-115091919D01*
X134950264Y-115035194D01*
X134912008Y-114964736D01*
X134896155Y-114932117D01*
X134863464Y-114868937D01*
X134833837Y-114828550D01*
X134801288Y-114803318D01*
X134791110Y-114798059D01*
X134761769Y-114786020D01*
X134738176Y-114783925D01*
X134717382Y-114795321D01*
X134696444Y-114823752D01*
X134672414Y-114872764D01*
X134642346Y-114945902D01*
X134619522Y-115004550D01*
X134587849Y-115084663D01*
X134555972Y-115161887D01*
X134527765Y-115227028D01*
X134508382Y-115268389D01*
X134471218Y-115328150D01*
X134426951Y-115379306D01*
X134382391Y-115415218D01*
X134344347Y-115429247D01*
X134343375Y-115429260D01*
X134321052Y-115444371D01*
X134290448Y-115489131D01*
X134255778Y-115555160D01*
X134224556Y-115615705D01*
X134194489Y-115667457D01*
X134170678Y-115701837D01*
X134164828Y-115708122D01*
X134141999Y-115726179D01*
X134130645Y-115721907D01*
X134124477Y-115708004D01*
X134120774Y-115679249D01*
X134120956Y-115629535D01*
X134124969Y-115569407D01*
X134125208Y-115566936D01*
X134133474Y-115469343D01*
X134139208Y-115374058D01*
X134142327Y-115286458D01*
X134142752Y-115211922D01*
X134140403Y-115155829D01*
X134135198Y-115123555D01*
X134131915Y-115118244D01*
X134114913Y-115118743D01*
X134084093Y-115134787D01*
X134037097Y-115168025D01*
X133971567Y-115220107D01*
X133897201Y-115282406D01*
X133849075Y-115321354D01*
X133808510Y-115350573D01*
X133782636Y-115365030D01*
X133779157Y-115365750D01*
X133762533Y-115379048D01*
X133738680Y-115413815D01*
X133714241Y-115459580D01*
X133670979Y-115542392D01*
X133633719Y-115598569D01*
X133603638Y-115627625D01*
X133581918Y-115629073D01*
X133569737Y-115602426D01*
X133568275Y-115547198D01*
X133570760Y-115518758D01*
X133579051Y-115453654D01*
X133588890Y-115390603D01*
X133595012Y-115358338D01*
X133600582Y-115303471D01*
X133591536Y-115274866D01*
X133583528Y-115256720D01*
X133581210Y-115225234D01*
X133584914Y-115176006D01*
X133594973Y-115104635D01*
X133611717Y-115006718D01*
X133611793Y-115006293D01*
X133621732Y-114945412D01*
X133624423Y-114906006D01*
X133619420Y-114878538D01*
X133606276Y-114853470D01*
X133604514Y-114850754D01*
X133566708Y-114808796D01*
X133516777Y-114772749D01*
X133466769Y-114750402D01*
X133443687Y-114746772D01*
X133406880Y-114751004D01*
X133359951Y-114761267D01*
X133355796Y-114762398D01*
X133321961Y-114775704D01*
X133296590Y-114798505D01*
X133272290Y-114838910D01*
X133257185Y-114870522D01*
X133220054Y-114943632D01*
X133183910Y-115000801D01*
X133152184Y-115037210D01*
X133130614Y-115048250D01*
X133122579Y-115035535D01*
X133120543Y-114996054D01*
X133124440Y-114927800D01*
X133126031Y-114909343D01*
X133132491Y-114827768D01*
X133137959Y-114741209D01*
X133141364Y-114666875D01*
X133141591Y-114659312D01*
X133144641Y-114600214D01*
X133151575Y-114547213D01*
X133164411Y-114493008D01*
X133185166Y-114430297D01*
X133215859Y-114351779D01*
X133247554Y-114275909D01*
X133277460Y-114202628D01*
X133293817Y-114149281D01*
X133296270Y-114106921D01*
X133284463Y-114066604D01*
X133258041Y-114019384D01*
X133236035Y-113985543D01*
X133193832Y-113921770D01*
X133071886Y-113987857D01*
X132994962Y-114025516D01*
X132941628Y-114042249D01*
X132911617Y-114038082D01*
X132904661Y-114013036D01*
X132906778Y-114002398D01*
X132922916Y-113972290D01*
X132955979Y-113928441D01*
X132999229Y-113878282D01*
X133045928Y-113829241D01*
X133089338Y-113788747D01*
X133122722Y-113764229D01*
X133122852Y-113764159D01*
X133155961Y-113736334D01*
X133172257Y-113707357D01*
X133195256Y-113656349D01*
X133239770Y-113607984D01*
X133309245Y-113559196D01*
X133385853Y-113517431D01*
X133544310Y-113426669D01*
X133672368Y-113328564D01*
X133770694Y-113222316D01*
X133839956Y-113107127D01*
X133880823Y-112982197D01*
X133891029Y-112913611D01*
X133900186Y-112815544D01*
X134013094Y-112789046D01*
X134190385Y-112731520D01*
X134364767Y-112643434D01*
X134535204Y-112525925D01*
X134700665Y-112380128D01*
X134860114Y-112207179D01*
X135012519Y-112008213D01*
X135156844Y-111784366D01*
X135292058Y-111536773D01*
X135417125Y-111266569D01*
X135432643Y-111229700D01*
X135556464Y-110893678D01*
X135655315Y-110542274D01*
X135727854Y-110181311D01*
X135772742Y-109816616D01*
X135779700Y-109722187D01*
X135789757Y-109563437D01*
X135661720Y-109724594D01*
X135499277Y-109914456D01*
X135336792Y-110074249D01*
X135171895Y-110205567D01*
X135002220Y-110310006D01*
X134825399Y-110389161D01*
X134639063Y-110444627D01*
X134572253Y-110458535D01*
X134526957Y-110463660D01*
X134497239Y-110461138D01*
X134487811Y-110452998D01*
X134503382Y-110441267D01*
X134518988Y-110435608D01*
X134568108Y-110413314D01*
X134632851Y-110374034D01*
X134706036Y-110322869D01*
X134780479Y-110264920D01*
X134848996Y-110205291D01*
X134865997Y-110189129D01*
X134930203Y-110124760D01*
X134988540Y-110061421D01*
X135044083Y-109994878D01*
X135099905Y-109920895D01*
X135159079Y-109835237D01*
X135224677Y-109733670D01*
X135299774Y-109611958D01*
X135371880Y-109492000D01*
X135423172Y-109407322D01*
X135473050Y-109327395D01*
X135517653Y-109258231D01*
X135553120Y-109205840D01*
X135571845Y-109180626D01*
X135625089Y-109115315D01*
X135595638Y-109037751D01*
X135577927Y-108981253D01*
X135561325Y-108906953D01*
X135545529Y-108812539D01*
X135530237Y-108695694D01*
X135515148Y-108554105D01*
X135499959Y-108385459D01*
X135484369Y-108187440D01*
X135483988Y-108182312D01*
X135459506Y-107868960D01*
X135434632Y-107585198D01*
X135408961Y-107328868D01*
X135382089Y-107097810D01*
X135353608Y-106889865D01*
X135323115Y-106702874D01*
X135290204Y-106534678D01*
X135254468Y-106383117D01*
X135215504Y-106246031D01*
X135172906Y-106121263D01*
X135126268Y-106006653D01*
X135075185Y-105900040D01*
X135045019Y-105843980D01*
X134980082Y-105744398D01*
X134903474Y-105653794D01*
X134820645Y-105577080D01*
X134737048Y-105519169D01*
X134658134Y-105484973D01*
X134642456Y-105481222D01*
X134606415Y-105472518D01*
X134598160Y-105461174D01*
X134615551Y-105438948D01*
X134628162Y-105426212D01*
X134650612Y-105395255D01*
X134654368Y-105358136D01*
X134650943Y-105334931D01*
X134636773Y-105252670D01*
X134630222Y-105195820D01*
X134631161Y-105159003D01*
X134639462Y-105136841D01*
X134646044Y-105129813D01*
X134701116Y-105103896D01*
X134768079Y-105105686D01*
X134832750Y-105129559D01*
X134891464Y-105170035D01*
X134923405Y-105220226D01*
X134930189Y-105284628D01*
X134915640Y-105360161D01*
X134904223Y-105408477D01*
X134900172Y-105443795D01*
X134902506Y-105455422D01*
X134925074Y-105457876D01*
X134959941Y-105441262D01*
X134999399Y-105411165D01*
X135035741Y-105373173D01*
X135055332Y-105344640D01*
X135082724Y-105277224D01*
X135092879Y-105208936D01*
X135085348Y-105149295D01*
X135066215Y-105114129D01*
X135015460Y-105078246D01*
X134941654Y-105052222D01*
X134852048Y-105036439D01*
X134753892Y-105031278D01*
X134654439Y-105037121D01*
X134560939Y-105054349D01*
X134480646Y-105083340D01*
X134424219Y-105114842D01*
X134387571Y-105147340D01*
X134360012Y-105190771D01*
X134355671Y-105199524D01*
X134331930Y-105273820D01*
X134330293Y-105346404D01*
X134350370Y-105408235D01*
X134365552Y-105429232D01*
X134379066Y-105445946D01*
X134377610Y-105455075D01*
X134355944Y-105458909D01*
X134308827Y-105459741D01*
X134295785Y-105459750D01*
X134246827Y-105456384D01*
X134174672Y-105447088D01*
X134087065Y-105433063D01*
X133991749Y-105415508D01*
X133932169Y-105403376D01*
X133779975Y-105373455D01*
X133653855Y-105353967D01*
X133550019Y-105344560D01*
X133464680Y-105344882D01*
X133397901Y-105353749D01*
X133336241Y-105366737D01*
X133395935Y-105427869D01*
X133434138Y-105472597D01*
X133452498Y-105512549D01*
X133457306Y-105552974D01*
X133450915Y-105605141D01*
X133432068Y-105650986D01*
X133405507Y-105686507D01*
X133375972Y-105707702D01*
X133348202Y-105710572D01*
X133326938Y-105691114D01*
X133319674Y-105669154D01*
X133294812Y-105622847D01*
X133242390Y-105589634D01*
X133164091Y-105570232D01*
X133077000Y-105565146D01*
X132971730Y-105575759D01*
X132882116Y-105605083D01*
X132813168Y-105651028D01*
X132782235Y-105688135D01*
X132758904Y-105752661D01*
X132755851Y-105835987D01*
X132771447Y-105933932D01*
X132804066Y-106042313D01*
X132852077Y-106156949D01*
X132913854Y-106273657D01*
X132987768Y-106388256D01*
X133072192Y-106496563D01*
X133115780Y-106544888D01*
X133173812Y-106606089D01*
X133118250Y-106594570D01*
X133058070Y-106576636D01*
X132988677Y-106545231D01*
X132908033Y-106498960D01*
X132814096Y-106436429D01*
X132704827Y-106356243D01*
X132578187Y-106257008D01*
X132432136Y-106137330D01*
X132356250Y-106073660D01*
X132295919Y-106022426D01*
X132242702Y-105976688D01*
X132202309Y-105941388D01*
X132180451Y-105921473D01*
X132180297Y-105921321D01*
X132137563Y-105880648D01*
X132081287Y-105829670D01*
X132016877Y-105772997D01*
X131949744Y-105715239D01*
X131885295Y-105661008D01*
X131828939Y-105614914D01*
X131786085Y-105581567D01*
X131764219Y-105566637D01*
X131711081Y-105547410D01*
X131648262Y-105547243D01*
X131641875Y-105548040D01*
X131507125Y-105575275D01*
X131379017Y-105618664D01*
X131311571Y-105650514D01*
X131257293Y-105676258D01*
X131227435Y-105682040D01*
X131221558Y-105676990D01*
X131212586Y-105637626D01*
X131203775Y-105582435D01*
X131196069Y-105520370D01*
X131190411Y-105460381D01*
X131187746Y-105411422D01*
X131189019Y-105382442D01*
X131190151Y-105379219D01*
X131193288Y-105367017D01*
X131184161Y-105370792D01*
X131170006Y-105391301D01*
X131152689Y-105432300D01*
X131141045Y-105467975D01*
X131127481Y-105520385D01*
X131124309Y-105559651D01*
X131131779Y-105601572D01*
X131143792Y-105641968D01*
X131171534Y-105729977D01*
X131105265Y-105795590D01*
X131056627Y-105849187D01*
X131008533Y-105910607D01*
X130989530Y-105938289D01*
X130961478Y-105979856D01*
X130939948Y-106007843D01*
X130931384Y-106015375D01*
X130928650Y-106000676D01*
X130928296Y-105961097D01*
X130930264Y-105903415D01*
X130932686Y-105860593D01*
X130961854Y-105639276D01*
X131019755Y-105431225D01*
X131106040Y-105237145D01*
X131220359Y-105057738D01*
X131362364Y-104893707D01*
X131455025Y-104807819D01*
X131512892Y-104756433D01*
X131551401Y-104716455D01*
X131576524Y-104680152D01*
X131594234Y-104639790D01*
X131601347Y-104618338D01*
X131633782Y-104536533D01*
X131675263Y-104463979D01*
X131720573Y-104408715D01*
X131753677Y-104383584D01*
X131802350Y-104370609D01*
X131871246Y-104370015D01*
X131877127Y-104370512D01*
X131952772Y-104370288D01*
X132021669Y-104351778D01*
X132035877Y-104345866D01*
X132142776Y-104305253D01*
X132273340Y-104265282D01*
X132419524Y-104228228D01*
X132546750Y-104201360D01*
X132606347Y-104190521D01*
X132661922Y-104182170D01*
X132718853Y-104176009D01*
X132782518Y-104171739D01*
X132858299Y-104169061D01*
X132951574Y-104167678D01*
X133067722Y-104167290D01*
X133157937Y-104167430D01*
G36*
X127720750Y-114421187D02*
X127712812Y-114429125D01*
X127704875Y-114421187D01*
X127712812Y-114413250D01*
X127720750Y-114421187D01*
X127720750Y-114421187D01*
G37*
X127720750Y-114421187D02*
X127712812Y-114429125D01*
X127704875Y-114421187D01*
X127712812Y-114413250D01*
X127720750Y-114421187D01*
G36*
X130543063Y-105053174D02*
X130544630Y-105053289D01*
X130696563Y-105063862D01*
X130819715Y-105071044D01*
X130916866Y-105074895D01*
X130990795Y-105075473D01*
X131044284Y-105072837D01*
X131080113Y-105067045D01*
X131087674Y-105064757D01*
X131130716Y-105053723D01*
X131148386Y-105058938D01*
X131139537Y-105079997D01*
X131137665Y-105082335D01*
X131111475Y-105122101D01*
X131078831Y-105183166D01*
X131043957Y-105256928D01*
X131011077Y-105334784D01*
X131001478Y-105359657D01*
X130966495Y-105460150D01*
X130939953Y-105555827D01*
X130919801Y-105656459D01*
X130903988Y-105771821D01*
X130893867Y-105872500D01*
X130886666Y-105951088D01*
X130880339Y-106017276D01*
X130875470Y-106065183D01*
X130872638Y-106088926D01*
X130872300Y-106090429D01*
X130857806Y-106086175D01*
X130821053Y-106071723D01*
X130768788Y-106049775D01*
X130743966Y-106039029D01*
X130683951Y-106014017D01*
X130633240Y-105995041D01*
X130600130Y-105985131D01*
X130594125Y-105984365D01*
X130596008Y-105989710D01*
X130622262Y-106003581D01*
X130667563Y-106023265D01*
X130681437Y-106028854D01*
X130740855Y-106053528D01*
X130792500Y-106076867D01*
X130825774Y-106094066D01*
X130827096Y-106094887D01*
X130849729Y-106112797D01*
X130851572Y-106132724D01*
X130838595Y-106161328D01*
X130816213Y-106192288D01*
X130784241Y-106204556D01*
X130756436Y-106206019D01*
X130708444Y-106210843D01*
X130638952Y-106223730D01*
X130556531Y-106242559D01*
X130469755Y-106265211D01*
X130387195Y-106289562D01*
X130317422Y-106313493D01*
X130309097Y-106316715D01*
X130247495Y-106342645D01*
X130177254Y-106374774D01*
X130105434Y-106409558D01*
X130039097Y-106443454D01*
X129985303Y-106472921D01*
X129951113Y-106494414D01*
X129945172Y-106499312D01*
X129949035Y-106501400D01*
X129976283Y-106490696D01*
X130022225Y-106469236D01*
X130072172Y-106444211D01*
X130185794Y-106390269D01*
X130307113Y-106340334D01*
X130429550Y-106296517D01*
X130546526Y-106260932D01*
X130651462Y-106235690D01*
X130737780Y-106222904D01*
X130765025Y-106221749D01*
X130791762Y-106225294D01*
X130787945Y-106235746D01*
X130753946Y-106252836D01*
X130690139Y-106276293D01*
X130689375Y-106276551D01*
X130537062Y-106338681D01*
X130378003Y-106422734D01*
X130221035Y-106522969D01*
X130074994Y-106633647D01*
X129948717Y-106749028D01*
X129926990Y-106771756D01*
X129870256Y-106833485D01*
X129833857Y-106874887D01*
X129818009Y-106895385D01*
X129822929Y-106894400D01*
X129848832Y-106871354D01*
X129895936Y-106825669D01*
X129913265Y-106808431D01*
X130068973Y-106665216D01*
X130423392Y-106665216D01*
X130425563Y-106666250D01*
X130440050Y-106655074D01*
X130443312Y-106650375D01*
X130447357Y-106635533D01*
X130445186Y-106634500D01*
X130430699Y-106645675D01*
X130427437Y-106650375D01*
X130423392Y-106665216D01*
X130068973Y-106665216D01*
X130081111Y-106654052D01*
X130115934Y-106627679D01*
X130467125Y-106627679D01*
X130478792Y-106627571D01*
X130498875Y-106618625D01*
X130523823Y-106602230D01*
X130530625Y-106593695D01*
X130518957Y-106593803D01*
X130498875Y-106602750D01*
X130473926Y-106619144D01*
X130467125Y-106627679D01*
X130115934Y-106627679D01*
X130180168Y-106579032D01*
X130546500Y-106579032D01*
X130559370Y-106576635D01*
X130592888Y-106562909D01*
X130633368Y-106543925D01*
X130677878Y-106520787D01*
X130707030Y-106503084D01*
X130714322Y-106495405D01*
X130698444Y-106498729D01*
X130664738Y-106512857D01*
X130622984Y-106532917D01*
X130582962Y-106554035D01*
X130554453Y-106571338D01*
X130546500Y-106579032D01*
X130180168Y-106579032D01*
X130250652Y-106525653D01*
X130380393Y-106444707D01*
X130435250Y-106415257D01*
X130500801Y-106382989D01*
X130570905Y-106350557D01*
X130639421Y-106320614D01*
X130700207Y-106295814D01*
X130747122Y-106278810D01*
X130774025Y-106272256D01*
X130777696Y-106273030D01*
X130777874Y-106290878D01*
X130770059Y-106326540D01*
X130767948Y-106333926D01*
X130751494Y-106436392D01*
X130755451Y-106553548D01*
X130777573Y-106677841D01*
X130815616Y-106801716D01*
X130867336Y-106917621D01*
X130930486Y-107018002D01*
X130991254Y-107085278D01*
X131056043Y-107143811D01*
X130991621Y-107216999D01*
X130866276Y-107381056D01*
X130754882Y-107571703D01*
X130658363Y-107786573D01*
X130577642Y-108023302D01*
X130513643Y-108279525D01*
X130467289Y-108552877D01*
X130465921Y-108563312D01*
X130456128Y-108667720D01*
X130450065Y-108794996D01*
X130447650Y-108936487D01*
X130448803Y-109083538D01*
X130453442Y-109227498D01*
X130461486Y-109359713D01*
X130472854Y-109471531D01*
X130474564Y-109484062D01*
X130535559Y-109810762D01*
X130623713Y-110122221D01*
X130738505Y-110417596D01*
X130879412Y-110696042D01*
X131045913Y-110956719D01*
X131237487Y-111198782D01*
X131453611Y-111421389D01*
X131693765Y-111623697D01*
X131880488Y-111755809D01*
X132088421Y-111879955D01*
X132318225Y-111995099D01*
X132560422Y-112097246D01*
X132805530Y-112182402D01*
X133044069Y-112246574D01*
X133046812Y-112247191D01*
X133107400Y-112261759D01*
X133155936Y-112275225D01*
X133184087Y-112285222D01*
X133187199Y-112287091D01*
X133185553Y-112300181D01*
X133158400Y-112316051D01*
X133111664Y-112333017D01*
X133051273Y-112349392D01*
X132983152Y-112363489D01*
X132913227Y-112373621D01*
X132870443Y-112377237D01*
X132725824Y-112385343D01*
X132787259Y-112490452D01*
X132826074Y-112561730D01*
X132866662Y-112643876D01*
X132897310Y-112712316D01*
X132920095Y-112770472D01*
X132934520Y-112819653D01*
X132942498Y-112870814D01*
X132945943Y-112934907D01*
X132946691Y-112994828D01*
X132946215Y-113064211D01*
X132944324Y-113121111D01*
X132941345Y-113158478D01*
X132938659Y-113169382D01*
X132921066Y-113171784D01*
X132896243Y-113148752D01*
X132862539Y-113098515D01*
X132845772Y-113069645D01*
X132817280Y-113021904D01*
X132795670Y-112996445D01*
X132773603Y-112987165D01*
X132747157Y-112987612D01*
X132697562Y-112992437D01*
X132699277Y-113087687D01*
X132701182Y-113144733D01*
X132704932Y-113221592D01*
X132709909Y-113306425D01*
X132713445Y-113359327D01*
X132718398Y-113442274D01*
X132719239Y-113500716D01*
X132715603Y-113541676D01*
X132707123Y-113572178D01*
X132701737Y-113584149D01*
X132687492Y-113624496D01*
X132686143Y-113670587D01*
X132692437Y-113714344D01*
X132702060Y-113789119D01*
X132702412Y-113850881D01*
X132694014Y-113893990D01*
X132677390Y-113912807D01*
X132674050Y-113913187D01*
X132656210Y-113899816D01*
X132629349Y-113863794D01*
X132597838Y-113811259D01*
X132586738Y-113790529D01*
X132554772Y-113732238D01*
X132525113Y-113683649D01*
X132502754Y-113652766D01*
X132497617Y-113647654D01*
X132472015Y-113621330D01*
X132441851Y-113582782D01*
X132437005Y-113575843D01*
X132411627Y-113542974D01*
X132392309Y-113525249D01*
X132389170Y-113524250D01*
X132384009Y-113539154D01*
X132378612Y-113580006D01*
X132373542Y-113641013D01*
X132369358Y-113716382D01*
X132368480Y-113737759D01*
X132364239Y-113829500D01*
X132359001Y-113895880D01*
X132351794Y-113943291D01*
X132341647Y-113978122D01*
X132327610Y-114006730D01*
X132310235Y-114040531D01*
X132302554Y-114072790D01*
X132303329Y-114114877D01*
X132309979Y-114168754D01*
X132318184Y-114253055D01*
X132315346Y-114307718D01*
X132302361Y-114332521D01*
X132280130Y-114327244D01*
X132249551Y-114291667D01*
X132211521Y-114225568D01*
X132197210Y-114196431D01*
X132164735Y-114132997D01*
X132132449Y-114078217D01*
X132105382Y-114040310D01*
X132095587Y-114030417D01*
X132070446Y-114002480D01*
X132038167Y-113955592D01*
X132005350Y-113899424D01*
X132002475Y-113894016D01*
X131952932Y-113806374D01*
X131910716Y-113748549D01*
X131873237Y-113720198D01*
X131837905Y-113720977D01*
X131802132Y-113750541D01*
X131763328Y-113808546D01*
X131736588Y-113858687D01*
X131707395Y-113911905D01*
X131678718Y-113956726D01*
X131660042Y-113979890D01*
X131643452Y-114004112D01*
X131632085Y-114043442D01*
X131624325Y-114104662D01*
X131621575Y-114141203D01*
X131612863Y-114225886D01*
X131600123Y-114279635D01*
X131583784Y-114302300D01*
X131564274Y-114293730D01*
X131542022Y-114253773D01*
X131517457Y-114182279D01*
X131516296Y-114178287D01*
X131499171Y-114117516D01*
X131484638Y-114063204D01*
X131476359Y-114029339D01*
X131457550Y-113992741D01*
X131433874Y-113976171D01*
X131403818Y-113954276D01*
X131376582Y-113907512D01*
X131351543Y-113834101D01*
X131328074Y-113732263D01*
X131308505Y-113619537D01*
X131294955Y-113539164D01*
X131281134Y-113468865D01*
X131268490Y-113415280D01*
X131258470Y-113385052D01*
X131256778Y-113382217D01*
X131238813Y-113358261D01*
X131233070Y-113350401D01*
X131215847Y-113344889D01*
X131176514Y-113338044D01*
X131137297Y-113332971D01*
X131046562Y-113322702D01*
X130946762Y-113415538D01*
X130900047Y-113457612D01*
X130861547Y-113489739D01*
X130837445Y-113506858D01*
X130833367Y-113508375D01*
X130817070Y-113495055D01*
X130813274Y-113459005D01*
X130820677Y-113406087D01*
X130837978Y-113342163D01*
X130863875Y-113273096D01*
X130897067Y-113204749D01*
X130903168Y-113193925D01*
X130924251Y-113155156D01*
X130933813Y-113125249D01*
X130933043Y-113091988D01*
X130923130Y-113043157D01*
X130919398Y-113027237D01*
X130897260Y-112906030D01*
X130894715Y-112804416D01*
X130913348Y-112715838D01*
X130954745Y-112633740D01*
X131020491Y-112551565D01*
X131039127Y-112532062D01*
X131105687Y-112458862D01*
X131155931Y-112388765D01*
X131199918Y-112307196D01*
X131211700Y-112282031D01*
X131239615Y-112222573D01*
X131262880Y-112175827D01*
X131278302Y-112148063D01*
X131282452Y-112143125D01*
X131293730Y-112155618D01*
X131315178Y-112187782D01*
X131333212Y-112217529D01*
X131363341Y-112263383D01*
X131401378Y-112313693D01*
X131441600Y-112361805D01*
X131478283Y-112401066D01*
X131505702Y-112424821D01*
X131515026Y-112428875D01*
X131517829Y-112415778D01*
X131510326Y-112383030D01*
X131505763Y-112369343D01*
X131493807Y-112319596D01*
X131485788Y-112255379D01*
X131483821Y-112212734D01*
X131485404Y-112160352D01*
X131493574Y-112118155D01*
X131512168Y-112078648D01*
X131545027Y-112034334D01*
X131595989Y-111977718D01*
X131613869Y-111958804D01*
X131675896Y-111893546D01*
X131609160Y-111882874D01*
X131526474Y-111861340D01*
X131427067Y-111822144D01*
X131317836Y-111768843D01*
X131205677Y-111704993D01*
X131097489Y-111634151D01*
X131030687Y-111584570D01*
X130942637Y-111510182D01*
X130851451Y-111424102D01*
X130765451Y-111334774D01*
X130692959Y-111250645D01*
X130663469Y-111211901D01*
X130611710Y-111132085D01*
X130562508Y-111042654D01*
X130520115Y-110952566D01*
X130488781Y-110870781D01*
X130473540Y-110811621D01*
X130461610Y-110765407D01*
X130442099Y-110743022D01*
X130429342Y-110738595D01*
X130400733Y-110732991D01*
X130348596Y-110723162D01*
X130280648Y-110710551D01*
X130213125Y-110698156D01*
X129882031Y-110626832D01*
X129566205Y-110537011D01*
X129267618Y-110429688D01*
X128988241Y-110305859D01*
X128730044Y-110166522D01*
X128495000Y-110012672D01*
X128285079Y-109845305D01*
X128102253Y-109665419D01*
X128048701Y-109604074D01*
X128000170Y-109545485D01*
X127958431Y-109493714D01*
X127928258Y-109454768D01*
X127915002Y-109435768D01*
X127894320Y-109423240D01*
X127845447Y-109405945D01*
X127771475Y-109384539D01*
X127675494Y-109359676D01*
X127560597Y-109332012D01*
X127429875Y-109302203D01*
X127286421Y-109270904D01*
X127133327Y-109238771D01*
X126973683Y-109206459D01*
X126810583Y-109174623D01*
X126647117Y-109143919D01*
X126486378Y-109115003D01*
X126331457Y-109088529D01*
X126185447Y-109065154D01*
X126120984Y-109055454D01*
X126043297Y-109044143D01*
X125970788Y-109033966D01*
X125901447Y-109024861D01*
X125833264Y-109016768D01*
X125764230Y-109009628D01*
X125692333Y-109003379D01*
X125615565Y-108997962D01*
X125531914Y-108993317D01*
X125439372Y-108989382D01*
X125335927Y-108986098D01*
X125219571Y-108983405D01*
X125088292Y-108981242D01*
X124940081Y-108979549D01*
X124772928Y-108978265D01*
X124584823Y-108977331D01*
X124373756Y-108976686D01*
X124137717Y-108976270D01*
X123874695Y-108976022D01*
X123582681Y-108975883D01*
X123466250Y-108975847D01*
X123136032Y-108975659D01*
X122835141Y-108975232D01*
X122561151Y-108974479D01*
X122311640Y-108973310D01*
X122084184Y-108971635D01*
X121876358Y-108969365D01*
X121685739Y-108966411D01*
X121509904Y-108962685D01*
X121346428Y-108958096D01*
X121192888Y-108952555D01*
X121046860Y-108945974D01*
X120905920Y-108938262D01*
X120767645Y-108929332D01*
X120629610Y-108919093D01*
X120489393Y-108907457D01*
X120344568Y-108894334D01*
X120192713Y-108879635D01*
X120031404Y-108863271D01*
X119858216Y-108845152D01*
X119827790Y-108841930D01*
X119578809Y-108814554D01*
X119327636Y-108785073D01*
X119076248Y-108753823D01*
X118826623Y-108721138D01*
X118580737Y-108687353D01*
X118340568Y-108652804D01*
X118108093Y-108617824D01*
X117885290Y-108582749D01*
X117815589Y-108571250D01*
X129221211Y-108571250D01*
X129221626Y-108688632D01*
X129222960Y-108780013D01*
X129225645Y-108851137D01*
X129230112Y-108907747D01*
X129236795Y-108955589D01*
X129246125Y-109000406D01*
X129256518Y-109040626D01*
X129298627Y-109177958D01*
X129348182Y-109305188D01*
X129409517Y-109431775D01*
X129486967Y-109567181D01*
X129527975Y-109633107D01*
X129590038Y-109728429D01*
X129649197Y-109813157D01*
X129710824Y-109894108D01*
X129780289Y-109978102D01*
X129862965Y-110071954D01*
X129941211Y-110157617D01*
X129988221Y-110206949D01*
X130045969Y-110265119D01*
X130110563Y-110328476D01*
X130178109Y-110393372D01*
X130244713Y-110456155D01*
X130306484Y-110513176D01*
X130359528Y-110560785D01*
X130399951Y-110595331D01*
X130423861Y-110613165D01*
X130428556Y-110614535D01*
X130427117Y-110598548D01*
X130421468Y-110556758D01*
X130412409Y-110494715D01*
X130400739Y-110417967D01*
X130394557Y-110378260D01*
X130370460Y-110219856D01*
X130350737Y-110077702D01*
X130334975Y-109945850D01*
X130322761Y-109818352D01*
X130313681Y-109689262D01*
X130307322Y-109552633D01*
X130303271Y-109402517D01*
X130301114Y-109232968D01*
X130300439Y-109038038D01*
X130300437Y-109023687D01*
X130301094Y-108826268D01*
X130303269Y-108656350D01*
X130307266Y-108509705D01*
X130313390Y-108382106D01*
X130321943Y-108269327D01*
X130333231Y-108167140D01*
X130347558Y-108071321D01*
X130365229Y-107977640D01*
X130380883Y-107906135D01*
X130391963Y-107853602D01*
X130398235Y-107814883D01*
X130398411Y-107798744D01*
X130388752Y-107808321D01*
X130370076Y-107842385D01*
X130344642Y-107895744D01*
X130314705Y-107963206D01*
X130282524Y-108039576D01*
X130250354Y-108119662D01*
X130220453Y-108198271D01*
X130200662Y-108253750D01*
X130170228Y-108346778D01*
X130137054Y-108455505D01*
X130105676Y-108564724D01*
X130085817Y-108638718D01*
X130065658Y-108713686D01*
X130047206Y-108776099D01*
X130032271Y-108820256D01*
X130022664Y-108840459D01*
X130021498Y-108841125D01*
X130008142Y-108827317D01*
X129985400Y-108789513D01*
X129955813Y-108733142D01*
X129921919Y-108663632D01*
X129886258Y-108586414D01*
X129851370Y-108506914D01*
X129819796Y-108430564D01*
X129794074Y-108362790D01*
X129784283Y-108334069D01*
X129711559Y-108064022D01*
X129661278Y-107774698D01*
X129633894Y-107469722D01*
X129629862Y-107152721D01*
X129631079Y-107110750D01*
X129632012Y-107083081D01*
X129987337Y-107083081D01*
X129995505Y-107075060D01*
X130022865Y-107043749D01*
X130040416Y-107023437D01*
X130091430Y-106966337D01*
X130148386Y-106905451D01*
X130180885Y-106872135D01*
X130235141Y-106819799D01*
X130296690Y-106763173D01*
X130332187Y-106731854D01*
X130363802Y-106703363D01*
X130374954Y-106690411D01*
X130363851Y-106695217D01*
X130359487Y-106698049D01*
X130315449Y-106732168D01*
X130257761Y-106783628D01*
X130193323Y-106845568D01*
X130129033Y-106911128D01*
X130071794Y-106973446D01*
X130028504Y-107025663D01*
X130024244Y-107031375D01*
X129997277Y-107068341D01*
X129987337Y-107083081D01*
X129632012Y-107083081D01*
X129635633Y-106975812D01*
X129752750Y-106975812D01*
X129760687Y-106983750D01*
X129768625Y-106975812D01*
X129760687Y-106967875D01*
X129752750Y-106975812D01*
X129635633Y-106975812D01*
X129640455Y-106832937D01*
X129584654Y-106967875D01*
X129490928Y-107213068D01*
X129403887Y-107476868D01*
X129327479Y-107746248D01*
X129265650Y-108008182D01*
X129257606Y-108047375D01*
X129244785Y-108115387D01*
X129235297Y-108178062D01*
X129228671Y-108242184D01*
X129224436Y-108314535D01*
X129222121Y-108401901D01*
X129221253Y-108511064D01*
X129221211Y-108571250D01*
X117815589Y-108571250D01*
X117674136Y-108547914D01*
X117476607Y-108513653D01*
X117294682Y-108480301D01*
X117130337Y-108448193D01*
X116985550Y-108417664D01*
X116862298Y-108389048D01*
X116762559Y-108362681D01*
X116688308Y-108338897D01*
X116641525Y-108318032D01*
X116624185Y-108300419D01*
X116624125Y-108299438D01*
X116638930Y-108287458D01*
X116679558Y-108273234D01*
X116740325Y-108258454D01*
X116798750Y-108247510D01*
X116859942Y-108239560D01*
X116952070Y-108230864D01*
X117074327Y-108221464D01*
X117225907Y-108211401D01*
X117406006Y-108200717D01*
X117613818Y-108189454D01*
X117848537Y-108177654D01*
X118109358Y-108165359D01*
X118395476Y-108152610D01*
X118706085Y-108139450D01*
X119040379Y-108125921D01*
X119397553Y-108112063D01*
X119426062Y-108110981D01*
X119702635Y-108100031D01*
X119951724Y-108089040D01*
X120177590Y-108077617D01*
X120384498Y-108065372D01*
X120576709Y-108051912D01*
X120758487Y-108036847D01*
X120934095Y-108019785D01*
X121107797Y-108000336D01*
X121283854Y-107978108D01*
X121466530Y-107952709D01*
X121660088Y-107923749D01*
X121868792Y-107890836D01*
X121926375Y-107881532D01*
X122058646Y-107859441D01*
X122218192Y-107831723D01*
X122401176Y-107799086D01*
X122603762Y-107762237D01*
X122822113Y-107721886D01*
X123052392Y-107678739D01*
X123290763Y-107633506D01*
X123533390Y-107586895D01*
X123736125Y-107547497D01*
X123819915Y-107531163D01*
X123904666Y-107514727D01*
X123994002Y-107497498D01*
X124091544Y-107478783D01*
X124200915Y-107457890D01*
X124325740Y-107434129D01*
X124469640Y-107406808D01*
X124636238Y-107375236D01*
X124829157Y-107338720D01*
X124902937Y-107324762D01*
X125314050Y-107249814D01*
X125708241Y-107183616D01*
X126083989Y-107126333D01*
X126439775Y-107078133D01*
X126774077Y-107039184D01*
X127085376Y-107009652D01*
X127372151Y-106989703D01*
X127632882Y-106979506D01*
X127866049Y-106979227D01*
X128001652Y-106984418D01*
X128086625Y-106989017D01*
X128159319Y-106992552D01*
X128214352Y-106994794D01*
X128246339Y-106995512D01*
X128252234Y-106995108D01*
X128268845Y-106956728D01*
X128297688Y-106897970D01*
X128334995Y-106825885D01*
X128377001Y-106747521D01*
X128419941Y-106669927D01*
X128460047Y-106600153D01*
X128487296Y-106555125D01*
X128503143Y-106531312D01*
X129895625Y-106531312D01*
X129903562Y-106539250D01*
X129911500Y-106531312D01*
X129903562Y-106523375D01*
X129895625Y-106531312D01*
X128503143Y-106531312D01*
X128642034Y-106322609D01*
X128802813Y-106108637D01*
X128912498Y-105979829D01*
X130521635Y-105979829D01*
X130537239Y-105982371D01*
X130557829Y-105979452D01*
X130558075Y-105974033D01*
X130536828Y-105970244D01*
X130527648Y-105972780D01*
X130521635Y-105979829D01*
X128912498Y-105979829D01*
X128927849Y-105961802D01*
X130433172Y-105961802D01*
X130454257Y-105964550D01*
X130459187Y-105964655D01*
X130486299Y-105962939D01*
X130488686Y-105957969D01*
X130487270Y-105957337D01*
X130455756Y-105954196D01*
X130439645Y-105956748D01*
X130433172Y-105961802D01*
X128927849Y-105961802D01*
X128943038Y-105943965D01*
X130270745Y-105943965D01*
X130288774Y-105946359D01*
X130324250Y-105947117D01*
X130363442Y-105946133D01*
X130378130Y-105943570D01*
X130367906Y-105940504D01*
X130316628Y-105937847D01*
X130280593Y-105940504D01*
X130270745Y-105943965D01*
X128943038Y-105943965D01*
X128967874Y-105914800D01*
X129135457Y-105742688D01*
X129303800Y-105593889D01*
X129471144Y-105469994D01*
X129635728Y-105372592D01*
X129795792Y-105303273D01*
X129908924Y-105271285D01*
X129970976Y-105261687D01*
X130046106Y-105255187D01*
X130102781Y-105253375D01*
X130167351Y-105251332D01*
X130202547Y-105242784D01*
X130210615Y-105224097D01*
X130193801Y-105191640D01*
X130164344Y-105153804D01*
X130115563Y-105094625D01*
X130176883Y-105094624D01*
X130235690Y-105099815D01*
X130306511Y-105113368D01*
X130377419Y-105132260D01*
X130436483Y-105153463D01*
X130463156Y-105167235D01*
X130488932Y-105179792D01*
X130498875Y-105176684D01*
X130487992Y-105154263D01*
X130462216Y-105123524D01*
X130431858Y-105095049D01*
X130407226Y-105079416D01*
X130403446Y-105078750D01*
X130393821Y-105068829D01*
X130396849Y-105060994D01*
X130417478Y-105052090D01*
X130465614Y-105049515D01*
X130543063Y-105053174D01*
X130543063Y-105053174D01*
G37*
X130543063Y-105053174D02*
X130544630Y-105053289D01*
X130696563Y-105063862D01*
X130819715Y-105071044D01*
X130916866Y-105074895D01*
X130990795Y-105075473D01*
X131044284Y-105072837D01*
X131080113Y-105067045D01*
X131087674Y-105064757D01*
X131130716Y-105053723D01*
X131148386Y-105058938D01*
X131139537Y-105079997D01*
X131137665Y-105082335D01*
X131111475Y-105122101D01*
X131078831Y-105183166D01*
X131043957Y-105256928D01*
X131011077Y-105334784D01*
X131001478Y-105359657D01*
X130966495Y-105460150D01*
X130939953Y-105555827D01*
X130919801Y-105656459D01*
X130903988Y-105771821D01*
X130893867Y-105872500D01*
X130886666Y-105951088D01*
X130880339Y-106017276D01*
X130875470Y-106065183D01*
X130872638Y-106088926D01*
X130872300Y-106090429D01*
X130857806Y-106086175D01*
X130821053Y-106071723D01*
X130768788Y-106049775D01*
X130743966Y-106039029D01*
X130683951Y-106014017D01*
X130633240Y-105995041D01*
X130600130Y-105985131D01*
X130594125Y-105984365D01*
X130596008Y-105989710D01*
X130622262Y-106003581D01*
X130667563Y-106023265D01*
X130681437Y-106028854D01*
X130740855Y-106053528D01*
X130792500Y-106076867D01*
X130825774Y-106094066D01*
X130827096Y-106094887D01*
X130849729Y-106112797D01*
X130851572Y-106132724D01*
X130838595Y-106161328D01*
X130816213Y-106192288D01*
X130784241Y-106204556D01*
X130756436Y-106206019D01*
X130708444Y-106210843D01*
X130638952Y-106223730D01*
X130556531Y-106242559D01*
X130469755Y-106265211D01*
X130387195Y-106289562D01*
X130317422Y-106313493D01*
X130309097Y-106316715D01*
X130247495Y-106342645D01*
X130177254Y-106374774D01*
X130105434Y-106409558D01*
X130039097Y-106443454D01*
X129985303Y-106472921D01*
X129951113Y-106494414D01*
X129945172Y-106499312D01*
X129949035Y-106501400D01*
X129976283Y-106490696D01*
X130022225Y-106469236D01*
X130072172Y-106444211D01*
X130185794Y-106390269D01*
X130307113Y-106340334D01*
X130429550Y-106296517D01*
X130546526Y-106260932D01*
X130651462Y-106235690D01*
X130737780Y-106222904D01*
X130765025Y-106221749D01*
X130791762Y-106225294D01*
X130787945Y-106235746D01*
X130753946Y-106252836D01*
X130690139Y-106276293D01*
X130689375Y-106276551D01*
X130537062Y-106338681D01*
X130378003Y-106422734D01*
X130221035Y-106522969D01*
X130074994Y-106633647D01*
X129948717Y-106749028D01*
X129926990Y-106771756D01*
X129870256Y-106833485D01*
X129833857Y-106874887D01*
X129818009Y-106895385D01*
X129822929Y-106894400D01*
X129848832Y-106871354D01*
X129895936Y-106825669D01*
X129913265Y-106808431D01*
X130068973Y-106665216D01*
X130423392Y-106665216D01*
X130425563Y-106666250D01*
X130440050Y-106655074D01*
X130443312Y-106650375D01*
X130447357Y-106635533D01*
X130445186Y-106634500D01*
X130430699Y-106645675D01*
X130427437Y-106650375D01*
X130423392Y-106665216D01*
X130068973Y-106665216D01*
X130081111Y-106654052D01*
X130115934Y-106627679D01*
X130467125Y-106627679D01*
X130478792Y-106627571D01*
X130498875Y-106618625D01*
X130523823Y-106602230D01*
X130530625Y-106593695D01*
X130518957Y-106593803D01*
X130498875Y-106602750D01*
X130473926Y-106619144D01*
X130467125Y-106627679D01*
X130115934Y-106627679D01*
X130180168Y-106579032D01*
X130546500Y-106579032D01*
X130559370Y-106576635D01*
X130592888Y-106562909D01*
X130633368Y-106543925D01*
X130677878Y-106520787D01*
X130707030Y-106503084D01*
X130714322Y-106495405D01*
X130698444Y-106498729D01*
X130664738Y-106512857D01*
X130622984Y-106532917D01*
X130582962Y-106554035D01*
X130554453Y-106571338D01*
X130546500Y-106579032D01*
X130180168Y-106579032D01*
X130250652Y-106525653D01*
X130380393Y-106444707D01*
X130435250Y-106415257D01*
X130500801Y-106382989D01*
X130570905Y-106350557D01*
X130639421Y-106320614D01*
X130700207Y-106295814D01*
X130747122Y-106278810D01*
X130774025Y-106272256D01*
X130777696Y-106273030D01*
X130777874Y-106290878D01*
X130770059Y-106326540D01*
X130767948Y-106333926D01*
X130751494Y-106436392D01*
X130755451Y-106553548D01*
X130777573Y-106677841D01*
X130815616Y-106801716D01*
X130867336Y-106917621D01*
X130930486Y-107018002D01*
X130991254Y-107085278D01*
X131056043Y-107143811D01*
X130991621Y-107216999D01*
X130866276Y-107381056D01*
X130754882Y-107571703D01*
X130658363Y-107786573D01*
X130577642Y-108023302D01*
X130513643Y-108279525D01*
X130467289Y-108552877D01*
X130465921Y-108563312D01*
X130456128Y-108667720D01*
X130450065Y-108794996D01*
X130447650Y-108936487D01*
X130448803Y-109083538D01*
X130453442Y-109227498D01*
X130461486Y-109359713D01*
X130472854Y-109471531D01*
X130474564Y-109484062D01*
X130535559Y-109810762D01*
X130623713Y-110122221D01*
X130738505Y-110417596D01*
X130879412Y-110696042D01*
X131045913Y-110956719D01*
X131237487Y-111198782D01*
X131453611Y-111421389D01*
X131693765Y-111623697D01*
X131880488Y-111755809D01*
X132088421Y-111879955D01*
X132318225Y-111995099D01*
X132560422Y-112097246D01*
X132805530Y-112182402D01*
X133044069Y-112246574D01*
X133046812Y-112247191D01*
X133107400Y-112261759D01*
X133155936Y-112275225D01*
X133184087Y-112285222D01*
X133187199Y-112287091D01*
X133185553Y-112300181D01*
X133158400Y-112316051D01*
X133111664Y-112333017D01*
X133051273Y-112349392D01*
X132983152Y-112363489D01*
X132913227Y-112373621D01*
X132870443Y-112377237D01*
X132725824Y-112385343D01*
X132787259Y-112490452D01*
X132826074Y-112561730D01*
X132866662Y-112643876D01*
X132897310Y-112712316D01*
X132920095Y-112770472D01*
X132934520Y-112819653D01*
X132942498Y-112870814D01*
X132945943Y-112934907D01*
X132946691Y-112994828D01*
X132946215Y-113064211D01*
X132944324Y-113121111D01*
X132941345Y-113158478D01*
X132938659Y-113169382D01*
X132921066Y-113171784D01*
X132896243Y-113148752D01*
X132862539Y-113098515D01*
X132845772Y-113069645D01*
X132817280Y-113021904D01*
X132795670Y-112996445D01*
X132773603Y-112987165D01*
X132747157Y-112987612D01*
X132697562Y-112992437D01*
X132699277Y-113087687D01*
X132701182Y-113144733D01*
X132704932Y-113221592D01*
X132709909Y-113306425D01*
X132713445Y-113359327D01*
X132718398Y-113442274D01*
X132719239Y-113500716D01*
X132715603Y-113541676D01*
X132707123Y-113572178D01*
X132701737Y-113584149D01*
X132687492Y-113624496D01*
X132686143Y-113670587D01*
X132692437Y-113714344D01*
X132702060Y-113789119D01*
X132702412Y-113850881D01*
X132694014Y-113893990D01*
X132677390Y-113912807D01*
X132674050Y-113913187D01*
X132656210Y-113899816D01*
X132629349Y-113863794D01*
X132597838Y-113811259D01*
X132586738Y-113790529D01*
X132554772Y-113732238D01*
X132525113Y-113683649D01*
X132502754Y-113652766D01*
X132497617Y-113647654D01*
X132472015Y-113621330D01*
X132441851Y-113582782D01*
X132437005Y-113575843D01*
X132411627Y-113542974D01*
X132392309Y-113525249D01*
X132389170Y-113524250D01*
X132384009Y-113539154D01*
X132378612Y-113580006D01*
X132373542Y-113641013D01*
X132369358Y-113716382D01*
X132368480Y-113737759D01*
X132364239Y-113829500D01*
X132359001Y-113895880D01*
X132351794Y-113943291D01*
X132341647Y-113978122D01*
X132327610Y-114006730D01*
X132310235Y-114040531D01*
X132302554Y-114072790D01*
X132303329Y-114114877D01*
X132309979Y-114168754D01*
X132318184Y-114253055D01*
X132315346Y-114307718D01*
X132302361Y-114332521D01*
X132280130Y-114327244D01*
X132249551Y-114291667D01*
X132211521Y-114225568D01*
X132197210Y-114196431D01*
X132164735Y-114132997D01*
X132132449Y-114078217D01*
X132105382Y-114040310D01*
X132095587Y-114030417D01*
X132070446Y-114002480D01*
X132038167Y-113955592D01*
X132005350Y-113899424D01*
X132002475Y-113894016D01*
X131952932Y-113806374D01*
X131910716Y-113748549D01*
X131873237Y-113720198D01*
X131837905Y-113720977D01*
X131802132Y-113750541D01*
X131763328Y-113808546D01*
X131736588Y-113858687D01*
X131707395Y-113911905D01*
X131678718Y-113956726D01*
X131660042Y-113979890D01*
X131643452Y-114004112D01*
X131632085Y-114043442D01*
X131624325Y-114104662D01*
X131621575Y-114141203D01*
X131612863Y-114225886D01*
X131600123Y-114279635D01*
X131583784Y-114302300D01*
X131564274Y-114293730D01*
X131542022Y-114253773D01*
X131517457Y-114182279D01*
X131516296Y-114178287D01*
X131499171Y-114117516D01*
X131484638Y-114063204D01*
X131476359Y-114029339D01*
X131457550Y-113992741D01*
X131433874Y-113976171D01*
X131403818Y-113954276D01*
X131376582Y-113907512D01*
X131351543Y-113834101D01*
X131328074Y-113732263D01*
X131308505Y-113619537D01*
X131294955Y-113539164D01*
X131281134Y-113468865D01*
X131268490Y-113415280D01*
X131258470Y-113385052D01*
X131256778Y-113382217D01*
X131238813Y-113358261D01*
X131233070Y-113350401D01*
X131215847Y-113344889D01*
X131176514Y-113338044D01*
X131137297Y-113332971D01*
X131046562Y-113322702D01*
X130946762Y-113415538D01*
X130900047Y-113457612D01*
X130861547Y-113489739D01*
X130837445Y-113506858D01*
X130833367Y-113508375D01*
X130817070Y-113495055D01*
X130813274Y-113459005D01*
X130820677Y-113406087D01*
X130837978Y-113342163D01*
X130863875Y-113273096D01*
X130897067Y-113204749D01*
X130903168Y-113193925D01*
X130924251Y-113155156D01*
X130933813Y-113125249D01*
X130933043Y-113091988D01*
X130923130Y-113043157D01*
X130919398Y-113027237D01*
X130897260Y-112906030D01*
X130894715Y-112804416D01*
X130913348Y-112715838D01*
X130954745Y-112633740D01*
X131020491Y-112551565D01*
X131039127Y-112532062D01*
X131105687Y-112458862D01*
X131155931Y-112388765D01*
X131199918Y-112307196D01*
X131211700Y-112282031D01*
X131239615Y-112222573D01*
X131262880Y-112175827D01*
X131278302Y-112148063D01*
X131282452Y-112143125D01*
X131293730Y-112155618D01*
X131315178Y-112187782D01*
X131333212Y-112217529D01*
X131363341Y-112263383D01*
X131401378Y-112313693D01*
X131441600Y-112361805D01*
X131478283Y-112401066D01*
X131505702Y-112424821D01*
X131515026Y-112428875D01*
X131517829Y-112415778D01*
X131510326Y-112383030D01*
X131505763Y-112369343D01*
X131493807Y-112319596D01*
X131485788Y-112255379D01*
X131483821Y-112212734D01*
X131485404Y-112160352D01*
X131493574Y-112118155D01*
X131512168Y-112078648D01*
X131545027Y-112034334D01*
X131595989Y-111977718D01*
X131613869Y-111958804D01*
X131675896Y-111893546D01*
X131609160Y-111882874D01*
X131526474Y-111861340D01*
X131427067Y-111822144D01*
X131317836Y-111768843D01*
X131205677Y-111704993D01*
X131097489Y-111634151D01*
X131030687Y-111584570D01*
X130942637Y-111510182D01*
X130851451Y-111424102D01*
X130765451Y-111334774D01*
X130692959Y-111250645D01*
X130663469Y-111211901D01*
X130611710Y-111132085D01*
X130562508Y-111042654D01*
X130520115Y-110952566D01*
X130488781Y-110870781D01*
X130473540Y-110811621D01*
X130461610Y-110765407D01*
X130442099Y-110743022D01*
X130429342Y-110738595D01*
X130400733Y-110732991D01*
X130348596Y-110723162D01*
X130280648Y-110710551D01*
X130213125Y-110698156D01*
X129882031Y-110626832D01*
X129566205Y-110537011D01*
X129267618Y-110429688D01*
X128988241Y-110305859D01*
X128730044Y-110166522D01*
X128495000Y-110012672D01*
X128285079Y-109845305D01*
X128102253Y-109665419D01*
X128048701Y-109604074D01*
X128000170Y-109545485D01*
X127958431Y-109493714D01*
X127928258Y-109454768D01*
X127915002Y-109435768D01*
X127894320Y-109423240D01*
X127845447Y-109405945D01*
X127771475Y-109384539D01*
X127675494Y-109359676D01*
X127560597Y-109332012D01*
X127429875Y-109302203D01*
X127286421Y-109270904D01*
X127133327Y-109238771D01*
X126973683Y-109206459D01*
X126810583Y-109174623D01*
X126647117Y-109143919D01*
X126486378Y-109115003D01*
X126331457Y-109088529D01*
X126185447Y-109065154D01*
X126120984Y-109055454D01*
X126043297Y-109044143D01*
X125970788Y-109033966D01*
X125901447Y-109024861D01*
X125833264Y-109016768D01*
X125764230Y-109009628D01*
X125692333Y-109003379D01*
X125615565Y-108997962D01*
X125531914Y-108993317D01*
X125439372Y-108989382D01*
X125335927Y-108986098D01*
X125219571Y-108983405D01*
X125088292Y-108981242D01*
X124940081Y-108979549D01*
X124772928Y-108978265D01*
X124584823Y-108977331D01*
X124373756Y-108976686D01*
X124137717Y-108976270D01*
X123874695Y-108976022D01*
X123582681Y-108975883D01*
X123466250Y-108975847D01*
X123136032Y-108975659D01*
X122835141Y-108975232D01*
X122561151Y-108974479D01*
X122311640Y-108973310D01*
X122084184Y-108971635D01*
X121876358Y-108969365D01*
X121685739Y-108966411D01*
X121509904Y-108962685D01*
X121346428Y-108958096D01*
X121192888Y-108952555D01*
X121046860Y-108945974D01*
X120905920Y-108938262D01*
X120767645Y-108929332D01*
X120629610Y-108919093D01*
X120489393Y-108907457D01*
X120344568Y-108894334D01*
X120192713Y-108879635D01*
X120031404Y-108863271D01*
X119858216Y-108845152D01*
X119827790Y-108841930D01*
X119578809Y-108814554D01*
X119327636Y-108785073D01*
X119076248Y-108753823D01*
X118826623Y-108721138D01*
X118580737Y-108687353D01*
X118340568Y-108652804D01*
X118108093Y-108617824D01*
X117885290Y-108582749D01*
X117815589Y-108571250D01*
X129221211Y-108571250D01*
X129221626Y-108688632D01*
X129222960Y-108780013D01*
X129225645Y-108851137D01*
X129230112Y-108907747D01*
X129236795Y-108955589D01*
X129246125Y-109000406D01*
X129256518Y-109040626D01*
X129298627Y-109177958D01*
X129348182Y-109305188D01*
X129409517Y-109431775D01*
X129486967Y-109567181D01*
X129527975Y-109633107D01*
X129590038Y-109728429D01*
X129649197Y-109813157D01*
X129710824Y-109894108D01*
X129780289Y-109978102D01*
X129862965Y-110071954D01*
X129941211Y-110157617D01*
X129988221Y-110206949D01*
X130045969Y-110265119D01*
X130110563Y-110328476D01*
X130178109Y-110393372D01*
X130244713Y-110456155D01*
X130306484Y-110513176D01*
X130359528Y-110560785D01*
X130399951Y-110595331D01*
X130423861Y-110613165D01*
X130428556Y-110614535D01*
X130427117Y-110598548D01*
X130421468Y-110556758D01*
X130412409Y-110494715D01*
X130400739Y-110417967D01*
X130394557Y-110378260D01*
X130370460Y-110219856D01*
X130350737Y-110077702D01*
X130334975Y-109945850D01*
X130322761Y-109818352D01*
X130313681Y-109689262D01*
X130307322Y-109552633D01*
X130303271Y-109402517D01*
X130301114Y-109232968D01*
X130300439Y-109038038D01*
X130300437Y-109023687D01*
X130301094Y-108826268D01*
X130303269Y-108656350D01*
X130307266Y-108509705D01*
X130313390Y-108382106D01*
X130321943Y-108269327D01*
X130333231Y-108167140D01*
X130347558Y-108071321D01*
X130365229Y-107977640D01*
X130380883Y-107906135D01*
X130391963Y-107853602D01*
X130398235Y-107814883D01*
X130398411Y-107798744D01*
X130388752Y-107808321D01*
X130370076Y-107842385D01*
X130344642Y-107895744D01*
X130314705Y-107963206D01*
X130282524Y-108039576D01*
X130250354Y-108119662D01*
X130220453Y-108198271D01*
X130200662Y-108253750D01*
X130170228Y-108346778D01*
X130137054Y-108455505D01*
X130105676Y-108564724D01*
X130085817Y-108638718D01*
X130065658Y-108713686D01*
X130047206Y-108776099D01*
X130032271Y-108820256D01*
X130022664Y-108840459D01*
X130021498Y-108841125D01*
X130008142Y-108827317D01*
X129985400Y-108789513D01*
X129955813Y-108733142D01*
X129921919Y-108663632D01*
X129886258Y-108586414D01*
X129851370Y-108506914D01*
X129819796Y-108430564D01*
X129794074Y-108362790D01*
X129784283Y-108334069D01*
X129711559Y-108064022D01*
X129661278Y-107774698D01*
X129633894Y-107469722D01*
X129629862Y-107152721D01*
X129631079Y-107110750D01*
X129632012Y-107083081D01*
X129987337Y-107083081D01*
X129995505Y-107075060D01*
X130022865Y-107043749D01*
X130040416Y-107023437D01*
X130091430Y-106966337D01*
X130148386Y-106905451D01*
X130180885Y-106872135D01*
X130235141Y-106819799D01*
X130296690Y-106763173D01*
X130332187Y-106731854D01*
X130363802Y-106703363D01*
X130374954Y-106690411D01*
X130363851Y-106695217D01*
X130359487Y-106698049D01*
X130315449Y-106732168D01*
X130257761Y-106783628D01*
X130193323Y-106845568D01*
X130129033Y-106911128D01*
X130071794Y-106973446D01*
X130028504Y-107025663D01*
X130024244Y-107031375D01*
X129997277Y-107068341D01*
X129987337Y-107083081D01*
X129632012Y-107083081D01*
X129635633Y-106975812D01*
X129752750Y-106975812D01*
X129760687Y-106983750D01*
X129768625Y-106975812D01*
X129760687Y-106967875D01*
X129752750Y-106975812D01*
X129635633Y-106975812D01*
X129640455Y-106832937D01*
X129584654Y-106967875D01*
X129490928Y-107213068D01*
X129403887Y-107476868D01*
X129327479Y-107746248D01*
X129265650Y-108008182D01*
X129257606Y-108047375D01*
X129244785Y-108115387D01*
X129235297Y-108178062D01*
X129228671Y-108242184D01*
X129224436Y-108314535D01*
X129222121Y-108401901D01*
X129221253Y-108511064D01*
X129221211Y-108571250D01*
X117815589Y-108571250D01*
X117674136Y-108547914D01*
X117476607Y-108513653D01*
X117294682Y-108480301D01*
X117130337Y-108448193D01*
X116985550Y-108417664D01*
X116862298Y-108389048D01*
X116762559Y-108362681D01*
X116688308Y-108338897D01*
X116641525Y-108318032D01*
X116624185Y-108300419D01*
X116624125Y-108299438D01*
X116638930Y-108287458D01*
X116679558Y-108273234D01*
X116740325Y-108258454D01*
X116798750Y-108247510D01*
X116859942Y-108239560D01*
X116952070Y-108230864D01*
X117074327Y-108221464D01*
X117225907Y-108211401D01*
X117406006Y-108200717D01*
X117613818Y-108189454D01*
X117848537Y-108177654D01*
X118109358Y-108165359D01*
X118395476Y-108152610D01*
X118706085Y-108139450D01*
X119040379Y-108125921D01*
X119397553Y-108112063D01*
X119426062Y-108110981D01*
X119702635Y-108100031D01*
X119951724Y-108089040D01*
X120177590Y-108077617D01*
X120384498Y-108065372D01*
X120576709Y-108051912D01*
X120758487Y-108036847D01*
X120934095Y-108019785D01*
X121107797Y-108000336D01*
X121283854Y-107978108D01*
X121466530Y-107952709D01*
X121660088Y-107923749D01*
X121868792Y-107890836D01*
X121926375Y-107881532D01*
X122058646Y-107859441D01*
X122218192Y-107831723D01*
X122401176Y-107799086D01*
X122603762Y-107762237D01*
X122822113Y-107721886D01*
X123052392Y-107678739D01*
X123290763Y-107633506D01*
X123533390Y-107586895D01*
X123736125Y-107547497D01*
X123819915Y-107531163D01*
X123904666Y-107514727D01*
X123994002Y-107497498D01*
X124091544Y-107478783D01*
X124200915Y-107457890D01*
X124325740Y-107434129D01*
X124469640Y-107406808D01*
X124636238Y-107375236D01*
X124829157Y-107338720D01*
X124902937Y-107324762D01*
X125314050Y-107249814D01*
X125708241Y-107183616D01*
X126083989Y-107126333D01*
X126439775Y-107078133D01*
X126774077Y-107039184D01*
X127085376Y-107009652D01*
X127372151Y-106989703D01*
X127632882Y-106979506D01*
X127866049Y-106979227D01*
X128001652Y-106984418D01*
X128086625Y-106989017D01*
X128159319Y-106992552D01*
X128214352Y-106994794D01*
X128246339Y-106995512D01*
X128252234Y-106995108D01*
X128268845Y-106956728D01*
X128297688Y-106897970D01*
X128334995Y-106825885D01*
X128377001Y-106747521D01*
X128419941Y-106669927D01*
X128460047Y-106600153D01*
X128487296Y-106555125D01*
X128503143Y-106531312D01*
X129895625Y-106531312D01*
X129903562Y-106539250D01*
X129911500Y-106531312D01*
X129903562Y-106523375D01*
X129895625Y-106531312D01*
X128503143Y-106531312D01*
X128642034Y-106322609D01*
X128802813Y-106108637D01*
X128912498Y-105979829D01*
X130521635Y-105979829D01*
X130537239Y-105982371D01*
X130557829Y-105979452D01*
X130558075Y-105974033D01*
X130536828Y-105970244D01*
X130527648Y-105972780D01*
X130521635Y-105979829D01*
X128912498Y-105979829D01*
X128927849Y-105961802D01*
X130433172Y-105961802D01*
X130454257Y-105964550D01*
X130459187Y-105964655D01*
X130486299Y-105962939D01*
X130488686Y-105957969D01*
X130487270Y-105957337D01*
X130455756Y-105954196D01*
X130439645Y-105956748D01*
X130433172Y-105961802D01*
X128927849Y-105961802D01*
X128943038Y-105943965D01*
X130270745Y-105943965D01*
X130288774Y-105946359D01*
X130324250Y-105947117D01*
X130363442Y-105946133D01*
X130378130Y-105943570D01*
X130367906Y-105940504D01*
X130316628Y-105937847D01*
X130280593Y-105940504D01*
X130270745Y-105943965D01*
X128943038Y-105943965D01*
X128967874Y-105914800D01*
X129135457Y-105742688D01*
X129303800Y-105593889D01*
X129471144Y-105469994D01*
X129635728Y-105372592D01*
X129795792Y-105303273D01*
X129908924Y-105271285D01*
X129970976Y-105261687D01*
X130046106Y-105255187D01*
X130102781Y-105253375D01*
X130167351Y-105251332D01*
X130202547Y-105242784D01*
X130210615Y-105224097D01*
X130193801Y-105191640D01*
X130164344Y-105153804D01*
X130115563Y-105094625D01*
X130176883Y-105094624D01*
X130235690Y-105099815D01*
X130306511Y-105113368D01*
X130377419Y-105132260D01*
X130436483Y-105153463D01*
X130463156Y-105167235D01*
X130488932Y-105179792D01*
X130498875Y-105176684D01*
X130487992Y-105154263D01*
X130462216Y-105123524D01*
X130431858Y-105095049D01*
X130407226Y-105079416D01*
X130403446Y-105078750D01*
X130393821Y-105068829D01*
X130396849Y-105060994D01*
X130417478Y-105052090D01*
X130465614Y-105049515D01*
X130543063Y-105053174D01*
G36*
X127819084Y-110584517D02*
X127991151Y-110590220D01*
X128143209Y-110599872D01*
X128157312Y-110601083D01*
X128320505Y-110616728D01*
X128505274Y-110636577D01*
X128701898Y-110659479D01*
X128900658Y-110684281D01*
X129091833Y-110709832D01*
X129178792Y-110722132D01*
X129324128Y-110742452D01*
X129476907Y-110762635D01*
X129630507Y-110781892D01*
X129778302Y-110799432D01*
X129913670Y-110814467D01*
X130029985Y-110826207D01*
X130109937Y-110833082D01*
X130197924Y-110839742D01*
X130260027Y-110846165D01*
X130301963Y-110855214D01*
X130329446Y-110869753D01*
X130348192Y-110892645D01*
X130363915Y-110926752D01*
X130379765Y-110968252D01*
X130443988Y-111110108D01*
X130528242Y-111256386D01*
X130627488Y-111400530D01*
X130736684Y-111535984D01*
X130850790Y-111656191D01*
X130964764Y-111754595D01*
X131008394Y-111785851D01*
X131121875Y-111861989D01*
X131112295Y-111942885D01*
X131086589Y-112046523D01*
X131036439Y-112152213D01*
X130966961Y-112250431D01*
X130920772Y-112299326D01*
X130876119Y-112338981D01*
X130838166Y-112368075D01*
X130814274Y-112381039D01*
X130812495Y-112381250D01*
X130787497Y-112373179D01*
X130747275Y-112352538D01*
X130720264Y-112336259D01*
X130671571Y-112301008D01*
X130614276Y-112253496D01*
X130565708Y-112208715D01*
X130521976Y-112169290D01*
X130486329Y-112143754D01*
X130465150Y-112136603D01*
X130464036Y-112137096D01*
X130453633Y-112138339D01*
X130456222Y-112132047D01*
X130448587Y-112116264D01*
X130421050Y-112082549D01*
X130377143Y-112034391D01*
X130320401Y-111975277D01*
X130254356Y-111908696D01*
X130182542Y-111838135D01*
X130108492Y-111767083D01*
X130035740Y-111699028D01*
X129967820Y-111637457D01*
X129908265Y-111585860D01*
X129877303Y-111560573D01*
X129807206Y-111506724D01*
X129740210Y-111459350D01*
X129673441Y-111417627D01*
X129604026Y-111380726D01*
X129529091Y-111347820D01*
X129445761Y-111318082D01*
X129351165Y-111290686D01*
X129242427Y-111264803D01*
X129116675Y-111239607D01*
X128971034Y-111214271D01*
X128802631Y-111187967D01*
X128608592Y-111159869D01*
X128386044Y-111129149D01*
X128371625Y-111127191D01*
X128065481Y-111083443D01*
X127788966Y-111039154D01*
X127539954Y-110993832D01*
X127316325Y-110946984D01*
X127115956Y-110898119D01*
X126936723Y-110846743D01*
X126776504Y-110792364D01*
X126633177Y-110734490D01*
X126585687Y-110712884D01*
X126474562Y-110660716D01*
X126596711Y-110641205D01*
X126728061Y-110623917D01*
X126884596Y-110609416D01*
X127059861Y-110597867D01*
X127247398Y-110589437D01*
X127440752Y-110584291D01*
X127633466Y-110582596D01*
X127819084Y-110584517D01*
X127819084Y-110584517D01*
G37*
X127819084Y-110584517D02*
X127991151Y-110590220D01*
X128143209Y-110599872D01*
X128157312Y-110601083D01*
X128320505Y-110616728D01*
X128505274Y-110636577D01*
X128701898Y-110659479D01*
X128900658Y-110684281D01*
X129091833Y-110709832D01*
X129178792Y-110722132D01*
X129324128Y-110742452D01*
X129476907Y-110762635D01*
X129630507Y-110781892D01*
X129778302Y-110799432D01*
X129913670Y-110814467D01*
X130029985Y-110826207D01*
X130109937Y-110833082D01*
X130197924Y-110839742D01*
X130260027Y-110846165D01*
X130301963Y-110855214D01*
X130329446Y-110869753D01*
X130348192Y-110892645D01*
X130363915Y-110926752D01*
X130379765Y-110968252D01*
X130443988Y-111110108D01*
X130528242Y-111256386D01*
X130627488Y-111400530D01*
X130736684Y-111535984D01*
X130850790Y-111656191D01*
X130964764Y-111754595D01*
X131008394Y-111785851D01*
X131121875Y-111861989D01*
X131112295Y-111942885D01*
X131086589Y-112046523D01*
X131036439Y-112152213D01*
X130966961Y-112250431D01*
X130920772Y-112299326D01*
X130876119Y-112338981D01*
X130838166Y-112368075D01*
X130814274Y-112381039D01*
X130812495Y-112381250D01*
X130787497Y-112373179D01*
X130747275Y-112352538D01*
X130720264Y-112336259D01*
X130671571Y-112301008D01*
X130614276Y-112253496D01*
X130565708Y-112208715D01*
X130521976Y-112169290D01*
X130486329Y-112143754D01*
X130465150Y-112136603D01*
X130464036Y-112137096D01*
X130453633Y-112138339D01*
X130456222Y-112132047D01*
X130448587Y-112116264D01*
X130421050Y-112082549D01*
X130377143Y-112034391D01*
X130320401Y-111975277D01*
X130254356Y-111908696D01*
X130182542Y-111838135D01*
X130108492Y-111767083D01*
X130035740Y-111699028D01*
X129967820Y-111637457D01*
X129908265Y-111585860D01*
X129877303Y-111560573D01*
X129807206Y-111506724D01*
X129740210Y-111459350D01*
X129673441Y-111417627D01*
X129604026Y-111380726D01*
X129529091Y-111347820D01*
X129445761Y-111318082D01*
X129351165Y-111290686D01*
X129242427Y-111264803D01*
X129116675Y-111239607D01*
X128971034Y-111214271D01*
X128802631Y-111187967D01*
X128608592Y-111159869D01*
X128386044Y-111129149D01*
X128371625Y-111127191D01*
X128065481Y-111083443D01*
X127788966Y-111039154D01*
X127539954Y-110993832D01*
X127316325Y-110946984D01*
X127115956Y-110898119D01*
X126936723Y-110846743D01*
X126776504Y-110792364D01*
X126633177Y-110734490D01*
X126585687Y-110712884D01*
X126474562Y-110660716D01*
X126596711Y-110641205D01*
X126728061Y-110623917D01*
X126884596Y-110609416D01*
X127059861Y-110597867D01*
X127247398Y-110589437D01*
X127440752Y-110584291D01*
X127633466Y-110582596D01*
X127819084Y-110584517D01*
G36*
X130741022Y-108856022D02*
X130772718Y-108860955D01*
X130826875Y-108866888D01*
X130899945Y-108869431D01*
X130979246Y-108868276D01*
X131009717Y-108866719D01*
X131163371Y-108856988D01*
X131181369Y-108948275D01*
X131224496Y-109130905D01*
X131281355Y-109317479D01*
X131343995Y-109484062D01*
X131447071Y-109690039D01*
X131574934Y-109876657D01*
X131726255Y-110042612D01*
X131899707Y-110186603D01*
X132093963Y-110307328D01*
X132264434Y-110386676D01*
X132431996Y-110445761D01*
X132623434Y-110498449D01*
X132831231Y-110543072D01*
X133047868Y-110577961D01*
X133211485Y-110596725D01*
X133271026Y-110603519D01*
X133301924Y-110610417D01*
X133307274Y-110618332D01*
X133301028Y-110623130D01*
X133275568Y-110628691D01*
X133223936Y-110633548D01*
X133151704Y-110637618D01*
X133064444Y-110640818D01*
X132967730Y-110643066D01*
X132867131Y-110644279D01*
X132768222Y-110644376D01*
X132676573Y-110643272D01*
X132597757Y-110640886D01*
X132537346Y-110637135D01*
X132516086Y-110634764D01*
X132369333Y-110609168D01*
X132212102Y-110573245D01*
X132059977Y-110530828D01*
X131963629Y-110498878D01*
X131730719Y-110400129D01*
X131513328Y-110278143D01*
X131314075Y-110135138D01*
X131135578Y-109973330D01*
X130980453Y-109794939D01*
X130851320Y-109602179D01*
X130805840Y-109518214D01*
X130768195Y-109443513D01*
X130744414Y-109392793D01*
X130734493Y-109361472D01*
X130738424Y-109344971D01*
X130756201Y-109338712D01*
X130787817Y-109338113D01*
X130805588Y-109338454D01*
X130863043Y-109336979D01*
X130914542Y-109331661D01*
X130932130Y-109328137D01*
X130976447Y-109316438D01*
X130931930Y-109278979D01*
X130900733Y-109241736D01*
X130870753Y-109188317D01*
X130857669Y-109156416D01*
X130830956Y-109087776D01*
X130799731Y-109019382D01*
X130767682Y-108958153D01*
X130738498Y-108911010D01*
X130715871Y-108884870D01*
X130711545Y-108882378D01*
X130691580Y-108866670D01*
X130689375Y-108859665D01*
X130703535Y-108854083D01*
X130741022Y-108856022D01*
X130741022Y-108856022D01*
G37*
X130741022Y-108856022D02*
X130772718Y-108860955D01*
X130826875Y-108866888D01*
X130899945Y-108869431D01*
X130979246Y-108868276D01*
X131009717Y-108866719D01*
X131163371Y-108856988D01*
X131181369Y-108948275D01*
X131224496Y-109130905D01*
X131281355Y-109317479D01*
X131343995Y-109484062D01*
X131447071Y-109690039D01*
X131574934Y-109876657D01*
X131726255Y-110042612D01*
X131899707Y-110186603D01*
X132093963Y-110307328D01*
X132264434Y-110386676D01*
X132431996Y-110445761D01*
X132623434Y-110498449D01*
X132831231Y-110543072D01*
X133047868Y-110577961D01*
X133211485Y-110596725D01*
X133271026Y-110603519D01*
X133301924Y-110610417D01*
X133307274Y-110618332D01*
X133301028Y-110623130D01*
X133275568Y-110628691D01*
X133223936Y-110633548D01*
X133151704Y-110637618D01*
X133064444Y-110640818D01*
X132967730Y-110643066D01*
X132867131Y-110644279D01*
X132768222Y-110644376D01*
X132676573Y-110643272D01*
X132597757Y-110640886D01*
X132537346Y-110637135D01*
X132516086Y-110634764D01*
X132369333Y-110609168D01*
X132212102Y-110573245D01*
X132059977Y-110530828D01*
X131963629Y-110498878D01*
X131730719Y-110400129D01*
X131513328Y-110278143D01*
X131314075Y-110135138D01*
X131135578Y-109973330D01*
X130980453Y-109794939D01*
X130851320Y-109602179D01*
X130805840Y-109518214D01*
X130768195Y-109443513D01*
X130744414Y-109392793D01*
X130734493Y-109361472D01*
X130738424Y-109344971D01*
X130756201Y-109338712D01*
X130787817Y-109338113D01*
X130805588Y-109338454D01*
X130863043Y-109336979D01*
X130914542Y-109331661D01*
X130932130Y-109328137D01*
X130976447Y-109316438D01*
X130931930Y-109278979D01*
X130900733Y-109241736D01*
X130870753Y-109188317D01*
X130857669Y-109156416D01*
X130830956Y-109087776D01*
X130799731Y-109019382D01*
X130767682Y-108958153D01*
X130738498Y-108911010D01*
X130715871Y-108884870D01*
X130711545Y-108882378D01*
X130691580Y-108866670D01*
X130689375Y-108859665D01*
X130703535Y-108854083D01*
X130741022Y-108856022D01*
G36*
X131233647Y-107063125D02*
X131333761Y-107155418D01*
X131462786Y-107240528D01*
X131618491Y-107317454D01*
X131798644Y-107385198D01*
X132001015Y-107442761D01*
X132157812Y-107477066D01*
X132205212Y-107485768D01*
X132273284Y-107497613D01*
X132356682Y-107511735D01*
X132450062Y-107527267D01*
X132548081Y-107543342D01*
X132645394Y-107559094D01*
X132736657Y-107573656D01*
X132816526Y-107586162D01*
X132879655Y-107595744D01*
X132920702Y-107601537D01*
X132933624Y-107602875D01*
X132935319Y-107588766D01*
X132929992Y-107551187D01*
X132919126Y-107497254D01*
X132904207Y-107434085D01*
X132886717Y-107368800D01*
X132880156Y-107346410D01*
X132864300Y-107292332D01*
X132852911Y-107250872D01*
X132848379Y-107230752D01*
X132848375Y-107230554D01*
X132858522Y-107227496D01*
X132885880Y-107243325D01*
X132925822Y-107273876D01*
X132973720Y-107314989D01*
X133024949Y-107362501D01*
X133074880Y-107412251D01*
X133118887Y-107460076D01*
X133152344Y-107501814D01*
X133156392Y-107507625D01*
X133168177Y-107523560D01*
X133175683Y-107526790D01*
X133179625Y-107513090D01*
X133180716Y-107478236D01*
X133179673Y-107418006D01*
X133178562Y-107376622D01*
X133177408Y-107307337D01*
X133177952Y-107251579D01*
X133180035Y-107215823D01*
X133182748Y-107205966D01*
X133205087Y-107219288D01*
X133236998Y-107255153D01*
X133274092Y-107307589D01*
X133311977Y-107370624D01*
X133332676Y-107409874D01*
X133390889Y-107526436D01*
X133425226Y-107494537D01*
X133449910Y-107477852D01*
X133498243Y-107450348D01*
X133565146Y-107414723D01*
X133645540Y-107373677D01*
X133734346Y-107329910D01*
X133741062Y-107326662D01*
X133859681Y-107267923D01*
X133951744Y-107218936D01*
X134020286Y-107177944D01*
X134068344Y-107143191D01*
X134086343Y-107126906D01*
X134121766Y-107092318D01*
X134147085Y-107069155D01*
X134155310Y-107063125D01*
X134156218Y-107077466D01*
X134152025Y-107115634D01*
X134143967Y-107170343D01*
X134133278Y-107234308D01*
X134121195Y-107300245D01*
X134108953Y-107360868D01*
X134097787Y-107408892D01*
X134094837Y-107419734D01*
X134083190Y-107465449D01*
X134077911Y-107496926D01*
X134078678Y-107504970D01*
X134096141Y-107504865D01*
X134136233Y-107498619D01*
X134190720Y-107487546D01*
X134197923Y-107485935D01*
X134298599Y-107455814D01*
X134412528Y-107409717D01*
X134529181Y-107352702D01*
X134638030Y-107289829D01*
X134712365Y-107238750D01*
X134759960Y-107204023D01*
X134796206Y-107180048D01*
X134815309Y-107170558D01*
X134816875Y-107171399D01*
X134811073Y-107190416D01*
X134795571Y-107231216D01*
X134773222Y-107286422D01*
X134762407Y-107312298D01*
X134703863Y-107461968D01*
X134653558Y-107615369D01*
X134610526Y-107777123D01*
X134573800Y-107951853D01*
X134542413Y-108144181D01*
X134515399Y-108358730D01*
X134491792Y-108600120D01*
X134490858Y-108610937D01*
X134472310Y-108808144D01*
X134452723Y-108977927D01*
X134431489Y-109124606D01*
X134407997Y-109252506D01*
X134387599Y-109342470D01*
X134362006Y-109434747D01*
X134330761Y-109530769D01*
X134297067Y-109621886D01*
X134264124Y-109699446D01*
X134235133Y-109754796D01*
X134234932Y-109755114D01*
X134205687Y-109801562D01*
X134039000Y-109634318D01*
X133959786Y-109557759D01*
X133879151Y-109486407D01*
X133793835Y-109418183D01*
X133700580Y-109351009D01*
X133596127Y-109282807D01*
X133477216Y-109211498D01*
X133340590Y-109135005D01*
X133182989Y-109051248D01*
X133001155Y-108958150D01*
X132896000Y-108905386D01*
X132758826Y-108836560D01*
X132645942Y-108778902D01*
X132552978Y-108729918D01*
X132475562Y-108687115D01*
X132409324Y-108647998D01*
X132349893Y-108610076D01*
X132292899Y-108570854D01*
X132233969Y-108527839D01*
X132233313Y-108527350D01*
X132132539Y-108445405D01*
X132054864Y-108365394D01*
X131993192Y-108279435D01*
X131964718Y-108229059D01*
X131920119Y-108143875D01*
X131880215Y-108180878D01*
X131849823Y-108206400D01*
X131801618Y-108243963D01*
X131743732Y-108287306D01*
X131713312Y-108309466D01*
X131594014Y-108400564D01*
X131501195Y-108483328D01*
X131431744Y-108560935D01*
X131382550Y-108636564D01*
X131371638Y-108658562D01*
X131327546Y-108753812D01*
X131316939Y-108682375D01*
X131312959Y-108628677D01*
X131317934Y-108571573D01*
X131333292Y-108505753D01*
X131360458Y-108425908D01*
X131400859Y-108326730D01*
X131430862Y-108258382D01*
X131467688Y-108174659D01*
X131493028Y-108112180D01*
X131509018Y-108063512D01*
X131517795Y-108021219D01*
X131521496Y-107977867D01*
X131522225Y-107940511D01*
X131521983Y-107898498D01*
X131519437Y-107863360D01*
X131512583Y-107829407D01*
X131499419Y-107790954D01*
X131477941Y-107742314D01*
X131446144Y-107677799D01*
X131402026Y-107591722D01*
X131393596Y-107575386D01*
X131321512Y-107429735D01*
X131265258Y-107303048D01*
X131225530Y-107197138D01*
X131203024Y-107113819D01*
X131197876Y-107065421D01*
X131198378Y-107023437D01*
X131233647Y-107063125D01*
X131233647Y-107063125D01*
G37*
X131233647Y-107063125D02*
X131333761Y-107155418D01*
X131462786Y-107240528D01*
X131618491Y-107317454D01*
X131798644Y-107385198D01*
X132001015Y-107442761D01*
X132157812Y-107477066D01*
X132205212Y-107485768D01*
X132273284Y-107497613D01*
X132356682Y-107511735D01*
X132450062Y-107527267D01*
X132548081Y-107543342D01*
X132645394Y-107559094D01*
X132736657Y-107573656D01*
X132816526Y-107586162D01*
X132879655Y-107595744D01*
X132920702Y-107601537D01*
X132933624Y-107602875D01*
X132935319Y-107588766D01*
X132929992Y-107551187D01*
X132919126Y-107497254D01*
X132904207Y-107434085D01*
X132886717Y-107368800D01*
X132880156Y-107346410D01*
X132864300Y-107292332D01*
X132852911Y-107250872D01*
X132848379Y-107230752D01*
X132848375Y-107230554D01*
X132858522Y-107227496D01*
X132885880Y-107243325D01*
X132925822Y-107273876D01*
X132973720Y-107314989D01*
X133024949Y-107362501D01*
X133074880Y-107412251D01*
X133118887Y-107460076D01*
X133152344Y-107501814D01*
X133156392Y-107507625D01*
X133168177Y-107523560D01*
X133175683Y-107526790D01*
X133179625Y-107513090D01*
X133180716Y-107478236D01*
X133179673Y-107418006D01*
X133178562Y-107376622D01*
X133177408Y-107307337D01*
X133177952Y-107251579D01*
X133180035Y-107215823D01*
X133182748Y-107205966D01*
X133205087Y-107219288D01*
X133236998Y-107255153D01*
X133274092Y-107307589D01*
X133311977Y-107370624D01*
X133332676Y-107409874D01*
X133390889Y-107526436D01*
X133425226Y-107494537D01*
X133449910Y-107477852D01*
X133498243Y-107450348D01*
X133565146Y-107414723D01*
X133645540Y-107373677D01*
X133734346Y-107329910D01*
X133741062Y-107326662D01*
X133859681Y-107267923D01*
X133951744Y-107218936D01*
X134020286Y-107177944D01*
X134068344Y-107143191D01*
X134086343Y-107126906D01*
X134121766Y-107092318D01*
X134147085Y-107069155D01*
X134155310Y-107063125D01*
X134156218Y-107077466D01*
X134152025Y-107115634D01*
X134143967Y-107170343D01*
X134133278Y-107234308D01*
X134121195Y-107300245D01*
X134108953Y-107360868D01*
X134097787Y-107408892D01*
X134094837Y-107419734D01*
X134083190Y-107465449D01*
X134077911Y-107496926D01*
X134078678Y-107504970D01*
X134096141Y-107504865D01*
X134136233Y-107498619D01*
X134190720Y-107487546D01*
X134197923Y-107485935D01*
X134298599Y-107455814D01*
X134412528Y-107409717D01*
X134529181Y-107352702D01*
X134638030Y-107289829D01*
X134712365Y-107238750D01*
X134759960Y-107204023D01*
X134796206Y-107180048D01*
X134815309Y-107170558D01*
X134816875Y-107171399D01*
X134811073Y-107190416D01*
X134795571Y-107231216D01*
X134773222Y-107286422D01*
X134762407Y-107312298D01*
X134703863Y-107461968D01*
X134653558Y-107615369D01*
X134610526Y-107777123D01*
X134573800Y-107951853D01*
X134542413Y-108144181D01*
X134515399Y-108358730D01*
X134491792Y-108600120D01*
X134490858Y-108610937D01*
X134472310Y-108808144D01*
X134452723Y-108977927D01*
X134431489Y-109124606D01*
X134407997Y-109252506D01*
X134387599Y-109342470D01*
X134362006Y-109434747D01*
X134330761Y-109530769D01*
X134297067Y-109621886D01*
X134264124Y-109699446D01*
X134235133Y-109754796D01*
X134234932Y-109755114D01*
X134205687Y-109801562D01*
X134039000Y-109634318D01*
X133959786Y-109557759D01*
X133879151Y-109486407D01*
X133793835Y-109418183D01*
X133700580Y-109351009D01*
X133596127Y-109282807D01*
X133477216Y-109211498D01*
X133340590Y-109135005D01*
X133182989Y-109051248D01*
X133001155Y-108958150D01*
X132896000Y-108905386D01*
X132758826Y-108836560D01*
X132645942Y-108778902D01*
X132552978Y-108729918D01*
X132475562Y-108687115D01*
X132409324Y-108647998D01*
X132349893Y-108610076D01*
X132292899Y-108570854D01*
X132233969Y-108527839D01*
X132233313Y-108527350D01*
X132132539Y-108445405D01*
X132054864Y-108365394D01*
X131993192Y-108279435D01*
X131964718Y-108229059D01*
X131920119Y-108143875D01*
X131880215Y-108180878D01*
X131849823Y-108206400D01*
X131801618Y-108243963D01*
X131743732Y-108287306D01*
X131713312Y-108309466D01*
X131594014Y-108400564D01*
X131501195Y-108483328D01*
X131431744Y-108560935D01*
X131382550Y-108636564D01*
X131371638Y-108658562D01*
X131327546Y-108753812D01*
X131316939Y-108682375D01*
X131312959Y-108628677D01*
X131317934Y-108571573D01*
X131333292Y-108505753D01*
X131360458Y-108425908D01*
X131400859Y-108326730D01*
X131430862Y-108258382D01*
X131467688Y-108174659D01*
X131493028Y-108112180D01*
X131509018Y-108063512D01*
X131517795Y-108021219D01*
X131521496Y-107977867D01*
X131522225Y-107940511D01*
X131521983Y-107898498D01*
X131519437Y-107863360D01*
X131512583Y-107829407D01*
X131499419Y-107790954D01*
X131477941Y-107742314D01*
X131446144Y-107677799D01*
X131402026Y-107591722D01*
X131393596Y-107575386D01*
X131321512Y-107429735D01*
X131265258Y-107303048D01*
X131225530Y-107197138D01*
X131203024Y-107113819D01*
X131197876Y-107065421D01*
X131198378Y-107023437D01*
X131233647Y-107063125D01*
G36*
X134451750Y-107372687D02*
X134443812Y-107380625D01*
X134435875Y-107372687D01*
X134443812Y-107364750D01*
X134451750Y-107372687D01*
X134451750Y-107372687D01*
G37*
X134451750Y-107372687D02*
X134443812Y-107380625D01*
X134435875Y-107372687D01*
X134443812Y-107364750D01*
X134451750Y-107372687D01*
G36*
X131473755Y-106898447D02*
X131578749Y-106981441D01*
X131708645Y-107053319D01*
X131857893Y-107111958D01*
X132020944Y-107155235D01*
X132192251Y-107181027D01*
X132218052Y-107183236D01*
X132278929Y-107188835D01*
X132324434Y-107194768D01*
X132347966Y-107200088D01*
X132349553Y-107202113D01*
X132331158Y-107208214D01*
X132289240Y-107217392D01*
X132231667Y-107227983D01*
X132209938Y-107231609D01*
X132103553Y-107244101D01*
X131984505Y-107250225D01*
X131863339Y-107250039D01*
X131750604Y-107243601D01*
X131656847Y-107230970D01*
X131644738Y-107228472D01*
X131525546Y-107195052D01*
X131429097Y-107150598D01*
X131347209Y-107091268D01*
X131341442Y-107086126D01*
X131289546Y-107036978D01*
X131261402Y-107000536D01*
X131256039Y-106969583D01*
X131272489Y-106936902D01*
X131309780Y-106895278D01*
X131315066Y-106889891D01*
X131388231Y-106815610D01*
X131473755Y-106898447D01*
X131473755Y-106898447D01*
G37*
X131473755Y-106898447D02*
X131578749Y-106981441D01*
X131708645Y-107053319D01*
X131857893Y-107111958D01*
X132020944Y-107155235D01*
X132192251Y-107181027D01*
X132218052Y-107183236D01*
X132278929Y-107188835D01*
X132324434Y-107194768D01*
X132347966Y-107200088D01*
X132349553Y-107202113D01*
X132331158Y-107208214D01*
X132289240Y-107217392D01*
X132231667Y-107227983D01*
X132209938Y-107231609D01*
X132103553Y-107244101D01*
X131984505Y-107250225D01*
X131863339Y-107250039D01*
X131750604Y-107243601D01*
X131656847Y-107230970D01*
X131644738Y-107228472D01*
X131525546Y-107195052D01*
X131429097Y-107150598D01*
X131347209Y-107091268D01*
X131341442Y-107086126D01*
X131289546Y-107036978D01*
X131261402Y-107000536D01*
X131256039Y-106969583D01*
X131272489Y-106936902D01*
X131309780Y-106895278D01*
X131315066Y-106889891D01*
X131388231Y-106815610D01*
X131473755Y-106898447D01*
G36*
X131686156Y-105711143D02*
X131726214Y-105747501D01*
X131773740Y-105801781D01*
X131825230Y-105868811D01*
X131877183Y-105943424D01*
X131926096Y-106020449D01*
X131968466Y-106094717D01*
X132000791Y-106161059D01*
X132019568Y-106214305D01*
X132022875Y-106237774D01*
X132013978Y-106278379D01*
X131991877Y-106325700D01*
X131984542Y-106337306D01*
X131963335Y-106374286D01*
X131955339Y-106400478D01*
X131956760Y-106405566D01*
X131956538Y-106410588D01*
X131949838Y-106407385D01*
X131927288Y-106409777D01*
X131892032Y-106427805D01*
X131879285Y-106436589D01*
X131815276Y-106468531D01*
X131754297Y-106471710D01*
X131701884Y-106448100D01*
X131663572Y-106399676D01*
X131648541Y-106354299D01*
X131646787Y-106314932D01*
X131665616Y-106285677D01*
X131679860Y-106273549D01*
X131721653Y-106250927D01*
X131776163Y-106233659D01*
X131793452Y-106230402D01*
X131841701Y-106218103D01*
X131859629Y-106203342D01*
X131847871Y-106190700D01*
X131807067Y-106184756D01*
X131787144Y-106185054D01*
X131710341Y-106200242D01*
X131649180Y-106235365D01*
X131608778Y-106286104D01*
X131594250Y-106347901D01*
X131602758Y-106376136D01*
X131624851Y-106419628D01*
X131649812Y-106459875D01*
X131679053Y-106506415D01*
X131699180Y-106544356D01*
X131705375Y-106562936D01*
X131690755Y-106580291D01*
X131651912Y-106596081D01*
X131596373Y-106609030D01*
X131531664Y-106617858D01*
X131465312Y-106621288D01*
X131404842Y-106618039D01*
X131392156Y-106616144D01*
X131318660Y-106597707D01*
X131250605Y-106570585D01*
X131196624Y-106538949D01*
X131165348Y-106506971D01*
X131165014Y-106506358D01*
X131156517Y-106482071D01*
X131156931Y-106450961D01*
X131167191Y-106404807D01*
X131182383Y-106353868D01*
X131200529Y-106293871D01*
X131209242Y-106254480D01*
X131209071Y-106226162D01*
X131200567Y-106199382D01*
X131192313Y-106181389D01*
X131165127Y-106138500D01*
X131135962Y-106114019D01*
X131111252Y-106112904D01*
X131107390Y-106115942D01*
X131107122Y-106134922D01*
X131117309Y-106171851D01*
X131123950Y-106189662D01*
X131144677Y-106253736D01*
X131147680Y-106296618D01*
X131132924Y-106316060D01*
X131125937Y-106317000D01*
X131091668Y-106304173D01*
X131061040Y-106273625D01*
X131043958Y-106237256D01*
X131044043Y-106218617D01*
X131043087Y-106183132D01*
X131029623Y-106139096D01*
X131027495Y-106134447D01*
X131012138Y-106090646D01*
X131012157Y-106050823D01*
X131029967Y-106012432D01*
X131067984Y-105972927D01*
X131128620Y-105929762D01*
X131214292Y-105880391D01*
X131320175Y-105825867D01*
X131432730Y-105772428D01*
X131528096Y-105732498D01*
X131603155Y-105707263D01*
X131654788Y-105697905D01*
X131657067Y-105697875D01*
X131686156Y-105711143D01*
X131686156Y-105711143D01*
G37*
X131686156Y-105711143D02*
X131726214Y-105747501D01*
X131773740Y-105801781D01*
X131825230Y-105868811D01*
X131877183Y-105943424D01*
X131926096Y-106020449D01*
X131968466Y-106094717D01*
X132000791Y-106161059D01*
X132019568Y-106214305D01*
X132022875Y-106237774D01*
X132013978Y-106278379D01*
X131991877Y-106325700D01*
X131984542Y-106337306D01*
X131963335Y-106374286D01*
X131955339Y-106400478D01*
X131956760Y-106405566D01*
X131956538Y-106410588D01*
X131949838Y-106407385D01*
X131927288Y-106409777D01*
X131892032Y-106427805D01*
X131879285Y-106436589D01*
X131815276Y-106468531D01*
X131754297Y-106471710D01*
X131701884Y-106448100D01*
X131663572Y-106399676D01*
X131648541Y-106354299D01*
X131646787Y-106314932D01*
X131665616Y-106285677D01*
X131679860Y-106273549D01*
X131721653Y-106250927D01*
X131776163Y-106233659D01*
X131793452Y-106230402D01*
X131841701Y-106218103D01*
X131859629Y-106203342D01*
X131847871Y-106190700D01*
X131807067Y-106184756D01*
X131787144Y-106185054D01*
X131710341Y-106200242D01*
X131649180Y-106235365D01*
X131608778Y-106286104D01*
X131594250Y-106347901D01*
X131602758Y-106376136D01*
X131624851Y-106419628D01*
X131649812Y-106459875D01*
X131679053Y-106506415D01*
X131699180Y-106544356D01*
X131705375Y-106562936D01*
X131690755Y-106580291D01*
X131651912Y-106596081D01*
X131596373Y-106609030D01*
X131531664Y-106617858D01*
X131465312Y-106621288D01*
X131404842Y-106618039D01*
X131392156Y-106616144D01*
X131318660Y-106597707D01*
X131250605Y-106570585D01*
X131196624Y-106538949D01*
X131165348Y-106506971D01*
X131165014Y-106506358D01*
X131156517Y-106482071D01*
X131156931Y-106450961D01*
X131167191Y-106404807D01*
X131182383Y-106353868D01*
X131200529Y-106293871D01*
X131209242Y-106254480D01*
X131209071Y-106226162D01*
X131200567Y-106199382D01*
X131192313Y-106181389D01*
X131165127Y-106138500D01*
X131135962Y-106114019D01*
X131111252Y-106112904D01*
X131107390Y-106115942D01*
X131107122Y-106134922D01*
X131117309Y-106171851D01*
X131123950Y-106189662D01*
X131144677Y-106253736D01*
X131147680Y-106296618D01*
X131132924Y-106316060D01*
X131125937Y-106317000D01*
X131091668Y-106304173D01*
X131061040Y-106273625D01*
X131043958Y-106237256D01*
X131044043Y-106218617D01*
X131043087Y-106183132D01*
X131029623Y-106139096D01*
X131027495Y-106134447D01*
X131012138Y-106090646D01*
X131012157Y-106050823D01*
X131029967Y-106012432D01*
X131067984Y-105972927D01*
X131128620Y-105929762D01*
X131214292Y-105880391D01*
X131320175Y-105825867D01*
X131432730Y-105772428D01*
X131528096Y-105732498D01*
X131603155Y-105707263D01*
X131654788Y-105697905D01*
X131657067Y-105697875D01*
X131686156Y-105711143D01*
G36*
X133134125Y-106626562D02*
X133126187Y-106634500D01*
X133118250Y-106626562D01*
X133126187Y-106618625D01*
X133134125Y-106626562D01*
X133134125Y-106626562D01*
G37*
X133134125Y-106626562D02*
X133126187Y-106634500D01*
X133118250Y-106626562D01*
X133126187Y-106618625D01*
X133134125Y-106626562D01*
G36*
X133137445Y-105628899D02*
X133157625Y-105640120D01*
X133170980Y-105652468D01*
X133165702Y-105660161D01*
X133137065Y-105665447D01*
X133096353Y-105669275D01*
X133040579Y-105677703D01*
X132997171Y-105691192D01*
X132981366Y-105700954D01*
X132969067Y-105717218D01*
X132978113Y-105726677D01*
X133013516Y-105734234D01*
X133015737Y-105734596D01*
X133078873Y-105734791D01*
X133139908Y-105721215D01*
X133189461Y-105704815D01*
X133216229Y-105700263D01*
X133227203Y-105708379D01*
X133229372Y-105729983D01*
X133229375Y-105731719D01*
X133215918Y-105784228D01*
X133180629Y-105838658D01*
X133131125Y-105885072D01*
X133095952Y-105905775D01*
X133048369Y-105926049D01*
X133016155Y-105933153D01*
X132986126Y-105927802D01*
X132951562Y-105913590D01*
X132894742Y-105877144D01*
X132848580Y-105827377D01*
X132826109Y-105783713D01*
X132828754Y-105743350D01*
X132856446Y-105704260D01*
X132902523Y-105669329D01*
X132960324Y-105641441D01*
X133023185Y-105623484D01*
X133084446Y-105618341D01*
X133137445Y-105628899D01*
X133137445Y-105628899D01*
G37*
X133137445Y-105628899D02*
X133157625Y-105640120D01*
X133170980Y-105652468D01*
X133165702Y-105660161D01*
X133137065Y-105665447D01*
X133096353Y-105669275D01*
X133040579Y-105677703D01*
X132997171Y-105691192D01*
X132981366Y-105700954D01*
X132969067Y-105717218D01*
X132978113Y-105726677D01*
X133013516Y-105734234D01*
X133015737Y-105734596D01*
X133078873Y-105734791D01*
X133139908Y-105721215D01*
X133189461Y-105704815D01*
X133216229Y-105700263D01*
X133227203Y-105708379D01*
X133229372Y-105729983D01*
X133229375Y-105731719D01*
X133215918Y-105784228D01*
X133180629Y-105838658D01*
X133131125Y-105885072D01*
X133095952Y-105905775D01*
X133048369Y-105926049D01*
X133016155Y-105933153D01*
X132986126Y-105927802D01*
X132951562Y-105913590D01*
X132894742Y-105877144D01*
X132848580Y-105827377D01*
X132826109Y-105783713D01*
X132828754Y-105743350D01*
X132856446Y-105704260D01*
X132902523Y-105669329D01*
X132960324Y-105641441D01*
X133023185Y-105623484D01*
X133084446Y-105618341D01*
X133137445Y-105628899D01*
D12*
G04 #@! TO.C,TP1*
X123200000Y-112700000D02*
G75*
G03X123200000Y-112700000I-700000J0D01*
G01*
G04 #@! TO.C,TP2*
X123300000Y-116800000D02*
G75*
G03X123300000Y-116800000I-700000J0D01*
G01*
G04 #@! TO.C,TP3*
X123275000Y-114750000D02*
G75*
G03X123275000Y-114750000I-700000J0D01*
G01*
G04 #@! TD*
M02*
