M48
;DRILL file {KiCad 5.0.1} date Tue 08 Oct 2019 03:13:49 AM CEST
;FORMAT={-:-/ absolute / inch / decimal}
FMAT,2
INCH,TZ
T1C0.0157
T2C0.0236
T3C0.0315
%
G90
G05
M72
T1
X3.9606Y-4.5079
X3.9646Y-4.3228
X3.9764Y-4.6102
X3.9803Y-4.063
X3.9803Y-4.185
X3.9843Y-4.1457
X3.9843Y-4.5551
X3.9843Y-4.6575
X3.9961Y-4.4764
X4.0118Y-3.9646
X4.0236Y-4.1378
X4.0276Y-4.1063
X4.0315Y-4.2205
X4.0354Y-4.3236
X4.0512Y-4.0394
X4.0551Y-4.1535
X4.063Y-4.2047
X4.0866Y-4.0394
X4.0866Y-4.1535
X4.0866Y-4.3189
X4.0984Y-4.3661
X4.1181Y-4.3189
X4.122Y-4.563
X4.126Y-4.185
X4.1457Y-4.2992
X4.1614Y-4.0551
X4.1654Y-3.9567
X4.1811Y-4.3701
X4.2008Y-4.0551
X4.2165Y-4.4213
X4.2412Y-4.577
X4.2436Y-4.0442
X4.247Y-4.1811
X4.2673Y-4.0678
X4.2717Y-4.6142
X4.2795Y-4.0354
X4.2795Y-4.2835
X4.2805Y-4.1811
X4.2825Y-4.577
X4.2874Y-4.3622
X4.2964Y-4.2531
X4.3031Y-4.063
X4.3071Y-4.6024
X4.311Y-4.3858
X4.3256Y-4.2823
X4.3346Y-4.3622
X4.3384Y-4.5551
X4.3622Y-4.4252
X4.3819Y-4.0433
X4.3858Y-4.2323
X4.3858Y-4.6024
X4.3898Y-4.4094
X4.4094Y-4.5709
X4.4124Y-4.0669
X4.4242Y-4.0354
X4.4252Y-4.6063
X4.4409Y-4.5709
X4.4606Y-4.0551
X4.4951Y-4.0394
X4.5Y-4.1575
X4.5Y-4.2638
X4.5069Y-4.0659
X4.5276Y-4.2992
X4.5276Y-4.3465
X4.5394Y-4.0433
X4.5433Y-3.9567
X4.5591Y-4.1575
X4.5591Y-4.1969
X4.5669Y-4.252
X4.5669Y-4.5157
X4.5709Y-4.0472
X4.5709Y-4.622
X4.5827Y-4.6969
X4.5866Y-4.2992
X4.5866Y-4.3465
X4.6024Y-4.252
X4.6457Y-4.2244
X4.6496Y-4.6122
X4.6575Y-4.3228
X4.685Y-3.9685
X4.7028Y-4.1358
X4.7126Y-4.0906
X4.7165Y-4.3583
X4.7165Y-4.3858
X4.7165Y-4.4134
X4.7205Y-4.6024
X4.7264Y-4.565
X4.7323Y-4.1339
X4.7323Y-4.1811
X4.7323Y-4.2126
X4.7323Y-4.6969
X4.7402Y-4.0945
X4.748Y-4.5374
X4.7579Y-4.6398
X4.7618Y-4.4724
X4.7717Y-4.563
X4.7913Y-4.6457
X4.7992Y-4.7047
X4.815Y-4.0945
X4.8307Y-4.6772
X4.8386Y-4.7087
X4.8465Y-4.378
X4.8661Y-4.0748
X4.8701Y-4.3346
X4.8701Y-4.5591
X4.874Y-4.4764
X4.8878Y-4.3839
X4.8937Y-4.2441
X4.8957Y-4.2185
X4.8976Y-4.122
X4.9094Y-4.7008
X4.9252Y-4.378
X4.9291Y-3.9724
X4.9291Y-4.0354
X4.935Y-4.2087
X4.937Y-4.
X4.9488Y-4.122
X4.9567Y-3.9724
X4.9567Y-4.0394
X4.9606Y-4.6516
X4.9626Y-4.4744
X4.9724Y-4.2126
X4.9764Y-4.122
X5.Y-4.735
X5.0118Y-4.2126
X5.063Y-4.219
X5.0669Y-4.0433
X5.0689Y-4.3543
X5.0709Y-4.735
X5.1024Y-4.735
X5.1051Y-4.3898
X5.1063Y-4.189
X5.1181Y-4.1535
X5.1339Y-4.0394
X5.1339Y-4.3898
X5.1398Y-4.4764
X5.1398Y-4.6516
X5.1654Y-4.2953
X5.1732Y-4.7323
X5.1811Y-4.0394
X5.1909Y-4.4252
X5.2008Y-4.7323
X5.2224Y-4.4941
X5.2244Y-4.6075
X5.2323Y-4.6535
X5.2323Y-4.0197
X5.2441Y-4.1811
X5.2717Y-4.3031
X5.2717Y-4.3386
X5.2717Y-4.4055
X5.2835Y-4.0157
X5.3031Y-4.1811
X5.3228Y-4.4567
X5.3228Y-4.6496
X5.3307Y-4.0197
X5.3386Y-4.7303
X5.3425Y-4.5866
X5.3524Y-4.2756
X5.3676Y-4.0566
X5.378Y-3.9724
X5.378Y-4.0079
X5.378Y-4.7244
X5.3846Y-4.5295
X5.3858Y-4.0748
X5.3917Y-4.1024
X5.3917Y-4.1319
X5.4094Y-4.4646
X5.4134Y-4.7205
X5.435Y-4.1339
X5.4449Y-4.2264
X5.4498Y-4.5866
X5.4528Y-4.7244
X5.4685Y-4.378
X5.4685Y-4.4094
X5.4882Y-4.6811
T2
X4.1803Y-4.4705G85X4.1803Y-4.5098
G05
X4.1803Y-4.6437G85X4.1803Y-4.6949
G05
X4.5205Y-4.4705G85X4.5205Y-4.5098
G05
X4.5205Y-4.6437G85X4.5205Y-4.6949
G05
T3
X4.1833Y-4.5059G85X4.1986Y-4.5059
G05
X4.5022Y-4.5059G85X4.5175Y-4.5059
G05
T0
M30
