G04 #@! TF.GenerationSoftware,KiCad,Pcbnew,5.0.1*
G04 #@! TF.CreationDate,2019-10-08T03:13:47+02:00*
G04 #@! TF.ProjectId,USB-C-Screen-Adapter,5553422D432D53637265656E2D416461,rev?*
G04 #@! TF.SameCoordinates,Original*
G04 #@! TF.FileFunction,Legend,Top*
G04 #@! TF.FilePolarity,Positive*
%FSLAX46Y46*%
G04 Gerber Fmt 4.6, Leading zero omitted, Abs format (unit mm)*
G04 Created by KiCad (PCBNEW 5.0.1) date Tue 08 Oct 2019 03:13:47 AM CEST*
%MOMM*%
%LPD*%
G01*
G04 APERTURE LIST*
%ADD10C,0.200000*%
%ADD11C,0.120000*%
%ADD12C,0.100000*%
%ADD13C,0.127000*%
G04 APERTURE END LIST*
D10*
X104985714Y-108242857D02*
X104985714Y-109214285D01*
X105042857Y-109328571D01*
X105100000Y-109385714D01*
X105214285Y-109442857D01*
X105442857Y-109442857D01*
X105557142Y-109385714D01*
X105614285Y-109328571D01*
X105671428Y-109214285D01*
X105671428Y-108242857D01*
X106185714Y-109385714D02*
X106357142Y-109442857D01*
X106642857Y-109442857D01*
X106757142Y-109385714D01*
X106814285Y-109328571D01*
X106871428Y-109214285D01*
X106871428Y-109100000D01*
X106814285Y-108985714D01*
X106757142Y-108928571D01*
X106642857Y-108871428D01*
X106414285Y-108814285D01*
X106300000Y-108757142D01*
X106242857Y-108700000D01*
X106185714Y-108585714D01*
X106185714Y-108471428D01*
X106242857Y-108357142D01*
X106300000Y-108300000D01*
X106414285Y-108242857D01*
X106700000Y-108242857D01*
X106871428Y-108300000D01*
X107785714Y-108814285D02*
X107957142Y-108871428D01*
X108014285Y-108928571D01*
X108071428Y-109042857D01*
X108071428Y-109214285D01*
X108014285Y-109328571D01*
X107957142Y-109385714D01*
X107842857Y-109442857D01*
X107385714Y-109442857D01*
X107385714Y-108242857D01*
X107785714Y-108242857D01*
X107900000Y-108300000D01*
X107957142Y-108357142D01*
X108014285Y-108471428D01*
X108014285Y-108585714D01*
X107957142Y-108700000D01*
X107900000Y-108757142D01*
X107785714Y-108814285D01*
X107385714Y-108814285D01*
X108585714Y-108985714D02*
X109500000Y-108985714D01*
X110757142Y-109328571D02*
X110700000Y-109385714D01*
X110528571Y-109442857D01*
X110414285Y-109442857D01*
X110242857Y-109385714D01*
X110128571Y-109271428D01*
X110071428Y-109157142D01*
X110014285Y-108928571D01*
X110014285Y-108757142D01*
X110071428Y-108528571D01*
X110128571Y-108414285D01*
X110242857Y-108300000D01*
X110414285Y-108242857D01*
X110528571Y-108242857D01*
X110700000Y-108300000D01*
X110757142Y-108357142D01*
X112185714Y-109442857D02*
X112185714Y-108242857D01*
X112471428Y-108242857D01*
X112642857Y-108300000D01*
X112757142Y-108414285D01*
X112814285Y-108528571D01*
X112871428Y-108757142D01*
X112871428Y-108928571D01*
X112814285Y-109157142D01*
X112757142Y-109271428D01*
X112642857Y-109385714D01*
X112471428Y-109442857D01*
X112185714Y-109442857D01*
X113385714Y-109442857D02*
X113385714Y-108242857D01*
X113842857Y-108242857D01*
X113957142Y-108300000D01*
X114014285Y-108357142D01*
X114071428Y-108471428D01*
X114071428Y-108642857D01*
X114014285Y-108757142D01*
X113957142Y-108814285D01*
X113842857Y-108871428D01*
X113385714Y-108871428D01*
X106357142Y-111100000D02*
X106928571Y-111100000D01*
X106242857Y-111442857D02*
X106642857Y-110242857D01*
X107042857Y-111442857D01*
X107957142Y-111442857D02*
X107957142Y-110242857D01*
X107957142Y-111385714D02*
X107842857Y-111442857D01*
X107614285Y-111442857D01*
X107500000Y-111385714D01*
X107442857Y-111328571D01*
X107385714Y-111214285D01*
X107385714Y-110871428D01*
X107442857Y-110757142D01*
X107500000Y-110700000D01*
X107614285Y-110642857D01*
X107842857Y-110642857D01*
X107957142Y-110700000D01*
X109042857Y-111442857D02*
X109042857Y-110814285D01*
X108985714Y-110700000D01*
X108871428Y-110642857D01*
X108642857Y-110642857D01*
X108528571Y-110700000D01*
X109042857Y-111385714D02*
X108928571Y-111442857D01*
X108642857Y-111442857D01*
X108528571Y-111385714D01*
X108471428Y-111271428D01*
X108471428Y-111157142D01*
X108528571Y-111042857D01*
X108642857Y-110985714D01*
X108928571Y-110985714D01*
X109042857Y-110928571D01*
X109614285Y-110642857D02*
X109614285Y-111842857D01*
X109614285Y-110700000D02*
X109728571Y-110642857D01*
X109957142Y-110642857D01*
X110071428Y-110700000D01*
X110128571Y-110757142D01*
X110185714Y-110871428D01*
X110185714Y-111214285D01*
X110128571Y-111328571D01*
X110071428Y-111385714D01*
X109957142Y-111442857D01*
X109728571Y-111442857D01*
X109614285Y-111385714D01*
X110528571Y-110642857D02*
X110985714Y-110642857D01*
X110700000Y-110242857D02*
X110700000Y-111271428D01*
X110757142Y-111385714D01*
X110871428Y-111442857D01*
X110985714Y-111442857D01*
X111842857Y-111385714D02*
X111728571Y-111442857D01*
X111500000Y-111442857D01*
X111385714Y-111385714D01*
X111328571Y-111271428D01*
X111328571Y-110814285D01*
X111385714Y-110700000D01*
X111500000Y-110642857D01*
X111728571Y-110642857D01*
X111842857Y-110700000D01*
X111900000Y-110814285D01*
X111900000Y-110928571D01*
X111328571Y-111042857D01*
X112414285Y-111442857D02*
X112414285Y-110642857D01*
X112414285Y-110871428D02*
X112471428Y-110757142D01*
X112528571Y-110700000D01*
X112642857Y-110642857D01*
X112757142Y-110642857D01*
X139454761Y-105566666D02*
X139502380Y-105423809D01*
X139502380Y-105185714D01*
X139454761Y-105090476D01*
X139407142Y-105042857D01*
X139311904Y-104995238D01*
X139216666Y-104995238D01*
X139121428Y-105042857D01*
X139073809Y-105090476D01*
X139026190Y-105185714D01*
X138978571Y-105376190D01*
X138930952Y-105471428D01*
X138883333Y-105519047D01*
X138788095Y-105566666D01*
X138692857Y-105566666D01*
X138597619Y-105519047D01*
X138550000Y-105471428D01*
X138502380Y-105376190D01*
X138502380Y-105138095D01*
X138550000Y-104995238D01*
X138835714Y-104709523D02*
X138835714Y-104328571D01*
X138502380Y-104566666D02*
X139359523Y-104566666D01*
X139454761Y-104519047D01*
X139502380Y-104423809D01*
X139502380Y-104328571D01*
X139502380Y-103566666D02*
X138978571Y-103566666D01*
X138883333Y-103614285D01*
X138835714Y-103709523D01*
X138835714Y-103900000D01*
X138883333Y-103995238D01*
X139454761Y-103566666D02*
X139502380Y-103661904D01*
X139502380Y-103900000D01*
X139454761Y-103995238D01*
X139359523Y-104042857D01*
X139264285Y-104042857D01*
X139169047Y-103995238D01*
X139121428Y-103900000D01*
X139121428Y-103661904D01*
X139073809Y-103566666D01*
X138835714Y-103233333D02*
X138835714Y-102852380D01*
X138502380Y-103090476D02*
X139359523Y-103090476D01*
X139454761Y-103042857D01*
X139502380Y-102947619D01*
X139502380Y-102852380D01*
X138835714Y-102090476D02*
X139502380Y-102090476D01*
X138835714Y-102519047D02*
X139359523Y-102519047D01*
X139454761Y-102471428D01*
X139502380Y-102376190D01*
X139502380Y-102233333D01*
X139454761Y-102138095D01*
X139407142Y-102090476D01*
X139454761Y-101661904D02*
X139502380Y-101566666D01*
X139502380Y-101376190D01*
X139454761Y-101280952D01*
X139359523Y-101233333D01*
X139311904Y-101233333D01*
X139216666Y-101280952D01*
X139169047Y-101376190D01*
X139169047Y-101519047D01*
X139121428Y-101614285D01*
X139026190Y-101661904D01*
X138978571Y-101661904D01*
X138883333Y-101614285D01*
X138835714Y-101519047D01*
X138835714Y-101376190D01*
X138883333Y-101280952D01*
X138002380Y-105476190D02*
X137002380Y-105476190D01*
X137002380Y-105095238D01*
X137050000Y-105000000D01*
X137097619Y-104952380D01*
X137192857Y-104904761D01*
X137335714Y-104904761D01*
X137430952Y-104952380D01*
X137478571Y-105000000D01*
X137526190Y-105095238D01*
X137526190Y-105476190D01*
X138002380Y-104333333D02*
X137954761Y-104428571D01*
X137907142Y-104476190D01*
X137811904Y-104523809D01*
X137526190Y-104523809D01*
X137430952Y-104476190D01*
X137383333Y-104428571D01*
X137335714Y-104333333D01*
X137335714Y-104190476D01*
X137383333Y-104095238D01*
X137430952Y-104047619D01*
X137526190Y-104000000D01*
X137811904Y-104000000D01*
X137907142Y-104047619D01*
X137954761Y-104095238D01*
X138002380Y-104190476D01*
X138002380Y-104333333D01*
X137335714Y-103666666D02*
X138002380Y-103476190D01*
X137526190Y-103285714D01*
X138002380Y-103095238D01*
X137335714Y-102904761D01*
X137954761Y-102142857D02*
X138002380Y-102238095D01*
X138002380Y-102428571D01*
X137954761Y-102523809D01*
X137859523Y-102571428D01*
X137478571Y-102571428D01*
X137383333Y-102523809D01*
X137335714Y-102428571D01*
X137335714Y-102238095D01*
X137383333Y-102142857D01*
X137478571Y-102095238D01*
X137573809Y-102095238D01*
X137669047Y-102571428D01*
X138002380Y-101666666D02*
X137335714Y-101666666D01*
X137526190Y-101666666D02*
X137430952Y-101619047D01*
X137383333Y-101571428D01*
X137335714Y-101476190D01*
X137335714Y-101380952D01*
D11*
G04 #@! TO.C,R3*
X122041422Y-107410000D02*
X122558578Y-107410000D01*
X122041422Y-105990000D02*
X122558578Y-105990000D01*
G04 #@! TO.C,R4*
X122041422Y-103990000D02*
X122558578Y-103990000D01*
X122041422Y-105410000D02*
X122558578Y-105410000D01*
G04 #@! TO.C,FB1*
X134660000Y-117487221D02*
X134660000Y-117812779D01*
X133640000Y-117487221D02*
X133640000Y-117812779D01*
G04 #@! TO.C,U4*
X115293799Y-108600000D02*
X115293799Y-107400000D01*
X115293799Y-107400000D02*
X117993799Y-107400000D01*
X119293799Y-112200000D02*
X115293799Y-112200000D01*
X115293799Y-112200000D02*
X115293799Y-111000000D01*
G04 #@! TO.C,SW1*
X135770000Y-113400000D02*
X135650000Y-113400000D01*
X137920000Y-113400000D02*
X136780000Y-113400000D01*
X139050000Y-113400000D02*
X138930000Y-113400000D01*
X139050000Y-117800000D02*
X139050000Y-113400000D01*
X138930000Y-117800000D02*
X139050000Y-117800000D01*
X136780000Y-117800000D02*
X137920000Y-117800000D01*
X135650000Y-117800000D02*
X135770000Y-117800000D01*
X135650000Y-113400000D02*
X135650000Y-117800000D01*
G04 #@! TO.C,C6*
X121590000Y-101841422D02*
X121590000Y-102358578D01*
X123010000Y-101841422D02*
X123010000Y-102358578D01*
G04 #@! TO.C,C1*
X134440000Y-102358577D02*
X134440000Y-101841421D01*
X135860000Y-102358577D02*
X135860000Y-101841421D01*
G04 #@! TO.C,C4*
X133960000Y-102358577D02*
X133960000Y-101841421D01*
X132540000Y-102358577D02*
X132540000Y-101841421D01*
G04 #@! TO.C,C3*
X133641422Y-108490000D02*
X134158578Y-108490000D01*
X133641422Y-109910000D02*
X134158578Y-109910000D01*
G04 #@! TO.C,C5*
X124990000Y-108841422D02*
X124990000Y-109358578D01*
X126410000Y-108841422D02*
X126410000Y-109358578D01*
G04 #@! TO.C,C7*
X128310000Y-108841422D02*
X128310000Y-109358578D01*
X126890000Y-108841422D02*
X126890000Y-109358578D01*
G04 #@! TO.C,C8*
X119790000Y-101841422D02*
X119790000Y-102358578D01*
X121210000Y-101841422D02*
X121210000Y-102358578D01*
G04 #@! TO.C,C9*
X133641422Y-110390000D02*
X134158578Y-110390000D01*
X133641422Y-111810000D02*
X134158578Y-111810000D01*
G04 #@! TO.C,C2*
X118158578Y-112690000D02*
X117641422Y-112690000D01*
X118158578Y-114110000D02*
X117641422Y-114110000D01*
G04 #@! TO.C,C11*
X118158578Y-107010000D02*
X117641422Y-107010000D01*
X118158578Y-105590000D02*
X117641422Y-105590000D01*
G04 #@! TO.C,D2*
X123300000Y-100600000D02*
X127150000Y-100600000D01*
X123300000Y-102600000D02*
X127150000Y-102600000D01*
X123300000Y-100600000D02*
X123300000Y-102600000D01*
G04 #@! TO.C,D1*
X127800000Y-105100000D02*
X127800000Y-107100000D01*
X127800000Y-107100000D02*
X131650000Y-107100000D01*
X127800000Y-105100000D02*
X131650000Y-105100000D01*
G04 #@! TO.C,L1*
X136600000Y-108000000D02*
X136600000Y-104000000D01*
X132400000Y-108000000D02*
X132400000Y-104000000D01*
G04 #@! TO.C,L2*
X127900000Y-104700000D02*
X127900000Y-100700000D01*
X132100000Y-104700000D02*
X132100000Y-100700000D01*
G04 #@! TO.C,D4*
X136815000Y-105815000D02*
X136815000Y-108100000D01*
X138285000Y-105815000D02*
X136815000Y-105815000D01*
X138285000Y-108100000D02*
X138285000Y-105815000D01*
G04 #@! TO.C,D3*
X139785000Y-108100000D02*
X139785000Y-105815000D01*
X139785000Y-105815000D02*
X138315000Y-105815000D01*
X138315000Y-105815000D02*
X138315000Y-108100000D01*
G04 #@! TO.C,U3*
X125165000Y-119510000D02*
X124690000Y-119510000D01*
X124690000Y-119510000D02*
X124690000Y-119035000D01*
X131435000Y-112290000D02*
X131910000Y-112290000D01*
X131910000Y-112290000D02*
X131910000Y-112765000D01*
X125165000Y-112290000D02*
X124690000Y-112290000D01*
X124690000Y-112290000D02*
X124690000Y-112765000D01*
X131435000Y-119510000D02*
X131910000Y-119510000D01*
G04 #@! TO.C,Q2*
X104560000Y-113180000D02*
X103100000Y-113180000D01*
X104560000Y-110020000D02*
X102400000Y-110020000D01*
X104560000Y-110020000D02*
X104560000Y-110950000D01*
X104560000Y-113180000D02*
X104560000Y-112250000D01*
G04 #@! TO.C,Q1*
X120620000Y-110360000D02*
X121550000Y-110360000D01*
X123780000Y-110360000D02*
X122850000Y-110360000D01*
X123780000Y-110360000D02*
X123780000Y-108200000D01*
X120620000Y-110360000D02*
X120620000Y-108900000D01*
G04 #@! TO.C,U2*
X124290000Y-103800000D02*
X124290000Y-105600000D01*
X127510000Y-105600000D02*
X127510000Y-103150000D01*
G04 #@! TO.C,U1*
X132010000Y-110000000D02*
X132010000Y-107550000D01*
X128790000Y-108200000D02*
X128790000Y-110000000D01*
G04 #@! TO.C,U5*
X116490000Y-116000000D02*
X116490000Y-117800000D01*
X119710000Y-117800000D02*
X119710000Y-115350000D01*
D12*
G04 #@! TO.C,U6*
X101775000Y-102375000D02*
X101775000Y-104725000D01*
X101775000Y-104725000D02*
X102775000Y-104725000D01*
X118775000Y-102375000D02*
X118775000Y-104725000D01*
X118775000Y-104725000D02*
X117775000Y-104725000D01*
G04 #@! TO.C,U7*
X101650000Y-107800000D02*
G75*
G03X101650000Y-107800000I-50000J0D01*
G01*
D13*
G04 #@! TO.C,P1*
X100895000Y-119603500D02*
X100895000Y-114917200D01*
X104705000Y-119603500D02*
X104705000Y-114917200D01*
X102076100Y-113736100D02*
X100895000Y-114917200D01*
X103523900Y-113736100D02*
X104705000Y-114917200D01*
X103523900Y-113736100D02*
G75*
G03X102076100Y-113736100I-723900J-723900D01*
G01*
X103752500Y-120556000D02*
X101847500Y-120556000D01*
X100895000Y-119603500D02*
G75*
G03X101847500Y-120556000I952500J0D01*
G01*
X103752500Y-120556000D02*
G75*
G03X104705000Y-119603500I0J952500D01*
G01*
D12*
G04 #@! TO.C,J1*
X106000000Y-115600000D02*
X106000000Y-117100000D01*
X106000000Y-120100000D02*
X106000000Y-121600000D01*
X106000000Y-121600000D02*
X115000000Y-121600000D01*
X115000000Y-121600000D02*
X115000000Y-120100000D01*
X115000000Y-117100000D02*
X115000000Y-115600000D01*
G04 #@! TO.C,R3*
X120125000Y-106903571D02*
X119975000Y-106689285D01*
X119867857Y-106903571D02*
X119867857Y-106453571D01*
X120039285Y-106453571D01*
X120082142Y-106475000D01*
X120103571Y-106496428D01*
X120125000Y-106539285D01*
X120125000Y-106603571D01*
X120103571Y-106646428D01*
X120082142Y-106667857D01*
X120039285Y-106689285D01*
X119867857Y-106689285D01*
X120275000Y-106453571D02*
X120553571Y-106453571D01*
X120403571Y-106625000D01*
X120467857Y-106625000D01*
X120510714Y-106646428D01*
X120532142Y-106667857D01*
X120553571Y-106710714D01*
X120553571Y-106817857D01*
X120532142Y-106860714D01*
X120510714Y-106882142D01*
X120467857Y-106903571D01*
X120339285Y-106903571D01*
X120296428Y-106882142D01*
X120275000Y-106860714D01*
G04 #@! TO.C,R4*
X120175000Y-104903571D02*
X120025000Y-104689285D01*
X119917857Y-104903571D02*
X119917857Y-104453571D01*
X120089285Y-104453571D01*
X120132142Y-104475000D01*
X120153571Y-104496428D01*
X120175000Y-104539285D01*
X120175000Y-104603571D01*
X120153571Y-104646428D01*
X120132142Y-104667857D01*
X120089285Y-104689285D01*
X119917857Y-104689285D01*
X120560714Y-104603571D02*
X120560714Y-104903571D01*
X120453571Y-104432142D02*
X120346428Y-104753571D01*
X120625000Y-104753571D01*
G04 #@! TO.C,R10*
X120735714Y-113878571D02*
X120585714Y-113664285D01*
X120478571Y-113878571D02*
X120478571Y-113428571D01*
X120650000Y-113428571D01*
X120692857Y-113450000D01*
X120714285Y-113471428D01*
X120735714Y-113514285D01*
X120735714Y-113578571D01*
X120714285Y-113621428D01*
X120692857Y-113642857D01*
X120650000Y-113664285D01*
X120478571Y-113664285D01*
X121164285Y-113878571D02*
X120907142Y-113878571D01*
X121035714Y-113878571D02*
X121035714Y-113428571D01*
X120992857Y-113492857D01*
X120950000Y-113535714D01*
X120907142Y-113557142D01*
X121442857Y-113428571D02*
X121485714Y-113428571D01*
X121528571Y-113450000D01*
X121550000Y-113471428D01*
X121571428Y-113514285D01*
X121592857Y-113600000D01*
X121592857Y-113707142D01*
X121571428Y-113792857D01*
X121550000Y-113835714D01*
X121528571Y-113857142D01*
X121485714Y-113878571D01*
X121442857Y-113878571D01*
X121400000Y-113857142D01*
X121378571Y-113835714D01*
X121357142Y-113792857D01*
X121335714Y-113707142D01*
X121335714Y-113600000D01*
X121357142Y-113514285D01*
X121378571Y-113471428D01*
X121400000Y-113450000D01*
X121442857Y-113428571D01*
G04 #@! TO.C,R9*
X118175000Y-120253571D02*
X118025000Y-120039285D01*
X117917857Y-120253571D02*
X117917857Y-119803571D01*
X118089285Y-119803571D01*
X118132142Y-119825000D01*
X118153571Y-119846428D01*
X118175000Y-119889285D01*
X118175000Y-119953571D01*
X118153571Y-119996428D01*
X118132142Y-120017857D01*
X118089285Y-120039285D01*
X117917857Y-120039285D01*
X118389285Y-120253571D02*
X118475000Y-120253571D01*
X118517857Y-120232142D01*
X118539285Y-120210714D01*
X118582142Y-120146428D01*
X118603571Y-120060714D01*
X118603571Y-119889285D01*
X118582142Y-119846428D01*
X118560714Y-119825000D01*
X118517857Y-119803571D01*
X118432142Y-119803571D01*
X118389285Y-119825000D01*
X118367857Y-119846428D01*
X118346428Y-119889285D01*
X118346428Y-119996428D01*
X118367857Y-120039285D01*
X118389285Y-120060714D01*
X118432142Y-120082142D01*
X118517857Y-120082142D01*
X118560714Y-120060714D01*
X118582142Y-120039285D01*
X118603571Y-119996428D01*
G04 #@! TO.C,C18*
X123410714Y-120060714D02*
X123389285Y-120082142D01*
X123325000Y-120103571D01*
X123282142Y-120103571D01*
X123217857Y-120082142D01*
X123175000Y-120039285D01*
X123153571Y-119996428D01*
X123132142Y-119910714D01*
X123132142Y-119846428D01*
X123153571Y-119760714D01*
X123175000Y-119717857D01*
X123217857Y-119675000D01*
X123282142Y-119653571D01*
X123325000Y-119653571D01*
X123389285Y-119675000D01*
X123410714Y-119696428D01*
X123839285Y-120103571D02*
X123582142Y-120103571D01*
X123710714Y-120103571D02*
X123710714Y-119653571D01*
X123667857Y-119717857D01*
X123625000Y-119760714D01*
X123582142Y-119782142D01*
X124096428Y-119846428D02*
X124053571Y-119825000D01*
X124032142Y-119803571D01*
X124010714Y-119760714D01*
X124010714Y-119739285D01*
X124032142Y-119696428D01*
X124053571Y-119675000D01*
X124096428Y-119653571D01*
X124182142Y-119653571D01*
X124225000Y-119675000D01*
X124246428Y-119696428D01*
X124267857Y-119739285D01*
X124267857Y-119760714D01*
X124246428Y-119803571D01*
X124225000Y-119825000D01*
X124182142Y-119846428D01*
X124096428Y-119846428D01*
X124053571Y-119867857D01*
X124032142Y-119889285D01*
X124010714Y-119932142D01*
X124010714Y-120017857D01*
X124032142Y-120060714D01*
X124053571Y-120082142D01*
X124096428Y-120103571D01*
X124182142Y-120103571D01*
X124225000Y-120082142D01*
X124246428Y-120060714D01*
X124267857Y-120017857D01*
X124267857Y-119932142D01*
X124246428Y-119889285D01*
X124225000Y-119867857D01*
X124182142Y-119846428D01*
G04 #@! TO.C,C17*
X132610714Y-117710714D02*
X132589285Y-117732142D01*
X132525000Y-117753571D01*
X132482142Y-117753571D01*
X132417857Y-117732142D01*
X132375000Y-117689285D01*
X132353571Y-117646428D01*
X132332142Y-117560714D01*
X132332142Y-117496428D01*
X132353571Y-117410714D01*
X132375000Y-117367857D01*
X132417857Y-117325000D01*
X132482142Y-117303571D01*
X132525000Y-117303571D01*
X132589285Y-117325000D01*
X132610714Y-117346428D01*
X133039285Y-117753571D02*
X132782142Y-117753571D01*
X132910714Y-117753571D02*
X132910714Y-117303571D01*
X132867857Y-117367857D01*
X132825000Y-117410714D01*
X132782142Y-117432142D01*
X133189285Y-117303571D02*
X133489285Y-117303571D01*
X133296428Y-117753571D01*
G04 #@! TO.C,C16*
X138885714Y-112460714D02*
X138864285Y-112482142D01*
X138800000Y-112503571D01*
X138757142Y-112503571D01*
X138692857Y-112482142D01*
X138650000Y-112439285D01*
X138628571Y-112396428D01*
X138607142Y-112310714D01*
X138607142Y-112246428D01*
X138628571Y-112160714D01*
X138650000Y-112117857D01*
X138692857Y-112075000D01*
X138757142Y-112053571D01*
X138800000Y-112053571D01*
X138864285Y-112075000D01*
X138885714Y-112096428D01*
X139314285Y-112503571D02*
X139057142Y-112503571D01*
X139185714Y-112503571D02*
X139185714Y-112053571D01*
X139142857Y-112117857D01*
X139100000Y-112160714D01*
X139057142Y-112182142D01*
X139700000Y-112053571D02*
X139614285Y-112053571D01*
X139571428Y-112075000D01*
X139550000Y-112096428D01*
X139507142Y-112160714D01*
X139485714Y-112246428D01*
X139485714Y-112417857D01*
X139507142Y-112460714D01*
X139528571Y-112482142D01*
X139571428Y-112503571D01*
X139657142Y-112503571D01*
X139700000Y-112482142D01*
X139721428Y-112460714D01*
X139742857Y-112417857D01*
X139742857Y-112310714D01*
X139721428Y-112267857D01*
X139700000Y-112246428D01*
X139657142Y-112225000D01*
X139571428Y-112225000D01*
X139528571Y-112246428D01*
X139507142Y-112267857D01*
X139485714Y-112310714D01*
G04 #@! TO.C,C15*
X106810714Y-107660714D02*
X106789285Y-107682142D01*
X106725000Y-107703571D01*
X106682142Y-107703571D01*
X106617857Y-107682142D01*
X106575000Y-107639285D01*
X106553571Y-107596428D01*
X106532142Y-107510714D01*
X106532142Y-107446428D01*
X106553571Y-107360714D01*
X106575000Y-107317857D01*
X106617857Y-107275000D01*
X106682142Y-107253571D01*
X106725000Y-107253571D01*
X106789285Y-107275000D01*
X106810714Y-107296428D01*
X107239285Y-107703571D02*
X106982142Y-107703571D01*
X107110714Y-107703571D02*
X107110714Y-107253571D01*
X107067857Y-107317857D01*
X107025000Y-107360714D01*
X106982142Y-107382142D01*
X107646428Y-107253571D02*
X107432142Y-107253571D01*
X107410714Y-107467857D01*
X107432142Y-107446428D01*
X107475000Y-107425000D01*
X107582142Y-107425000D01*
X107625000Y-107446428D01*
X107646428Y-107467857D01*
X107667857Y-107510714D01*
X107667857Y-107617857D01*
X107646428Y-107660714D01*
X107625000Y-107682142D01*
X107582142Y-107703571D01*
X107475000Y-107703571D01*
X107432142Y-107682142D01*
X107410714Y-107660714D01*
G04 #@! TO.C,C13*
X110360714Y-107610714D02*
X110339285Y-107632142D01*
X110275000Y-107653571D01*
X110232142Y-107653571D01*
X110167857Y-107632142D01*
X110125000Y-107589285D01*
X110103571Y-107546428D01*
X110082142Y-107460714D01*
X110082142Y-107396428D01*
X110103571Y-107310714D01*
X110125000Y-107267857D01*
X110167857Y-107225000D01*
X110232142Y-107203571D01*
X110275000Y-107203571D01*
X110339285Y-107225000D01*
X110360714Y-107246428D01*
X110789285Y-107653571D02*
X110532142Y-107653571D01*
X110660714Y-107653571D02*
X110660714Y-107203571D01*
X110617857Y-107267857D01*
X110575000Y-107310714D01*
X110532142Y-107332142D01*
X110939285Y-107203571D02*
X111217857Y-107203571D01*
X111067857Y-107375000D01*
X111132142Y-107375000D01*
X111175000Y-107396428D01*
X111196428Y-107417857D01*
X111217857Y-107460714D01*
X111217857Y-107567857D01*
X111196428Y-107610714D01*
X111175000Y-107632142D01*
X111132142Y-107653571D01*
X111003571Y-107653571D01*
X110960714Y-107632142D01*
X110939285Y-107610714D01*
G04 #@! TO.C,C12*
X109010714Y-107610714D02*
X108989285Y-107632142D01*
X108925000Y-107653571D01*
X108882142Y-107653571D01*
X108817857Y-107632142D01*
X108775000Y-107589285D01*
X108753571Y-107546428D01*
X108732142Y-107460714D01*
X108732142Y-107396428D01*
X108753571Y-107310714D01*
X108775000Y-107267857D01*
X108817857Y-107225000D01*
X108882142Y-107203571D01*
X108925000Y-107203571D01*
X108989285Y-107225000D01*
X109010714Y-107246428D01*
X109439285Y-107653571D02*
X109182142Y-107653571D01*
X109310714Y-107653571D02*
X109310714Y-107203571D01*
X109267857Y-107267857D01*
X109225000Y-107310714D01*
X109182142Y-107332142D01*
X109610714Y-107246428D02*
X109632142Y-107225000D01*
X109675000Y-107203571D01*
X109782142Y-107203571D01*
X109825000Y-107225000D01*
X109846428Y-107246428D01*
X109867857Y-107289285D01*
X109867857Y-107332142D01*
X109846428Y-107396428D01*
X109589285Y-107653571D01*
X109867857Y-107653571D01*
G04 #@! TO.C,C19*
X102410714Y-109860714D02*
X102389285Y-109882142D01*
X102325000Y-109903571D01*
X102282142Y-109903571D01*
X102217857Y-109882142D01*
X102175000Y-109839285D01*
X102153571Y-109796428D01*
X102132142Y-109710714D01*
X102132142Y-109646428D01*
X102153571Y-109560714D01*
X102175000Y-109517857D01*
X102217857Y-109475000D01*
X102282142Y-109453571D01*
X102325000Y-109453571D01*
X102389285Y-109475000D01*
X102410714Y-109496428D01*
X102839285Y-109903571D02*
X102582142Y-109903571D01*
X102710714Y-109903571D02*
X102710714Y-109453571D01*
X102667857Y-109517857D01*
X102625000Y-109560714D01*
X102582142Y-109582142D01*
X103053571Y-109903571D02*
X103139285Y-109903571D01*
X103182142Y-109882142D01*
X103203571Y-109860714D01*
X103246428Y-109796428D01*
X103267857Y-109710714D01*
X103267857Y-109539285D01*
X103246428Y-109496428D01*
X103225000Y-109475000D01*
X103182142Y-109453571D01*
X103096428Y-109453571D01*
X103053571Y-109475000D01*
X103032142Y-109496428D01*
X103010714Y-109539285D01*
X103010714Y-109646428D01*
X103032142Y-109689285D01*
X103053571Y-109710714D01*
X103096428Y-109732142D01*
X103182142Y-109732142D01*
X103225000Y-109710714D01*
X103246428Y-109689285D01*
X103267857Y-109646428D01*
G04 #@! TO.C,C10*
X123035714Y-111235714D02*
X123014285Y-111257142D01*
X122950000Y-111278571D01*
X122907142Y-111278571D01*
X122842857Y-111257142D01*
X122800000Y-111214285D01*
X122778571Y-111171428D01*
X122757142Y-111085714D01*
X122757142Y-111021428D01*
X122778571Y-110935714D01*
X122800000Y-110892857D01*
X122842857Y-110850000D01*
X122907142Y-110828571D01*
X122950000Y-110828571D01*
X123014285Y-110850000D01*
X123035714Y-110871428D01*
X123464285Y-111278571D02*
X123207142Y-111278571D01*
X123335714Y-111278571D02*
X123335714Y-110828571D01*
X123292857Y-110892857D01*
X123250000Y-110935714D01*
X123207142Y-110957142D01*
X123742857Y-110828571D02*
X123785714Y-110828571D01*
X123828571Y-110850000D01*
X123850000Y-110871428D01*
X123871428Y-110914285D01*
X123892857Y-111000000D01*
X123892857Y-111107142D01*
X123871428Y-111192857D01*
X123850000Y-111235714D01*
X123828571Y-111257142D01*
X123785714Y-111278571D01*
X123742857Y-111278571D01*
X123700000Y-111257142D01*
X123678571Y-111235714D01*
X123657142Y-111192857D01*
X123635714Y-111107142D01*
X123635714Y-111000000D01*
X123657142Y-110914285D01*
X123678571Y-110871428D01*
X123700000Y-110850000D01*
X123742857Y-110828571D01*
G04 #@! TO.C,C20*
X132610714Y-118335714D02*
X132589285Y-118357142D01*
X132525000Y-118378571D01*
X132482142Y-118378571D01*
X132417857Y-118357142D01*
X132375000Y-118314285D01*
X132353571Y-118271428D01*
X132332142Y-118185714D01*
X132332142Y-118121428D01*
X132353571Y-118035714D01*
X132375000Y-117992857D01*
X132417857Y-117950000D01*
X132482142Y-117928571D01*
X132525000Y-117928571D01*
X132589285Y-117950000D01*
X132610714Y-117971428D01*
X132782142Y-117971428D02*
X132803571Y-117950000D01*
X132846428Y-117928571D01*
X132953571Y-117928571D01*
X132996428Y-117950000D01*
X133017857Y-117971428D01*
X133039285Y-118014285D01*
X133039285Y-118057142D01*
X133017857Y-118121428D01*
X132760714Y-118378571D01*
X133039285Y-118378571D01*
X133317857Y-117928571D02*
X133360714Y-117928571D01*
X133403571Y-117950000D01*
X133425000Y-117971428D01*
X133446428Y-118014285D01*
X133467857Y-118100000D01*
X133467857Y-118207142D01*
X133446428Y-118292857D01*
X133425000Y-118335714D01*
X133403571Y-118357142D01*
X133360714Y-118378571D01*
X133317857Y-118378571D01*
X133275000Y-118357142D01*
X133253571Y-118335714D01*
X133232142Y-118292857D01*
X133210714Y-118207142D01*
X133210714Y-118100000D01*
X133232142Y-118014285D01*
X133253571Y-117971428D01*
X133275000Y-117950000D01*
X133317857Y-117928571D01*
G04 #@! TO.C,C21*
X132635714Y-116460714D02*
X132614285Y-116482142D01*
X132550000Y-116503571D01*
X132507142Y-116503571D01*
X132442857Y-116482142D01*
X132400000Y-116439285D01*
X132378571Y-116396428D01*
X132357142Y-116310714D01*
X132357142Y-116246428D01*
X132378571Y-116160714D01*
X132400000Y-116117857D01*
X132442857Y-116075000D01*
X132507142Y-116053571D01*
X132550000Y-116053571D01*
X132614285Y-116075000D01*
X132635714Y-116096428D01*
X132807142Y-116096428D02*
X132828571Y-116075000D01*
X132871428Y-116053571D01*
X132978571Y-116053571D01*
X133021428Y-116075000D01*
X133042857Y-116096428D01*
X133064285Y-116139285D01*
X133064285Y-116182142D01*
X133042857Y-116246428D01*
X132785714Y-116503571D01*
X133064285Y-116503571D01*
X133492857Y-116503571D02*
X133235714Y-116503571D01*
X133364285Y-116503571D02*
X133364285Y-116053571D01*
X133321428Y-116117857D01*
X133278571Y-116160714D01*
X133235714Y-116182142D01*
G04 #@! TO.C,C22*
X129310714Y-111485714D02*
X129289285Y-111507142D01*
X129225000Y-111528571D01*
X129182142Y-111528571D01*
X129117857Y-111507142D01*
X129075000Y-111464285D01*
X129053571Y-111421428D01*
X129032142Y-111335714D01*
X129032142Y-111271428D01*
X129053571Y-111185714D01*
X129075000Y-111142857D01*
X129117857Y-111100000D01*
X129182142Y-111078571D01*
X129225000Y-111078571D01*
X129289285Y-111100000D01*
X129310714Y-111121428D01*
X129482142Y-111121428D02*
X129503571Y-111100000D01*
X129546428Y-111078571D01*
X129653571Y-111078571D01*
X129696428Y-111100000D01*
X129717857Y-111121428D01*
X129739285Y-111164285D01*
X129739285Y-111207142D01*
X129717857Y-111271428D01*
X129460714Y-111528571D01*
X129739285Y-111528571D01*
X129910714Y-111121428D02*
X129932142Y-111100000D01*
X129975000Y-111078571D01*
X130082142Y-111078571D01*
X130125000Y-111100000D01*
X130146428Y-111121428D01*
X130167857Y-111164285D01*
X130167857Y-111207142D01*
X130146428Y-111271428D01*
X129889285Y-111528571D01*
X130167857Y-111528571D01*
G04 #@! TO.C,C23*
X133635714Y-112660714D02*
X133614285Y-112682142D01*
X133550000Y-112703571D01*
X133507142Y-112703571D01*
X133442857Y-112682142D01*
X133400000Y-112639285D01*
X133378571Y-112596428D01*
X133357142Y-112510714D01*
X133357142Y-112446428D01*
X133378571Y-112360714D01*
X133400000Y-112317857D01*
X133442857Y-112275000D01*
X133507142Y-112253571D01*
X133550000Y-112253571D01*
X133614285Y-112275000D01*
X133635714Y-112296428D01*
X133807142Y-112296428D02*
X133828571Y-112275000D01*
X133871428Y-112253571D01*
X133978571Y-112253571D01*
X134021428Y-112275000D01*
X134042857Y-112296428D01*
X134064285Y-112339285D01*
X134064285Y-112382142D01*
X134042857Y-112446428D01*
X133785714Y-112703571D01*
X134064285Y-112703571D01*
X134214285Y-112253571D02*
X134492857Y-112253571D01*
X134342857Y-112425000D01*
X134407142Y-112425000D01*
X134450000Y-112446428D01*
X134471428Y-112467857D01*
X134492857Y-112510714D01*
X134492857Y-112617857D01*
X134471428Y-112660714D01*
X134450000Y-112682142D01*
X134407142Y-112703571D01*
X134278571Y-112703571D01*
X134235714Y-112682142D01*
X134214285Y-112660714D01*
G04 #@! TO.C,C14*
X105460714Y-107660714D02*
X105439285Y-107682142D01*
X105375000Y-107703571D01*
X105332142Y-107703571D01*
X105267857Y-107682142D01*
X105225000Y-107639285D01*
X105203571Y-107596428D01*
X105182142Y-107510714D01*
X105182142Y-107446428D01*
X105203571Y-107360714D01*
X105225000Y-107317857D01*
X105267857Y-107275000D01*
X105332142Y-107253571D01*
X105375000Y-107253571D01*
X105439285Y-107275000D01*
X105460714Y-107296428D01*
X105889285Y-107703571D02*
X105632142Y-107703571D01*
X105760714Y-107703571D02*
X105760714Y-107253571D01*
X105717857Y-107317857D01*
X105675000Y-107360714D01*
X105632142Y-107382142D01*
X106275000Y-107403571D02*
X106275000Y-107703571D01*
X106167857Y-107232142D02*
X106060714Y-107553571D01*
X106339285Y-107553571D01*
G04 #@! TO.C,FB1*
X132575000Y-116917857D02*
X132425000Y-116917857D01*
X132425000Y-117153571D02*
X132425000Y-116703571D01*
X132639285Y-116703571D01*
X132960714Y-116917857D02*
X133025000Y-116939285D01*
X133046428Y-116960714D01*
X133067857Y-117003571D01*
X133067857Y-117067857D01*
X133046428Y-117110714D01*
X133025000Y-117132142D01*
X132982142Y-117153571D01*
X132810714Y-117153571D01*
X132810714Y-116703571D01*
X132960714Y-116703571D01*
X133003571Y-116725000D01*
X133025000Y-116746428D01*
X133046428Y-116789285D01*
X133046428Y-116832142D01*
X133025000Y-116875000D01*
X133003571Y-116896428D01*
X132960714Y-116917857D01*
X132810714Y-116917857D01*
X133496428Y-117153571D02*
X133239285Y-117153571D01*
X133367857Y-117153571D02*
X133367857Y-116703571D01*
X133325000Y-116767857D01*
X133282142Y-116810714D01*
X133239285Y-116832142D01*
G04 #@! TO.C,R7*
X124325000Y-110103571D02*
X124175000Y-109889285D01*
X124067857Y-110103571D02*
X124067857Y-109653571D01*
X124239285Y-109653571D01*
X124282142Y-109675000D01*
X124303571Y-109696428D01*
X124325000Y-109739285D01*
X124325000Y-109803571D01*
X124303571Y-109846428D01*
X124282142Y-109867857D01*
X124239285Y-109889285D01*
X124067857Y-109889285D01*
X124475000Y-109653571D02*
X124775000Y-109653571D01*
X124582142Y-110103571D01*
G04 #@! TO.C,R1*
X136025000Y-120003571D02*
X135875000Y-119789285D01*
X135767857Y-120003571D02*
X135767857Y-119553571D01*
X135939285Y-119553571D01*
X135982142Y-119575000D01*
X136003571Y-119596428D01*
X136025000Y-119639285D01*
X136025000Y-119703571D01*
X136003571Y-119746428D01*
X135982142Y-119767857D01*
X135939285Y-119789285D01*
X135767857Y-119789285D01*
X136453571Y-120003571D02*
X136196428Y-120003571D01*
X136325000Y-120003571D02*
X136325000Y-119553571D01*
X136282142Y-119617857D01*
X136239285Y-119660714D01*
X136196428Y-119682142D01*
G04 #@! TO.C,R2*
X130750000Y-111553571D02*
X130600000Y-111339285D01*
X130492857Y-111553571D02*
X130492857Y-111103571D01*
X130664285Y-111103571D01*
X130707142Y-111125000D01*
X130728571Y-111146428D01*
X130750000Y-111189285D01*
X130750000Y-111253571D01*
X130728571Y-111296428D01*
X130707142Y-111317857D01*
X130664285Y-111339285D01*
X130492857Y-111339285D01*
X130921428Y-111146428D02*
X130942857Y-111125000D01*
X130985714Y-111103571D01*
X131092857Y-111103571D01*
X131135714Y-111125000D01*
X131157142Y-111146428D01*
X131178571Y-111189285D01*
X131178571Y-111232142D01*
X131157142Y-111296428D01*
X130900000Y-111553571D01*
X131178571Y-111553571D01*
G04 #@! TO.C,R5*
X138578571Y-109825000D02*
X138364285Y-109975000D01*
X138578571Y-110082142D02*
X138128571Y-110082142D01*
X138128571Y-109910714D01*
X138150000Y-109867857D01*
X138171428Y-109846428D01*
X138214285Y-109825000D01*
X138278571Y-109825000D01*
X138321428Y-109846428D01*
X138342857Y-109867857D01*
X138364285Y-109910714D01*
X138364285Y-110082142D01*
X138128571Y-109417857D02*
X138128571Y-109632142D01*
X138342857Y-109653571D01*
X138321428Y-109632142D01*
X138300000Y-109589285D01*
X138300000Y-109482142D01*
X138321428Y-109439285D01*
X138342857Y-109417857D01*
X138385714Y-109396428D01*
X138492857Y-109396428D01*
X138535714Y-109417857D01*
X138557142Y-109439285D01*
X138578571Y-109482142D01*
X138578571Y-109589285D01*
X138557142Y-109632142D01*
X138535714Y-109653571D01*
G04 #@! TO.C,R11*
X101110714Y-113603571D02*
X100960714Y-113389285D01*
X100853571Y-113603571D02*
X100853571Y-113153571D01*
X101025000Y-113153571D01*
X101067857Y-113175000D01*
X101089285Y-113196428D01*
X101110714Y-113239285D01*
X101110714Y-113303571D01*
X101089285Y-113346428D01*
X101067857Y-113367857D01*
X101025000Y-113389285D01*
X100853571Y-113389285D01*
X101539285Y-113603571D02*
X101282142Y-113603571D01*
X101410714Y-113603571D02*
X101410714Y-113153571D01*
X101367857Y-113217857D01*
X101325000Y-113260714D01*
X101282142Y-113282142D01*
X101967857Y-113603571D02*
X101710714Y-113603571D01*
X101839285Y-113603571D02*
X101839285Y-113153571D01*
X101796428Y-113217857D01*
X101753571Y-113260714D01*
X101710714Y-113282142D01*
G04 #@! TO.C,R6*
X121175000Y-111253571D02*
X121025000Y-111039285D01*
X120917857Y-111253571D02*
X120917857Y-110803571D01*
X121089285Y-110803571D01*
X121132142Y-110825000D01*
X121153571Y-110846428D01*
X121175000Y-110889285D01*
X121175000Y-110953571D01*
X121153571Y-110996428D01*
X121132142Y-111017857D01*
X121089285Y-111039285D01*
X120917857Y-111039285D01*
X121560714Y-110803571D02*
X121475000Y-110803571D01*
X121432142Y-110825000D01*
X121410714Y-110846428D01*
X121367857Y-110910714D01*
X121346428Y-110996428D01*
X121346428Y-111167857D01*
X121367857Y-111210714D01*
X121389285Y-111232142D01*
X121432142Y-111253571D01*
X121517857Y-111253571D01*
X121560714Y-111232142D01*
X121582142Y-111210714D01*
X121603571Y-111167857D01*
X121603571Y-111060714D01*
X121582142Y-111017857D01*
X121560714Y-110996428D01*
X121517857Y-110975000D01*
X121432142Y-110975000D01*
X121389285Y-110996428D01*
X121367857Y-111017857D01*
X121346428Y-111060714D01*
G04 #@! TO.C,R12*
X137078571Y-110514285D02*
X136864285Y-110664285D01*
X137078571Y-110771428D02*
X136628571Y-110771428D01*
X136628571Y-110600000D01*
X136650000Y-110557142D01*
X136671428Y-110535714D01*
X136714285Y-110514285D01*
X136778571Y-110514285D01*
X136821428Y-110535714D01*
X136842857Y-110557142D01*
X136864285Y-110600000D01*
X136864285Y-110771428D01*
X137078571Y-110085714D02*
X137078571Y-110342857D01*
X137078571Y-110214285D02*
X136628571Y-110214285D01*
X136692857Y-110257142D01*
X136735714Y-110300000D01*
X136757142Y-110342857D01*
X136671428Y-109914285D02*
X136650000Y-109892857D01*
X136628571Y-109850000D01*
X136628571Y-109742857D01*
X136650000Y-109700000D01*
X136671428Y-109678571D01*
X136714285Y-109657142D01*
X136757142Y-109657142D01*
X136821428Y-109678571D01*
X137078571Y-109935714D01*
X137078571Y-109657142D01*
G04 #@! TO.C,R19*
X100760714Y-107003571D02*
X100610714Y-106789285D01*
X100503571Y-107003571D02*
X100503571Y-106553571D01*
X100675000Y-106553571D01*
X100717857Y-106575000D01*
X100739285Y-106596428D01*
X100760714Y-106639285D01*
X100760714Y-106703571D01*
X100739285Y-106746428D01*
X100717857Y-106767857D01*
X100675000Y-106789285D01*
X100503571Y-106789285D01*
X101189285Y-107003571D02*
X100932142Y-107003571D01*
X101060714Y-107003571D02*
X101060714Y-106553571D01*
X101017857Y-106617857D01*
X100975000Y-106660714D01*
X100932142Y-106682142D01*
X101403571Y-107003571D02*
X101489285Y-107003571D01*
X101532142Y-106982142D01*
X101553571Y-106960714D01*
X101596428Y-106896428D01*
X101617857Y-106810714D01*
X101617857Y-106639285D01*
X101596428Y-106596428D01*
X101575000Y-106575000D01*
X101532142Y-106553571D01*
X101446428Y-106553571D01*
X101403571Y-106575000D01*
X101382142Y-106596428D01*
X101360714Y-106639285D01*
X101360714Y-106746428D01*
X101382142Y-106789285D01*
X101403571Y-106810714D01*
X101446428Y-106832142D01*
X101532142Y-106832142D01*
X101575000Y-106810714D01*
X101596428Y-106789285D01*
X101617857Y-106746428D01*
G04 #@! TO.C,R8*
X122775000Y-113753571D02*
X122625000Y-113539285D01*
X122517857Y-113753571D02*
X122517857Y-113303571D01*
X122689285Y-113303571D01*
X122732142Y-113325000D01*
X122753571Y-113346428D01*
X122775000Y-113389285D01*
X122775000Y-113453571D01*
X122753571Y-113496428D01*
X122732142Y-113517857D01*
X122689285Y-113539285D01*
X122517857Y-113539285D01*
X123032142Y-113496428D02*
X122989285Y-113475000D01*
X122967857Y-113453571D01*
X122946428Y-113410714D01*
X122946428Y-113389285D01*
X122967857Y-113346428D01*
X122989285Y-113325000D01*
X123032142Y-113303571D01*
X123117857Y-113303571D01*
X123160714Y-113325000D01*
X123182142Y-113346428D01*
X123203571Y-113389285D01*
X123203571Y-113410714D01*
X123182142Y-113453571D01*
X123160714Y-113475000D01*
X123117857Y-113496428D01*
X123032142Y-113496428D01*
X122989285Y-113517857D01*
X122967857Y-113539285D01*
X122946428Y-113582142D01*
X122946428Y-113667857D01*
X122967857Y-113710714D01*
X122989285Y-113732142D01*
X123032142Y-113753571D01*
X123117857Y-113753571D01*
X123160714Y-113732142D01*
X123182142Y-113710714D01*
X123203571Y-113667857D01*
X123203571Y-113582142D01*
X123182142Y-113539285D01*
X123160714Y-113517857D01*
X123117857Y-113496428D01*
G04 #@! TO.C,R14*
X136978571Y-109289285D02*
X136764285Y-109439285D01*
X136978571Y-109546428D02*
X136528571Y-109546428D01*
X136528571Y-109375000D01*
X136550000Y-109332142D01*
X136571428Y-109310714D01*
X136614285Y-109289285D01*
X136678571Y-109289285D01*
X136721428Y-109310714D01*
X136742857Y-109332142D01*
X136764285Y-109375000D01*
X136764285Y-109546428D01*
X136978571Y-108860714D02*
X136978571Y-109117857D01*
X136978571Y-108989285D02*
X136528571Y-108989285D01*
X136592857Y-109032142D01*
X136635714Y-109075000D01*
X136657142Y-109117857D01*
X136678571Y-108475000D02*
X136978571Y-108475000D01*
X136507142Y-108582142D02*
X136828571Y-108689285D01*
X136828571Y-108410714D01*
G04 #@! TO.C,R18*
X104110714Y-107003571D02*
X103960714Y-106789285D01*
X103853571Y-107003571D02*
X103853571Y-106553571D01*
X104025000Y-106553571D01*
X104067857Y-106575000D01*
X104089285Y-106596428D01*
X104110714Y-106639285D01*
X104110714Y-106703571D01*
X104089285Y-106746428D01*
X104067857Y-106767857D01*
X104025000Y-106789285D01*
X103853571Y-106789285D01*
X104539285Y-107003571D02*
X104282142Y-107003571D01*
X104410714Y-107003571D02*
X104410714Y-106553571D01*
X104367857Y-106617857D01*
X104325000Y-106660714D01*
X104282142Y-106682142D01*
X104796428Y-106746428D02*
X104753571Y-106725000D01*
X104732142Y-106703571D01*
X104710714Y-106660714D01*
X104710714Y-106639285D01*
X104732142Y-106596428D01*
X104753571Y-106575000D01*
X104796428Y-106553571D01*
X104882142Y-106553571D01*
X104925000Y-106575000D01*
X104946428Y-106596428D01*
X104967857Y-106639285D01*
X104967857Y-106660714D01*
X104946428Y-106703571D01*
X104925000Y-106725000D01*
X104882142Y-106746428D01*
X104796428Y-106746428D01*
X104753571Y-106767857D01*
X104732142Y-106789285D01*
X104710714Y-106832142D01*
X104710714Y-106917857D01*
X104732142Y-106960714D01*
X104753571Y-106982142D01*
X104796428Y-107003571D01*
X104882142Y-107003571D01*
X104925000Y-106982142D01*
X104946428Y-106960714D01*
X104967857Y-106917857D01*
X104967857Y-106832142D01*
X104946428Y-106789285D01*
X104925000Y-106767857D01*
X104882142Y-106746428D01*
G04 #@! TO.C,R15*
X133610714Y-115103571D02*
X133460714Y-114889285D01*
X133353571Y-115103571D02*
X133353571Y-114653571D01*
X133525000Y-114653571D01*
X133567857Y-114675000D01*
X133589285Y-114696428D01*
X133610714Y-114739285D01*
X133610714Y-114803571D01*
X133589285Y-114846428D01*
X133567857Y-114867857D01*
X133525000Y-114889285D01*
X133353571Y-114889285D01*
X134039285Y-115103571D02*
X133782142Y-115103571D01*
X133910714Y-115103571D02*
X133910714Y-114653571D01*
X133867857Y-114717857D01*
X133825000Y-114760714D01*
X133782142Y-114782142D01*
X134446428Y-114653571D02*
X134232142Y-114653571D01*
X134210714Y-114867857D01*
X134232142Y-114846428D01*
X134275000Y-114825000D01*
X134382142Y-114825000D01*
X134425000Y-114846428D01*
X134446428Y-114867857D01*
X134467857Y-114910714D01*
X134467857Y-115017857D01*
X134446428Y-115060714D01*
X134425000Y-115082142D01*
X134382142Y-115103571D01*
X134275000Y-115103571D01*
X134232142Y-115082142D01*
X134210714Y-115060714D01*
G04 #@! TO.C,R16*
X138910714Y-111903571D02*
X138760714Y-111689285D01*
X138653571Y-111903571D02*
X138653571Y-111453571D01*
X138825000Y-111453571D01*
X138867857Y-111475000D01*
X138889285Y-111496428D01*
X138910714Y-111539285D01*
X138910714Y-111603571D01*
X138889285Y-111646428D01*
X138867857Y-111667857D01*
X138825000Y-111689285D01*
X138653571Y-111689285D01*
X139339285Y-111903571D02*
X139082142Y-111903571D01*
X139210714Y-111903571D02*
X139210714Y-111453571D01*
X139167857Y-111517857D01*
X139125000Y-111560714D01*
X139082142Y-111582142D01*
X139725000Y-111453571D02*
X139639285Y-111453571D01*
X139596428Y-111475000D01*
X139575000Y-111496428D01*
X139532142Y-111560714D01*
X139510714Y-111646428D01*
X139510714Y-111817857D01*
X139532142Y-111860714D01*
X139553571Y-111882142D01*
X139596428Y-111903571D01*
X139682142Y-111903571D01*
X139725000Y-111882142D01*
X139746428Y-111860714D01*
X139767857Y-111817857D01*
X139767857Y-111710714D01*
X139746428Y-111667857D01*
X139725000Y-111646428D01*
X139682142Y-111625000D01*
X139596428Y-111625000D01*
X139553571Y-111646428D01*
X139532142Y-111667857D01*
X139510714Y-111710714D01*
G04 #@! TO.C,R17*
X137710714Y-120003571D02*
X137560714Y-119789285D01*
X137453571Y-120003571D02*
X137453571Y-119553571D01*
X137625000Y-119553571D01*
X137667857Y-119575000D01*
X137689285Y-119596428D01*
X137710714Y-119639285D01*
X137710714Y-119703571D01*
X137689285Y-119746428D01*
X137667857Y-119767857D01*
X137625000Y-119789285D01*
X137453571Y-119789285D01*
X138139285Y-120003571D02*
X137882142Y-120003571D01*
X138010714Y-120003571D02*
X138010714Y-119553571D01*
X137967857Y-119617857D01*
X137925000Y-119660714D01*
X137882142Y-119682142D01*
X138289285Y-119553571D02*
X138589285Y-119553571D01*
X138396428Y-120003571D01*
G04 #@! TO.C,R13*
X138910714Y-111303571D02*
X138760714Y-111089285D01*
X138653571Y-111303571D02*
X138653571Y-110853571D01*
X138825000Y-110853571D01*
X138867857Y-110875000D01*
X138889285Y-110896428D01*
X138910714Y-110939285D01*
X138910714Y-111003571D01*
X138889285Y-111046428D01*
X138867857Y-111067857D01*
X138825000Y-111089285D01*
X138653571Y-111089285D01*
X139339285Y-111303571D02*
X139082142Y-111303571D01*
X139210714Y-111303571D02*
X139210714Y-110853571D01*
X139167857Y-110917857D01*
X139125000Y-110960714D01*
X139082142Y-110982142D01*
X139489285Y-110853571D02*
X139767857Y-110853571D01*
X139617857Y-111025000D01*
X139682142Y-111025000D01*
X139725000Y-111046428D01*
X139746428Y-111067857D01*
X139767857Y-111110714D01*
X139767857Y-111217857D01*
X139746428Y-111260714D01*
X139725000Y-111282142D01*
X139682142Y-111303571D01*
X139553571Y-111303571D01*
X139510714Y-111282142D01*
X139489285Y-111260714D01*
G04 #@! TO.C,U4*
X114407142Y-111653571D02*
X114407142Y-112017857D01*
X114428571Y-112060714D01*
X114450000Y-112082142D01*
X114492857Y-112103571D01*
X114578571Y-112103571D01*
X114621428Y-112082142D01*
X114642857Y-112060714D01*
X114664285Y-112017857D01*
X114664285Y-111653571D01*
X115071428Y-111803571D02*
X115071428Y-112103571D01*
X114964285Y-111632142D02*
X114857142Y-111953571D01*
X115135714Y-111953571D01*
G04 #@! TO.C,C6*
X123425000Y-103760714D02*
X123403571Y-103782142D01*
X123339285Y-103803571D01*
X123296428Y-103803571D01*
X123232142Y-103782142D01*
X123189285Y-103739285D01*
X123167857Y-103696428D01*
X123146428Y-103610714D01*
X123146428Y-103546428D01*
X123167857Y-103460714D01*
X123189285Y-103417857D01*
X123232142Y-103375000D01*
X123296428Y-103353571D01*
X123339285Y-103353571D01*
X123403571Y-103375000D01*
X123425000Y-103396428D01*
X123810714Y-103353571D02*
X123725000Y-103353571D01*
X123682142Y-103375000D01*
X123660714Y-103396428D01*
X123617857Y-103460714D01*
X123596428Y-103546428D01*
X123596428Y-103717857D01*
X123617857Y-103760714D01*
X123639285Y-103782142D01*
X123682142Y-103803571D01*
X123767857Y-103803571D01*
X123810714Y-103782142D01*
X123832142Y-103760714D01*
X123853571Y-103717857D01*
X123853571Y-103610714D01*
X123832142Y-103567857D01*
X123810714Y-103546428D01*
X123767857Y-103525000D01*
X123682142Y-103525000D01*
X123639285Y-103546428D01*
X123617857Y-103567857D01*
X123596428Y-103610714D01*
G04 #@! TO.C,C1*
X135050000Y-102260714D02*
X135028571Y-102282142D01*
X134964285Y-102303571D01*
X134921428Y-102303571D01*
X134857142Y-102282142D01*
X134814285Y-102239285D01*
X134792857Y-102196428D01*
X134771428Y-102110714D01*
X134771428Y-102046428D01*
X134792857Y-101960714D01*
X134814285Y-101917857D01*
X134857142Y-101875000D01*
X134921428Y-101853571D01*
X134964285Y-101853571D01*
X135028571Y-101875000D01*
X135050000Y-101896428D01*
X135478571Y-102303571D02*
X135221428Y-102303571D01*
X135350000Y-102303571D02*
X135350000Y-101853571D01*
X135307142Y-101917857D01*
X135264285Y-101960714D01*
X135221428Y-101982142D01*
G04 #@! TO.C,C4*
X133175000Y-102285714D02*
X133153571Y-102307142D01*
X133089285Y-102328571D01*
X133046428Y-102328571D01*
X132982142Y-102307142D01*
X132939285Y-102264285D01*
X132917857Y-102221428D01*
X132896428Y-102135714D01*
X132896428Y-102071428D01*
X132917857Y-101985714D01*
X132939285Y-101942857D01*
X132982142Y-101900000D01*
X133046428Y-101878571D01*
X133089285Y-101878571D01*
X133153571Y-101900000D01*
X133175000Y-101921428D01*
X133560714Y-102028571D02*
X133560714Y-102328571D01*
X133453571Y-101857142D02*
X133346428Y-102178571D01*
X133625000Y-102178571D01*
G04 #@! TO.C,C3*
X135925000Y-108685714D02*
X135903571Y-108707142D01*
X135839285Y-108728571D01*
X135796428Y-108728571D01*
X135732142Y-108707142D01*
X135689285Y-108664285D01*
X135667857Y-108621428D01*
X135646428Y-108535714D01*
X135646428Y-108471428D01*
X135667857Y-108385714D01*
X135689285Y-108342857D01*
X135732142Y-108300000D01*
X135796428Y-108278571D01*
X135839285Y-108278571D01*
X135903571Y-108300000D01*
X135925000Y-108321428D01*
X136075000Y-108278571D02*
X136353571Y-108278571D01*
X136203571Y-108450000D01*
X136267857Y-108450000D01*
X136310714Y-108471428D01*
X136332142Y-108492857D01*
X136353571Y-108535714D01*
X136353571Y-108642857D01*
X136332142Y-108685714D01*
X136310714Y-108707142D01*
X136267857Y-108728571D01*
X136139285Y-108728571D01*
X136096428Y-108707142D01*
X136075000Y-108685714D01*
G04 #@! TO.C,C5*
X125625000Y-107410714D02*
X125603571Y-107432142D01*
X125539285Y-107453571D01*
X125496428Y-107453571D01*
X125432142Y-107432142D01*
X125389285Y-107389285D01*
X125367857Y-107346428D01*
X125346428Y-107260714D01*
X125346428Y-107196428D01*
X125367857Y-107110714D01*
X125389285Y-107067857D01*
X125432142Y-107025000D01*
X125496428Y-107003571D01*
X125539285Y-107003571D01*
X125603571Y-107025000D01*
X125625000Y-107046428D01*
X126032142Y-107003571D02*
X125817857Y-107003571D01*
X125796428Y-107217857D01*
X125817857Y-107196428D01*
X125860714Y-107175000D01*
X125967857Y-107175000D01*
X126010714Y-107196428D01*
X126032142Y-107217857D01*
X126053571Y-107260714D01*
X126053571Y-107367857D01*
X126032142Y-107410714D01*
X126010714Y-107432142D01*
X125967857Y-107453571D01*
X125860714Y-107453571D01*
X125817857Y-107432142D01*
X125796428Y-107410714D01*
G04 #@! TO.C,C7*
X127175000Y-107435714D02*
X127153571Y-107457142D01*
X127089285Y-107478571D01*
X127046428Y-107478571D01*
X126982142Y-107457142D01*
X126939285Y-107414285D01*
X126917857Y-107371428D01*
X126896428Y-107285714D01*
X126896428Y-107221428D01*
X126917857Y-107135714D01*
X126939285Y-107092857D01*
X126982142Y-107050000D01*
X127046428Y-107028571D01*
X127089285Y-107028571D01*
X127153571Y-107050000D01*
X127175000Y-107071428D01*
X127325000Y-107028571D02*
X127625000Y-107028571D01*
X127432142Y-107478571D01*
G04 #@! TO.C,C8*
X119225000Y-102260714D02*
X119203571Y-102282142D01*
X119139285Y-102303571D01*
X119096428Y-102303571D01*
X119032142Y-102282142D01*
X118989285Y-102239285D01*
X118967857Y-102196428D01*
X118946428Y-102110714D01*
X118946428Y-102046428D01*
X118967857Y-101960714D01*
X118989285Y-101917857D01*
X119032142Y-101875000D01*
X119096428Y-101853571D01*
X119139285Y-101853571D01*
X119203571Y-101875000D01*
X119225000Y-101896428D01*
X119482142Y-102046428D02*
X119439285Y-102025000D01*
X119417857Y-102003571D01*
X119396428Y-101960714D01*
X119396428Y-101939285D01*
X119417857Y-101896428D01*
X119439285Y-101875000D01*
X119482142Y-101853571D01*
X119567857Y-101853571D01*
X119610714Y-101875000D01*
X119632142Y-101896428D01*
X119653571Y-101939285D01*
X119653571Y-101960714D01*
X119632142Y-102003571D01*
X119610714Y-102025000D01*
X119567857Y-102046428D01*
X119482142Y-102046428D01*
X119439285Y-102067857D01*
X119417857Y-102089285D01*
X119396428Y-102132142D01*
X119396428Y-102217857D01*
X119417857Y-102260714D01*
X119439285Y-102282142D01*
X119482142Y-102303571D01*
X119567857Y-102303571D01*
X119610714Y-102282142D01*
X119632142Y-102260714D01*
X119653571Y-102217857D01*
X119653571Y-102132142D01*
X119632142Y-102089285D01*
X119610714Y-102067857D01*
X119567857Y-102046428D01*
G04 #@! TO.C,C9*
X135225000Y-112410714D02*
X135203571Y-112432142D01*
X135139285Y-112453571D01*
X135096428Y-112453571D01*
X135032142Y-112432142D01*
X134989285Y-112389285D01*
X134967857Y-112346428D01*
X134946428Y-112260714D01*
X134946428Y-112196428D01*
X134967857Y-112110714D01*
X134989285Y-112067857D01*
X135032142Y-112025000D01*
X135096428Y-112003571D01*
X135139285Y-112003571D01*
X135203571Y-112025000D01*
X135225000Y-112046428D01*
X135439285Y-112453571D02*
X135525000Y-112453571D01*
X135567857Y-112432142D01*
X135589285Y-112410714D01*
X135632142Y-112346428D01*
X135653571Y-112260714D01*
X135653571Y-112089285D01*
X135632142Y-112046428D01*
X135610714Y-112025000D01*
X135567857Y-112003571D01*
X135482142Y-112003571D01*
X135439285Y-112025000D01*
X135417857Y-112046428D01*
X135396428Y-112089285D01*
X135396428Y-112196428D01*
X135417857Y-112239285D01*
X135439285Y-112260714D01*
X135482142Y-112282142D01*
X135567857Y-112282142D01*
X135610714Y-112260714D01*
X135632142Y-112239285D01*
X135653571Y-112196428D01*
G04 #@! TO.C,C2*
X117825000Y-114710714D02*
X117803571Y-114732142D01*
X117739285Y-114753571D01*
X117696428Y-114753571D01*
X117632142Y-114732142D01*
X117589285Y-114689285D01*
X117567857Y-114646428D01*
X117546428Y-114560714D01*
X117546428Y-114496428D01*
X117567857Y-114410714D01*
X117589285Y-114367857D01*
X117632142Y-114325000D01*
X117696428Y-114303571D01*
X117739285Y-114303571D01*
X117803571Y-114325000D01*
X117825000Y-114346428D01*
X117996428Y-114346428D02*
X118017857Y-114325000D01*
X118060714Y-114303571D01*
X118167857Y-114303571D01*
X118210714Y-114325000D01*
X118232142Y-114346428D01*
X118253571Y-114389285D01*
X118253571Y-114432142D01*
X118232142Y-114496428D01*
X117975000Y-114753571D01*
X118253571Y-114753571D01*
G04 #@! TO.C,C11*
X118060714Y-105260714D02*
X118039285Y-105282142D01*
X117975000Y-105303571D01*
X117932142Y-105303571D01*
X117867857Y-105282142D01*
X117825000Y-105239285D01*
X117803571Y-105196428D01*
X117782142Y-105110714D01*
X117782142Y-105046428D01*
X117803571Y-104960714D01*
X117825000Y-104917857D01*
X117867857Y-104875000D01*
X117932142Y-104853571D01*
X117975000Y-104853571D01*
X118039285Y-104875000D01*
X118060714Y-104896428D01*
X118489285Y-105303571D02*
X118232142Y-105303571D01*
X118360714Y-105303571D02*
X118360714Y-104853571D01*
X118317857Y-104917857D01*
X118275000Y-104960714D01*
X118232142Y-104982142D01*
X118917857Y-105303571D02*
X118660714Y-105303571D01*
X118789285Y-105303571D02*
X118789285Y-104853571D01*
X118746428Y-104917857D01*
X118703571Y-104960714D01*
X118660714Y-104982142D01*
G04 #@! TO.C,D2*
X123767857Y-103203571D02*
X123767857Y-102753571D01*
X123875000Y-102753571D01*
X123939285Y-102775000D01*
X123982142Y-102817857D01*
X124003571Y-102860714D01*
X124025000Y-102946428D01*
X124025000Y-103010714D01*
X124003571Y-103096428D01*
X123982142Y-103139285D01*
X123939285Y-103182142D01*
X123875000Y-103203571D01*
X123767857Y-103203571D01*
X124196428Y-102796428D02*
X124217857Y-102775000D01*
X124260714Y-102753571D01*
X124367857Y-102753571D01*
X124410714Y-102775000D01*
X124432142Y-102796428D01*
X124453571Y-102839285D01*
X124453571Y-102882142D01*
X124432142Y-102946428D01*
X124175000Y-103203571D01*
X124453571Y-103203571D01*
G04 #@! TO.C,D1*
X128267857Y-107678571D02*
X128267857Y-107228571D01*
X128375000Y-107228571D01*
X128439285Y-107250000D01*
X128482142Y-107292857D01*
X128503571Y-107335714D01*
X128525000Y-107421428D01*
X128525000Y-107485714D01*
X128503571Y-107571428D01*
X128482142Y-107614285D01*
X128439285Y-107657142D01*
X128375000Y-107678571D01*
X128267857Y-107678571D01*
X128953571Y-107678571D02*
X128696428Y-107678571D01*
X128825000Y-107678571D02*
X128825000Y-107228571D01*
X128782142Y-107292857D01*
X128739285Y-107335714D01*
X128696428Y-107357142D01*
G04 #@! TO.C,L1*
X134450000Y-106203571D02*
X134235714Y-106203571D01*
X134235714Y-105753571D01*
X134835714Y-106203571D02*
X134578571Y-106203571D01*
X134707142Y-106203571D02*
X134707142Y-105753571D01*
X134664285Y-105817857D01*
X134621428Y-105860714D01*
X134578571Y-105882142D01*
G04 #@! TO.C,L2*
X129875000Y-102903571D02*
X129660714Y-102903571D01*
X129660714Y-102453571D01*
X130003571Y-102496428D02*
X130025000Y-102475000D01*
X130067857Y-102453571D01*
X130175000Y-102453571D01*
X130217857Y-102475000D01*
X130239285Y-102496428D01*
X130260714Y-102539285D01*
X130260714Y-102582142D01*
X130239285Y-102646428D01*
X129982142Y-102903571D01*
X130260714Y-102903571D01*
G04 #@! TO.C,U3*
X127532142Y-120028571D02*
X127532142Y-120392857D01*
X127553571Y-120435714D01*
X127575000Y-120457142D01*
X127617857Y-120478571D01*
X127703571Y-120478571D01*
X127746428Y-120457142D01*
X127767857Y-120435714D01*
X127789285Y-120392857D01*
X127789285Y-120028571D01*
X127960714Y-120028571D02*
X128239285Y-120028571D01*
X128089285Y-120200000D01*
X128153571Y-120200000D01*
X128196428Y-120221428D01*
X128217857Y-120242857D01*
X128239285Y-120285714D01*
X128239285Y-120392857D01*
X128217857Y-120435714D01*
X128196428Y-120457142D01*
X128153571Y-120478571D01*
X128025000Y-120478571D01*
X127982142Y-120457142D01*
X127960714Y-120435714D01*
G04 #@! TO.C,Q2*
X103957142Y-113046428D02*
X103914285Y-113025000D01*
X103871428Y-112982142D01*
X103807142Y-112917857D01*
X103764285Y-112896428D01*
X103721428Y-112896428D01*
X103742857Y-113003571D02*
X103700000Y-112982142D01*
X103657142Y-112939285D01*
X103635714Y-112853571D01*
X103635714Y-112703571D01*
X103657142Y-112617857D01*
X103700000Y-112575000D01*
X103742857Y-112553571D01*
X103828571Y-112553571D01*
X103871428Y-112575000D01*
X103914285Y-112617857D01*
X103935714Y-112703571D01*
X103935714Y-112853571D01*
X103914285Y-112939285D01*
X103871428Y-112982142D01*
X103828571Y-113003571D01*
X103742857Y-113003571D01*
X104107142Y-112596428D02*
X104128571Y-112575000D01*
X104171428Y-112553571D01*
X104278571Y-112553571D01*
X104321428Y-112575000D01*
X104342857Y-112596428D01*
X104364285Y-112639285D01*
X104364285Y-112682142D01*
X104342857Y-112746428D01*
X104085714Y-113003571D01*
X104364285Y-113003571D01*
G04 #@! TO.C,Q1*
X120507142Y-107946428D02*
X120464285Y-107925000D01*
X120421428Y-107882142D01*
X120357142Y-107817857D01*
X120314285Y-107796428D01*
X120271428Y-107796428D01*
X120292857Y-107903571D02*
X120250000Y-107882142D01*
X120207142Y-107839285D01*
X120185714Y-107753571D01*
X120185714Y-107603571D01*
X120207142Y-107517857D01*
X120250000Y-107475000D01*
X120292857Y-107453571D01*
X120378571Y-107453571D01*
X120421428Y-107475000D01*
X120464285Y-107517857D01*
X120485714Y-107603571D01*
X120485714Y-107753571D01*
X120464285Y-107839285D01*
X120421428Y-107882142D01*
X120378571Y-107903571D01*
X120292857Y-107903571D01*
X120914285Y-107903571D02*
X120657142Y-107903571D01*
X120785714Y-107903571D02*
X120785714Y-107453571D01*
X120742857Y-107517857D01*
X120700000Y-107560714D01*
X120657142Y-107582142D01*
G04 #@! TO.C,U2*
X126157142Y-106528571D02*
X126157142Y-106892857D01*
X126178571Y-106935714D01*
X126200000Y-106957142D01*
X126242857Y-106978571D01*
X126328571Y-106978571D01*
X126371428Y-106957142D01*
X126392857Y-106935714D01*
X126414285Y-106892857D01*
X126414285Y-106528571D01*
X126607142Y-106571428D02*
X126628571Y-106550000D01*
X126671428Y-106528571D01*
X126778571Y-106528571D01*
X126821428Y-106550000D01*
X126842857Y-106571428D01*
X126864285Y-106614285D01*
X126864285Y-106657142D01*
X126842857Y-106721428D01*
X126585714Y-106978571D01*
X126864285Y-106978571D01*
G04 #@! TO.C,U1*
X131507142Y-110928571D02*
X131507142Y-111292857D01*
X131528571Y-111335714D01*
X131550000Y-111357142D01*
X131592857Y-111378571D01*
X131678571Y-111378571D01*
X131721428Y-111357142D01*
X131742857Y-111335714D01*
X131764285Y-111292857D01*
X131764285Y-110928571D01*
X132214285Y-111378571D02*
X131957142Y-111378571D01*
X132085714Y-111378571D02*
X132085714Y-110928571D01*
X132042857Y-110992857D01*
X132000000Y-111035714D01*
X131957142Y-111057142D01*
G04 #@! TO.C,U5*
X115507142Y-116353571D02*
X115507142Y-116717857D01*
X115528571Y-116760714D01*
X115550000Y-116782142D01*
X115592857Y-116803571D01*
X115678571Y-116803571D01*
X115721428Y-116782142D01*
X115742857Y-116760714D01*
X115764285Y-116717857D01*
X115764285Y-116353571D01*
X116192857Y-116353571D02*
X115978571Y-116353571D01*
X115957142Y-116567857D01*
X115978571Y-116546428D01*
X116021428Y-116525000D01*
X116128571Y-116525000D01*
X116171428Y-116546428D01*
X116192857Y-116567857D01*
X116214285Y-116610714D01*
X116214285Y-116717857D01*
X116192857Y-116760714D01*
X116171428Y-116782142D01*
X116128571Y-116803571D01*
X116021428Y-116803571D01*
X115978571Y-116782142D01*
X115957142Y-116760714D01*
G04 #@! TO.C,U7*
X102257142Y-107103571D02*
X102257142Y-107467857D01*
X102278571Y-107510714D01*
X102300000Y-107532142D01*
X102342857Y-107553571D01*
X102428571Y-107553571D01*
X102471428Y-107532142D01*
X102492857Y-107510714D01*
X102514285Y-107467857D01*
X102514285Y-107103571D01*
X102685714Y-107103571D02*
X102985714Y-107103571D01*
X102792857Y-107553571D01*
G04 #@! TD*
M02*
